<svg baseProfile="tiny" xmlns="http://www.w3.org/2000/svg" viewBox="0 0 160 600" overflow="visible"><g fill="#193062"><path d="M14.4 255.5h10.8v2.9h-7.9v2.6h4.3v2.9h-4.3v5.5h-2.9v-13.9zM28.5 255c1 0 1.7.8 1.7 1.7 0 1-.7 1.7-1.7 1.7s-1.7-.8-1.7-1.7c-.1-.9.7-1.7 1.7-1.7zm1.4 14.3h-2.8v-9.5h2.8v9.5zM41.2 263.3v6h-2.8v-5.4c0-.9-.6-1.6-1.6-1.6s-1.6.7-1.6 1.6v5.4h-2.8v-9.5h2.7v.5c.6-.5 1.4-.8 2.3-.8 2.2 0 3.8 1.6 3.8 3.8zM52.9 254.9v14.4h-2.7v-.6c-.6.5-1.5.8-2.4.8-2.8 0-4.7-2.2-4.7-5s1.9-5 4.7-5c.9 0 1.7.3 2.4.7v-5.4h2.7zm-2.7 9.6c0-1.3-.9-2.3-2.2-2.3-1.2 0-2.2 1-2.2 2.3 0 1.2.9 2.2 2.2 2.2 1.3.1 2.2-.9 2.2-2.2zM61 255.5h3v10.9h7.9v2.9H61v-13.8zM75.1 255c1 0 1.7.8 1.7 1.7 0 1-.7 1.7-1.7 1.7s-1.7-.8-1.7-1.7c-.1-.9.7-1.7 1.7-1.7zm1.4 14.3h-2.8v-9.5h2.8v9.5zM79.9 262.4H78v-2.7h1.9v-1.9c0-1.8 1.2-3 3.1-3h2.1v2.7h-1.6c-.5 0-.8.3-.8.8v1.5h2.4v2.7h-2.4v6.9h-2.8v-7zM95.4 265.5h-6.6c.3.8 1.1 1.4 2.2 1.4.9 0 1.6-.5 2-1.1l2.2 1.3c-.8 1.4-2.4 2.3-4.3 2.3-2.9 0-5-2.2-5-5s2-5 4.8-5 4.8 2.1 4.8 5c0 .4-.1.8-.1 1.1zm-6.7-2h4c-.3-.9-1-1.4-2-1.4s-1.8.5-2 1.4z"/></g><g fill="#193062"><path d="M14.4 281.5h2.9v13.8h-2.9v-13.8zM28.9 289.3v6h-2.8v-5.4c0-.9-.6-1.6-1.6-1.6s-1.6.7-1.6 1.6v5.4h-2.8v-9.5h2.7v.5c.6-.5 1.4-.8 2.3-.8 2.2 0 3.8 1.6 3.8 3.8zM34.7 292.9c.8 0 1.2-.3 1.2-.7 0-.3-.2-.5-.7-.5s-1-.1-1.7-.2c-1.9-.3-2.7-1.4-2.7-2.8 0-1.9 1.6-3.2 3.9-3.2 2.2 0 3.8 1.3 3.9 3.2h-2.7c0-.4-.5-.7-1.2-.7s-1.1.3-1.1.6.2.4.7.5c.6.1 1 .1 1.8.2 1.9.2 2.7 1.4 2.7 2.8 0 1.9-1.6 3.3-4 3.3-2.3 0-4-1.4-4-3.3h2.7c-.1.5.4.8 1.2.8zM49.2 285.7v9.5h-2.7v-.5c-.6.5-1.4.7-2.3.7-2.1 0-3.7-1.6-3.7-3.8v-6h2.8v5.4c0 .9.6 1.6 1.6 1.6s1.6-.7 1.6-1.6v-5.4h2.7zM57.7 285.7v2.8h-1.4c-1.1 0-1.8.8-1.8 1.9v4.9h-2.8v-9.5h2.7v.9c.5-.7 1.4-.9 2.2-.9h1.1zM66.9 289.3v6h-2.7v-.5c-.6.5-1.3.7-2.3.7-2 0-3.3-1.2-3.3-3 0-2 1.5-2.8 3.3-3l2.3-.2v-.1c0-.6-.6-1.1-1.4-1.1-.7 0-1.2.4-1.4.9h-2.7c.1-2 1.8-3.4 4-3.4 2.6-.1 4.2 1.5 4.2 3.7zm-2.7 2.6v-.6l-1.9.2c-.7.1-1 .4-1 .9s.4.9 1.2.9c1.1-.1 1.7-.6 1.7-1.4zM78.2 289.3v6h-2.8v-5.4c0-.9-.6-1.6-1.6-1.6s-1.6.7-1.6 1.6v5.4h-2.8v-9.5h2.7v.5c.6-.5 1.4-.8 2.3-.8 2.2 0 3.8 1.6 3.8 3.8zM84.9 285.5c1.8 0 3.3.9 4.1 2.2l-2.2 1.6c-.4-.6-1-1.1-1.9-1.1-1.2 0-2.2 1-2.2 2.2s.9 2.2 2.2 2.2c.8 0 1.5-.4 1.9-1.1l2.3 1.6c-.8 1.4-2.3 2.2-4.1 2.2-2.9 0-4.9-2.2-4.9-5-.1-2.6 2-4.8 4.8-4.8zM99.4 291.5h-6.6c.3.8 1.1 1.4 2.2 1.4.9 0 1.6-.5 2-1.1l2.2 1.3c-.8 1.4-2.4 2.3-4.3 2.3-2.9 0-5-2.2-5-5s2-5 4.8-5 4.8 2.1 4.8 5c0 .4-.1.8-.1 1.1zm-6.7-2h4c-.3-.9-1-1.4-2-1.4s-1.8.5-2 1.4zM107.7 288.4h-1.9v-2.7h1.9v-1.9c0-1.8 1.2-3 3.1-3h2.1v2.7h-1.6c-.5 0-.8.3-.8.8v1.5h2.4v2.7h-2.4v6.9h-2.8v-7zM118.7 285.5c2.9 0 5 2.2 5 5 0 2.7-2.1 5-5 5s-5-2.2-5-5 2.1-5 5-5zm0 7.2c1.3 0 2.2-1 2.2-2.2 0-1.3-.9-2.2-2.2-2.2s-2.2 1-2.2 2.2c0 1.2.9 2.2 2.2 2.2zM131.6 285.7v2.8h-1.4c-1.1 0-1.8.8-1.8 1.9v4.9h-2.8v-9.5h2.7v.9c.5-.7 1.4-.9 2.2-.9h1.1z"/></g><g fill="#193062"><path d="M22.8 311.7l-4.9 13.5H15l1.5-4.2-3.4-9.3h3l1.8 5.2 1.9-5.2h3zM28.2 311.5c2.9 0 5 2.2 5 5 0 2.7-2.1 5-5 5s-5-2.2-5-5 2.1-5 5-5zm0 7.2c1.3 0 2.2-1 2.2-2.2 0-1.3-.9-2.2-2.2-2.2s-2.2 1-2.2 2.2c0 1.2.9 2.2 2.2 2.2zM43.7 311.7v9.5H41v-.5c-.6.5-1.4.7-2.3.7-2.1 0-3.7-1.6-3.7-3.8v-6h2.8v5.4c0 .9.6 1.6 1.6 1.6s1.6-.7 1.6-1.6v-5.4h2.7zM52.3 311.7v2.8h-1.4c-1.1 0-1.8.8-1.8 1.9v4.9h-2.8v-9.5H49v.9c.5-.7 1.4-.9 2.2-.9h1.1zM60.3 314.4h-1.9v-2.7h1.9v-1.9c0-1.8 1.2-3 3.1-3h2.1v2.7h-1.6c-.5 0-.8.3-.8.8v1.5h2.4v2.7h-2.4v6.9h-2.8v-7zM74.8 315.3v6H72v-.5c-.6.5-1.3.7-2.3.7-2 0-3.3-1.2-3.3-3 0-2 1.5-2.8 3.3-3l2.3-.2v-.1c0-.6-.6-1.1-1.4-1.1-.7 0-1.2.4-1.4.9h-2.7c.1-2 1.8-3.4 4-3.4 2.6-.1 4.3 1.5 4.3 3.7zm-2.8 2.6v-.6l-1.9.2c-.7.1-1 .4-1 .9s.4.9 1.2.9c1.1-.1 1.7-.6 1.7-1.4zM91.1 315v6.2h-2.8v-5.6c0-.8-.5-1.4-1.4-1.4-.8 0-1.4.6-1.4 1.4v5.6h-2.8v-5.6c0-.8-.5-1.4-1.4-1.4-.8 0-1.4.6-1.4 1.4v5.6h-2.8v-9.5h2.7v.5c.6-.4 1.3-.7 2.1-.7 1 0 1.9.4 2.5 1 .7-.6 1.6-1 2.7-1 2.4 0 4 1.5 4 3.5zM94.9 307c1 0 1.7.8 1.7 1.7 0 1-.7 1.7-1.7 1.7s-1.7-.8-1.7-1.7c0-.9.7-1.7 1.7-1.7zm1.4 14.2h-2.8v-9.5h2.8v9.5zM98.8 306.8h2.8v14.4h-2.8v-14.4zM112.6 311.7l-4.9 13.5h-2.9l1.5-4.2-3.4-9.3h3l1.8 5.2 1.9-5.2h3z"/></g><g fill="#193062"><path d="M27.6 337.7l-3.1 9.5h-2.9l-1.2-4-1.2 4h-2.9l-3.2-9.5h3l1.7 5.4 1.7-5.4h1.8l1.6 5.2 1.7-5.2h3zM30.4 333c1 0 1.7.8 1.7 1.7 0 1-.7 1.7-1.7 1.7s-1.7-.8-1.7-1.7c0-.9.7-1.7 1.7-1.7zm1.4 14.2H29v-9.5h2.8v9.5zM37.4 337.7h2.9v2.7h-2.9v3.2c0 .6.4 1 1 1h1.9v2.7h-2.5c-1.9 0-3.3-1.2-3.3-3.2v-3.7h-1.4V339l2.6-3.2h1.5v1.9zM51.1 341.3v5.9h-2.8v-5.4c0-.9-.6-1.6-1.6-1.6s-1.6.7-1.6 1.6v5.4h-2.8v-14.4h2.8v5.4c.6-.5 1.4-.7 2.3-.7 2.1 0 3.7 1.6 3.7 3.8zM63.3 337.5c1.8 0 3.3.9 4.1 2.2l-2.2 1.6c-.4-.6-1-1.1-1.9-1.1-1.2 0-2.2 1-2.2 2.2 0 1.3.9 2.2 2.2 2.2.8 0 1.5-.4 1.9-1.1l2.3 1.6c-.8 1.4-2.3 2.2-4.1 2.2-2.9 0-4.9-2.2-4.9-5-.2-2.6 1.9-4.8 4.8-4.8zM68.9 332.8h2.8v14.4h-2.8v-14.4zM83 343.5h-6.6c.3.8 1.1 1.4 2.2 1.4.9 0 1.6-.5 2-1.1l2.2 1.3c-.8 1.4-2.4 2.3-4.3 2.3-2.9 0-5-2.2-5-5s2-5 4.8-5 4.8 2.1 4.8 5c0 .4 0 .7-.1 1.1zm-6.7-2.1h4c-.3-.9-1-1.4-2-1.4s-1.7.5-2 1.4zM92.9 341.3v6h-2.7v-.5c-.6.5-1.3.7-2.3.7-2 0-3.3-1.2-3.3-3 0-2 1.5-2.8 3.3-3l2.3-.2v-.1c0-.6-.6-1.1-1.4-1.1-.7 0-1.2.4-1.4.9h-2.7c.1-2 1.8-3.4 4-3.4 2.5-.1 4.2 1.5 4.2 3.7zm-2.8 2.6v-.6l-1.9.2c-.7.1-1 .4-1 .9s.4.9 1.2.9c1.1-.1 1.7-.6 1.7-1.4zM101.3 337.7v2.8h-1.4c-1.1 0-1.8.8-1.8 1.9v4.9h-2.8v-9.5H98v.9c.5-.7 1.4-.9 2.2-.9h1.1z"/></g><g fill="#193062"><path d="M15.7 359c1 0 1.7.8 1.7 1.7 0 1-.7 1.7-1.7 1.7s-1.7-.8-1.7-1.7c-.1-1 .7-1.7 1.7-1.7zm1.4 14.2h-2.8v-9.5h2.8v9.5zM28.4 367.3v6h-2.8v-5.4c0-.9-.6-1.6-1.6-1.6s-1.6.7-1.6 1.6v5.4h-2.8v-9.5h2.7v.5c.6-.5 1.4-.8 2.3-.8 2.2 0 3.8 1.6 3.8 3.8zM31.6 366.4h-1.9v-2.7h1.9v-1.9c0-1.8 1.2-3 3.1-3h2.1v2.7h-1.6c-.5 0-.8.3-.8.8v1.5h2.4v2.7h-2.4v6.9h-2.8v-7zM42.6 363.5c2.9 0 5 2.2 5 5 0 2.7-2.1 5-5 5s-5-2.2-5-5c.1-2.8 2.2-5 5-5zm0 7.2c1.3 0 2.2-1 2.2-2.2 0-1.3-.9-2.2-2.2-2.2s-2.2 1-2.2 2.2c0 1.2 1 2.2 2.2 2.2zM55.5 363.7v2.8h-1.4c-1.1 0-1.8.8-1.8 1.9v4.9h-2.8v-9.5h2.7v.9c.5-.7 1.4-.9 2.2-.9h1.1zM71 367v6.2h-2.8v-5.6c0-.8-.5-1.4-1.4-1.4-.8 0-1.4.6-1.4 1.4v5.6h-2.8v-5.6c0-.8-.5-1.4-1.4-1.4-.8 0-1.4.6-1.4 1.4v5.6H57v-9.5h2.7v.5c.6-.4 1.3-.7 2.1-.7 1 0 1.9.4 2.5 1 .7-.6 1.6-1 2.7-1 2.4 0 4 1.5 4 3.5zM81.3 367.2v6h-2.7v-.5c-.6.5-1.3.7-2.3.7-2 0-3.3-1.2-3.3-3 0-2 1.5-2.8 3.3-3l2.3-.2v-.1c0-.6-.6-1.1-1.4-1.1-.7 0-1.2.4-1.4.9h-2.7c.1-2 1.8-3.4 4-3.4 2.5 0 4.2 1.6 4.2 3.7zm-2.7 2.7v-.6l-1.9.2c-.7.1-1 .4-1 .9s.4.9 1.2.9c1.1-.1 1.7-.6 1.7-1.4zM86.8 363.7h2.9v2.7h-2.9v3.2c0 .6.4 1 1 1h1.9v2.7h-2.5c-1.9 0-3.3-1.2-3.3-3.2v-3.7h-1.4V365l2.6-3.2h1.5v1.9zM93 359c1 0 1.7.8 1.7 1.7 0 1-.7 1.7-1.7 1.7s-1.7-.8-1.7-1.7c0-1 .7-1.7 1.7-1.7zm1.4 14.2h-2.8v-9.5h2.8v9.5zM101.3 363.5c2.9 0 5 2.2 5 5 0 2.7-2.1 5-5 5s-5-2.2-5-5 2.1-5 5-5zm0 7.2c1.3 0 2.2-1 2.2-2.2 0-1.3-.9-2.2-2.2-2.2s-2.2 1-2.2 2.2c0 1.2.9 2.2 2.2 2.2zM116.9 367.3v6h-2.8v-5.4c0-.9-.6-1.6-1.6-1.6s-1.6.7-1.6 1.6v5.4h-2.8v-9.5h2.7v.5c.6-.5 1.4-.8 2.3-.8 2.2 0 3.8 1.6 3.8 3.8z"/></g><g fill="#193062"><path d="M15.2 392.3h-1.9v-2.7h1.9v-1.9c0-1.8 1.2-3 3.1-3h2.1v2.7h-1.6c-.5 0-.8.3-.8.8v1.5h2.4v2.7H18v6.9h-2.8v-7zM28.1 389.7v2.8h-1.4c-1.1 0-1.8.8-1.8 1.9v4.9h-2.8v-9.5h2.7v.9c.5-.7 1.4-.9 2.2-.9h1.1zM34 389.5c2.9 0 5 2.2 5 5 0 2.7-2.1 5-5 5s-5-2.2-5-5c.1-2.9 2.2-5 5-5zm0 7.2c1.3 0 2.2-1 2.2-2.2 0-1.3-.9-2.2-2.2-2.2s-2.2 1-2.2 2.2c0 1.2 1 2.2 2.2 2.2zM54.8 393v6.2H52v-5.6c0-.8-.5-1.4-1.4-1.4-.8 0-1.4.6-1.4 1.4v5.6h-2.8v-5.6c0-.8-.5-1.4-1.4-1.4-.8 0-1.4.6-1.4 1.4v5.6h-2.8v-9.5h2.7v.5c.6-.4 1.3-.7 2.1-.7 1 0 1.9.4 2.5 1 .7-.6 1.6-1 2.7-1 2.4 0 4 1.4 4 3.5zM65.8 389.7h2.9v2.7h-2.9v3.2c0 .6.4 1 1 1h1.9v2.7h-2.5c-1.9 0-3.3-1.2-3.3-3.2v-3.7h-1.4V391l2.6-3.2h1.5v1.9zM79.5 393.3v5.9h-2.8v-5.4c0-.9-.6-1.6-1.6-1.6s-1.6.7-1.6 1.6v5.4h-2.8v-14.4h2.8v5.4c.6-.5 1.4-.7 2.3-.7 2.1 0 3.7 1.6 3.7 3.8zM90.7 395.4h-6.6c.3.8 1.1 1.4 2.2 1.4.9 0 1.6-.5 2-1.1l2.2 1.3c-.8 1.4-2.4 2.3-4.3 2.3-2.9 0-5-2.2-5-5s2-5 4.8-5 4.8 2.1 4.8 5c0 .5 0 .8-.1 1.1zm-6.7-2h4c-.3-.9-1-1.4-2-1.4s-1.7.5-2 1.4zM101.6 396.9c.8 0 1.2-.3 1.2-.7 0-.3-.2-.5-.7-.5s-1-.1-1.7-.2c-1.9-.3-2.7-1.4-2.7-2.8 0-1.9 1.5-3.2 3.9-3.2 2.2 0 3.8 1.3 3.9 3.2h-2.7c0-.4-.5-.7-1.2-.7s-1.1.3-1.1.6.2.4.7.5c.6.1 1 .1 1.8.2 1.9.2 2.7 1.4 2.7 2.8 0 1.9-1.6 3.3-4 3.3-2.3 0-4-1.4-4-3.3h2.7c-.2.5.4.8 1.2.8zM110.4 389.7h2.9v2.7h-2.9v3.2c0 .6.4 1 1 1h1.9v2.7h-2.5c-1.9 0-3.3-1.2-3.3-3.2v-3.7h-1.4V391l2.6-3.2h1.5v1.9zM123.1 393.2v6h-2.7v-.5c-.6.5-1.3.7-2.3.7-2 0-3.3-1.2-3.3-3 0-2 1.5-2.8 3.3-3l2.3-.2v-.1c0-.6-.6-1.1-1.4-1.1-.7 0-1.2.4-1.4.9H115c.1-2 1.8-3.4 4-3.4 2.5 0 4.1 1.6 4.1 3.7zm-2.7 2.7v-.6l-1.9.2c-.7.1-1 .4-1 .9s.4.9 1.2.9c1.1-.1 1.7-.6 1.7-1.4zM131.6 389.7v2.8h-1.4c-1.1 0-1.8.8-1.8 1.9v4.9h-2.8v-9.5h2.7v.9c.5-.7 1.4-.9 2.2-.9h1.1zM136.6 389.7h2.9v2.7h-2.9v3.2c0 .6.4 1 1 1h1.9v2.7H137c-1.9 0-3.3-1.2-3.3-3.2v-3.7h-1.4V391l2.6-3.2h1.5v1.9zM142.9 395.8c1 0 1.7.8 1.7 1.7 0 1-.7 1.7-1.7 1.7s-1.7-.8-1.7-1.7c0-.9.7-1.7 1.7-1.7z"/></g></svg>