<?xml version="1.0" encoding="utf-8"?>
<!-- Generator: Adobe Illustrator 27.4.0, SVG Export Plug-In . SVG Version: 6.00 Build 0)  -->
<svg version="1.1" baseProfile="tiny" id="Layer_1" xmlns="http://www.w3.org/2000/svg" xmlns:xlink="http://www.w3.org/1999/xlink"
	 x="0px" y="0px" viewBox="0 0 300 250" overflow="visible" xml:space="preserve">
<g>
	<path fill="#231F20" d="M18.4,184.1c0,0.5-0.1,0.9-0.3,1.3c-0.2,0.4-0.5,0.7-0.9,0.9s-0.8,0.3-1.3,0.3c-0.5,0-0.9-0.1-1.3-0.3
		s-0.7-0.5-0.9-0.9c-0.2-0.4-0.3-0.9-0.3-1.4c0-0.5,0.1-0.9,0.3-1.3c0.2-0.4,0.5-0.7,0.9-0.9c0.4-0.2,0.8-0.3,1.3-0.3
		c0.5,0,0.9,0.1,1.3,0.3c0.4,0.2,0.7,0.5,0.9,0.9l-0.4,0.3c-0.2-0.3-0.4-0.5-0.7-0.7s-0.6-0.3-1-0.3c-0.4,0-0.8,0.1-1.1,0.3
		c-0.3,0.2-0.6,0.4-0.7,0.8c-0.2,0.3-0.3,0.7-0.3,1.1c0,0.4,0.1,0.8,0.3,1.1c0.2,0.3,0.4,0.6,0.7,0.8c0.3,0.2,0.7,0.3,1.1,0.3
		c0.3,0,0.6-0.1,0.9-0.2c0.3-0.1,0.5-0.3,0.7-0.5c0.2-0.2,0.3-0.5,0.4-0.8h-2.2v-0.5H18.4z"/>
	<path fill="#231F20" d="M19.3,181.3h3.8v0.5h-3.2v1.8h1.9v0.5h-1.9v1.8h3.2v0.5h-3.8V181.3z"/>
	<path fill="#231F20" d="M28,181.3v5.1h-0.5l-2.8-4.2v4.2h-0.5v-5.1h0.5l2.8,4.2v-4.2H28z"/>
	<path fill="#231F20" d="M30.6,184.2v0.5H29v-0.5H30.6z"/>
	<path fill="#231F20" d="M34.8,184.9c0,0.3-0.1,0.6-0.2,0.8c-0.1,0.2-0.3,0.4-0.6,0.6s-0.5,0.2-0.9,0.2c-0.3,0-0.6-0.1-0.9-0.2
		c-0.3-0.1-0.5-0.3-0.6-0.6s-0.2-0.5-0.2-0.8H32c0,0.2,0.1,0.4,0.2,0.6s0.2,0.3,0.4,0.4c0.2,0.1,0.4,0.1,0.6,0.1
		c0.2,0,0.4,0,0.6-0.1s0.3-0.2,0.4-0.4c0.1-0.2,0.1-0.4,0.1-0.6c0-0.2,0-0.4-0.1-0.6c-0.1-0.2-0.2-0.3-0.4-0.4s-0.4-0.1-0.6-0.1
		h-1.4l0.3-2.5h2.6v0.5h-2.1l-0.2,1.4h0.9c0.3,0,0.6,0.1,0.8,0.2c0.2,0.1,0.4,0.3,0.6,0.6C34.7,184.3,34.8,184.6,34.8,184.9z"/>
	<path fill="#231F20" d="M39.2,184.9c0,0.3-0.1,0.6-0.2,0.9c-0.1,0.3-0.3,0.5-0.6,0.6s-0.5,0.2-0.9,0.2c-0.3,0-0.6-0.1-0.9-0.2
		s-0.5-0.3-0.6-0.6c-0.1-0.2-0.2-0.5-0.2-0.8c0-0.2,0-0.4,0.1-0.6c0.1-0.2,0.2-0.4,0.3-0.6l1.6-2.4h0.6l-1.3,2
		c0.2,0,0.3-0.1,0.5-0.1c0.3,0,0.6,0.1,0.9,0.2c0.3,0.1,0.5,0.3,0.6,0.6C39.1,184.3,39.2,184.6,39.2,184.9z M38.6,184.9
		c0-0.2,0-0.4-0.1-0.6c-0.1-0.2-0.2-0.3-0.4-0.4s-0.4-0.1-0.6-0.1c-0.2,0-0.4,0-0.6,0.1c-0.2,0.1-0.3,0.2-0.4,0.4
		c-0.1,0.2-0.1,0.4-0.1,0.6c0,0.2,0,0.4,0.1,0.6s0.2,0.3,0.4,0.4c0.2,0.1,0.4,0.1,0.6,0.1s0.4,0,0.6-0.1s0.3-0.2,0.4-0.4
		C38.6,185.3,38.6,185.1,38.6,184.9z"/>
	<path fill="#231F20" d="M41.2,181.9l-1.4,0.8v-0.6l1.4-0.8h0.5v5.1h-0.5V181.9z"/>
	<path fill="#231F20" d="M46.7,184.3v0.5h-1v1.6h-0.5v-1.6h-2.3v-0.4l2.3-3.1h0.6v3H46.7z M45.2,184.3v-2.2l-1.6,2.2H45.2z"/>
	<path fill="#231F20" d="M50.5,185c0,0.3-0.1,0.5-0.2,0.8c-0.1,0.2-0.3,0.4-0.6,0.5s-0.5,0.2-0.8,0.2c-0.3,0-0.6-0.1-0.8-0.2
		c-0.2-0.1-0.4-0.3-0.6-0.5c-0.1-0.2-0.2-0.5-0.2-0.7h0.5c0,0.2,0.1,0.3,0.1,0.5c0.1,0.1,0.2,0.3,0.4,0.3s0.3,0.1,0.5,0.1
		c0.2,0,0.4,0,0.5-0.1c0.2-0.1,0.3-0.2,0.4-0.3c0.1-0.1,0.1-0.3,0.1-0.5c0-0.2,0-0.4-0.1-0.5c-0.1-0.1-0.2-0.3-0.4-0.3
		s-0.3-0.1-0.5-0.1h-0.5v-0.5h0.5c0.2,0,0.3,0,0.5-0.1s0.3-0.2,0.3-0.3s0.1-0.3,0.1-0.5c0-0.2,0-0.3-0.1-0.5s-0.2-0.2-0.3-0.3
		s-0.3-0.1-0.5-0.1c-0.2,0-0.3,0-0.5,0.1s-0.3,0.2-0.3,0.3c-0.1,0.1-0.1,0.3-0.1,0.5h-0.5c0-0.3,0.1-0.5,0.2-0.7
		c0.1-0.2,0.3-0.4,0.5-0.5c0.2-0.1,0.5-0.2,0.8-0.2c0.3,0,0.5,0.1,0.8,0.2c0.2,0.1,0.4,0.3,0.5,0.5c0.1,0.2,0.2,0.5,0.2,0.7
		c0,0.2-0.1,0.5-0.2,0.7c-0.1,0.2-0.3,0.4-0.5,0.5c0.2,0.1,0.4,0.3,0.5,0.5C50.4,184.5,50.5,184.8,50.5,185z"/>
	<path fill="#231F20" d="M51.6,182.7c0-0.3,0.1-0.5,0.2-0.7c0.1-0.2,0.3-0.4,0.5-0.5s0.5-0.2,0.8-0.2s0.5,0.1,0.8,0.2
		s0.4,0.3,0.5,0.5c0.1,0.2,0.2,0.5,0.2,0.7c0,0.3,0,0.7,0,1.2c0,0.5,0,0.9,0,1.2c0,0.3-0.1,0.5-0.2,0.7c-0.1,0.2-0.3,0.4-0.5,0.5
		s-0.5,0.2-0.8,0.2s-0.5-0.1-0.8-0.2s-0.4-0.3-0.5-0.5c-0.1-0.2-0.2-0.5-0.2-0.7c0-0.3,0-0.7,0-1.2C51.6,183.4,51.6,183,51.6,182.7z
		 M52.1,185.1c0,0.2,0.1,0.3,0.2,0.5c0.1,0.1,0.2,0.3,0.4,0.3c0.1,0.1,0.3,0.1,0.5,0.1s0.4,0,0.5-0.1c0.1-0.1,0.3-0.2,0.4-0.3
		c0.1-0.1,0.1-0.3,0.2-0.5c0-0.1,0-0.3,0-0.4s0-0.4,0-0.7s0-0.6,0-0.7s0-0.3,0-0.4c0-0.2-0.1-0.3-0.2-0.5s-0.2-0.3-0.4-0.3
		c-0.1-0.1-0.3-0.1-0.5-0.1s-0.4,0-0.5,0.1c-0.1,0.1-0.3,0.2-0.4,0.3s-0.1,0.3-0.2,0.5c0,0.1,0,0.3,0,0.4s0,0.4,0,0.7s0,0.6,0,0.7
		S52.1,185,52.1,185.1z"/>
	<path fill="#231F20" d="M56,182.7c0-0.3,0.1-0.5,0.2-0.7c0.1-0.2,0.3-0.4,0.5-0.5s0.5-0.2,0.8-0.2s0.5,0.1,0.8,0.2s0.4,0.3,0.5,0.5
		c0.1,0.2,0.2,0.5,0.2,0.7c0,0.3,0,0.7,0,1.2c0,0.5,0,0.9,0,1.2c0,0.3-0.1,0.5-0.2,0.7c-0.1,0.2-0.3,0.4-0.5,0.5s-0.5,0.2-0.8,0.2
		s-0.5-0.1-0.8-0.2s-0.4-0.3-0.5-0.5c-0.1-0.2-0.2-0.5-0.2-0.7c0-0.3,0-0.7,0-1.2C56,183.4,56,183,56,182.7z M56.5,185.1
		c0,0.2,0.1,0.3,0.2,0.5c0.1,0.1,0.2,0.3,0.4,0.3c0.1,0.1,0.3,0.1,0.5,0.1s0.4,0,0.5-0.1c0.1-0.1,0.3-0.2,0.4-0.3
		c0.1-0.1,0.1-0.3,0.2-0.5c0-0.1,0-0.3,0-0.4s0-0.4,0-0.7s0-0.6,0-0.7s0-0.3,0-0.4c0-0.2-0.1-0.3-0.2-0.5s-0.2-0.3-0.4-0.3
		c-0.1-0.1-0.3-0.1-0.5-0.1s-0.4,0-0.5,0.1c-0.1,0.1-0.3,0.2-0.4,0.3s-0.1,0.3-0.2,0.5c0,0.1,0,0.3,0,0.4s0,0.4,0,0.7s0,0.6,0,0.7
		S56.5,185,56.5,185.1z"/>
	<path fill="#231F20" d="M60.6,185.7c0.1,0,0.2,0,0.3,0.1c0.1,0.1,0.1,0.2,0.1,0.3s0,0.2-0.1,0.3c-0.1,0.1-0.2,0.1-0.3,0.1
		s-0.2,0-0.3-0.1c-0.1-0.1-0.1-0.2-0.1-0.3s0-0.2,0.1-0.3C60.4,185.7,60.5,185.7,60.6,185.7z"/>
	<path fill="#231F20" d="M63.2,181.9l-1.4,0.8v-0.6l1.4-0.8h0.5v5.1h-0.5V181.9z"/>
</g>
</svg>
