<?xml version="1.0" encoding="utf-8"?>
<!-- Generator: Adobe Illustrator 27.4.0, SVG Export Plug-In . SVG Version: 6.00 Build 0)  -->
<svg version="1.1" baseProfile="tiny" id="Layer_1" xmlns="http://www.w3.org/2000/svg" xmlns:xlink="http://www.w3.org/1999/xlink"
	 x="0px" y="0px" viewBox="0 0 300 250" overflow="visible" xml:space="preserve">
<g>
	<path fill="#193062" d="M22.9,25.4H18l-0.6,1.9h-2.5l4.3-13.1h2.6l4.3,13.1h-2.6L22.9,25.4z M22.1,22.9l-1.6-5l-1.6,5H22.1z"/>
	<path fill="#193062" d="M36.9,22.7c0,0.9-0.2,1.7-0.6,2.4s-0.9,1.3-1.6,1.7s-1.5,0.6-2.3,0.6c-0.5,0-0.9-0.1-1.3-0.2
		s-0.8-0.3-1.1-0.6V31h-2.5V18.2H30v0.6c0.3-0.3,0.7-0.5,1.1-0.6S32,18,32.5,18c0.9,0,1.6,0.2,2.3,0.6s1.2,1,1.6,1.7
		S36.9,21.8,36.9,22.7z M34.5,22.7c0-0.4-0.1-0.8-0.3-1.2s-0.5-0.6-0.8-0.9s-0.7-0.3-1.2-0.3c-0.5,0-0.9,0.1-1.2,0.3
		s-0.6,0.5-0.8,0.8s-0.3,0.8-0.3,1.2c0,0.4,0.1,0.8,0.3,1.2s0.5,0.6,0.8,0.8s0.8,0.3,1.2,0.3c0.4,0,0.8-0.1,1.2-0.3s0.6-0.5,0.8-0.8
		S34.5,23.1,34.5,22.7z"/>
	<path fill="#193062" d="M48.1,22.7c0,0.9-0.2,1.7-0.6,2.4s-0.9,1.3-1.6,1.7s-1.5,0.6-2.3,0.6c-0.5,0-0.9-0.1-1.3-0.2
		s-0.8-0.3-1.1-0.6V31h-2.5V18.2h2.4v0.6c0.3-0.3,0.7-0.5,1.1-0.6s0.9-0.2,1.4-0.2c0.9,0,1.6,0.2,2.3,0.6s1.2,1,1.6,1.7
		S48.1,21.8,48.1,22.7z M45.7,22.7c0-0.4-0.1-0.8-0.3-1.2s-0.5-0.6-0.8-0.9s-0.7-0.3-1.2-0.3c-0.5,0-0.9,0.1-1.2,0.3
		s-0.6,0.5-0.8,0.8s-0.3,0.8-0.3,1.2c0,0.4,0.1,0.8,0.3,1.2s0.5,0.6,0.8,0.8S43,25,43.5,25c0.4,0,0.8-0.1,1.2-0.3s0.6-0.5,0.8-0.8
		S45.7,23.1,45.7,22.7z"/>
	<path fill="#193062" d="M50,13.5h2.5v13.7H50V13.5z"/>
	<path fill="#193062" d="M62.9,18.2L58.2,31h-2.6l1.5-4l-3.3-8.9h2.6l1.9,5.3l1.9-5.3H62.9z"/>
	<path fill="#193062" d="M65.5,13.7c0.3,0,0.6,0.1,0.8,0.2s0.4,0.3,0.6,0.6S67,15,67,15.2s-0.1,0.5-0.2,0.8s-0.3,0.4-0.6,0.6
		s-0.5,0.2-0.8,0.2s-0.6-0.1-0.8-0.2s-0.4-0.3-0.6-0.6s-0.2-0.5-0.2-0.8s0.1-0.5,0.2-0.8s0.3-0.4,0.6-0.6S65.2,13.7,65.5,13.7z
		 M66.7,27.2h-2.5v-9.1h2.5V27.2z"/>
	<path fill="#193062" d="M77.4,21.6v5.7h-2.4V22c0-0.3-0.1-0.6-0.2-0.9s-0.3-0.5-0.6-0.6s-0.6-0.2-0.9-0.2c-0.3,0-0.6,0.1-0.9,0.2
		s-0.5,0.4-0.6,0.6s-0.2,0.5-0.2,0.9v5.2h-2.5v-9.1h2.4v0.6c0.3-0.3,0.7-0.4,1-0.6s0.8-0.2,1.2-0.2c0.7,0,1.3,0.2,1.8,0.5
		s1,0.7,1.3,1.3S77.4,20.9,77.4,21.6z"/>
	<path fill="#193062" d="M88.2,18.2V27c0,0.8-0.2,1.5-0.6,2.2s-0.9,1.2-1.6,1.5s-1.5,0.6-2.3,0.6c-0.7,0-1.3-0.1-1.9-0.4
		s-1.1-0.6-1.5-1s-0.7-0.9-0.9-1.5l2.2-0.9c0.1,0.4,0.4,0.8,0.7,1s0.8,0.4,1.3,0.4c0.4,0,0.8-0.1,1.1-0.2s0.5-0.4,0.7-0.7
		s0.3-0.6,0.3-1v-0.7c-0.3,0.2-0.7,0.4-1.1,0.6s-0.8,0.2-1.3,0.2c-0.8,0-1.5-0.2-2.2-0.6s-1.2-0.9-1.5-1.6s-0.6-1.4-0.6-2.3
		c0-0.8,0.2-1.6,0.6-2.3s0.9-1.2,1.5-1.6s1.4-0.6,2.2-0.6c0.4,0,0.9,0.1,1.3,0.2s0.8,0.3,1.1,0.6v-0.6H88.2z M85.8,22.5
		c0-0.4-0.1-0.8-0.3-1.1s-0.4-0.6-0.8-0.8s-0.7-0.3-1.1-0.3c-0.4,0-0.8,0.1-1.1,0.3s-0.6,0.4-0.8,0.8s-0.3,0.7-0.3,1.1
		c0,0.4,0.1,0.7,0.3,1.1s0.4,0.6,0.8,0.8s0.7,0.3,1.1,0.3c0.4,0,0.8-0.1,1.1-0.3s0.6-0.4,0.8-0.8S85.8,22.9,85.8,22.5z"/>
	<path fill="#193062" d="M96.7,20.5h-1.8v-2.3h1.8v-1.9c0-0.6,0.1-1,0.3-1.5s0.6-0.7,1-1s0.9-0.3,1.5-0.3h2v2.3H100
		c-0.2,0-0.4,0.1-0.6,0.2s-0.2,0.3-0.2,0.6v1.5h2.3v2.3h-2.3v6.8h-2.4V20.5z"/>
	<path fill="#193062" d="M107,18c0.9,0,1.7,0.2,2.4,0.6s1.3,1,1.7,1.7s0.6,1.5,0.6,2.4s-0.2,1.7-0.6,2.4s-1,1.3-1.7,1.7
		s-1.5,0.6-2.4,0.6s-1.7-0.2-2.4-0.6s-1.3-1-1.7-1.7s-0.6-1.5-0.6-2.4s0.2-1.7,0.6-2.4s1-1.3,1.7-1.7S106.1,18,107,18z M107,25
		c0.4,0,0.8-0.1,1.2-0.3s0.6-0.5,0.8-0.8s0.3-0.8,0.3-1.2s-0.1-0.8-0.3-1.2s-0.5-0.6-0.8-0.8s-0.7-0.3-1.2-0.3
		c-0.4,0-0.8,0.1-1.2,0.3s-0.6,0.5-0.8,0.8s-0.3,0.8-0.3,1.2s0.1,0.8,0.3,1.2s0.5,0.6,0.8,0.8S106.6,25,107,25z"/>
	<path fill="#193062" d="M119.2,18.2v2.4h-1.3c-0.4,0-0.7,0.1-0.9,0.3s-0.5,0.4-0.7,0.7s-0.2,0.6-0.2,1v4.8h-2.5v-9.1h2.4V19
		c0.2-0.3,0.5-0.5,0.9-0.7s0.8-0.2,1.2-0.2H119.2z"/>
</g>
<g>
	<path fill="#193062" d="M16,36.1h2.6v10.6h7.6v2.5H16V36.1z"/>
	<path fill="#193062" d="M29.2,35.7c0.3,0,0.6,0.1,0.8,0.2s0.4,0.3,0.6,0.6s0.2,0.5,0.2,0.8s-0.1,0.5-0.2,0.8s-0.3,0.4-0.6,0.6
		s-0.5,0.2-0.8,0.2s-0.6-0.1-0.8-0.2S28,38.3,27.9,38s-0.2-0.5-0.2-0.8s0.1-0.5,0.2-0.8s0.3-0.4,0.6-0.6S28.9,35.7,29.2,35.7z
		 M30.5,49.2H28v-9.1h2.5V49.2z"/>
	<path fill="#193062" d="M33.8,42.5h-1.8v-2.3h1.8v-1.9c0-0.6,0.1-1,0.3-1.5s0.6-0.7,1-1s0.9-0.3,1.5-0.3h2v2.3H37
		c-0.2,0-0.4,0.1-0.6,0.2s-0.2,0.3-0.2,0.6v1.5h2.3v2.3h-2.3v6.8h-2.4V42.5z"/>
	<path fill="#193062" d="M48.3,45.6h-6.5c0.2,0.5,0.4,0.8,0.8,1.1s0.9,0.4,1.4,0.4c0.4,0,0.8-0.1,1.2-0.3s0.6-0.5,0.8-0.8l2,1.2
		c-0.4,0.7-1,1.2-1.7,1.6s-1.5,0.6-2.4,0.6c-0.9,0-1.7-0.2-2.4-0.6s-1.3-1-1.7-1.7s-0.6-1.5-0.6-2.4c0-0.9,0.2-1.7,0.6-2.4
		s0.9-1.3,1.6-1.7S43,40,43.9,40s1.7,0.2,2.4,0.6s1.2,1,1.6,1.7s0.6,1.5,0.6,2.4C48.4,45,48.4,45.3,48.3,45.6z M41.8,43.7H46
		c-0.1-0.5-0.4-0.9-0.7-1.1s-0.8-0.4-1.3-0.4c-0.6,0-1,0.1-1.4,0.4S41.9,43.3,41.8,43.7z"/>
	<path fill="#193062" d="M55.6,36.1h2.6v13.1h-2.6V36.1z"/>
	<path fill="#193062" d="M69.1,43.6v5.7h-2.4V44c0-0.3-0.1-0.6-0.2-0.9s-0.3-0.5-0.6-0.6s-0.6-0.2-0.9-0.2c-0.3,0-0.6,0.1-0.9,0.2
		s-0.5,0.4-0.6,0.6s-0.2,0.5-0.2,0.9v5.2h-2.5v-9.1h2.4v0.6c0.3-0.3,0.7-0.4,1-0.6S65,40,65.5,40c0.7,0,1.3,0.2,1.8,0.5
		s1,0.7,1.3,1.3S69.1,42.9,69.1,43.6z"/>
	<path fill="#193062" d="M74.6,47.2c0.4,0,0.7-0.1,0.9-0.2s0.3-0.3,0.3-0.6c0-0.2-0.1-0.3-0.2-0.4s-0.3-0.2-0.5-0.2
		c-0.3,0-0.5-0.1-0.6-0.1c-0.4,0-0.8-0.1-1.1-0.1c-0.8-0.1-1.4-0.4-1.9-0.9S71,43.7,71,43c0-0.6,0.2-1.1,0.5-1.6s0.7-0.8,1.3-1.1
		s1.2-0.4,1.9-0.4c0.7,0,1.3,0.1,1.8,0.4s1,0.6,1.3,1.1s0.5,1,0.5,1.6h-2.4c0-0.2-0.1-0.4-0.3-0.6s-0.5-0.2-0.9-0.2
		c-0.4,0-0.7,0.1-0.9,0.2s-0.3,0.3-0.3,0.5c0,0.3,0.2,0.5,0.7,0.5c0.1,0,0.4,0,0.8,0.1s0.7,0.1,1,0.1c0.8,0.1,1.4,0.4,1.9,0.9
		s0.6,1.1,0.6,1.8c0,0.6-0.2,1.1-0.5,1.6s-0.7,0.9-1.3,1.1s-1.2,0.4-1.9,0.4c-0.7,0-1.4-0.1-1.9-0.4s-1-0.6-1.3-1.1s-0.5-1-0.5-1.6
		h2.4c0,0.3,0.1,0.5,0.4,0.6S74.2,47.2,74.6,47.2z"/>
	<path fill="#193062" d="M88.2,40.2v9.1h-2.4v-0.6c-0.3,0.2-0.6,0.4-1,0.6s-0.8,0.2-1.2,0.2c-0.7,0-1.3-0.2-1.8-0.5s-1-0.7-1.3-1.3
		S80,46.5,80,45.8v-5.7h2.5v5.2c0,0.3,0.1,0.6,0.2,0.8s0.3,0.5,0.6,0.6s0.5,0.2,0.9,0.2c0.3,0,0.6-0.1,0.9-0.2s0.5-0.4,0.6-0.6
		s0.2-0.5,0.2-0.8v-5.2H88.2z"/>
	<path fill="#193062" d="M96.3,40.2v2.4H95c-0.4,0-0.7,0.1-0.9,0.3s-0.5,0.4-0.7,0.7s-0.2,0.6-0.2,1v4.8h-2.5v-9.1h2.4V41
		c0.2-0.3,0.5-0.5,0.9-0.7s0.8-0.2,1.2-0.2H96.3z"/>
	<path fill="#193062" d="M104.9,43.5v5.7h-2.4v-0.6c-0.3,0.3-0.6,0.4-1,0.6s-0.8,0.2-1.3,0.2c-0.6,0-1.2-0.1-1.6-0.4s-0.8-0.6-1.1-1
		s-0.4-0.9-0.4-1.5c0-0.9,0.3-1.5,0.9-2s1.3-0.7,2.3-0.8l2.3-0.2v-0.2c0-0.2-0.1-0.4-0.2-0.6s-0.3-0.3-0.5-0.4s-0.5-0.2-0.7-0.2
		c-0.4,0-0.7,0.1-0.9,0.3s-0.4,0.4-0.5,0.7h-2.3c0-0.6,0.2-1.2,0.6-1.7s0.8-0.9,1.3-1.2s1.2-0.4,1.9-0.4c0.8,0,1.4,0.2,2,0.5
		s1,0.7,1.4,1.3S104.9,42.8,104.9,43.5z M102.5,46v-0.7l-1.9,0.2c-0.4,0-0.7,0.1-0.8,0.3s-0.3,0.4-0.3,0.6s0.1,0.5,0.3,0.7
		s0.5,0.3,0.9,0.3c0.5,0,1-0.1,1.3-0.4S102.5,46.5,102.5,46z"/>
	<path fill="#193062" d="M115.6,43.6v5.7h-2.4V44c0-0.3-0.1-0.6-0.2-0.9s-0.3-0.5-0.6-0.6s-0.6-0.2-0.9-0.2c-0.3,0-0.6,0.1-0.9,0.2
		s-0.5,0.4-0.6,0.6s-0.2,0.5-0.2,0.9v5.2h-2.5v-9.1h2.4v0.6c0.3-0.3,0.7-0.4,1-0.6s0.8-0.2,1.2-0.2c0.7,0,1.3,0.2,1.8,0.5
		s1,0.7,1.3,1.3S115.6,42.9,115.6,43.6z"/>
	<path fill="#193062" d="M122.1,40c0.8,0,1.6,0.2,2.3,0.6s1.2,0.9,1.6,1.5l-2,1.4c-0.2-0.3-0.5-0.6-0.8-0.8s-0.7-0.3-1.1-0.3
		c-0.4,0-0.8,0.1-1.2,0.3s-0.6,0.5-0.8,0.8s-0.3,0.8-0.3,1.2s0.1,0.8,0.3,1.2s0.5,0.6,0.8,0.8s0.7,0.3,1.2,0.3
		c0.4,0,0.8-0.1,1.1-0.3s0.6-0.5,0.8-0.8l2,1.4c-0.4,0.7-1,1.2-1.6,1.5s-1.4,0.6-2.3,0.6c-0.9,0-1.7-0.2-2.4-0.6s-1.3-1-1.7-1.7
		s-0.6-1.5-0.6-2.4s0.2-1.7,0.6-2.4s1-1.3,1.7-1.7S121.2,40,122.1,40z"/>
	<path fill="#193062" d="M135.9,45.6h-6.5c0.2,0.5,0.4,0.8,0.8,1.1s0.9,0.4,1.4,0.4c0.4,0,0.8-0.1,1.2-0.3s0.6-0.5,0.8-0.8l2,1.2
		c-0.4,0.7-1,1.2-1.7,1.6s-1.5,0.6-2.4,0.6c-0.9,0-1.7-0.2-2.4-0.6s-1.3-1-1.7-1.7s-0.6-1.5-0.6-2.4c0-0.9,0.2-1.7,0.6-2.4
		s0.9-1.3,1.6-1.7s1.5-0.6,2.4-0.6s1.7,0.2,2.4,0.6s1.2,1,1.6,1.7s0.6,1.5,0.6,2.4C136,45,136,45.3,135.9,45.6z M129.4,43.7h4.2
		c-0.1-0.5-0.4-0.9-0.7-1.1s-0.8-0.4-1.3-0.4c-0.6,0-1,0.1-1.4,0.4S129.5,43.3,129.4,43.7z"/>
</g>
<g>
	<path fill="#193062" d="M24.6,57.5v13.7h-2.4v-0.6c-0.3,0.3-0.7,0.5-1.1,0.6s-0.9,0.2-1.4,0.2c-0.9,0-1.6-0.2-2.3-0.6
		s-1.2-1-1.6-1.7s-0.6-1.5-0.6-2.4c0-0.9,0.2-1.7,0.6-2.4s0.9-1.3,1.6-1.7s1.5-0.6,2.3-0.6c0.5,0,0.9,0.1,1.3,0.2s0.8,0.3,1.1,0.6
		v-5.2H24.6z M22.2,66.7c0-0.5-0.1-0.9-0.3-1.2s-0.5-0.6-0.8-0.8s-0.7-0.3-1.2-0.3c-0.4,0-0.8,0.1-1.2,0.3s-0.6,0.5-0.8,0.9
		s-0.3,0.8-0.3,1.2c0,0.4,0.1,0.8,0.3,1.2s0.5,0.6,0.8,0.8s0.7,0.3,1.2,0.3c0.4,0,0.8-0.1,1.2-0.3s0.6-0.5,0.8-0.8
		S22.2,67.1,22.2,66.7z"/>
	<path fill="#193062" d="M31.2,61.9c0.9,0,1.7,0.2,2.4,0.6s1.3,1,1.7,1.7s0.6,1.5,0.6,2.4s-0.2,1.7-0.6,2.4s-1,1.3-1.7,1.7
		s-1.5,0.6-2.4,0.6s-1.7-0.2-2.4-0.6s-1.3-1-1.7-1.7s-0.6-1.5-0.6-2.4s0.2-1.7,0.6-2.4s1-1.3,1.7-1.7S30.3,61.9,31.2,61.9z M31.2,69
		c0.4,0,0.8-0.1,1.2-0.3s0.6-0.5,0.8-0.8s0.3-0.8,0.3-1.2s-0.1-0.8-0.3-1.2s-0.5-0.6-0.8-0.8s-0.7-0.3-1.2-0.3
		c-0.4,0-0.8,0.1-1.2,0.3s-0.6,0.5-0.8,0.8s-0.3,0.8-0.3,1.2s0.1,0.8,0.3,1.2s0.5,0.6,0.8,0.8S30.7,69,31.2,69z"/>
	<path fill="#193062" d="M46.2,67.6h-6.5c0.2,0.5,0.4,0.8,0.8,1.1s0.9,0.4,1.4,0.4c0.4,0,0.8-0.1,1.2-0.3s0.6-0.5,0.8-0.8l2,1.2
		c-0.4,0.7-1,1.2-1.7,1.6s-1.5,0.6-2.4,0.6c-0.9,0-1.7-0.2-2.4-0.6s-1.3-1-1.7-1.7s-0.6-1.5-0.6-2.4c0-0.9,0.2-1.7,0.6-2.4
		s0.9-1.3,1.6-1.7s1.5-0.6,2.4-0.6s1.7,0.2,2.4,0.6s1.2,1,1.6,1.7s0.6,1.5,0.6,2.4C46.2,67,46.2,67.3,46.2,67.6z M39.6,65.7h4.2
		c-0.1-0.5-0.4-0.9-0.7-1.1s-0.8-0.4-1.3-0.4c-0.6,0-1,0.1-1.4,0.4S39.7,65.3,39.6,65.7z"/>
	<path fill="#193062" d="M51.2,69.2c0.4,0,0.7-0.1,0.9-0.2s0.3-0.3,0.3-0.6c0-0.2-0.1-0.3-0.2-0.4s-0.3-0.2-0.5-0.2
		c-0.3,0-0.5-0.1-0.6-0.1c-0.4,0-0.8-0.1-1.1-0.1c-0.8-0.1-1.4-0.4-1.9-0.9s-0.6-1-0.6-1.7c0-0.6,0.2-1.1,0.5-1.6s0.7-0.8,1.3-1.1
		s1.2-0.4,1.9-0.4c0.7,0,1.3,0.1,1.8,0.4s1,0.6,1.3,1.1s0.5,1,0.5,1.6h-2.4c0-0.2-0.1-0.4-0.3-0.6s-0.5-0.2-0.9-0.2
		c-0.4,0-0.7,0.1-0.9,0.2S50,64.7,50,64.9c0,0.3,0.2,0.5,0.7,0.5c0.1,0,0.4,0,0.8,0.1s0.7,0.1,1,0.1c0.8,0.1,1.4,0.4,1.9,0.9
		s0.6,1.1,0.6,1.8c0,0.6-0.2,1.1-0.5,1.6s-0.7,0.9-1.3,1.1s-1.2,0.4-1.9,0.4c-0.7,0-1.4-0.1-1.9-0.4s-1-0.6-1.3-1.1s-0.5-1-0.5-1.6
		h2.4c0,0.3,0.1,0.5,0.4,0.6S50.8,69.2,51.2,69.2z"/>
	<path fill="#193062" d="M65,65.6v5.7h-2.4V66c0-0.3-0.1-0.6-0.2-0.9s-0.3-0.5-0.6-0.6s-0.6-0.2-0.9-0.2c-0.3,0-0.6,0.1-0.9,0.2
		s-0.5,0.4-0.6,0.6s-0.2,0.5-0.2,0.9v5.2h-2.5v-9.1h2.4v0.6c0.3-0.3,0.7-0.4,1-0.6s0.8-0.2,1.2-0.2c0.7,0,1.3,0.2,1.8,0.5
		s1,0.7,1.3,1.3S65,64.9,65,65.6z"/>
	<path fill="#193062" d="M69.4,59.4c0,0.2,0,0.4-0.1,0.6l-1.1,3h-1.5l0.6-2.2c-0.3-0.1-0.5-0.3-0.7-0.5s-0.2-0.5-0.2-0.9
		c0-0.4,0.1-0.8,0.4-1.1s0.6-0.4,1.1-0.4c0.3,0,0.6,0.1,0.8,0.2s0.4,0.3,0.5,0.5S69.4,59.1,69.4,59.4z"/>
	<path fill="#193062" d="M74.3,62.1h2.9v2.3h-2.9v3.4c0,0.3,0.1,0.6,0.3,0.8s0.4,0.3,0.8,0.3h1.8v2.3h-2.3c-0.6,0-1.1-0.1-1.6-0.4
		s-0.8-0.6-1.1-1s-0.4-1-0.4-1.5v-3.8h-1.3v-1.3l2.4-2.9h1.4V62.1z"/>
	<path fill="#193062" d="M92.4,65.6v5.7H90V66c0-0.3-0.1-0.6-0.2-0.9s-0.3-0.5-0.6-0.6s-0.6-0.2-0.9-0.2c-0.3,0-0.6,0.1-0.9,0.2
		s-0.5,0.4-0.6,0.6s-0.2,0.5-0.2,0.9v5.2h-2.5V57.5h2.5v5.2c0.3-0.2,0.6-0.4,1-0.6s0.8-0.2,1.2-0.2c0.7,0,1.3,0.2,1.8,0.5
		s1,0.7,1.3,1.3S92.4,64.9,92.4,65.6z"/>
	<path fill="#193062" d="M102.2,65.5v5.7h-2.4v-0.6c-0.3,0.3-0.6,0.4-1,0.6s-0.8,0.2-1.3,0.2c-0.6,0-1.2-0.1-1.6-0.4s-0.8-0.6-1.1-1
		s-0.4-0.9-0.4-1.5c0-0.9,0.3-1.5,0.9-2s1.3-0.7,2.3-0.8l2.3-0.2v-0.2c0-0.2-0.1-0.4-0.2-0.6s-0.3-0.3-0.5-0.4s-0.5-0.2-0.7-0.2
		c-0.4,0-0.7,0.1-0.9,0.3s-0.4,0.4-0.5,0.7h-2.3c0-0.6,0.2-1.2,0.6-1.7s0.8-0.9,1.3-1.2s1.2-0.4,1.9-0.4c0.8,0,1.4,0.2,2,0.5
		s1,0.7,1.4,1.3S102.2,64.8,102.2,65.5z M99.8,68v-0.7l-1.9,0.2c-0.4,0-0.7,0.1-0.8,0.3s-0.3,0.4-0.3,0.6s0.1,0.5,0.3,0.7
		s0.5,0.3,0.9,0.3c0.5,0,1-0.1,1.3-0.4S99.8,68.5,99.8,68z"/>
	<path fill="#193062" d="M112.2,62.1l-3.3,9.1h-2.4l-3.3-9.1h2.6l1.9,5.4l1.9-5.4H112.2z"/>
	<path fill="#193062" d="M121.7,67.6h-6.5c0.2,0.5,0.4,0.8,0.8,1.1s0.9,0.4,1.4,0.4c0.4,0,0.8-0.1,1.2-0.3s0.6-0.5,0.8-0.8l2,1.2
		c-0.4,0.7-1,1.2-1.7,1.6s-1.5,0.6-2.4,0.6c-0.9,0-1.7-0.2-2.4-0.6s-1.3-1-1.7-1.7s-0.6-1.5-0.6-2.4c0-0.9,0.2-1.7,0.6-2.4
		s0.9-1.3,1.6-1.7s1.5-0.6,2.4-0.6s1.7,0.2,2.4,0.6s1.2,1,1.6,1.7s0.6,1.5,0.6,2.4C121.8,67,121.7,67.3,121.7,67.6z M115.1,65.7h4.2
		c-0.1-0.5-0.4-0.9-0.7-1.1s-0.8-0.4-1.3-0.4c-0.6,0-1,0.1-1.4,0.4S115.3,65.3,115.1,65.7z"/>
</g>
<g>
	<path fill="#193062" d="M18.6,84.1h2.9v2.3h-2.9v3.4c0,0.3,0.1,0.6,0.3,0.8s0.4,0.3,0.8,0.3h1.8v2.3h-2.3c-0.6,0-1.1-0.1-1.6-0.4
		s-0.8-0.6-1.1-1s-0.4-1-0.4-1.5v-3.8h-1.3v-1.3l2.4-2.9h1.4V84.1z"/>
	<path fill="#193062" d="M27.4,83.9c0.9,0,1.7,0.2,2.4,0.6s1.3,1,1.7,1.7s0.6,1.5,0.6,2.4s-0.2,1.7-0.6,2.4s-1,1.3-1.7,1.7
		s-1.5,0.6-2.4,0.6s-1.7-0.2-2.4-0.6s-1.3-1-1.7-1.7s-0.6-1.5-0.6-2.4s0.2-1.7,0.6-2.4s1-1.3,1.7-1.7S26.5,83.9,27.4,83.9z M27.4,91
		c0.4,0,0.8-0.1,1.2-0.3s0.6-0.5,0.8-0.8s0.3-0.8,0.3-1.2s-0.1-0.8-0.3-1.2s-0.5-0.6-0.8-0.8s-0.7-0.3-1.2-0.3
		c-0.4,0-0.8,0.1-1.2,0.3s-0.6,0.5-0.8,0.8s-0.3,0.8-0.3,1.2s0.1,0.8,0.3,1.2s0.5,0.6,0.8,0.8S26.9,91,27.4,91z"/>
	<path fill="#193062" d="M48.5,88.7c0,0.9-0.2,1.7-0.6,2.4s-0.9,1.3-1.6,1.7s-1.5,0.6-2.3,0.6c-0.5,0-0.9-0.1-1.4-0.2
		s-0.8-0.3-1.1-0.6v0.6h-2.4V79.5h2.5v5.2c0.3-0.3,0.7-0.4,1.1-0.6s0.9-0.2,1.3-0.2c0.9,0,1.6,0.2,2.3,0.6s1.2,1,1.6,1.7
		S48.5,87.8,48.5,88.7z M46.1,88.7c0-0.4-0.1-0.8-0.3-1.2s-0.5-0.6-0.8-0.9s-0.7-0.3-1.2-0.3c-0.5,0-0.9,0.1-1.2,0.3
		s-0.6,0.5-0.8,0.8s-0.3,0.8-0.3,1.2c0,0.4,0.1,0.8,0.3,1.2s0.5,0.6,0.8,0.8s0.8,0.3,1.2,0.3c0.4,0,0.8-0.1,1.2-0.3s0.6-0.5,0.8-0.8
		S46.1,89.1,46.1,88.7z"/>
	<path fill="#193062" d="M58.8,89.6h-6.5c0.2,0.5,0.4,0.8,0.8,1.1s0.9,0.4,1.4,0.4c0.4,0,0.8-0.1,1.2-0.3s0.6-0.5,0.8-0.8l2,1.2
		c-0.4,0.7-1,1.2-1.7,1.6s-1.5,0.6-2.4,0.6c-0.9,0-1.7-0.2-2.4-0.6s-1.3-1-1.7-1.7s-0.6-1.5-0.6-2.4c0-0.9,0.2-1.7,0.6-2.4
		s0.9-1.3,1.6-1.7s1.5-0.6,2.4-0.6s1.7,0.2,2.4,0.6s1.2,1,1.6,1.7s0.6,1.5,0.6,2.4C58.9,89,58.8,89.3,58.8,89.6z M52.2,87.7h4.2
		c-0.1-0.5-0.4-0.9-0.7-1.1s-0.8-0.4-1.3-0.4c-0.6,0-1,0.1-1.4,0.4S52.3,87.2,52.2,87.7z"/>
</g>
<g>
	<path fill="#193062" d="M19.9,105.9c0.8,0,1.6,0.2,2.3,0.6s1.2,0.9,1.6,1.5l-2,1.4c-0.2-0.3-0.5-0.6-0.8-0.8s-0.7-0.3-1.1-0.3
		c-0.4,0-0.8,0.1-1.2,0.3s-0.6,0.5-0.8,0.8s-0.3,0.8-0.3,1.2s0.1,0.8,0.3,1.2s0.5,0.6,0.8,0.8s0.7,0.3,1.2,0.3
		c0.4,0,0.8-0.1,1.1-0.3s0.6-0.5,0.8-0.8l2,1.4c-0.4,0.7-1,1.2-1.6,1.5s-1.4,0.6-2.3,0.6c-0.9,0-1.7-0.2-2.4-0.6s-1.3-1-1.7-1.7
		s-0.6-1.5-0.6-2.4s0.2-1.7,0.6-2.4s1-1.3,1.7-1.7S19,105.9,19.9,105.9z"/>
	<path fill="#193062" d="M29.5,105.9c0.9,0,1.7,0.2,2.4,0.6s1.3,1,1.7,1.7s0.6,1.5,0.6,2.4s-0.2,1.7-0.6,2.4s-1,1.3-1.7,1.7
		s-1.5,0.6-2.4,0.6s-1.7-0.2-2.4-0.6s-1.3-1-1.7-1.7s-0.6-1.5-0.6-2.4s0.2-1.7,0.6-2.4s1-1.3,1.7-1.7S28.6,105.9,29.5,105.9z
		 M29.5,113c0.4,0,0.8-0.1,1.2-0.3s0.6-0.5,0.8-0.8s0.3-0.8,0.3-1.2s-0.1-0.8-0.3-1.2s-0.5-0.6-0.8-0.8s-0.7-0.3-1.2-0.3
		c-0.4,0-0.8,0.1-1.2,0.3s-0.6,0.5-0.8,0.8s-0.3,0.8-0.3,1.2s0.1,0.8,0.3,1.2s0.5,0.6,0.8,0.8S29.1,113,29.5,113z"/>
	<path fill="#193062" d="M49.3,109.3v5.9h-2.4v-5.4c0-0.3-0.1-0.5-0.2-0.8s-0.3-0.4-0.5-0.5s-0.5-0.2-0.8-0.2
		c-0.3,0-0.5,0.1-0.8,0.2s-0.4,0.3-0.5,0.5s-0.2,0.5-0.2,0.7v5.4h-2.4v-5.4c0-0.3-0.1-0.5-0.2-0.8s-0.3-0.4-0.5-0.5
		s-0.5-0.2-0.8-0.2c-0.3,0-0.5,0.1-0.8,0.2s-0.4,0.3-0.5,0.5s-0.2,0.5-0.2,0.7v5.4h-2.5v-9.1h2.4v0.5c0.3-0.2,0.6-0.4,1-0.5
		s0.7-0.2,1.2-0.2c0.5,0,1,0.1,1.4,0.3s0.8,0.4,1.1,0.7c0.3-0.3,0.7-0.6,1.2-0.7s0.9-0.3,1.5-0.3c0.7,0,1.3,0.1,1.9,0.4
		s1,0.7,1.3,1.2S49.3,108.7,49.3,109.3z"/>
	<path fill="#193062" d="M61.1,110.7c0,0.9-0.2,1.7-0.6,2.4s-0.9,1.3-1.6,1.7s-1.5,0.6-2.3,0.6c-0.5,0-0.9-0.1-1.3-0.2
		s-0.8-0.3-1.1-0.6v4.4h-2.5v-12.9h2.4v0.6c0.3-0.3,0.7-0.5,1.1-0.6s0.9-0.2,1.4-0.2c0.9,0,1.6,0.2,2.3,0.6s1.2,1,1.6,1.7
		S61.1,109.8,61.1,110.7z M58.6,110.7c0-0.4-0.1-0.8-0.3-1.2s-0.5-0.6-0.8-0.9s-0.7-0.3-1.2-0.3c-0.5,0-0.9,0.1-1.2,0.3
		s-0.6,0.5-0.8,0.8s-0.3,0.8-0.3,1.2c0,0.4,0.1,0.8,0.3,1.2s0.5,0.6,0.8,0.8s0.8,0.3,1.2,0.3c0.4,0,0.8-0.1,1.2-0.3s0.6-0.5,0.8-0.8
		S58.6,111.1,58.6,110.7z"/>
	<path fill="#193062" d="M62.9,101.5h2.5v13.7h-2.5V101.5z"/>
	<path fill="#193062" d="M69,101.7c0.3,0,0.6,0.1,0.8,0.2s0.4,0.3,0.6,0.6s0.2,0.5,0.2,0.8s-0.1,0.5-0.2,0.8s-0.3,0.4-0.6,0.6
		s-0.5,0.2-0.8,0.2s-0.6-0.1-0.8-0.2s-0.4-0.3-0.6-0.6s-0.2-0.5-0.2-0.8s0.1-0.5,0.2-0.8s0.3-0.4,0.6-0.6S68.7,101.7,69,101.7z
		 M70.2,115.2h-2.5v-9.1h2.5V115.2z"/>
	<path fill="#193062" d="M76.8,105.9c0.8,0,1.6,0.2,2.3,0.6s1.2,0.9,1.6,1.5l-2,1.4c-0.2-0.3-0.5-0.6-0.8-0.8s-0.7-0.3-1.1-0.3
		c-0.4,0-0.8,0.1-1.2,0.3s-0.6,0.5-0.8,0.8s-0.3,0.8-0.3,1.2s0.1,0.8,0.3,1.2s0.5,0.6,0.8,0.8s0.7,0.3,1.2,0.3
		c0.4,0,0.8-0.1,1.1-0.3s0.6-0.5,0.8-0.8l2,1.4c-0.4,0.7-1,1.2-1.6,1.5s-1.4,0.6-2.3,0.6c-0.9,0-1.7-0.2-2.4-0.6s-1.3-1-1.7-1.7
		s-0.6-1.5-0.6-2.4s0.2-1.7,0.6-2.4s1-1.3,1.7-1.7S75.9,105.9,76.8,105.9z"/>
	<path fill="#193062" d="M89.6,109.5v5.7h-2.4v-0.6c-0.3,0.3-0.6,0.4-1,0.6s-0.8,0.2-1.3,0.2c-0.6,0-1.2-0.1-1.6-0.4s-0.8-0.6-1.1-1
		s-0.4-0.9-0.4-1.5c0-0.9,0.3-1.5,0.9-2s1.3-0.7,2.3-0.8l2.3-0.2v-0.2c0-0.2-0.1-0.4-0.2-0.6s-0.3-0.3-0.5-0.4s-0.5-0.2-0.7-0.2
		c-0.4,0-0.7,0.1-0.9,0.3s-0.4,0.4-0.5,0.7h-2.3c0-0.6,0.2-1.2,0.6-1.7s0.8-0.9,1.3-1.2s1.2-0.4,1.9-0.4c0.8,0,1.4,0.2,2,0.5
		s1,0.7,1.4,1.3S89.6,108.8,89.6,109.5z M87.2,112v-0.7l-1.9,0.2c-0.4,0-0.7,0.1-0.8,0.3s-0.3,0.4-0.3,0.6s0.1,0.5,0.3,0.7
		s0.5,0.3,0.9,0.3c0.5,0,1-0.1,1.3-0.4S87.2,112.5,87.2,112z"/>
	<path fill="#193062" d="M94.6,106.1h2.9v2.3h-2.9v3.4c0,0.3,0.1,0.6,0.3,0.8s0.4,0.3,0.8,0.3h1.8v2.3h-2.3c-0.6,0-1.1-0.1-1.6-0.4
		s-0.8-0.6-1.1-1s-0.4-1-0.4-1.5v-3.8h-1.3v-1.3l2.4-2.9h1.4V106.1z"/>
	<path fill="#193062" d="M107.7,111.6h-6.5c0.2,0.5,0.4,0.8,0.8,1.1s0.9,0.4,1.4,0.4c0.4,0,0.8-0.1,1.2-0.3s0.6-0.5,0.8-0.8l2,1.2
		c-0.4,0.7-1,1.2-1.7,1.6s-1.5,0.6-2.4,0.6c-0.9,0-1.7-0.2-2.4-0.6s-1.3-1-1.7-1.7s-0.6-1.5-0.6-2.4c0-0.9,0.2-1.7,0.6-2.4
		s0.9-1.3,1.6-1.7s1.5-0.6,2.4-0.6s1.7,0.2,2.4,0.6s1.2,1,1.6,1.7s0.6,1.5,0.6,2.4C107.8,111,107.7,111.3,107.7,111.6z M101.1,109.7
		h4.2c-0.1-0.5-0.4-0.9-0.7-1.1s-0.8-0.4-1.3-0.4c-0.6,0-1,0.1-1.4,0.4S101.3,109.2,101.1,109.7z"/>
	<path fill="#193062" d="M118.4,101.5v13.7H116v-0.6c-0.3,0.3-0.7,0.5-1.1,0.6s-0.9,0.2-1.4,0.2c-0.9,0-1.6-0.2-2.3-0.6
		s-1.2-1-1.6-1.7s-0.6-1.5-0.6-2.4c0-0.9,0.2-1.7,0.6-2.4s0.9-1.3,1.6-1.7s1.5-0.6,2.3-0.6c0.5,0,0.9,0.1,1.3,0.2s0.8,0.3,1.1,0.6
		v-5.2H118.4z M116,110.7c0-0.5-0.1-0.9-0.3-1.2s-0.5-0.6-0.8-0.8s-0.7-0.3-1.2-0.3c-0.4,0-0.8,0.1-1.2,0.3s-0.6,0.5-0.8,0.9
		s-0.3,0.8-0.3,1.2c0,0.4,0.1,0.8,0.3,1.2s0.5,0.6,0.8,0.8s0.7,0.3,1.2,0.3c0.4,0,0.8-0.1,1.2-0.3s0.6-0.5,0.8-0.8
		S116,111.1,116,110.7z"/>
	<path fill="#193062" d="M122.2,112.2c0.3,0,0.6,0.1,0.8,0.2s0.4,0.3,0.6,0.6s0.2,0.5,0.2,0.8c0,0.3-0.1,0.5-0.2,0.8
		s-0.3,0.4-0.6,0.6s-0.5,0.2-0.8,0.2s-0.6-0.1-0.8-0.2s-0.4-0.3-0.6-0.6s-0.2-0.5-0.2-0.8c0-0.3,0.1-0.6,0.2-0.8s0.3-0.4,0.6-0.6
		S121.9,112.2,122.2,112.2z"/>
</g>
</svg>
