<?xml version="1.0" encoding="utf-8"?>
<!-- Generator: Adobe Illustrator 27.4.0, SVG Export Plug-In . SVG Version: 6.00 Build 0)  -->
<svg version="1.1" baseProfile="tiny" id="Layer_1" xmlns="http://www.w3.org/2000/svg" xmlns:xlink="http://www.w3.org/1999/xlink"
	 x="0px" y="0px" viewBox="0 0 300 600" overflow="visible" xml:space="preserve">
<g>
	<path fill="#193062" d="M44.5,229.1v0.9c0,6.1-4.2,10.6-10.5,10.6c-6.4,0-10.8-4.6-10.8-10.9c0-6.1,4.6-10.9,10.9-10.9
		c4.2,0,7.6,2.1,9.5,5.3l-3.8,2.4c-1-1.9-3.1-3.2-5.7-3.2c-3.7,0-6.4,2.8-6.4,6.4c0,3.9,2.5,6.6,6.3,6.6c2.6,0,4.4-1.2,5.4-3h-6.8
		v-4.2H44.5z"/>
	<path fill="#193062" d="M61.1,234.5H50.9c0.5,1.3,1.7,2.1,3.3,2.1c1.4,0,2.4-0.7,3-1.7l3.4,2.1c-1.3,2.2-3.7,3.6-6.5,3.6
		c-4.4,0-7.6-3.3-7.6-7.6c0-4.4,3-7.7,7.4-7.7c4.4,0,7.3,3.2,7.3,7.6C61.2,233.5,61.2,234,61.1,234.5z M50.8,231.4H57
		c-0.4-1.4-1.6-2.1-3.1-2.1C52.3,229.3,51.2,230,50.8,231.4z"/>
	<path fill="#193062" d="M68.9,225.7h4.5v4.1h-4.5v4.9c0,1,0.6,1.6,1.6,1.6h2.9v4.1h-3.8c-3,0-5-1.9-5-4.9v-5.7h-2.1v-2.2l4-5h2.3
		V225.7z"/>
	<path fill="#193062" d="M99.8,233c0,4.2-3,7.6-7.2,7.6c-1.5,0-2.8-0.4-3.7-1.2v0.9h-4.2v-22.1h4.3v8.3c1-0.7,2.3-1.1,3.7-1.1
		C96.8,225.4,99.8,228.7,99.8,233z M95.5,233c0-2-1.4-3.5-3.3-3.5c-2,0-3.4,1.5-3.4,3.5c0,1.9,1.4,3.4,3.4,3.4
		C94.1,236.4,95.5,234.9,95.5,233z"/>
	<path fill="#193062" d="M114.7,231.1v9.2h-4.2v-0.8c-0.9,0.8-2,1.1-3.6,1.1c-3,0-5.1-1.9-5.1-4.6c0-3,2.3-4.3,5.1-4.6l3.6-0.3V231
		c0-1-1-1.7-2.1-1.7c-1.1,0-1.9,0.6-2.1,1.4h-4.1c0.2-3,2.7-5.3,6.2-5.3C112.2,225.4,114.7,227.8,114.7,231.1z M110.5,235.2v-0.9
		l-2.9,0.2c-1.1,0.1-1.5,0.6-1.5,1.3c0,0.8,0.7,1.4,1.9,1.4C109.6,237.2,110.5,236.4,110.5,235.2z"/>
	<path fill="#193062" d="M125.1,225.4c2.8,0,5.1,1.3,6.4,3.4l-3.5,2.4c-0.6-1-1.6-1.7-2.9-1.7c-1.9,0-3.3,1.5-3.3,3.5
		c0,1.9,1.4,3.4,3.3,3.4c1.3,0,2.2-0.7,2.8-1.7l3.5,2.4c-1.3,2.1-3.6,3.4-6.4,3.4c-4.4,0-7.6-3.3-7.6-7.6S120.7,225.4,125.1,225.4z"
		/>
	<path fill="#193062" d="M142.5,232.6l5.6,7.7h-5.2l-4.8-6.8v6.8h-4.3v-22.1h4.3v13.5l4.8-6.1h5.3L142.5,232.6z"/>
	<path fill="#193062" d="M163.1,225.7h4.5v4.1h-4.5v4.9c0,1,0.6,1.6,1.6,1.6h2.9v4.1h-3.8c-3,0-5-1.9-5-4.9v-5.7h-2.1v-2.2l4-5h2.3
		V225.7z"/>
	<path fill="#193062" d="M177.1,225.4c4.4,0,7.6,3.3,7.6,7.7c0,4.2-3.2,7.6-7.6,7.6c-4.4,0-7.6-3.4-7.6-7.6
		C169.5,228.7,172.7,225.4,177.1,225.4z M177.1,236.4c1.9,0,3.4-1.5,3.4-3.4c0-1.9-1.4-3.5-3.4-3.5c-1.9,0-3.4,1.5-3.4,3.5
		C173.8,234.9,175.2,236.4,177.1,236.4z"/>
</g>
<g>
	<path fill="#193062" d="M28.7,266.7h4.5v4.1h-4.5v4.9c0,1,0.6,1.6,1.6,1.6h2.9v4.1h-3.8c-3,0-5-1.9-5-4.9v-5.7h-2.1v-2.2l4-5h2.3
		V266.7z"/>
	<path fill="#193062" d="M49.7,272.2v9.1h-4.3v-8.2c0-1.4-0.9-2.5-2.4-2.5c-1.5,0-2.5,1.1-2.5,2.5v8.2h-4.3v-22.1h4.3v8.3
		c1-0.7,2.1-1.1,3.5-1.1C47.2,266.4,49.7,268.8,49.7,272.2z"/>
	<path fill="#193062" d="M67,275.5H56.8c0.5,1.3,1.7,2.1,3.3,2.1c1.4,0,2.4-0.7,3-1.7l3.4,2.1c-1.3,2.2-3.7,3.6-6.5,3.6
		c-4.4,0-7.6-3.3-7.6-7.6c0-4.4,3-7.7,7.4-7.7c4.4,0,7.3,3.2,7.3,7.6C67.1,274.5,67.1,275,67,275.5z M56.7,272.4h6.2
		c-0.4-1.4-1.6-2.1-3.1-2.1C58.2,270.3,57.1,271,56.7,272.4z"/>
	<path fill="#193062" d="M83.2,266.7h4.5v4.1h-4.5v4.9c0,1,0.6,1.6,1.6,1.6h2.9v4.1h-3.8c-3,0-5-1.9-5-4.9v-5.7h-2.1v-2.2l4-5h2.3
		V266.7z"/>
	<path fill="#193062" d="M104.1,272.2v9.1h-4.3v-8.2c0-1.4-0.9-2.5-2.4-2.5c-1.5,0-2.5,1.1-2.5,2.5v8.2h-4.3v-22.1h4.3v8.3
		c1-0.7,2.1-1.1,3.5-1.1C101.7,266.4,104.1,268.8,104.1,272.2z"/>
	<path fill="#193062" d="M110,259.5c1.5,0,2.7,1.2,2.7,2.7c0,1.5-1.1,2.7-2.7,2.7c-1.5,0-2.7-1.2-2.7-2.7
		C107.3,260.6,108.5,259.5,110,259.5z M112.1,281.3h-4.3v-14.6h4.3V281.3z"/>
	<path fill="#193062" d="M129.5,272.2v9.1h-4.3V273c0-1.4-0.9-2.5-2.4-2.5s-2.5,1.1-2.5,2.5v8.3H116v-14.6h4.2v0.8
		c1-0.7,2.2-1.2,3.6-1.2C127,266.4,129.5,268.8,129.5,272.2z"/>
	<path fill="#193062" d="M146.9,266.7v14.2c0,3.9-2.9,6.9-7.3,6.9c-3.3,0-5.9-1.9-6.8-4.6l3.9-1.5c0.4,1.3,1.4,2,2.9,2
		c1.8,0,3-1.1,3-2.9v-1.1c-0.9,0.7-2.1,1.1-3.5,1.1c-3.9,0-6.8-3.2-6.8-7.2c0-4,2.9-7.2,6.8-7.2c1.4,0,2.6,0.4,3.6,1.2v-0.9H146.9z
		 M142.7,273.7c0-1.7-1.3-3.1-3.1-3.1c-1.8,0-3.1,1.4-3.1,3.1c0,1.7,1.3,3,3.1,3C141.4,276.7,142.7,275.3,142.7,273.7z"/>
	<path fill="#193062" d="M155.9,277.8c1.2,0,1.9-0.5,1.9-1.1c0-0.4-0.4-0.7-1.1-0.8c-0.7-0.1-1.5-0.1-2.6-0.3
		c-2.8-0.4-4.1-2.1-4.1-4.3c0-2.8,2.4-5,5.9-5c3.5,0,5.9,2,5.9,4.9h-4.1c0-0.7-0.7-1.1-1.8-1.1c-1.1,0-1.7,0.4-1.7,1
		c0,0.4,0.3,0.6,1,0.7c0.9,0.1,1.5,0.1,2.7,0.3c2.8,0.3,4.1,2.1,4.1,4.3c0,2.9-2.4,5.1-6.1,5.1c-3.6,0-6.1-2.1-6.1-5h4.1
		C153.9,277.3,154.7,277.8,155.9,277.8z"/>
	<path fill="#193062" d="M185.2,266.7l-7.5,20.8h-4.5l2.3-6.5l-5.2-14.3h4.6l2.8,7.9l2.8-7.9H185.2z"/>
	<path fill="#193062" d="M193.5,266.4c4.4,0,7.6,3.3,7.6,7.7c0,4.2-3.2,7.6-7.6,7.6c-4.4,0-7.6-3.4-7.6-7.6
		C185.9,269.7,189.1,266.4,193.5,266.4z M193.5,277.4c1.9,0,3.4-1.5,3.4-3.4c0-1.9-1.4-3.5-3.4-3.5c-1.9,0-3.4,1.5-3.4,3.5
		C190.2,275.9,191.6,277.4,193.5,277.4z"/>
	<path fill="#193062" d="M217.4,266.7v14.6h-4.2v-0.8c-1,0.7-2.2,1.1-3.5,1.1c-3.3,0-5.7-2.5-5.7-5.8v-9.2h4.3v8.3
		c0,1.4,0.9,2.5,2.4,2.5s2.5-1.1,2.5-2.5v-8.3H217.4z"/>
</g>
<g>
	<path fill="#193062" d="M23.9,300.2h4.3v22.1h-4.3V300.2z"/>
	<path fill="#193062" d="M38.7,307.4c4.4,0,7.6,3.3,7.6,7.7c0,4.2-3.2,7.6-7.6,7.6s-7.6-3.4-7.6-7.6
		C31.1,310.7,34.3,307.4,38.7,307.4z M38.7,318.4c1.9,0,3.4-1.5,3.4-3.4c0-1.9-1.4-3.5-3.4-3.5s-3.4,1.5-3.4,3.5
		C35.3,316.9,36.7,318.4,38.7,318.4z"/>
	<path fill="#193062" d="M61.9,307.7l-5.3,14.6h-4.3l-5.3-14.6h4.6l2.8,8.1l2.8-8.1H61.9z"/>
	<path fill="#193062" d="M77.2,316.5H67c0.5,1.3,1.7,2.1,3.3,2.1c1.4,0,2.4-0.7,3-1.7l3.4,2.1c-1.3,2.2-3.7,3.6-6.5,3.6
		c-4.4,0-7.6-3.3-7.6-7.6c0-4.4,3-7.7,7.4-7.7c4.4,0,7.3,3.2,7.3,7.6C77.4,315.5,77.3,316,77.2,316.5z M66.9,313.4h6.2
		c-0.4-1.4-1.6-2.1-3.1-2.1C68.5,311.3,67.3,312,66.9,313.4z"/>
	<path fill="#193062" d="M82.4,317.2c1.5,0,2.7,1.2,2.7,2.7c0,1.5-1.1,2.7-2.7,2.7c-1.5,0-2.7-1.2-2.7-2.7
		C79.7,318.3,80.8,317.2,82.4,317.2z"/>
	<path fill="#193062" d="M108.3,319.5h-7.5l-0.9,2.8h-4.5l6.9-21.2h4.6l6.8,21.2h-4.6L108.3,319.5z M106.9,315.2l-2.4-7.4l-2.4,7.4
		H106.9z"/>
	<path fill="#193062" d="M131.1,315c0,4.2-3,7.6-7.2,7.6c-1.4,0-2.7-0.4-3.7-1.1v6.9H116v-20.8h4.2v0.8c1-0.7,2.3-1.2,3.7-1.2
		C128.1,307.4,131.1,310.7,131.1,315z M126.8,315c0-2-1.4-3.5-3.3-3.5c-2,0-3.4,1.5-3.4,3.5c0,1.9,1.4,3.4,3.4,3.4
		C125.4,318.5,126.8,316.9,126.8,315z"/>
	<path fill="#193062" d="M149.1,315c0,4.2-3,7.6-7.2,7.6c-1.4,0-2.7-0.4-3.7-1.1v6.9H134v-20.8h4.2v0.8c1-0.7,2.3-1.2,3.7-1.2
		C146.2,307.4,149.1,310.7,149.1,315z M144.8,315c0-2-1.4-3.5-3.3-3.5c-2,0-3.4,1.5-3.4,3.5c0,1.9,1.4,3.4,3.4,3.4
		C143.5,318.5,144.8,316.9,144.8,315z"/>
	<path fill="#193062" d="M152,300.2h4.3v22.1H152V300.2z"/>
	<path fill="#193062" d="M173.2,307.7l-7.5,20.8h-4.5l2.3-6.5l-5.2-14.3h4.6l2.8,7.9l2.8-7.9H173.2z"/>
	<path fill="#193062" d="M184,311.8h-2.9v-4.1h2.9v-2.9c0-2.8,1.9-4.6,4.7-4.6h3.3v4.1h-2.5c-0.7,0-1.2,0.4-1.2,1.2v2.2h3.7v4.1
		h-3.7v10.5H184V311.8z"/>
	<path fill="#193062" d="M200.9,307.4c4.4,0,7.6,3.3,7.6,7.7c0,4.2-3.2,7.6-7.6,7.6c-4.4,0-7.6-3.4-7.6-7.6
		C193.3,310.7,196.5,307.4,200.9,307.4z M200.9,318.4c1.9,0,3.4-1.5,3.4-3.4c0-1.9-1.4-3.5-3.4-3.5c-1.9,0-3.4,1.5-3.4,3.5
		C197.5,316.9,199,318.4,200.9,318.4z"/>
	<path fill="#193062" d="M220.7,307.7v4.2h-2.2c-1.7,0-2.8,1.2-2.8,2.9v7.5h-4.3v-14.6h4.2v1.3c0.8-1,2.1-1.3,3.4-1.3H220.7z"/>
</g>
<g>
	<path fill="#193062" d="M24.2,342.1h4.5v16.8h12.1v4.4H24.2V342.1z"/>
	<path fill="#193062" d="M45.8,341.5c1.5,0,2.7,1.2,2.7,2.7c0,1.5-1.1,2.7-2.7,2.7c-1.5,0-2.7-1.2-2.7-2.7
		C43.1,342.6,44.2,341.5,45.8,341.5z M47.9,363.3h-4.3v-14.6h4.3V363.3z"/>
	<path fill="#193062" d="M53.1,352.8h-2.9v-4.1h2.9v-2.9c0-2.8,1.9-4.6,4.7-4.6h3.3v4.1h-2.5c-0.7,0-1.2,0.4-1.2,1.2v2.2h3.7v4.1
		h-3.7v10.5h-4.3V352.8z"/>
	<path fill="#193062" d="M77,357.5H66.8c0.5,1.3,1.7,2.1,3.3,2.1c1.4,0,2.4-0.7,3-1.7l3.4,2.1c-1.3,2.2-3.7,3.6-6.5,3.6
		c-4.4,0-7.6-3.3-7.6-7.6c0-4.4,3-7.7,7.4-7.7c4.4,0,7.3,3.2,7.3,7.6C77.1,356.5,77.1,357.1,77,357.5z M66.7,354.4h6.2
		c-0.4-1.4-1.6-2.1-3.1-2.1C68.2,352.3,67.1,353.1,66.7,354.4z"/>
	<path fill="#193062" d="M88.6,342.1h4.5v21.2h-4.5V342.1z"/>
	<path fill="#193062" d="M110.8,354.2v9.1h-4.3v-8.3c0-1.4-0.9-2.5-2.4-2.5s-2.5,1.1-2.5,2.5v8.3h-4.3v-14.6h4.2v0.8
		c1-0.7,2.2-1.2,3.6-1.2C108.4,348.4,110.8,350.8,110.8,354.2z"/>
	<path fill="#193062" d="M119.8,359.8c1.2,0,1.9-0.5,1.9-1.1c0-0.4-0.4-0.7-1.1-0.8s-1.5-0.1-2.6-0.3c-2.8-0.4-4.1-2.1-4.1-4.3
		c0-2.8,2.4-5,5.9-5c3.5,0,5.9,2,5.9,4.9h-4.1c0-0.7-0.7-1.1-1.8-1.1c-1.1,0-1.7,0.4-1.7,1c0,0.4,0.3,0.6,1,0.7
		c0.9,0.1,1.5,0.1,2.7,0.3c2.8,0.3,4.1,2.1,4.1,4.3c0,2.9-2.4,5.1-6.1,5.1c-3.6,0-6.1-2.1-6.1-5h4.1
		C117.8,359.3,118.5,359.8,119.8,359.8z"/>
	<path fill="#193062" d="M141.9,348.7v14.6h-4.2v-0.8c-1,0.7-2.2,1.1-3.5,1.1c-3.3,0-5.7-2.5-5.7-5.8v-9.2h4.3v8.3
		c0,1.4,0.9,2.5,2.4,2.5c1.5,0,2.5-1.1,2.5-2.5v-8.3H141.9z"/>
	<path fill="#193062" d="M155.1,348.7v4.2h-2.2c-1.7,0-2.8,1.2-2.8,2.9v7.5h-4.3v-14.6h4.2v1.3c0.8-1,2.1-1.3,3.4-1.3H155.1z"/>
	<path fill="#193062" d="M169.2,354.2v9.2H165v-0.8c-0.9,0.8-2,1.1-3.6,1.1c-3,0-5.1-1.9-5.1-4.6c0-3,2.3-4.3,5.1-4.6l3.6-0.3V354
		c0-1-1-1.7-2.1-1.7c-1.1,0-1.9,0.6-2.1,1.4h-4.1c0.2-3,2.7-5.3,6.2-5.3C166.6,348.4,169.2,350.8,169.2,354.2z M165,358.2v-0.9
		l-2.9,0.2c-1.1,0.1-1.5,0.6-1.5,1.3c0,0.8,0.7,1.4,1.9,1.4C164,360.2,165,359.4,165,358.2z"/>
	<path fill="#193062" d="M186.4,354.2v9.1h-4.3v-8.3c0-1.4-0.9-2.5-2.4-2.5c-1.5,0-2.5,1.1-2.5,2.5v8.3h-4.3v-14.6h4.2v0.8
		c1-0.7,2.2-1.2,3.6-1.2C184,348.4,186.4,350.8,186.4,354.2z"/>
	<path fill="#193062" d="M196.8,348.4c2.8,0,5.1,1.3,6.4,3.4l-3.5,2.4c-0.6-1-1.6-1.7-2.9-1.7c-1.9,0-3.3,1.5-3.3,3.5
		s1.4,3.4,3.3,3.4c1.3,0,2.2-0.7,2.8-1.7l3.5,2.4c-1.3,2.1-3.6,3.4-6.4,3.4c-4.4,0-7.6-3.3-7.6-7.6S192.4,348.4,196.8,348.4z"/>
	<path fill="#193062" d="M218.9,357.5h-10.2c0.5,1.3,1.7,2.1,3.3,2.1c1.4,0,2.4-0.7,3-1.7l3.4,2.1c-1.3,2.2-3.7,3.6-6.5,3.6
		c-4.4,0-7.6-3.3-7.6-7.6c0-4.4,3-7.7,7.4-7.7c4.4,0,7.3,3.2,7.3,7.6C219.1,356.5,219,357.1,218.9,357.5z M208.6,354.4h6.2
		c-0.4-1.4-1.6-2.1-3.1-2.1C210.2,352.3,209,353.1,208.6,354.4z"/>
</g>
<g>
	<path fill="#193062" d="M26.1,382.5c1.5,0,2.7,1.2,2.7,2.7c0,1.5-1.1,2.7-2.7,2.7c-1.5,0-2.7-1.2-2.7-2.7
		C23.4,383.6,24.5,382.5,26.1,382.5z M28.2,404.3h-4.3v-14.6h4.3V404.3z"/>
	<path fill="#193062" d="M45.6,395.2v9.1h-4.3v-8.3c0-1.4-0.9-2.5-2.4-2.5s-2.5,1.1-2.5,2.5v8.3H32v-14.6h4.2v0.8
		c1-0.7,2.2-1.2,3.6-1.2C43.1,389.4,45.6,391.9,45.6,395.2z"/>
	<path fill="#193062" d="M79,394.8v9.5h-4.3v-8.6c0-1.2-0.8-2.1-2.1-2.1c-1.2,0-2.1,1-2.1,2.1v8.6h-4.3v-8.6c0-1.2-0.8-2.1-2.1-2.1
		c-1.2,0-2.1,1-2.1,2.1v8.6h-4.3v-14.6h4.2v0.7c0.9-0.6,2-1,3.3-1c1.5,0,2.9,0.6,3.8,1.5c1-0.9,2.5-1.5,4.1-1.5
		C76.5,389.4,79,391.7,79,394.8z"/>
	<path fill="#193062" d="M84.9,382.5c1.5,0,2.7,1.2,2.7,2.7c0,1.5-1.1,2.7-2.7,2.7c-1.5,0-2.7-1.2-2.7-2.7
		C82.2,383.6,83.4,382.5,84.9,382.5z M87.1,404.3h-4.3v-14.6h4.3V404.3z"/>
	<path fill="#193062" d="M104.4,395.2v9.1h-4.3v-8.3c0-1.4-0.9-2.5-2.4-2.5s-2.5,1.1-2.5,2.5v8.3h-4.3v-14.6h4.2v0.8
		c1-0.7,2.2-1.2,3.6-1.2C102,389.4,104.4,391.9,104.4,395.2z"/>
	<path fill="#193062" d="M121.5,389.7v14.6h-4.2v-0.8c-1,0.7-2.2,1.1-3.5,1.1c-3.3,0-5.7-2.5-5.7-5.8v-9.2h4.3v8.3
		c0,1.4,0.9,2.5,2.4,2.5c1.5,0,2.5-1.1,2.5-2.5v-8.3H121.5z"/>
	<path fill="#193062" d="M130.1,389.7h4.5v4.1h-4.5v4.9c0,1,0.6,1.6,1.6,1.6h2.9v4.1h-3.8c-3,0-5-1.9-5-4.9v-5.7h-2.1v-2.2l4-5h2.3
		V389.7z"/>
	<path fill="#193062" d="M151,398.6h-10.2c0.5,1.3,1.7,2.1,3.3,2.1c1.4,0,2.4-0.7,3-1.7l3.4,2.1c-1.3,2.2-3.7,3.6-6.5,3.6
		c-4.4,0-7.6-3.3-7.6-7.6c0-4.4,3-7.7,7.4-7.7c4.4,0,7.3,3.2,7.3,7.6C151.2,397.5,151.1,398.1,151,398.6z M140.8,395.5h6.2
		c-0.4-1.4-1.6-2.1-3.1-2.1C142.3,393.3,141.1,394.1,140.8,395.5z"/>
	<path fill="#193062" d="M159.3,400.8c1.2,0,1.9-0.5,1.9-1.1c0-0.4-0.4-0.7-1.1-0.8s-1.5-0.1-2.6-0.3c-2.8-0.4-4.1-2.1-4.1-4.3
		c0-2.8,2.4-5,5.9-5c3.5,0,5.9,2,5.9,4.9h-4.1c0-0.7-0.7-1.1-1.8-1.1c-1.1,0-1.7,0.4-1.7,1c0,0.4,0.3,0.6,1,0.7
		c0.9,0.1,1.5,0.1,2.7,0.3c2.8,0.3,4.1,2.1,4.1,4.3c0,2.9-2.4,5.1-6.1,5.1c-3.6,0-6.1-2.1-6.1-5h4.1
		C157.3,400.3,158,400.8,159.3,400.8z"/>
	<path fill="#193062" d="M170.4,399.2c1.5,0,2.7,1.2,2.7,2.7c0,1.5-1.1,2.7-2.7,2.7c-1.5,0-2.7-1.2-2.7-2.7
		C167.7,400.3,168.9,399.2,170.4,399.2z"/>
</g>
</svg>
