<?xml version="1.0" encoding="utf-8"?>
<!-- Generator: Adobe Illustrator 27.4.0, SVG Export Plug-In . SVG Version: 6.00 Build 0)  -->
<svg version="1.1" baseProfile="tiny" id="Layer_1" xmlns="http://www.w3.org/2000/svg" xmlns:xlink="http://www.w3.org/1999/xlink"
	 x="0px" y="0px" viewBox="0 0 300 600" overflow="visible" xml:space="preserve">
<rect x="-0.2" y="515.2" fill="#193062" width="300.5" height="85.1"/>
<rect x="65.4" y="541.4" fill="#FAE07E" width="26.2" height="7.3"/>
<rect x="93.8" y="541.4" fill="#FFFFFF" width="6.3" height="7.3"/>
<rect x="65.4" y="550.6" fill="#FAE07E" width="19.6" height="7.2"/>
<rect x="87.2" y="550.6" fill="#FFFFFF" width="12.9" height="7.2"/>
<rect x="65.4" y="559.7" fill="#FAE07E" width="12.9" height="7.2"/>
<rect x="80.6" y="559.7" fill="#FFFFFF" width="19.6" height="7.2"/>
<polygon fill="#FFFFFF" points="120.6,551.9 114.7,551.9 114.7,548.7 129.7,548.7 129.7,551.9 123.9,551.9 123.9,568.9 120.6,568.9 
	"/>
<g>
	<path fill="none" d="M187.5,557.2c-2.5,0-4.2,2-4.2,4.5s1.7,4.5,4.2,4.5c2.5,0,4.2-2,4.2-4.5S190,557.2,187.5,557.2z"/>
	<path fill="none" d="M204.3,557.2c-2.4,0-4.2,1.8-4.2,4.3s1.8,4.3,4.2,4.3s4.2-1.8,4.2-4.3S206.7,557.2,204.3,557.2z"/>
	<path fill="none" d="M220.8,557c-1.8,0-3.7,1.1-4.1,3.2h7.9C224.3,558.1,222.6,557,220.8,557z"/>
	<path fill="#FFFFFF" d="M129,554.7v14.2h3.1v-6.9c0-2.8,1.6-4.3,3.4-4.3c0.6,0,1,0.1,1.6,0.3v-3.2c-0.4-0.1-0.8-0.1-1.2-0.1
		c-1.6,0-3.2,1.1-3.7,2.7v-2.5H129z"/>
	<path fill="#FFFFFF" d="M139.5,554.7v8.5c0,3.6,2,6,5.3,6c1.8,0,3.3-0.8,4.1-2.2v1.9h3.1v-14.2h-3.1v7c0,3-1.4,4.7-3.5,4.7
		c-1.8,0-2.8-1.4-2.8-3.7v-8H139.5z"/>
	<path fill="#FFFFFF" d="M161.3,566.1c-2,0-3.6-1-4.7-2.6l-2.6,2.1c1.2,2.2,3.9,3.6,7.2,3.6c3.9,0,6.7-2.3,6.7-5.8
		c0-3-1.8-4.8-4.7-5.9l-2-0.8c-2.1-0.8-3.1-1.4-3.1-2.9c0-1.4,1.5-2.3,3.2-2.3c1.6,0,2.8,0.7,3.8,1.9l2.3-2.2
		c-1.5-1.8-3.6-2.8-6.1-2.8c-3.7,0-6.5,2.2-6.5,5.7c0,2.8,1.6,4.5,4.8,5.7l2.2,0.8c1.9,0.7,2.9,1.6,2.9,3.1
		C164.5,565.1,163.1,566.1,161.3,566.1z"/>
	<path fill="#FFFFFF" d="M194.6,568.9v-14.2h-3.1v1.9c-0.8-1.1-2.5-2.2-4.5-2.2c-3.9,0-6.8,3.3-6.8,7.4s2.9,7.4,6.8,7.4
		c2,0,3.7-1.1,4.5-2.2v1.9H194.6z M187.5,566.3c-2.5,0-4.2-2-4.2-4.5s1.7-4.5,4.2-4.5c2.5,0,4.2,2,4.2,4.5S190,566.3,187.5,566.3z"
		/>
	<path fill="#FFFFFF" d="M204,572.3c-1.9,0-3.5-0.8-4.7-2.1l-1.9,2.2c1.4,1.6,3.9,2.6,6.6,2.6c4.2,0,7.4-2.2,7.4-7.2v-13.2h-3.1v1.9
		c-0.9-1.2-2.6-2.2-4.5-2.2c-3.8,0-6.8,3.2-6.8,7.2c0,4,3,7.2,6.8,7.2c2,0,3.7-1,4.5-2.2v1.3C208.2,570.7,206.3,572.3,204,572.3z
		 M204.3,565.9c-2.4,0-4.2-1.8-4.2-4.3s1.8-4.3,4.2-4.3s4.2,1.8,4.2,4.3S206.7,565.9,204.3,565.9z"/>
	<path fill="#FFFFFF" d="M220.9,554.4c-4.3,0-7.4,3.2-7.4,7.4c0,4.3,3.1,7.4,7.4,7.4c3,0,5.2-1.3,6.5-3.3l-2.4-1.7
		c-0.7,1.2-2.1,2.2-4,2.2c-2.4,0-4.2-1.5-4.4-3.9h11.1c0-0.5,0-0.7,0-1C227.7,556.8,224.6,554.4,220.9,554.4z M216.7,560.2
		c0.4-2.1,2.3-3.2,4.1-3.2c1.8,0,3.5,1.1,3.8,3.2H216.7z"/>
	<path fill="#FFFFFF" d="M171.4,550.7l0,1.8c0,1.2-1,2.2-2.2,2.2l-0.8,0v2.8h2.9v6.8c0,3.2,2.1,4.7,4.8,4.7c1,0,1.7-0.1,2.3-0.3
		v-2.8c-0.5,0.2-1.1,0.3-1.7,0.3c-1.6,0-2.4-0.7-2.4-2.4v-6.3h4v-2.8h-4v-3.9H171.4z"/>
	<polygon fill="#FFFFFF" points="229.6,552.2 228.9,550.7 228.4,550.7 228.4,553.2 228.9,553.2 228.9,551.7 229.6,553.2 
		230.4,551.7 230.4,553.2 230.9,553.2 230.9,550.7 230.4,550.7 	"/>
	<polygon fill="#FFFFFF" points="227.2,553.2 227.2,551.2 228,551.2 228,550.7 225.9,550.7 225.9,551.2 226.7,551.2 226.7,553.2 	
		"/>
</g>
</svg>
