<?xml version="1.0" encoding="utf-8"?>
<!-- Generator: Adobe Illustrator 27.4.0, SVG Export Plug-In . SVG Version: 6.00 Build 0)  -->
<svg version="1.1" baseProfile="tiny" id="Layer_1" xmlns="http://www.w3.org/2000/svg" xmlns:xlink="http://www.w3.org/1999/xlink"
	 x="0px" y="0px" viewBox="0 0 300 50" overflow="visible" xml:space="preserve">
<g>
	<path fill="#FFFFFF" d="M10.7,42c0,0.3-0.1,0.6-0.2,0.9c-0.2,0.3-0.4,0.5-0.6,0.6s-0.6,0.2-0.9,0.2c-0.4,0-0.7-0.1-1-0.2
		s-0.5-0.4-0.7-0.7c-0.2-0.3-0.2-0.6-0.2-1c0-0.4,0.1-0.7,0.2-1c0.2-0.3,0.4-0.5,0.7-0.7C8.3,40.1,8.6,40,9,40
		c0.3,0,0.7,0.1,0.9,0.2c0.3,0.2,0.5,0.4,0.6,0.6l-0.3,0.2c-0.1-0.2-0.3-0.4-0.5-0.5S9.2,40.4,9,40.4c-0.3,0-0.5,0.1-0.8,0.2
		c-0.2,0.1-0.4,0.3-0.5,0.5c-0.1,0.2-0.2,0.5-0.2,0.8c0,0.3,0.1,0.6,0.2,0.8c0.1,0.2,0.3,0.4,0.5,0.5c0.2,0.1,0.5,0.2,0.8,0.2
		c0.2,0,0.4,0,0.6-0.1c0.2-0.1,0.3-0.2,0.5-0.4c0.1-0.2,0.2-0.3,0.3-0.5H8.8V42H10.7z"/>
	<path fill="#FFFFFF" d="M11.4,40h2.7v0.4h-2.3v1.3h1.4v0.4h-1.4v1.3h2.3v0.4h-2.7V40z"/>
	<path fill="#FFFFFF" d="M17.5,40v3.7h-0.4l-2-3v3h-0.4V40h0.4l2,3v-3H17.5z"/>
	<path fill="#FFFFFF" d="M19.4,42.1v0.4h-1.1v-0.4H19.4z"/>
	<path fill="#FFFFFF" d="M22.6,42.2v0.4h-0.7v1.1h-0.4v-1.1h-1.6v-0.3l1.6-2.2h0.4v2.1H22.6z M21.5,42.2v-1.6l-1.2,1.6H21.5z"/>
	<path fill="#FFFFFF" d="M22.9,40h2.3v0.4l-1.4,3.3h-0.4l1.4-3.3h-1.9V40z"/>
	<path fill="#FFFFFF" d="M28.1,42.7c0,0.2,0,0.4-0.1,0.5c-0.1,0.2-0.2,0.3-0.4,0.4s-0.4,0.1-0.6,0.1s-0.4,0-0.6-0.1
		c-0.2-0.1-0.3-0.2-0.4-0.4c-0.1-0.2-0.1-0.3-0.1-0.5c0-0.2,0-0.4,0.1-0.5c0.1-0.2,0.2-0.3,0.4-0.4c-0.1-0.1-0.2-0.2-0.3-0.3
		c-0.1-0.1-0.1-0.3-0.1-0.5c0-0.2,0-0.4,0.1-0.5s0.2-0.3,0.4-0.4S26.8,40,27,40s0.4,0,0.6,0.1c0.2,0.1,0.3,0.2,0.4,0.4
		S28,40.8,28,41c0,0.2,0,0.3-0.1,0.5c-0.1,0.1-0.2,0.3-0.3,0.3c0.2,0.1,0.3,0.2,0.4,0.4C28,42.3,28.1,42.5,28.1,42.7z M27.7,42.7
		c0-0.1,0-0.3-0.1-0.4s-0.1-0.2-0.3-0.2C27.2,42,27.1,42,27,42s-0.3,0-0.4,0.1s-0.2,0.1-0.3,0.2c-0.1,0.1-0.1,0.2-0.1,0.4
		s0,0.3,0.1,0.4s0.1,0.2,0.3,0.3c0.1,0.1,0.2,0.1,0.4,0.1c0.1,0,0.3,0,0.4-0.1c0.1-0.1,0.2-0.1,0.3-0.3S27.7,42.8,27.7,42.7z
		 M26.3,41c0,0.1,0,0.2,0.1,0.3c0.1,0.1,0.1,0.2,0.2,0.2c0.1,0.1,0.2,0.1,0.4,0.1s0.3,0,0.4-0.1c0.1-0.1,0.2-0.1,0.2-0.2
		c0.1-0.1,0.1-0.2,0.1-0.3s0-0.2-0.1-0.3c-0.1-0.1-0.1-0.2-0.2-0.2s-0.2-0.1-0.4-0.1s-0.3,0-0.4,0.1c-0.1,0.1-0.2,0.1-0.2,0.2
		C26.3,40.8,26.3,40.9,26.3,41z"/>
	<path fill="#FFFFFF" d="M31,42.7c0,0.2,0,0.4-0.1,0.5c-0.1,0.2-0.2,0.3-0.4,0.4s-0.4,0.1-0.6,0.1c-0.2,0-0.4,0-0.6-0.1
		c-0.2-0.1-0.3-0.2-0.4-0.4c-0.1-0.2-0.1-0.3-0.1-0.5h0.4c0,0.1,0,0.2,0.1,0.3c0.1,0.1,0.2,0.2,0.3,0.2s0.2,0.1,0.4,0.1
		c0.1,0,0.3,0,0.4-0.1c0.1-0.1,0.2-0.1,0.3-0.2c0.1-0.1,0.1-0.2,0.1-0.4c0-0.1,0-0.3-0.1-0.4c-0.1-0.1-0.1-0.2-0.3-0.2
		S30,42,29.9,42h-0.4v-0.4h0.4c0.1,0,0.2,0,0.3-0.1s0.2-0.1,0.2-0.2s0.1-0.2,0.1-0.3c0-0.1,0-0.2-0.1-0.3s-0.1-0.2-0.2-0.2
		s-0.2-0.1-0.3-0.1c-0.1,0-0.2,0-0.3,0.1s-0.2,0.1-0.2,0.2c-0.1,0.1-0.1,0.2-0.1,0.3h-0.4c0-0.2,0-0.4,0.1-0.5
		c0.1-0.2,0.2-0.3,0.4-0.4c0.2-0.1,0.3-0.1,0.5-0.1c0.2,0,0.4,0,0.5,0.1c0.2,0.1,0.3,0.2,0.4,0.4c0.1,0.2,0.1,0.3,0.1,0.5
		c0,0.2,0,0.3-0.1,0.5c-0.1,0.1-0.2,0.3-0.3,0.3c0.2,0.1,0.3,0.2,0.4,0.4C31,42.3,31,42.5,31,42.7z"/>
	<path fill="#FFFFFF" d="M32.6,40.5l-1,0.6v-0.4l1-0.6H33v3.7h-0.4V40.5z"/>
	<path fill="#FFFFFF" d="M33.9,40h2.3v0.4l-1.4,3.3h-0.4l1.4-3.3h-1.9V40z"/>
	<path fill="#FFFFFF" d="M39.1,42.2v0.4h-0.7v1.1h-0.4v-1.1h-1.6v-0.3L38,40h0.4v2.1H39.1z M38.1,42.2v-1.6l-1.2,1.6H38.1z"/>
	<path fill="#FFFFFF" d="M39.9,43.2c0.1,0,0.2,0,0.2,0.1c0.1,0.1,0.1,0.1,0.1,0.2s0,0.2-0.1,0.2c-0.1,0.1-0.1,0.1-0.2,0.1
		s-0.2,0-0.2-0.1c-0.1-0.1-0.1-0.1-0.1-0.2s0-0.2,0.1-0.2C39.7,43.2,39.8,43.2,39.9,43.2z"/>
	<path fill="#FFFFFF" d="M43.1,43.3v0.4h-2.2v-0.3l1.5-1.6c0.1-0.1,0.2-0.2,0.3-0.4c0.1-0.1,0.1-0.2,0.1-0.4c0-0.1,0-0.3-0.1-0.4
		c-0.1-0.1-0.1-0.2-0.3-0.3c-0.1-0.1-0.2-0.1-0.4-0.1c-0.1,0-0.3,0-0.4,0.1c-0.1,0.1-0.2,0.1-0.3,0.2s-0.1,0.2-0.1,0.4h-0.4
		c0-0.2,0-0.4,0.1-0.5c0.1-0.2,0.2-0.3,0.4-0.4C41.6,40,41.8,40,42,40c0.2,0,0.4,0,0.6,0.1c0.2,0.1,0.3,0.2,0.4,0.4
		c0.1,0.2,0.1,0.3,0.1,0.6c0,0.2,0,0.4-0.1,0.5c-0.1,0.2-0.2,0.3-0.4,0.5l-1.2,1.3H43.1z"/>
</g>
</svg>
