<svg baseProfile="tiny" xmlns="http://www.w3.org/2000/svg" viewBox="0 0 160 600" overflow="visible"><g fill="#193062"><path d="M16.4 296.5h2.9v5.4h5.3v-5.4h2.9v13.8h-2.9v-5.5h-5.3v5.5h-2.9v-13.8zM39.1 306.5h-6.6c.3.8 1.1 1.4 2.2 1.4.9 0 1.6-.5 2-1.1l2.2 1.3c-.8 1.4-2.4 2.3-4.3 2.3-2.9 0-5-2.2-5-5s2-5 4.8-5 4.8 2.1 4.8 5c0 .4-.1.8-.1 1.1zm-6.7-2h4c-.3-.9-1-1.4-2-1.4s-1.8.5-2 1.4zM41 295.9h2.8v14.4H41v-14.4zM56.2 305.5c0 2.8-1.9 5-4.7 5-.9 0-1.7-.3-2.4-.7v4.5h-2.8v-13.5H49v.5c.6-.5 1.5-.8 2.4-.8 2.8 0 4.8 2.2 4.8 5zm-2.8 0c0-1.3-.9-2.3-2.2-2.3-1.3 0-2.2 1-2.2 2.3 0 1.2.9 2.2 2.2 2.2 1.3.1 2.2-.9 2.2-2.2zM59.4 296c1 0 1.7.8 1.7 1.7 0 1-.7 1.7-1.7 1.7s-1.7-.8-1.7-1.7c0-.9.7-1.7 1.7-1.7zm1.4 14.3H58v-9.5h2.8v9.5zM72.1 304.3v6h-2.8v-5.4c0-.9-.6-1.6-1.6-1.6s-1.6.7-1.6 1.6v5.4h-2.8v-9.5H66v.5c.6-.5 1.4-.8 2.3-.8 2.3 0 3.8 1.7 3.8 3.8zM83.5 300.8v9.2c0 2.6-1.9 4.5-4.7 4.5-2.2 0-3.9-1.2-4.4-3l2.6-1c.3.8.9 1.3 1.9 1.3 1.2 0 1.9-.7 1.9-1.9v-.7c-.6.5-1.4.7-2.3.7-2.6 0-4.5-2.1-4.5-4.7s1.9-4.7 4.4-4.7c.9 0 1.7.3 2.3.8v-.6h2.8zm-2.7 4.5c0-1.1-.9-2-2-2-1.2 0-2 .9-2 2s.9 2 2 2 2-.9 2-2z"/></g><g fill="#193062"><path d="M26.1 331.5c0 2.8-1.9 5-4.7 5-.9 0-1.7-.3-2.4-.7v4.5h-2.8v-13.5h2.7v.5c.6-.5 1.5-.8 2.4-.8 2.8 0 4.8 2.2 4.8 5zm-2.8 0c0-1.3-.9-2.3-2.2-2.3-1.3 0-2.2 1-2.2 2.3 0 1.2.9 2.2 2.2 2.2 1.3.1 2.2-.9 2.2-2.2zM34 326.7v2.8h-1.4c-1.1 0-1.8.8-1.8 1.9v4.9H28v-9.5h2.7v.9c.5-.7 1.4-.9 2.2-.9H34zM39.9 326.5c2.9 0 5 2.2 5 5 0 2.7-2.1 5-5 5s-5-2.2-5-5 2.1-5 5-5zm0 7.2c1.3 0 2.2-1 2.2-2.2 0-1.3-.9-2.2-2.2-2.2s-2.2 1-2.2 2.2c0 1.3.9 2.2 2.2 2.2zM49.8 326.7h2.9v2.7h-2.9v3.2c0 .6.4 1 1 1h1.9v2.7h-2.5c-1.9 0-3.3-1.2-3.3-3.2v-3.7h-1.4V328l2.6-3.2h1.5v1.9zM63.4 332.5h-6.6c.3.8 1.1 1.4 2.2 1.4.9 0 1.6-.5 2-1.1l2.2 1.3c-.8 1.4-2.4 2.3-4.3 2.3-2.9 0-5-2.2-5-5s2-5 4.8-5 4.8 2.1 4.8 5c0 .4 0 .8-.1 1.1zm-6.7-2h4c-.3-.9-1-1.4-2-1.4s-1.7.5-2 1.4zM69.7 326.5c1.8 0 3.3.9 4.1 2.2l-2.2 1.6c-.4-.6-1-1.1-1.9-1.1-1.2 0-2.2 1-2.2 2.2 0 1.3.9 2.2 2.2 2.2.8 0 1.5-.4 1.9-1.1l2.3 1.6c-.8 1.4-2.3 2.2-4.1 2.2-2.9 0-4.9-2.2-4.9-5-.1-2.6 1.9-4.8 4.8-4.8zM78.6 326.7h2.9v2.7h-2.9v3.2c0 .6.4 1 1 1h1.9v2.7H79c-1.9 0-3.3-1.2-3.3-3.2v-3.7h-1.4V328l2.6-3.2h1.5v1.9zM96.7 326.7l-4.9 13.5h-2.9l1.5-4.2-3.4-9.3h3l1.8 5.2 1.9-5.2h3zM102.2 326.5c2.9 0 5 2.2 5 5 0 2.7-2.1 5-5 5s-5-2.2-5-5 2.1-5 5-5zm0 7.2c1.3 0 2.2-1 2.2-2.2 0-1.3-.9-2.2-2.2-2.2s-2.2 1-2.2 2.2c0 1.3.9 2.2 2.2 2.2zM117.7 326.7v9.5H115v-.5c-.6.5-1.4.7-2.3.7-2.1 0-3.7-1.6-3.7-3.8v-6h2.8v5.4c0 .9.6 1.6 1.6 1.6s1.6-.7 1.6-1.6v-5.4h2.7zM126.2 326.7v2.8h-1.4c-1.1 0-1.8.8-1.8 1.9v4.9h-2.8v-9.5h2.7v.9c.5-.7 1.4-.9 2.2-.9h1.1z"/></g><g fill="#193062"><path d="M17.1 355.4h-1.9v-2.7h1.9v-1.9c0-1.8 1.2-3 3.1-3h2.1v2.7h-1.6c-.5 0-.8.3-.8.8v1.5h2.4v2.7h-2.4v6.9h-2.8v-7zM31.6 356.3v6h-2.7v-.5c-.6.5-1.3.7-2.3.7-2 0-3.3-1.2-3.3-3 0-2 1.5-2.8 3.3-3l2.3-.2v-.1c0-.6-.6-1.1-1.4-1.1-.7 0-1.2.4-1.4.9h-2.7c.1-2 1.8-3.4 4-3.4 2.5-.1 4.2 1.5 4.2 3.7zm-2.8 2.6v-.6l-1.9.2c-.7.1-1 .4-1 .9s.4.9 1.2.9c1.1-.1 1.7-.6 1.7-1.4zM47.9 356v6.2h-2.8v-5.6c0-.8-.5-1.4-1.4-1.4-.8 0-1.4.6-1.4 1.4v5.6h-2.8v-5.6c0-.8-.5-1.4-1.4-1.4-.8 0-1.4.6-1.4 1.4v5.6H34v-9.5h2.7v.5c.6-.4 1.3-.7 2.1-.7 1 0 1.9.4 2.5 1 .7-.6 1.6-1 2.7-1 2.3 0 3.9 1.5 3.9 3.5zM51.8 348c1 0 1.7.8 1.7 1.7 0 1-.7 1.7-1.7 1.7s-1.7-.8-1.7-1.7c-.1-.9.7-1.7 1.7-1.7zm1.4 14.3h-2.8v-9.5h2.8v9.5zM55.7 347.8h2.8v14.4h-2.8v-14.4zM69.5 352.7l-4.9 13.5h-2.9l1.5-4.2-3.4-9.3h3l1.8 5.2 1.9-5.2h3zM73.9 349.9c0 .2 0 .4-.1.6l-1.1 3.1H71l.5-2.2c-.6-.2-1-.8-1-1.6 0-1 .7-1.7 1.7-1.7s1.7.9 1.7 1.8zM78.6 359.9c.8 0 1.2-.3 1.2-.7 0-.3-.2-.5-.7-.5s-1-.1-1.7-.2c-1.9-.3-2.7-1.4-2.7-2.8 0-1.9 1.6-3.2 3.9-3.2 2.2 0 3.8 1.3 3.9 3.2h-2.7c0-.4-.5-.7-1.2-.7s-1.1.3-1.1.6.2.4.7.5c.6.1 1 .1 1.8.2 1.9.2 2.7 1.4 2.7 2.8 0 1.9-1.6 3.3-4 3.3-2.3 0-4-1.4-4-3.3h2.7c-.1.5.5.8 1.2.8z"/></g><g fill="#193062"><path d="M17.1 381.4h-1.9v-2.7h1.9v-1.9c0-1.8 1.2-3 3.1-3h2.1v2.7h-1.6c-.5 0-.8.3-.8.8v1.5h2.4v2.7h-2.4v6.9h-2.8v-7zM32.7 378.7v9.5H30v-.5c-.6.5-1.4.7-2.3.7-2.1 0-3.7-1.6-3.7-3.8v-6h2.8v5.4c0 .9.6 1.6 1.6 1.6s1.6-.7 1.6-1.6v-5.4h2.7zM38.4 378.7h2.9v2.7h-2.9v3.2c0 .6.4 1 1 1h1.9v2.7h-2.5c-1.9 0-3.3-1.2-3.3-3.2v-3.7h-1.4V380l2.6-3.2h1.5v1.9zM51.9 378.7v9.5h-2.7v-.5c-.6.5-1.4.7-2.3.7-2.1 0-3.7-1.6-3.7-3.8v-6H46v5.4c0 .9.6 1.6 1.6 1.6s1.6-.7 1.6-1.6v-5.4h2.7zM60.4 378.7v2.8H59c-1.1 0-1.8.8-1.8 1.9v4.9h-2.8v-9.5h2.7v.9c.5-.7 1.4-.9 2.2-.9h1.1zM70.8 384.5h-6.6c.3.8 1.1 1.4 2.2 1.4.9 0 1.6-.5 2-1.1l2.2 1.3c-.8 1.4-2.4 2.3-4.3 2.3-2.9 0-5-2.2-5-5s2-5 4.8-5 4.8 2.1 4.8 5c0 .4 0 .8-.1 1.1zm-6.7-2h4c-.3-.9-1-1.4-2-1.4s-1.7.5-2 1.4zM82.5 378.5c1.8 0 3.3.9 4.1 2.2l-2.2 1.6c-.4-.6-1-1.1-1.9-1.1-1.2 0-2.2 1-2.2 2.2 0 1.3.9 2.2 2.2 2.2.8 0 1.5-.4 1.9-1.1l2.3 1.6c-.8 1.4-2.3 2.2-4.1 2.2-2.9 0-4.9-2.2-4.9-5-.1-2.6 2-4.8 4.8-4.8zM92.5 378.5c2.9 0 5 2.2 5 5 0 2.7-2.1 5-5 5s-5-2.2-5-5 2.1-5 5-5zm0 7.2c1.3 0 2.2-1 2.2-2.2 0-1.3-.9-2.2-2.2-2.2s-2.2 1-2.2 2.2c0 1.2.9 2.2 2.2 2.2zM108 378.7v9.5h-2.7v-.5c-.6.5-1.4.7-2.3.7-2.1 0-3.7-1.6-3.7-3.8v-6h2.8v5.4c0 .9.6 1.6 1.6 1.6s1.6-.7 1.6-1.6v-5.4h2.7zM110.5 373.8h2.8v14.4h-2.8v-14.4zM125 373.8v14.4h-2.7v-.6c-.6.5-1.5.8-2.4.8-2.8 0-4.7-2.2-4.7-5s1.9-5 4.7-5c.9 0 1.7.3 2.4.7v-5.4h2.7zm-2.7 9.7c0-1.3-.9-2.3-2.2-2.3-1.2 0-2.2 1-2.2 2.3 0 1.2.9 2.2 2.2 2.2 1.3 0 2.2-1 2.2-2.2z"/></g><g fill="#193062"><path d="M19.6 411.9c.8 0 1.2-.3 1.2-.7 0-.3-.2-.5-.7-.5s-1-.1-1.7-.2c-1.9-.3-2.7-1.4-2.7-2.8 0-1.9 1.6-3.2 3.9-3.2 2.2 0 3.8 1.3 3.9 3.2h-2.7c0-.4-.5-.7-1.2-.7s-1.1.3-1.1.6.2.4.7.5c.6.1 1 .1 1.8.2 1.9.2 2.7 1.4 2.7 2.8 0 1.9-1.6 3.3-4 3.3-2.3 0-4-1.4-4-3.3h2.7c-.1.5.4.8 1.2.8zM28.5 404.7h2.9v2.7h-2.9v3.2c0 .6.4 1 1 1h1.9v2.7h-2.5c-1.9 0-3.3-1.2-3.3-3.2v-3.7h-1.4V406l2.6-3.2h1.5v1.9zM41.2 408.3v6h-2.7v-.5c-.6.5-1.3.7-2.3.7-2 0-3.3-1.2-3.3-3 0-2 1.5-2.8 3.3-3l2.3-.2v-.1c0-.6-.6-1.1-1.4-1.1-.7 0-1.2.4-1.4.9H33c.1-2 1.8-3.4 4-3.4 2.5-.1 4.2 1.5 4.2 3.7zm-2.8 2.6v-.6l-1.9.2c-.7.1-1 .4-1 .9s.4.9 1.2.9c1.1-.1 1.7-.6 1.7-1.4zM49.7 404.7v2.8h-1.4c-1.1 0-1.8.8-1.8 1.9v4.9h-2.8v-9.5h2.7v.9c.5-.7 1.4-.9 2.2-.9h1.1zM54.6 404.7h2.9v2.7h-2.9v3.2c0 .6.4 1 1 1h1.9v2.7H55c-1.9 0-3.3-1.2-3.3-3.2v-3.7h-1.4V406l2.6-3.2h1.5v1.9zM78.3 404.7l-3.1 9.5h-2.9l-1.2-4-1.2 4H67l-3.2-9.5h3l1.7 5.4 1.7-5.4H72l1.6 5.2 1.7-5.2h3zM81.1 400c1 0 1.7.8 1.7 1.7 0 1-.7 1.7-1.7 1.7s-1.7-.8-1.7-1.7c-.1-.9.7-1.7 1.7-1.7zm1.4 14.2h-2.8v-9.5h2.8v9.5zM88.1 404.7H91v2.7h-2.9v3.2c0 .6.4 1 1 1H91v2.7h-2.5c-1.9 0-3.3-1.2-3.3-3.2v-3.7h-1.4V406l2.6-3.2h1.5v1.9zM101.7 408.3v5.9h-2.8v-5.4c0-.9-.6-1.6-1.6-1.6s-1.6.7-1.6 1.6v5.4h-2.8v-14.4h2.8v5.4c.6-.5 1.4-.7 2.3-.7 2.2 0 3.7 1.6 3.7 3.8z"/></g><g fill="#193062"><path d="M19.3 429.3h-3.9v-2.9h10.8v2.9h-3.9v10.9h-2.9v-10.9zM32.3 430.7v2.8h-1.4c-1.1 0-1.8.8-1.8 1.9v4.9h-2.8v-9.5H29v.9c.5-.7 1.4-.9 2.2-.9h1.1zM42.6 430.7v9.5h-2.7v-.5c-.6.5-1.4.7-2.3.7-2.1 0-3.7-1.6-3.7-3.8v-6h2.8v5.4c0 .9.6 1.6 1.6 1.6s1.6-.7 1.6-1.6v-5.4h2.7zM49.7 429c-1.2 0-2 .6-2 1.5 0 .5.3.9.9 1.1.9.3 2.2.2 3.5.5 1.8.5 2.9 1.9 2.9 3.8 0 2.6-2 4.6-5.1 4.6-3 0-5.2-1.8-5.2-4.5h2.9c0 1 1 1.7 2.3 1.7 1.4 0 2.2-.7 2.2-1.6 0-.6-.4-1-.9-1.2-.9-.3-2.3-.2-3.5-.5-1.8-.5-2.8-1.9-2.8-3.7 0-2.6 2-4.4 5-4.4 2.9 0 5 1.7 5 4.3H52c-.2-1-1.1-1.6-2.3-1.6zM60.1 430.7H63v2.7h-2.9v3.2c0 .6.4 1 1 1H63v2.7h-2.5c-1.9 0-3.3-1.2-3.3-3.2v-3.7h-1.4V432l2.6-3.2h1.5v1.9zM72.8 434.2v6H70v-.5c-.6.5-1.3.7-2.3.7-2 0-3.3-1.2-3.3-3 0-2 1.5-2.8 3.3-3l2.3-.2v-.1c0-.6-.6-1.1-1.4-1.1-.7 0-1.2.4-1.4.9h-2.7c.1-2 1.8-3.4 4-3.4 2.6 0 4.3 1.6 4.3 3.7zm-2.8 2.7v-.6l-1.9.2c-.7.1-1 .4-1 .9s.4.9 1.2.9c1.1-.1 1.7-.6 1.7-1.4zM84.1 430.7v9.2c0 2.6-1.9 4.5-4.7 4.5-2.2 0-3.9-1.2-4.4-3l2.6-1c.3.8.9 1.3 1.9 1.3 1.2 0 1.9-.7 1.9-1.9v-.7c-.6.5-1.4.7-2.3.7-2.6 0-4.5-2.1-4.5-4.7s1.9-4.7 4.4-4.7c.9 0 1.7.3 2.3.8v-.6h2.8zm-2.7 4.5c0-1.1-.9-2-2-2-1.2 0-2 .9-2 2s.9 2 2 2 2-.9 2-2zM95.4 436.5h-6.6c.3.8 1.1 1.4 2.2 1.4.9 0 1.6-.5 2-1.1l2.2 1.3c-.8 1.4-2.4 2.3-4.3 2.3-2.9 0-5-2.2-5-5s2-5 4.8-5 4.8 2.1 4.8 5c0 .4 0 .7-.1 1.1zm-6.7-2.1h4c-.3-.9-1-1.4-2-1.4s-1.7.5-2 1.4zM98.3 428h-1.5v-1.5h4.6v1.5h-1.5v3.9h-1.6V428zm3.9-1.6h1.6l1.2 2.5 1.2-2.5h1.6v5.4h-1.6v-2.5l-1.2 2.6-1.2-2.5v2.4h-1.5v-5.4z"/></g><g fill="#193062"><path d="M16.4 452.4h2.9v10.9h7.9v2.9H16.4v-13.8zM30.4 452c1 0 1.7.8 1.7 1.7 0 1-.7 1.7-1.7 1.7s-1.7-.8-1.7-1.7c0-1 .7-1.7 1.7-1.7zm1.4 14.2H29v-9.5h2.8v9.5zM35.2 459.3h-1.9v-2.7h1.9v-1.9c0-1.8 1.2-3 3.1-3h2.1v2.7h-1.6c-.5 0-.8.3-.8.8v1.5h2.4v2.7H38v6.9h-2.8v-7zM50.7 462.4h-6.6c.3.8 1.1 1.4 2.2 1.4.9 0 1.6-.5 2-1.1l2.2 1.3c-.8 1.4-2.4 2.3-4.3 2.3-2.9 0-5-2.2-5-5s2-5 4.8-5 4.8 2.1 4.8 5c0 .5 0 .8-.1 1.1zm-6.7-2h4c-.3-.9-1-1.4-2-1.4s-1.7.5-2 1.4zM58.3 452.4h2.9v13.8h-2.9v-13.8zM72.8 460.2v6H70v-5.4c0-.9-.6-1.6-1.6-1.6s-1.6.7-1.6 1.6v5.4H64v-9.5h2.7v.5c.6-.5 1.4-.8 2.3-.8 2.2.1 3.8 1.7 3.8 3.8zM78.6 463.9c.8 0 1.2-.3 1.2-.7 0-.3-.2-.5-.7-.5s-1-.1-1.7-.2c-1.9-.3-2.7-1.4-2.7-2.8 0-1.9 1.6-3.2 3.9-3.2 2.2 0 3.8 1.3 3.9 3.2h-2.7c0-.4-.5-.7-1.2-.7s-1.1.3-1.1.6.2.4.7.5c.6.1 1 .1 1.8.2 1.9.2 2.7 1.4 2.7 2.8 0 1.9-1.6 3.3-4 3.3-2.3 0-4-1.4-4-3.3h2.7c-.1.5.4.8 1.2.8zM93.1 456.7v9.5h-2.7v-.5c-.6.5-1.4.7-2.3.7-2.1 0-3.7-1.6-3.7-3.8v-6h2.8v5.4c0 .9.6 1.6 1.6 1.6s1.6-.7 1.6-1.6v-5.4h2.7zM101.6 456.7v2.8h-1.4c-1.1 0-1.8.8-1.8 1.9v4.9h-2.8v-9.5h2.7v.9c.5-.7 1.4-.9 2.2-.9h1.1zM110.9 460.2v6h-2.7v-.5c-.6.5-1.3.7-2.3.7-2 0-3.3-1.2-3.3-3 0-2 1.5-2.8 3.3-3l2.3-.2v-.1c0-.6-.6-1.1-1.4-1.1-.7 0-1.2.4-1.4.9h-2.7c.1-2 1.8-3.4 4-3.4 2.5 0 4.2 1.6 4.2 3.7zm-2.8 2.7v-.6l-1.9.2c-.7.1-1 .4-1 .9s.4.9 1.2.9c1.1-.1 1.7-.6 1.7-1.4zM122.1 460.2v6h-2.8v-5.4c0-.9-.6-1.6-1.6-1.6s-1.6.7-1.6 1.6v5.4h-2.8v-9.5h2.7v.5c.6-.5 1.4-.8 2.3-.8 2.2.1 3.8 1.7 3.8 3.8zM128.8 456.5c1.8 0 3.3.9 4.1 2.2l-2.2 1.6c-.4-.6-1-1.1-1.9-1.1-1.2 0-2.2 1-2.2 2.2 0 1.3.9 2.2 2.2 2.2.8 0 1.5-.4 1.9-1.1l2.3 1.6c-.8 1.4-2.3 2.2-4.1 2.2-2.9 0-4.9-2.2-4.9-5-.1-2.7 2-4.8 4.8-4.8zM143.3 462.4h-6.6c.3.8 1.1 1.4 2.2 1.4.9 0 1.6-.5 2-1.1l2.2 1.3c-.8 1.4-2.4 2.3-4.3 2.3-2.9 0-5-2.2-5-5s2-5 4.8-5 4.8 2.1 4.8 5c0 .5-.1.8-.1 1.1zm-6.7-2h4c-.3-.9-1-1.4-2-1.4s-1.8.5-2 1.4zM146.6 462.8c1 0 1.7.8 1.7 1.7 0 1-.7 1.7-1.7 1.7s-1.7-.8-1.7-1.7c0-.9.7-1.7 1.7-1.7z"/></g></svg>