<svg baseProfile="tiny" xmlns="http://www.w3.org/2000/svg" viewBox="0 0 300 600" overflow="visible"><g fill="#231F20"><path d="M16.1 510.5c0 .6-.2 1.1-.4 1.6-.3.5-.6.9-1.1 1.1-.5.3-1 .4-1.6.4-.6 0-1.2-.1-1.7-.4-.5-.3-.9-.7-1.2-1.2-.3-.5-.4-1.1-.4-1.7 0-.6.1-1.2.4-1.7.3-.5.7-.9 1.2-1.2.5-.3 1.1-.4 1.7-.4.6 0 1.2.1 1.7.4.5.3.9.7 1.2 1.2l-.6.4c-.2-.4-.5-.7-.9-.9-.4-.2-.8-.3-1.3-.3s-1 .1-1.4.3c-.4.2-.7.6-.9 1-.2.4-.3.9-.3 1.4 0 .5.1 1 .3 1.4s.5.7.9 1 .9.3 1.4.3c.4 0 .8-.1 1.1-.2.3-.2.6-.4.8-.6.2-.3.4-.6.5-1h-2.8v-.6h3.4zM17.2 507h4.9v.7h-4.2v2.3h2.4v.7h-2.4v2.3h4.2v.7h-4.9V507zM28.4 507v6.6h-.7l-3.6-5.4v5.4h-.7V507h.7l3.6 5.4V507h.7zM31.7 510.7v.6h-2.1v-.6h2.1zM37.1 511.6c0 .4-.1.8-.3 1.1-.2.3-.4.6-.8.8-.3.2-.7.3-1.1.3-.4 0-.8-.1-1.1-.3-.3-.2-.6-.4-.8-.7s-.3-.7-.3-1.1h.7c0 .3.1.5.2.7.1.2.3.4.5.5.2.1.5.2.8.2.3 0 .5-.1.8-.2.2-.1.4-.3.5-.5.1-.2.2-.5.2-.7s-.1-.5-.2-.7-.3-.4-.5-.5c-.2-.1-.5-.2-.8-.2h-1.8l.4-3.2h3.3v.7h-2.7l-.2 1.8H35c.4 0 .8.1 1.1.3.3.2.6.4.7.7.2.2.3.6.3 1zM42.7 511.5c0 .4-.1.8-.3 1.1s-.4.6-.8.8-.7.3-1.1.3c-.4 0-.8-.1-1.1-.3s-.6-.4-.8-.8c-.2-.3-.3-.7-.3-1.1 0-.3 0-.5.1-.8.1-.3.2-.5.3-.7l2-3.1h.8l-1.7 2.5c.2 0 .4-.1.6-.1.4 0 .8.1 1.1.3.3.2.6.4.8.7.3.5.4.8.4 1.2zm-.6 0c0-.3-.1-.5-.2-.8-.1-.2-.3-.4-.5-.5-.2-.1-.5-.2-.8-.2-.3 0-.5.1-.8.2-.2.1-.4.3-.5.5-.1.2-.2.5-.2.8 0 .3.1.5.2.8.1.2.3.4.5.5.2.1.5.2.8.2s.5-.1.8-.2c.2-.1.4-.3.5-.5.1-.2.2-.5.2-.8zM45.3 507.7l-1.8 1.1v-.7l1.8-1.1h.7v6.6h-.7v-5.9zM52.4 510.8v.7h-1.3v2.1h-.7v-2.1h-3v-.6l2.9-4h.7v3.8h1.4zm-1.9 0V508l-2.1 2.9h2.1zM57.2 511.7c0 .4-.1.7-.3 1-.2.3-.4.5-.7.7-.3.2-.6.2-1 .2s-.7-.1-1-.2c-.3-.2-.5-.4-.7-.7-.2-.3-.3-.6-.3-1h.7c0 .2.1.4.2.6.1.2.3.3.5.4.2.1.4.2.7.2.3 0 .5-.1.7-.2s.4-.3.5-.4.2-.4.2-.6c0-.2-.1-.5-.2-.6-.1-.2-.3-.3-.5-.4-.2-.1-.4-.2-.7-.2h-.7v-.7h.7c.2 0 .4 0 .6-.1.2-.1.3-.2.4-.4s.2-.4.2-.6c0-.2-.1-.4-.2-.6-.1-.2-.2-.3-.4-.4-.2-.1-.4-.1-.6-.1-.2 0-.4 0-.6.1s-.3.2-.4.4c-.1.2-.2.4-.2.6h-.7c0-.3.1-.6.2-.9.2-.3.4-.5.7-.6.3-.2.6-.2 1-.2s.7.1 1 .2c.3.2.5.4.7.6.2.3.2.6.2.9 0 .3-.1.6-.2.9-.1.3-.3.5-.6.6.3.2.5.4.7.7.1.2.1.5.1.8zM58.7 508.7c0-.3.1-.6.3-.9.2-.3.4-.5.7-.7s.6-.2 1-.2.7.1 1 .2.5.4.7.7.3.6.3.9c0 .4.1 1 .1 1.6 0 .6 0 1.1-.1 1.6 0 .3-.1.6-.3.9-.2.3-.4.5-.7.7s-.6.2-1 .2-.7-.1-1-.2-.5-.4-.7-.7c-.2-.3-.3-.6-.3-.9 0-.4-.1-1-.1-1.6.1-.7.1-1.2.1-1.6zm.7 3.1c0 .2.1.4.2.6s.3.3.5.4c.2.1.4.2.6.2s.5-.1.6-.2c.2-.1.3-.2.5-.4s.2-.4.2-.6v-.6-1-1-.6c0-.2-.1-.4-.2-.6s-.3-.3-.5-.4c-.2-.1-.4-.2-.6-.2s-.5.1-.6.2c-.2.1-.3.2-.5.4s-.2.4-.2.6v3.2zM64.4 508.7c0-.3.1-.6.3-.9.2-.3.4-.5.7-.7s.6-.2 1-.2.7.1 1 .2.5.4.7.7.3.6.3.9c0 .4.1 1 .1 1.6 0 .6 0 1.1-.1 1.6 0 .3-.1.6-.3.9-.2.3-.4.5-.7.7s-.6.2-1 .2-.7-.1-1-.2-.5-.4-.7-.7c-.2-.3-.3-.6-.3-.9 0-.4-.1-1-.1-1.6 0-.7.1-1.2.1-1.6zm.7 3.1c0 .2.1.4.2.6s.3.3.5.4c.2.1.4.2.6.2s.5-.1.6-.2c.2-.1.3-.2.5-.4s.2-.4.2-.6v-.6-1-1-.6c0-.2-.1-.4-.2-.6s-.3-.3-.5-.4c-.2-.1-.4-.2-.6-.2s-.5.1-.6.2c-.2.1-.3.2-.5.4s-.2.4-.2.6v2.6c0 .3-.1.4 0 .6zM70.3 512.6c.2 0 .3 0 .4.1s.1.2.1.4 0 .3-.1.4c-.1.1-.2.1-.4.1s-.3 0-.4-.1c-.1-.1-.1-.2-.1-.4s0-.3.1-.4c.2-.1.3-.1.4-.1zM73.7 507.7l-1.8 1.1v-.7l1.8-1.1h.7v6.6h-.7v-5.9z"/></g></svg>