<svg baseProfile="tiny" xmlns="http://www.w3.org/2000/svg" viewBox="0 0 300 600" overflow="visible"><g fill="#454547"><path d="M18.7 408.5h6.5v1.3h-5v4h4.6v1.3h-4.6v5.5h-1.6v-12.1zM28.7 409.5c0 .5-.4 1-1 1s-1-.4-1-1 .4-1 1-1 1 .5 1 1zm-1.8 11.2V412h1.6v8.7h-1.6zM31.2 414.3c0-.9 0-1.6-.1-2.4h1.4l.1 1.4c.4-.8 1.4-1.6 2.9-1.6 1.2 0 3.1.7 3.1 3.7v5.2H37v-5c0-1.4-.5-2.6-2-2.6-1 0-1.9.7-2.1 1.6-.1.2-.1.5-.1.7v5.2h-1.6v-6.2zM42.9 409.5c0 .5-.4 1-1 1s-1-.4-1-1 .4-1 1-1 1 .5 1 1zm-1.7 11.2V412h1.6v8.7h-1.6zM45.1 419.1c.5.3 1.3.6 2.1.6 1.2 0 1.7-.6 1.7-1.3 0-.8-.5-1.2-1.6-1.6-1.6-.6-2.3-1.4-2.3-2.5 0-1.4 1.1-2.6 3-2.6.9 0 1.7.3 2.1.5l-.4 1.2c-.3-.2-1-.5-1.8-.5-.9 0-1.5.5-1.5 1.2s.5 1 1.7 1.5c1.5.6 2.3 1.3 2.3 2.6 0 1.5-1.2 2.6-3.3 2.6-1 0-1.8-.2-2.4-.6l.4-1.1zM52.5 407.9h1.6v5.4c.3-.4.6-.8 1.1-1.1.5-.3 1-.5 1.6-.5 1.2 0 3 .7 3 3.7v5.2h-1.6v-5c0-1.4-.5-2.6-2-2.6-1 0-1.8.7-2.1 1.6-.1.2-.1.5-.1.8v5.3h-1.6v-12.8zM66.9 412l1.9 5.1c.2.6.4 1.3.6 1.8.2-.5.3-1.2.6-1.8l1.7-5.1h1.7l-2.4 6.2c-1.1 3-1.9 4.5-3 5.5-.8.7-1.5 1-1.9 1l-.4-1.3c.4-.1.9-.4 1.4-.8.4-.3 1-1 1.3-1.8.1-.2.1-.3.1-.4 0-.1 0-.2-.1-.4l-3.2-8h1.7zM82.5 416.2c0 3.2-2.2 4.6-4.3 4.6-2.4 0-4.2-1.7-4.2-4.5 0-2.9 1.9-4.6 4.3-4.6 2.5.1 4.2 1.9 4.2 4.5zm-6.9.1c0 1.9 1.1 3.3 2.6 3.3s2.6-1.4 2.6-3.4c0-1.5-.7-3.3-2.6-3.3-1.8.1-2.6 1.8-2.6 3.4zM91.8 418.3c0 .9 0 1.7.1 2.4h-1.4l-.1-1.4c-.4.7-1.3 1.6-2.9 1.6-1.4 0-3-.8-3-3.8V412H86v4.8c0 1.7.5 2.8 1.9 2.8 1.1 0 1.8-.7 2.1-1.4.1-.2.1-.5.1-.8V412h1.6v6.3zM94.4 414.7c0-1 0-1.9-.1-2.7h1.4l.1 1.7h.1c.4-1.2 1.4-1.9 2.4-1.9.2 0 .3 0 .5.1v1.5c-.2 0-.3-.1-.5-.1-1.1 0-1.9.8-2.1 2 0 .2-.1.5-.1.7v4.6h-1.6v-5.9zM104.1 414.3c0-.9 0-1.6-.1-2.4h1.4l.1 1.4c.4-.8 1.4-1.6 2.9-1.6 1.2 0 3.1.7 3.1 3.7v5.2h-1.6v-5c0-1.4-.5-2.6-2-2.6-1 0-1.9.7-2.1 1.6-.1.2-.1.5-.1.7v5.2h-1.6v-6.2zM122 416.2c0 3.2-2.2 4.6-4.3 4.6-2.4 0-4.2-1.7-4.2-4.5 0-2.9 1.9-4.6 4.3-4.6 2.5.1 4.2 1.9 4.2 4.5zm-6.9.1c0 1.9 1.1 3.3 2.6 3.3s2.6-1.4 2.6-3.4c0-1.5-.7-3.3-2.6-3.3-1.8.1-2.6 1.8-2.6 3.4zM127.9 415.2v1.2h-4.4v-1.2h4.4zM136.3 420.4c-.4.2-1.3.5-2.5.5-2.6 0-4.3-1.8-4.3-4.4 0-2.7 1.8-4.6 4.7-4.6.9 0 1.8.2 2.2.5l-.4 1.2c-.4-.2-1-.4-1.8-.4-2 0-3.1 1.5-3.1 3.3 0 2 1.3 3.3 3 3.3.9 0 1.5-.2 1.9-.4l.3 1zM145.9 416.2c0 3.2-2.2 4.6-4.3 4.6-2.4 0-4.2-1.7-4.2-4.5 0-2.9 1.9-4.6 4.3-4.6 2.5.1 4.2 1.9 4.2 4.5zm-6.9.1c0 1.9 1.1 3.3 2.6 3.3s2.6-1.4 2.6-3.4c0-1.5-.7-3.3-2.6-3.3-1.8.1-2.6 1.8-2.6 3.4zM147.7 419.1c.5.3 1.3.6 2.1.6 1.2 0 1.7-.6 1.7-1.3 0-.8-.5-1.2-1.6-1.6-1.6-.6-2.3-1.4-2.3-2.5 0-1.4 1.1-2.6 3-2.6.9 0 1.7.3 2.1.5l-.4 1.2c-.3-.2-1-.5-1.8-.5-.9 0-1.5.5-1.5 1.2s.5 1 1.7 1.5c1.5.6 2.3 1.3 2.3 2.6 0 1.5-1.2 2.6-3.3 2.6-1 0-1.8-.2-2.4-.6l.4-1.1zM157 409.5v2.5h2.3v1.2H157v4.7c0 1.1.3 1.7 1.2 1.7.4 0 .7-.1.9-.1l.1 1.2c-.3.1-.8.2-1.4.2-.7 0-1.3-.2-1.7-.7-.5-.5-.6-1.2-.6-2.3v-4.8h-1.4V412h1.4v-2.1l1.5-.4zM170.8 419.3c-.5.9-1.5 1.5-2.9 1.5-2 0-3.7-1.8-3.7-4.4 0-3.3 2.1-4.7 3.9-4.7 1.4 0 2.3.7 2.7 1.5l.1-1.3h1.5c0 .7-.1 1.5-.1 2.4v9.9h-1.6v-4.9zm0-3.8c0-.2 0-.5-.1-.7-.2-1-1.1-1.8-2.3-1.8-1.6 0-2.6 1.4-2.6 3.3 0 1.7.8 3.2 2.6 3.2 1 0 1.9-.6 2.3-1.7.1-.2.1-.5.1-.8v-1.5zM182.3 418.3c0 .9 0 1.7.1 2.4H181l-.1-1.4c-.4.7-1.3 1.6-2.9 1.6-1.4 0-3-.8-3-3.8V412h1.6v4.8c0 1.7.5 2.8 1.9 2.8 1.1 0 1.8-.7 2.1-1.4.1-.2.1-.5.1-.8V412h1.6v6.3zM192.8 416.2c0 3.2-2.2 4.6-4.3 4.6-2.4 0-4.2-1.7-4.2-4.5 0-2.9 1.9-4.6 4.3-4.6 2.5.1 4.2 1.9 4.2 4.5zm-6.9.1c0 1.9 1.1 3.3 2.6 3.3s2.6-1.4 2.6-3.4c0-1.5-.7-3.3-2.6-3.3-1.8.1-2.6 1.8-2.6 3.4zM196.7 409.5v2.5h2.3v1.2h-2.3v4.7c0 1.1.3 1.7 1.2 1.7.4 0 .7-.1.9-.1l.1 1.2c-.3.1-.8.2-1.4.2-.7 0-1.3-.2-1.7-.7-.5-.5-.6-1.2-.6-2.3v-4.8h-1.4V412h1.4v-2.1l1.5-.4zM201.5 416.6c0 2.1 1.4 3 3 3 1.1 0 1.8-.2 2.4-.5l.3 1.1c-.6.3-1.5.5-2.9.5-2.7 0-4.3-1.8-4.3-4.4 0-2.6 1.5-4.7 4.1-4.7 2.8 0 3.6 2.5 3.6 4.1 0 .3 0 .6-.1.7h-6.1zm4.7-1.1c0-1-.4-2.6-2.2-2.6-1.6 0-2.3 1.5-2.4 2.6h4.6zM209.1 419.7c0-.7.5-1.1 1.1-1.1s1.1.5 1.1 1.1c0 .6-.4 1.1-1.1 1.1-.7.1-1.1-.4-1.1-1.1z"/></g></svg>