<svg baseProfile="tiny" xmlns="http://www.w3.org/2000/svg" viewBox="0 0 300 600" overflow="visible"><g fill="#193062"><path d="M30.2 258.9h-7.6l-1 2.9h-4l6.7-20.4h4.1l6.7 20.4H31l-.8-2.9zm-1.3-3.8l-2.5-7.7-2.5 7.7h5zM52 254.8c0 1.3-.3 2.6-.9 3.7-.6 1.1-1.4 2-2.5 2.7-1.1.7-2.3 1-3.6 1-.7 0-1.4-.1-2.1-.3-.6-.2-1.2-.5-1.7-.9v6.9h-3.8v-20h3.8v1c.5-.4 1.1-.7 1.7-1 .7-.2 1.4-.3 2.1-.3 1.3 0 2.5.3 3.6 1 1.1.6 1.9 1.5 2.5 2.7.6.9.9 2.1.9 3.5zm-3.8 0c0-.7-.2-1.3-.5-1.9-.3-.6-.7-1-1.3-1.3-.5-.3-1.1-.5-1.8-.5s-1.3.2-1.9.5c-.5.3-1 .8-1.3 1.3s-.5 1.2-.5 1.9.2 1.3.5 1.8c.3.6.7 1 1.3 1.3.5.3 1.2.5 1.9.5s1.3-.2 1.8-.5 1-.8 1.3-1.3c.4-.5.5-1.1.5-1.8zM69.5 254.8c0 1.3-.3 2.6-.9 3.7-.6 1.1-1.4 2-2.5 2.7-1.1.7-2.3 1-3.6 1-.7 0-1.4-.1-2.1-.3-.6-.2-1.2-.5-1.7-.9v6.9h-3.8v-20h3.8v1c.5-.4 1.1-.7 1.7-1 .7-.2 1.4-.3 2.1-.3 1.3 0 2.5.3 3.6 1 1.1.6 1.9 1.5 2.5 2.7.6.9.9 2.1.9 3.5zm-3.8 0c0-.7-.2-1.3-.5-1.9-.3-.6-.7-1-1.3-1.3-.5-.3-1.1-.5-1.8-.5s-1.3.2-1.9.5c-.5.3-1 .8-1.3 1.3s-.5 1.2-.5 1.9.2 1.3.5 1.8c.3.6.7 1 1.3 1.3.5.3 1.2.5 1.9.5s1.3-.2 1.8-.5 1-.8 1.3-1.3c.3-.5.5-1.1.5-1.8zM72.3 240.5h3.8v21.3h-3.8v-21.3zM92.4 247.7l-7.3 20h-4l2.3-6.2-5.1-13.8h4.1l3 8.2 3-8.2h4zM96.4 240.8c.5 0 .9.1 1.2.3.4.2.7.5.9.9.2.4.3.8.3 1.2 0 .4-.1.9-.3 1.2-.2.4-.5.7-.9.9-.4.2-.8.3-1.2.3-.5 0-.9-.1-1.2-.3-.4-.2-.7-.5-.9-.9-.2-.4-.3-.8-.3-1.2 0-.4.1-.9.3-1.2.2-.4.5-.7.9-.9.3-.2.7-.3 1.2-.3zm1.9 21h-3.8v-14.1h3.8v14.1zM114.9 253v8.8h-3.8v-8.1c0-.5-.1-.9-.3-1.3-.2-.4-.5-.7-.9-1s-.9-.3-1.4-.3c-.5 0-1 .1-1.4.3s-.7.5-.9 1c-.2.4-.3.8-.3 1.3v8.1h-3.8v-14.1h3.8v.9c.5-.4 1-.7 1.6-.9.6-.2 1.2-.3 1.9-.3 1.1 0 2 .2 2.9.7.8.5 1.5 1.2 2 2 .4.9.6 1.9.6 2.9zM131.8 247.7v13.7c0 1.3-.3 2.4-.9 3.4s-1.4 1.8-2.5 2.4c-1.1.6-2.3.9-3.6.9-1.1 0-2-.2-2.9-.6-.9-.4-1.6-.9-2.3-1.6-.6-.7-1.1-1.5-1.4-2.4l3.5-1.3c.2.7.6 1.2 1.1 1.6.5.4 1.2.6 2 .6.6 0 1.2-.1 1.7-.4.5-.3.8-.6 1.1-1.1s.4-1 .4-1.6v-1.1c-.5.4-1 .7-1.6.9-.6.2-1.3.3-2 .3-1.3 0-2.4-.3-3.4-.9-1-.6-1.8-1.4-2.4-2.5-.6-1.1-.9-2.2-.9-3.5 0-1.3.3-2.5.9-3.5s1.4-1.9 2.4-2.5c1-.6 2.1-.9 3.4-.9.7 0 1.4.1 2 .3.6.2 1.2.5 1.7.9v-1h3.7zm-3.7 6.7c0-.6-.1-1.2-.4-1.7-.3-.5-.7-.9-1.2-1.2-.5-.3-1.1-.4-1.7-.4-.6 0-1.2.1-1.7.4-.5.3-.9.7-1.2 1.2s-.4 1.1-.4 1.7c0 .6.1 1.2.4 1.6.3.5.7.9 1.2 1.2s1.1.4 1.7.4c.6 0 1.2-.1 1.7-.4.5-.3.9-.7 1.2-1.2.3-.4.4-1 .4-1.6zM145.1 251.3h-2.8v-3.6h2.8v-2.9c0-.9.2-1.6.5-2.3.4-.6.9-1.1 1.5-1.5.7-.4 1.4-.5 2.3-.5h3v3.6H150c-.4 0-.7.1-.9.3-.2.2-.3.5-.3.9v2.4h3.6v3.6h-3.6v10.5H145v-10.5zM161.1 247.4c1.4 0 2.7.3 3.8 1 1.1.7 2 1.5 2.6 2.7.6 1.1 1 2.4 1 3.7 0 1.4-.3 2.6-1 3.7-.6 1.1-1.5 2-2.6 2.7-1.1.7-2.4 1-3.8 1s-2.7-.3-3.8-1c-1.1-.7-2-1.5-2.6-2.7-.6-1.1-1-2.4-1-3.7 0-1.4.3-2.6 1-3.7.6-1.1 1.5-2 2.6-2.7 1.1-.7 2.4-1 3.8-1zm0 11c.7 0 1.3-.2 1.8-.5s1-.8 1.3-1.3c.3-.6.5-1.2.5-1.8 0-.7-.2-1.3-.5-1.8-.3-.6-.7-1-1.3-1.3-.5-.3-1.1-.5-1.8-.5s-1.3.2-1.8.5-1 .8-1.3 1.3c-.3.6-.5 1.2-.5 1.8 0 .7.2 1.3.5 1.8.3.6.7 1 1.3 1.3.5.4 1.1.5 1.8.5zM180 247.7v3.7h-2c-.5 0-1 .1-1.5.4s-.8.6-1 1.1-.4 1-.4 1.5v7.4h-3.8v-14.1h3.7v1.4c.4-.5.8-.8 1.4-1.1s1.2-.3 1.9-.3h1.7z"/></g><g fill="#193062"><path d="M19.5 276.4h4v16.5h11.9v3.9H19.5v-20.4zM40.1 275.8c.5 0 .9.1 1.2.3.4.2.7.5.9.9.2.4.3.8.3 1.2 0 .4-.1.9-.3 1.2-.2.4-.5.7-.9.9-.4.2-.8.3-1.2.3-.5 0-.9-.1-1.2-.3-.4-.2-.7-.5-.9-.9-.2-.4-.3-.8-.3-1.2 0-.4.1-.9.3-1.2.2-.4.5-.7.9-.9.3-.2.7-.3 1.2-.3zm1.9 21h-3.8v-14.1H42v14.1zM47.1 286.3h-2.8v-3.6h2.8v-2.9c0-.9.2-1.6.5-2.3.4-.6.9-1.1 1.5-1.5.7-.4 1.4-.5 2.3-.5h3v3.6H52c-.4 0-.7.1-.9.3-.2.2-.3.5-.3.9v2.4h3.6v3.6h-3.6v10.5H47v-10.5zM69.7 291.2H59.6c.2.7.7 1.3 1.3 1.7.6.4 1.3.6 2.2.6.7 0 1.3-.2 1.8-.5s1-.7 1.3-1.3l3.1 1.9c-.6 1.1-1.5 1.9-2.6 2.5s-2.3.9-3.7.9c-1.4 0-2.6-.3-3.8-1-1.1-.6-2-1.5-2.6-2.6-.6-1.1-.9-2.4-.9-3.7 0-1.4.3-2.6.9-3.8.6-1.1 1.4-2 2.5-2.7 1.1-.6 2.3-1 3.7-1s2.6.3 3.7 1c1.1.6 1.9 1.5 2.5 2.6.6 1.1.9 2.4.9 3.8 0 .6-.1 1.1-.2 1.6zm-10.1-2.9h6.5c-.2-.8-.6-1.3-1.1-1.8-.6-.4-1.3-.6-2.1-.6-.9 0-1.6.2-2.1.6s-1 1.1-1.2 1.8zM81.1 276.4h4v20.4h-4v-20.4zM102 288v8.8h-3.8v-8.1c0-.5-.1-.9-.3-1.3-.2-.4-.5-.7-.9-1s-.9-.3-1.4-.3c-.5 0-1 .1-1.4.3s-.7.5-.9 1c-.2.4-.3.8-.3 1.3v8.1h-3.8v-14.1H93v.9c.5-.4 1-.7 1.6-.9.6-.2 1.2-.3 1.9-.3 1.1 0 2 .2 2.9.7.8.5 1.5 1.2 2 2 .4.9.6 1.9.6 2.9zM110.6 293.7c.6 0 1.1-.1 1.4-.3.4-.2.5-.5.5-.9 0-.2-.1-.4-.3-.6-.2-.2-.5-.3-.8-.3-.4-.1-.7-.1-1-.1-.6-.1-1.2-.1-1.7-.2-1.3-.2-2.3-.7-2.9-1.4-.6-.7-1-1.6-1-2.7 0-.9.2-1.7.7-2.4.5-.7 1.1-1.3 2-1.7.8-.4 1.8-.6 2.9-.6 1.1 0 2 .2 2.9.6.8.4 1.5 1 2 1.7s.7 1.5.7 2.4h-3.7c0-.4-.2-.7-.5-.9-.3-.2-.8-.3-1.4-.3-.6 0-1 .1-1.4.3-.3.2-.5.5-.5.8 0 .4.3.7 1 .8.2 0 .6.1 1.3.1.7.1 1.2.1 1.5.2 1.3.2 2.2.6 2.9 1.4.7.7 1 1.7 1 2.7 0 .9-.2 1.8-.7 2.5-.5.7-1.2 1.3-2 1.7-.9.4-1.9.6-3 .6s-2.1-.2-3-.6-1.6-1-2.1-1.7-.7-1.6-.7-2.5h3.7c0 .4.2.7.6 1 .5.2 1 .4 1.6.4zM131.9 282.7v14.1h-3.7v-.8c-.5.4-1 .7-1.6.9-.6.2-1.2.3-1.9.3-1 0-2-.2-2.8-.7s-1.5-1.2-2-2c-.5-.9-.7-1.8-.7-2.8v-8.8h3.8v8.1c0 .5.1.9.3 1.3.2.4.5.7.9.9.4.2.8.3 1.4.3.5 0 1-.1 1.4-.3s.7-.5.9-.9.3-.8.3-1.3v-8.1h3.7zM144.4 282.7v3.7h-2.1c-.5 0-1 .1-1.5.4s-.8.6-1 1.1c-.2.5-.4 1-.4 1.5v7.4h-3.8v-14.1h3.7v1.4c.4-.5.8-.8 1.4-1.1s1.2-.3 1.9-.3h1.8zM157.8 287.9v8.9h-3.7v-.8c-.4.4-1 .7-1.5.9s-1.2.3-2 .3c-1 0-1.8-.2-2.5-.6-.7-.4-1.3-.9-1.7-1.6s-.6-1.4-.6-2.3c0-1.4.4-2.4 1.3-3.1.9-.7 2.1-1.1 3.6-1.3l3.6-.3v-.2c0-.3-.1-.7-.3-.9-.2-.3-.5-.5-.8-.7s-.7-.2-1.1-.2c-.6 0-1.1.1-1.5.4-.4.3-.7.6-.8 1.1H146c.1-.9.4-1.8.9-2.6s1.2-1.4 2.1-1.8c.9-.4 1.8-.6 2.9-.6 1.2 0 2.2.2 3.1.7.9.5 1.6 1.1 2.1 2s.7 1.7.7 2.7zm-3.7 4v-1l-2.9.2c-.6.1-1 .2-1.3.5-.3.3-.4.6-.4 1s.2.8.5 1c.4.3.8.4 1.5.4.8 0 1.5-.2 2-.6.3-.3.6-.9.6-1.5zM174.4 288v8.8h-3.8v-8.1c0-.5-.1-.9-.3-1.3-.2-.4-.5-.7-.9-1s-.9-.3-1.4-.3c-.5 0-1 .1-1.4.3s-.7.5-.9 1c-.2.4-.3.8-.3 1.3v8.1h-3.8v-14.1h3.8v.9c.5-.4 1-.7 1.6-.9s1.2-.3 1.9-.3c1.1 0 2 .2 2.9.7.8.5 1.5 1.2 2 2 .3.9.6 1.9.6 2.9zM184.5 282.4c1.3 0 2.5.3 3.5.9s1.9 1.4 2.5 2.4l-3.1 2.2c-.3-.5-.8-.9-1.3-1.2-.5-.3-1.1-.4-1.7-.4-.7 0-1.3.2-1.8.5s-1 .8-1.3 1.3c-.3.6-.5 1.2-.5 1.9s.2 1.3.5 1.9c.3.6.7 1 1.3 1.3.5.3 1.1.5 1.8.5.6 0 1.2-.2 1.7-.5s.9-.7 1.3-1.2l3.1 2.2c-.6 1-1.5 1.8-2.5 2.4s-2.2.9-3.5.9c-1.4 0-2.6-.3-3.7-1-1.1-.6-2-1.5-2.6-2.7-.6-1.1-.9-2.4-.9-3.7s.3-2.6.9-3.7c.6-1.1 1.5-2 2.6-2.7 1-1 2.3-1.3 3.7-1.3zM206 291.2h-10.1c.2.7.7 1.3 1.3 1.7s1.3.6 2.2.6c.7 0 1.3-.2 1.8-.5s1-.7 1.3-1.3l3.1 1.9c-.6 1.1-1.5 1.9-2.6 2.5s-2.3.9-3.7.9c-1.4 0-2.6-.3-3.8-1s-2-1.5-2.6-2.6-.9-2.4-.9-3.7c0-1.4.3-2.6.9-3.8.6-1.1 1.4-2 2.5-2.7 1.1-.6 2.3-1 3.7-1s2.6.3 3.7 1c1.1.6 1.9 1.5 2.5 2.6.6 1.1.9 2.4.9 3.8-.1.6-.1 1.1-.2 1.6zm-10.2-2.9h6.5c-.2-.8-.6-1.3-1.1-1.8-.6-.4-1.3-.6-2.1-.6-.9 0-1.6.2-2.1.6s-1 1.1-1.2 1.8z"/></g><g fill="#193062"><path d="M32.9 310.5v21.3h-3.8v-1c-.5.4-1.1.7-1.7 1-.7.2-1.4.3-2.1.3-1.3 0-2.5-.3-3.6-1s-1.9-1.5-2.5-2.7c-.6-1.1-.9-2.4-.9-3.7 0-1.4.3-2.6.9-3.8.6-1.1 1.4-2 2.5-2.7 1.1-.6 2.3-1 3.6-1 .7 0 1.4.1 2.1.3.7.2 1.2.5 1.7.9v-8.1h3.8zm-3.7 14.3c0-.7-.2-1.3-.5-1.9s-.7-1-1.3-1.3c-.5-.3-1.2-.5-1.9-.5s-1.3.2-1.8.5-1 .8-1.3 1.3-.5 1.2-.5 1.9.2 1.3.5 1.8.7 1 1.3 1.3 1.1.5 1.8.5 1.3-.2 1.9-.5 1-.8 1.3-1.3.5-1.1.5-1.8zM43.1 317.4c1.4 0 2.7.3 3.8 1s2 1.5 2.6 2.7c.6 1.1 1 2.4 1 3.7s-.3 2.6-1 3.7c-.6 1.1-1.5 2-2.6 2.7s-2.4 1-3.8 1-2.7-.3-3.8-1c-1.1-.7-2-1.5-2.6-2.7-.6-1.1-1-2.4-1-3.7s.3-2.6 1-3.7c.6-1.1 1.5-2 2.6-2.7 1.1-.7 2.4-1 3.8-1zm0 11c.7 0 1.3-.2 1.8-.5s1-.8 1.3-1.3c.3-.6.5-1.2.5-1.8s-.2-1.3-.5-1.8c-.3-.6-.7-1-1.3-1.3-.5-.3-1.1-.5-1.8-.5s-1.3.2-1.8.5-1 .8-1.3 1.3c-.3.6-.5 1.2-.5 1.8s.2 1.3.5 1.8c.3.6.7 1 1.3 1.3.5.4 1.1.5 1.8.5zM66.4 326.2H56.3c.2.7.7 1.3 1.3 1.7.6.4 1.3.6 2.2.6.7 0 1.3-.2 1.8-.5s1-.7 1.3-1.3l3.1 1.9c-.6 1.1-1.5 1.9-2.6 2.5s-2.3.9-3.7.9c-1.4 0-2.6-.3-3.8-1-1.1-.6-2-1.5-2.6-2.6-.6-1.1-.9-2.4-.9-3.7 0-1.4.3-2.6.9-3.8s1.4-2 2.5-2.7c1.1-.6 2.3-1 3.7-1s2.6.3 3.7 1c1.1.6 1.9 1.5 2.5 2.6.6 1.1.9 2.4.9 3.8-.1.6-.1 1.1-.2 1.6zm-10.2-2.9h6.5c-.2-.8-.6-1.3-1.1-1.8s-1.3-.6-2.1-.6c-.9 0-1.6.2-2.1.6s-1 1.1-1.2 1.8zM74.3 328.7c.6 0 1.1-.1 1.4-.3s.5-.5.5-.9c0-.2-.1-.4-.3-.6s-.5-.3-.8-.3c-.4-.1-.7-.1-1-.1-.6-.1-1.2-.1-1.7-.2-1.3-.2-2.3-.7-2.9-1.4-.6-.7-1-1.6-1-2.7 0-.9.2-1.7.7-2.4.5-.7 1.1-1.3 2-1.7.8-.4 1.8-.6 2.9-.6 1.1 0 2 .2 2.9.6s1.5 1 2 1.7.7 1.5.7 2.4H76c0-.4-.2-.7-.5-.9-.3-.2-.8-.3-1.4-.3-.6 0-1 .1-1.4.3-.3.2-.5.5-.5.8 0 .4.3.7 1 .8.2 0 .6.1 1.3.1s1.2.1 1.5.2c1.3.2 2.2.6 2.9 1.4.7.7 1 1.7 1 2.7 0 .9-.2 1.8-.7 2.5s-1.2 1.3-2 1.7c-.9.4-1.9.6-3 .6s-2.1-.2-3-.6-1.6-1-2.1-1.7-.7-1.6-.7-2.5h3.7c0 .4.2.7.6 1 .5.2 1 .4 1.6.4zM95.6 323v8.8h-3.8v-8.1c0-.5-.1-.9-.3-1.3-.2-.4-.5-.7-.9-1s-.9-.3-1.4-.3c-.5 0-1 .1-1.4.3s-.7.5-.9 1-.3.8-.3 1.3v8.1h-3.8v-14.1h3.8v.9c.5-.4 1-.7 1.6-.9.6-.2 1.2-.3 1.9-.3 1.1 0 2 .2 2.9.7s1.5 1.2 2 2 .6 1.9.6 2.9zM102.5 313.4c0 .3-.1.6-.2.9l-1.7 4.7h-2.3l.9-3.5c-.4-.2-.8-.4-1-.8-.3-.4-.4-.8-.4-1.4 0-.7.2-1.2.6-1.7.4-.4 1-.7 1.7-.7.5 0 .9.1 1.2.3s.6.5.8.8c.3.6.4 1 .4 1.4zM110.1 317.7h4.4v3.6h-4.4v5.2c0 .5.1.9.4 1.2.3.3.7.5 1.2.5h2.8v3.6H111c-.9 0-1.7-.2-2.4-.6-.7-.4-1.2-.9-1.6-1.6-.4-.7-.6-1.5-.6-2.4v-5.9h-2v-2l3.7-4.6h2.1v3zM138.4 323v8.8h-3.8v-8.1c0-.5-.1-.9-.3-1.3-.2-.4-.5-.7-.9-1s-.9-.3-1.4-.3c-.5 0-1 .1-1.4.3-.4.2-.7.5-.9 1-.2.4-.3.8-.3 1.3v8.1h-3.8v-21.3h3.8v8.1c.5-.4 1-.7 1.6-.9.6-.2 1.2-.3 1.9-.3 1.1 0 2 .2 2.9.7s1.5 1.2 2 2 .6 1.9.6 2.9zM153.5 322.9v8.9h-3.7v-.8c-.4.4-1 .7-1.5.9s-1.2.3-2 .3c-1 0-1.8-.2-2.5-.6-.7-.4-1.3-.9-1.7-1.6s-.6-1.4-.6-2.3c0-1.4.4-2.4 1.3-3.1.9-.7 2.1-1.1 3.6-1.3l3.6-.3v-.2c0-.3-.1-.7-.3-.9-.2-.3-.5-.5-.8-.7s-.7-.2-1.1-.2c-.6 0-1.1.1-1.5.4-.4.3-.7.6-.8 1.1h-3.7c.1-.9.4-1.8.9-2.6s1.2-1.4 2.1-1.8c.9-.4 1.8-.6 2.9-.6 1.2 0 2.2.2 3.1.7s1.6 1.1 2.1 2 .6 1.7.6 2.7zm-3.7 4v-1l-2.9.2c-.6.1-1 .2-1.3.5-.3.3-.4.6-.4 1s.2.8.5 1 .8.4 1.5.4c.8 0 1.5-.2 2-.6s.6-.9.6-1.5zM169.1 317.7l-5.2 14.1h-3.8l-5.2-14.1h4.1l3 8.4 3-8.4h4.1zM183.9 326.2h-10.1c.2.7.7 1.3 1.3 1.7s1.3.6 2.2.6c.7 0 1.3-.2 1.8-.5s1-.7 1.3-1.3l3.1 1.9c-.6 1.1-1.5 1.9-2.6 2.5s-2.3.9-3.7.9c-1.4 0-2.6-.3-3.8-1s-2-1.5-2.6-2.6-.9-2.4-.9-3.7c0-1.4.3-2.6.9-3.8s1.4-2 2.5-2.7 2.3-1 3.7-1 2.6.3 3.7 1 1.9 1.5 2.5 2.6.9 2.4.9 3.8c-.1.6-.1 1.1-.2 1.6zm-10.2-2.9h6.5c-.2-.8-.6-1.3-1.1-1.8s-1.3-.6-2.1-.6c-.9 0-1.6.2-2.1.6s-1 1.1-1.2 1.8zM199.3 317.7h4.4v3.6h-4.4v5.2c0 .5.1.9.4 1.2s.7.5 1.2.5h2.8v3.6h-3.6c-.9 0-1.7-.2-2.4-.6s-1.2-.9-1.6-1.6-.6-1.5-.6-2.4v-5.9h-2v-2l3.7-4.6h2.1v3zM212.9 317.4c1.4 0 2.7.3 3.8 1s2 1.5 2.6 2.7 1 2.4 1 3.7-.3 2.6-1 3.7-1.5 2-2.6 2.7-2.4 1-3.8 1-2.7-.3-3.8-1-2-1.5-2.6-2.7-1-2.4-1-3.7.3-2.6 1-3.7 1.5-2 2.6-2.7 2.4-1 3.8-1zm0 11c.7 0 1.3-.2 1.8-.5s1-.8 1.3-1.3.5-1.2.5-1.8-.2-1.3-.5-1.8-.7-1-1.3-1.3-1.1-.5-1.8-.5-1.3.2-1.8.5-1 .8-1.3 1.3-.5 1.2-.5 1.8.2 1.3.5 1.8.7 1 1.3 1.3 1.1.5 1.8.5z"/></g><g fill="#193062"><path d="M33.8 359.8c0 1.3-.3 2.6-.9 3.7-.6 1.1-1.4 2-2.5 2.7-1.1.7-2.3 1-3.6 1-.8 0-1.5-.1-2.1-.3-.7-.2-1.2-.5-1.7-1v1h-3.8v-21.3H23v8.1c.5-.4 1.1-.7 1.7-.9.7-.2 1.3-.3 2.1-.3 1.3 0 2.5.3 3.6 1 1.1.6 1.9 1.5 2.5 2.7.6 1 .9 2.2.9 3.6zm-3.8 0c0-.7-.2-1.3-.5-1.9s-.7-1-1.3-1.3-1.1-.5-1.8-.5-1.3.2-1.9.5c-.5.3-1 .8-1.3 1.3s-.5 1.2-.5 1.9.2 1.3.5 1.8.7 1 1.3 1.3 1.2.5 1.9.5 1.3-.2 1.8-.5 1-.8 1.3-1.3.5-1.1.5-1.8zM49.7 361.2H39.6c.2.7.7 1.3 1.3 1.7.6.4 1.3.6 2.2.6.7 0 1.3-.2 1.8-.5s1-.7 1.3-1.3l3.1 1.9c-.6 1.1-1.5 1.9-2.6 2.5s-2.3.9-3.7.9c-1.4 0-2.6-.3-3.8-1-1.1-.6-2-1.5-2.6-2.6-.6-1.1-.9-2.4-.9-3.7 0-1.4.3-2.6.9-3.8s1.4-2 2.5-2.7c1.1-.6 2.3-1 3.7-1s2.6.3 3.7 1c1.1.6 1.9 1.5 2.5 2.6.6 1.1.9 2.4.9 3.8 0 .6-.1 1.1-.2 1.6zm-10.1-2.9h6.5c-.2-.8-.6-1.3-1.1-1.8s-1.3-.6-2.1-.6c-.9 0-1.6.2-2.1.6s-1 1.1-1.2 1.8zM67.2 352.4c1.3 0 2.5.3 3.5.9 1.1.6 1.9 1.4 2.5 2.4l-3.1 2.2c-.3-.5-.8-.9-1.3-1.2s-1.1-.4-1.7-.4c-.7 0-1.3.2-1.8.5s-1 .8-1.3 1.3-.5 1.2-.5 1.9.2 1.3.5 1.9.7 1 1.3 1.3 1.1.5 1.8.5c.6 0 1.2-.2 1.7-.5s.9-.7 1.3-1.2l3.1 2.2c-.6 1-1.5 1.8-2.5 2.4-1.1.6-2.2.9-3.5.9-1.4 0-2.6-.3-3.7-1-1.1-.6-2-1.5-2.6-2.7s-.9-2.4-.9-3.7.3-2.6.9-3.7 1.5-2 2.6-2.7c1.1-1 2.3-1.3 3.7-1.3zM82.1 352.4c1.4 0 2.7.3 3.8 1s2 1.5 2.6 2.7c.6 1.1 1 2.4 1 3.7s-.3 2.6-1 3.7c-.6 1.1-1.5 2-2.6 2.7s-2.4 1-3.8 1-2.7-.3-3.8-1c-1.1-.7-2-1.5-2.6-2.7-.6-1.1-1-2.4-1-3.7s.3-2.6 1-3.7c.6-1.1 1.5-2 2.6-2.7 1.1-.7 2.4-1 3.8-1zm0 11c.7 0 1.3-.2 1.8-.5s1-.8 1.3-1.3c.3-.6.5-1.2.5-1.8s-.2-1.3-.5-1.8c-.3-.6-.7-1-1.3-1.3-.5-.3-1.1-.5-1.8-.5s-1.3.2-1.8.5-1 .8-1.3 1.3c-.3.6-.5 1.2-.5 1.8s.2 1.3.5 1.8c.3.6.7 1 1.3 1.3.5.4 1.1.5 1.8.5zM112.9 357.7v9.2h-3.8v-8.4c0-.4-.1-.8-.3-1.2-.2-.4-.5-.6-.8-.8-.3-.2-.8-.3-1.2-.3-.4 0-.8.1-1.2.3-.3.2-.6.5-.8.8s-.3.7-.3 1.2v8.4h-3.8v-8.4c0-.4-.1-.8-.3-1.2-.2-.4-.5-.6-.8-.8s-.7-.3-1.2-.3c-.4 0-.8.1-1.2.3-.4.2-.6.5-.8.8-.2.4-.3.7-.3 1.2v8.4h-3.8v-14.1H96v.8c.4-.4.9-.6 1.5-.8s1.2-.3 1.8-.3c.8 0 1.5.1 2.1.4.6.3 1.2.6 1.7 1.1.5-.5 1.1-.9 1.8-1.1.7-.3 1.5-.4 2.3-.4 1.1 0 2.1.2 2.9.7s1.5 1.1 2 1.9c.5.7.8 1.6.8 2.6zM131.2 359.8c0 1.3-.3 2.6-.9 3.7-.6 1.1-1.4 2-2.5 2.7-1.1.7-2.3 1-3.6 1-.7 0-1.4-.1-2.1-.3-.6-.2-1.2-.5-1.7-.9v6.9h-3.8v-20h3.8v1c.5-.4 1.1-.7 1.7-1 .7-.2 1.4-.3 2.1-.3 1.3 0 2.5.3 3.6 1 1.1.6 1.9 1.5 2.5 2.7.6.9.9 2.1.9 3.5zm-3.8 0c0-.7-.2-1.3-.5-1.9s-.7-1-1.3-1.3-1.1-.5-1.8-.5-1.3.2-1.9.5c-.5.3-1 .8-1.3 1.3s-.5 1.2-.5 1.9.2 1.3.5 1.8.7 1 1.3 1.3 1.2.5 1.9.5 1.3-.2 1.8-.5 1-.8 1.3-1.3.5-1.1.5-1.8zM134 345.5h3.8v21.3H134v-21.3zM143.6 345.8c.5 0 .9.1 1.2.3.4.2.7.5.9.9.2.4.3.8.3 1.2s-.1.9-.3 1.2c-.2.4-.5.7-.9.9-.4.2-.8.3-1.2.3-.5 0-.9-.1-1.2-.3-.4-.2-.7-.5-.9-.9-.2-.4-.3-.8-.3-1.2s.1-.9.3-1.2c.2-.4.5-.7.9-.9.3-.2.7-.3 1.2-.3zm1.9 21h-3.8v-14.1h3.8v14.1zM155.6 352.4c1.3 0 2.5.3 3.5.9s1.9 1.4 2.5 2.4l-3.1 2.2c-.3-.5-.8-.9-1.3-1.2s-1.1-.4-1.7-.4c-.7 0-1.3.2-1.8.5s-1 .8-1.3 1.3-.5 1.2-.5 1.9.2 1.3.5 1.9.7 1 1.3 1.3 1.1.5 1.8.5c.6 0 1.2-.2 1.7-.5s.9-.7 1.3-1.2l3.1 2.2c-.6 1-1.5 1.8-2.5 2.4s-2.2.9-3.5.9c-1.4 0-2.6-.3-3.7-1s-2-1.5-2.6-2.7-.9-2.4-.9-3.7.3-2.6.9-3.7 1.5-2 2.6-2.7 2.3-1.3 3.7-1.3zM175.5 357.9v8.9h-3.7v-.8c-.4.4-1 .7-1.5.9s-1.2.3-2 .3c-1 0-1.8-.2-2.5-.6s-1.3-.9-1.7-1.6-.6-1.4-.6-2.3c0-1.4.4-2.4 1.3-3.1s2.1-1.1 3.6-1.3l3.6-.3v-.2c0-.3-.1-.7-.3-.9s-.5-.5-.8-.7-.7-.2-1.1-.2c-.6 0-1.1.1-1.5.4s-.7.6-.8 1.1h-3.7c.1-.9.4-1.8.9-2.6s1.2-1.4 2.1-1.8 1.8-.6 2.9-.6c1.2 0 2.2.2 3.1.7s1.6 1.1 2.1 2 .6 1.7.6 2.7zm-3.7 4v-1l-2.9.2c-.6.1-1 .2-1.3.5s-.4.6-.4 1 .2.8.5 1 .8.4 1.5.4c.8 0 1.5-.2 2-.6s.6-.9.6-1.5zM183.4 352.7h4.4v3.6h-4.4v5.2c0 .5.1.9.4 1.2s.7.5 1.2.5h2.8v3.6h-3.6c-.9 0-1.7-.2-2.4-.6s-1.2-.9-1.6-1.6-.6-1.5-.6-2.4v-5.9h-2v-2l3.7-4.6h2.1v3zM203.7 361.2h-10.1c.2.7.7 1.3 1.3 1.7s1.3.6 2.2.6c.7 0 1.3-.2 1.8-.5s1-.7 1.3-1.3l3.1 1.9c-.6 1.1-1.5 1.9-2.6 2.5s-2.3.9-3.7.9c-1.4 0-2.6-.3-3.8-1s-2-1.5-2.6-2.6-.9-2.4-.9-3.7c0-1.4.3-2.6.9-3.8s1.4-2 2.5-2.7 2.3-1 3.7-1 2.6.3 3.7 1 1.9 1.5 2.5 2.6.9 2.4.9 3.8c-.1.6-.1 1.1-.2 1.6zm-10.2-2.9h6.5c-.2-.8-.6-1.3-1.1-1.8s-1.3-.6-2.1-.6c-.9 0-1.6.2-2.1.6s-1 1.1-1.2 1.8zM220.3 345.5v21.3h-3.8v-1c-.5.4-1.1.7-1.7 1s-1.4.3-2.1.3c-1.3 0-2.5-.3-3.6-1s-1.9-1.5-2.5-2.7-.9-2.4-.9-3.7c0-1.4.3-2.6.9-3.8s1.4-2 2.5-2.7 2.3-1 3.6-1c.7 0 1.4.1 2.1.3s1.2.5 1.7.9v-8.1h3.8zm-3.7 14.3c0-.7-.2-1.3-.5-1.9s-.7-1-1.3-1.3-1.2-.5-1.9-.5-1.3.2-1.8.5-1 .8-1.3 1.3-.5 1.2-.5 1.9.2 1.3.5 1.8.7 1 1.3 1.3 1.1.5 1.8.5 1.3-.2 1.9-.5 1-.8 1.3-1.3.5-1.1.5-1.8zM226.3 362.2c.5 0 .9.1 1.2.3s.7.5.9.9.3.8.3 1.2c0 .4-.1.9-.3 1.2s-.5.7-.9.9-.8.3-1.2.3-.9-.1-1.2-.3-.7-.5-.9-.9-.3-.8-.3-1.2c0-.4.1-.9.3-1.2s.5-.7.9-.9.7-.3 1.2-.3z"/></g></svg>