<svg baseProfile="tiny" xmlns="http://www.w3.org/2000/svg" viewBox="0 0 300 600" overflow="visible"><g fill="#454547"><path d="M20.2 391.9h-3.7v-1.3h9v1.3h-3.7v10.8h-1.6v-10.8zM26 396.7c0-1 0-1.9-.1-2.7h1.4l.1 1.7h.1c.4-1.2 1.4-1.9 2.4-1.9.2 0 .3 0 .5.1v1.5c-.2 0-.3-.1-.5-.1-1.1 0-1.9.8-2.1 2 0 .2-.1.5-.1.7v4.6H26v-5.9zM39.2 400.3c0 .9 0 1.7.1 2.4h-1.4l-.1-1.4c-.4.7-1.3 1.6-2.9 1.6-1.4 0-3-.8-3-3.8V394h1.6v4.8c0 1.7.5 2.8 1.9 2.8 1.1 0 1.8-.7 2.1-1.4.1-.2.1-.5.1-.8V394h1.6v6.3zM41.7 400.8c.7.4 1.7.8 2.8.8 1.6 0 2.5-.8 2.5-2.1 0-1.1-.6-1.8-2.3-2.4-2-.7-3.2-1.7-3.2-3.4 0-1.9 1.6-3.3 3.9-3.3 1.2 0 2.1.3 2.7.6l-.4 1.3c-.4-.2-1.2-.6-2.3-.6-1.7 0-2.3 1-2.3 1.8 0 1.1.7 1.7 2.4 2.3 2.1.8 3.1 1.8 3.1 3.6 0 1.9-1.4 3.5-4.2 3.5-1.2 0-2.4-.3-3.1-.8l.4-1.3zM52.6 391.5v2.5h2.3v1.2h-2.3v4.7c0 1.1.3 1.7 1.2 1.7.4 0 .7-.1.9-.1l.1 1.2c-.3.1-.8.2-1.4.2-.7 0-1.3-.2-1.7-.7-.5-.5-.6-1.2-.6-2.3v-4.8h-1.4V394H51v-2.1l1.6-.4zM61.4 402.7l-.1-1.1h-.1c-.5.7-1.4 1.3-2.7 1.3-1.8 0-2.7-1.2-2.7-2.5 0-2.1 1.9-3.3 5.2-3.2v-.2c0-.7-.2-2-2-2-.8 0-1.7.3-2.3.6l-.4-1c.7-.5 1.8-.8 2.9-.8 2.7 0 3.3 1.8 3.3 3.6v3.3c0 .8 0 1.5.1 2.1h-1.2zm-.2-4.4c-1.7 0-3.7.3-3.7 2 0 1 .7 1.5 1.5 1.5 1.1 0 1.9-.7 2.1-1.5.1-.2.1-.3.1-.5v-1.5zM72.8 394c0 .6-.1 1.3-.1 2.4v5.1c0 2-.4 3.2-1.2 4-.8.8-2.1 1-3.2 1-1 0-2.2-.3-2.9-.7l.4-1.2c.6.4 1.5.7 2.6.7 1.6 0 2.8-.8 2.8-3v-1c-.5.8-1.4 1.5-2.8 1.5-2.2 0-3.7-1.8-3.7-4.2 0-3 1.9-4.6 3.9-4.6 1.5 0 2.3.8 2.7 1.5l.1-1.3h1.4zm-1.6 3.4c0-.3 0-.5-.1-.7-.3-.9-1.1-1.7-2.2-1.7-1.5 0-2.6 1.3-2.6 3.3 0 1.7.9 3.1 2.6 3.1 1 0 1.9-.6 2.2-1.6.1-.3.1-.6.1-.8v-1.6zM76.2 398.6c0 2.1 1.4 3 3 3 1.1 0 1.8-.2 2.4-.5l.3 1.1c-.6.3-1.5.5-2.9.5-2.7 0-4.3-1.8-4.3-4.4 0-2.6 1.5-4.7 4.1-4.7 2.8 0 3.6 2.5 3.6 4.1 0 .3 0 .6-.1.7h-6.1zm4.7-1.1c0-1-.4-2.6-2.2-2.6-1.6 0-2.3 1.5-2.4 2.6h4.6zM87.7 390.6v.8h-1.6v4.1h-1v-4.1h-1.6v-.8h4.2zm5.3 4.9l-.2-2.9v-1.4h-.1c-.1.4-.3 1-.4 1.5l-.9 2.7h-1l-.9-2.8c-.1-.4-.2-1-.3-1.4h-.1v1.4l-.2 2.9H88l.4-4.9h1.5l.8 2.4c.1.4.2.7.3 1.2.1-.4.2-.9.3-1.2l.8-2.4h1.4l.4 4.9H93zM105.5 402.4c-.4.2-1.3.5-2.5.5-2.6 0-4.3-1.8-4.3-4.4 0-2.7 1.8-4.6 4.7-4.6.9 0 1.8.2 2.2.5l-.4 1.2c-.4-.2-1-.4-1.8-.4-2 0-3.1 1.5-3.1 3.3 0 2 1.3 3.3 3 3.3.9 0 1.5-.2 1.9-.4l.3 1zM115.2 398.3c0 3.2-2.2 4.6-4.3 4.6-2.4 0-4.2-1.7-4.2-4.5 0-2.9 1.9-4.6 4.3-4.6 2.5 0 4.2 1.8 4.2 4.5zm-7 .1c0 1.9 1.1 3.3 2.6 3.3s2.6-1.4 2.6-3.4c0-1.5-.7-3.3-2.6-3.3-1.7 0-2.6 1.7-2.6 3.4zM124.4 400.3c0 .9 0 1.7.1 2.4h-1.4l-.1-1.4c-.4.7-1.3 1.6-2.9 1.6-1.4 0-3-.8-3-3.8V394h1.6v4.8c0 1.7.5 2.8 1.9 2.8 1.1 0 1.8-.7 2.1-1.4.1-.2.1-.5.1-.8V394h1.6v6.3zM127.1 389.9h1.6v12.8h-1.6v-12.8zM138.8 389.9v10.5c0 .8 0 1.7.1 2.3h-1.4l-.1-1.5c-.5 1-1.5 1.7-3 1.7-2.1 0-3.7-1.8-3.7-4.4 0-2.9 1.8-4.7 3.9-4.7 1.3 0 2.2.6 2.6 1.3v-5.2h1.6zm-1.5 7.6c0-.2 0-.5-.1-.7-.2-1-1.1-1.8-2.3-1.8-1.6 0-2.6 1.4-2.6 3.4 0 1.8.9 3.2 2.6 3.2 1.1 0 2-.7 2.3-1.9.1-.2.1-.4.1-.7v-1.5zM145.3 389.9h1.6v5.4c.3-.4.6-.8 1.1-1.1.5-.3 1-.5 1.6-.5 1.2 0 3 .7 3 3.7v5.2H151v-5c0-1.4-.5-2.6-2-2.6-1 0-1.8.7-2.1 1.6-.1.2-.1.5-.1.8v5.3h-1.6v-12.8zM156.2 398.6c0 2.1 1.4 3 3 3 1.1 0 1.8-.2 2.4-.5l.3 1.1c-.6.3-1.5.5-2.9.5-2.7 0-4.3-1.8-4.3-4.4 0-2.6 1.5-4.7 4.1-4.7 2.8 0 3.6 2.5 3.6 4.1 0 .3 0 .6-.1.7h-6.1zm4.6-1.1c0-1-.4-2.6-2.2-2.6-1.6 0-2.3 1.5-2.4 2.6h4.6zM164.3 389.9h1.6v12.8h-1.6v-12.8zM168.5 396.8c0-1.1 0-2-.1-2.8h1.4l.1 1.5c.6-1.1 1.7-1.7 3.1-1.7 2.1 0 3.7 1.8 3.7 4.4 0 3.1-1.9 4.7-4 4.7-1.2 0-2.2-.5-2.7-1.4v4.7h-1.6v-9.4zm1.6 2.4c0 .2 0 .5.1.6.3 1.1 1.2 1.9 2.4 1.9 1.7 0 2.6-1.4 2.6-3.4 0-1.7-.9-3.2-2.6-3.2-1.1 0-2.1.8-2.4 2-.1.2-.1.4-.1.6v1.5z"/></g><g fill="#454547"><path d="M17.9 417.4c0-.9 0-1.6-.1-2.4h1.4l.1 1.4h.1c.5-.8 1.3-1.6 2.7-1.6 1.2 0 2.1.7 2.5 1.7.3-.5.6-.9 1-1.1.5-.4 1.1-.6 1.9-.6 1.2 0 2.9.8 2.9 3.8v5.1h-1.5v-4.9c0-1.7-.6-2.7-1.9-2.7-.9 0-1.6.7-1.9 1.4-.1.2-.1.5-.1.8v5.4h-1.5v-5.2c0-1.4-.6-2.4-1.8-2.4-1 0-1.7.8-2 1.6-.1.2-.1.5-.1.8v5.3h-1.5v-6.4zM37.7 423.7l-.1-1.1h-.1c-.5.7-1.4 1.3-2.7 1.3-1.8 0-2.7-1.2-2.7-2.5 0-2.1 1.9-3.3 5.2-3.2v-.2c0-.7-.2-2-2-2-.8 0-1.7.3-2.3.6l-.4-1c.7-.5 1.8-.8 2.9-.8 2.7 0 3.3 1.8 3.3 3.6v3.3c0 .8 0 1.5.1 2.1h-1.2zm-.2-4.4c-1.7 0-3.7.3-3.7 2 0 1 .7 1.5 1.5 1.5 1.1 0 1.9-.7 2.1-1.5.1-.2.1-.3.1-.5v-1.5zM43.1 419c.3-.3.6-.7.8-1l2.6-3h1.9l-3.4 3.6 3.8 5.1H47l-3-4.2-.8.9v3.3h-1.6v-12.8h1.6v8.1zM50.9 419.6c0 2.1 1.4 3 3 3 1.1 0 1.8-.2 2.4-.5l.3 1.1c-.6.3-1.5.5-2.9.5-2.7 0-4.3-1.8-4.3-4.4 0-2.6 1.5-4.7 4.1-4.7 2.8 0 3.6 2.5 3.6 4.1 0 .3 0 .6-.1.7h-6.1zm4.6-1.1c0-1-.4-2.6-2.2-2.6-1.6 0-2.3 1.5-2.4 2.6h4.6zM64.6 412.5c0 .5-.4 1-1 1s-1-.4-1-1 .4-1 1-1c.6.1 1 .5 1 1zm-1.7 11.2V415h1.6v8.7h-1.6zM69 412.5v2.5h2.3v1.2H69v4.7c0 1.1.3 1.7 1.2 1.7.4 0 .7-.1.9-.1l.1 1.2c-.3.1-.8.2-1.4.2-.7 0-1.3-.2-1.7-.7-.5-.5-.6-1.2-.6-2.3v-4.8h-1.4V415h1.4v-2.1l1.5-.4zM76.6 422.1c.5.3 1.3.6 2.1.6 1.2 0 1.7-.6 1.7-1.3 0-.8-.5-1.2-1.6-1.6-1.6-.6-2.3-1.4-2.3-2.5 0-1.4 1.1-2.6 3-2.6.9 0 1.7.3 2.1.5l-.4 1.2c-.3-.2-1-.5-1.8-.5-.9 0-1.5.5-1.5 1.2s.5 1 1.7 1.5c1.5.6 2.3 1.3 2.3 2.6 0 1.5-1.2 2.6-3.3 2.6-1 0-1.8-.2-2.4-.6l.4-1.1zM85.7 412.5c0 .5-.4 1-1 1s-1-.4-1-1 .4-1 1-1c.7.1 1 .5 1 1zM84 423.7V415h1.6v8.7H84zM88.2 417.4c0-.9 0-1.6-.1-2.4h1.4l.1 1.4h.1c.5-.8 1.3-1.6 2.7-1.6 1.2 0 2.1.7 2.5 1.7.3-.5.6-.9 1-1.1.5-.4 1.1-.6 1.9-.6 1.2 0 2.9.8 2.9 3.8v5.1h-1.5v-4.9c0-1.7-.6-2.7-1.9-2.7-.9 0-1.6.7-1.9 1.4-.1.2-.1.5-.1.8v5.4h-1.5v-5.2c0-1.4-.6-2.4-1.8-2.4-1 0-1.7.8-2 1.6-.1.2-.1.5-.1.8v5.3h-1.5v-6.4zM103.2 417.8c0-1.1 0-2-.1-2.8h1.4l.1 1.5c.6-1.1 1.7-1.7 3.1-1.7 2.1 0 3.7 1.8 3.7 4.4 0 3.1-1.9 4.7-4 4.7-1.2 0-2.2-.5-2.7-1.4v4.7h-1.6v-9.4zm1.6 2.4c0 .2 0 .5.1.6.3 1.1 1.2 1.9 2.4 1.9 1.7 0 2.6-1.4 2.6-3.4 0-1.7-.9-3.2-2.6-3.2-1.1 0-2.1.8-2.4 2-.1.2-.1.4-.1.6v1.5zM113.4 410.9h1.6v12.8h-1.6v-12.8zM118.6 419.6c0 2.1 1.4 3 3 3 1.1 0 1.8-.2 2.4-.5l.3 1.1c-.6.3-1.5.5-2.9.5-2.7 0-4.3-1.8-4.3-4.4 0-2.6 1.5-4.7 4.1-4.7 2.8 0 3.6 2.5 3.6 4.1 0 .3 0 .6-.1.7h-6.1zm4.6-1.1c0-1-.4-2.6-2.2-2.6-1.6 0-2.3 1.5-2.4 2.6h4.6zM126.1 422.8c0-.7.4-1.1 1.1-1.1s1.1.5 1.1 1.1c0 .6-.4 1.1-1.1 1.1-.7 0-1.1-.5-1.1-1.1z"/></g></svg>