<svg baseProfile="tiny" xmlns="http://www.w3.org/2000/svg" viewBox="0 0 300 250" overflow="visible"><g fill="#193062"><path d="M26.9 28.6v.5c0 3.8-2.6 6.6-6.5 6.6s-6.7-2.9-6.7-6.8c0-3.8 2.8-6.8 6.8-6.8 2.6 0 4.7 1.3 5.9 3.3L24 27c-.6-1.2-1.9-2-3.5-2-2.3 0-4 1.7-4 4 0 2.4 1.5 4.1 3.9 4.1 1.6 0 2.8-.7 3.3-1.9h-4.2v-2.6h7.4zM37.2 31.9h-6.3c.3.8 1.1 1.3 2.1 1.3.9 0 1.5-.4 1.9-1l2.1 1.3c-.8 1.4-2.3 2.2-4.1 2.2-2.7 0-4.7-2.1-4.7-4.7 0-2.7 1.9-4.8 4.6-4.8 2.7 0 4.6 2 4.6 4.7-.1.4-.1.7-.2 1zM30.8 30h3.9c-.3-.9-1-1.3-1.9-1.3-1 0-1.8.4-2 1.3zM42 26.4h2.8V29H42v3c0 .6.4 1 1 1h1.8v2.5h-2.3c-1.8 0-3.1-1.2-3.1-3V29h-1.3v-1.4l2.5-3.1H42v1.9zM61.2 31c0 2.6-1.9 4.7-4.5 4.7-.9 0-1.7-.3-2.3-.7v.5h-2.6V21.8h2.7v5.1c.6-.4 1.4-.7 2.3-.7 2.6 0 4.4 2.1 4.4 4.8zm-2.6 0c0-1.2-.9-2.2-2.1-2.2-1.3 0-2.1.9-2.1 2.2 0 1.2.9 2.1 2.1 2.1 1.2 0 2.1-.9 2.1-2.1zM70.5 29.8v5.7h-2.6V35c-.6.5-1.2.7-2.2.7-1.9 0-3.2-1.2-3.2-2.8 0-1.9 1.4-2.7 3.2-2.8l2.2-.2v-.1c0-.6-.6-1.1-1.3-1.1-.7 0-1.2.3-1.3.8h-2.5c.1-1.9 1.7-3.3 3.9-3.3s3.8 1.6 3.8 3.6zm-2.6 2.5v-.6l-1.8.1c-.7.1-1 .4-1 .8 0 .5.4.8 1.2.8 1 .2 1.6-.3 1.6-1.1zM76.9 26.2c1.7 0 3.2.8 3.9 2.1l-2.1 1.5c-.4-.6-1-1-1.8-1-1.2 0-2.1.9-2.1 2.1 0 1.2.9 2.1 2.1 2.1.8 0 1.4-.4 1.8-1l2.2 1.5c-.8 1.3-2.2 2.1-3.9 2.1-2.7 0-4.7-2.1-4.7-4.7-.1-2.6 1.9-4.7 4.6-4.7zM87.7 30.8l3.5 4.8H88l-3-4.2v4.2h-2.7V21.8H85v8.4l3-3.8h3.3l-3.6 4.4zM100.5 26.4h2.8V29h-2.8v3c0 .6.4 1 1 1h1.8v2.5H101c-1.8 0-3.1-1.2-3.1-3V29h-1.3v-1.4l2.5-3.1h1.5v1.9zM109.2 26.2c2.7 0 4.7 2.1 4.7 4.8 0 2.6-2 4.7-4.7 4.7s-4.7-2.1-4.7-4.7c0-2.7 2-4.8 4.7-4.8zm0 6.9c1.2 0 2.1-.9 2.1-2.1 0-1.2-.9-2.1-2.1-2.1-1.2 0-2.1.9-2.1 2.1 0 1.2.9 2.1 2.1 2.1z"/></g><g fill="#193062"><path d="M17.1 55.4h2.8V58h-2.8v3c0 .6.4 1 1 1h1.8v2.5h-2.3c-1.8 0-3.1-1.2-3.1-3V58h-1.3v-1.4l2.5-3.1h1.5v1.9zM30.1 58.9v5.7h-2.7v-5.1c0-.9-.6-1.6-1.5-1.6-1 0-1.6.7-1.6 1.6v5.1h-2.7V50.8h2.7v5.1c.6-.4 1.3-.7 2.2-.7 2.1 0 3.6 1.6 3.6 3.7zM40.8 60.9h-6.3c.3.8 1.1 1.3 2.1 1.3.9 0 1.5-.4 1.9-1l2.1 1.3c-.8 1.4-2.3 2.2-4.1 2.2-2.7 0-4.7-2.1-4.7-4.7 0-2.7 1.9-4.8 4.6-4.8 2.7 0 4.6 2 4.6 4.7-.1.4-.1.7-.2 1zM34.5 59h3.9c-.3-.9-1-1.3-1.9-1.3-1.1 0-1.8.4-2 1.3zM50.9 55.4h2.8V58h-2.8v3c0 .6.4 1 1 1h1.8v2.5h-2.3c-1.8 0-3.1-1.2-3.1-3V58H47v-1.4l2.5-3.1H51v1.9zM63.9 58.9v5.7h-2.7v-5.1c0-.9-.6-1.6-1.5-1.6-1 0-1.6.7-1.6 1.6v5.1h-2.7V50.8h2.7v5.1c.6-.4 1.3-.7 2.2-.7 2.1 0 3.6 1.6 3.6 3.7zM67.5 51c1 0 1.7.7 1.7 1.7 0 .9-.7 1.7-1.7 1.7s-1.7-.7-1.7-1.7c.1-1 .8-1.7 1.7-1.7zm1.4 13.5h-2.7v-9.1h2.7v9.1zM79.6 58.8v5.7H77v-5.1c0-.9-.6-1.5-1.5-1.5s-1.5.7-1.5 1.5v5.1h-2.7v-9.1h2.6v.6c.6-.5 1.4-.7 2.2-.7 2-.1 3.5 1.5 3.5 3.5zM90.4 55.4v8.8c0 2.4-1.8 4.3-4.5 4.3-2.1 0-3.7-1.2-4.2-2.9l2.4-.9c.3.8.9 1.2 1.8 1.2 1.1 0 1.9-.7 1.9-1.8v-.7c-.6.4-1.3.7-2.2.7-2.4 0-4.2-2-4.2-4.5s1.8-4.5 4.2-4.5c.9 0 1.6.3 2.2.7v-.5h2.6zm-2.6 4.4c0-1.1-.8-1.9-1.9-1.9-1.1 0-1.9.8-1.9 1.9 0 1 .8 1.9 1.9 1.9 1.1-.1 1.9-.9 1.9-1.9zM96 62.3c.7 0 1.2-.3 1.2-.7 0-.3-.2-.4-.7-.5-.5-.1-1-.1-1.6-.2-1.8-.3-2.6-1.3-2.6-2.7 0-1.8 1.5-3.1 3.7-3.1 2.1 0 3.7 1.3 3.7 3.1h-2.6c0-.4-.4-.7-1.1-.7-.7 0-1.1.3-1.1.6s.2.4.6.4c.6.1 1 .1 1.7.2 1.8.2 2.6 1.3 2.6 2.7 0 1.8-1.5 3.2-3.8 3.2-2.2 0-3.8-1.3-3.8-3.1h2.6c0 .5.5.8 1.2.8zM114.2 55.4l-4.6 12.9h-2.8l1.4-4-3.2-8.9h2.9l1.7 4.9 1.8-4.9h2.8zM119.4 55.2c2.7 0 4.7 2.1 4.7 4.8 0 2.6-2 4.7-4.7 4.7s-4.7-2.1-4.7-4.7c0-2.7 2-4.8 4.7-4.8zm0 6.9c1.2 0 2.1-.9 2.1-2.1 0-1.2-.9-2.1-2.1-2.1s-2.1.9-2.1 2.1c0 1.2.9 2.1 2.1 2.1zM134.2 55.4v9.1h-2.6V64c-.6.4-1.4.7-2.2.7-2 0-3.5-1.5-3.5-3.6v-5.7h2.7v5.1c0 .8.6 1.5 1.5 1.5s1.5-.7 1.5-1.5v-5.1h2.6z"/></g><g fill="#193062"><path d="M14.1 79.8h2.7v13.7h-2.7V79.8zM23.3 84.2c2.7 0 4.7 2.1 4.7 4.8 0 2.6-2 4.7-4.7 4.7s-4.7-2.1-4.7-4.7c-.1-2.7 1.9-4.8 4.7-4.8zm0 6.9c1.2 0 2.1-.9 2.1-2.1 0-1.2-.9-2.1-2.1-2.1s-2.1.9-2.1 2.1c0 1.2.9 2.1 2.1 2.1zM37.7 84.4l-3.3 9.1h-2.7l-3.3-9.1h2.9l1.8 5 1.7-5h2.9zM47.2 89.9h-6.3c.3.8 1.1 1.3 2.1 1.3.9 0 1.5-.4 1.9-1l2.1 1.3c-.8 1.4-2.3 2.2-4.1 2.2-2.7 0-4.7-2.1-4.7-4.7 0-2.7 1.9-4.8 4.6-4.8 2.7 0 4.6 2 4.6 4.7-.1.4-.1.7-.2 1zM40.8 88h3.9c-.3-.9-1-1.3-1.9-1.3-1 0-1.8.4-2 1.3zM50.4 90.3c1 0 1.7.7 1.7 1.7 0 .9-.7 1.7-1.7 1.7s-1.7-.7-1.7-1.7.7-1.7 1.7-1.7zM66.4 91.8h-4.7l-.6 1.7h-2.8l4.3-13.1h2.9l4.2 13.1H67l-.6-1.7zm-.8-2.7l-1.5-4.6-1.5 4.6h3zM80.6 89c0 2.6-1.9 4.7-4.5 4.7-.9 0-1.7-.3-2.3-.7v4.3h-2.7V84.4h2.6v.6c.6-.4 1.4-.7 2.3-.7 2.8-.1 4.6 2 4.6 4.7zM78 89c0-1.2-.9-2.2-2.1-2.2-1.3 0-2.1.9-2.1 2.2 0 1.2.9 2.1 2.1 2.1 1.2 0 2.1-.9 2.1-2.1zM91.8 89c0 2.6-1.9 4.7-4.5 4.7-.9 0-1.7-.3-2.3-.7v4.3h-2.7V84.4H85v.6c.6-.4 1.4-.7 2.3-.7 2.7-.1 4.5 2 4.5 4.7zm-2.6 0c0-1.2-.9-2.2-2.1-2.2-1.3 0-2.1.9-2.1 2.2 0 1.2.9 2.1 2.1 2.1 1.2 0 2.1-.9 2.1-2.1zM93.6 79.8h2.7v13.7h-2.7V79.8zM106.7 84.4l-4.6 12.9h-2.8l1.4-4-3.2-8.9h2.9l1.7 4.9 1.8-4.9h2.8zM113.5 87h-1.8v-2.5h1.8v-1.8c0-1.7 1.2-2.8 2.9-2.8h2v2.5h-1.5c-.5 0-.7.3-.7.7v1.4h2.3V87h-2.3v6.5h-2.7V87zM124 84.2c2.7 0 4.7 2.1 4.7 4.8 0 2.6-2 4.7-4.7 4.7s-4.7-2.1-4.7-4.7c-.1-2.7 1.9-4.8 4.7-4.8zm0 6.9c1.2 0 2.1-.9 2.1-2.1 0-1.2-.9-2.1-2.1-2.1-1.2 0-2.1.9-2.1 2.1 0 1.2.8 2.1 2.1 2.1zM136.2 84.4V87h-1.4c-1 0-1.7.8-1.7 1.8v4.6h-2.7v-9.1h2.6v.8c.5-.6 1.3-.8 2.1-.8h1.1z"/></g><g fill="#193062"><path d="M14.3 109.4h2.8v10.4h7.5v2.7H14.3v-13.1zM27.7 109c1 0 1.7.7 1.7 1.7 0 .9-.7 1.7-1.7 1.7s-1.7-.7-1.7-1.7.7-1.7 1.7-1.7zm1.3 13.5h-2.7v-9.1H29v9.1zM32.3 116h-1.8v-2.5h1.8v-1.8c0-1.7 1.2-2.8 2.9-2.8h2v2.5h-1.5c-.5 0-.7.3-.7.7v1.4h2.3v2.5H35v6.5h-2.7V116zM47 118.9h-6.3c.3.8 1.1 1.3 2.1 1.3.9 0 1.5-.4 1.9-1l2.1 1.3c-.8 1.4-2.3 2.2-4.1 2.2-2.7 0-4.7-2.1-4.7-4.7 0-2.7 1.9-4.8 4.6-4.8 2.7 0 4.6 2 4.6 4.7-.1.4-.1.7-.2 1zm-6.3-1.9h3.9c-.3-.9-1-1.3-1.9-1.3-1.1 0-1.8.4-2 1.3zM54.3 109.4h2.8v13.1h-2.8v-13.1zM68 116.8v5.7h-2.7v-5.1c0-.9-.6-1.5-1.5-1.5s-1.5.7-1.5 1.5v5.1h-2.7v-9.1h2.6v.5c.6-.4 1.4-.7 2.2-.7 2.1 0 3.6 1.6 3.6 3.6zM73.6 120.3c.7 0 1.2-.3 1.2-.7 0-.3-.2-.4-.7-.5-.5-.1-1-.1-1.6-.2-1.8-.3-2.6-1.3-2.6-2.7 0-1.8 1.5-3.1 3.7-3.1 2.1 0 3.7 1.3 3.7 3.1h-2.6c0-.4-.4-.7-1.1-.7-.7 0-1.1.3-1.1.6s.2.4.6.5c.6.1 1 .1 1.7.2 1.8.2 2.6 1.3 2.6 2.7 0 1.8-1.5 3.2-3.8 3.2-2.2 0-3.8-1.3-3.8-3.1h2.6c-.1.4.4.7 1.2.7zM87.4 113.4v9.1h-2.6v-.5c-.6.5-1.4.7-2.2.7-2 0-3.5-1.5-3.5-3.6v-5.7h2.7v5.1c0 .8.6 1.5 1.5 1.5s1.5-.7 1.5-1.5v-5.1h2.6zM95.5 113.4v2.6h-1.4c-1 0-1.7.8-1.7 1.8v4.6h-2.7v-9.1h2.6v.8c.5-.6 1.3-.8 2.1-.8h1.1zM104.3 116.8v5.7h-2.6v-.5c-.6.5-1.2.7-2.2.7-1.9 0-3.2-1.2-3.2-2.8 0-1.9 1.4-2.7 3.2-2.8l2.2-.2v-.1c0-.6-.6-1.1-1.3-1.1-.7 0-1.2.3-1.3.8h-2.5c.1-1.9 1.7-3.3 3.9-3.3s3.8 1.6 3.8 3.6zm-2.6 2.5v-.6l-1.8.1c-.7.1-1 .4-1 .8 0 .5.4.8 1.2.8 1 .2 1.6-.3 1.6-1.1zM115 116.8v5.7h-2.7v-5.1c0-.9-.6-1.5-1.5-1.5s-1.5.7-1.5 1.5v5.1h-2.7v-9.1h2.6v.5c.6-.4 1.4-.7 2.2-.7 2.1 0 3.6 1.6 3.6 3.6zM121.4 113.2c1.7 0 3.2.8 3.9 2.1l-2.1 1.5c-.4-.6-1-1-1.8-1-1.2 0-2.1.9-2.1 2.1 0 1.2.9 2.1 2.1 2.1.8 0 1.4-.4 1.8-1l2.2 1.5c-.8 1.3-2.2 2.1-3.9 2.1-2.7 0-4.7-2.1-4.7-4.7-.1-2.6 1.9-4.7 4.6-4.7zM135.1 118.9h-6.3c.3.8 1.1 1.3 2.1 1.3.9 0 1.5-.4 1.9-1l2.1 1.3c-.8 1.4-2.3 2.2-4.1 2.2-2.7 0-4.7-2.1-4.7-4.7 0-2.7 1.9-4.8 4.6-4.8 2.7 0 4.6 2 4.6 4.7-.1.4-.1.7-.2 1zm-6.3-1.9h3.9c-.3-.9-1-1.3-1.9-1.3-1.1 0-1.8.4-2 1.3z"/></g><g fill="#193062"><path d="M15.5 138c1 0 1.7.7 1.7 1.7 0 .9-.7 1.7-1.7 1.7s-1.7-.7-1.7-1.7.7-1.7 1.7-1.7zm1.3 13.5h-2.7v-9.1h2.7v9.1zM27.5 145.8v5.7h-2.7v-5.1c0-.9-.6-1.5-1.5-1.5s-1.5.7-1.5 1.5v5.1h-2.7v-9.1h2.6v.5c.6-.5 1.4-.7 2.2-.7 2.1 0 3.6 1.6 3.6 3.6zM48.3 145.6v5.9h-2.7v-5.3c0-.7-.5-1.3-1.3-1.3s-1.3.6-1.3 1.3v5.3h-2.7v-5.3c0-.7-.5-1.3-1.3-1.3s-1.3.6-1.3 1.3v5.3H35v-9.1h2.6v.4c.5-.4 1.2-.6 2-.6 1 0 1.8.3 2.4.9.6-.6 1.5-.9 2.6-.9 2.2 0 3.7 1.4 3.7 3.4zM52 138c1 0 1.7.7 1.7 1.7 0 .9-.7 1.7-1.7 1.7s-1.7-.7-1.7-1.7.7-1.7 1.7-1.7zm1.3 13.5h-2.7v-9.1h2.7v9.1zM64.1 145.8v5.7h-2.7v-5.1c0-.9-.6-1.5-1.5-1.5s-1.5.7-1.5 1.5v5.1h-2.7v-9.1h2.6v.5c.6-.5 1.4-.7 2.2-.7 2.1 0 3.6 1.6 3.6 3.6zM74.7 142.4v9.1h-2.6v-.5c-.6.5-1.4.7-2.2.7-2 0-3.5-1.5-3.5-3.6v-5.7H69v5.2c0 .8.6 1.5 1.5 1.5s1.5-.7 1.5-1.5v-5.2h2.7zM80.1 142.4h2.8v2.5h-2.8v3c0 .6.4 1 1 1h1.8v2.5h-2.3c-1.8 0-3.1-1.2-3.1-3V145h-1.3v-1.4l2.5-3.1h1.5v1.9zM93 147.9h-6.3c.3.8 1.1 1.3 2.1 1.3.9 0 1.5-.4 1.9-1l2.1 1.3c-.8 1.4-2.3 2.2-4.1 2.2-2.7 0-4.7-2.1-4.7-4.7 0-2.7 1.9-4.8 4.6-4.8 2.7 0 4.6 2 4.6 4.7-.1.4-.1.7-.2 1zm-6.4-1.9h3.9c-.3-.9-1-1.3-1.9-1.3-1 0-1.7.4-2 1.3zM98.1 149.3c.7 0 1.2-.3 1.2-.7 0-.3-.2-.4-.7-.5-.5-.1-1-.1-1.6-.2-1.8-.3-2.6-1.3-2.6-2.7 0-1.8 1.5-3.1 3.7-3.1 2.1 0 3.7 1.3 3.7 3.1h-2.6c0-.4-.4-.7-1.1-.7-.7 0-1.1.3-1.1.6s.2.4.6.5c.6.1 1 .1 1.7.2 1.8.2 2.6 1.3 2.6 2.7 0 1.8-1.5 3.2-3.8 3.2-2.2 0-3.8-1.3-3.8-3.1h2.6c0 .4.5.7 1.2.7zM105 148.3c1 0 1.7.7 1.7 1.7 0 .9-.7 1.7-1.7 1.7s-1.7-.7-1.7-1.7c.1-1 .8-1.7 1.7-1.7z"/></g></svg>