<svg baseProfile="tiny" xmlns="http://www.w3.org/2000/svg" viewBox="0 0 300 250" overflow="visible"><path fill="#193062" d="M-1 191.5h302v59H-1z"/><path fill="#FAE07E" d="M164.9 207.5H184v5.3h-19.1z"/><path fill="#FFF" d="M185.6 207.5h4.6v5.3h-4.6z"/><path fill="#FAE07E" d="M164.9 214.1h14.3v5.3h-14.3z"/><path fill="#FFF" d="M180.7 214.1h9.4v5.3h-9.4z"/><path fill="#FAE07E" d="M164.9 220.8h9.4v5.3h-9.4z"/><path fill="#FFF" d="M175.9 220.8h14.3v5.3h-14.3z"/><path fill="#FAE07E" d="M164.9 227.5h4.6v5.3h-4.6z"/><path fill="#FFF" d="M171.1 227.5h19.1v5.3h-19.1zM205 215.1h-4.2v-2.3h10.9v2.3h-4.3v12.4H205z"/><path fill="none" d="M278.1 218.8c-1.3 0-2.7.8-3 2.3h5.7c-.2-1.5-1.4-2.3-2.7-2.3zM253.8 219c-1.8 0-3.1 1.4-3.1 3.3s1.2 3.3 3.1 3.3 3.1-1.4 3.1-3.3-1.3-3.3-3.1-3.3zM266 219c-1.8 0-3.1 1.3-3.1 3.2s1.3 3.2 3.1 3.2 3.1-1.3 3.1-3.2-1.3-3.2-3.1-3.2z"/><path fill="#FFF" d="M211.2 217.1v10.3h2.3v-5.1c0-2.1 1.2-3.2 2.5-3.2.4 0 .7.1 1.1.2V217c-.3-.1-.6-.1-.9-.1-1.2 0-2.3.8-2.7 1.9V217h-2.3zM218.8 217.1v6.2c0 2.6 1.5 4.4 3.8 4.4 1.3 0 2.4-.6 3-1.6v1.4h2.3v-10.3h-2.3v5.1c0 2.2-1.1 3.4-2.5 3.4-1.3 0-2.1-1-2.1-2.7v-5.8h-2.2zM234.7 225.4c-1.4 0-2.6-.7-3.4-1.9l-1.9 1.5c.9 1.6 2.8 2.6 5.2 2.6 2.9 0 4.9-1.7 4.9-4.2 0-2.2-1.3-3.5-3.4-4.3l-1.5-.6c-1.5-.6-2.2-1-2.2-2.1s1.1-1.7 2.3-1.7c1.1 0 2 .5 2.8 1.4l1.7-1.6c-1.1-1.3-2.6-2-4.4-2-2.7 0-4.8 1.6-4.8 4.1 0 2 1.1 3.3 3.5 4.1l1.6.6c1.4.5 2.1 1.2 2.1 2.2-.1 1.2-1.1 1.9-2.5 1.9zM259 227.5v-10.4h-2.3v1.4c-.6-.8-1.8-1.6-3.3-1.6-2.8 0-5 2.4-5 5.4 0 3 2.1 5.4 5 5.4 1.5 0 2.7-.8 3.3-1.6v1.4h2.3zm-5.2-1.9c-1.8 0-3.1-1.4-3.1-3.3s1.2-3.3 3.1-3.3 3.1 1.4 3.1 3.3-1.3 3.3-3.1 3.3zM265.8 230c-1.4 0-2.6-.6-3.4-1.5l-1.4 1.6c1 1.1 2.8 1.9 4.8 1.9 3.1 0 5.4-1.6 5.4-5.2v-9.6h-2.3v1.4c-.6-.9-1.9-1.6-3.3-1.6-2.8 0-5 2.3-5 5.2 0 2.9 2.2 5.3 5 5.3 1.4 0 2.7-.7 3.3-1.6v1c0 1.9-1.4 3.1-3.1 3.1zm.2-4.7c-1.8 0-3.1-1.3-3.1-3.2s1.3-3.2 3.1-3.2 3.1 1.3 3.1 3.2-1.3 3.2-3.1 3.2zM278.1 216.9c-3.1 0-5.4 2.3-5.4 5.4 0 3.1 2.2 5.4 5.4 5.4 2.2 0 3.8-.9 4.7-2.4l-1.7-1.2c-.5.9-1.5 1.6-3 1.6-1.7 0-3.1-1.1-3.2-2.8h8.1v-.7c.1-3.5-2.1-5.3-4.9-5.3zm-3 4.2c.3-1.5 1.6-2.3 3-2.3 1.3 0 2.5.8 2.8 2.3h-5.8zM242.1 214.2v1.3c0 .9-.7 1.6-1.6 1.6h-.6v2h2.1v5c0 2.3 1.5 3.4 3.5 3.4.7 0 1.2-.1 1.7-.2v-2c-.3.1-.8.2-1.2.2-1.2 0-1.7-.5-1.7-1.8v-4.6h3v-2h-3v-2.9h-2.2zM284.5 215.4l-.5-1.2h-.4v1.9h.4V215l.5 1.1.5-1.1v1.1h.4v-1.9h-.4zM282.7 216.1v-1.5h.6v-.4h-1.5v.4h.6v1.5z"/></svg>