<?xml version="1.0" encoding="utf-8"?>
<!-- Generator: Adobe Illustrator 27.4.0, SVG Export Plug-In . SVG Version: 6.00 Build 0)  -->
<svg version="1.1" baseProfile="tiny" id="Layer_1" xmlns="http://www.w3.org/2000/svg" xmlns:xlink="http://www.w3.org/1999/xlink"
	 x="0px" y="0px" viewBox="0 0 300 250" overflow="visible" xml:space="preserve">
<g>
	<path fill="#193062" d="M26.9,28.6v0.5c0,3.8-2.6,6.6-6.5,6.6c-3.9,0-6.7-2.9-6.7-6.8c0-3.8,2.8-6.8,6.8-6.8c2.6,0,4.7,1.3,5.9,3.3
		L24,27c-0.6-1.2-1.9-2-3.5-2c-2.3,0-4,1.7-4,4c0,2.4,1.5,4.1,3.9,4.1c1.6,0,2.8-0.7,3.3-1.9h-4.2v-2.6H26.9z"/>
	<path fill="#193062" d="M37.2,31.9h-6.3c0.3,0.8,1.1,1.3,2.1,1.3c0.9,0,1.5-0.4,1.9-1l2.1,1.3c-0.8,1.4-2.3,2.2-4.1,2.2
		c-2.7,0-4.7-2.1-4.7-4.7c0-2.7,1.9-4.8,4.6-4.8c2.7,0,4.6,2,4.6,4.7C37.3,31.3,37.3,31.6,37.2,31.9z M30.8,30h3.9
		c-0.3-0.9-1-1.3-1.9-1.3C31.8,28.7,31,29.1,30.8,30z"/>
	<path fill="#193062" d="M42,26.4h2.8V29H42v3c0,0.6,0.4,1,1,1h1.8v2.5h-2.3c-1.8,0-3.1-1.2-3.1-3V29h-1.3v-1.4l2.5-3.1H42V26.4z"/>
	<path fill="#193062" d="M61.2,31c0,2.6-1.9,4.7-4.5,4.7c-0.9,0-1.7-0.3-2.3-0.7v0.5h-2.6V21.8h2.7v5.1c0.6-0.4,1.4-0.7,2.3-0.7
		C59.4,26.2,61.2,28.3,61.2,31z M58.6,31c0-1.2-0.9-2.2-2.1-2.2c-1.3,0-2.1,0.9-2.1,2.2c0,1.2,0.9,2.1,2.1,2.1
		C57.7,33.1,58.6,32.2,58.6,31z"/>
	<path fill="#193062" d="M70.5,29.8v5.7h-2.6V35c-0.6,0.5-1.2,0.7-2.2,0.7c-1.9,0-3.2-1.2-3.2-2.8c0-1.9,1.4-2.7,3.2-2.8l2.2-0.2
		v-0.1c0-0.6-0.6-1.1-1.3-1.1c-0.7,0-1.2,0.3-1.3,0.8h-2.5c0.1-1.9,1.7-3.3,3.9-3.3C68.9,26.2,70.5,27.8,70.5,29.8z M67.9,32.3v-0.6
		l-1.8,0.1c-0.7,0.1-1,0.4-1,0.8c0,0.5,0.4,0.8,1.2,0.8C67.3,33.6,67.9,33.1,67.9,32.3z"/>
	<path fill="#193062" d="M76.9,26.2c1.7,0,3.2,0.8,3.9,2.1l-2.1,1.5c-0.4-0.6-1-1-1.8-1c-1.2,0-2.1,0.9-2.1,2.1
		c0,1.2,0.9,2.1,2.1,2.1c0.8,0,1.4-0.4,1.8-1l2.2,1.5c-0.8,1.3-2.2,2.1-3.9,2.1c-2.7,0-4.7-2.1-4.7-4.7
		C72.2,28.3,74.2,26.2,76.9,26.2z"/>
	<path fill="#193062" d="M87.7,30.8l3.5,4.8h-3.2l-3-4.2v4.2h-2.7V21.8h2.7v8.4l3-3.8h3.3L87.7,30.8z"/>
	<path fill="#193062" d="M100.5,26.4h2.8V29h-2.8v3c0,0.6,0.4,1,1,1h1.8v2.5H101c-1.8,0-3.1-1.2-3.1-3V29h-1.3v-1.4l2.5-3.1h1.5
		V26.4z"/>
	<path fill="#193062" d="M109.2,26.2c2.7,0,4.7,2.1,4.7,4.8c0,2.6-2,4.7-4.7,4.7s-4.7-2.1-4.7-4.7C104.5,28.3,106.5,26.2,109.2,26.2
		z M109.2,33.1c1.2,0,2.1-0.9,2.1-2.1c0-1.2-0.9-2.1-2.1-2.1c-1.2,0-2.1,0.9-2.1,2.1C107.1,32.2,108,33.1,109.2,33.1z"/>
</g>
<g>
	<path fill="#193062" d="M17.1,55.4h2.8V58h-2.8v3c0,0.6,0.4,1,1,1h1.8v2.5h-2.3c-1.8,0-3.1-1.2-3.1-3V58h-1.3v-1.4l2.5-3.1h1.5
		V55.4z"/>
	<path fill="#193062" d="M30.1,58.9v5.7h-2.7v-5.1c0-0.9-0.6-1.6-1.5-1.6c-1,0-1.6,0.7-1.6,1.6v5.1h-2.7V50.8h2.7v5.1
		c0.6-0.4,1.3-0.7,2.2-0.7C28.6,55.2,30.1,56.8,30.1,58.9z"/>
	<path fill="#193062" d="M40.8,60.9h-6.3c0.3,0.8,1.1,1.3,2.1,1.3c0.9,0,1.5-0.4,1.9-1l2.1,1.3c-0.8,1.4-2.3,2.2-4.1,2.2
		c-2.7,0-4.7-2.1-4.7-4.7c0-2.7,1.9-4.8,4.6-4.8c2.7,0,4.6,2,4.6,4.7C40.9,60.3,40.9,60.6,40.8,60.9z M34.5,59h3.9
		c-0.3-0.9-1-1.3-1.9-1.3C35.4,57.7,34.7,58.1,34.5,59z"/>
	<path fill="#193062" d="M50.9,55.4h2.8V58h-2.8v3c0,0.6,0.4,1,1,1h1.8v2.5h-2.3c-1.8,0-3.1-1.2-3.1-3V58h-1.3v-1.4l2.5-3.1h1.5
		V55.4z"/>
	<path fill="#193062" d="M63.9,58.9v5.7h-2.7v-5.1c0-0.9-0.6-1.6-1.5-1.6c-1,0-1.6,0.7-1.6,1.6v5.1h-2.7V50.8h2.7v5.1
		c0.6-0.4,1.3-0.7,2.2-0.7C62.4,55.2,63.9,56.8,63.9,58.9z"/>
	<path fill="#193062" d="M67.5,51c1,0,1.7,0.7,1.7,1.7c0,0.9-0.7,1.7-1.7,1.7c-1,0-1.7-0.7-1.7-1.7C65.9,51.7,66.6,51,67.5,51z
		 M68.9,64.5h-2.7v-9.1h2.7V64.5z"/>
	<path fill="#193062" d="M79.6,58.8v5.7H77v-5.1c0-0.9-0.6-1.5-1.5-1.5c-0.9,0-1.5,0.7-1.5,1.5v5.1h-2.7v-9.1h2.6V56
		c0.6-0.5,1.4-0.7,2.2-0.7C78.1,55.2,79.6,56.8,79.6,58.8z"/>
	<path fill="#193062" d="M90.4,55.4v8.8c0,2.4-1.8,4.3-4.5,4.3c-2.1,0-3.7-1.2-4.2-2.9l2.4-0.9c0.3,0.8,0.9,1.2,1.8,1.2
		c1.1,0,1.9-0.7,1.9-1.8v-0.7c-0.6,0.4-1.3,0.7-2.2,0.7c-2.4,0-4.2-2-4.2-4.5c0-2.5,1.8-4.5,4.2-4.5c0.9,0,1.6,0.3,2.2,0.7v-0.5
		H90.4z M87.8,59.8c0-1.1-0.8-1.9-1.9-1.9c-1.1,0-1.9,0.8-1.9,1.9c0,1,0.8,1.9,1.9,1.9C87,61.6,87.8,60.8,87.8,59.8z"/>
	<path fill="#193062" d="M96,62.3c0.7,0,1.2-0.3,1.2-0.7c0-0.3-0.2-0.4-0.7-0.5c-0.5-0.1-1-0.1-1.6-0.2c-1.8-0.3-2.6-1.3-2.6-2.7
		c0-1.8,1.5-3.1,3.7-3.1c2.1,0,3.7,1.3,3.7,3.1h-2.6c0-0.4-0.4-0.7-1.1-0.7c-0.7,0-1.1,0.3-1.1,0.6c0,0.3,0.2,0.4,0.6,0.4
		c0.6,0.1,1,0.1,1.7,0.2c1.8,0.2,2.6,1.3,2.6,2.7c0,1.8-1.5,3.2-3.8,3.2c-2.2,0-3.8-1.3-3.8-3.1h2.6C94.8,62,95.3,62.3,96,62.3z"/>
	<path fill="#193062" d="M114.2,55.4l-4.6,12.9h-2.8l1.4-4l-3.2-8.9h2.9l1.7,4.9l1.8-4.9H114.2z"/>
	<path fill="#193062" d="M119.4,55.2c2.7,0,4.7,2.1,4.7,4.8c0,2.6-2,4.7-4.7,4.7s-4.7-2.1-4.7-4.7C114.7,57.3,116.7,55.2,119.4,55.2
		z M119.4,62.1c1.2,0,2.1-0.9,2.1-2.1c0-1.2-0.9-2.1-2.1-2.1s-2.1,0.9-2.1,2.1C117.3,61.2,118.2,62.1,119.4,62.1z"/>
	<path fill="#193062" d="M134.2,55.4v9.1h-2.6V64c-0.6,0.4-1.4,0.7-2.2,0.7c-2,0-3.5-1.5-3.5-3.6v-5.7h2.7v5.1
		c0,0.8,0.6,1.5,1.5,1.5c0.9,0,1.5-0.7,1.5-1.5v-5.1H134.2z"/>
</g>
<g>
	<path fill="#193062" d="M14.1,79.8h2.7v13.7h-2.7V79.8z"/>
	<path fill="#193062" d="M23.3,84.2c2.7,0,4.7,2.1,4.7,4.8c0,2.6-2,4.7-4.7,4.7s-4.7-2.1-4.7-4.7C18.5,86.3,20.5,84.2,23.3,84.2z
		 M23.3,91.1c1.2,0,2.1-0.9,2.1-2.1c0-1.2-0.9-2.1-2.1-2.1s-2.1,0.9-2.1,2.1C21.2,90.2,22.1,91.1,23.3,91.1z"/>
	<path fill="#193062" d="M37.7,84.4l-3.3,9.1h-2.7l-3.3-9.1h2.9l1.8,5l1.7-5H37.7z"/>
	<path fill="#193062" d="M47.2,89.9h-6.3c0.3,0.8,1.1,1.3,2.1,1.3c0.9,0,1.5-0.4,1.9-1l2.1,1.3c-0.8,1.4-2.3,2.2-4.1,2.2
		c-2.7,0-4.7-2.1-4.7-4.7c0-2.7,1.9-4.8,4.6-4.8c2.7,0,4.6,2,4.6,4.7C47.3,89.3,47.3,89.6,47.2,89.9z M40.8,88h3.9
		c-0.3-0.9-1-1.3-1.9-1.3C41.8,86.7,41,87.1,40.8,88z"/>
	<path fill="#193062" d="M50.4,90.3c1,0,1.7,0.7,1.7,1.7c0,0.9-0.7,1.7-1.7,1.7c-1,0-1.7-0.7-1.7-1.7C48.7,91,49.4,90.3,50.4,90.3z"
		/>
	<path fill="#193062" d="M66.4,91.8h-4.7l-0.6,1.7h-2.8l4.3-13.1h2.9l4.2,13.1H67L66.4,91.8z M65.6,89.1l-1.5-4.6l-1.5,4.6H65.6z"/>
	<path fill="#193062" d="M80.6,89c0,2.6-1.9,4.7-4.5,4.7c-0.9,0-1.7-0.3-2.3-0.7v4.3h-2.7V84.4h2.6V85c0.6-0.4,1.4-0.7,2.3-0.7
		C78.8,84.2,80.6,86.3,80.6,89z M78,89c0-1.2-0.9-2.2-2.1-2.2c-1.3,0-2.1,0.9-2.1,2.2c0,1.2,0.9,2.1,2.1,2.1
		C77.1,91.1,78,90.2,78,89z"/>
	<path fill="#193062" d="M91.8,89c0,2.6-1.9,4.7-4.5,4.7c-0.9,0-1.7-0.3-2.3-0.7v4.3h-2.7V84.4H85V85c0.6-0.4,1.4-0.7,2.3-0.7
		C90,84.2,91.8,86.3,91.8,89z M89.2,89c0-1.2-0.9-2.2-2.1-2.2c-1.3,0-2.1,0.9-2.1,2.2c0,1.2,0.9,2.1,2.1,2.1
		C88.3,91.1,89.2,90.2,89.2,89z"/>
	<path fill="#193062" d="M93.6,79.8h2.7v13.7h-2.7V79.8z"/>
	<path fill="#193062" d="M106.7,84.4l-4.6,12.9h-2.8l1.4-4l-3.2-8.9h2.9l1.7,4.9l1.8-4.9H106.7z"/>
	<path fill="#193062" d="M113.5,87h-1.8v-2.5h1.8v-1.8c0-1.7,1.2-2.8,2.9-2.8h2v2.5h-1.5c-0.5,0-0.7,0.3-0.7,0.7v1.4h2.3V87h-2.3
		v6.5h-2.7V87z"/>
	<path fill="#193062" d="M124,84.2c2.7,0,4.7,2.1,4.7,4.8c0,2.6-2,4.7-4.7,4.7s-4.7-2.1-4.7-4.7C119.2,86.3,121.2,84.2,124,84.2z
		 M124,91.1c1.2,0,2.1-0.9,2.1-2.1c0-1.2-0.9-2.1-2.1-2.1c-1.2,0-2.1,0.9-2.1,2.1C121.9,90.2,122.7,91.1,124,91.1z"/>
	<path fill="#193062" d="M136.2,84.4v2.6h-1.4c-1,0-1.7,0.8-1.7,1.8v4.6h-2.7v-9.1h2.6v0.8c0.5-0.6,1.3-0.8,2.1-0.8H136.2z"/>
</g>
<g>
	<path fill="#193062" d="M14.3,109.4h2.8v10.4h7.5v2.7H14.3V109.4z"/>
	<path fill="#193062" d="M27.7,109c1,0,1.7,0.7,1.7,1.7c0,0.9-0.7,1.7-1.7,1.7c-1,0-1.7-0.7-1.7-1.7C26,109.7,26.7,109,27.7,109z
		 M29,122.5h-2.7v-9.1H29V122.5z"/>
	<path fill="#193062" d="M32.3,116h-1.8v-2.5h1.8v-1.8c0-1.7,1.2-2.8,2.9-2.8h2v2.5h-1.5c-0.5,0-0.7,0.3-0.7,0.7v1.4h2.3v2.5h-2.3
		v6.5h-2.7V116z"/>
	<path fill="#193062" d="M47,118.9h-6.3c0.3,0.8,1.1,1.3,2.1,1.3c0.9,0,1.5-0.4,1.9-1l2.1,1.3c-0.8,1.4-2.3,2.2-4.1,2.2
		c-2.7,0-4.7-2.1-4.7-4.7c0-2.7,1.9-4.8,4.6-4.8c2.7,0,4.6,2,4.6,4.7C47.1,118.3,47.1,118.6,47,118.9z M40.7,117h3.9
		c-0.3-0.9-1-1.3-1.9-1.3C41.6,115.7,40.9,116.1,40.7,117z"/>
	<path fill="#193062" d="M54.3,109.4h2.8v13.1h-2.8V109.4z"/>
	<path fill="#193062" d="M68,116.8v5.7h-2.7v-5.1c0-0.9-0.6-1.5-1.5-1.5c-0.9,0-1.5,0.7-1.5,1.5v5.1h-2.7v-9.1h2.6v0.5
		c0.6-0.4,1.4-0.7,2.2-0.7C66.5,113.2,68,114.8,68,116.8z"/>
	<path fill="#193062" d="M73.6,120.3c0.7,0,1.2-0.3,1.2-0.7c0-0.3-0.2-0.4-0.7-0.5c-0.5-0.1-1-0.1-1.6-0.2c-1.8-0.3-2.6-1.3-2.6-2.7
		c0-1.8,1.5-3.1,3.7-3.1c2.1,0,3.7,1.3,3.7,3.1h-2.6c0-0.4-0.4-0.7-1.1-0.7c-0.7,0-1.1,0.3-1.1,0.6c0,0.3,0.2,0.4,0.6,0.5
		c0.6,0.1,1,0.1,1.7,0.2c1.8,0.2,2.6,1.3,2.6,2.7c0,1.8-1.5,3.2-3.8,3.2c-2.2,0-3.8-1.3-3.8-3.1h2.6C72.3,120,72.8,120.3,73.6,120.3
		z"/>
	<path fill="#193062" d="M87.4,113.4v9.1h-2.6V122c-0.6,0.5-1.4,0.7-2.2,0.7c-2,0-3.5-1.5-3.5-3.6v-5.7h2.7v5.1
		c0,0.8,0.6,1.5,1.5,1.5c0.9,0,1.5-0.7,1.5-1.5v-5.1H87.4z"/>
	<path fill="#193062" d="M95.5,113.4v2.6h-1.4c-1,0-1.7,0.8-1.7,1.8v4.6h-2.7v-9.1h2.6v0.8c0.5-0.6,1.3-0.8,2.1-0.8H95.5z"/>
	<path fill="#193062" d="M104.3,116.8v5.7h-2.6V122c-0.6,0.5-1.2,0.7-2.2,0.7c-1.9,0-3.2-1.2-3.2-2.8c0-1.9,1.4-2.7,3.2-2.8l2.2-0.2
		v-0.1c0-0.6-0.6-1.1-1.3-1.1c-0.7,0-1.2,0.3-1.3,0.8h-2.5c0.1-1.9,1.7-3.3,3.9-3.3C102.7,113.2,104.3,114.8,104.3,116.8z
		 M101.7,119.3v-0.6l-1.8,0.1c-0.7,0.1-1,0.4-1,0.8c0,0.5,0.4,0.8,1.2,0.8C101.1,120.6,101.7,120.1,101.7,119.3z"/>
	<path fill="#193062" d="M115,116.8v5.7h-2.7v-5.1c0-0.9-0.6-1.5-1.5-1.5c-0.9,0-1.5,0.7-1.5,1.5v5.1h-2.7v-9.1h2.6v0.5
		c0.6-0.4,1.4-0.7,2.2-0.7C113.5,113.2,115,114.8,115,116.8z"/>
	<path fill="#193062" d="M121.4,113.2c1.7,0,3.2,0.8,3.9,2.1l-2.1,1.5c-0.4-0.6-1-1-1.8-1c-1.2,0-2.1,0.9-2.1,2.1
		c0,1.2,0.9,2.1,2.1,2.1c0.8,0,1.4-0.4,1.8-1l2.2,1.5c-0.8,1.3-2.2,2.1-3.9,2.1c-2.7,0-4.7-2.1-4.7-4.7
		C116.7,115.3,118.7,113.2,121.4,113.2z"/>
	<path fill="#193062" d="M135.1,118.9h-6.3c0.3,0.8,1.1,1.3,2.1,1.3c0.9,0,1.5-0.4,1.9-1l2.1,1.3c-0.8,1.4-2.3,2.2-4.1,2.2
		c-2.7,0-4.7-2.1-4.7-4.7c0-2.7,1.9-4.8,4.6-4.8c2.7,0,4.6,2,4.6,4.7C135.2,118.3,135.2,118.6,135.1,118.9z M128.8,117h3.9
		c-0.3-0.9-1-1.3-1.9-1.3C129.7,115.7,129,116.1,128.8,117z"/>
</g>
<g>
	<path fill="#193062" d="M15.5,138c1,0,1.7,0.7,1.7,1.7c0,0.9-0.7,1.7-1.7,1.7c-1,0-1.7-0.7-1.7-1.7C13.8,138.7,14.5,138,15.5,138z
		 M16.8,151.5h-2.7v-9.1h2.7V151.5z"/>
	<path fill="#193062" d="M27.5,145.8v5.7h-2.7v-5.1c0-0.9-0.6-1.5-1.5-1.5c-0.9,0-1.5,0.7-1.5,1.5v5.1h-2.7v-9.1h2.6v0.5
		c0.6-0.5,1.4-0.7,2.2-0.7C26,142.2,27.5,143.8,27.5,145.8z"/>
	<path fill="#193062" d="M48.3,145.6v5.9h-2.7v-5.3c0-0.7-0.5-1.3-1.3-1.3c-0.8,0-1.3,0.6-1.3,1.3v5.3h-2.7v-5.3
		c0-0.7-0.5-1.3-1.3-1.3c-0.8,0-1.3,0.6-1.3,1.3v5.3h-2.7v-9.1h2.6v0.4c0.5-0.4,1.2-0.6,2-0.6c1,0,1.8,0.3,2.4,0.9
		c0.6-0.6,1.5-0.9,2.6-0.9C46.8,142.2,48.3,143.6,48.3,145.6z"/>
	<path fill="#193062" d="M52,138c1,0,1.7,0.7,1.7,1.7c0,0.9-0.7,1.7-1.7,1.7c-1,0-1.7-0.7-1.7-1.7C50.3,138.7,51,138,52,138z
		 M53.3,151.5h-2.7v-9.1h2.7V151.5z"/>
	<path fill="#193062" d="M64.1,145.8v5.7h-2.7v-5.1c0-0.9-0.6-1.5-1.5-1.5c-0.9,0-1.5,0.7-1.5,1.5v5.1h-2.7v-9.1h2.6v0.5
		c0.6-0.5,1.4-0.7,2.2-0.7C62.6,142.2,64.1,143.8,64.1,145.8z"/>
	<path fill="#193062" d="M74.7,142.4v9.1h-2.6V151c-0.6,0.5-1.4,0.7-2.2,0.7c-2,0-3.5-1.5-3.5-3.6v-5.7H69v5.2
		c0,0.8,0.6,1.5,1.5,1.5c0.9,0,1.5-0.7,1.5-1.5v-5.2H74.7z"/>
	<path fill="#193062" d="M80.1,142.4h2.8v2.5h-2.8v3c0,0.6,0.4,1,1,1h1.8v2.5h-2.3c-1.8,0-3.1-1.2-3.1-3V145h-1.3v-1.4l2.5-3.1h1.5
		V142.4z"/>
	<path fill="#193062" d="M93,147.9h-6.3c0.3,0.8,1.1,1.3,2.1,1.3c0.9,0,1.5-0.4,1.9-1l2.1,1.3c-0.8,1.4-2.3,2.2-4.1,2.2
		c-2.7,0-4.7-2.1-4.7-4.7c0-2.7,1.9-4.8,4.6-4.8c2.7,0,4.6,2,4.6,4.7C93.1,147.3,93.1,147.6,93,147.9z M86.6,146h3.9
		c-0.3-0.9-1-1.3-1.9-1.3C87.6,144.7,86.9,145.1,86.6,146z"/>
	<path fill="#193062" d="M98.1,149.3c0.7,0,1.2-0.3,1.2-0.7c0-0.3-0.2-0.4-0.7-0.5c-0.5-0.1-1-0.1-1.6-0.2c-1.8-0.3-2.6-1.3-2.6-2.7
		c0-1.8,1.5-3.1,3.7-3.1c2.1,0,3.7,1.3,3.7,3.1h-2.6c0-0.4-0.4-0.7-1.1-0.7c-0.7,0-1.1,0.3-1.1,0.6c0,0.3,0.2,0.4,0.6,0.5
		c0.6,0.1,1,0.1,1.7,0.2c1.8,0.2,2.6,1.3,2.6,2.7c0,1.8-1.5,3.2-3.8,3.2c-2.2,0-3.8-1.3-3.8-3.1h2.6C96.9,149,97.4,149.3,98.1,149.3
		z"/>
	<path fill="#193062" d="M105,148.3c1,0,1.7,0.7,1.7,1.7c0,0.9-0.7,1.7-1.7,1.7c-1,0-1.7-0.7-1.7-1.7
		C103.4,149,104.1,148.3,105,148.3z"/>
</g>
</svg>
