<?xml version="1.0" encoding="utf-8"?>
<!-- Generator: Adobe Illustrator 27.4.0, SVG Export Plug-In . SVG Version: 6.00 Build 0)  -->
<svg version="1.1" baseProfile="tiny" id="Layer_1" xmlns="http://www.w3.org/2000/svg" xmlns:xlink="http://www.w3.org/1999/xlink"
	 x="0px" y="0px" viewBox="0 0 300 600" overflow="visible" xml:space="preserve">
<g>
	<path fill="#193062" d="M36.4,313.4c-1.8,0-2.9,0.9-2.9,2.1c0,0.8,0.5,1.3,1.2,1.6c1.3,0.5,3.1,0.2,5.1,0.8
		c2.6,0.8,4.2,2.7,4.2,5.4c0,3.8-2.9,6.6-7.3,6.6c-4.3,0-7.5-2.6-7.5-6.4h4.2c0,1.4,1.4,2.4,3.3,2.4c2,0,3.1-1,3.1-2.3
		c0-0.9-0.6-1.4-1.3-1.7c-1.2-0.4-3.3-0.3-5.1-0.8c-2.6-0.7-4.1-2.7-4.1-5.3c0-3.7,2.9-6.3,7.1-6.3c4.2,0,7.2,2.5,7.2,6.2h-4.2
		C39.4,314.3,38.2,313.4,36.4,313.4z"/>
	<path fill="#193062" d="M51.4,315.9h4.2v3.8h-4.2v4.6c0,0.9,0.6,1.5,1.5,1.5h2.7v3.8h-3.5c-2.8,0-4.7-1.8-4.7-4.6v-5.3h-2v-2.1
		l3.8-4.7h2.2V315.9z"/>
	<path fill="#193062" d="M60.4,309.1c1.4,0,2.5,1.1,2.5,2.5c0,1.4-1.1,2.5-2.5,2.5s-2.5-1.1-2.5-2.5
		C57.9,310.2,58.9,309.1,60.4,309.1z M62.4,329.6h-4v-13.7h4V329.6z"/>
	<path fill="#193062" d="M66,308.8h4v20.7h-4V308.8z"/>
	<path fill="#193062" d="M73.6,308.8h4v20.7h-4V308.8z"/>
	<path fill="#193062" d="M93.9,326.3c1.1,0,1.8-0.4,1.8-1c0-0.4-0.4-0.7-1-0.7c-0.7-0.1-1.4-0.1-2.5-0.3c-2.7-0.4-3.9-2-3.9-4
		c0-2.7,2.2-4.7,5.6-4.7c3.2,0,5.5,1.9,5.5,4.6h-3.9c0-0.6-0.7-1-1.7-1c-1,0-1.6,0.4-1.6,0.9c0,0.4,0.3,0.6,1,0.7
		c0.9,0.1,1.4,0.1,2.6,0.2c2.7,0.3,3.9,2,3.9,4.1c0,2.7-2.3,4.8-5.7,4.8c-3.3,0-5.7-2-5.7-4.7h3.9C92.1,325.8,92.8,326.3,93.9,326.3
		z"/>
	<path fill="#193062" d="M114.9,324.2h-9.5c0.5,1.2,1.6,2,3.1,2c1.3,0,2.3-0.7,2.9-1.6l3.2,1.9c-1.2,2.1-3.4,3.4-6.1,3.4
		c-4.1,0-7.1-3.1-7.1-7.1c0-4.1,2.9-7.2,6.9-7.2c4.1,0,6.9,3,6.9,7.1C115.1,323.2,115,323.7,114.9,324.2z M105.3,321.3h5.8
		c-0.4-1.3-1.5-2-2.9-2C106.7,319.2,105.6,319.9,105.3,321.3z"/>
	<path fill="#193062" d="M129.1,321v8.6h-3.9v-0.7c-0.8,0.7-1.9,1-3.3,1c-2.8,0-4.8-1.8-4.8-4.3c0-2.8,2.1-4.1,4.8-4.3l3.3-0.3v-0.2
		c0-0.9-0.9-1.6-2-1.6c-1,0-1.8,0.5-2,1.3h-3.8c0.2-2.9,2.6-5,5.8-5C126.7,315.6,129.1,317.9,129.1,321z M125.1,324.8v-0.8l-2.7,0.2
		c-1,0.1-1.4,0.6-1.4,1.2c0,0.7,0.6,1.3,1.7,1.3C124.2,326.6,125.1,325.9,125.1,324.8z"/>
	<path fill="#193062" d="M141.3,315.9v4h-2c-1.6,0-2.6,1.2-2.6,2.7v7h-4v-13.7h3.9v1.2c0.8-1,2-1.2,3.2-1.2H141.3z"/>
	<path fill="#193062" d="M149.7,315.6c2.6,0,4.8,1.3,6,3.2l-3.2,2.3c-0.6-0.9-1.5-1.6-2.7-1.6c-1.8,0-3.1,1.4-3.1,3.2
		c0,1.8,1.3,3.2,3.1,3.2c1.2,0,2.1-0.6,2.7-1.6l3.3,2.3c-1.2,2-3.3,3.2-6,3.2c-4.1,0-7.1-3.1-7.1-7.2
		C142.6,318.7,145.6,315.6,149.7,315.6z"/>
	<path fill="#193062" d="M170.5,321v8.5h-4v-7.7c0-1.3-0.9-2.4-2.3-2.4c-1.4,0-2.4,1-2.4,2.4v7.7h-4v-20.7h4v7.8c0.9-0.7,2-1,3.3-1
		C168.2,315.6,170.5,317.9,170.5,321z"/>
	<path fill="#193062" d="M176,309.1c1.4,0,2.5,1.1,2.5,2.5c0,1.4-1.1,2.5-2.5,2.5c-1.4,0-2.5-1.1-2.5-2.5
		C173.5,310.2,174.6,309.1,176,309.1z M178,329.6h-4v-13.7h4V329.6z"/>
	<path fill="#193062" d="M194.3,321v8.6h-4v-7.8c0-1.3-0.9-2.3-2.3-2.3c-1.4,0-2.3,1-2.3,2.3v7.8h-4v-13.7h3.9v0.8
		c0.9-0.7,2-1.1,3.3-1.1C192,315.6,194.3,317.9,194.3,321z"/>
	<path fill="#193062" d="M210.6,315.9v13.3c0,3.7-2.7,6.5-6.8,6.5c-3.1,0-5.5-1.7-6.4-4.4l3.7-1.4c0.4,1.2,1.3,1.9,2.7,1.9
		c1.7,0,2.8-1.1,2.8-2.7v-1c-0.9,0.7-2,1-3.3,1c-3.7,0-6.4-3-6.4-6.7c0-3.8,2.7-6.8,6.4-6.8c1.3,0,2.5,0.4,3.4,1.1v-0.8H210.6z
		 M206.7,322.4c0-1.6-1.3-2.9-2.9-2.9c-1.7,0-2.9,1.3-2.9,2.9c0,1.6,1.3,2.8,2.9,2.8C205.5,325.2,206.7,323.9,206.7,322.4z"/>
	<path fill="#193062" d="M223.4,319.7h-2.7v-3.8h2.7v-2.7c0-2.6,1.7-4.3,4.4-4.3h3.1v3.8h-2.3c-0.7,0-1.1,0.4-1.1,1.1v2.1h3.5v3.8
		h-3.5v9.9h-4V319.7z"/>
	<path fill="#193062" d="M239.2,315.6c4.1,0,7.2,3.1,7.2,7.2c0,3.9-3,7.1-7.2,7.1c-4.1,0-7.2-3.2-7.2-7.1
		C232.1,318.7,235.1,315.6,239.2,315.6z M239.2,325.9c1.8,0,3.2-1.4,3.2-3.2c0-1.8-1.3-3.2-3.2-3.2c-1.8,0-3.2,1.4-3.2,3.2
		C236.1,324.5,237.4,325.9,239.2,325.9z"/>
	<path fill="#193062" d="M257.8,315.9v4h-2c-1.6,0-2.6,1.2-2.6,2.7v7h-4v-13.7h3.9v1.2c0.8-1,2-1.2,3.2-1.2H257.8z"/>
</g>
<g>
	<path fill="#193062" d="M30.1,348.8h4.2v15.7h11.3v4.1H30.1V348.8z"/>
	<path fill="#193062" d="M50.3,348.2c1.4,0,2.5,1.1,2.5,2.5c0,1.4-1.1,2.5-2.5,2.5s-2.5-1.1-2.5-2.5
		C47.8,349.3,48.9,348.2,50.3,348.2z M52.3,368.7h-4V355h4V368.7z"/>
	<path fill="#193062" d="M57.2,358.8h-2.7V355h2.7v-2.7c0-2.6,1.7-4.3,4.4-4.3h3.1v3.8h-2.3c-0.7,0-1.1,0.4-1.1,1.1v2.1h3.5v3.8
		h-3.5v9.9h-4V358.8z"/>
	<path fill="#193062" d="M79.5,363.2H70c0.5,1.2,1.6,2,3.1,2c1.3,0,2.3-0.7,2.9-1.6l3.2,1.9c-1.2,2.1-3.4,3.4-6.1,3.4
		c-4.1,0-7.1-3.1-7.1-7.1c0-4.1,2.9-7.2,6.9-7.2c4.1,0,6.9,3,6.9,7.1C79.7,362.3,79.6,362.8,79.5,363.2z M69.9,360.3h5.8
		c-0.4-1.3-1.5-2-2.9-2C71.3,358.3,70.3,359,69.9,360.3z"/>
	<path fill="#193062" d="M90.5,348.8h4.2v19.9h-4.2V348.8z"/>
	<path fill="#193062" d="M111.3,360.1v8.6h-4v-7.8c0-1.3-0.9-2.3-2.3-2.3c-1.4,0-2.3,1-2.3,2.3v7.8h-4V355h3.9v0.8
		c0.9-0.7,2-1.1,3.3-1.1C109,354.7,111.3,357,111.3,360.1z"/>
	<path fill="#193062" d="M119.7,365.3c1.1,0,1.8-0.4,1.8-1c0-0.4-0.4-0.7-1-0.7c-0.7-0.1-1.4-0.1-2.5-0.3c-2.7-0.4-3.9-2-3.9-4
		c0-2.7,2.2-4.7,5.6-4.7c3.2,0,5.5,1.9,5.5,4.6h-3.9c0-0.6-0.7-1-1.7-1c-1,0-1.6,0.4-1.6,0.9c0,0.4,0.3,0.6,1,0.7
		c0.9,0.1,1.4,0.1,2.6,0.2c2.7,0.3,3.9,2,3.9,4.1c0,2.7-2.3,4.8-5.7,4.8c-3.3,0-5.7-2-5.7-4.7h3.9
		C117.8,364.9,118.5,365.3,119.7,365.3z"/>
	<path fill="#193062" d="M140.5,355v13.7h-3.9v-0.8c-0.9,0.7-2,1.1-3.3,1.1c-3.1,0-5.4-2.3-5.4-5.4V355h4v7.8c0,1.3,0.9,2.3,2.3,2.3
		c1.4,0,2.3-1,2.3-2.3V355H140.5z"/>
	<path fill="#193062" d="M152.8,355v4h-2c-1.6,0-2.6,1.2-2.6,2.7v7h-4V355h3.9v1.2c0.8-1,2-1.2,3.2-1.2H152.8z"/>
	<path fill="#193062" d="M166.1,360.1v8.6h-3.9v-0.7c-0.8,0.7-1.8,1-3.3,1c-2.8,0-4.8-1.8-4.8-4.3c0-2.8,2.1-4.1,4.8-4.3l3.3-0.3
		V360c0-0.9-0.9-1.6-2-1.6c-1,0-1.8,0.5-2,1.3h-3.8c0.2-2.9,2.6-5,5.8-5C163.6,354.7,166.1,356.9,166.1,360.1z M162.1,363.8V363
		l-2.7,0.2c-1,0.1-1.4,0.6-1.4,1.2c0,0.7,0.6,1.3,1.7,1.3C161.2,365.7,162.1,365,162.1,363.8z"/>
	<path fill="#193062" d="M182.2,360.1v8.6h-4v-7.8c0-1.3-0.9-2.3-2.3-2.3c-1.4,0-2.3,1-2.3,2.3v7.8h-4V355h3.9v0.8
		c0.9-0.7,2-1.1,3.3-1.1C180,354.7,182.2,357,182.2,360.1z"/>
	<path fill="#193062" d="M191.9,354.7c2.6,0,4.8,1.3,6,3.2l-3.2,2.3c-0.6-0.9-1.5-1.6-2.7-1.6c-1.8,0-3.1,1.4-3.1,3.2
		c0,1.8,1.3,3.2,3.1,3.2c1.2,0,2.1-0.6,2.7-1.6l3.3,2.3c-1.2,2-3.3,3.2-6,3.2c-4.1,0-7.1-3.1-7.1-7.2
		C184.8,357.8,187.8,354.7,191.9,354.7z"/>
	<path fill="#193062" d="M212.7,363.2h-9.5c0.5,1.2,1.6,2,3.1,2c1.3,0,2.3-0.7,2.9-1.6l3.2,1.9c-1.2,2.1-3.4,3.4-6.1,3.4
		c-4.1,0-7.1-3.1-7.1-7.1c0-4.1,2.9-7.2,6.9-7.2c4.1,0,6.9,3,6.9,7.1C212.9,362.3,212.8,362.8,212.7,363.2z M203.1,360.3h5.8
		c-0.4-1.3-1.5-2-2.9-2C204.5,358.3,203.4,359,203.1,360.3z"/>
</g>
<g>
	<path fill="#193062" d="M34.3,394h4.2v3.8h-4.2v4.6c0,0.9,0.6,1.5,1.5,1.5h2.7v3.8H35c-2.8,0-4.7-1.8-4.7-4.6v-5.3h-2v-2.1l3.8-4.7
		h2.2V394z"/>
	<path fill="#193062" d="M54,399.2v8.5h-4V400c0-1.3-0.9-2.4-2.3-2.4c-1.4,0-2.4,1-2.4,2.4v7.7h-4V387h4v7.8c0.9-0.7,2-1,3.3-1
		C51.7,393.7,54,396,54,399.2z"/>
	<path fill="#193062" d="M68.8,399.2v8.6h-3.9V407c-0.8,0.7-1.9,1-3.3,1c-2.8,0-4.8-1.8-4.8-4.3c0-2.8,2.1-4.1,4.8-4.3l3.3-0.3V399
		c0-0.9-0.9-1.6-2-1.6c-1,0-1.8,0.5-2,1.3H57c0.2-2.9,2.6-5,5.8-5C66.4,393.7,68.8,396,68.8,399.2z M64.9,402.9v-0.8l-2.7,0.2
		c-1,0.1-1.4,0.6-1.4,1.2c0,0.7,0.6,1.3,1.7,1.3C64,404.8,64.9,404.1,64.9,402.9z"/>
	<path fill="#193062" d="M76.7,394h4.2v3.8h-4.2v4.6c0,0.9,0.6,1.5,1.5,1.5h2.7v3.8h-3.5c-2.8,0-4.7-1.8-4.7-4.6v-5.3h-2v-2.1
		l3.8-4.7h2.2V394z"/>
	<path fill="#193062" d="M92.9,397.9h-2.7V394h2.7v-2.7c0-2.6,1.7-4.3,4.4-4.3h3.1v3.8H98c-0.7,0-1.1,0.4-1.1,1.1v2.1h3.5v3.8h-3.5
		v9.9h-4V397.9z M104.8,387.3c1.4,0,2.5,1.1,2.5,2.5c0,1.4-1.1,2.5-2.5,2.5s-2.5-1.1-2.5-2.5C102.3,388.4,103.4,387.3,104.8,387.3z
		 M106.8,407.7h-4V394h4V407.7z"/>
	<path fill="#193062" d="M114.9,394h4.2v3.8h-4.2v4.6c0,0.9,0.6,1.5,1.5,1.5h2.7v3.8h-3.5c-2.8,0-4.7-1.8-4.7-4.6v-5.3h-2v-2.1
		l3.8-4.7h2.2V394z"/>
	<path fill="#193062" d="M126.8,404.4c1.1,0,1.8-0.4,1.8-1c0-0.4-0.4-0.7-1-0.7c-0.7-0.1-1.4-0.1-2.5-0.3c-2.7-0.4-3.9-2-3.9-4
		c0-2.7,2.2-4.7,5.6-4.7c3.2,0,5.5,1.9,5.5,4.6h-3.9c0-0.6-0.7-1-1.7-1c-1,0-1.6,0.4-1.6,0.9c0,0.4,0.3,0.6,1,0.7
		c0.9,0.1,1.4,0.1,2.6,0.2c2.7,0.3,3.9,2,3.9,4.1c0,2.7-2.3,4.8-5.7,4.8c-3.3,0-5.7-2-5.7-4.7h3.9
		C124.9,404,125.6,404.4,126.8,404.4z"/>
	<path fill="#193062" d="M154.2,394l-7,19.5H143l2.2-6.1l-4.8-13.4h4.4l2.6,7.4l2.7-7.4H154.2z"/>
	<path fill="#193062" d="M162.1,393.7c4.1,0,7.2,3.1,7.2,7.2c0,3.9-3,7.1-7.2,7.1c-4.1,0-7.2-3.2-7.2-7.1
		C154.9,396.9,157.9,393.7,162.1,393.7z M162.1,404.1c1.8,0,3.2-1.4,3.2-3.2c0-1.8-1.3-3.2-3.2-3.2c-1.8,0-3.2,1.4-3.2,3.2
		C158.9,402.7,160.3,404.1,162.1,404.1z"/>
	<path fill="#193062" d="M184.4,394v13.7h-3.9V407c-0.9,0.7-2,1.1-3.3,1.1c-3.1,0-5.4-2.3-5.4-5.4V394h4v7.8c0,1.3,0.9,2.3,2.3,2.3
		c1.4,0,2.3-1,2.3-2.3V394H184.4z"/>
	<path fill="#193062" d="M196.7,394v4h-2c-1.6,0-2.6,1.2-2.6,2.7v7h-4V394h3.9v1.2c0.8-1,2-1.2,3.2-1.2H196.7z"/>
</g>
<g>
	<path fill="#193062" d="M31.1,437h-2.7v-3.8h2.7v-2.7c0-2.6,1.7-4.3,4.4-4.3h3.1v3.8h-2.3c-0.7,0-1.1,0.4-1.1,1.1v2.1h3.5v3.8h-3.5
		v9.9h-4V437z"/>
	<path fill="#193062" d="M52,438.2v8.6h-3.9v-0.7c-0.8,0.7-1.9,1-3.3,1c-2.8,0-4.8-1.8-4.8-4.3c0-2.8,2.1-4.1,4.8-4.3l3.3-0.3v-0.2
		c0-0.9-0.9-1.6-2-1.6c-1,0-1.8,0.5-2,1.3h-3.8c0.2-2.9,2.6-5,5.8-5C49.6,432.8,52,435.1,52,438.2z M48.1,442v-0.8l-2.7,0.2
		c-1,0.1-1.4,0.6-1.4,1.2c0,0.7,0.6,1.3,1.7,1.3C47.2,443.9,48.1,443.2,48.1,442z"/>
	<path fill="#193062" d="M75.5,437.9v9h-4v-8.1c0-1.1-0.7-2-2-2c-1.2,0-2,0.9-2,2v8.1h-4v-8.1c0-1.1-0.7-2-2-2c-1.2,0-2,0.9-2,2v8.1
		h-4v-13.7h3.9v0.7c0.8-0.6,1.9-1,3.1-1c1.4,0,2.7,0.5,3.6,1.4c1-0.9,2.3-1.4,3.9-1.4C73.2,432.8,75.5,434.9,75.5,437.9z"/>
	<path fill="#193062" d="M81.1,426.3c1.4,0,2.5,1.1,2.5,2.5c0,1.4-1.1,2.5-2.5,2.5s-2.5-1.1-2.5-2.5
		C78.6,427.4,79.6,426.3,81.1,426.3z M83.1,446.8h-4v-13.7h4V446.8z"/>
	<path fill="#193062" d="M86.7,426.1h4v20.7h-4V426.1z"/>
	<path fill="#193062" d="M106.5,433.1l-7,19.5h-4.2l2.2-6.1l-4.8-13.4H97l2.6,7.4l2.7-7.4H106.5z"/>
	<path fill="#193062" d="M112.9,429.1c0,0.3-0.1,0.6-0.2,0.9l-1.6,4.5h-2.3l0.8-3.2c-0.9-0.3-1.5-1.2-1.5-2.3c0-1.4,1-2.4,2.4-2.4
		S112.9,427.7,112.9,429.1z"/>
	<path fill="#193062" d="M119.7,443.5c1.1,0,1.8-0.4,1.8-1c0-0.4-0.4-0.7-1-0.7c-0.7-0.1-1.4-0.1-2.5-0.3c-2.7-0.4-3.9-2-3.9-4
		c0-2.7,2.2-4.7,5.6-4.7c3.2,0,5.5,1.9,5.5,4.6h-3.9c0-0.6-0.7-1-1.7-1c-1,0-1.6,0.4-1.6,0.9c0,0.4,0.3,0.6,1,0.7
		c0.9,0.1,1.4,0.1,2.6,0.2c2.7,0.3,3.9,2,3.9,4.1c0,2.7-2.3,4.8-5.7,4.8c-3.3,0-5.7-2-5.7-4.7h3.9
		C117.9,443.1,118.6,443.5,119.7,443.5z"/>
	<path fill="#193062" d="M148.5,438.3v8.6h-4v-7.8c0-1.3-0.9-2.3-2.3-2.3c-1.4,0-2.3,1-2.3,2.3v7.8h-4v-13.7h3.9v0.8
		c0.9-0.7,2-1.1,3.3-1.1C146.3,432.8,148.5,435.1,148.5,438.3z"/>
	<path fill="#193062" d="M164.8,441.4h-9.5c0.5,1.2,1.6,2,3.1,2c1.3,0,2.3-0.7,2.9-1.6l3.2,1.9c-1.2,2.1-3.4,3.4-6.1,3.4
		c-4.1,0-7.1-3.1-7.1-7.1c0-4.1,2.9-7.2,6.9-7.2c4.1,0,6.9,3,6.9,7.1C164.9,440.4,164.9,441,164.8,441.4z M155.1,438.5h5.8
		c-0.4-1.3-1.5-2-2.9-2C156.6,436.5,155.5,437.2,155.1,438.5z"/>
	<path fill="#193062" d="M180.3,441.4h-9.5c0.5,1.2,1.6,2,3.1,2c1.3,0,2.3-0.7,2.9-1.6l3.2,1.9c-1.2,2.1-3.4,3.4-6.1,3.4
		c-4.1,0-7.1-3.1-7.1-7.1c0-4.1,2.9-7.2,6.9-7.2c4.1,0,6.9,3,6.9,7.1C180.4,440.4,180.4,441,180.3,441.4z M170.7,438.5h5.8
		c-0.4-1.3-1.5-2-2.9-2C172.1,436.5,171,437.2,170.7,438.5z"/>
	<path fill="#193062" d="M196.4,426.1v20.7h-3.9V446c-0.9,0.7-2.1,1.1-3.5,1.1c-4,0-6.8-3.2-6.8-7.1c0-4.1,2.8-7.2,6.8-7.2
		c1.3,0,2.5,0.4,3.4,1v-7.8H196.4z M192.5,440c0-1.8-1.3-3.3-3.2-3.3c-1.8,0-3.1,1.4-3.1,3.3c0,1.8,1.3,3.2,3.1,3.2
		C191.2,443.2,192.5,441.8,192.5,440z"/>
	<path fill="#193062" d="M204.9,443.5c1.1,0,1.8-0.4,1.8-1c0-0.4-0.4-0.7-1-0.7c-0.7-0.1-1.4-0.1-2.5-0.3c-2.7-0.4-3.9-2-3.9-4
		c0-2.7,2.2-4.7,5.5-4.7c3.2,0,5.5,1.9,5.5,4.6h-3.9c0-0.6-0.7-1-1.7-1c-1,0-1.6,0.4-1.6,0.9c0,0.4,0.3,0.6,1,0.7
		c0.9,0.1,1.4,0.1,2.6,0.2c2.7,0.3,3.9,2,3.9,4.1c0,2.7-2.3,4.8-5.7,4.8c-3.3,0-5.7-2-5.7-4.7h3.9
		C203,443.1,203.8,443.5,204.9,443.5z"/>
	<path fill="#193062" d="M215.7,440.7v-0.1c0-2.4,0.5-3.5,2.5-5.3c1-0.9,1.6-1.6,1.6-2.6c0-1.1-0.8-1.9-1.8-1.9
		c-1.1,0-1.9,0.8-1.9,1.9h-4.2c0-3.5,2.6-6.1,6.1-6.1c3.5,0,6,2.6,6,5.9c0,2.5-1.1,3.8-2.9,5.4c-1.2,1.1-1.6,1.7-1.6,2.7v0.1H215.7z
		 M217.6,442c1.4,0,2.5,1.1,2.5,2.5c0,1.4-1.1,2.5-2.5,2.5c-1.4,0-2.5-1.1-2.5-2.5C215.1,443.1,216.1,442,217.6,442z"/>
</g>
<g>
	<path fill="#193062" d="M34.4,470.2h-5.7v-4.1h15.6v4.1h-5.7v15.7h-4.2V470.2z"/>
	<path fill="#193062" d="M53,472.2v4h-2c-1.6,0-2.6,1.2-2.6,2.7v7h-4v-13.7h3.9v1.2c0.8-1,2-1.2,3.2-1.2H53z"/>
	<path fill="#193062" d="M67.8,472.2v13.7h-3.9v-0.8c-0.9,0.7-2,1.1-3.3,1.1c-3.1,0-5.4-2.3-5.4-5.4v-8.6h4v7.8
		c0,1.3,0.9,2.3,2.3,2.3c1.4,0,2.3-1,2.3-2.3v-7.8H67.8z"/>
	<path fill="#193062" d="M76.3,482.6c1.1,0,1.8-0.4,1.8-1c0-0.4-0.4-0.7-1-0.7c-0.7-0.1-1.4-0.1-2.5-0.3c-2.7-0.4-3.9-2-3.9-4
		c0-2.7,2.2-4.7,5.6-4.7c3.2,0,5.5,1.9,5.5,4.6h-3.9c0-0.6-0.7-1-1.7-1c-1,0-1.6,0.4-1.6,0.9c0,0.4,0.3,0.6,1,0.7
		c0.9,0.1,1.4,0.1,2.6,0.2c2.7,0.3,3.9,2,3.9,4.1c0,2.7-2.3,4.8-5.7,4.8c-3.3,0-5.7-2-5.7-4.7h3.9C74.4,482.2,75.1,482.6,76.3,482.6
		z"/>
	<path fill="#193062" d="M89.1,472.2h4.2v3.8h-4.2v4.6c0,0.9,0.6,1.5,1.5,1.5h2.7v3.8h-3.5c-2.8,0-4.7-1.8-4.7-4.6V476h-2V474
		l3.8-4.7h2.2V472.2z"/>
	<path fill="#193062" d="M107.8,470.2h-5.7v-4.1h15.6v4.1h-5.7v15.7h-4.2V470.2z"/>
	<path fill="#193062" d="M126.5,472.2v4h-2c-1.6,0-2.6,1.2-2.6,2.7v7h-4v-13.7h3.9v1.2c0.8-1,2-1.2,3.2-1.2H126.5z"/>
	<path fill="#193062" d="M141.3,472.2v13.7h-3.9v-0.8c-0.9,0.7-2,1.1-3.3,1.1c-3.1,0-5.4-2.3-5.4-5.4v-8.6h4v7.8
		c0,1.3,0.9,2.3,2.3,2.3c1.4,0,2.3-1,2.3-2.3v-7.8H141.3z"/>
	<path fill="#193062" d="M151.5,469.8c-1.8,0-2.9,0.9-2.9,2.1c0,0.8,0.5,1.3,1.2,1.6c1.3,0.5,3.1,0.2,5.1,0.8
		c2.6,0.8,4.2,2.7,4.2,5.4c0,3.8-2.9,6.6-7.3,6.6c-4.3,0-7.5-2.6-7.5-6.4h4.2c0,1.4,1.4,2.4,3.3,2.4c2,0,3.1-1,3.1-2.3
		c0-0.9-0.6-1.4-1.3-1.7c-1.2-0.4-3.3-0.3-5.1-0.8c-2.6-0.7-4.1-2.7-4.1-5.3c0-3.7,2.9-6.3,7.1-6.3c4.2,0,7.2,2.5,7.2,6.2h-4.2
		C154.5,470.6,153.3,469.8,151.5,469.8z"/>
	<path fill="#193062" d="M166.5,472.2h4.2v3.8h-4.2v4.6c0,0.9,0.6,1.5,1.5,1.5h2.7v3.8h-3.5c-2.8,0-4.7-1.8-4.7-4.6V476h-2V474
		l3.8-4.7h2.2V472.2z"/>
	<path fill="#193062" d="M184.7,477.3v8.6h-3.9v-0.7c-0.8,0.7-1.8,1-3.3,1c-2.8,0-4.8-1.8-4.8-4.3c0-2.8,2.1-4.1,4.8-4.3l3.3-0.3
		v-0.2c0-0.9-0.9-1.6-2-1.6c-1,0-1.8,0.5-2,1.3H173c0.2-2.9,2.6-5,5.8-5C182.3,471.9,184.7,474.2,184.7,477.3z M180.8,481.1v-0.8
		l-2.7,0.2c-1,0.1-1.4,0.6-1.4,1.2c0,0.7,0.6,1.3,1.7,1.3C179.9,483,180.8,482.3,180.8,481.1z"/>
	<path fill="#193062" d="M201,472.2v13.3c0,3.7-2.7,6.5-6.8,6.5c-3.1,0-5.5-1.7-6.4-4.4l3.7-1.4c0.4,1.2,1.3,1.9,2.7,1.9
		c1.7,0,2.8-1.1,2.8-2.7v-1c-0.9,0.7-2,1-3.3,1c-3.7,0-6.4-3-6.4-6.7c0-3.8,2.7-6.8,6.4-6.8c1.3,0,2.5,0.4,3.4,1.1v-0.8H201z
		 M197.1,478.7c0-1.6-1.3-2.9-2.9-2.9c-1.7,0-2.9,1.3-2.9,2.9c0,1.6,1.3,2.8,2.9,2.8C195.9,481.6,197.1,480.3,197.1,478.7z"/>
	<path fill="#193062" d="M217.3,480.5h-9.5c0.5,1.2,1.6,2,3.1,2c1.3,0,2.3-0.7,2.9-1.6l3.2,1.9c-1.2,2.1-3.4,3.4-6.1,3.4
		c-4.1,0-7.1-3.1-7.1-7.1c0-4.1,2.9-7.2,6.9-7.2c4.1,0,6.9,3,6.9,7.1C217.5,479.5,217.4,480,217.3,480.5z M207.7,477.6h5.8
		c-0.4-1.3-1.5-2-2.9-2C209.1,475.6,208,476.3,207.7,477.6z"/>
	<path fill="#193062" d="M221.5,468.3h-2.2v-2.2h6.7v2.2h-2.2v5.6h-2.3V468.3z M227.1,466.1h2.3l1.8,3.6l1.7-3.6h2.3v7.8h-2.3v-3.5
		l-1.7,3.7l-1.8-3.6v3.5h-2.2V466.1z"/>
</g>
</svg>
