<?xml version="1.0" encoding="utf-8"?>
<!-- Generator: Adobe Illustrator 27.4.0, SVG Export Plug-In . SVG Version: 6.00 Build 0)  -->
<svg version="1.1" baseProfile="tiny" id="Layer_1" xmlns="http://www.w3.org/2000/svg" xmlns:xlink="http://www.w3.org/1999/xlink"
	 x="0px" y="0px" viewBox="0 0 300 600" overflow="visible" xml:space="preserve">
<rect x="65.4" y="26" fill="#FAE07E" width="26.2" height="7.3"/>
<rect x="93.8" y="26" fill="#FFFFFF" width="6.3" height="7.3"/>
<rect x="65.4" y="35.2" fill="#FAE07E" width="19.6" height="7.2"/>
<rect x="87.2" y="35.2" fill="#FFFFFF" width="12.9" height="7.2"/>
<rect x="65.4" y="44.3" fill="#FAE07E" width="12.9" height="7.2"/>
<rect x="80.6" y="44.3" fill="#FFFFFF" width="19.6" height="7.2"/>
<rect x="65.4" y="53.5" fill="#FAE07E" width="6.3" height="7.2"/>
<rect x="74" y="53.5" fill="#FFFFFF" width="26.2" height="7.2"/>
<polygon fill="#FFFFFF" points="120.6,36.5 114.7,36.5 114.7,33.3 129.7,33.3 129.7,36.5 123.9,36.5 123.9,53.5 120.6,53.5 "/>
<g>
	<path fill="none" d="M187.5,41.8c-2.5,0-4.2,2-4.2,4.5s1.7,4.5,4.2,4.5c2.5,0,4.2-2,4.2-4.5S190,41.8,187.5,41.8z"/>
	<path fill="none" d="M220.8,41.6c-1.8,0-3.7,1.1-4.1,3.2h7.9C224.3,42.7,222.6,41.6,220.8,41.6z"/>
	<path fill="none" d="M204.3,41.8c-2.4,0-4.2,1.8-4.2,4.3s1.8,4.3,4.2,4.3s4.2-1.8,4.2-4.3S206.7,41.8,204.3,41.8z"/>
	<path fill="#FFFFFF" d="M129,39.2v14.2h3.1v-6.9c0-2.8,1.6-4.3,3.4-4.3c0.6,0,1,0.1,1.6,0.3v-3.2c-0.4-0.1-0.8-0.1-1.2-0.1
		c-1.6,0-3.2,1.1-3.7,2.7v-2.5H129z"/>
	<path fill="#FFFFFF" d="M139.5,39.2v8.5c0,3.6,2,6,5.3,6c1.8,0,3.3-0.8,4.1-2.2v1.9h3.1V39.2h-3.1v7c0,3-1.4,4.7-3.5,4.7
		c-1.8,0-2.8-1.4-2.8-3.7v-8H139.5z"/>
	<path fill="#FFFFFF" d="M161.3,50.7c-2,0-3.6-1-4.7-2.6l-2.6,2.1c1.2,2.2,3.9,3.6,7.2,3.6c3.9,0,6.7-2.3,6.7-5.8
		c0-3-1.8-4.8-4.7-5.9l-2-0.8c-2.1-0.8-3.1-1.4-3.1-2.9c0-1.4,1.5-2.3,3.2-2.3c1.6,0,2.8,0.7,3.8,1.9l2.3-2.2
		c-1.5-1.8-3.6-2.8-6.1-2.8c-3.7,0-6.5,2.2-6.5,5.7c0,2.8,1.6,4.5,4.8,5.7l2.2,0.8c1.9,0.7,2.9,1.6,2.9,3.1
		C164.5,49.7,163.1,50.7,161.3,50.7z"/>
	<path fill="#FFFFFF" d="M194.6,53.5V39.2h-3.1v1.9c-0.8-1.1-2.5-2.2-4.5-2.2c-3.9,0-6.8,3.3-6.8,7.4s2.9,7.4,6.8,7.4
		c2,0,3.7-1.1,4.5-2.2v1.9H194.6z M187.5,50.9c-2.5,0-4.2-2-4.2-4.5s1.7-4.5,4.2-4.5c2.5,0,4.2,2,4.2,4.5S190,50.9,187.5,50.9z"/>
	<path fill="#FFFFFF" d="M204,56.9c-1.9,0-3.5-0.8-4.7-2.1l-1.9,2.2c1.4,1.6,3.9,2.6,6.6,2.6c4.2,0,7.4-2.2,7.4-7.2V39.2h-3.1v1.9
		c-0.9-1.2-2.6-2.2-4.5-2.2c-3.8,0-6.8,3.2-6.8,7.2c0,4,3,7.2,6.8,7.2c2,0,3.7-1,4.5-2.2v1.3C208.2,55.3,206.3,56.9,204,56.9z
		 M204.3,50.5c-2.4,0-4.2-1.8-4.2-4.3s1.8-4.3,4.2-4.3s4.2,1.8,4.2,4.3S206.7,50.5,204.3,50.5z"/>
	<path fill="#FFFFFF" d="M220.9,39c-4.3,0-7.4,3.2-7.4,7.4c0,4.3,3.1,7.4,7.4,7.4c3,0,5.2-1.3,6.5-3.3l-2.4-1.7
		c-0.7,1.2-2.1,2.2-4,2.2c-2.4,0-4.2-1.5-4.4-3.9h11.1c0-0.5,0-0.7,0-1C227.7,41.4,224.6,39,220.9,39z M216.7,44.8
		c0.4-2.1,2.3-3.2,4.1-3.2c1.8,0,3.5,1.1,3.8,3.2H216.7z"/>
	<path fill="#FFFFFF" d="M171.4,35.3l0,1.8c0,1.2-1,2.2-2.2,2.2l-0.8,0V42h2.9v6.8c0,3.2,2.1,4.7,4.8,4.7c1,0,1.7-0.1,2.3-0.3v-2.8
		c-0.5,0.2-1.1,0.3-1.7,0.3c-1.6,0-2.4-0.7-2.4-2.4V42h4v-2.8h-4v-3.9H171.4z"/>
	<polygon fill="#FFFFFF" points="229.6,36.8 228.9,35.3 228.4,35.3 228.4,37.8 228.9,37.8 228.9,36.3 229.6,37.8 230.4,36.3 
		230.4,37.8 230.9,37.8 230.9,35.3 230.4,35.3 	"/>
	<polygon fill="#FFFFFF" points="227.2,37.8 227.2,35.8 228,35.8 228,35.3 225.9,35.3 225.9,35.8 226.7,35.8 226.7,37.8 	"/>
</g>
</svg>
