<?xml version="1.0" encoding="utf-8"?>
<!-- Generator: Adobe Illustrator 27.4.0, SVG Export Plug-In . SVG Version: 6.00 Build 0)  -->
<svg version="1.1" baseProfile="tiny" id="Layer_1" xmlns="http://www.w3.org/2000/svg" xmlns:xlink="http://www.w3.org/1999/xlink"
	 x="0px" y="0px" viewBox="0 0 300 250" overflow="visible" xml:space="preserve">
<path fill="#193062" d="M32.5,23.4v0.6c0,1.6-0.3,3.1-1,4.3c-0.7,1.3-1.7,2.3-2.9,3s-2.7,1.1-4.3,1.1c-1.6,0-3.1-0.4-4.4-1.1
	c-1.3-0.7-2.3-1.8-3-3.1c-0.7-1.3-1.1-2.8-1.1-4.4c0-1.6,0.4-3.1,1.1-4.4s1.8-2.4,3.1-3.1c1.3-0.8,2.8-1.1,4.4-1.1
	c1.1,0,2.1,0.2,3.1,0.5c1,0.3,1.8,0.8,2.6,1.5s1.4,1.4,1.9,2.2L29,21c-0.4-0.8-1.1-1.5-1.9-2s-1.8-0.7-2.8-0.7c-1,0-1.9,0.2-2.8,0.7
	c-0.8,0.5-1.4,1.1-1.9,1.9c-0.5,0.8-0.7,1.7-0.7,2.8c0,1.1,0.2,2,0.7,2.9s1.1,1.5,1.8,1.9c0.8,0.5,1.7,0.7,2.8,0.7
	c1.1,0,2.1-0.2,2.9-0.7s1.4-1.2,1.8-2h-5.7v-3.1H32.5z"/>
<path fill="#193062" d="M40.2,20.3c1.1,0,2.2,0.3,3.1,0.8c0.9,0.5,1.6,1.3,2.2,2.2c0.5,0.9,0.8,1.9,0.8,3.1s-0.3,2.1-0.8,3.1
	c-0.5,0.9-1.2,1.7-2.2,2.2c-0.9,0.5-2,0.8-3.1,0.8s-2.2-0.3-3.1-0.8c-0.9-0.5-1.6-1.3-2.2-2.2c-0.5-0.9-0.8-1.9-0.8-3.1
	s0.3-2.1,0.8-3.1c0.5-0.9,1.2-1.7,2.2-2.2C38,20.5,39,20.3,40.2,20.3z M40.2,29.3c0.6,0,1.1-0.1,1.5-0.4s0.8-0.6,1-1.1
	c0.3-0.5,0.4-1,0.4-1.5s-0.1-1.1-0.4-1.5c-0.3-0.5-0.6-0.8-1-1.1s-0.9-0.4-1.5-0.4c-0.6,0-1.1,0.1-1.5,0.4c-0.4,0.3-0.8,0.6-1,1.1
	c-0.3,0.5-0.4,1-0.4,1.5s0.1,1.1,0.4,1.5c0.3,0.5,0.6,0.8,1,1.1C39.1,29.2,39.6,29.3,40.2,29.3z"/>
<path fill="#193062" d="M17.3,48.5H15v-3h2.3v-2.4c0-0.7,0.1-1.3,0.4-1.9c0.3-0.5,0.7-0.9,1.3-1.2c0.5-0.3,1.2-0.4,1.9-0.4h2.5v3h-2
	c-0.3,0-0.6,0.1-0.7,0.3c-0.2,0.2-0.3,0.4-0.3,0.8v1.9h3v3h-3v8.6h-3.1V48.5z"/>
<path fill="#193062" d="M30.4,45.3c1.1,0,2.2,0.3,3.1,0.8c0.9,0.5,1.6,1.3,2.2,2.2c0.5,0.9,0.8,1.9,0.8,3.1s-0.3,2.1-0.8,3.1
	c-0.5,0.9-1.2,1.7-2.2,2.2c-0.9,0.5-2,0.8-3.1,0.8s-2.2-0.3-3.1-0.8c-0.9-0.5-1.6-1.3-2.2-2.2c-0.5-0.9-0.8-1.9-0.8-3.1
	s0.3-2.1,0.8-3.1c0.5-0.9,1.2-1.7,2.2-2.2C28.3,45.5,29.3,45.3,30.4,45.3z M30.4,54.3c0.6,0,1.1-0.1,1.5-0.4s0.8-0.6,1-1.1
	c0.3-0.5,0.4-1,0.4-1.5s-0.1-1.1-0.4-1.5c-0.3-0.5-0.6-0.8-1-1.1s-0.9-0.4-1.5-0.4c-0.6,0-1.1,0.1-1.5,0.4c-0.4,0.3-0.8,0.6-1,1.1
	c-0.3,0.5-0.4,1-0.4,1.5s0.1,1.1,0.4,1.5c0.3,0.5,0.6,0.8,1,1.1C29.4,54.2,29.9,54.3,30.4,54.3z"/>
<path fill="#193062" d="M46,45.5v3.1h-1.7c-0.4,0-0.9,0.1-1.2,0.3c-0.4,0.2-0.6,0.5-0.8,0.9C42.1,50.2,42,50.6,42,51v6.1h-3.1V45.5
	h3.1v1.1c0.3-0.4,0.7-0.7,1.2-0.9c0.5-0.2,1-0.3,1.6-0.3H46z"/>
<path fill="#193062" d="M64,45.5l-3.8,11.6H57l-1.6-5.4l-1.7,5.4h-3.2l-3.8-11.6h3.4l2.2,7l2.2-7h2l2.1,6.8l2.2-6.8H64z"/>
<path fill="#193062" d="M74.8,49.8v7.3h-3.1v-0.7c-0.4,0.3-0.8,0.6-1.3,0.7s-1,0.2-1.7,0.2c-0.8,0-1.5-0.2-2.1-0.5
	c-0.6-0.3-1.1-0.7-1.4-1.3c-0.3-0.5-0.5-1.2-0.5-1.9c0-1.1,0.4-2,1.1-2.6c0.7-0.6,1.7-0.9,2.9-1l2.9-0.3v-0.2c0-0.3-0.1-0.5-0.2-0.8
	s-0.4-0.4-0.7-0.6c-0.3-0.1-0.6-0.2-0.9-0.2c-0.5,0-0.9,0.1-1.2,0.3c-0.3,0.2-0.5,0.5-0.6,0.9h-3c0.1-0.8,0.3-1.5,0.7-2.1
	s1-1.1,1.7-1.5c0.7-0.4,1.5-0.5,2.4-0.5c1,0,1.8,0.2,2.6,0.6c0.7,0.4,1.3,0.9,1.7,1.6C74.6,48.1,74.8,48.9,74.8,49.8z M71.7,53v-0.8
	l-2.4,0.2c-0.5,0-0.8,0.2-1.1,0.4s-0.3,0.5-0.3,0.8s0.1,0.6,0.4,0.8c0.3,0.2,0.7,0.3,1.2,0.3c0.7,0,1.2-0.2,1.6-0.5
	C71.5,54,71.7,53.6,71.7,53z"/>
<path fill="#193062" d="M85,45.5v3.1h-1.7c-0.4,0-0.9,0.1-1.2,0.3c-0.4,0.2-0.6,0.5-0.8,0.9C81.1,50.2,81,50.6,81,51v6.1h-3.1V45.5
	h3.1v1.1c0.3-0.4,0.7-0.7,1.2-0.9c0.5-0.2,1-0.3,1.6-0.3H85z"/>
<path fill="#193062" d="M98.2,39.6v17.5h-3.1v-0.8c-0.4,0.3-0.9,0.6-1.4,0.8c-0.5,0.2-1.1,0.3-1.7,0.3c-1.1,0-2.1-0.3-2.9-0.8
	c-0.9-0.5-1.6-1.3-2-2.2c-0.5-0.9-0.7-1.9-0.7-3c0-1.1,0.2-2.2,0.7-3.1c0.5-0.9,1.2-1.7,2-2.2s1.9-0.8,3-0.8c0.6,0,1.2,0.1,1.7,0.3
	c0.5,0.2,1,0.4,1.4,0.7v-6.7H98.2z M95.2,51.3c0-0.6-0.1-1.1-0.4-1.6c-0.2-0.5-0.6-0.8-1-1.1c-0.4-0.3-1-0.4-1.5-0.4
	c-0.5,0-1,0.1-1.5,0.4c-0.4,0.3-0.8,0.6-1,1.1s-0.4,1-0.4,1.5c0,0.6,0.1,1.1,0.4,1.5s0.6,0.8,1,1.1c0.4,0.3,0.9,0.4,1.5,0.4
	c0.6,0,1.1-0.1,1.5-0.4s0.8-0.6,1-1.1S95.2,51.9,95.2,51.3z"/>
<path fill="#193062" d="M32.2,70.5l-3.8,11.6h-3.2l-1.6-5.4l-1.7,5.4h-3.2l-3.8-11.6h3.4l2.2,7l2.2-7h2l2.1,6.8l2.2-6.8H32.2z"/>
<path fill="#193062" d="M35.6,64.8c0.4,0,0.7,0.1,1,0.3c0.3,0.2,0.5,0.4,0.7,0.7s0.3,0.6,0.3,1s-0.1,0.7-0.3,1s-0.4,0.5-0.7,0.7
	c-0.3,0.2-0.6,0.3-1,0.3s-0.7-0.1-1-0.3c-0.3-0.2-0.5-0.4-0.7-0.7s-0.3-0.6-0.3-1s0.1-0.7,0.3-1s0.4-0.5,0.7-0.7
	C34.9,64.9,35.2,64.8,35.6,64.8z M37.2,82.1H34V70.5h3.1V82.1z"/>
<path fill="#193062" d="M43.8,70.5h3.6v3h-3.6v4.3c0,0.4,0.1,0.7,0.4,1c0.2,0.2,0.6,0.4,1,0.4h2.3v3h-2.9c-0.7,0-1.4-0.2-2-0.5
	c-0.6-0.3-1-0.8-1.3-1.3s-0.5-1.2-0.5-2v-4.9H39v-1.6l3-3.8h1.7V70.5z"/>
<path fill="#193062" d="M60.4,74.9v7.2h-3.1v-6.6c0-0.4-0.1-0.8-0.3-1.1s-0.4-0.6-0.7-0.8c-0.3-0.2-0.7-0.3-1.1-0.3
	c-0.4,0-0.8,0.1-1.1,0.3c-0.3,0.2-0.6,0.5-0.8,0.8c-0.2,0.3-0.3,0.7-0.3,1.1v6.6h-3.1V64.6h3.1v6.6c0.4-0.3,0.8-0.5,1.3-0.7
	s1-0.2,1.6-0.2c0.9,0,1.7,0.2,2.3,0.6c0.7,0.4,1.2,1,1.6,1.7C60.2,73.2,60.4,74,60.4,74.9z"/>
<path fill="#193062" d="M21.4,95.3c1.1,0,2,0.2,2.9,0.7c0.9,0.5,1.6,1.1,2.1,2l-2.5,1.8c-0.3-0.4-0.6-0.8-1-1
	c-0.4-0.2-0.9-0.4-1.4-0.4c-0.5,0-1,0.1-1.5,0.4s-0.8,0.6-1,1.1c-0.2,0.5-0.4,1-0.4,1.5s0.1,1.1,0.4,1.5c0.2,0.5,0.6,0.8,1,1.1
	c0.4,0.3,0.9,0.4,1.5,0.4c0.5,0,1-0.1,1.4-0.4s0.8-0.6,1-1l2.5,1.8c-0.5,0.8-1.2,1.5-2.1,2c-0.9,0.5-1.8,0.7-2.9,0.7
	c-1.1,0-2.2-0.3-3.1-0.8c-0.9-0.5-1.6-1.3-2.1-2.2c-0.5-0.9-0.8-1.9-0.8-3.1s0.3-2.1,0.8-3.1c0.5-0.9,1.2-1.7,2.1-2.2
	C19.2,95.5,20.3,95.3,21.4,95.3z M33.6,95.3c1.1,0,2.2,0.3,3.1,0.8c0.9,0.5,1.6,1.3,2.2,2.2c0.5,0.9,0.8,1.9,0.8,3.1
	c0,1.1-0.3,2.1-0.8,3.1c-0.5,0.9-1.2,1.7-2.2,2.2c-0.9,0.5-2,0.8-3.1,0.8s-2.2-0.3-3.1-0.8c-0.9-0.5-1.6-1.3-2.2-2.2
	c-0.5-0.9-0.8-1.9-0.8-3.1c0-1.1,0.3-2.1,0.8-3.1c0.5-0.9,1.2-1.7,2.2-2.2C31.5,95.5,32.5,95.3,33.6,95.3z M33.6,104.3
	c0.6,0,1.1-0.1,1.5-0.4c0.4-0.3,0.8-0.6,1-1.1c0.3-0.5,0.4-1,0.4-1.5c0-0.6-0.1-1.1-0.4-1.5c-0.3-0.5-0.6-0.8-1-1.1
	c-0.4-0.3-0.9-0.4-1.5-0.4c-0.6,0-1.1,0.1-1.5,0.4c-0.4,0.3-0.8,0.6-1,1.1c-0.3,0.5-0.4,1-0.4,1.5c0,0.6,0.1,1.1,0.4,1.5
	c0.3,0.5,0.6,0.8,1,1.1C32.6,104.2,33.1,104.3,33.6,104.3z M52.6,99.9v7.2h-3.1v-6.6c0-0.4-0.1-0.8-0.3-1.1
	c-0.2-0.3-0.4-0.6-0.7-0.8s-0.7-0.3-1.1-0.3c-0.4,0-0.8,0.1-1.1,0.3s-0.6,0.5-0.8,0.8c-0.2,0.3-0.3,0.7-0.3,1.1v6.6H42V95.5h3.1v0.7
	c0.4-0.3,0.8-0.6,1.3-0.7c0.5-0.2,1-0.3,1.6-0.3c0.9,0,1.7,0.2,2.3,0.6c0.7,0.4,1.2,1,1.6,1.7C52.4,98.2,52.6,99,52.6,99.9z
	 M56.6,98.5h-2.3v-3h2.3v-2.4c0-0.7,0.1-1.3,0.4-1.9c0.3-0.5,0.7-0.9,1.3-1.2c0.5-0.3,1.2-0.4,1.9-0.4h2.5v3h-2
	c-0.3,0-0.6,0.1-0.7,0.3s-0.3,0.4-0.3,0.8v1.9h3v3h-3v8.6h-3.1V98.5z M66.4,89.8c0.4,0,0.7,0.1,1,0.3c0.3,0.2,0.5,0.4,0.7,0.7
	c0.2,0.3,0.3,0.6,0.3,1c0,0.4-0.1,0.7-0.3,1c-0.2,0.3-0.4,0.5-0.7,0.7c-0.3,0.2-0.6,0.3-1,0.3c-0.4,0-0.7-0.1-1-0.3
	c-0.3-0.2-0.5-0.4-0.7-0.7c-0.2-0.3-0.3-0.6-0.3-1c0-0.4,0.1-0.7,0.3-1c0.2-0.3,0.4-0.5,0.7-0.7C65.7,89.9,66,89.8,66.4,89.8z
	 M67.9,107.1h-3.1V95.5h3.1V107.1z M82.3,89.6v17.5h-3.1v-0.8c-0.4,0.3-0.9,0.6-1.4,0.8c-0.5,0.2-1.1,0.3-1.7,0.3
	c-1.1,0-2.1-0.3-2.9-0.8c-0.9-0.5-1.6-1.3-2-2.2c-0.5-0.9-0.7-1.9-0.7-3c0-1.1,0.2-2.2,0.7-3.1c0.5-0.9,1.2-1.7,2-2.2
	c0.9-0.5,1.9-0.8,3-0.8c0.6,0,1.2,0.1,1.7,0.3c0.5,0.2,1,0.4,1.4,0.7v-6.7H82.3z M79.2,101.3c0-0.6-0.1-1.1-0.4-1.6s-0.6-0.8-1-1.1
	c-0.4-0.3-1-0.4-1.5-0.4c-0.5,0-1,0.1-1.5,0.4c-0.4,0.3-0.8,0.6-1,1.1c-0.2,0.5-0.4,1-0.4,1.5c0,0.6,0.1,1.1,0.4,1.5
	c0.2,0.5,0.6,0.8,1,1.1c0.4,0.3,0.9,0.4,1.5,0.4c0.6,0,1.1-0.1,1.5-0.4c0.4-0.3,0.8-0.6,1-1.1C79.1,102.4,79.2,101.9,79.2,101.3z
	 M96.2,101.3c0,0.4,0,0.8-0.1,1.2h-8.3c0.2,0.6,0.6,1.1,1.1,1.4c0.5,0.3,1.1,0.5,1.8,0.5c0.6,0,1.1-0.1,1.5-0.4
	c0.4-0.3,0.8-0.6,1.1-1l2.5,1.5c-0.5,0.9-1.2,1.6-2.1,2.1s-1.9,0.8-3,0.8c-1.1,0-2.2-0.3-3.1-0.8c-0.9-0.5-1.6-1.3-2.1-2.2
	c-0.5-0.9-0.8-1.9-0.8-3.1c0-1.1,0.2-2.2,0.7-3.1c0.5-0.9,1.2-1.7,2.1-2.2c0.9-0.5,1.9-0.8,3-0.8s2.1,0.3,3,0.8
	c0.9,0.5,1.6,1.2,2.1,2.2C96,99.1,96.2,100.2,96.2,101.3L96.2,101.3z M87.7,100.1h5.4c-0.2-0.6-0.5-1.1-0.9-1.4
	c-0.5-0.3-1-0.5-1.7-0.5c-0.7,0-1.3,0.2-1.8,0.5S87.9,99.5,87.7,100.1z M109.1,99.9v7.2H106v-6.6c0-0.4-0.1-0.8-0.3-1.1
	c-0.2-0.3-0.4-0.6-0.7-0.8s-0.7-0.3-1.1-0.3c-0.4,0-0.8,0.1-1.1,0.3s-0.6,0.5-0.8,0.8c-0.2,0.3-0.3,0.7-0.3,1.1v6.6h-3.1V95.5h3.1
	v0.7c0.4-0.3,0.8-0.6,1.3-0.7c0.5-0.2,1-0.3,1.6-0.3c0.9,0,1.7,0.2,2.3,0.6c0.7,0.4,1.2,1,1.6,1.7C108.9,98.2,109.1,99,109.1,99.9z
	 M117.4,95.3c1.1,0,2,0.2,2.9,0.7c0.9,0.5,1.6,1.1,2.1,2l-2.5,1.8c-0.3-0.4-0.6-0.8-1-1c-0.4-0.2-0.9-0.4-1.4-0.4
	c-0.5,0-1,0.1-1.5,0.4s-0.8,0.6-1,1.1c-0.2,0.5-0.4,1-0.4,1.5s0.1,1.1,0.4,1.5c0.2,0.5,0.6,0.8,1,1.1c0.4,0.3,0.9,0.4,1.5,0.4
	c0.5,0,1-0.1,1.4-0.4s0.8-0.6,1-1l2.5,1.8c-0.5,0.8-1.2,1.5-2.1,2c-0.9,0.5-1.8,0.7-2.9,0.7c-1.1,0-2.2-0.3-3.1-0.8
	c-0.9-0.5-1.6-1.3-2.1-2.2c-0.5-0.9-0.8-1.9-0.8-3.1s0.3-2.1,0.8-3.1c0.5-0.9,1.2-1.7,2.1-2.2C115.2,95.5,116.3,95.3,117.4,95.3z
	 M135.2,101.3c0,0.4,0,0.8-0.1,1.2h-8.3c0.2,0.6,0.6,1.1,1.1,1.4c0.5,0.3,1.1,0.5,1.8,0.5c0.6,0,1.1-0.1,1.5-0.4
	c0.4-0.3,0.8-0.6,1.1-1l2.5,1.5c-0.5,0.9-1.2,1.6-2.1,2.1s-1.9,0.8-3,0.8c-1.1,0-2.2-0.3-3.1-0.8c-0.9-0.5-1.6-1.3-2.1-2.2
	c-0.5-0.9-0.8-1.9-0.8-3.1c0-1.1,0.2-2.2,0.7-3.1c0.5-0.9,1.2-1.7,2.1-2.2c0.9-0.5,1.9-0.8,3-0.8s2.1,0.3,3,0.8
	c0.9,0.5,1.6,1.2,2.1,2.2C135,99.1,135.2,100.2,135.2,101.3L135.2,101.3z M126.7,100.1h5.4c-0.2-0.6-0.5-1.1-0.9-1.4
	c-0.5-0.3-1-0.5-1.7-0.5c-0.7,0-1.3,0.2-1.8,0.5S126.9,99.5,126.7,100.1z M139.1,103.3c0.4,0,0.7,0.1,1,0.3c0.3,0.2,0.5,0.4,0.7,0.7
	c0.2,0.3,0.3,0.6,0.3,1c0,0.4-0.1,0.7-0.3,1c-0.2,0.3-0.4,0.5-0.7,0.7c-0.3,0.2-0.6,0.3-1,0.3c-0.4,0-0.7-0.1-1-0.3
	s-0.5-0.4-0.7-0.7c-0.2-0.3-0.3-0.6-0.3-1c0-0.4,0.1-0.7,0.3-1c0.2-0.3,0.4-0.5,0.7-0.7C138.4,103.4,138.8,103.3,139.1,103.3z"/>
</svg>
