<?xml version="1.0" encoding="utf-8"?>
<!-- Generator: Adobe Illustrator 27.4.0, SVG Export Plug-In . SVG Version: 6.00 Build 0)  -->
<svg version="1.1" baseProfile="tiny" id="Layer_1" xmlns="http://www.w3.org/2000/svg" xmlns:xlink="http://www.w3.org/1999/xlink"
	 x="0px" y="0px" viewBox="0 0 320 50" overflow="visible" xml:space="preserve">
<g>
	<path fill="#193062" d="M87.3,9.4c-0.7,0-1.2,0.4-1.2,0.8c0,0.3,0.2,0.5,0.5,0.6c0.5,0.2,1.3,0.1,2,0.3c1,0.3,1.7,1.1,1.7,2.2
		c0,1.5-1.2,2.7-3,2.7c-1.7,0-3-1.1-3-2.6h1.7c0,0.6,0.6,1,1.3,1c0.8,0,1.3-0.4,1.3-0.9c0-0.4-0.2-0.6-0.5-0.7
		c-0.5-0.2-1.3-0.1-2.1-0.3c-1.1-0.3-1.6-1.1-1.6-2.2c0-1.5,1.2-2.6,2.9-2.6c1.7,0,2.9,1,2.9,2.5h-1.7C88.5,9.7,88,9.4,87.3,9.4z"/>
	<path fill="#193062" d="M93.3,10.4H95v1.6h-1.7v1.8c0,0.4,0.2,0.6,0.6,0.6H95v1.6h-1.4c-1.1,0-1.9-0.7-1.9-1.8v-2.1h-0.8v-0.8
		l1.5-1.9h0.9V10.4z"/>
	<path fill="#193062" d="M97,7.6c0.6,0,1,0.4,1,1c0,0.6-0.4,1-1,1c-0.6,0-1-0.5-1-1C95.9,8.1,96.4,7.6,97,7.6z M97.8,15.9h-1.6v-5.5
		h1.6V15.9z"/>
	<path fill="#193062" d="M99.2,7.5h1.6v8.4h-1.6V7.5z"/>
	<path fill="#193062" d="M102.3,7.5h1.6v8.4h-1.6V7.5z"/>
	<path fill="#193062" d="M110.5,14.6c0.4,0,0.7-0.2,0.7-0.4c0-0.2-0.1-0.3-0.4-0.3c-0.3,0-0.6,0-1-0.1c-1.1-0.2-1.6-0.8-1.6-1.6
		c0-1.1,0.9-1.9,2.2-1.9c1.3,0,2.2,0.8,2.2,1.9h-1.6c0-0.3-0.3-0.4-0.7-0.4c-0.4,0-0.7,0.2-0.7,0.4c0,0.2,0.1,0.2,0.4,0.3
		c0.4,0,0.6,0,1,0.1c1.1,0.1,1.6,0.8,1.6,1.6c0,1.1-0.9,1.9-2.3,1.9c-1.4,0-2.3-0.8-2.3-1.9h1.6C109.8,14.4,110.1,14.6,110.5,14.6z"
		/>
	<path fill="#193062" d="M119,13.7h-3.9c0.2,0.5,0.7,0.8,1.3,0.8c0.5,0,0.9-0.3,1.2-0.6l1.3,0.8c-0.5,0.8-1.4,1.4-2.5,1.4
		c-1.7,0-2.9-1.3-2.9-2.9c0-1.7,1.2-2.9,2.8-2.9c1.7,0,2.8,1.2,2.8,2.9C119.1,13.3,119.1,13.5,119,13.7z M115.1,12.5h2.4
		c-0.2-0.5-0.6-0.8-1.2-0.8C115.7,11.7,115.3,12,115.1,12.5z"/>
	<path fill="#193062" d="M124.8,12.4v3.5h-1.6v-0.3c-0.3,0.3-0.7,0.4-1.4,0.4c-1.1,0-1.9-0.7-1.9-1.7c0-1.1,0.9-1.6,1.9-1.7l1.4-0.1
		v-0.1c0-0.4-0.4-0.7-0.8-0.7c-0.4,0-0.7,0.2-0.8,0.5H120c0.1-1.2,1-2,2.4-2C123.8,10.2,124.8,11.2,124.8,12.4z M123.2,14v-0.3
		l-1.1,0.1c-0.4,0-0.6,0.2-0.6,0.5c0,0.3,0.3,0.5,0.7,0.5C122.8,14.7,123.2,14.4,123.2,14z"/>
	<path fill="#193062" d="M129.7,10.4V12h-0.8c-0.6,0-1.1,0.5-1.1,1.1v2.8h-1.6v-5.5h1.6v0.5c0.3-0.4,0.8-0.5,1.3-0.5H129.7z"/>
	<path fill="#193062" d="M133.1,10.2c1.1,0,1.9,0.5,2.4,1.3l-1.3,0.9c-0.2-0.4-0.6-0.6-1.1-0.6c-0.7,0-1.3,0.6-1.3,1.3
		c0,0.7,0.5,1.3,1.3,1.3c0.5,0,0.8-0.3,1.1-0.6l1.3,0.9c-0.5,0.8-1.4,1.3-2.4,1.3c-1.7,0-2.9-1.3-2.9-2.9S131.4,10.2,133.1,10.2z"/>
	<path fill="#193062" d="M141.5,12.5v3.5h-1.6v-3.1c0-0.5-0.4-1-0.9-1c-0.6,0-1,0.4-1,1v3.1h-1.6V7.5h1.6v3.1
		c0.4-0.3,0.8-0.4,1.3-0.4C140.6,10.2,141.5,11.2,141.5,12.5z"/>
	<path fill="#193062" d="M143.7,7.6c0.6,0,1,0.4,1,1c0,0.6-0.4,1-1,1c-0.6,0-1-0.5-1-1C142.7,8.1,143.1,7.6,143.7,7.6z M144.5,15.9
		h-1.6v-5.5h1.6V15.9z"/>
	<path fill="#193062" d="M151.1,12.4v3.5h-1.6v-3.1c0-0.5-0.4-0.9-0.9-0.9c-0.6,0-0.9,0.4-0.9,0.9v3.1H146v-5.5h1.6v0.3
		c0.4-0.3,0.8-0.4,1.4-0.4C150.2,10.2,151.1,11.2,151.1,12.4z"/>
	<path fill="#193062" d="M157.7,10.4v5.4c0,1.5-1.1,2.6-2.8,2.6c-1.3,0-2.2-0.7-2.6-1.8l1.5-0.6c0.2,0.5,0.5,0.8,1.1,0.8
		c0.7,0,1.1-0.4,1.1-1.1v-0.4c-0.4,0.3-0.8,0.4-1.3,0.4c-1.5,0-2.6-1.2-2.6-2.7s1.1-2.7,2.6-2.7c0.5,0,1,0.2,1.4,0.5v-0.3H157.7z
		 M156.1,13c0-0.7-0.5-1.2-1.2-1.2c-0.7,0-1.2,0.5-1.2,1.2c0,0.6,0.5,1.1,1.2,1.1C155.6,14.1,156.1,13.6,156.1,13z"/>
	<path fill="#193062" d="M162.9,11.9h-1.1v-1.6h1.1V9.3c0-1.1,0.7-1.7,1.8-1.7h1.2v1.6H165c-0.3,0-0.5,0.2-0.5,0.4v0.8h1.4v1.6h-1.4
		v4h-1.6V11.9z"/>
	<path fill="#193062" d="M169.3,10.2c1.7,0,2.9,1.3,2.9,2.9c0,1.6-1.2,2.9-2.9,2.9c-1.7,0-2.9-1.3-2.9-2.9
		C166.4,11.5,167.6,10.2,169.3,10.2z M169.3,14.4c0.7,0,1.3-0.6,1.3-1.3c0-0.7-0.5-1.3-1.3-1.3c-0.7,0-1.3,0.6-1.3,1.3
		C168,13.9,168.5,14.4,169.3,14.4z"/>
	<path fill="#193062" d="M176.8,10.4V12h-0.8c-0.6,0-1.1,0.5-1.1,1.1v2.8h-1.6v-5.5h1.6v0.5c0.3-0.4,0.8-0.5,1.3-0.5H176.8z"/>
	<path fill="#193062" d="M181,7.9h1.7v6.4h4.6v1.7H181V7.9z"/>
	<path fill="#193062" d="M189.2,7.6c0.6,0,1,0.4,1,1c0,0.6-0.4,1-1,1s-1-0.5-1-1C188.1,8.1,188.6,7.6,189.2,7.6z M190,15.9h-1.6
		v-5.5h1.6V15.9z"/>
	<path fill="#193062" d="M192,11.9h-1.1v-1.6h1.1V9.3c0-1.1,0.7-1.7,1.8-1.7h1.2v1.6H194c-0.3,0-0.5,0.2-0.5,0.4v0.8h1.4v1.6h-1.4v4
		H192V11.9z"/>
	<path fill="#193062" d="M201,13.7h-3.9c0.2,0.5,0.7,0.8,1.3,0.8c0.5,0,0.9-0.3,1.2-0.6l1.3,0.8c-0.5,0.8-1.4,1.4-2.5,1.4
		c-1.7,0-2.9-1.3-2.9-2.9c0-1.7,1.2-2.9,2.8-2.9c1.7,0,2.8,1.2,2.8,2.9C201.1,13.3,201,13.5,201,13.7z M197.1,12.5h2.4
		c-0.2-0.5-0.6-0.8-1.2-0.8C197.7,11.7,197.2,12,197.1,12.5z"/>
	<path fill="#193062" d="M205.4,7.9h1.7v8h-1.7V7.9z"/>
	<path fill="#193062" d="M213.8,12.4v3.5h-1.6v-3.1c0-0.5-0.4-0.9-0.9-0.9s-0.9,0.4-0.9,0.9v3.1h-1.6v-5.5h1.6v0.3
		c0.4-0.3,0.8-0.4,1.4-0.4C212.9,10.2,213.8,11.2,213.8,12.4z"/>
	<path fill="#193062" d="M217.2,14.6c0.4,0,0.7-0.2,0.7-0.4c0-0.2-0.1-0.3-0.4-0.3c-0.3,0-0.6,0-1-0.1c-1.1-0.2-1.6-0.8-1.6-1.6
		c0-1.1,0.9-1.9,2.2-1.9c1.3,0,2.2,0.8,2.2,1.9h-1.6c0-0.3-0.3-0.4-0.7-0.4c-0.4,0-0.7,0.2-0.7,0.4c0,0.2,0.1,0.2,0.4,0.3
		c0.4,0,0.6,0,1,0.1c1.1,0.1,1.6,0.8,1.6,1.6c0,1.1-0.9,1.9-2.3,1.9c-1.4,0-2.3-0.8-2.3-1.9h1.6C216.5,14.4,216.8,14.6,217.2,14.6z"
		/>
	<path fill="#193062" d="M225.6,10.4v5.5H224v-0.3c-0.4,0.3-0.8,0.4-1.3,0.4c-1.2,0-2.2-0.9-2.2-2.2v-3.5h1.6v3.1
		c0,0.5,0.4,0.9,0.9,0.9c0.6,0,0.9-0.4,0.9-0.9v-3.1H225.6z"/>
	<path fill="#193062" d="M230.6,10.4V12h-0.8c-0.6,0-1.1,0.5-1.1,1.1v2.8h-1.6v-5.5h1.6v0.5c0.3-0.4,0.8-0.5,1.3-0.5H230.6z"/>
	<path fill="#193062" d="M236,12.4v3.5h-1.6v-0.3c-0.3,0.3-0.7,0.4-1.4,0.4c-1.1,0-1.9-0.7-1.9-1.7c0-1.1,0.9-1.6,1.9-1.7l1.4-0.1
		v-0.1c0-0.4-0.4-0.7-0.8-0.7c-0.4,0-0.7,0.2-0.8,0.5h-1.6c0.1-1.2,1-2,2.4-2C235,10.2,236,11.2,236,12.4z M234.4,14v-0.3l-1.1,0.1
		c-0.4,0-0.6,0.2-0.6,0.5c0,0.3,0.3,0.5,0.7,0.5C234,14.7,234.4,14.4,234.4,14z"/>
	<path fill="#193062" d="M242.5,12.4v3.5h-1.6v-3.1c0-0.5-0.4-0.9-0.9-0.9s-0.9,0.4-0.9,0.9v3.1h-1.6v-5.5h1.6v0.3
		c0.4-0.3,0.8-0.4,1.4-0.4C241.6,10.2,242.5,11.2,242.5,12.4z"/>
	<path fill="#193062" d="M246.4,10.2c1.1,0,1.9,0.5,2.4,1.3l-1.3,0.9c-0.2-0.4-0.6-0.6-1.1-0.6c-0.7,0-1.3,0.6-1.3,1.3
		c0,0.7,0.5,1.3,1.3,1.3c0.5,0,0.8-0.3,1.1-0.6l1.3,0.9c-0.5,0.8-1.4,1.3-2.4,1.3c-1.7,0-2.9-1.3-2.9-2.9S244.8,10.2,246.4,10.2z"/>
	<path fill="#193062" d="M254.8,13.7H251c0.2,0.5,0.7,0.8,1.3,0.8c0.5,0,0.9-0.3,1.2-0.6l1.3,0.8c-0.5,0.8-1.4,1.4-2.5,1.4
		c-1.7,0-2.9-1.3-2.9-2.9c0-1.7,1.2-2.9,2.8-2.9c1.7,0,2.8,1.2,2.8,2.9C254.9,13.3,254.9,13.5,254.8,13.7z M250.9,12.5h2.4
		c-0.2-0.5-0.6-0.8-1.2-0.8C251.5,11.7,251.1,12,250.9,12.5z"/>
</g>
<g>
	<path fill="#193062" d="M86.4,23.4h1.7v1.6h-1.7v1.8c0,0.4,0.2,0.6,0.6,0.6h1.1v1.6h-1.4c-1.1,0-1.9-0.7-1.9-1.8v-2.1H84v-0.8
		l1.5-1.9h0.9V23.4z"/>
	<path fill="#193062" d="M94.4,25.5v3.5h-1.6v-3.1c0-0.5-0.4-1-0.9-1c-0.6,0-1,0.4-1,1v3.1h-1.6v-8.4h1.6v3.1
		c0.4-0.3,0.8-0.4,1.3-0.4C93.4,23.2,94.4,24.2,94.4,25.5z"/>
	<path fill="#193062" d="M100.4,25.4v3.5h-1.6v-0.3C98.4,28.9,98,29,97.4,29c-1.1,0-1.9-0.7-1.9-1.7c0-1.1,0.9-1.6,1.9-1.7l1.4-0.1
		v-0.1c0-0.4-0.4-0.7-0.8-0.7c-0.4,0-0.7,0.2-0.8,0.5h-1.6c0.1-1.2,1-2,2.4-2C99.4,23.2,100.4,24.2,100.4,25.4z M98.8,27v-0.3
		l-1.1,0.1c-0.4,0-0.6,0.2-0.6,0.5c0,0.3,0.3,0.5,0.7,0.5C98.4,27.7,98.8,27.4,98.8,27z"/>
	<path fill="#193062" d="M103.6,23.4h1.7v1.6h-1.7v1.8c0,0.4,0.2,0.6,0.6,0.6h1.1v1.6h-1.4c-1.1,0-1.9-0.7-1.9-1.8v-2.1h-0.8v-0.8
		l1.5-1.9h0.9V23.4z"/>
	<path fill="#193062" d="M110.1,24.9H109v-1.6h1.1v-1.1c0-1.1,0.7-1.7,1.8-1.7h1.2v1.6h-0.9c-0.3,0-0.5,0.2-0.5,0.4v0.8h1.4v1.6
		h-1.4v4h-1.6V24.9z M114.9,20.6c0.6,0,1,0.4,1,1c0,0.6-0.4,1-1,1s-1-0.5-1-1C113.9,21.1,114.4,20.6,114.9,20.6z M115.8,28.9h-1.6
		v-5.5h1.6V28.9z"/>
	<path fill="#193062" d="M119,23.4h1.7v1.6H119v1.8c0,0.4,0.2,0.6,0.6,0.6h1.1v1.6h-1.4c-1.1,0-1.9-0.7-1.9-1.8v-2.1h-0.8v-0.8
		l1.5-1.9h0.9V23.4z"/>
	<path fill="#193062" d="M123.8,27.6c0.4,0,0.7-0.2,0.7-0.4c0-0.2-0.1-0.3-0.4-0.3s-0.6,0-1-0.1c-1.1-0.2-1.6-0.8-1.6-1.6
		c0-1.1,0.9-1.9,2.2-1.9c1.3,0,2.2,0.8,2.2,1.9h-1.6c0-0.3-0.3-0.4-0.7-0.4c-0.4,0-0.7,0.2-0.7,0.4c0,0.2,0.1,0.2,0.4,0.3
		c0.4,0,0.6,0,1,0.1c1.1,0.1,1.6,0.8,1.6,1.6c0,1.1-0.9,1.9-2.3,1.9c-1.4,0-2.3-0.8-2.3-1.9h1.6C123.1,27.4,123.4,27.6,123.8,27.6z"
		/>
	<path fill="#193062" d="M134.9,23.4l-2.8,7.9h-1.7l0.9-2.5l-2-5.4h1.8l1.1,3l1.1-3H134.9z"/>
	<path fill="#193062" d="M138.1,23.2c1.7,0,2.9,1.3,2.9,2.9c0,1.6-1.2,2.9-2.9,2.9c-1.7,0-2.9-1.3-2.9-2.9
		C135.2,24.5,136.4,23.2,138.1,23.2z M138.1,27.4c0.7,0,1.3-0.6,1.3-1.3c0-0.7-0.5-1.3-1.3-1.3c-0.7,0-1.3,0.6-1.3,1.3
		C136.8,26.9,137.3,27.4,138.1,27.4z"/>
	<path fill="#193062" d="M147.1,23.4v5.5h-1.6v-0.3c-0.4,0.3-0.8,0.4-1.3,0.4c-1.2,0-2.2-0.9-2.2-2.2v-3.5h1.6v3.1
		c0,0.5,0.4,0.9,0.9,0.9s0.9-0.4,0.9-0.9v-3.1H147.1z"/>
	<path fill="#193062" d="M152.1,23.4V25h-0.8c-0.6,0-1.1,0.5-1.1,1.1v2.8h-1.6v-5.5h1.6v0.5c0.3-0.4,0.8-0.5,1.3-0.5H152.1z"/>
	<path fill="#193062" d="M156.7,24.9h-1.1v-1.6h1.1v-1.1c0-1.1,0.7-1.7,1.8-1.7h1.2v1.6h-0.9c-0.3,0-0.5,0.2-0.5,0.4v0.8h1.4v1.6
		h-1.4v4h-1.6V24.9z"/>
	<path fill="#193062" d="M165.2,25.4v3.5h-1.6v-0.3c-0.3,0.3-0.7,0.4-1.4,0.4c-1.1,0-1.9-0.7-1.9-1.7c0-1.1,0.9-1.6,1.9-1.7l1.4-0.1
		v-0.1c0-0.4-0.4-0.7-0.8-0.7c-0.4,0-0.7,0.2-0.8,0.5h-1.6c0.1-1.2,1-2,2.4-2C164.2,23.2,165.2,24.2,165.2,25.4z M163.6,27v-0.3
		l-1.1,0.1c-0.4,0-0.6,0.2-0.6,0.5c0,0.3,0.3,0.5,0.7,0.5C163.2,27.7,163.6,27.4,163.6,27z"/>
	<path fill="#193062" d="M174.7,25.3v3.6h-1.6v-3.3c0-0.4-0.3-0.8-0.8-0.8c-0.5,0-0.8,0.4-0.8,0.8v3.3h-1.6v-3.3
		c0-0.4-0.3-0.8-0.8-0.8c-0.5,0-0.8,0.4-0.8,0.8v3.3h-1.6v-5.5h1.6v0.3c0.3-0.2,0.8-0.4,1.2-0.4c0.6,0,1.1,0.2,1.4,0.6
		c0.4-0.4,0.9-0.6,1.6-0.6C173.7,23.2,174.7,24.1,174.7,25.3z"/>
	<path fill="#193062" d="M176.9,20.6c0.6,0,1,0.4,1,1c0,0.6-0.4,1-1,1s-1-0.5-1-1C175.9,21.1,176.3,20.6,176.9,20.6z M177.7,28.9
		h-1.6v-5.5h1.6V28.9z"/>
	<path fill="#193062" d="M179.2,20.5h1.6v8.4h-1.6V20.5z"/>
	<path fill="#193062" d="M187.2,23.4l-2.8,7.9h-1.7l0.9-2.5l-2-5.4h1.8l1.1,3l1.1-3H187.2z"/>
	<path fill="#193062" d="M189.8,21.7c0,0.1,0,0.3-0.1,0.4l-0.6,1.8h-0.9l0.3-1.3c-0.4-0.1-0.6-0.5-0.6-0.9c0-0.6,0.4-1,1-1
		S189.8,21.2,189.8,21.7z"/>
	<path fill="#193062" d="M192.6,27.6c0.4,0,0.7-0.2,0.7-0.4c0-0.2-0.1-0.3-0.4-0.3c-0.3,0-0.6,0-1-0.1c-1.1-0.2-1.6-0.8-1.6-1.6
		c0-1.1,0.9-1.9,2.2-1.9c1.3,0,2.2,0.8,2.2,1.9h-1.6c0-0.3-0.3-0.4-0.7-0.4c-0.4,0-0.7,0.2-0.7,0.4c0,0.2,0.1,0.2,0.4,0.3
		c0.4,0,0.6,0,1,0.1c1.1,0.1,1.6,0.8,1.6,1.6c0,1.1-0.9,1.9-2.3,1.9c-1.4,0-2.3-0.8-2.3-1.9h1.6C191.8,27.4,192.1,27.6,192.6,27.6z"
		/>
	<path fill="#193062" d="M204.2,25.4v3.5h-1.6v-3.1c0-0.5-0.4-0.9-0.9-0.9c-0.6,0-0.9,0.4-0.9,0.9v3.1h-1.6v-5.5h1.6v0.3
		c0.4-0.3,0.8-0.4,1.4-0.4C203.3,23.2,204.2,24.2,204.2,25.4z"/>
	<path fill="#193062" d="M210.8,26.7h-3.9c0.2,0.5,0.7,0.8,1.3,0.8c0.5,0,0.9-0.3,1.2-0.6l1.3,0.8c-0.5,0.8-1.4,1.4-2.5,1.4
		c-1.7,0-2.9-1.3-2.9-2.9c0-1.7,1.2-2.9,2.8-2.9c1.7,0,2.8,1.2,2.8,2.9C210.8,26.3,210.8,26.5,210.8,26.7z M206.9,25.5h2.4
		c-0.2-0.5-0.6-0.8-1.2-0.8C207.5,24.7,207,25,206.9,25.5z"/>
	<path fill="#193062" d="M217.1,26.7h-3.9c0.2,0.5,0.7,0.8,1.3,0.8c0.5,0,0.9-0.3,1.2-0.6l1.3,0.8c-0.5,0.8-1.4,1.4-2.5,1.4
		c-1.7,0-2.9-1.3-2.9-2.9c0-1.7,1.2-2.9,2.8-2.9c1.7,0,2.8,1.2,2.8,2.9C217.1,26.3,217.1,26.5,217.1,26.7z M213.2,25.5h2.4
		c-0.2-0.5-0.6-0.8-1.2-0.8C213.7,24.7,213.3,25,213.2,25.5z"/>
	<path fill="#193062" d="M223.6,20.5v8.4H222v-0.3c-0.4,0.3-0.9,0.5-1.4,0.5c-1.6,0-2.7-1.3-2.7-2.9c0-1.6,1.1-2.9,2.7-2.9
		c0.5,0,1,0.2,1.4,0.4v-3.1H223.6z M222,26.1c0-0.7-0.5-1.3-1.3-1.3c-0.7,0-1.3,0.6-1.3,1.3c0,0.7,0.5,1.3,1.3,1.3
		C221.5,27.4,222,26.9,222,26.1z"/>
	<path fill="#193062" d="M227,27.6c0.4,0,0.7-0.2,0.7-0.4c0-0.2-0.1-0.3-0.4-0.3c-0.3,0-0.6,0-1-0.1c-1.1-0.2-1.6-0.8-1.6-1.6
		c0-1.1,0.9-1.9,2.2-1.9c1.3,0,2.2,0.8,2.2,1.9h-1.6c0-0.3-0.3-0.4-0.7-0.4c-0.4,0-0.7,0.2-0.7,0.4c0,0.2,0.1,0.2,0.4,0.3
		c0.4,0,0.6,0,1,0.1c1.1,0.1,1.6,0.8,1.6,1.6c0,1.1-0.9,1.9-2.3,1.9c-1.4,0-2.3-0.8-2.3-1.9h1.6C226.2,27.4,226.5,27.6,227,27.6z"/>
	<path fill="#193062" d="M231.4,26.4L231.4,26.4c0-1,0.2-1.5,1-2.2c0.4-0.4,0.6-0.6,0.6-1.1c0-0.5-0.3-0.8-0.7-0.8
		c-0.4,0-0.7,0.3-0.7,0.8h-1.7c0-1.4,1.1-2.5,2.5-2.5c1.4,0,2.4,1.1,2.4,2.4c0,1-0.5,1.5-1.2,2.2c-0.5,0.4-0.6,0.7-0.6,1.1v0H231.4z
		 M232.1,27c0.6,0,1,0.4,1,1c0,0.6-0.4,1-1,1s-1-0.5-1-1C231.1,27.4,231.5,27,232.1,27z"/>
</g>
<g>
	<path fill="#193062" d="M86.4,35.6h-2.3v-1.7h6.3v1.7h-2.3v6.4h-1.7V35.6z"/>
	<path fill="#193062" d="M94,36.4V38h-0.8c-0.6,0-1.1,0.5-1.1,1.1v2.8h-1.6v-5.5H92v0.5c0.3-0.4,0.8-0.5,1.3-0.5H94z"/>
	<path fill="#193062" d="M100,36.4v5.5h-1.6v-0.3C98,41.9,97.5,42,97,42c-1.2,0-2.2-0.9-2.2-2.2v-3.5h1.6v3.1c0,0.5,0.4,0.9,0.9,0.9
		s0.9-0.4,0.9-0.9v-3.1H100z"/>
	<path fill="#193062" d="M103.4,40.6c0.4,0,0.7-0.2,0.7-0.4c0-0.2-0.1-0.3-0.4-0.3c-0.3,0-0.6,0-1-0.1c-1.1-0.2-1.6-0.8-1.6-1.6
		c0-1.1,0.9-1.9,2.2-1.9c1.3,0,2.2,0.8,2.2,1.9H104c0-0.3-0.3-0.4-0.7-0.4c-0.4,0-0.7,0.2-0.7,0.4c0,0.2,0.1,0.2,0.4,0.3
		c0.4,0,0.6,0,1,0.1c1.1,0.1,1.6,0.8,1.6,1.6c0,1.1-0.9,1.9-2.3,1.9c-1.4,0-2.3-0.8-2.3-1.9h1.6C102.6,40.4,102.9,40.6,103.4,40.6z"
		/>
	<path fill="#193062" d="M108.6,36.4h1.7v1.6h-1.7v1.8c0,0.4,0.2,0.6,0.6,0.6h1.1v1.6h-1.4c-1.1,0-1.9-0.7-1.9-1.8v-2.1h-0.8v-0.8
		l1.5-1.9h0.9V36.4z"/>
	<path fill="#193062" d="M116.2,35.6h-2.3v-1.7h6.3v1.7h-2.3v6.4h-1.7V35.6z"/>
	<path fill="#193062" d="M123.7,36.4V38h-0.8c-0.6,0-1.1,0.5-1.1,1.1v2.8h-1.6v-5.5h1.6v0.5c0.3-0.4,0.8-0.5,1.3-0.5H123.7z"/>
	<path fill="#193062" d="M129.7,36.4v5.5h-1.6v-0.3c-0.4,0.3-0.8,0.4-1.3,0.4c-1.2,0-2.2-0.9-2.2-2.2v-3.5h1.6v3.1
		c0,0.5,0.4,0.9,0.9,0.9s0.9-0.4,0.9-0.9v-3.1H129.7z"/>
	<path fill="#193062" d="M133.8,35.4c-0.7,0-1.2,0.4-1.2,0.8c0,0.3,0.2,0.5,0.5,0.6c0.5,0.2,1.3,0.1,2,0.3c1,0.3,1.7,1.1,1.7,2.2
		c0,1.5-1.2,2.7-3,2.7c-1.7,0-3-1.1-3-2.6h1.7c0,0.6,0.6,1,1.3,1c0.8,0,1.3-0.4,1.3-0.9c0-0.4-0.2-0.6-0.5-0.7
		c-0.5-0.2-1.3-0.1-2.1-0.3c-1.1-0.3-1.6-1.1-1.6-2.2c0-1.5,1.2-2.6,2.9-2.6c1.7,0,2.9,1,2.9,2.5h-1.7
		C135,35.7,134.5,35.4,133.8,35.4z"/>
	<path fill="#193062" d="M139.9,36.4h1.7v1.6h-1.7v1.8c0,0.4,0.2,0.6,0.6,0.6h1.1v1.6h-1.4c-1.1,0-1.9-0.7-1.9-1.8v-2.1h-0.8v-0.8
		l1.5-1.9h0.9V36.4z"/>
	<path fill="#193062" d="M147.3,38.4v3.5h-1.6v-0.3c-0.3,0.3-0.7,0.4-1.4,0.4c-1.1,0-1.9-0.7-1.9-1.7c0-1.1,0.9-1.6,1.9-1.7l1.4-0.1
		v-0.1c0-0.4-0.4-0.7-0.8-0.7c-0.4,0-0.7,0.2-0.8,0.5h-1.6c0.1-1.2,1-2,2.4-2C146.3,36.2,147.3,37.2,147.3,38.4z M145.7,40v-0.3
		l-1.1,0.1c-0.4,0-0.6,0.2-0.6,0.5c0,0.3,0.3,0.5,0.7,0.5C145.3,40.7,145.7,40.4,145.7,40z"/>
	<path fill="#193062" d="M153.9,36.4v5.4c0,1.5-1.1,2.6-2.8,2.6c-1.3,0-2.2-0.7-2.6-1.8L150,42c0.2,0.5,0.5,0.8,1.1,0.8
		c0.7,0,1.1-0.4,1.1-1.1v-0.4c-0.4,0.3-0.8,0.4-1.3,0.4c-1.5,0-2.6-1.2-2.6-2.7s1.1-2.7,2.6-2.7c0.5,0,1,0.2,1.4,0.5v-0.3H153.9z
		 M152.3,39c0-0.7-0.5-1.2-1.2-1.2c-0.7,0-1.2,0.5-1.2,1.2c0,0.6,0.5,1.1,1.2,1.1C151.8,40.1,152.3,39.6,152.3,39z"/>
	<path fill="#193062" d="M160.4,39.7h-3.9c0.2,0.5,0.7,0.8,1.3,0.8c0.5,0,0.9-0.3,1.2-0.6l1.3,0.8c-0.5,0.8-1.4,1.4-2.5,1.4
		c-1.7,0-2.9-1.3-2.9-2.9c0-1.7,1.2-2.9,2.8-2.9c1.7,0,2.8,1.2,2.8,2.9C160.5,39.3,160.5,39.5,160.4,39.7z M156.6,38.5h2.4
		c-0.2-0.5-0.6-0.8-1.2-0.8C157.1,37.7,156.7,38,156.6,38.5z"/>
	<path fill="#193062" d="M162.1,34.8h-0.9v-0.9h2.7v0.9h-0.9V37h-0.9V34.8z M164.4,33.9h0.9l0.7,1.5l0.7-1.5h0.9V37h-0.9v-1.4
		l-0.7,1.5l-0.7-1.5V37h-0.9V33.9z"/>
</g>
</svg>
