<?xml version="1.0" encoding="utf-8"?>
<!-- Generator: Adobe Illustrator 27.4.0, SVG Export Plug-In . SVG Version: 6.00 Build 0)  -->
<svg version="1.1" baseProfile="tiny" id="Layer_1" xmlns="http://www.w3.org/2000/svg" xmlns:xlink="http://www.w3.org/1999/xlink"
	 x="0px" y="0px" viewBox="0 0 320 50" overflow="visible" xml:space="preserve">
<rect x="256.6" y="24.5" fill="#FAE07E" width="57.8" height="16.3"/>
<g>
	<path fill="#193062" d="M264.1,30.3h0.9v3.8h2.7v0.9h-3.7V30.3z"/>
	<path fill="#193062" d="M268.6,30.3h3.7v0.9h-2.7v1h1.5v0.9h-1.5v1h2.7v0.9h-3.7V30.3z"/>
	<path fill="#193062" d="M274.2,31.3h-1.4v-0.9h3.7v0.9h-1.4v3.8h-0.9V31.3z"/>
	<path fill="#193062" d="M282.7,33.3c0,0.3-0.1,0.7-0.2,0.9s-0.4,0.5-0.7,0.7c-0.3,0.2-0.6,0.2-1,0.2c-0.4,0-0.7-0.1-1-0.2
		c-0.3-0.2-0.5-0.4-0.7-0.7s-0.2-0.6-0.2-0.9v-2.9h0.9v2.9c0,0.2,0,0.3,0.1,0.5s0.2,0.3,0.3,0.4c0.1,0.1,0.3,0.1,0.5,0.1
		c0.2,0,0.3,0,0.5-0.1c0.1-0.1,0.3-0.2,0.3-0.4c0.1-0.1,0.1-0.3,0.1-0.5v-2.9h0.9V33.3z"/>
	<path fill="#193062" d="M285.3,31.2c-0.1,0-0.3,0-0.4,0.1s-0.2,0.1-0.3,0.2c-0.1,0.1-0.1,0.2-0.1,0.3c0,0.1,0,0.2,0.1,0.3
		s0.1,0.1,0.2,0.2c0.1,0,0.1,0,0.2,0c0.1,0,0.2,0,0.3,0c0.2,0,0.3,0,0.4,0c0.1,0,0.2,0,0.3,0.1c0.3,0.1,0.5,0.2,0.7,0.5
		c0.2,0.2,0.3,0.5,0.3,0.8c0,0.3-0.1,0.6-0.2,0.8c-0.1,0.2-0.3,0.4-0.6,0.5c-0.3,0.1-0.6,0.2-0.9,0.2c-0.3,0-0.6-0.1-0.9-0.2
		c-0.3-0.1-0.5-0.3-0.6-0.5s-0.2-0.5-0.2-0.8h0.9c0,0.1,0,0.2,0.1,0.3c0.1,0.1,0.2,0.2,0.3,0.2c0.1,0.1,0.3,0.1,0.4,0.1
		c0.2,0,0.3,0,0.4-0.1s0.2-0.1,0.3-0.2s0.1-0.2,0.1-0.3c0-0.1,0-0.2-0.1-0.3c-0.1-0.1-0.1-0.1-0.2-0.2c-0.1,0-0.1,0-0.2-0.1
		c-0.1,0-0.2,0-0.3,0c-0.1,0-0.3,0-0.4,0c-0.1,0-0.2,0-0.3-0.1c-0.3-0.1-0.5-0.2-0.7-0.5c-0.2-0.2-0.2-0.5-0.2-0.8
		c0-0.3,0.1-0.5,0.2-0.8c0.1-0.2,0.3-0.4,0.6-0.5c0.3-0.1,0.5-0.2,0.9-0.2c0.3,0,0.6,0.1,0.9,0.2s0.5,0.3,0.6,0.5
		c0.1,0.2,0.2,0.5,0.2,0.8H286c0-0.1,0-0.2-0.1-0.3s-0.2-0.2-0.3-0.2C285.6,31.2,285.4,31.2,285.3,31.2z"/>
	<path fill="#193062" d="M289.6,30.3h0.9v1.9h1.9v-1.9h0.9v4.7h-0.9v-1.9h-1.9v1.9h-0.9V30.3z"/>
	<path fill="#193062" d="M294.5,30.3h3.7v0.9h-2.7v1h1.5v0.9h-1.5v1h2.7v0.9h-3.7V30.3z"/>
	<path fill="#193062" d="M299.1,30.3h0.9v3.8h2.7v0.9h-3.7V30.3z"/>
	<path fill="#193062" d="M307.3,32c0,0.3-0.1,0.6-0.2,0.9c-0.1,0.3-0.3,0.5-0.6,0.6c-0.3,0.1-0.6,0.2-0.9,0.2h-1.1v1.3h-0.9v-4.7h2
		c0.3,0,0.6,0.1,0.9,0.2c0.3,0.1,0.5,0.3,0.6,0.6C307.2,31.4,307.3,31.7,307.3,32z M306.3,32c0-0.2,0-0.3-0.1-0.4
		c-0.1-0.1-0.2-0.2-0.3-0.3s-0.3-0.1-0.4-0.1h-1.1v1.6h1.1c0.2,0,0.3,0,0.4-0.1s0.2-0.2,0.3-0.3S306.3,32.2,306.3,32z"/>
</g>
</svg>
