<?xml version="1.0" encoding="utf-8"?>
<!-- Generator: Adobe Illustrator 27.4.0, SVG Export Plug-In . SVG Version: 6.00 Build 0)  -->
<svg version="1.1" baseProfile="tiny" id="Layer_1" xmlns="http://www.w3.org/2000/svg" xmlns:xlink="http://www.w3.org/1999/xlink"
	 x="0px" y="0px" viewBox="0 0 320 50" overflow="visible" xml:space="preserve">
<rect x="7.5" y="18.6" fill="#FAE07E" width="9.3" height="2.6"/>
<rect x="17.6" y="18.6" fill="#FFFFFF" width="2.3" height="2.6"/>
<rect x="7.5" y="21.9" fill="#FAE07E" width="7" height="2.6"/>
<rect x="15.3" y="21.9" fill="#FFFFFF" width="4.6" height="2.6"/>
<rect x="7.5" y="25.1" fill="#FAE07E" width="4.6" height="2.6"/>
<rect x="12.9" y="25.1" fill="#FFFFFF" width="7" height="2.6"/>
<rect x="7.5" y="28.4" fill="#FAE07E" width="2.3" height="2.6"/>
<rect x="10.5" y="28.4" fill="#FFFFFF" width="9.3" height="2.6"/>
<polygon fill="#FFFFFF" points="27.2,22.3 25.1,22.3 25.1,21.2 30.4,21.2 30.4,22.3 28.3,22.3 28.3,28.4 27.2,28.4 "/>
<g>
	<path fill="none" d="M62.9,24.2c-0.6,0-1.3,0.4-1.5,1.1h2.8C64.1,24.5,63.6,24.2,62.9,24.2z"/>
	<path fill="none" d="M57,24.2c-0.9,0-1.5,0.6-1.5,1.5s0.6,1.6,1.5,1.6s1.5-0.6,1.5-1.6S57.9,24.2,57,24.2z"/>
	<path fill="none" d="M51,24.2c-0.9,0-1.5,0.7-1.5,1.6s0.6,1.6,1.5,1.6s1.5-0.7,1.5-1.6S51.9,24.2,51,24.2z"/>
	<path fill="#FFFFFF" d="M30.2,23.3v5.1h1.1v-2.5c0-1,0.6-1.6,1.2-1.6c0.2,0,0.4,0,0.6,0.1v-1.1c-0.2,0-0.3,0-0.4,0
		c-0.6,0-1.1,0.4-1.3,1v-0.9H30.2z"/>
	<path fill="#FFFFFF" d="M33.9,23.3v3c0,1.3,0.7,2.1,1.9,2.1c0.6,0,1.2-0.3,1.5-0.8v0.7h1.1v-5.1h-1.1v2.5c0,1.1-0.5,1.7-1.2,1.7
		c-0.6,0-1-0.5-1-1.3v-2.8H33.9z"/>
	<path fill="#FFFFFF" d="M41.7,27.4c-0.7,0-1.3-0.3-1.7-0.9l-0.9,0.7c0.4,0.8,1.4,1.3,2.6,1.3c1.4,0,2.4-0.8,2.4-2.1
		c0-1.1-0.6-1.7-1.7-2.1L41.6,24c-0.7-0.3-1.1-0.5-1.1-1c0-0.5,0.5-0.8,1.1-0.8c0.6,0,1,0.2,1.4,0.7l0.8-0.8c-0.5-0.6-1.3-1-2.2-1
		c-1.3,0-2.3,0.8-2.3,2c0,1,0.6,1.6,1.7,2l0.8,0.3c0.7,0.3,1,0.6,1,1.1C42.8,27,42.3,27.4,41.7,27.4z"/>
	<path fill="#FFFFFF" d="M53.6,28.4v-5.1h-1.1V24c-0.3-0.4-0.9-0.8-1.6-0.8c-1.4,0-2.4,1.2-2.4,2.6c0,1.4,1,2.6,2.4,2.6
		c0.7,0,1.3-0.4,1.6-0.8v0.7H53.6z M51,27.5c-0.9,0-1.5-0.7-1.5-1.6s0.6-1.6,1.5-1.6s1.5,0.7,1.5,1.6S51.9,27.5,51,27.5z"/>
	<path fill="#FFFFFF" d="M56.9,29.6c-0.7,0-1.3-0.3-1.7-0.7l-0.7,0.8c0.5,0.6,1.4,0.9,2.4,0.9c1.5,0,2.6-0.8,2.6-2.6v-4.7h-1.1V24
		c-0.3-0.4-0.9-0.8-1.6-0.8c-1.4,0-2.4,1.1-2.4,2.6c0,1.4,1.1,2.6,2.4,2.6c0.7,0,1.3-0.3,1.6-0.8V28C58.4,29,57.7,29.6,56.9,29.6z
		 M57,27.3c-0.9,0-1.5-0.6-1.5-1.6s0.6-1.5,1.5-1.5s1.5,0.6,1.5,1.5S57.9,27.3,57,27.3z"/>
	<path fill="#FFFFFF" d="M63,23.2c-1.5,0-2.6,1.1-2.6,2.6c0,1.5,1.1,2.6,2.6,2.6c1.1,0,1.8-0.5,2.3-1.2l-0.8-0.6
		c-0.3,0.4-0.7,0.8-1.4,0.8c-0.8,0-1.5-0.5-1.6-1.4h4c0-0.2,0-0.3,0-0.4C65.4,24.1,64.3,23.2,63,23.2z M61.5,25.3
		c0.2-0.8,0.8-1.1,1.5-1.1c0.6,0,1.2,0.4,1.4,1.1H61.5z"/>
	<path fill="#FFFFFF" d="M45.3,21.9v0.6c0,0.4-0.3,0.8-0.8,0.8l-0.3,0v1h1.1v2.4c0,1.1,0.8,1.7,1.7,1.7c0.3,0,0.6,0,0.8-0.1v-1
		c-0.2,0.1-0.4,0.1-0.6,0.1c-0.6,0-0.8-0.2-0.8-0.9v-2.3h1.4v-1h-1.4v-1.4H45.3z"/>
	<polygon fill="#FFFFFF" points="65.2,22.8 65.2,22.1 65.5,22.1 65.5,21.9 64.7,21.9 64.7,22.1 65,22.1 65,22.8 	"/>
	<polygon fill="#FFFFFF" points="66.1,22.4 65.8,21.9 65.6,21.9 65.6,22.8 65.8,22.8 65.8,22.3 66.1,22.8 66.3,22.3 66.3,22.8 
		66.5,22.8 66.5,21.9 66.3,21.9 	"/>
</g>
</svg>
