<svg baseProfile="tiny" xmlns="http://www.w3.org/2000/svg" viewBox="0 0 320 50" overflow="visible"><g fill="#373535"><path d="M75 42.7c0 .4-.1.8-.3 1.1-.2.3-.4.6-.8.8s-.7.3-1.1.3c-.4 0-.8-.1-1.1-.3-.3-.2-.6-.5-.8-.8s-.3-.7-.3-1.2c0-.4.1-.8.3-1.2.2-.3.5-.6.8-.8s.7-.3 1.1-.3c.4 0 .8.1 1.1.3s.6.4.8.8l-.4.2c-.2-.3-.4-.5-.6-.6-.3-.2-.6-.2-.9-.2-.3 0-.6.1-.9.2-.3.2-.5.4-.6.6s-.2.6-.2.9c0 .3.1.7.2.9s.4.5.6.6.6.2.9.2c.3 0 .5-.1.8-.2s.4-.2.6-.4.3-.4.3-.6h-1.9v-.4H75zM75.8 40.3H79v.4h-2.8v1.5h1.6v.4h-1.6v1.5H79v.4h-3.2v-4.2zM83.2 40.3v4.4h-.5l-2.4-3.6v3.6h-.5v-4.4h.5l2.4 3.6v-3.6h.5zM85.4 42.8v.4H84v-.4h1.4zM88.8 43.5c0 .2-.1.5-.2.6-.1.2-.3.3-.5.5-.2.1-.4.2-.7.2-.3 0-.5-.1-.7-.2s-.4-.3-.5-.5-.2-.4-.2-.6h.5c0 .2 0 .3.1.4l.3.3c.1.1.3.1.5.1s.3 0 .5-.1.2-.2.3-.3.1-.3.1-.4c0-.2 0-.3-.1-.4l-.3-.3c-.1-.1-.3-.1-.4-.1H87v-.4h.4c.2 0 .3 0 .4-.1l.3-.3c.1-.1.1-.2.1-.4s0-.3-.1-.4l-.3-.3c-.1-.1-.3-.1-.4-.1-.2 0-.3 0-.4.1l-.3.3c-.1.1-.1.2-.1.4h-.5c0-.2.1-.4.2-.6.1-.2.3-.3.4-.4.2-.1.4-.2.7-.2.2 0 .5.1.7.2.2.1.3.2.4.4s.2.4.2.6c0 .2 0 .4-.1.6s-.2.3-.4.4c.2.1.3.2.4.4s.2.4.2.6zM92.5 41.7c0 .2 0 .3-.1.5s-.1.3-.2.5l-1.3 2h-.5l1.1-1.7h-.4c-.3 0-.5-.1-.7-.2-.2-.1-.4-.3-.5-.5-.1-.2-.2-.4-.2-.7 0-.3.1-.5.2-.7s.3-.4.5-.5.5-.2.7-.2c.3 0 .5.1.7.2s.4.3.5.5.2.5.2.8zm-1.4 1c.2 0 .4 0 .5-.1.2-.1.3-.2.4-.3s.1-.3.1-.5 0-.4-.1-.5-.2-.3-.4-.3-.3-.1-.5-.1-.4 0-.5.1-.3.2-.4.3-.1.3-.1.5 0 .4.1.5.2.3.4.3c.1 0 .3.1.5.1zM96 43.5c0 .2-.1.5-.2.6-.1.2-.3.3-.5.5-.2.1-.4.2-.7.2-.3 0-.5-.1-.7-.2s-.4-.3-.5-.5-.2-.4-.2-.6h.5c0 .2 0 .3.1.4l.3.3c.1.1.3.1.5.1s.3 0 .5-.1.2-.2.3-.3.1-.3.1-.4c0-.2 0-.3-.1-.4l-.3-.3c-.1-.1-.3-.1-.4-.1h-.4v-.4h.4c.2 0 .3 0 .4-.1l.3-.3c.1-.1.1-.2.1-.4s0-.3-.1-.4l-.3-.3c-.1-.1-.3-.1-.4-.1-.2 0-.3 0-.4.1s-.3.2-.3.3c-.1.1-.1.2-.1.4h-.5c0-.2.1-.4.2-.6.1-.2.3-.3.4-.4.2-.1.4-.2.7-.2.2 0 .5.1.7.2.2.1.3.2.4.4s.2.4.2.6c0 .2 0 .4-.1.6s-.2.3-.4.4c.2.1.3.2.4.4s.1.4.1.6zM99.7 43.4c0 .3-.1.5-.2.7s-.3.4-.5.5c-.2.1-.5.2-.7.2-.3 0-.5-.1-.7-.2-.2-.1-.4-.3-.5-.5s-.2-.4-.2-.7h.5c0 .2 0 .3.1.5.1.1.2.3.3.3.1.1.3.1.5.1s.4 0 .5-.1c.1-.1.3-.2.3-.3.1-.1.1-.3.1-.5s0-.3-.1-.5-.2-.3-.3-.3c-.1-.1-.3-.1-.5-.1h-1.2l.3-2.1h2.2v.4h-1.8l-.2 1.2h.7c.3 0 .5.1.7.2s.4.3.5.5.2.4.2.7zM101.6 40.8l-1.2.7V41l1.2-.7h.5v4.4h-.5v-3.9zM105.9 44.3v.4h-2.7v-.4l1.8-1.9c.1-.2.2-.3.3-.4s.1-.3.1-.4c0-.2 0-.3-.1-.4l-.3-.3c-.1-.1-.3-.1-.5-.1s-.3 0-.4.1l-.3.3c-.1.1-.1.3-.1.4h-.5c0-.2.1-.5.2-.7s.3-.3.5-.5.4-.2.7-.2c.3 0 .5.1.7.2s.4.3.5.5.2.4.2.7c0 .2 0 .4-.1.6s-.2.4-.4.6l-1.4 1.5h1.8zM109.9 42.9v.4h-.8v1.4h-.5v-1.4h-2V43l1.9-2.6h.5V43h.9zm-1.3 0V41l-1.4 1.9h1.4zM110.8 44.1c.1 0 .2 0 .2.1s.1.1.1.2 0 .2-.1.2c-.1.1-.1.1-.2.1s-.2 0-.2-.1c-.1-.1-.1-.1-.1-.2s0-.2.1-.2.1-.1.2-.1zM114.7 44.3v.4H112v-.4l1.8-1.9c.1-.2.2-.3.3-.4s.1-.3.1-.4c0-.2 0-.3-.1-.4l-.3-.3c-.1-.1-.3-.1-.5-.1s-.3 0-.4.1l-.3.3c-.1.1-.1.3-.1.4h-.5c0-.2.1-.5.2-.7s.3-.3.5-.5.4-.2.7-.2c.3 0 .5.1.7.2s.4.3.5.5.2.4.2.7c0 .2 0 .4-.1.6s-.2.4-.4.6l-1.4 1.5h1.8z"/></g></svg>