<svg baseProfile="tiny" xmlns="http://www.w3.org/2000/svg" viewBox="0 0 320 50" overflow="visible"><g fill="#193062"><path d="M71.2 9.1h6v1.6h-4.4v1.4h2.4v1.6h-2.4v3.1h-1.6V9.1zM79 8.9c.6 0 1 .4 1 1 0 .5-.4 1-1 1s-1-.4-1-1 .4-1 1-1zm.8 7.9h-1.6v-5.3h1.6v5.3zM86 13.5v3.3h-1.6v-3c0-.5-.3-.9-.9-.9s-.9.4-.9.9v3H81v-5.3h1.5v.3c.3-.3.8-.4 1.3-.4 1.3 0 2.2.9 2.2 2.1zM92.5 8.8v8H91v-.3c-.4.3-.8.4-1.4.4-1.5 0-2.6-1.2-2.6-2.8 0-1.6 1.1-2.8 2.6-2.8.5 0 1 .1 1.3.4v-3h1.6zM91 14.1c0-.7-.5-1.3-1.2-1.3s-1.2.5-1.2 1.3c0 .7.5 1.2 1.2 1.2.7.1 1.2-.5 1.2-1.2zM97 9.1h1.6v6.1h4.4v1.6h-6V9.1zM104.8 8.9c.6 0 1 .4 1 1 0 .5-.4 1-1 1s-1-.4-1-1c.1-.6.5-1 1-1zm.8 7.9H104v-5.3h1.6v5.3zM107.5 13h-1v-1.5h1v-1.1c0-1 .7-1.6 1.7-1.6h1.2v1.5h-.9c-.3 0-.4.1-.4.4v.8h1.3V13h-1.3v3.8h-1.6V13zM116.1 14.7h-3.7c.2.5.6.8 1.2.8.5 0 .9-.3 1.1-.6l1.2.7c-.5.8-1.3 1.3-2.4 1.3-1.6 0-2.8-1.2-2.8-2.8 0-1.6 1.1-2.8 2.7-2.8s2.7 1.2 2.7 2.8c.1.2.1.4 0 .6zm-3.7-1.1h2.2c-.1-.5-.6-.8-1.1-.8-.5 0-.9.3-1.1.8zM120.4 9.1h1.6v7.7h-1.6V9.1zM128.4 13.5v3.3h-1.6v-3c0-.5-.3-.9-.9-.9s-.9.4-.9.9v3h-1.6v-5.3h1.5v.3c.3-.3.8-.4 1.3-.4 1.3 0 2.2.9 2.2 2.1zM131.6 15.5c.4 0 .7-.2.7-.4s-.1-.3-.4-.3c-.3 0-.6 0-1-.1-1-.2-1.5-.8-1.5-1.6 0-1 .9-1.8 2.1-1.8 1.2 0 2.1.7 2.1 1.8h-1.5c0-.2-.3-.4-.7-.4-.4 0-.6.2-.6.4 0 .1.1.2.4.3.3 0 .6 0 1 .1 1 .1 1.5.8 1.5 1.6 0 1.1-.9 1.8-2.2 1.8-1.3 0-2.2-.8-2.2-1.8h1.5c.1.2.4.4.8.4zM139.7 11.5v5.3h-1.5v-.3c-.3.3-.8.4-1.3.4-1.2 0-2.1-.9-2.1-2.1v-3.3h1.6v3c0 .5.3.9.9.9s.9-.4.9-.9v-3h1.5zM144.4 11.5V13h-.8c-.6 0-1 .5-1 1v2.7H141v-5.3h1.5v.6c.3-.4.8-.5 1.2-.5h.7zM149.5 13.5v3.3H148v-.3c-.3.3-.7.4-1.3.4-1.1 0-1.8-.7-1.8-1.7 0-1.1.8-1.6 1.8-1.6l1.3-.1v-.1c0-.4-.3-.6-.8-.6-.4 0-.7.2-.8.5H145c.1-1.1 1-1.9 2.2-1.9 1.4 0 2.3.9 2.3 2.1zm-1.5 1.4v-.3l-1 .1c-.4 0-.6.2-.6.5s.2.5.7.5c.6 0 .9-.3.9-.8zM155.8 13.5v3.3h-1.6v-3c0-.5-.3-.9-.9-.9s-.9.4-.9.9v3h-1.6v-5.3h1.5v.3c.3-.3.8-.4 1.3-.4 1.3 0 2.2.9 2.2 2.1zM159.5 11.4c1 0 1.8.5 2.3 1.2l-1.3.9c-.2-.4-.6-.6-1-.6-.7 0-1.2.5-1.2 1.2s.5 1.2 1.2 1.2c.5 0 .8-.2 1-.6l1.3.9c-.5.8-1.3 1.2-2.3 1.2-1.6 0-2.7-1.2-2.7-2.8s1.1-2.6 2.7-2.6zM167.6 14.7h-3.7c.2.5.6.8 1.2.8.5 0 .9-.3 1.1-.6l1.2.7c-.5.8-1.3 1.3-2.4 1.3-1.6 0-2.8-1.2-2.8-2.8 0-1.6 1.1-2.8 2.7-2.8s2.7 1.2 2.7 2.8v.6zm-3.8-1.1h2.2c-.1-.5-.6-.8-1.1-.8-.5 0-.9.3-1.1.8zM172.2 13h-1v-1.5h1v-1.1c0-1 .7-1.6 1.7-1.6h1.2v1.5h-.9c-.3 0-.4.1-.4.4v.8h1.3V13h-1.3v3.8h-1.6V13zM178.3 11.4c1.6 0 2.8 1.2 2.8 2.8 0 1.5-1.2 2.8-2.8 2.8s-2.8-1.2-2.8-2.8c0-1.6 1.2-2.8 2.8-2.8zm0 4c.7 0 1.2-.5 1.2-1.2s-.5-1.2-1.2-1.2-1.2.5-1.2 1.2c0 .6.5 1.2 1.2 1.2zM185.5 11.5V13h-.8c-.6 0-1 .5-1 1v2.7h-1.6v-5.3h1.5v.6c.3-.4.8-.5 1.2-.5h.7zM193.7 11.5L191 19h-1.6l.8-2.3-1.9-5.2h1.7l1 2.9 1-2.9h1.7zM196.8 11.4c1.6 0 2.8 1.2 2.8 2.8 0 1.5-1.2 2.8-2.8 2.8s-2.8-1.2-2.8-2.8c0-1.6 1.2-2.8 2.8-2.8zm0 4c.7 0 1.2-.5 1.2-1.2s-.5-1.2-1.2-1.2-1.2.5-1.2 1.2c0 .6.5 1.2 1.2 1.2zM205.4 11.5v5.3h-1.5v-.3c-.3.3-.8.4-1.3.4-1.2 0-2.1-.9-2.1-2.1v-3.3h1.6v3c0 .5.3.9.9.9.5 0 .9-.4.9-.9v-3h1.5zM210.2 11.5V13h-.8c-.6 0-1 .5-1 1v2.7h-1.6v-5.3h1.5v.6c.3-.4.8-.5 1.2-.5h.7zM214.6 13h-1v-1.5h1v-1.1c0-1 .7-1.6 1.7-1.6h1.2v1.5h-.9c-.3 0-.4.1-.4.4v.8h1.3V13h-1.3v3.8h-1.6V13zM222.6 13.5v3.3h-1.5v-.3c-.3.3-.7.4-1.3.4-1.1 0-1.8-.7-1.8-1.7 0-1.1.8-1.6 1.8-1.6l1.3-.1v-.1c0-.4-.3-.6-.8-.6-.4 0-.7.2-.8.5H218c.1-1.1 1-1.9 2.2-1.9 1.5 0 2.4.9 2.4 2.1zm-1.5 1.4v-.3l-1 .1c-.4 0-.6.2-.6.5s.2.5.7.5c.6 0 .9-.3.9-.8zM231.7 13.3v3.5h-1.6v-3.1c0-.4-.3-.8-.8-.8s-.8.4-.8.8v3.1h-1.6v-3.1c0-.4-.3-.8-.8-.8s-.8.4-.8.8v3.1H224v-5.3h1.5v.3c.3-.2.7-.4 1.2-.4.6 0 1 .2 1.4.5.4-.3.9-.5 1.5-.5 1.2 0 2.1.8 2.1 1.9zM233.8 8.9c.6 0 1 .4 1 1 0 .5-.4 1-1 1s-1-.4-1-1c.1-.6.5-1 1-1zm.8 7.9H233v-5.3h1.6v5.3zM236 8.8h1.6v8H236v-8zM243.7 11.5L241 19h-1.6l.8-2.3-1.9-5.2h1.7l1 2.9 1-2.9h1.7z"/></g><g fill="#193062"><path d="M78.5 24.5l-1.7 5.3h-1.6l-.7-2.2-.7 2.2h-1.6l-1.8-5.3h1.7l.9 3 .9-3h1l.9 2.9 1-2.9h1.7zM80 21.9c.6 0 1 .4 1 1 0 .5-.4 1-1 1s-1-.4-1-1c.1-.6.5-1 1-1zm.8 7.9h-1.6v-5.3h1.6v5.3zM84 24.5h1.6V26H84v1.8c0 .3.2.6.6.6h1v1.5h-1.4c-1.1 0-1.8-.7-1.8-1.8v-2h-.8v-.8l1.5-1.8h.9v1zM91.5 26.5v3.3H90v-3c0-.5-.3-.9-.9-.9-.6 0-.9.4-.9.9v3h-1.6v-8h1.6v3c.3-.3.8-.4 1.3-.4 1.1 0 2 .9 2 2.1zM98.3 24.4c1 0 1.8.5 2.3 1.2l-1.2.9c-.2-.4-.6-.6-1-.6-.7 0-1.2.5-1.2 1.2s.5 1.2 1.2 1.2c.5 0 .8-.2 1-.6l1.3.9c-.5.8-1.3 1.2-2.3 1.2-1.6 0-2.7-1.2-2.7-2.8-.1-1.4 1-2.6 2.6-2.6zM101.4 21.8h1.6v8h-1.6v-8zM109.3 27.7h-3.7c.2.5.6.8 1.2.8.5 0 .9-.3 1.1-.6l1.2.7c-.5.8-1.3 1.3-2.4 1.3-1.6 0-2.8-1.2-2.8-2.8 0-1.6 1.1-2.8 2.7-2.8s2.7 1.2 2.7 2.8v.6zm-3.7-1.1h2.2c-.1-.5-.6-.8-1.1-.8-.6 0-1 .3-1.1.8zM114.7 26.5v3.3h-1.5v-.3c-.3.3-.7.4-1.3.4-1.1 0-1.8-.7-1.8-1.7 0-1.1.8-1.6 1.8-1.6l1.3-.1v-.1c0-.4-.3-.6-.8-.6-.4 0-.7.2-.8.5h-1.5c.1-1.1 1-1.9 2.2-1.9 1.5 0 2.4.9 2.4 2.1zm-1.5 1.4v-.3l-1 .1c-.4 0-.6.2-.6.5s.2.5.7.5c.6 0 .9-.3.9-.8zM119.5 24.5V26h-.8c-.6 0-1 .5-1 1v2.7h-1.6v-5.3h1.5v.6c.3-.4.8-.5 1.2-.5h.7zM124.1 21.9c.6 0 1 .4 1 1 0 .5-.4 1-1 1s-1-.4-1-1c.1-.6.5-1 1-1zm.8 7.9h-1.6v-5.3h1.6v5.3zM131.2 26.5v3.3h-1.6v-3c0-.5-.3-.9-.9-.9s-.9.4-.9.9v3h-1.6v-5.3h1.5v.3c.3-.3.8-.4 1.3-.4 1.3 0 2.2.9 2.2 2.1zM133 26h-1v-1.5h1v-1.1c0-1 .7-1.6 1.7-1.6h1.2v1.5h-.9c-.3 0-.4.1-.4.4v.8h1.3V26h-1.3v3.8H133V26zM139.1 24.4c1.6 0 2.8 1.2 2.8 2.8 0 1.5-1.2 2.8-2.8 2.8s-2.8-1.2-2.8-2.8c.1-1.6 1.3-2.8 2.8-2.8zm0 4c.7 0 1.2-.5 1.2-1.2s-.5-1.2-1.2-1.2-1.2.5-1.2 1.2c0 .6.5 1.2 1.2 1.2zM146.3 24.5V26h-.8c-.6 0-1 .5-1 1v2.7h-1.6v-5.3h1.5v.6c.3-.4.8-.5 1.2-.5h.7zM154.9 26.3v3.5h-1.6v-3.1c0-.4-.3-.8-.8-.8s-.8.4-.8.8v3.1h-1.6v-3.1c0-.4-.3-.8-.8-.8s-.8.4-.8.8v3.1h-1.6v-5.3h1.5v.3c.3-.2.7-.4 1.2-.4.6 0 1 .2 1.4.5.4-.3.9-.5 1.5-.5 1.5 0 2.4.8 2.4 1.9zM160.6 26.5v3.3h-1.5v-.3c-.3.3-.7.4-1.3.4-1.1 0-1.8-.7-1.8-1.7 0-1.1.8-1.6 1.8-1.6l1.3-.1v-.1c0-.4-.3-.6-.8-.6-.4 0-.7.2-.8.5H156c.1-1.1 1-1.9 2.2-1.9 1.5 0 2.4.9 2.4 2.1zm-1.5 1.4v-.3l-1 .1c-.4 0-.6.2-.6.5s.2.5.7.5c.6 0 .9-.3.9-.8zM163.7 24.5h1.6V26h-1.6v1.8c0 .3.2.6.6.6h1v1.5H164c-1.1 0-1.8-.7-1.8-1.8v-2h-.8v-.8l1.5-1.8h.9v1zM167.2 21.9c.6 0 1 .4 1 1 0 .5-.4 1-1 1s-1-.4-1-1 .4-1 1-1zm.7 7.9h-1.6v-5.3h1.6v5.3zM171.7 24.4c1.6 0 2.8 1.2 2.8 2.8 0 1.5-1.2 2.8-2.8 2.8s-2.8-1.2-2.8-2.8c.1-1.6 1.2-2.8 2.8-2.8zm0 4c.7 0 1.2-.5 1.2-1.2s-.5-1.2-1.2-1.2-1.2.5-1.2 1.2c0 .6.5 1.2 1.2 1.2zM180.4 26.5v3.3h-1.6v-3c0-.5-.3-.9-.9-.9s-.9.4-.9.9v3h-1.6v-5.3h1.5v.3c.3-.3.8-.4 1.3-.4 1.3 0 2.2.9 2.2 2.1zM185.3 26h-1v-1.5h1v-1.1c0-1 .7-1.6 1.7-1.6h1.2v1.5h-.9c-.3 0-.4.1-.4.4v.8h1.3V26h-1.3v3.8h-1.6V26zM192.5 24.5V26h-.8c-.6 0-1 .5-1 1v2.7h-1.6v-5.3h1.5v.6c.3-.4.8-.5 1.2-.5h.7zM195.8 24.4c1.6 0 2.8 1.2 2.8 2.8 0 1.5-1.2 2.8-2.8 2.8s-2.8-1.2-2.8-2.8c0-1.6 1.2-2.8 2.8-2.8zm0 4c.7 0 1.2-.5 1.2-1.2s-.5-1.2-1.2-1.2-1.2.5-1.2 1.2c0 .6.5 1.2 1.2 1.2zM207.3 26.3v3.5h-1.6v-3.1c0-.4-.3-.8-.8-.8s-.8.4-.8.8v3.1h-1.6v-3.1c0-.4-.3-.8-.8-.8s-.8.4-.8.8v3.1h-1.6v-5.3h1.5v.3c.3-.2.7-.4 1.2-.4.6 0 1 .2 1.4.5.4-.3.9-.5 1.5-.5 1.5 0 2.4.8 2.4 1.9zM213.4 24.5h1.6V26h-1.6v1.8c0 .3.2.6.6.6h1v1.5h-1.4c-1.1 0-1.8-.7-1.8-1.8v-2h-.8v-.8l1.5-1.8h.9v1zM221 26.5v3.3h-1.6v-3c0-.5-.3-.9-.9-.9-.6 0-.9.4-.9.9v3H216v-8h1.6v3c.3-.3.8-.4 1.3-.4 1.2 0 2.1.9 2.1 2.1zM227.3 27.7h-3.7c.2.5.6.8 1.2.8.5 0 .9-.3 1.1-.6l1.2.7c-.5.8-1.3 1.3-2.4 1.3-1.6 0-2.8-1.2-2.8-2.8 0-1.6 1.1-2.8 2.7-2.8s2.7 1.2 2.7 2.8v.6zm-3.7-1.1h2.2c-.1-.5-.6-.8-1.1-.8-.6 0-1 .3-1.1.8zM233.3 28.5c.4 0 .7-.2.7-.4s-.1-.3-.4-.3c-.3 0-.6 0-1-.1-1-.2-1.5-.8-1.5-1.6 0-1 .9-1.8 2.1-1.8 1.2 0 2.1.7 2.1 1.8h-1.5c0-.2-.3-.4-.7-.4-.4 0-.6.2-.6.4 0 .1.1.2.4.3.3 0 .6 0 1 .1 1 .1 1.5.8 1.5 1.6 0 1.1-.9 1.8-2.2 1.8-1.3 0-2.2-.8-2.2-1.8h1.5c.1.2.4.4.8.4zM238.2 24.5h1.6V26h-1.6v1.8c0 .3.2.6.6.6h1v1.5h-1.4c-1.1 0-1.8-.7-1.8-1.8v-2h-.8v-.8l1.5-1.8h.9v1zM245.3 26.5v3.3h-1.5v-.3c-.3.3-.7.4-1.3.4-1.1 0-1.8-.7-1.8-1.7 0-1.1.8-1.6 1.8-1.6l1.3-.1v-.1c0-.4-.3-.6-.8-.6-.4 0-.7.2-.8.5h-1.5c.1-1.1 1-1.9 2.2-1.9 1.4 0 2.4.9 2.4 2.1zm-1.5 1.4v-.3l-1 .1c-.4 0-.6.2-.6.5s.2.5.7.5c.5 0 .9-.3.9-.8zM250 24.5V26h-.8c-.6 0-1 .5-1 1v2.7h-1.6v-5.3h1.5v.6c.3-.4.8-.5 1.2-.5h.7zM252.8 24.5h1.6V26h-1.6v1.8c0 .3.2.6.6.6h1v1.5H253c-1.1 0-1.8-.7-1.8-1.8v-2h-.8v-.8l1.5-1.8h.9v1zM256.3 27.9c.6 0 1 .4 1 1 0 .5-.4 1-1 1s-1-.4-1-1 .4-1 1-1z"/></g></svg>