<svg baseProfile="tiny" xmlns="http://www.w3.org/2000/svg" viewBox="0 0 320 50" overflow="visible"><path fill="#193062" d="M.2 0h63v50.5H.2z"/><path fill="#FAE07E" d="M7.4 20h7.7v2.1H7.4z"/><path fill="#FFF" d="M15.8 20h1.9v2.1h-1.9z"/><path fill="#FAE07E" d="M7.4 22.7h5.8v2.1H7.4z"/><path fill="#FFF" d="M13.8 22.7h3.8v2.1h-3.8z"/><path fill="#FAE07E" d="M7.4 25.4h3.8v2.1H7.4z"/><path fill="#FFF" d="M11.8 25.4h5.8v2.1h-5.8z"/><path fill="#FAE07E" d="M7.4 28.1h1.9v2.1H7.4z"/><path fill="#FFF" d="M9.9 28.1h7.7v2.1H9.9zM23.6 23h-1.7v-.9h4.5v.9h-1.8v5.1h-1z"/><path fill="none" d="M53.2 24.6c-.5 0-1.1.3-1.2.9h2.3c0-.6-.5-.9-1.1-.9zM43.4 24.6c-.7 0-1.2.6-1.2 1.3 0 .8.5 1.3 1.2 1.3s1.2-.6 1.2-1.3c.1-.7-.4-1.3-1.2-1.3zM48.4 24.6c-.7 0-1.2.5-1.2 1.3 0 .7.5 1.3 1.2 1.3s1.2-.5 1.2-1.3c0-.7-.5-1.3-1.2-1.3z"/><path fill="#FFF" d="M26.1 23.9v4.2h.9v-2c0-.8.5-1.3 1-1.3.2 0 .3 0 .5.1V24h-.4c-.5 0-.9.3-1.1.8v-.7h-.9zM29.2 23.9v2.5c0 1.1.6 1.8 1.6 1.8.5 0 1-.2 1.2-.7v.6h.9v-4.2H32V26c0 .9-.4 1.4-1 1.4-.5 0-.8-.4-.8-1.1v-2.4h-1zM35.7 27.2c-.6 0-1.1-.3-1.4-.8l-.8.6c.4.6 1.2 1.1 2.1 1.1 1.2 0 2-.7 2-1.7 0-.9-.5-1.4-1.4-1.7l-.6-.2c-.6-.2-.9-.4-.9-.9 0-.4.4-.7.9-.7s.8.2 1.1.6l.7-.7c-.4-.5-1-.8-1.7-.8-1.1 0-1.9.6-1.9 1.7 0 .8.5 1.3 1.4 1.7l.7.2c.6.2.8.5.8.9-.1.4-.5.7-1 .7zM45.5 28.1v-4.2h-.9v.6c-.2-.3-.7-.6-1.3-.6-1.1 0-2 1-2 2.2 0 1.2.9 2.2 2 2.2.6 0 1.1-.3 1.3-.6v.6h.9zm-2.1-.8c-.7 0-1.2-.6-1.2-1.3 0-.8.5-1.3 1.2-1.3s1.2.6 1.2 1.3c.1.7-.4 1.3-1.2 1.3zM48.3 29.1c-.6 0-1-.2-1.4-.6l-.6.7c.4.5 1.1.8 2 .8 1.2 0 2.2-.7 2.2-2.1V24h-.9v.6c-.2-.4-.8-.6-1.3-.6-1.1 0-2 .9-2 2.1 0 1.2.9 2.1 2 2.1.6 0 1.1-.3 1.3-.7v.4c-.1.7-.6 1.2-1.3 1.2zm.1-1.9c-.7 0-1.2-.5-1.2-1.3 0-.7.5-1.3 1.2-1.3s1.2.5 1.2 1.3-.5 1.3-1.2 1.3zM53.3 23.8c-1.3 0-2.2.9-2.2 2.2 0 1.3.9 2.2 2.2 2.2.9 0 1.5-.4 1.9-1l-.7-.5c-.2.4-.6.6-1.2.6-.7 0-1.2-.5-1.3-1.1h3.3v-.3c0-1.4-.9-2.1-2-2.1zM52 25.5c.1-.6.7-.9 1.2-.9s1 .3 1.1.9H52zM38.7 22.7v.5c0 .4-.3.6-.6.6h-.2v.8h.9v2c0 .9.6 1.4 1.4 1.4.3 0 .5 0 .7-.1v-.8c-.1 0-.3.1-.5.1-.5 0-.7-.2-.7-.7v-1.9h1.2v-.8h-1.2v-1.2h-1zM55.9 23.2l-.3-.5h-.1v.7h.1V23l.3.4.2-.4v.4h.1v-.7h-.1zM55.1 23.4v-.6h.3v-.1h-.6v.1h.2v.6z"/></svg>