<?xml version="1.0" encoding="utf-8"?>
<!-- Generator: Adobe Illustrator 27.4.0, SVG Export Plug-In . SVG Version: 6.00 Build 0)  -->
<svg version="1.1" baseProfile="tiny" id="Layer_1" xmlns="http://www.w3.org/2000/svg" xmlns:xlink="http://www.w3.org/1999/xlink"
	 x="0px" y="0px" viewBox="0 0 320 50" overflow="visible" xml:space="preserve">
<g>
	<path fill="#373535" d="M75,42.7c0,0.4-0.1,0.8-0.3,1.1c-0.2,0.3-0.4,0.6-0.8,0.8s-0.7,0.3-1.1,0.3c-0.4,0-0.8-0.1-1.1-0.3
		c-0.3-0.2-0.6-0.5-0.8-0.8s-0.3-0.7-0.3-1.2c0-0.4,0.1-0.8,0.3-1.2c0.2-0.3,0.5-0.6,0.8-0.8s0.7-0.3,1.1-0.3c0.4,0,0.8,0.1,1.1,0.3
		s0.6,0.4,0.8,0.8l-0.4,0.2c-0.2-0.3-0.4-0.5-0.6-0.6c-0.3-0.2-0.6-0.2-0.9-0.2c-0.3,0-0.6,0.1-0.9,0.2c-0.3,0.2-0.5,0.4-0.6,0.6
		s-0.2,0.6-0.2,0.9c0,0.3,0.1,0.7,0.2,0.9s0.4,0.5,0.6,0.6s0.6,0.2,0.9,0.2c0.3,0,0.5-0.1,0.8-0.2s0.4-0.2,0.6-0.4s0.3-0.4,0.3-0.6
		h-1.9v-0.4H75z"/>
	<path fill="#373535" d="M75.8,40.3H79v0.4h-2.8v1.5h1.6v0.4h-1.6v1.5H79v0.4h-3.2V40.3z"/>
	<path fill="#373535" d="M83.2,40.3v4.4h-0.5l-2.4-3.6v3.6h-0.5v-4.4h0.5l2.4,3.6v-3.6H83.2z"/>
	<path fill="#373535" d="M85.4,42.8v0.4H84v-0.4H85.4z"/>
	<path fill="#373535" d="M88.8,43.5c0,0.2-0.1,0.5-0.2,0.6c-0.1,0.2-0.3,0.3-0.5,0.5c-0.2,0.1-0.4,0.2-0.7,0.2
		c-0.3,0-0.5-0.1-0.7-0.2s-0.4-0.3-0.5-0.5s-0.2-0.4-0.2-0.6h0.5c0,0.2,0,0.3,0.1,0.4s0.2,0.2,0.3,0.3c0.1,0.1,0.3,0.1,0.5,0.1
		c0.2,0,0.3,0,0.5-0.1s0.2-0.2,0.3-0.3s0.1-0.3,0.1-0.4c0-0.2,0-0.3-0.1-0.4c-0.1-0.1-0.2-0.2-0.3-0.3s-0.3-0.1-0.4-0.1H87v-0.4h0.4
		c0.2,0,0.3,0,0.4-0.1s0.2-0.2,0.3-0.3s0.1-0.2,0.1-0.4c0-0.2,0-0.3-0.1-0.4s-0.2-0.2-0.3-0.3s-0.3-0.1-0.4-0.1
		c-0.2,0-0.3,0-0.4,0.1s-0.2,0.2-0.3,0.3c-0.1,0.1-0.1,0.2-0.1,0.4h-0.5c0-0.2,0.1-0.4,0.2-0.6c0.1-0.2,0.3-0.3,0.4-0.4
		c0.2-0.1,0.4-0.2,0.7-0.2c0.2,0,0.5,0.1,0.7,0.2c0.2,0.1,0.3,0.2,0.4,0.4s0.2,0.4,0.2,0.6c0,0.2,0,0.4-0.1,0.6s-0.2,0.3-0.4,0.4
		c0.2,0.1,0.3,0.2,0.4,0.4S88.8,43.3,88.8,43.5z"/>
	<path fill="#373535" d="M92.5,41.7c0,0.2,0,0.3-0.1,0.5s-0.1,0.3-0.2,0.5l-1.3,2h-0.5l1.1-1.7c-0.1,0-0.3,0-0.4,0
		c-0.3,0-0.5-0.1-0.7-0.2c-0.2-0.1-0.4-0.3-0.5-0.5c-0.1-0.2-0.2-0.4-0.2-0.7c0-0.3,0.1-0.5,0.2-0.7s0.3-0.4,0.5-0.5
		s0.5-0.2,0.7-0.2c0.3,0,0.5,0.1,0.7,0.2s0.4,0.3,0.5,0.5S92.5,41.4,92.5,41.7z M91.1,42.7c0.2,0,0.4,0,0.5-0.1
		c0.2-0.1,0.3-0.2,0.4-0.3s0.1-0.3,0.1-0.5c0-0.2,0-0.4-0.1-0.5s-0.2-0.3-0.4-0.3s-0.3-0.1-0.5-0.1s-0.4,0-0.5,0.1s-0.3,0.2-0.4,0.3
		s-0.1,0.3-0.1,0.5c0,0.2,0,0.4,0.1,0.5s0.2,0.3,0.4,0.3C90.7,42.6,90.9,42.7,91.1,42.7z"/>
	<path fill="#373535" d="M96,43.5c0,0.2-0.1,0.5-0.2,0.6c-0.1,0.2-0.3,0.3-0.5,0.5c-0.2,0.1-0.4,0.2-0.7,0.2c-0.3,0-0.5-0.1-0.7-0.2
		s-0.4-0.3-0.5-0.5s-0.2-0.4-0.2-0.6h0.5c0,0.2,0,0.3,0.1,0.4s0.2,0.2,0.3,0.3c0.1,0.1,0.3,0.1,0.5,0.1c0.2,0,0.3,0,0.5-0.1
		s0.2-0.2,0.3-0.3s0.1-0.3,0.1-0.4c0-0.2,0-0.3-0.1-0.4c-0.1-0.1-0.2-0.2-0.3-0.3s-0.3-0.1-0.4-0.1h-0.4v-0.4h0.4
		c0.2,0,0.3,0,0.4-0.1s0.2-0.2,0.3-0.3s0.1-0.2,0.1-0.4c0-0.2,0-0.3-0.1-0.4s-0.2-0.2-0.3-0.3s-0.3-0.1-0.4-0.1
		c-0.2,0-0.3,0-0.4,0.1S94,41,94,41.1c-0.1,0.1-0.1,0.2-0.1,0.4h-0.5c0-0.2,0.1-0.4,0.2-0.6c0.1-0.2,0.3-0.3,0.4-0.4
		c0.2-0.1,0.4-0.2,0.7-0.2c0.2,0,0.5,0.1,0.7,0.2c0.2,0.1,0.3,0.2,0.4,0.4s0.2,0.4,0.2,0.6c0,0.2,0,0.4-0.1,0.6s-0.2,0.3-0.4,0.4
		c0.2,0.1,0.3,0.2,0.4,0.4S96,43.3,96,43.5z"/>
	<path fill="#373535" d="M99.7,43.4c0,0.3-0.1,0.5-0.2,0.7s-0.3,0.4-0.5,0.5c-0.2,0.1-0.5,0.2-0.7,0.2c-0.3,0-0.5-0.1-0.7-0.2
		c-0.2-0.1-0.4-0.3-0.5-0.5s-0.2-0.4-0.2-0.7h0.5c0,0.2,0,0.3,0.1,0.5c0.1,0.1,0.2,0.3,0.3,0.3c0.1,0.1,0.3,0.1,0.5,0.1
		c0.2,0,0.4,0,0.5-0.1c0.1-0.1,0.3-0.2,0.3-0.3c0.1-0.1,0.1-0.3,0.1-0.5s0-0.3-0.1-0.5s-0.2-0.3-0.3-0.3c-0.1-0.1-0.3-0.1-0.5-0.1
		h-1.2l0.3-2.1h2.2v0.4h-1.8L97.6,42h0.7c0.3,0,0.5,0.1,0.7,0.2s0.4,0.3,0.5,0.5S99.7,43.1,99.7,43.4z"/>
	<path fill="#373535" d="M101.6,40.8l-1.2,0.7v-0.5l1.2-0.7h0.5v4.4h-0.5V40.8z"/>
	<path fill="#373535" d="M105.9,44.3v0.4h-2.7v-0.4l1.8-1.9c0.1-0.2,0.2-0.3,0.3-0.4s0.1-0.3,0.1-0.4c0-0.2,0-0.3-0.1-0.4
		s-0.2-0.2-0.3-0.3s-0.3-0.1-0.5-0.1c-0.2,0-0.3,0-0.4,0.1s-0.2,0.2-0.3,0.3s-0.1,0.3-0.1,0.4h-0.5c0-0.2,0.1-0.5,0.2-0.7
		s0.3-0.3,0.5-0.5s0.4-0.2,0.7-0.2c0.3,0,0.5,0.1,0.7,0.2s0.4,0.3,0.5,0.5s0.2,0.4,0.2,0.7c0,0.2,0,0.4-0.1,0.6s-0.2,0.4-0.4,0.6
		l-1.4,1.5H105.9z"/>
	<path fill="#373535" d="M109.9,42.9v0.4h-0.8v1.4h-0.5v-1.4h-2V43l1.9-2.6h0.5v2.6H109.9z M108.6,42.9V41l-1.4,1.9H108.6z"/>
	<path fill="#373535" d="M110.8,44.1c0.1,0,0.2,0,0.2,0.1s0.1,0.1,0.1,0.2s0,0.2-0.1,0.2c-0.1,0.1-0.1,0.1-0.2,0.1s-0.2,0-0.2-0.1
		c-0.1-0.1-0.1-0.1-0.1-0.2s0-0.2,0.1-0.2S110.7,44.1,110.8,44.1z"/>
	<path fill="#373535" d="M114.7,44.3v0.4H112v-0.4l1.8-1.9c0.1-0.2,0.2-0.3,0.3-0.4s0.1-0.3,0.1-0.4c0-0.2,0-0.3-0.1-0.4
		s-0.2-0.2-0.3-0.3s-0.3-0.1-0.5-0.1c-0.2,0-0.3,0-0.4,0.1s-0.2,0.2-0.3,0.3s-0.1,0.3-0.1,0.4H112c0-0.2,0.1-0.5,0.2-0.7
		s0.3-0.3,0.5-0.5s0.4-0.2,0.7-0.2c0.3,0,0.5,0.1,0.7,0.2s0.4,0.3,0.5,0.5s0.2,0.4,0.2,0.7c0,0.2,0,0.4-0.1,0.6s-0.2,0.4-0.4,0.6
		l-1.4,1.5H114.7z"/>
</g>
</svg>
