<?xml version="1.0" encoding="utf-8"?>
<!-- Generator: Adobe Illustrator 27.4.0, SVG Export Plug-In . SVG Version: 6.00 Build 0)  -->
<svg version="1.1" baseProfile="tiny" id="Layer_1" xmlns="http://www.w3.org/2000/svg" xmlns:xlink="http://www.w3.org/1999/xlink"
	 x="0px" y="0px" viewBox="0 0 320 50" overflow="visible" xml:space="preserve">
<g>
	<path fill="#193062" d="M79.9,11.5v0.3c0,2.3-1.6,4-4,4c-2.4,0-4.1-1.7-4.1-4.1c0-2.3,1.7-4.1,4.1-4.1c1.6,0,2.9,0.8,3.6,2
		l-1.5,0.9C77.8,9.8,77,9.3,76,9.3c-1.4,0-2.4,1.1-2.4,2.4c0,1.5,0.9,2.5,2.4,2.5c1,0,1.7-0.4,2-1.1h-2.6v-1.6H79.9z"/>
	<path fill="#193062" d="M86.2,13.6h-3.9c0.2,0.5,0.7,0.8,1.3,0.8c0.5,0,0.9-0.3,1.2-0.6l1.3,0.8c-0.5,0.8-1.4,1.4-2.5,1.4
		c-1.7,0-2.9-1.3-2.9-2.9c0-1.7,1.2-2.9,2.8-2.9c1.7,0,2.8,1.2,2.8,2.9C86.3,13.2,86.2,13.4,86.2,13.6z M82.3,12.4h2.4
		c-0.2-0.5-0.6-0.8-1.2-0.8C82.9,11.6,82.4,11.9,82.3,12.4z"/>
	<path fill="#193062" d="M89.1,10.2h1.7v1.6h-1.7v1.8c0,0.4,0.2,0.6,0.6,0.6h1.1v1.6h-1.4c-1.1,0-1.9-0.7-1.9-1.8v-2.1h-0.8v-0.8
		l1.5-1.9h0.9V10.2z"/>
	<path fill="#193062" d="M100.9,13c0,1.6-1.1,2.9-2.7,2.9c-0.6,0-1-0.2-1.4-0.5v0.3h-1.6V7.4h1.6v3.1c0.4-0.3,0.9-0.4,1.4-0.4
		C99.7,10.1,100.9,11.4,100.9,13z M99.2,13c0-0.7-0.5-1.3-1.3-1.3c-0.8,0-1.3,0.6-1.3,1.3c0,0.7,0.5,1.3,1.3,1.3
		C98.7,14.3,99.2,13.7,99.2,13z"/>
	<path fill="#193062" d="M106.5,12.3v3.5h-1.6v-0.3c-0.3,0.3-0.7,0.4-1.4,0.4c-1.1,0-1.9-0.7-1.9-1.7c0-1.1,0.9-1.6,1.9-1.7l1.4-0.1
		v-0.1c0-0.4-0.4-0.7-0.8-0.7c-0.4,0-0.7,0.2-0.8,0.5h-1.6c0.1-1.2,1-2,2.4-2C105.6,10.1,106.5,11,106.5,12.3z M104.9,13.8v-0.3
		l-1.1,0.1c-0.4,0-0.6,0.2-0.6,0.5c0,0.3,0.3,0.5,0.7,0.5C104.6,14.6,104.9,14.3,104.9,13.8z"/>
	<path fill="#193062" d="M110.5,10.1c1.1,0,1.9,0.5,2.4,1.3l-1.3,0.9c-0.2-0.4-0.6-0.6-1.1-0.6c-0.7,0-1.3,0.6-1.3,1.3
		c0,0.7,0.5,1.3,1.3,1.3c0.5,0,0.8-0.3,1.1-0.6l1.3,0.9c-0.5,0.8-1.4,1.3-2.4,1.3c-1.7,0-2.9-1.3-2.9-2.9
		C107.6,11.4,108.8,10.1,110.5,10.1z"/>
	<path fill="#193062" d="M117.1,12.9l2.1,2.9h-2l-1.8-2.6v2.6h-1.6V7.4h1.6v5.1l1.8-2.3h2L117.1,12.9z"/>
	<path fill="#193062" d="M124.9,10.2h1.7v1.6h-1.7v1.8c0,0.4,0.2,0.6,0.6,0.6h1.1v1.6h-1.4c-1.1,0-1.9-0.7-1.9-1.8v-2.1h-0.8v-0.8
		l1.5-1.9h0.9V10.2z"/>
	<path fill="#193062" d="M130.2,10.1c1.7,0,2.9,1.3,2.9,2.9c0,1.6-1.2,2.9-2.9,2.9c-1.7,0-2.9-1.3-2.9-2.9
		C127.3,11.4,128.5,10.1,130.2,10.1z M130.2,14.3c0.7,0,1.3-0.6,1.3-1.3c0-0.7-0.5-1.3-1.3-1.3c-0.7,0-1.3,0.6-1.3,1.3
		C128.9,13.7,129.5,14.3,130.2,14.3z"/>
	<path fill="#193062" d="M139.2,10.2h1.7v1.6h-1.7v1.8c0,0.4,0.2,0.6,0.6,0.6h1.1v1.6h-1.4c-1.1,0-1.9-0.7-1.9-1.8v-2.1h-0.8v-0.8
		l1.5-1.9h0.9V10.2z"/>
	<path fill="#193062" d="M147.1,12.3v3.5h-1.6v-3.1c0-0.5-0.4-1-0.9-1c-0.6,0-1,0.4-1,1v3.1H142V7.4h1.6v3.1
		c0.4-0.3,0.8-0.4,1.3-0.4C146.2,10.1,147.1,11,147.1,12.3z"/>
	<path fill="#193062" d="M153.7,13.6h-3.9c0.2,0.5,0.7,0.8,1.3,0.8c0.5,0,0.9-0.3,1.2-0.6l1.3,0.8c-0.5,0.8-1.4,1.4-2.5,1.4
		c-1.7,0-2.9-1.3-2.9-2.9c0-1.7,1.2-2.9,2.8-2.9c1.7,0,2.8,1.2,2.8,2.9C153.7,13.2,153.7,13.4,153.7,13.6z M149.8,12.4h2.4
		c-0.2-0.5-0.6-0.8-1.2-0.8C150.4,11.6,149.9,11.9,149.8,12.4z"/>
	<path fill="#193062" d="M159.8,10.2h1.7v1.6h-1.7v1.8c0,0.4,0.2,0.6,0.6,0.6h1.1v1.6h-1.4c-1.1,0-1.9-0.7-1.9-1.8v-2.1h-0.8v-0.8
		l1.5-1.9h0.9V10.2z"/>
	<path fill="#193062" d="M167.8,12.3v3.5h-1.6v-3.1c0-0.5-0.4-1-0.9-1c-0.6,0-1,0.4-1,1v3.1h-1.6V7.4h1.6v3.1
		c0.4-0.3,0.8-0.4,1.3-0.4C166.8,10.1,167.8,11,167.8,12.3z"/>
	<path fill="#193062" d="M170,7.5c0.6,0,1,0.4,1,1c0,0.6-0.4,1-1,1s-1-0.5-1-1C169,7.9,169.4,7.5,170,7.5z M170.8,15.8h-1.6v-5.5
		h1.6V15.8z"/>
	<path fill="#193062" d="M177.4,12.3v3.5h-1.6v-3.1c0-0.5-0.4-0.9-0.9-0.9c-0.6,0-0.9,0.4-0.9,0.9v3.1h-1.6v-5.5h1.6v0.3
		c0.4-0.3,0.8-0.4,1.4-0.4C176.5,10.1,177.4,11,177.4,12.3z"/>
	<path fill="#193062" d="M184,10.2v5.4c0,1.5-1.1,2.6-2.8,2.6c-1.3,0-2.2-0.7-2.6-1.8l1.5-0.6c0.2,0.5,0.5,0.8,1.1,0.8
		c0.7,0,1.1-0.4,1.1-1.1v-0.4c-0.4,0.3-0.8,0.4-1.3,0.4c-1.5,0-2.6-1.2-2.6-2.7s1.1-2.7,2.6-2.7c0.5,0,1,0.2,1.4,0.5v-0.3H184z
		 M182.4,12.9c0-0.7-0.5-1.2-1.2-1.2c-0.7,0-1.2,0.5-1.2,1.2c0,0.6,0.5,1.1,1.2,1.1C181.9,14,182.4,13.5,182.4,12.9z"/>
	<path fill="#193062" d="M187.4,14.4c0.4,0,0.7-0.2,0.7-0.4c0-0.2-0.1-0.3-0.4-0.3c-0.3,0-0.6,0-1-0.1c-1.1-0.2-1.6-0.8-1.6-1.6
		c0-1.1,0.9-1.9,2.2-1.9c1.3,0,2.2,0.8,2.2,1.9h-1.6c0-0.3-0.3-0.4-0.7-0.4c-0.4,0-0.7,0.2-0.7,0.4c0,0.2,0.1,0.2,0.4,0.3
		c0.4,0,0.6,0,1,0.1c1.1,0.1,1.6,0.8,1.6,1.6c0,1.1-0.9,1.9-2.3,1.9c-1.4,0-2.3-0.8-2.3-1.9h1.6C186.7,14.3,187,14.4,187.4,14.4z"/>
	<path fill="#193062" d="M198.5,10.2l-2.8,7.9H194l0.9-2.5l-2-5.4h1.8l1.1,3l1.1-3H198.5z"/>
	<path fill="#193062" d="M201.7,10.1c1.7,0,2.9,1.3,2.9,2.9c0,1.6-1.2,2.9-2.9,2.9c-1.7,0-2.9-1.3-2.9-2.9
		C198.8,11.4,200,10.1,201.7,10.1z M201.7,14.3c0.7,0,1.3-0.6,1.3-1.3c0-0.7-0.5-1.3-1.3-1.3c-0.7,0-1.3,0.6-1.3,1.3
		C200.4,13.7,200.9,14.3,201.7,14.3z"/>
	<path fill="#193062" d="M210.7,10.2v5.5h-1.6v-0.3c-0.4,0.3-0.8,0.4-1.3,0.4c-1.2,0-2.2-0.9-2.2-2.2v-3.5h1.6v3.1
		c0,0.5,0.4,0.9,0.9,0.9c0.6,0,0.9-0.4,0.9-0.9v-3.1H210.7z"/>
	<path fill="#193062" d="M215.4,7.4h1.6v8.4h-1.6V7.4z"/>
	<path fill="#193062" d="M221,10.1c1.7,0,2.9,1.3,2.9,2.9c0,1.6-1.2,2.9-2.9,2.9c-1.7,0-2.9-1.3-2.9-2.9
		C218.1,11.4,219.3,10.1,221,10.1z M221,14.3c0.7,0,1.3-0.6,1.3-1.3c0-0.7-0.5-1.3-1.3-1.3c-0.7,0-1.3,0.6-1.3,1.3
		C219.7,13.7,220.2,14.3,221,14.3z"/>
	<path fill="#193062" d="M229.8,10.2l-2,5.5h-1.6l-2-5.5h1.8l1.1,3.1l1.1-3.1H229.8z"/>
	<path fill="#193062" d="M235.6,13.6h-3.9c0.2,0.5,0.7,0.8,1.3,0.8c0.5,0,0.9-0.3,1.2-0.6l1.3,0.8c-0.5,0.8-1.4,1.4-2.5,1.4
		c-1.7,0-2.9-1.3-2.9-2.9c0-1.7,1.2-2.9,2.8-2.9c1.7,0,2.8,1.2,2.8,2.9C235.6,13.2,235.6,13.4,235.6,13.6z M231.7,12.4h2.4
		c-0.2-0.5-0.6-0.8-1.2-0.8C232.2,11.6,231.8,11.9,231.7,12.4z"/>
	<path fill="#193062" d="M237.5,13.8c0.6,0,1,0.4,1,1c0,0.6-0.4,1-1,1s-1-0.5-1-1C236.5,14.3,236.9,13.8,237.5,13.8z"/>
</g>
<g>
	<path fill="#193062" d="M76.4,28.7h-2.9l-0.3,1.1h-1.7l2.6-8h1.8l2.6,8h-1.7L76.4,28.7z M75.9,27.1L75,24.3l-0.9,2.8H75.9z"/>
	<path fill="#193062" d="M85.1,27c0,1.6-1.1,2.9-2.7,2.9c-0.5,0-1-0.2-1.4-0.4v2.6h-1.6v-7.9h1.6v0.3c0.4-0.3,0.9-0.4,1.4-0.4
		C83.9,24.1,85.1,25.4,85.1,27z M83.5,27c0-0.7-0.5-1.3-1.3-1.3c-0.8,0-1.3,0.6-1.3,1.3c0,0.7,0.5,1.3,1.3,1.3
		C82.9,28.3,83.5,27.7,83.5,27z"/>
	<path fill="#193062" d="M91.9,27c0,1.6-1.1,2.9-2.7,2.9c-0.5,0-1-0.2-1.4-0.4v2.6h-1.6v-7.9h1.6v0.3c0.4-0.3,0.9-0.4,1.4-0.4
		C90.8,24.1,91.9,25.4,91.9,27z M90.3,27c0-0.7-0.5-1.3-1.3-1.3c-0.8,0-1.3,0.6-1.3,1.3c0,0.7,0.5,1.3,1.3,1.3
		C89.8,28.3,90.3,27.7,90.3,27z"/>
	<path fill="#193062" d="M93,21.4h1.6v8.4H93V21.4z"/>
	<path fill="#193062" d="M101,24.2l-2.8,7.9h-1.7l0.9-2.5l-2-5.4h1.8l1.1,3l1.1-3H101z"/>
	<path fill="#193062" d="M105.1,25.8H104v-1.6h1.1v-1.1c0-1.1,0.7-1.7,1.8-1.7h1.2v1.6h-0.9c-0.3,0-0.5,0.2-0.5,0.4v0.8h1.4v1.6
		h-1.4v4h-1.6V25.8z"/>
	<path fill="#193062" d="M111.6,24.1c1.7,0,2.9,1.3,2.9,2.9c0,1.6-1.2,2.9-2.9,2.9c-1.7,0-2.9-1.3-2.9-2.9
		C108.7,25.4,109.9,24.1,111.6,24.1z M111.6,28.3c0.7,0,1.3-0.6,1.3-1.3c0-0.7-0.5-1.3-1.3-1.3c-0.7,0-1.3,0.6-1.3,1.3
		C110.3,27.7,110.8,28.3,111.6,28.3z"/>
	<path fill="#193062" d="M119,24.2v1.6h-0.8c-0.6,0-1.1,0.5-1.1,1.1v2.8h-1.6v-5.5h1.6v0.5c0.3-0.4,0.8-0.5,1.3-0.5H119z"/>
	<path fill="#193062" d="M123.3,21.7h1.7v6.4h4.6v1.7h-6.3V21.7z"/>
	<path fill="#193062" d="M131.4,21.5c0.6,0,1,0.4,1,1c0,0.6-0.4,1-1,1c-0.6,0-1-0.5-1-1C130.4,21.9,130.9,21.5,131.4,21.5z
		 M132.2,29.8h-1.6v-5.5h1.6V29.8z"/>
	<path fill="#193062" d="M134.2,25.8h-1.1v-1.6h1.1v-1.1c0-1.1,0.7-1.7,1.8-1.7h1.2v1.6h-0.9c-0.3,0-0.5,0.2-0.5,0.4v0.8h1.4v1.6
		h-1.4v4h-1.6V25.8z"/>
	<path fill="#193062" d="M143.3,27.6h-3.9c0.2,0.5,0.7,0.8,1.3,0.8c0.5,0,0.9-0.3,1.2-0.6l1.3,0.8c-0.5,0.8-1.4,1.4-2.5,1.4
		c-1.7,0-2.9-1.3-2.9-2.9c0-1.6,1.2-2.9,2.8-2.9c1.7,0,2.8,1.2,2.8,2.9C143.3,27.2,143.3,27.4,143.3,27.6z M139.4,26.4h2.4
		c-0.2-0.5-0.6-0.8-1.2-0.8C139.9,25.6,139.5,25.9,139.4,26.4z"/>
	<path fill="#193062" d="M147.7,21.7h1.7v8h-1.7V21.7z"/>
	<path fill="#193062" d="M156.1,26.3v3.5h-1.6v-3.1c0-0.5-0.4-0.9-0.9-0.9c-0.6,0-0.9,0.4-0.9,0.9v3.1H151v-5.5h1.6v0.3
		c0.4-0.3,0.8-0.4,1.4-0.4C155.2,24.1,156.1,25,156.1,26.3z"/>
	<path fill="#193062" d="M159.5,28.4c0.4,0,0.7-0.2,0.7-0.4c0-0.2-0.1-0.3-0.4-0.3c-0.3,0-0.6,0-1-0.1c-1.1-0.2-1.6-0.8-1.6-1.6
		c0-1.1,0.9-1.9,2.2-1.9c1.3,0,2.2,0.8,2.2,1.9h-1.6c0-0.3-0.3-0.4-0.7-0.4c-0.4,0-0.7,0.2-0.7,0.4c0,0.2,0.1,0.2,0.4,0.3
		c0.4,0,0.6,0,1,0.1c1.1,0.1,1.6,0.8,1.6,1.6c0,1.1-0.9,1.9-2.3,1.9c-1.4,0-2.3-0.8-2.3-1.9h1.6C158.7,28.3,159,28.4,159.5,28.4z"/>
	<path fill="#193062" d="M167.9,24.2v5.5h-1.6v-0.3c-0.4,0.3-0.8,0.4-1.3,0.4c-1.2,0-2.2-0.9-2.2-2.2v-3.5h1.6v3.1
		c0,0.5,0.4,0.9,0.9,0.9c0.6,0,0.9-0.4,0.9-0.9v-3.1H167.9z"/>
	<path fill="#193062" d="M172.9,24.2v1.6h-0.8c-0.6,0-1.1,0.5-1.1,1.1v2.8h-1.6v-5.5h1.6v0.5c0.3-0.4,0.8-0.5,1.3-0.5H172.9z"/>
	<path fill="#193062" d="M178.3,26.3v3.5h-1.6v-0.3c-0.3,0.3-0.7,0.4-1.4,0.4c-1.1,0-1.9-0.7-1.9-1.7c0-1.1,0.9-1.6,1.9-1.7l1.4-0.1
		v-0.1c0-0.4-0.4-0.7-0.8-0.7c-0.4,0-0.7,0.2-0.8,0.5h-1.6c0.1-1.2,1-2,2.4-2C177.3,24.1,178.3,25,178.3,26.3z M176.7,27.8v-0.3
		l-1.1,0.1c-0.4,0-0.6,0.2-0.6,0.5c0,0.3,0.3,0.5,0.7,0.5C176.3,28.6,176.7,28.3,176.7,27.8z"/>
	<path fill="#193062" d="M184.8,26.3v3.5h-1.6v-3.1c0-0.5-0.4-0.9-0.9-0.9c-0.6,0-0.9,0.4-0.9,0.9v3.1h-1.6v-5.5h1.6v0.3
		c0.4-0.3,0.8-0.4,1.4-0.4C183.9,24.1,184.8,25,184.8,26.3z"/>
	<path fill="#193062" d="M188.7,24.1c1.1,0,1.9,0.5,2.4,1.3l-1.3,0.9c-0.2-0.4-0.6-0.6-1.1-0.6c-0.7,0-1.3,0.6-1.3,1.3
		s0.5,1.3,1.3,1.3c0.5,0,0.8-0.3,1.1-0.6l1.3,0.9c-0.5,0.8-1.4,1.3-2.4,1.3c-1.7,0-2.9-1.3-2.9-2.9S187.1,24.1,188.7,24.1z"/>
	<path fill="#193062" d="M197.1,27.6h-3.9c0.2,0.5,0.7,0.8,1.3,0.8c0.5,0,0.9-0.3,1.2-0.6l1.3,0.8c-0.5,0.8-1.4,1.4-2.5,1.4
		c-1.7,0-2.9-1.3-2.9-2.9c0-1.6,1.2-2.9,2.8-2.9c1.7,0,2.8,1.2,2.8,2.9C197.2,27.2,197.2,27.4,197.1,27.6z M193.2,26.4h2.4
		c-0.2-0.5-0.6-0.8-1.2-0.8C193.8,25.6,193.4,25.9,193.2,26.4z"/>
	<path fill="#193062" d="M202.3,21.5c0.6,0,1,0.4,1,1c0,0.6-0.4,1-1,1s-1-0.5-1-1C201.2,21.9,201.7,21.5,202.3,21.5z M203.1,29.8
		h-1.6v-5.5h1.6V29.8z"/>
	<path fill="#193062" d="M209.6,26.3v3.5H208v-3.1c0-0.5-0.4-0.9-0.9-0.9s-0.9,0.4-0.9,0.9v3.1h-1.6v-5.5h1.6v0.3
		c0.4-0.3,0.8-0.4,1.4-0.4C208.7,24.1,209.6,25,209.6,26.3z"/>
	<path fill="#193062" d="M222.3,26.2v3.6h-1.6v-3.3c0-0.4-0.3-0.8-0.8-0.8c-0.5,0-0.8,0.4-0.8,0.8v3.3h-1.6v-3.3
		c0-0.4-0.3-0.8-0.8-0.8c-0.5,0-0.8,0.4-0.8,0.8v3.3h-1.6v-5.5h1.6v0.3c0.3-0.2,0.8-0.4,1.2-0.4c0.6,0,1.1,0.2,1.4,0.6
		c0.4-0.4,0.9-0.6,1.6-0.6C221.4,24.1,222.3,25,222.3,26.2z"/>
	<path fill="#193062" d="M224.6,21.5c0.6,0,1,0.4,1,1c0,0.6-0.4,1-1,1s-1-0.5-1-1C223.6,21.9,224,21.5,224.6,21.5z M225.4,29.8h-1.6
		v-5.5h1.6V29.8z"/>
	<path fill="#193062" d="M232,26.3v3.5h-1.6v-3.1c0-0.5-0.4-0.9-0.9-0.9s-0.9,0.4-0.9,0.9v3.1h-1.6v-5.5h1.6v0.3
		c0.4-0.3,0.8-0.4,1.4-0.4C231,24.1,232,25,232,26.3z"/>
	<path fill="#193062" d="M238.5,24.2v5.5h-1.6v-0.3c-0.4,0.3-0.8,0.4-1.3,0.4c-1.2,0-2.2-0.9-2.2-2.2v-3.5h1.6v3.1
		c0,0.5,0.4,0.9,0.9,0.9c0.6,0,0.9-0.4,0.9-0.9v-3.1H238.5z"/>
	<path fill="#193062" d="M241.7,24.2h1.7v1.6h-1.7v1.8c0,0.4,0.2,0.6,0.6,0.6h1.1v1.6H242c-1.1,0-1.9-0.7-1.9-1.8v-2.1h-0.8v-0.8
		l1.5-1.9h0.9V24.2z"/>
	<path fill="#193062" d="M249.7,27.6h-3.9c0.2,0.5,0.7,0.8,1.3,0.8c0.5,0,0.9-0.3,1.2-0.6l1.3,0.8c-0.5,0.8-1.4,1.4-2.5,1.4
		c-1.7,0-2.9-1.3-2.9-2.9c0-1.6,1.2-2.9,2.8-2.9c1.7,0,2.8,1.2,2.8,2.9C249.7,27.2,249.7,27.4,249.7,27.6z M245.8,26.4h2.4
		c-0.2-0.5-0.6-0.8-1.2-0.8C246.3,25.6,245.9,25.9,245.8,26.4z"/>
	<path fill="#193062" d="M252.8,28.4c0.4,0,0.7-0.2,0.7-0.4c0-0.2-0.1-0.3-0.4-0.3c-0.3,0-0.6,0-1-0.1c-1.1-0.2-1.6-0.8-1.6-1.6
		c0-1.1,0.9-1.9,2.2-1.9c1.3,0,2.2,0.8,2.2,1.9h-1.6c0-0.3-0.3-0.4-0.7-0.4c-0.4,0-0.7,0.2-0.7,0.4c0,0.2,0.1,0.2,0.4,0.3
		c0.4,0,0.6,0,1,0.1c1.1,0.1,1.6,0.8,1.6,1.6c0,1.1-0.9,1.9-2.3,1.9c-1.4,0-2.3-0.8-2.3-1.9h1.6C252,28.3,252.3,28.4,252.8,28.4z"/>
	<path fill="#193062" d="M257,27.8c0.6,0,1,0.4,1,1c0,0.6-0.4,1-1,1s-1-0.5-1-1C256,28.3,256.4,27.8,257,27.8z"/>
</g>
</svg>
