<?xml version="1.0" encoding="utf-8"?>
<!-- Generator: Adobe Illustrator 27.4.0, SVG Export Plug-In . SVG Version: 6.00 Build 0)  -->
<svg version="1.1" baseProfile="tiny" id="Layer_1" xmlns="http://www.w3.org/2000/svg" xmlns:xlink="http://www.w3.org/1999/xlink"
	 x="0px" y="0px" viewBox="0 0 320 50" overflow="visible" xml:space="preserve">
<rect x="0.2" y="0" fill="#193062" width="63" height="50.5"/>
<rect x="7.4" y="20" fill="#FAE07E" width="7.7" height="2.1"/>
<rect x="15.8" y="20" fill="#FFFFFF" width="1.9" height="2.1"/>
<rect x="7.4" y="22.7" fill="#FAE07E" width="5.8" height="2.1"/>
<rect x="13.8" y="22.7" fill="#FFFFFF" width="3.8" height="2.1"/>
<rect x="7.4" y="25.4" fill="#FAE07E" width="3.8" height="2.1"/>
<rect x="11.8" y="25.4" fill="#FFFFFF" width="5.8" height="2.1"/>
<rect x="7.4" y="28.1" fill="#FAE07E" width="1.9" height="2.1"/>
<rect x="9.9" y="28.1" fill="#FFFFFF" width="7.7" height="2.1"/>
<polygon fill="#FFFFFF" points="23.6,23 21.9,23 21.9,22.1 26.4,22.1 26.4,23 24.6,23 24.6,28.1 23.6,28.1 "/>
<g>
	<path fill="none" d="M53.2,24.6c-0.5,0-1.1,0.3-1.2,0.9h2.3C54.3,24.9,53.8,24.6,53.2,24.6z"/>
	<path fill="none" d="M43.4,24.6c-0.7,0-1.2,0.6-1.2,1.3c0,0.8,0.5,1.3,1.2,1.3c0.7,0,1.2-0.6,1.2-1.3
		C44.7,25.2,44.2,24.6,43.4,24.6z"/>
	<path fill="none" d="M48.4,24.6c-0.7,0-1.2,0.5-1.2,1.3c0,0.7,0.5,1.3,1.2,1.3s1.2-0.5,1.2-1.3C49.6,25.2,49.1,24.6,48.4,24.6z"/>
	<path fill="#FFFFFF" d="M26.1,23.9v4.2H27v-2c0-0.8,0.5-1.3,1-1.3c0.2,0,0.3,0,0.5,0.1v-0.9c-0.1,0-0.2,0-0.4,0
		c-0.5,0-0.9,0.3-1.1,0.8v-0.7H26.1z"/>
	<path fill="#FFFFFF" d="M29.2,23.9v2.5c0,1.1,0.6,1.8,1.6,1.8c0.5,0,1-0.2,1.2-0.7v0.6h0.9v-4.2H32v2.1c0,0.9-0.4,1.4-1,1.4
		c-0.5,0-0.8-0.4-0.8-1.1v-2.4H29.2z"/>
	<path fill="#FFFFFF" d="M35.7,27.2c-0.6,0-1.1-0.3-1.4-0.8l-0.8,0.6c0.4,0.6,1.2,1.1,2.1,1.1c1.2,0,2-0.7,2-1.7
		c0-0.9-0.5-1.4-1.4-1.7l-0.6-0.2c-0.6-0.2-0.9-0.4-0.9-0.9c0-0.4,0.4-0.7,0.9-0.7c0.5,0,0.8,0.2,1.1,0.6l0.7-0.7
		C37,22.3,36.4,22,35.7,22c-1.1,0-1.9,0.6-1.9,1.7c0,0.8,0.5,1.3,1.4,1.7l0.7,0.2c0.6,0.2,0.8,0.5,0.8,0.9
		C36.6,26.9,36.2,27.2,35.7,27.2z"/>
	<path fill="#FFFFFF" d="M45.5,28.1v-4.2h-0.9v0.6c-0.2-0.3-0.7-0.6-1.3-0.6c-1.1,0-2,1-2,2.2c0,1.2,0.9,2.2,2,2.2
		c0.6,0,1.1-0.3,1.3-0.6v0.6H45.5z M43.4,27.3c-0.7,0-1.2-0.6-1.2-1.3c0-0.8,0.5-1.3,1.2-1.3c0.7,0,1.2,0.6,1.2,1.3
		C44.7,26.7,44.2,27.3,43.4,27.3z"/>
	<path fill="#FFFFFF" d="M48.3,29.1c-0.6,0-1-0.2-1.4-0.6l-0.6,0.7c0.4,0.5,1.1,0.8,2,0.8c1.2,0,2.2-0.7,2.2-2.1v-3.9h-0.9v0.6
		c-0.2-0.4-0.8-0.6-1.3-0.6c-1.1,0-2,0.9-2,2.1c0,1.2,0.9,2.1,2,2.1c0.6,0,1.1-0.3,1.3-0.7v0.4C49.5,28.6,49,29.1,48.3,29.1z
		 M48.4,27.2c-0.7,0-1.2-0.5-1.2-1.3c0-0.7,0.5-1.3,1.2-1.3s1.2,0.5,1.2,1.3C49.6,26.7,49.1,27.2,48.4,27.2z"/>
	<path fill="#FFFFFF" d="M53.3,23.8c-1.3,0-2.2,0.9-2.2,2.2c0,1.3,0.9,2.2,2.2,2.2c0.9,0,1.5-0.4,1.9-1l-0.7-0.5
		c-0.2,0.4-0.6,0.6-1.2,0.6c-0.7,0-1.2-0.5-1.3-1.1h3.3c0-0.1,0-0.2,0-0.3C55.3,24.5,54.4,23.8,53.3,23.8z M52,25.5
		c0.1-0.6,0.7-0.9,1.2-0.9c0.5,0,1,0.3,1.1,0.9H52z"/>
	<path fill="#FFFFFF" d="M38.7,22.7l0,0.5c0,0.4-0.3,0.6-0.6,0.6l-0.2,0v0.8h0.9v2c0,0.9,0.6,1.4,1.4,1.4c0.3,0,0.5,0,0.7-0.1v-0.8
		c-0.1,0-0.3,0.1-0.5,0.1c-0.5,0-0.7-0.2-0.7-0.7v-1.9h1.2v-0.8h-1.2v-1.2H38.7z"/>
	<polygon fill="#FFFFFF" points="55.9,23.2 55.6,22.7 55.5,22.7 55.5,23.4 55.6,23.4 55.6,23 55.9,23.4 56.1,23 56.1,23.4 
		56.2,23.4 56.2,22.7 56.1,22.7 	"/>
	<polygon fill="#FFFFFF" points="55.1,23.4 55.1,22.8 55.4,22.8 55.4,22.7 54.8,22.7 54.8,22.8 55,22.8 55,23.4 	"/>
</g>
</svg>
