<svg baseProfile="tiny" xmlns="http://www.w3.org/2000/svg" viewBox="0 0 300 600" overflow="visible"><g fill="#231F20"><path d="M15.9 511c0 .6-.2 1.1-.4 1.6-.3.5-.6.9-1.1 1.1-.5.3-1 .4-1.6.4-.6 0-1.2-.1-1.7-.4-.5-.3-.9-.7-1.2-1.2-.3-.5-.4-1.1-.4-1.7 0-.6.1-1.2.4-1.7.3-.5.7-.9 1.2-1.2.5-.3 1.1-.4 1.7-.4.6 0 1.2.1 1.7.4.5.3.9.7 1.2 1.2l-.6.4c-.2-.4-.5-.7-.9-.9-.4-.2-.8-.3-1.3-.3s-1 .1-1.4.3c-.4.2-.7.6-.9 1-.2.4-.3.9-.3 1.4 0 .5.1 1 .3 1.4s.5.7.9 1 .9.3 1.4.3c.4 0 .8-.1 1.1-.2.3-.2.6-.4.8-.6.2-.3.4-.6.5-1h-2.8v-.9h3.4zM17.1 507.5H22v.7h-4.2v2.3h2.4v.7h-2.4v2.3H22v.7h-4.9v-6.7zM28.2 507.5v6.6h-.7l-3.6-5.4v5.4h-.7v-6.6h.7l3.6 5.4v-5.4h.7zM31.5 511.2v.6h-2.1v-.6h2.1zM36.9 512.1c0 .4-.1.8-.3 1.1-.2.3-.4.6-.8.8-.3.2-.7.3-1.1.3-.4 0-.8-.1-1.1-.3-.3-.2-.6-.4-.8-.7s-.3-.7-.3-1.1h.7c0 .3.1.5.2.7.1.2.3.4.5.5.2.1.5.2.8.2.3 0 .5-.1.8-.2.2-.1.4-.3.5-.5.1-.2.2-.5.2-.7s-.1-.5-.2-.7-.3-.4-.5-.5c-.2-.1-.5-.2-.8-.2H33l.4-3.2h3.3v.7H34l-.2 1.8h1.1c.4 0 .8.1 1.1.3.3.2.6.4.7.7.1.2.2.6.2 1zM42.6 512c0 .4-.1.8-.3 1.1s-.4.6-.8.8-.7.3-1.1.3c-.4 0-.8-.1-1.1-.3s-.6-.4-.8-.8c-.2-.3-.3-.7-.3-1.1 0-.3 0-.5.1-.8.1-.3.2-.5.3-.7l2-3.1h.8l-1.7 2.5c.2 0 .4-.1.6-.1.4 0 .8.1 1.1.3.3.2.6.4.8.7.3.5.4.8.4 1.2zm-.7 0c0-.3-.1-.5-.2-.8-.1-.2-.3-.4-.5-.5-.2-.1-.5-.2-.8-.2-.3 0-.5.1-.8.2-.2.1-.4.3-.5.5-.1.2-.2.5-.2.8 0 .3.1.5.2.8.1.2.3.4.5.5.2.1.5.2.8.2s.5-.1.8-.2c.2-.1.4-.3.5-.5.1-.2.2-.5.2-.8zM45.1 508.2l-1.8 1.1v-.7l1.8-1.1h.7v6.6h-.7v-5.9zM52.3 511.4v.7H51v2.1h-.7V512h-3v-.6l2.9-4h.8v3.8h1.3zm-2 0v-2.9l-2.1 2.9h2.1zM57.2 513.4v.7h-4v-.6l2.6-2.8c.2-.2.4-.4.5-.6.1-.2.2-.4.2-.7 0-.2-.1-.5-.2-.7-.1-.2-.3-.3-.5-.5-.2-.1-.4-.2-.7-.2-.2 0-.5.1-.7.2-.2.1-.3.3-.5.4-.1.2-.2.4-.2.7H53c0-.4.1-.7.3-1 .2-.3.4-.5.7-.7.3-.2.6-.3 1-.3s.7.1 1 .2c.3.2.5.4.7.7.2.3.2.6.2 1 0 .3-.1.6-.2.9s-.4.6-.6.9l-2.2 2.3h3.3zM62.8 509.5c0 .3 0 .5-.1.8-.1.3-.2.5-.3.7l-2 3.1h-.8l1.7-2.5c-.2 0-.4.1-.6.1-.4 0-.8-.1-1.1-.3-.3-.2-.6-.4-.8-.7-.2-.3-.3-.7-.3-1.1 0-.4.1-.8.3-1.1.2-.3.4-.6.8-.8.3-.2.7-.3 1.1-.3.4 0 .8.1 1.1.3.3.2.6.4.8.8.1.3.2.6.2 1zm-2.2 1.5c.3 0 .5-.1.8-.2.2-.1.4-.3.5-.5.1-.2.2-.5.2-.8 0-.3-.1-.5-.2-.8-.1-.2-.3-.4-.5-.5-.2-.1-.5-.2-.8-.2s-.5.1-.8.2c-.2.1-.4.3-.5.5-.1.2-.2.5-.2.8 0 .3.1.5.2.8.1.2.3.4.5.5.2.1.5.2.8.2zM63.8 507.5H68v.6l-2.6 5.9h-.7l2.6-5.9h-3.4v-.6zM69.7 513.1c.2 0 .3 0 .4.1s.1.2.1.4 0 .3-.1.4c-.1.1-.2.1-.4.1s-.3 0-.4-.1c-.1-.1-.1-.2-.1-.4s0-.3.1-.4c.1 0 .2-.1.4-.1zM73 508.2l-1.8 1.1v-.7l1.8-1.1h.7v6.6H73v-5.9z"/></g></svg>