<svg baseProfile="tiny" xmlns="http://www.w3.org/2000/svg" viewBox="0 0 300 600" overflow="visible"><g fill="#454547"><path d="M25.9 367.6h7.6v1.5h-5.8v4.7h5.4v1.5h-5.4v6.4h-1.8v-14.1zM37.6 368.8c0 .6-.4 1.1-1.2 1.1-.7 0-1.1-.5-1.1-1.1 0-.7.5-1.2 1.2-1.2s1.1.5 1.1 1.2zm-2 13v-10.2h1.8v10.2h-1.8zM40.5 374.4c0-1 0-1.9-.1-2.8H42l.1 1.7c.5-1 1.7-1.9 3.4-1.9 1.4 0 3.6.8 3.6 4.3v6.1h-1.8v-5.9c0-1.6-.6-3-2.4-3-1.2 0-2.2.9-2.5 1.9-.1.2-.1.5-.1.9v6.1h-1.8v-7.4zM54.2 368.8c0 .6-.4 1.1-1.2 1.1-.7 0-1.1-.5-1.1-1.1 0-.7.5-1.2 1.2-1.2.6 0 1.1.5 1.1 1.2zm-2.1 13v-10.2H54v10.2h-1.9zM56.8 379.9c.5.4 1.5.7 2.4.7 1.3 0 2-.7 2-1.5 0-.9-.5-1.4-1.9-1.9-1.8-.7-2.7-1.7-2.7-2.9 0-1.6 1.3-3 3.5-3 1 0 1.9.3 2.5.6l-.5 1.3c-.4-.3-1.1-.6-2.1-.6-1.1 0-1.7.6-1.7 1.4 0 .8.6 1.2 1.9 1.7 1.8.7 2.7 1.6 2.7 3.1 0 1.8-1.4 3-3.8 3-1.1 0-2.1-.3-2.9-.7l.6-1.2zM65.4 366.9h1.8v6.3c.3-.5.8-1 1.3-1.3.5-.3 1.2-.5 1.9-.5 1.4 0 3.5.8 3.5 4.3v6h-1.8v-5.8c0-1.6-.6-3-2.4-3-1.2 0-2.1.8-2.5 1.8-.1.3-.1.5-.1.9v6.1h-1.8v-14.8zM82.1 371.6l2.2 6c.2.7.5 1.5.7 2.1.2-.6.4-1.4.7-2.1l2-6h2l-2.8 7.2c-1.3 3.5-2.2 5.3-3.5 6.4-.9.8-1.8 1.1-2.3 1.2l-.5-1.6c.5-.1 1.1-.4 1.6-.9.5-.4 1.1-1.1 1.6-2.1.1-.2.1-.3.1-.4 0-.1 0-.3-.1-.5l-3.8-9.4h2.1zM100.4 376.6c0 3.8-2.6 5.4-5.1 5.4-2.8 0-4.9-2-4.9-5.2 0-3.4 2.2-5.4 5-5.4 3 0 5 2.1 5 5.2zm-8.1.1c0 2.2 1.3 3.9 3.1 3.9s3.1-1.7 3.1-3.9c0-1.7-.9-3.9-3-3.9s-3.2 2-3.2 3.9zM111.2 379c0 1 0 2 .1 2.8h-1.6l-.1-1.7c-.5.8-1.6 1.9-3.4 1.9-1.6 0-3.5-.9-3.5-4.5v-5.9h1.8v5.6c0 1.9.6 3.2 2.3 3.2 1.2 0 2.1-.9 2.4-1.7.1-.3.2-.6.2-.9v-6.2h1.8v7.4zM114.3 374.8c0-1.2 0-2.2-.1-3.2h1.6l.1 2h.1c.5-1.4 1.6-2.2 2.8-2.2.2 0 .4 0 .5.1v1.7c-.2 0-.4-.1-.6-.1-1.3 0-2.2 1-2.5 2.4 0 .3-.1.5-.1.9v5.4h-1.8v-7zM125.6 374.4c0-1 0-1.9-.1-2.8h1.6l.1 1.7c.5-1 1.7-1.9 3.4-1.9 1.4 0 3.6.8 3.6 4.3v6.1h-1.8v-5.9c0-1.6-.6-3-2.4-3-1.2 0-2.2.9-2.5 1.9-.1.2-.1.5-.1.9v6.1h-1.8v-7.4zM146.4 376.6c0 3.8-2.6 5.4-5.1 5.4-2.8 0-4.9-2-4.9-5.2 0-3.4 2.2-5.4 5-5.4 3.1 0 5 2.1 5 5.2zm-8 .1c0 2.2 1.3 3.9 3.1 3.9s3.1-1.7 3.1-3.9c0-1.7-.9-3.9-3-3.9s-3.2 2-3.2 3.9zM153.3 375.4v1.4h-5.2v-1.4h5.2zM163.1 381.4c-.5.3-1.6.6-2.9.6-3.1 0-5.1-2.1-5.1-5.2s2.1-5.4 5.5-5.4c1.1 0 2.1.3 2.6.5l-.4 1.4c-.4-.3-1.1-.5-2.1-.5-2.3 0-3.6 1.7-3.6 3.8 0 2.4 1.5 3.8 3.5 3.8 1 0 1.7-.3 2.3-.5l.2 1.5zM174.4 376.6c0 3.8-2.6 5.4-5.1 5.4-2.8 0-4.9-2-4.9-5.2 0-3.4 2.2-5.4 5-5.4 3 0 5 2.1 5 5.2zm-8.1.1c0 2.2 1.3 3.9 3.1 3.9s3.1-1.7 3.1-3.9c0-1.7-.9-3.9-3-3.9s-3.2 2-3.2 3.9zM176.4 379.9c.5.4 1.5.7 2.4.7 1.3 0 2-.7 2-1.5 0-.9-.5-1.4-1.9-1.9-1.8-.7-2.7-1.7-2.7-2.9 0-1.6 1.3-3 3.5-3 1 0 1.9.3 2.5.6l-.5 1.3c-.4-.3-1.1-.6-2.1-.6-1.1 0-1.7.6-1.7 1.4 0 .8.6 1.2 1.9 1.7 1.8.7 2.7 1.6 2.7 3.1 0 1.8-1.4 3-3.8 3-1.1 0-2.1-.3-2.9-.7l.6-1.2zM187.2 368.7v2.9h2.6v1.4h-2.6v5.5c0 1.3.4 2 1.4 2 .5 0 .8-.1 1.1-.1l.1 1.4c-.4.1-.9.3-1.6.3-.9 0-1.6-.3-2-.8-.5-.5-.7-1.4-.7-2.6V373h-1.6v-1.4h1.6v-2.4l1.7-.5z"/></g><g fill="#454547"><path d="M25.9 392.6h1.8v12.6h6v1.5h-7.9v-14.1zM37.8 393.7c0 .6-.4 1.1-1.2 1.1-.7 0-1.1-.5-1.1-1.1 0-.7.5-1.2 1.2-1.2.7.1 1.1.6 1.1 1.2zm-2 13.1v-10.2h1.8v10.2h-1.8zM40.9 406.8V398h-1.4v-1.4h1.4v-.5c0-1.4.3-2.7 1.2-3.5.7-.7 1.6-.9 2.5-.9.7 0 1.2.1 1.6.3l-.3 1.4c-.3-.1-.7-.2-1.2-.2-1.6 0-2 1.4-2 2.9v.5h2.5v1.4h-2.5v8.8h-1.8zM47.6 402c0 2.5 1.6 3.5 3.5 3.5 1.3 0 2.1-.2 2.8-.5l.3 1.3c-.7.3-1.8.6-3.4.6-3.1 0-5-2.1-5-5.1s1.8-5.5 4.8-5.5c3.3 0 4.2 2.9 4.2 4.8 0 .4 0 .7-.1.9h-7.1zm5.4-1.3c0-1.2-.5-3-2.6-3-1.9 0-2.7 1.7-2.8 3H53zM63.4 392.6v14.2h-1.8v-14.2h1.8zM66.8 399.3c0-1 0-1.9-.1-2.8h1.6l.1 1.7c.5-1 1.7-1.9 3.4-1.9 1.4 0 3.6.8 3.6 4.3v6.1h-1.8v-5.9c0-1.6-.6-3-2.4-3-1.2 0-2.2.9-2.5 1.9-.1.2-.1.5-.1.9v6.1h-1.8v-7.4zM78.2 404.9c.5.4 1.5.7 2.4.7 1.3 0 2-.7 2-1.5 0-.9-.5-1.4-1.9-1.9-1.8-.7-2.7-1.7-2.7-2.9 0-1.6 1.3-3 3.5-3 1 0 1.9.3 2.5.6l-.5 1.3c-.4-.3-1.1-.6-2.1-.6-1.1 0-1.7.6-1.7 1.4 0 .8.6 1.2 1.9 1.7 1.8.7 2.7 1.6 2.7 3.1 0 1.8-1.4 3-3.8 3-1.1 0-2.1-.3-2.9-.7l.6-1.2zM95.2 404c0 1 0 2 .1 2.8h-1.6l-.1-1.7c-.5.8-1.6 1.9-3.4 1.9-1.6 0-3.5-.9-3.5-4.5v-5.9h1.8v5.6c0 1.9.6 3.2 2.3 3.2 1.2 0 2.1-.9 2.4-1.7.1-.3.2-.6.2-.9v-6.2h1.8v7.4zM98.3 399.8c0-1.2 0-2.2-.1-3.2h1.6l.1 2h.1c.5-1.4 1.6-2.2 2.8-2.2.2 0 .4 0 .5.1v1.7c-.2 0-.4-.1-.6-.1-1.3 0-2.2 1-2.5 2.4 0 .3-.1.5-.1.9v5.4h-1.8v-7zM110.7 406.8l-.1-1.3h-.1c-.6.8-1.7 1.5-3.1 1.5-2.1 0-3.1-1.4-3.1-2.9 0-2.5 2.2-3.8 6.1-3.8v-.2c0-.8-.2-2.4-2.3-2.4-.9 0-1.9.3-2.6.8l-.4-1.2c.8-.5 2.1-.9 3.3-.9 3.1 0 3.9 2.1 3.9 4.2v3.8c0 .9 0 1.7.2 2.4h-1.8zm-.3-5.2c-2 0-4.3.3-4.3 2.3 0 1.2.8 1.8 1.7 1.8 1.3 0 2.2-.8 2.5-1.7.1-.2.1-.4.1-.6v-1.8zM115.2 399.3c0-1 0-1.9-.1-2.8h1.6l.1 1.7c.5-1 1.7-1.9 3.4-1.9 1.4 0 3.6.8 3.6 4.3v6.1H122v-5.9c0-1.6-.6-3-2.4-3-1.2 0-2.2.9-2.5 1.9-.1.2-.1.5-.1.9v6.1h-1.8v-7.4zM134.1 406.4c-.5.3-1.6.6-2.9.6-3.1 0-5.1-2.1-5.1-5.2s2.1-5.4 5.5-5.4c1.1 0 2.1.3 2.6.5l-.4 1.4c-.4-.3-1.1-.5-2.1-.5-2.3 0-3.6 1.7-3.6 3.8 0 2.4 1.5 3.8 3.5 3.8 1 0 1.7-.3 2.3-.5l.2 1.5zM137.2 402c0 2.5 1.6 3.5 3.5 3.5 1.3 0 2.1-.2 2.8-.5l.3 1.3c-.7.3-1.8.6-3.4.6-3.1 0-5-2.1-5-5.1s1.8-5.5 4.8-5.5c3.3 0 4.2 2.9 4.2 4.8 0 .4 0 .7-.1.9h-7.1zm5.4-1.3c0-1.2-.5-3-2.6-3-1.9 0-2.7 1.7-2.8 3h5.4zM158 405.2c-.6 1-1.7 1.8-3.4 1.8-2.4 0-4.3-2.1-4.3-5.1 0-3.8 2.5-5.5 4.6-5.5 1.6 0 2.6.8 3.1 1.8l.1-1.5h1.7c0 .9-.1 1.7-.1 2.8V411H158v-5.8zm0-4.5c0-.3 0-.5-.1-.8-.3-1.1-1.3-2.1-2.6-2.1-1.9 0-3.1 1.6-3.1 3.9 0 2 1 3.8 3 3.8 1.2 0 2.2-.7 2.6-2 .1-.3.1-.6.1-.9v-1.9zM171.4 404c0 1 0 2 .1 2.8h-1.6l-.1-1.7c-.5.8-1.6 1.9-3.4 1.9-1.6 0-3.5-.9-3.5-4.5v-5.9h1.8v5.6c0 1.9.6 3.2 2.3 3.2 1.2 0 2.1-.9 2.4-1.7.1-.3.2-.6.2-.9v-6.2h1.8v7.4zM183.7 401.6c0 3.8-2.6 5.4-5.1 5.4-2.8 0-4.9-2-4.9-5.2 0-3.4 2.2-5.4 5-5.4 3 0 5 2.1 5 5.2zm-8.1.1c0 2.2 1.3 3.9 3.1 3.9s3.1-1.7 3.1-3.9c0-1.7-.9-3.9-3-3.9s-3.2 2-3.2 3.9zM188.3 393.7v2.9h2.6v1.4h-2.6v5.5c0 1.3.4 2 1.4 2 .5 0 .8-.1 1.1-.1l.1 1.4c-.4.1-.9.3-1.6.3-.9 0-1.6-.3-2-.8-.5-.5-.7-1.4-.7-2.6V398H185v-1.4h1.6v-2.4l1.7-.5zM193.9 402c0 2.5 1.6 3.5 3.5 3.5 1.3 0 2.1-.2 2.8-.5l.3 1.3c-.7.3-1.8.6-3.4.6-3.1 0-5-2.1-5-5.1s1.8-5.5 4.8-5.5c3.3 0 4.2 2.9 4.2 4.8 0 .4 0 .7-.1.9h-7.1zm5.4-1.3c0-1.2-.5-3-2.6-3-1.9 0-2.7 1.7-2.8 3h5.4zM202.7 405.7c0-.8.5-1.3 1.3-1.3s1.2.5 1.2 1.3-.5 1.3-1.3 1.3c-.7 0-1.2-.6-1.2-1.3z"/></g></svg>