<svg baseProfile="tiny" xmlns="http://www.w3.org/2000/svg" viewBox="0 0 300 600" overflow="visible"><g fill="#193062"><path d="M43 271.6v.8c0 2.3-.5 4.4-1.5 6.2-1 1.8-2.4 3.3-4.2 4.3s-3.9 1.6-6.2 1.6c-2.4 0-4.5-.5-6.3-1.6-1.9-1.1-3.3-2.5-4.3-4.4s-1.6-4-1.6-6.4c0-2.3.5-4.4 1.6-6.3s2.5-3.4 4.4-4.5 4-1.6 6.4-1.6c1.6 0 3 .2 4.4.7 1.4.5 2.6 1.2 3.7 2.1s2 2 2.7 3.2l-4 2.5c-.6-1.2-1.6-2.1-2.7-2.8s-2.5-1-4-1-2.8.3-4 1-2.1 1.6-2.7 2.8c-.7 1.2-1 2.5-1 3.9 0 1.5.3 2.9.9 4.1s1.5 2.1 2.7 2.8c1.1.7 2.5 1 4 1 1.6 0 3-.3 4.1-1s2-1.7 2.5-2.9h-8.2v-4.4H43zM54.1 267.1c1.6 0 3.1.4 4.4 1.2 1.3.8 2.4 1.8 3.1 3.1s1.1 2.8 1.1 4.4-.4 3.1-1.1 4.4c-.8 1.3-1.8 2.4-3.1 3.1s-2.8 1.2-4.4 1.2-3.1-.4-4.4-1.2-2.3-1.8-3.1-3.1c-.8-1.3-1.1-2.8-1.1-4.4s.4-3.1 1.1-4.4 1.8-2.4 3.1-3.1c1.2-.8 2.7-1.2 4.4-1.2zm0 13c.8 0 1.5-.2 2.2-.6s1.1-.9 1.5-1.5.5-1.4.5-2.2-.2-1.5-.5-2.2-.9-1.2-1.5-1.5-1.4-.6-2.2-.6c-.8 0-1.5.2-2.2.6s-1.1.9-1.5 1.5c-.4.7-.5 1.4-.5 2.2s.2 1.5.5 2.2c.4.7.9 1.2 1.5 1.5s1.4.6 2.2.6zM77.3 271.7H74v-4.3h3.3V264c0-1 .2-1.9.6-2.7.4-.8 1-1.4 1.8-1.8.8-.4 1.7-.6 2.7-.6H86v4.3h-2.8c-.5 0-.8.1-1.1.4s-.4.6-.4 1.1v2.8H86v4.3h-4.3v12.4h-4.5v-12.5zM96.1 267.1c1.6 0 3.1.4 4.4 1.2 1.3.8 2.4 1.8 3.1 3.1s1.1 2.8 1.1 4.4-.4 3.1-1.1 4.4c-.8 1.3-1.8 2.4-3.1 3.1s-2.8 1.2-4.4 1.2-3.1-.4-4.4-1.2-2.3-1.8-3.1-3.1c-.8-1.3-1.1-2.8-1.1-4.4s.4-3.1 1.1-4.4 1.8-2.4 3.1-3.1c1.3-.8 2.8-1.2 4.4-1.2zm0 13c.8 0 1.5-.2 2.2-.6s1.1-.9 1.5-1.5.5-1.4.5-2.2-.2-1.5-.5-2.2-.9-1.2-1.5-1.5-1.4-.6-2.2-.6c-.8 0-1.5.2-2.2.6s-1.1.9-1.5 1.5c-.4.7-.5 1.4-.5 2.2s.2 1.5.5 2.2c.4.7.9 1.2 1.5 1.5s1.5.6 2.2.6zM118.5 267.5v4.4h-2.4c-.6 0-1.2.2-1.7.5s-.9.7-1.2 1.3c-.3.5-.4 1.1-.4 1.8v8.7h-4.5v-16.6h4.4v1.6c.4-.6 1-1 1.7-1.2.7-.3 1.4-.4 2.3-.4h1.8zM144.4 267.5l-5.5 16.6h-4.6l-2.4-7.7-2.4 7.7H125l-5.5-16.6h4.9l3.1 10 3.1-10h2.9l3 9.7 3.2-9.7h4.7zM159.8 273.6v10.5h-4.4v-1c-.5.5-1.1.8-1.8 1s-1.5.3-2.4.3c-1.1 0-2.1-.2-3-.7-.9-.4-1.6-1.1-2-1.8-.5-.8-.7-1.7-.7-2.7 0-1.6.5-2.8 1.6-3.7s2.4-1.3 4.2-1.5l4.2-.4v-.3c0-.4-.1-.8-.4-1.1s-.6-.6-1-.8c-.4-.2-.9-.3-1.3-.3-.7 0-1.2.2-1.7.5s-.8.7-.9 1.2h-4.3c.1-1.1.4-2.1 1-3s1.4-1.6 2.4-2.1 2.2-.8 3.4-.8c1.4 0 2.6.3 3.7.8 1.1.6 1.9 1.3 2.5 2.3.6 1.2.9 2.3.9 3.6zm-4.4 4.7v-1.2l-3.5.3c-.7.1-1.2.2-1.5.5s-.5.7-.5 1.2.2.9.6 1.2c.4.3 1 .5 1.7.5 1 0 1.7-.2 2.3-.7.6-.4.9-1.1.9-1.8zM174.5 267.5v4.4h-2.4c-.6 0-1.2.2-1.7.5s-.9.7-1.2 1.3c-.3.5-.4 1.1-.4 1.8v8.7h-4.5v-16.6h4.4v1.6c.4-.6 1-1 1.7-1.2.7-.3 1.4-.4 2.3-.4h1.8zM193.4 259v25.2H189V283c-.6.5-1.3.9-2.1 1.1-.8.3-1.6.4-2.5.4-1.6 0-3-.4-4.2-1.2-1.3-.8-2.2-1.8-2.9-3.1-.7-1.3-1.1-2.8-1.1-4.4 0-1.6.4-3.1 1.1-4.4.7-1.3 1.7-2.4 2.9-3.1s2.7-1.1 4.2-1.1c.9 0 1.7.1 2.4.4.8.3 1.4.6 2 1.1V259h4.6zm-4.4 16.8c0-.8-.2-1.6-.5-2.2-.4-.7-.9-1.2-1.5-1.6-.6-.4-1.4-.6-2.2-.6-.8 0-1.5.2-2.1.6-.6.4-1.1.9-1.5 1.6-.4.7-.5 1.4-.5 2.2 0 .8.2 1.5.5 2.2.4.7.8 1.2 1.5 1.5.6.4 1.3.6 2.1.6s1.5-.2 2.2-.6 1.1-.9 1.5-1.5c.3-.7.5-1.4.5-2.2z"/></g><path fill="#193062" d="M42.6 307.1l-5.5 16.6h-4.6l-2.4-7.7-2.4 7.7h-4.5l-5.5-16.6h4.9l3.1 10 3.1-10h2.9l3 9.7 3.2-9.7h4.7zm4.9-8.2c.5 0 1 .1 1.5.4.4.3.8.6 1 1 .2.4.4.9.4 1.4 0 .5-.1 1-.4 1.4-.2.4-.6.8-1 1-.4.3-.9.4-1.5.4-.5 0-1-.1-1.5-.4-.4-.3-.8-.6-1-1-.2-.4-.4-.9-.4-1.4 0-.5.1-1 .4-1.4.2-.4.6-.8 1-1 .5-.3.9-.4 1.5-.4zm2.2 24.8h-4.5v-16.6h4.5v16.6zm9.6-16.6h5.2v4.3h-5.2v6.2c0 .6.2 1.1.5 1.4.3.4.8.5 1.4.5h3.3v4.3h-4.2c-1.1 0-2-.2-2.9-.7-.8-.4-1.5-1.1-1.9-1.9-.5-.8-.7-1.8-.7-2.8v-7h-2.4V309l4.4-5.4h2.5v3.5zm23.7 6.2v10.4h-4.5v-9.5c0-.6-.1-1.1-.4-1.6-.2-.5-.6-.8-1.1-1.1s-1-.4-1.6-.4c-.6 0-1.2.1-1.6.4-.5.3-.8.6-1.1 1.1-.3.5-.4 1-.4 1.6v9.5h-4.5v-25.2h4.5v9.5c.6-.4 1.2-.8 1.9-1 .7-.2 1.4-.4 2.2-.4 1.2 0 2.4.3 3.4.9 1 .6 1.8 1.4 2.3 2.4.7 1 .9 2.2.9 3.4zm21.5-6.6c1.5 0 2.9.3 4.2 1 1.2.7 2.2 1.6 3 2.8l-3.6 2.6c-.4-.6-.9-1.1-1.5-1.5-.6-.3-1.3-.5-2-.5-.8 0-1.5.2-2.1.6s-1.1.9-1.5 1.5c-.4.7-.5 1.4-.5 2.2s.2 1.5.5 2.2c.4.7.8 1.2 1.5 1.5.6.4 1.3.6 2.1.6s1.4-.2 2-.5 1.1-.8 1.5-1.5l3.6 2.6c-.8 1.2-1.8 2.1-3 2.8-1.2.7-2.6 1-4.2 1s-3.1-.4-4.4-1.1c-1.3-.8-2.3-1.8-3.1-3.1-.7-1.3-1.1-2.8-1.1-4.4s.4-3.1 1.1-4.4c.7-1.3 1.8-2.4 3.1-3.1 1.3-.9 2.7-1.3 4.4-1.3zm17.5 0c1.6 0 3.1.4 4.4 1.2 1.3.8 2.4 1.8 3.1 3.1.8 1.3 1.1 2.8 1.1 4.4 0 1.6-.4 3.1-1.1 4.4-.8 1.3-1.8 2.4-3.1 3.1-1.3.8-2.8 1.2-4.4 1.2s-3.1-.4-4.4-1.2c-1.3-.8-2.4-1.8-3.1-3.1-.8-1.3-1.1-2.8-1.1-4.4 0-1.6.4-3.1 1.1-4.4.8-1.3 1.8-2.4 3.1-3.1 1.3-.8 2.8-1.2 4.4-1.2zm0 13c.8 0 1.5-.2 2.2-.6.6-.4 1.1-.9 1.5-1.5.4-.7.5-1.4.5-2.2 0-.8-.2-1.5-.5-2.2-.4-.7-.9-1.2-1.5-1.5-.6-.4-1.4-.6-2.2-.6-.8 0-1.5.2-2.2.6-.6.4-1.1.9-1.5 1.5-.4.7-.5 1.4-.5 2.2 0 .8.2 1.5.5 2.2.4.7.9 1.2 1.5 1.5.7.4 1.4.6 2.2.6zm27.2-6.4v10.4h-4.5v-9.5c0-.6-.1-1.1-.4-1.6-.2-.5-.6-.8-1.1-1.1s-1-.4-1.6-.4c-.6 0-1.2.1-1.6.4s-.8.6-1.1 1.1c-.3.5-.4 1-.4 1.6v9.5H134v-16.6h4.4v1c.6-.5 1.2-.8 1.9-1.1.7-.2 1.5-.4 2.3-.4 1.2 0 2.4.3 3.4.9 1 .6 1.8 1.4 2.3 2.4.6 1 .9 2.2.9 3.4zm5.8-2h-3.3V307h3.3v-3.5c0-1 .2-1.9.6-2.7.4-.8 1-1.4 1.8-1.8.8-.4 1.7-.6 2.7-.6h3.6v4.3h-2.8c-.5 0-.8.1-1.1.4-.3.3-.4.6-.4 1.1v2.8h4.3v4.3h-4.3v12.4H155v-12.4zm14-12.4c.5 0 1 .1 1.5.4.4.3.8.6 1 1 .2.4.4.9.4 1.4 0 .5-.1 1-.4 1.4-.2.4-.6.8-1 1-.4.3-.9.4-1.5.4-.5 0-1-.1-1.5-.4-.4-.3-.8-.6-1-1-.2-.4-.4-.9-.4-1.4 0-.5.1-1 .4-1.4.2-.4.6-.8 1-1 .5-.3.9-.4 1.5-.4zm2.2 24.8h-4.5v-16.6h4.5v16.6zm20.6-25.1v25.2h-4.4v-1.1c-.6.5-1.3.9-2.1 1.1-.8.3-1.6.4-2.5.4-1.6 0-3-.4-4.2-1.2-1.3-.8-2.2-1.8-2.9-3.1-.7-1.3-1.1-2.8-1.1-4.4 0-1.6.4-3.1 1.1-4.4.7-1.3 1.7-2.4 2.9-3.1 1.2-.8 2.7-1.1 4.2-1.1.9 0 1.7.1 2.4.4.8.3 1.4.6 2 1.1v-9.6h4.6zm-4.4 16.8c0-.8-.2-1.6-.5-2.2s-.9-1.2-1.5-1.6c-.6-.4-1.4-.6-2.2-.6-.8 0-1.5.2-2.1.6-.6.4-1.1.9-1.5 1.6-.4.7-.5 1.4-.5 2.2 0 .8.2 1.5.5 2.2.4.7.8 1.2 1.5 1.5.6.4 1.3.6 2.1.6s1.5-.2 2.2-.6c.6-.4 1.1-.9 1.5-1.5.3-.7.5-1.4.5-2.2zm24.4 0c0 .6-.1 1.1-.2 1.7h-11.9c.3.8.8 1.5 1.5 2s1.6.7 2.6.7c.8 0 1.5-.2 2.2-.5.6-.4 1.1-.9 1.5-1.5l3.6 2.2c-.7 1.3-1.8 2.2-3 3s-2.7 1.1-4.3 1.1c-1.6 0-3.1-.4-4.4-1.1-1.3-.8-2.3-1.8-3.1-3.1-.7-1.3-1.1-2.8-1.1-4.4 0-1.6.4-3.1 1.1-4.4.7-1.3 1.7-2.4 3-3.1 1.3-.8 2.7-1.1 4.3-1.1s3 .4 4.3 1.1c1.3.8 2.2 1.8 2.9 3.1.7 1.2 1 2.6 1 4.3zm-12.2-1.7h7.7c-.2-.9-.7-1.6-1.4-2.1s-1.5-.7-2.5-.7-1.9.2-2.5.7-1 1.2-1.3 2.1zm30.7-.4v10.4h-4.5v-9.5c0-.6-.1-1.1-.4-1.6-.2-.5-.6-.8-1.1-1.1s-1-.4-1.6-.4c-.6 0-1.2.1-1.6.4s-.8.6-1.1 1.1c-.3.5-.4 1-.4 1.6v9.5h-4.5v-16.6h4.4v1c.6-.5 1.2-.8 1.9-1.1.7-.2 1.5-.4 2.3-.4 1.2 0 2.4.3 3.4.9 1 .6 1.8 1.4 2.3 2.4.6 1 .9 2.2.9 3.4zm11.9-6.6c1.5 0 2.9.3 4.2 1 1.2.7 2.2 1.6 3 2.8l-3.6 2.6c-.4-.6-.9-1.1-1.5-1.5-.6-.3-1.3-.5-2-.5-.8 0-1.5.2-2.1.6s-1.1.9-1.5 1.5c-.4.7-.5 1.4-.5 2.2s.2 1.5.5 2.2c.4.7.8 1.2 1.5 1.5.6.4 1.3.6 2.1.6s1.4-.2 2-.5 1.1-.8 1.5-1.5l3.6 2.6c-.8 1.2-1.8 2.1-3 2.8-1.2.7-2.6 1-4.2 1s-3.1-.4-4.4-1.1c-1.3-.8-2.3-1.8-3.1-3.1-.7-1.3-1.1-2.8-1.1-4.4s.4-3.1 1.1-4.4c.7-1.3 1.8-2.4 3.1-3.1 1.3-.9 2.8-1.3 4.4-1.3zm25.5 8.7c0 .6-.1 1.1-.2 1.7h-11.9c.3.8.8 1.5 1.5 2s1.6.7 2.6.7c.8 0 1.5-.2 2.2-.5.6-.4 1.1-.9 1.5-1.5l3.6 2.2c-.7 1.3-1.8 2.2-3 3s-2.7 1.1-4.3 1.1c-1.6 0-3.1-.4-4.4-1.1-1.3-.8-2.3-1.8-3.1-3.1-.7-1.3-1.1-2.8-1.1-4.4 0-1.6.4-3.1 1.1-4.4.7-1.3 1.7-2.4 3-3.1 1.3-.8 2.7-1.1 4.3-1.1s3 .4 4.3 1.1c1.3.8 2.2 1.8 2.9 3.1.7 1.2 1 2.6 1 4.3zm-12.1-1.7h7.7c-.2-.9-.7-1.6-1.4-2.1s-1.5-.7-2.5-.7-1.9.2-2.5.7-1.1 1.2-1.3 2.1zm17.8 4.5c.5 0 1 .1 1.5.4.4.3.8.6 1 1 .2.4.4.9.4 1.5 0 .5-.1 1-.4 1.4-.2.4-.6.8-1 1-.4.3-.9.4-1.5.4-.5 0-1-.1-1.5-.4s-.8-.6-1-1c-.3-.4-.4-.9-.4-1.4 0-.5.1-1 .4-1.5.2-.4.6-.8 1-1 .5-.3.9-.4 1.5-.4z"/></svg>