<svg baseProfile="tiny" xmlns="http://www.w3.org/2000/svg" viewBox="0 0 300 600" overflow="visible"><g fill="#454547"><path d="M28.8 369.2h-4.3v-1.6H35v1.6h-4.3v12.6h-1.8v-12.6zM35.5 374.8c0-1.2 0-2.2-.1-3.2H37l.1 2h.1c.5-1.4 1.6-2.2 2.8-2.2.2 0 .4 0 .5.1v1.7c-.2 0-.4-.1-.6-.1-1.3 0-2.2 1-2.5 2.4 0 .3-.1.5-.1.9v5.4h-1.8v-7zM50.9 379c0 1 0 2 .1 2.8h-1.6l-.1-1.7c-.5.8-1.6 1.9-3.4 1.9-1.6 0-3.5-.9-3.5-4.5v-5.9h1.8v5.6c0 1.9.6 3.2 2.3 3.2 1.2 0 2.1-.9 2.4-1.7.1-.3.2-.6.2-.9v-6.2h1.8v7.4zM53.8 379.5c.8.5 2 .9 3.3.9 1.9 0 3-1 3-2.4 0-1.3-.8-2.1-2.7-2.8-2.3-.8-3.7-2-3.7-4 0-2.2 1.8-3.8 4.6-3.8 1.4 0 2.5.3 3.1.7l-.5 1.5c-.5-.3-1.4-.7-2.7-.7-1.9 0-2.7 1.2-2.7 2.1 0 1.3.9 2 2.8 2.7 2.4.9 3.6 2.1 3.6 4.2 0 2.2-1.6 4.1-5 4.1-1.4 0-2.9-.4-3.6-.9l.5-1.6zM66.5 368.7v2.9h2.6v1.4h-2.6v5.5c0 1.3.4 2 1.4 2 .5 0 .8-.1 1.1-.1l.1 1.4c-.4.1-.9.3-1.6.3-.9 0-1.6-.3-2-.8-.5-.5-.7-1.4-.7-2.6V373h-1.6v-1.4h1.6v-2.4l1.7-.5zM76.9 381.8l-.1-1.3h-.1c-.6.8-1.7 1.5-3.1 1.5-2.1 0-3.1-1.4-3.1-2.9 0-2.5 2.2-3.8 6.1-3.8v-.2c0-.8-.2-2.4-2.3-2.4-.9 0-1.9.3-2.6.8l-.4-1.2c.8-.5 2.1-.9 3.3-.9 3.1 0 3.9 2.1 3.9 4.2v3.8c0 .9 0 1.7.2 2.4h-1.8zm-.3-5.2c-2 0-4.3.3-4.3 2.3 0 1.2.8 1.8 1.7 1.8 1.3 0 2.2-.8 2.5-1.7.1-.2.1-.4.1-.6v-1.8zM90.1 371.6c0 .7-.1 1.6-.1 2.8v5.9c0 2.3-.5 3.8-1.4 4.6-1 .9-2.4 1.2-3.7 1.2-1.2 0-2.6-.3-3.4-.8l.5-1.4c.7.4 1.7.8 3 .8 1.9 0 3.3-1 3.3-3.5V380c-.6.9-1.7 1.7-3.2 1.7-2.5 0-4.3-2.1-4.3-5 0-3.4 2.2-5.4 4.6-5.4 1.8 0 2.7.9 3.2 1.8l.1-1.5h1.4zm-1.9 4c0-.3 0-.6-.1-.8-.3-1.1-1.2-2-2.6-2-1.8 0-3 1.5-3 3.8 0 2 1 3.7 3 3.7 1.1 0 2.2-.7 2.6-1.9.1-.3.1-.7.1-1v-1.8zM94.1 377c0 2.5 1.6 3.5 3.5 3.5 1.3 0 2.1-.2 2.8-.5l.3 1.3c-.7.3-1.8.6-3.4.6-3.1 0-5-2.1-5-5.1s1.8-5.5 4.8-5.5c3.3 0 4.2 2.9 4.2 4.8 0 .4 0 .7-.1.9h-7.1zm5.4-1.3c0-1.2-.5-3-2.6-3-1.9 0-2.7 1.7-2.8 3h5.4zM107.5 367.6v.9h-1.8v4.8h-1.1v-4.8h-1.8v-.9h4.7zm6.2 5.7l-.2-3.4v-1.6h-.1c-.1.5-.3 1.2-.5 1.7l-1 3.2h-1.2l-1-3.3c-.1-.4-.3-1.1-.4-1.6h-.1v1.6l-.2 3.4h-1.1l.4-5.7h1.7l1 2.8c.1.4.2.9.4 1.4.1-.5.3-1 .4-1.4l1-2.8h1.6l.4 5.7h-1.1zM123.1 368.7c0 .6-.4 1.1-1.2 1.1-.7 0-1.1-.5-1.1-1.1 0-.7.5-1.2 1.2-1.2.7.1 1.1.6 1.1 1.2zm-2 13.1v-10.2h1.8v10.2h-1.8zM125.7 379.9c.5.4 1.5.7 2.4.7 1.3 0 2-.7 2-1.5 0-.9-.5-1.4-1.9-1.9-1.8-.7-2.7-1.7-2.7-2.9 0-1.6 1.3-3 3.5-3 1 0 1.9.3 2.5.6l-.5 1.3c-.4-.3-1.1-.6-2.1-.6-1.1 0-1.7.6-1.7 1.4 0 .8.6 1.2 1.9 1.7 1.8.7 2.7 1.6 2.7 3.1 0 1.8-1.4 3-3.8 3-1.1 0-2.1-.3-2.9-.7l.6-1.2zM147.5 366.8v12.3c0 .9 0 1.9.1 2.6h-1.7l-.1-1.8c-.6 1.1-1.8 2-3.5 2-2.5 0-4.3-2.1-4.3-5.2 0-3.4 2.1-5.5 4.6-5.5 1.6 0 2.6.7 3.1 1.6v-6.1h1.8zm-1.8 8.9c0-.2 0-.5-.1-.8-.3-1.2-1.3-2.1-2.7-2.1-1.9 0-3 1.7-3 3.9 0 2.1 1 3.8 3 3.8 1.2 0 2.4-.8 2.7-2.2.1-.3.1-.5.1-.8v-1.8zM151.6 377c0 2.5 1.6 3.5 3.5 3.5 1.3 0 2.1-.2 2.8-.5l.3 1.3c-.7.3-1.8.6-3.4.6-3.1 0-5-2.1-5-5.1s1.8-5.5 4.8-5.5c3.3 0 4.2 2.9 4.2 4.8 0 .4 0 .7-.1.9h-7.1zm5.4-1.3c0-1.2-.5-3-2.6-3-1.9 0-2.7 1.7-2.8 3h5.4zM160.9 379.9c.5.4 1.5.7 2.4.7 1.3 0 2-.7 2-1.5 0-.9-.5-1.4-1.9-1.9-1.8-.7-2.7-1.7-2.7-2.9 0-1.6 1.3-3 3.5-3 1 0 1.9.3 2.5.6l-.5 1.3c-.4-.3-1.1-.6-2.1-.6-1.1 0-1.7.6-1.7 1.4 0 .8.6 1.2 1.9 1.7 1.8.7 2.7 1.6 2.7 3.1 0 1.8-1.4 3-3.8 3-1.1 0-2.1-.3-2.9-.7l.6-1.2zM171.5 368.7c0 .6-.4 1.1-1.2 1.1-.7 0-1.1-.5-1.1-1.1 0-.7.5-1.2 1.2-1.2.6.1 1.1.6 1.1 1.2zm-2.1 13.1v-10.2h1.8v10.2h-1.8zM183.1 371.6c0 .7-.1 1.6-.1 2.8v5.9c0 2.3-.5 3.8-1.4 4.6-1 .9-2.4 1.2-3.7 1.2-1.2 0-2.6-.3-3.4-.8l.5-1.4c.7.4 1.7.8 3 .8 1.9 0 3.3-1 3.3-3.5V380c-.6.9-1.7 1.7-3.2 1.7-2.5 0-4.3-2.1-4.3-5 0-3.4 2.2-5.4 4.6-5.4 1.8 0 2.7.9 3.2 1.8l.1-1.5h1.4zm-1.9 4c0-.3 0-.6-.1-.8-.3-1.1-1.2-2-2.6-2-1.8 0-3 1.5-3 3.8 0 2 1 3.7 3 3.7 1.1 0 2.2-.7 2.6-1.9.1-.3.1-.7.1-1v-1.8zM185.9 374.3c0-1 0-1.9-.1-2.8h1.6l.1 1.7c.5-1 1.7-1.9 3.4-1.9 1.4 0 3.6.8 3.6 4.3v6.1h-1.8v-5.9c0-1.6-.6-3-2.4-3-1.2 0-2.2.9-2.5 1.9-.1.2-.1.5-.1.9v6.1h-1.8v-7.4zM198.6 377c0 2.5 1.6 3.5 3.5 3.5 1.3 0 2.1-.2 2.8-.5l.3 1.3c-.7.3-1.8.6-3.4.6-3.1 0-5-2.1-5-5.1s1.8-5.5 4.8-5.5c3.3 0 4.2 2.9 4.2 4.8 0 .4 0 .7-.1.9h-7.1zm5.4-1.3c0-1.2-.5-3-2.6-3-1.9 0-2.7 1.7-2.8 3h5.4zM216.9 366.8v12.3c0 .9 0 1.9.1 2.6h-1.7l-.1-1.8c-.6 1.1-1.8 2-3.5 2-2.5 0-4.3-2.1-4.3-5.2 0-3.4 2.1-5.5 4.6-5.5 1.6 0 2.6.7 3.1 1.6v-6.1h1.8zm-1.8 8.9c0-.2 0-.5-.1-.8-.3-1.2-1.3-2.1-2.7-2.1-1.9 0-3 1.7-3 3.9 0 2.1 1 3.8 3 3.8 1.2 0 2.4-.8 2.7-2.2.1-.3.1-.5.1-.8v-1.8z"/></g><g fill="#454547"><path d="M26.7 396.6l1.3 5.2c.3 1.1.6 2.2.8 3.2h.1c.2-1 .6-2.1.9-3.2l1.7-5.2H33l1.6 5.1c.4 1.2.7 2.3.9 3.3h.1c.2-1 .4-2.1.8-3.3l1.4-5.1h1.8l-3.3 10.2h-1.7L33 402c-.4-1.1-.7-2.1-.9-3.3-.3 1.2-.6 2.3-.9 3.4l-1.6 4.8h-1.7l-3.1-10.2h1.9zM43.5 393.7c0 .6-.4 1.1-1.2 1.1-.7 0-1.1-.5-1.1-1.1 0-.7.5-1.2 1.2-1.2.7.1 1.1.6 1.1 1.2zm-2 13v-10.2h1.8v10.2h-1.8zM48.6 393.7v2.9h2.6v1.4h-2.6v5.5c0 1.3.4 2 1.4 2 .5 0 .8-.1 1.1-.1l.1 1.4c-.4.1-.9.3-1.6.3-.9 0-1.6-.3-2-.8-.5-.5-.7-1.4-.7-2.6V398h-1.6v-1.4h1.6v-2.4l1.7-.5zM53.3 391.8h1.8v6.3c.3-.5.8-1 1.3-1.3.5-.3 1.2-.5 1.9-.5 1.4 0 3.5.8 3.5 4.3v6H60v-5.8c0-1.6-.6-3-2.4-3-1.2 0-2.1.8-2.5 1.8-.1.3-.1.5-.1.9v6.1h-1.8v-14.8zM70.1 396.6l2.2 6c.2.7.5 1.5.7 2.1.2-.6.4-1.4.7-2.1l2-6h2l-2.8 7.2c-1.3 3.5-2.2 5.3-3.5 6.4-.9.8-1.8 1.1-2.3 1.2l-.5-1.6c.5-.1 1.1-.4 1.6-.9.5-.4 1.1-1.1 1.6-2.1.1-.2.1-.3.1-.4 0-.1 0-.3-.1-.5l-3.8-9.4h2.1zM88.3 401.6c0 3.8-2.6 5.4-5.1 5.4-2.8 0-4.9-2-4.9-5.2 0-3.4 2.2-5.4 5-5.4 3.1-.1 5 2.1 5 5.2zm-8 .1c0 2.2 1.3 3.9 3.1 3.9s3.1-1.7 3.1-3.9c0-1.7-.9-3.9-3-3.9s-3.2 1.9-3.2 3.9zM99.2 404c0 1 0 2 .1 2.8h-1.6l-.1-1.7c-.5.8-1.6 1.9-3.4 1.9-1.6 0-3.5-.9-3.5-4.5v-5.9h1.8v5.6c0 1.9.6 3.2 2.3 3.2 1.2 0 2.1-.9 2.4-1.7.1-.3.2-.6.2-.9v-6.2h1.8v7.4zM108.8 393.7c0 .6-.4 1.1-1.2 1.1-.7 0-1.1-.5-1.1-1.1 0-.7.5-1.2 1.2-1.2.6.1 1.1.6 1.1 1.2zm-2.1 13v-10.2h1.8v10.2h-1.8zM111.6 399.3c0-1 0-1.9-.1-2.8h1.6l.1 1.7c.5-1 1.7-1.9 3.4-1.9 1.4 0 3.6.8 3.6 4.3v6.1h-1.8v-5.9c0-1.6-.6-3-2.4-3-1.2 0-2.2.9-2.5 1.9-.1.2-.1.5-.1.9v6.1h-1.8v-7.4zM127.7 399.3c0-1 0-1.9-.1-2.8h1.6l.1 1.6h.1c.6-1 1.5-1.9 3.2-1.9 1.4 0 2.4.8 2.9 2 .3-.6.7-1 1.1-1.3.6-.5 1.3-.7 2.2-.7 1.3 0 3.3.9 3.3 4.4v6h-1.8V401c0-2-.7-3.1-2.2-3.1-1 0-1.9.8-2.2 1.7-.1.3-.1.6-.1.9v6.3H134v-6.1c0-1.6-.7-2.8-2.1-2.8-1.2 0-2 .9-2.3 1.8-.1.3-.1.6-.1.9v6.1h-1.8v-7.4zM147.3 393.7c0 .6-.4 1.1-1.2 1.1-.7 0-1.1-.5-1.1-1.1 0-.7.5-1.2 1.2-1.2.6.1 1.1.6 1.1 1.2zm-2.1 13v-10.2h1.8v10.2h-1.8zM150.1 399.3c0-1 0-1.9-.1-2.8h1.6l.1 1.7c.5-1 1.7-1.9 3.4-1.9 1.4 0 3.6.8 3.6 4.3v6.1h-1.8v-5.9c0-1.6-.6-3-2.4-3-1.2 0-2.2.9-2.5 1.9-.1.2-.1.5-.1.9v6.1h-1.8v-7.4zM170.6 391.8v12.3c0 .9 0 1.9.1 2.6H169l-.1-1.8c-.6 1.1-1.8 2-3.5 2-2.5 0-4.3-2.1-4.3-5.2 0-3.4 2.1-5.5 4.6-5.5 1.6 0 2.6.7 3.1 1.6v-6.1h1.8zm-1.9 8.9c0-.2 0-.5-.1-.8-.3-1.2-1.3-2.1-2.7-2.1-1.9 0-3 1.7-3 3.9 0 2.1 1 3.8 3 3.8 1.2 0 2.4-.8 2.7-2.2.1-.3.1-.5.1-.8v-1.8zM173 405.6c0-.8.5-1.3 1.3-1.3s1.2.5 1.2 1.3-.5 1.3-1.3 1.3c-.7.1-1.2-.5-1.2-1.3z"/></g></svg>