<svg baseProfile="tiny" xmlns="http://www.w3.org/2000/svg" viewBox="0 0 300 600" overflow="visible"><path fill="#193062" d="M-.5 522.7h301v78.1H-.5z"/><path fill="#F9DF7E" d="M67 543.9h25.8v7.1H67z"/><path fill="#FFF" d="M95 543.9h6.2v7.1H95z"/><path fill="#F9DF7E" d="M67 553h19.3v7.1H67z"/><path fill="#FFF" d="M88.4 553h12.7v7.1H88.4z"/><path fill="#F9DF7E" d="M67 562h12.7v7.1H67z"/><path fill="#FFF" d="M81.9 562h19.3v7.1H81.9z"/><path fill="#F9DF7E" d="M67 571h6.2v7.1H67z"/><path fill="#FFF" d="M75.4 571h25.8v7.1H75.4zM121.2 554.2h-5.7v-3.1h14.8v3.1h-5.8v16.7h-3.3z"/><path fill="none" d="M187.1 559.5c-2.5 0-4.2 2-4.2 4.5s1.7 4.5 4.2 4.5 4.1-2 4.1-4.5c0-2.6-1.6-4.5-4.1-4.5zM203.6 559.5c-2.4 0-4.1 1.8-4.1 4.3s1.8 4.3 4.1 4.3c2.4 0 4.2-1.8 4.2-4.3-.1-2.5-1.8-4.3-4.2-4.3zM219.8 559.3c-1.8 0-3.6 1-4 3.1h7.7c-.3-2-1.9-3.1-3.7-3.1z"/><path fill="#FFF" d="M129.5 557v14h3.1v-6.8c0-2.8 1.6-4.3 3.3-4.3.6 0 1 .1 1.5.3V557c-.4-.1-.8-.1-1.2-.1-1.6 0-3.1 1-3.7 2.6V557h-3zM139.8 557v8.4c0 3.6 2 5.9 5.2 5.9 1.8 0 3.3-.8 4.1-2.2v1.9h3.1v-14h-3.1v6.9c0 3-1.4 4.6-3.4 4.6-1.8 0-2.8-1.4-2.8-3.6V557h-3.1zM161.3 568.2c-1.9 0-3.6-.9-4.6-2.5l-2.6 2c1.2 2.1 3.8 3.6 7 3.6 3.9 0 6.6-2.3 6.6-5.7 0-3-1.7-4.7-4.7-5.8l-2-.8c-2-.8-3-1.4-3-2.9 0-1.4 1.4-2.3 3.1-2.3 1.5 0 2.8.7 3.8 1.8l2.3-2.2c-1.4-1.7-3.5-2.7-6-2.7-3.7 0-6.4 2.1-6.4 5.6 0 2.7 1.5 4.4 4.7 5.6l2.2.8c1.9.7 2.8 1.6 2.8 3 0 1.5-1.4 2.5-3.2 2.5zM194.1 570.9v-14H191v1.9c-.8-1.1-2.5-2.2-4.5-2.2-3.8 0-6.7 3.3-6.7 7.3s2.9 7.3 6.7 7.3c2 0 3.7-1 4.5-2.2v1.9h3.1zm-7-2.5c-2.5 0-4.2-2-4.2-4.5s1.7-4.5 4.2-4.5 4.1 2 4.1 4.5c0 2.6-1.6 4.5-4.1 4.5zM203.3 574.3c-1.9 0-3.5-.8-4.6-2l-1.9 2.2c1.4 1.5 3.8 2.6 6.5 2.6 4.1 0 7.2-2.2 7.2-7.1v-13h-3.1v1.9c-.8-1.2-2.5-2.2-4.5-2.2-3.8 0-6.7 3.1-6.7 7.1 0 4 2.9 7.1 6.7 7.1 1.9 0 3.6-.9 4.5-2.2v1.3c.1 2.8-1.8 4.3-4.1 4.3zm.3-6.3c-2.4 0-4.1-1.8-4.1-4.3s1.8-4.3 4.1-4.3c2.4 0 4.2 1.8 4.2 4.3-.1 2.5-1.8 4.3-4.2 4.3zM220 556.7c-4.2 0-7.3 3.2-7.3 7.3 0 4.2 3 7.3 7.3 7.3 2.9 0 5.1-1.3 6.4-3.2l-2.3-1.7c-.7 1.2-2 2.1-4 2.1-2.3 0-4.1-1.5-4.3-3.8h10.9v-1c0-4.6-3.1-7-6.7-7zm-4.2 5.7c.4-2.1 2.2-3.1 4-3.1 1.8 0 3.4 1.1 3.7 3.1h-7.7zM171.3 553.1v1.8c0 1.2-.9 2.1-2.1 2.1h-.8v2.7h2.9v6.7c0 3.2 2.1 4.6 4.8 4.6.9 0 1.7-.1 2.3-.3V568c-.4.2-1.1.3-1.6.3-1.6 0-2.3-.6-2.3-2.4v-6.2h4V557h-4v-3.9h-3.2zM228.5 554.6l-.7-1.5h-.4v2.4h.4V554l.7 1.6.8-1.5v1.4h.4v-2.4h-.4zM226.1 555.5v-2h.8v-.4h-2v.4h.8v2z"/></svg>