<svg baseProfile="tiny" xmlns="http://www.w3.org/2000/svg" viewBox="0 0 728 90" overflow="visible"><g fill="#373535"><path d="M13.3 76.6c0 .6-.1 1-.4 1.5s-.6.8-1 1-.9.4-1.5.4-1.1-.1-1.5-.4-.8-.6-1-1.1-.4-1-.4-1.5c0-.6.1-1.1.4-1.5s.6-.8 1.1-1.1 1-.4 1.5-.4c.6 0 1.1.1 1.5.4s.8.6 1 1l-.6.4c-.2-.3-.4-.6-.8-.8s-.7-.3-1.1-.3c-.4 0-.8.1-1.1.3s-.7.5-.9.8-.3.7-.3 1.2c0 .4.1.8.3 1.2s.4.6.8.8.7.3 1.1.3c.3 0 .7-.1.9-.2.3-.1.5-.3.7-.5s.3-.5.4-.8H10v-.7h3.3zM14.3 73.6h4.4v.7H15v1.8h2.1v.7H15v1.8h3.6v.7h-4.4v-5.7zM24.3 73.6v5.8h-.8l-3-4.5v4.5h-.8v-5.8h.8l3 4.5v-4.5h.8zM27.2 76.8v.7h-1.9v-.7h1.9zM31.8 77.8c0 .3-.1.6-.2.9-.2.3-.4.5-.7.6s-.6.2-1 .2-.7-.1-1-.2-.5-.3-.7-.6-.2-.5-.2-.9h.8c0 .2.1.3.2.5s.2.3.4.3.3.1.6.1c.2 0 .4 0 .6-.1.2-.1.3-.2.4-.4.1-.2.1-.3.1-.5s0-.4-.1-.5c-.1-.1-.2-.3-.4-.4s-.3-.1-.5-.1h-.6V76h.5c.2 0 .4 0 .5-.1s.3-.2.3-.3c.1-.1.1-.3.1-.5s0-.3-.1-.5l-.3-.3c-.1-.1-.3-.1-.5-.1s-.4 0-.5.1-.3.2-.3.3-.2.3-.2.5h-.8c0-.3.1-.6.2-.8s.4-.4.6-.6.6-.2.9-.2c.3 0 .6.1.9.2s.5.3.6.6c.1.2.2.5.2.8 0 .3-.1.5-.2.7-.1.2-.3.4-.5.5.2.1.4.3.6.6.2.3.3.6.3.9zM36.8 75.4c0 .2 0 .5-.1.7s-.2.5-.3.7l-1.7 2.6h-.9l1.4-2.2h-.4c-.4 0-.7-.1-1-.2s-.5-.4-.7-.7-.3-.6-.3-1 .1-.7.3-1 .4-.5.7-.7.6-.2 1-.2.7.1 1 .2.5.4.7.7.3.7.3 1.1zm-2 1.2c.2 0 .4 0 .6-.1s.3-.2.4-.4.2-.4.2-.6c0-.2-.1-.4-.2-.6s-.2-.3-.4-.4-.4-.2-.6-.2c-.2 0-.5 0-.6.2s-.3.2-.4.4-.2.4-.2.6c0 .2.1.4.2.6s.2.3.4.4.4.1.6.1zM41.4 77.8c0 .3-.1.6-.2.9-.2.3-.4.5-.7.6s-.6.2-1 .2-.7-.1-1-.2-.5-.3-.7-.6-.2-.5-.2-.9h.8c0 .2.1.3.2.5s.2.3.4.3.3.1.6.1c.2 0 .4 0 .6-.1.2-.1.3-.2.4-.4.1-.2.1-.3.1-.5s0-.4-.1-.5c-.1-.1-.2-.3-.4-.4s-.3-.1-.5-.1H39V76h.6c.2 0 .4 0 .5-.1s.3-.2.3-.3c.1-.1.1-.3.1-.5s0-.3-.1-.5l-.3-.3c-.1-.1-.3-.1-.5-.1s-.4 0-.5.1-.3.2-.3.3-.1.3-.1.5h-.8c0-.3.1-.6.2-.8s.4-.4.6-.6.6-.2.9-.2c.3 0 .6.1.9.2s.5.3.6.6c.1.2.2.5.2.8 0 .3-.1.5-.2.7-.1.2-.3.4-.5.5.2.1.4.3.6.6.1.3.2.6.2.9zM46.3 77.6c0 .4-.1.7-.2 1s-.4.5-.7.7-.6.2-1 .2-.7-.1-1-.2c-.3-.2-.5-.4-.7-.7-.2-.3-.2-.6-.2-.9h.8c0 .2.1.4.2.6s.2.3.4.4.4.1.6.1c.2 0 .4 0 .6-.1s.3-.2.4-.4.2-.4.2-.6c0-.2-.1-.4-.2-.6s-.2-.3-.4-.4-.4-.1-.6-.1h-1.7l.4-2.9h3v.7h-2.4l-.2 1.4h.9c.4 0 .7.1 1 .2s.5.4.7.7.1.5.1.9zM48.8 74.4l-1.5 1v-.8l1.5-.9h.8v5.8h-.8v-5.1zM54.7 78.7v.7H51v-.7l2.3-2.4c.2-.2.3-.4.4-.6s.1-.4.1-.6c0-.2 0-.4-.1-.5s-.2-.3-.4-.4-.3-.1-.5-.1-.4 0-.5.1-.3.3-.3.5-.1.3-.1.5h-.8c0-.3.1-.6.2-.9s.4-.5.6-.6.6-.2.9-.2c.4 0 .7.1.9.2s.5.4.6.6.2.6.2.9c0 .3-.1.6-.2.9s-.3.5-.6.8L52 78.7h2.7zM60 76.9v.7h-1v1.7h-.8v-1.7h-2.6V77l2.5-3.5h.9v3.4h1zm-1.8 0v-2.4l-1.7 2.4h1.7zM61.3 78.4c.2 0 .3 0 .4.1s.1.2.1.4 0 .3-.1.4-.2.1-.4.1-.3 0-.4-.1-.1-.2-.1-.4 0-.3.1-.4.2-.1.4-.1zM66.5 78.7v.7h-3.7v-.7l2.3-2.4c.2-.2.3-.4.4-.6s.1-.4.1-.6c0-.2 0-.4-.1-.5s-.2-.3-.4-.4-.3-.1-.5-.1-.4 0-.5.1-.3.2-.4.3-.1.3-.1.5h-.8c0-.3.1-.6.2-.9s.4-.5.6-.6.6-.2.9-.2c.4 0 .7.1.9.2s.5.4.6.6.2.6.2.9c0 .3-.1.6-.2.9s-.3.5-.6.8l-1.7 1.8h2.8z"/></g></svg>