<svg baseProfile="tiny" xmlns="http://www.w3.org/2000/svg" viewBox="0 0 728 90" overflow="visible"><g fill="#193062"><path d="M207.1 19.5v.6c0 4-2.7 7-6.9 7s-7-3-7-7.1c0-4 3-7.1 7.2-7.1 2.8 0 5 1.4 6.2 3.5l-2.5 1.6c-.7-1.3-2-2.1-3.7-2.1-2.5 0-4.2 1.8-4.2 4.2 0 2.5 1.6 4.3 4.1 4.3 1.7 0 2.9-.8 3.5-2h-4.5v-2.7h7.8zM217.9 23.1h-6.7c.3.8 1.1 1.4 2.2 1.4.9 0 1.6-.5 2-1.1l2.2 1.3c-.8 1.4-2.4 2.4-4.3 2.4-2.9 0-5-2.2-5-5s2-5 4.8-5 4.8 2.1 4.8 5c.1.3.1.7 0 1zm-6.7-2h4.1c-.3-.9-1-1.4-2-1.4-1.1 0-1.9.5-2.1 1.4zM223 17.3h2.9V20H223v3.2c0 .6.4 1 1 1h1.9v2.7h-2.5c-1.9 0-3.3-1.3-3.3-3.2V20h-1.4v-1.4l2.6-3.2h1.5v1.9zM243.3 22.1c0 2.8-2 5-4.7 5-.9 0-1.8-.3-2.5-.8v.6h-2.8V12.4h2.8v5.4c.6-.5 1.5-.7 2.4-.7 2.8 0 4.8 2.2 4.8 5zm-2.8 0c0-1.3-.9-2.3-2.2-2.3-1.3 0-2.2 1-2.2 2.3 0 1.3.9 2.2 2.2 2.2 1.3.1 2.2-.9 2.2-2.2zM253.1 20.9v6h-2.8v-.5c-.6.5-1.3.7-2.3.7-2 0-3.3-1.2-3.3-3 0-2 1.5-2.8 3.3-3l2.3-.2v-.1c0-.6-.6-1.1-1.4-1.1-.7 0-1.3.4-1.4.9h-2.7c.1-2 1.8-3.5 4.1-3.5 2.5 0 4.2 1.6 4.2 3.8zm-2.8 2.6v-.6l-1.9.2c-.7.1-1 .4-1 .9s.4.9 1.2.9c1.1-.1 1.7-.6 1.7-1.4zM259.8 17.1c1.8 0 3.3.9 4.2 2.2l-2.3 1.6c-.4-.6-1-1.1-1.9-1.1-1.3 0-2.2 1-2.2 2.3 0 1.3.9 2.2 2.2 2.2.8 0 1.5-.4 1.9-1.1l2.3 1.6c-.8 1.4-2.3 2.2-4.2 2.2-2.9 0-5-2.2-5-5 .1-2.7 2.2-4.9 5-4.9zM271.2 21.9l3.6 5h-3.4l-3.2-4.5v4.5h-2.8V12.4h2.8v8.9l3.2-4h3.5l-3.7 4.6zM284.8 17.3h2.9V20h-2.9v3.2c0 .6.4 1 1 1h1.9v2.7h-2.5c-1.9 0-3.3-1.3-3.3-3.2V20h-1.4v-1.4l2.6-3.2h1.5v1.9zM293.9 17.1c2.9 0 5 2.2 5 5 0 2.7-2.1 5-5 5s-5-2.2-5-5c.1-2.8 2.2-5 5-5zm0 7.2c1.3 0 2.2-1 2.2-2.2 0-1.3-.9-2.3-2.2-2.3-1.3 0-2.2 1-2.2 2.3 0 1.2 1 2.2 2.2 2.2zM309.5 17.3h2.9V20h-2.9v3.2c0 .6.4 1 1 1h1.9v2.7h-2.5c-1.9 0-3.3-1.3-3.3-3.2V20h-1.4v-1.4l2.6-3.2h1.5v1.9zM323.2 20.9v6h-2.8v-5.4c0-.9-.6-1.7-1.6-1.7s-1.7.7-1.7 1.7v5.4h-2.8V12.4h2.8v5.4c.6-.5 1.4-.7 2.3-.7 2.2 0 3.8 1.6 3.8 3.8zM334.5 23.1h-6.7c.3.8 1.1 1.4 2.2 1.4.9 0 1.6-.5 2-1.1l2.2 1.3c-.8 1.4-2.4 2.4-4.3 2.4-2.9 0-5-2.2-5-5s2-5 4.8-5 4.8 2.1 4.8 5c.1.3.1.7 0 1zm-6.7-2h4.1c-.3-.9-1-1.4-2-1.4-1.1 0-1.9.5-2.1 1.4zM345.1 17.3h2.9V20h-2.9v3.2c0 .6.4 1 1 1h1.9v2.7h-2.5c-1.9 0-3.3-1.3-3.3-3.2V20h-1.4v-1.4l2.6-3.2h1.5v1.9zM358.8 20.9v6H356v-5.4c0-.9-.6-1.7-1.6-1.7s-1.7.7-1.7 1.7v5.4H350V12.4h2.8v5.4c.6-.5 1.4-.7 2.3-.7 2.1 0 3.7 1.6 3.7 3.8zM362.7 12.6c1 0 1.7.8 1.7 1.7 0 1-.7 1.7-1.7 1.7s-1.7-.8-1.7-1.7c-.1-1 .7-1.7 1.7-1.7zm1.4 14.3h-2.8v-9.6h2.8v9.6zM375.5 20.9v6h-2.8v-5.4c0-.9-.6-1.6-1.6-1.6s-1.6.7-1.6 1.6v5.4h-2.8v-9.6h2.8v.6c.6-.5 1.4-.8 2.3-.8 2.1 0 3.7 1.6 3.7 3.8zM386.8 17.3v9.3c0 2.6-1.9 4.5-4.8 4.5-2.2 0-3.9-1.2-4.4-3l2.6-1c.3.8.9 1.3 1.9 1.3 1.2 0 2-.7 2-1.9v-.7c-.6.5-1.4.7-2.3.7-2.6 0-4.5-2.1-4.5-4.7s1.9-4.7 4.5-4.7c.9 0 1.7.3 2.4.8v-.6h2.6zm-2.7 4.6c0-1.1-.9-2-2-2-1.2 0-2 .9-2 2s.9 2 2 2c1.1-.1 2-1 2-2zM392.8 24.6c.8 0 1.2-.3 1.2-.7 0-.3-.2-.5-.7-.5-.5-.1-1-.1-1.7-.2-1.9-.3-2.7-1.4-2.7-2.8 0-1.9 1.6-3.2 3.9-3.2s3.9 1.3 3.9 3.2H394c0-.4-.5-.7-1.2-.7s-1.1.3-1.1.6.2.4.7.5c.6.1 1 .1 1.8.2 1.9.2 2.7 1.4 2.7 2.8 0 1.9-1.6 3.3-4 3.3-2.3 0-4-1.4-4-3.3h2.7c-.1.5.4.8 1.2.8zM411.9 17.3L407 30.9h-2.9l1.5-4.2-3.4-9.4h3l1.8 5.2 1.9-5.2h3zM417.4 17.1c2.9 0 5 2.2 5 5 0 2.7-2.1 5-5 5s-5-2.2-5-5 2.1-5 5-5zm0 7.2c1.3 0 2.2-1 2.2-2.2 0-1.3-.9-2.3-2.2-2.3-1.3 0-2.2 1-2.2 2.3 0 1.2.9 2.2 2.2 2.2zM433 17.3v9.6h-2.8v-.5c-.6.5-1.4.7-2.3.7-2.1 0-3.7-1.6-3.7-3.8v-6h2.8v5.4c0 .9.6 1.6 1.6 1.6s1.6-.7 1.6-1.6v-5.4h2.8z"/></g><g fill="#193062"><path d="M193.6 36.4h2.8v14.5h-2.8V36.4zM203.2 41.1c2.9 0 5 2.2 5 5 0 2.7-2.1 5-5 5s-5-2.2-5-5 2.2-5 5-5zm0 7.2c1.3 0 2.2-1 2.2-2.2 0-1.3-.9-2.3-2.2-2.3-1.3 0-2.2 1-2.2 2.3 0 1.2 1 2.2 2.2 2.2zM218.5 41.3l-3.5 9.6h-2.8l-3.5-9.6h3l1.9 5.3 1.8-5.3h3.1zM228.5 47.1h-6.7c.3.8 1.1 1.4 2.2 1.4.9 0 1.6-.5 2-1.1l2.2 1.3c-.8 1.4-2.4 2.4-4.3 2.4-2.9 0-5-2.2-5-5s2-5 4.8-5 4.8 2.1 4.8 5c.1.3.1.7 0 1zm-6.7-2h4.1c-.3-.9-1-1.4-2-1.4-1.1 0-1.9.5-2.1 1.4zM231.9 47.5c1 0 1.7.8 1.7 1.7 0 1-.7 1.7-1.7 1.7s-1.7-.8-1.7-1.7c-.1-.9.7-1.7 1.7-1.7zM248.8 49.1h-4.9l-.6 1.8h-2.9l4.5-13.9h3l4.5 13.9h-3l-.6-1.8zm-.9-2.9l-1.6-4.8-1.6 4.8h3.2zM263.8 46.1c0 2.8-2 5-4.7 5-.9 0-1.7-.3-2.4-.7v4.5h-2.8V41.3h2.8v.6c.6-.5 1.5-.8 2.5-.8 2.7 0 4.6 2.2 4.6 5zm-2.8 0c0-1.3-.9-2.3-2.2-2.3-1.3 0-2.2 1-2.2 2.3 0 1.3.9 2.2 2.2 2.2 1.3 0 2.2-.9 2.2-2.2zM275.6 46.1c0 2.8-2 5-4.7 5-.9 0-1.7-.3-2.4-.7v4.5h-2.8V41.3h2.8v.6c.6-.5 1.5-.8 2.5-.8 2.7 0 4.6 2.2 4.6 5zm-2.8 0c0-1.3-.9-2.3-2.2-2.3-1.3 0-2.2 1-2.2 2.3 0 1.3.9 2.2 2.2 2.2 1.3 0 2.2-.9 2.2-2.2zM277.5 36.4h2.8v14.5h-2.8V36.4zM291.3 41.3l-4.9 13.6h-2.9l1.5-4.2-3.4-9.4h3l1.8 5.2 1.9-5.2h3zM298.5 44h-1.9v-2.7h1.9v-1.9c0-1.8 1.2-3 3.1-3h2.1v2.7h-1.6c-.5 0-.8.3-.8.8v1.5h2.4V44h-2.4v6.9h-2.8V44zM309.5 41.1c2.9 0 5 2.2 5 5 0 2.7-2.1 5-5 5s-5-2.2-5-5c.1-2.8 2.2-5 5-5zm0 7.2c1.3 0 2.2-1 2.2-2.2 0-1.3-.9-2.3-2.2-2.3-1.3 0-2.2 1-2.2 2.3 0 1.2 1 2.2 2.2 2.2zM322.5 41.3v2.8h-1.4c-1.1 0-1.8.8-1.8 1.9v4.9h-2.8v-9.6h2.8v.9c.5-.7 1.4-.9 2.2-.9h1zM329.8 37h3v11h7.9v2.9h-10.9V37zM343.9 36.6c1 0 1.7.8 1.7 1.7 0 1-.7 1.7-1.7 1.7s-1.7-.8-1.7-1.7c-.1-1 .7-1.7 1.7-1.7zm1.4 14.3h-2.8v-9.6h2.8v9.6zM348.7 44h-1.9v-2.7h1.9v-1.9c0-1.8 1.2-3 3.1-3h2.1v2.7h-1.6c-.5 0-.8.3-.8.8v1.5h2.4V44h-2.4v6.9h-2.8V44zM364.3 47.1h-6.7c.3.8 1.1 1.4 2.2 1.4.9 0 1.6-.5 2-1.1l2.2 1.3c-.8 1.4-2.4 2.4-4.3 2.4-2.9 0-5-2.2-5-5s2-5 4.8-5 4.8 2.1 4.8 5c.1.3.1.7 0 1zm-6.7-2h4.1c-.3-.9-1-1.4-2-1.4-1.1 0-1.9.5-2.1 1.4zM372 37h3v13.9h-3V37zM386.5 44.9v6h-2.8v-5.4c0-.9-.6-1.6-1.6-1.6s-1.6.7-1.6 1.6v5.4h-2.8v-9.6h2.8v.6c.6-.5 1.4-.8 2.3-.8 2.1 0 3.7 1.6 3.7 3.8zM392.4 48.6c.8 0 1.2-.3 1.2-.7 0-.3-.2-.5-.7-.5-.5-.1-1-.1-1.7-.2-1.9-.3-2.7-1.4-2.7-2.8 0-1.9 1.6-3.2 3.9-3.2s3.9 1.3 3.9 3.2h-2.7c0-.4-.5-.7-1.2-.7s-1.1.3-1.1.6.2.4.7.5c.6.1 1 .1 1.8.2 1.9.2 2.7 1.4 2.7 2.8 0 1.9-1.6 3.3-4 3.3-2.3 0-4-1.4-4-3.3h2.7c-.1.5.4.8 1.2.8zM406.9 41.3v9.6h-2.8v-.5c-.6.5-1.4.7-2.3.7-2.1 0-3.7-1.6-3.7-3.8v-6h2.8v5.4c0 .9.6 1.6 1.6 1.6s1.6-.7 1.6-1.6v-5.4h2.8zM415.5 41.3v2.8h-1.4c-1.1 0-1.8.8-1.8 1.9v4.9h-2.8v-9.6h2.8v.9c.5-.7 1.4-.9 2.2-.9h1zM424.8 44.9v6H422v-.5c-.6.5-1.3.7-2.3.7-2 0-3.3-1.2-3.3-3 0-2 1.5-2.8 3.3-3l2.3-.2v-.1c0-.6-.6-1.1-1.4-1.1-.7 0-1.3.4-1.4.9h-2.7c.1-2 1.8-3.5 4.1-3.5 2.5 0 4.2 1.6 4.2 3.8zm-2.8 2.6v-.6l-1.9.2c-.7.1-1 .4-1 .9s.4.9 1.2.9c1.1-.1 1.7-.6 1.7-1.4zM436.1 44.9v6h-2.8v-5.4c0-.9-.6-1.6-1.6-1.6s-1.6.7-1.6 1.6v5.4h-2.8v-9.6h2.8v.6c.6-.5 1.4-.8 2.3-.8 2.1 0 3.7 1.6 3.7 3.8zM442.8 41.1c1.8 0 3.3.9 4.2 2.2l-2.3 1.6c-.4-.6-1-1.1-1.9-1.1-1.3 0-2.2 1-2.2 2.3 0 1.3.9 2.2 2.2 2.2.8 0 1.5-.4 1.9-1.1l2.3 1.6c-.8 1.4-2.3 2.2-4.2 2.2-2.9 0-5-2.2-5-5s2.2-4.9 5-4.9zM457.3 47.1h-6.7c.3.8 1.1 1.4 2.2 1.4.9 0 1.6-.5 2-1.1l2.2 1.3c-.8 1.4-2.4 2.4-4.3 2.4-2.9 0-5-2.2-5-5s2-5 4.8-5 4.8 2.1 4.8 5c.2.3.1.7 0 1zm-6.7-2h4.1c-.3-.9-1-1.4-2-1.4-1.1 0-1.8.5-2.1 1.4z"/></g><g fill="#193062"><path d="M195 60.6c1 0 1.7.8 1.7 1.7 0 1-.7 1.7-1.7 1.7s-1.7-.8-1.7-1.7c-.1-1 .7-1.7 1.7-1.7zm1.4 14.3h-2.8v-9.6h2.8v9.6zM207.7 68.9v6h-2.8v-5.4c0-.9-.6-1.6-1.6-1.6s-1.6.7-1.6 1.6v5.4h-2.8v-9.6h2.8v.6c.6-.5 1.4-.8 2.3-.8 2.2 0 3.7 1.6 3.7 3.8zM229.7 68.6v6.2h-2.8v-5.6c0-.8-.5-1.4-1.4-1.4-.8 0-1.4.6-1.4 1.4v5.6h-2.8v-5.6c0-.8-.5-1.4-1.4-1.4-.8 0-1.4.6-1.4 1.4v5.6h-2.8v-9.6h2.8v.5c.6-.4 1.3-.7 2.1-.7 1 0 1.9.4 2.5 1 .7-.6 1.6-1 2.7-1 2.2.1 3.9 1.6 3.9 3.6zM233.5 60.6c1 0 1.7.8 1.7 1.7 0 1-.7 1.7-1.7 1.7s-1.7-.8-1.7-1.7c0-1 .7-1.7 1.7-1.7zm1.4 14.3h-2.8v-9.6h2.8v9.6zM246.3 68.9v6h-2.8v-5.4c0-.9-.6-1.6-1.6-1.6s-1.6.7-1.6 1.6v5.4h-2.8v-9.6h2.8v.6c.6-.5 1.4-.8 2.3-.8 2.1 0 3.7 1.6 3.7 3.8zM257.5 65.3v9.6h-2.8v-.5c-.6.5-1.4.7-2.3.7-2.1 0-3.7-1.6-3.7-3.8v-6h2.8v5.4c0 .9.6 1.6 1.6 1.6s1.6-.7 1.6-1.6v-5.4h2.8zM263.2 65.3h2.9V68h-2.9v3.2c0 .6.4 1 1 1h1.9v2.7h-2.5c-1.9 0-3.3-1.3-3.3-3.2V68H259v-1.4l2.6-3.2h1.5v1.9zM276.8 71.1h-6.7c.3.8 1.1 1.4 2.2 1.4.9 0 1.6-.5 2-1.1l2.2 1.3c-.8 1.4-2.4 2.4-4.3 2.4-2.9 0-5-2.2-5-5s2-5 4.8-5 4.8 2.1 4.8 5c.2.3.1.7 0 1zm-6.7-2h4.1c-.3-.9-1-1.4-2-1.4-1.1 0-1.8.4-2.1 1.4zM282.2 72.6c.8 0 1.2-.3 1.2-.7 0-.3-.2-.5-.7-.5-.5-.1-1-.1-1.7-.2-1.9-.3-2.7-1.4-2.7-2.8 0-1.9 1.6-3.2 3.9-3.2s3.9 1.3 3.9 3.2h-2.7c0-.4-.5-.7-1.2-.7s-1.1.3-1.1.6.2.4.7.5c.6.1 1 .1 1.8.2 1.9.2 2.7 1.4 2.7 2.8 0 1.9-1.6 3.3-4 3.3-2.3 0-4-1.4-4-3.3h2.7c-.1.5.4.8 1.2.8zM289.5 71.5c1 0 1.7.8 1.7 1.7 0 1-.7 1.7-1.7 1.7s-1.7-.8-1.7-1.7c0-.9.7-1.7 1.7-1.7z"/></g></svg>