<?xml version="1.0" encoding="utf-8"?>
<!-- Generator: Adobe Illustrator 27.4.0, SVG Export Plug-In . SVG Version: 6.00 Build 0)  -->
<svg version="1.1" baseProfile="tiny" id="Layer_1" xmlns="http://www.w3.org/2000/svg" xmlns:xlink="http://www.w3.org/1999/xlink"
	 x="0px" y="0px" viewBox="0 0 300 600" overflow="visible" xml:space="preserve">
<g>
	<path fill="#231F20" d="M15.9,511c0,0.6-0.2,1.1-0.4,1.6c-0.3,0.5-0.6,0.9-1.1,1.1c-0.5,0.3-1,0.4-1.6,0.4c-0.6,0-1.2-0.1-1.7-0.4
		c-0.5-0.3-0.9-0.7-1.2-1.2c-0.3-0.5-0.4-1.1-0.4-1.7c0-0.6,0.1-1.2,0.4-1.7c0.3-0.5,0.7-0.9,1.2-1.2c0.5-0.3,1.1-0.4,1.7-0.4
		c0.6,0,1.2,0.1,1.7,0.4c0.5,0.3,0.9,0.7,1.2,1.2l-0.6,0.4c-0.2-0.4-0.5-0.7-0.9-0.9c-0.4-0.2-0.8-0.3-1.3-0.3c-0.5,0-1,0.1-1.4,0.3
		c-0.4,0.2-0.7,0.6-0.9,1c-0.2,0.4-0.3,0.9-0.3,1.4c0,0.5,0.1,1,0.3,1.4s0.5,0.7,0.9,1s0.9,0.3,1.4,0.3c0.4,0,0.8-0.1,1.1-0.2
		c0.3-0.2,0.6-0.4,0.8-0.6c0.2-0.3,0.4-0.6,0.5-1h-2.8V511H15.9z"/>
	<path fill="#231F20" d="M17.1,507.5h4.9v0.7h-4.2v2.3h2.4v0.7h-2.4v2.3h4.2v0.7h-4.9V507.5z"/>
	<path fill="#231F20" d="M28.2,507.5v6.6h-0.7l-3.6-5.4v5.4h-0.7v-6.6h0.7l3.6,5.4v-5.4H28.2z"/>
	<path fill="#231F20" d="M31.5,511.2v0.6h-2.1v-0.6H31.5z"/>
	<path fill="#231F20" d="M36.9,512.1c0,0.4-0.1,0.8-0.3,1.1c-0.2,0.3-0.4,0.6-0.8,0.8c-0.3,0.2-0.7,0.3-1.1,0.3
		c-0.4,0-0.8-0.1-1.1-0.3c-0.3-0.2-0.6-0.4-0.8-0.7s-0.3-0.7-0.3-1.1h0.7c0,0.3,0.1,0.5,0.2,0.7c0.1,0.2,0.3,0.4,0.5,0.5
		c0.2,0.1,0.5,0.2,0.8,0.2c0.3,0,0.5-0.1,0.8-0.2c0.2-0.1,0.4-0.3,0.5-0.5c0.1-0.2,0.2-0.5,0.2-0.7s-0.1-0.5-0.2-0.7
		s-0.3-0.4-0.5-0.5c-0.2-0.1-0.5-0.2-0.8-0.2H33l0.4-3.2h3.3v0.7H34l-0.2,1.8h1.1c0.4,0,0.8,0.1,1.1,0.3c0.3,0.2,0.6,0.4,0.7,0.7
		C36.8,511.3,36.9,511.7,36.9,512.1z"/>
	<path fill="#231F20" d="M42.6,512c0,0.4-0.1,0.8-0.3,1.1s-0.4,0.6-0.8,0.8s-0.7,0.3-1.1,0.3c-0.4,0-0.8-0.1-1.1-0.3
		s-0.6-0.4-0.8-0.8c-0.2-0.3-0.3-0.7-0.3-1.1c0-0.3,0-0.5,0.1-0.8c0.1-0.3,0.2-0.5,0.3-0.7l2-3.1h0.8l-1.7,2.5
		c0.2,0,0.4-0.1,0.6-0.1c0.4,0,0.8,0.1,1.1,0.3c0.3,0.2,0.6,0.4,0.8,0.7C42.5,511.3,42.6,511.6,42.6,512z M41.9,512
		c0-0.3-0.1-0.5-0.2-0.8c-0.1-0.2-0.3-0.4-0.5-0.5c-0.2-0.1-0.5-0.2-0.8-0.2c-0.3,0-0.5,0.1-0.8,0.2c-0.2,0.1-0.4,0.3-0.5,0.5
		c-0.1,0.2-0.2,0.5-0.2,0.8c0,0.3,0.1,0.5,0.2,0.8c0.1,0.2,0.3,0.4,0.5,0.5c0.2,0.1,0.5,0.2,0.8,0.2s0.5-0.1,0.8-0.2
		c0.2-0.1,0.4-0.3,0.5-0.5C41.8,512.6,41.9,512.3,41.9,512z"/>
	<path fill="#231F20" d="M45.1,508.2l-1.8,1.1v-0.7l1.8-1.1h0.7v6.6h-0.7V508.2z"/>
	<path fill="#231F20" d="M52.3,511.4v0.7H51v2.1h-0.7V512h-3v-0.6l2.9-4H51v3.8H52.3z M50.3,511.4v-2.9l-2.1,2.9H50.3z"/>
	<path fill="#231F20" d="M57.2,513.4v0.7h-4v-0.6l2.6-2.8c0.2-0.2,0.4-0.4,0.5-0.6c0.1-0.2,0.2-0.4,0.2-0.7c0-0.2-0.1-0.5-0.2-0.7
		c-0.1-0.2-0.3-0.3-0.5-0.5c-0.2-0.1-0.4-0.2-0.7-0.2c-0.2,0-0.5,0.1-0.7,0.2c-0.2,0.1-0.3,0.3-0.5,0.4c-0.1,0.2-0.2,0.4-0.2,0.7
		h-0.7c0-0.4,0.1-0.7,0.3-1c0.2-0.3,0.4-0.5,0.7-0.7c0.3-0.2,0.6-0.3,1-0.3c0.4,0,0.7,0.1,1,0.2c0.3,0.2,0.5,0.4,0.7,0.7
		c0.2,0.3,0.2,0.6,0.2,1c0,0.3-0.1,0.6-0.2,0.9s-0.4,0.6-0.6,0.9l-2.2,2.3H57.2z"/>
	<path fill="#231F20" d="M62.8,509.5c0,0.3,0,0.5-0.1,0.8c-0.1,0.3-0.2,0.5-0.3,0.7l-2,3.1h-0.8l1.7-2.5c-0.2,0-0.4,0.1-0.6,0.1
		c-0.4,0-0.8-0.1-1.1-0.3c-0.3-0.2-0.6-0.4-0.8-0.7c-0.2-0.3-0.3-0.7-0.3-1.1c0-0.4,0.1-0.8,0.3-1.1c0.2-0.3,0.4-0.6,0.8-0.8
		c0.3-0.2,0.7-0.3,1.1-0.3c0.4,0,0.8,0.1,1.1,0.3c0.3,0.2,0.6,0.4,0.8,0.8C62.7,508.8,62.8,509.1,62.8,509.5z M60.6,511
		c0.3,0,0.5-0.1,0.8-0.2c0.2-0.1,0.4-0.3,0.5-0.5c0.1-0.2,0.2-0.5,0.2-0.8c0-0.3-0.1-0.5-0.2-0.8c-0.1-0.2-0.3-0.4-0.5-0.5
		c-0.2-0.1-0.5-0.2-0.8-0.2s-0.5,0.1-0.8,0.2c-0.2,0.1-0.4,0.3-0.5,0.5c-0.1,0.2-0.2,0.5-0.2,0.8c0,0.3,0.1,0.5,0.2,0.8
		c0.1,0.2,0.3,0.4,0.5,0.5C60,510.9,60.3,511,60.6,511z"/>
	<path fill="#231F20" d="M63.8,507.5H68v0.6l-2.6,5.9h-0.7l2.6-5.9h-3.4V507.5z"/>
	<path fill="#231F20" d="M69.7,513.1c0.2,0,0.3,0,0.4,0.1s0.1,0.2,0.1,0.4s0,0.3-0.1,0.4c-0.1,0.1-0.2,0.1-0.4,0.1s-0.3,0-0.4-0.1
		c-0.1-0.1-0.1-0.2-0.1-0.4s0-0.3,0.1-0.4C69.4,513.2,69.5,513.1,69.7,513.1z"/>
	<path fill="#231F20" d="M73,508.2l-1.8,1.1v-0.7l1.8-1.1h0.7v6.6H73V508.2z"/>
</g>
</svg>
