<?xml version="1.0" encoding="utf-8"?>
<!-- Generator: Adobe Illustrator 27.4.0, SVG Export Plug-In . SVG Version: 6.00 Build 0)  -->
<svg version="1.1" baseProfile="tiny" id="Layer_1" xmlns="http://www.w3.org/2000/svg" xmlns:xlink="http://www.w3.org/1999/xlink"
	 x="0px" y="0px" viewBox="0 0 300 600" overflow="visible" xml:space="preserve">
<g>
	<path fill="#454547" d="M25.9,367.6h7.6v1.5h-5.8v4.7h5.4v1.5h-5.4v6.4h-1.8V367.6z"/>
	<path fill="#454547" d="M37.6,368.8c0,0.6-0.4,1.1-1.2,1.1c-0.7,0-1.1-0.5-1.1-1.1c0-0.7,0.5-1.2,1.2-1.2
		C37.2,367.6,37.6,368.1,37.6,368.8z M35.6,381.8v-10.2h1.8v10.2H35.6z"/>
	<path fill="#454547" d="M40.5,374.4c0-1,0-1.9-0.1-2.8H42l0.1,1.7h0c0.5-1,1.7-1.9,3.4-1.9c1.4,0,3.6,0.8,3.6,4.3v6.1h-1.8v-5.9
		c0-1.6-0.6-3-2.4-3c-1.2,0-2.2,0.9-2.5,1.9c-0.1,0.2-0.1,0.5-0.1,0.9v6.1h-1.8V374.4z"/>
	<path fill="#454547" d="M54.2,368.8c0,0.6-0.4,1.1-1.2,1.1c-0.7,0-1.1-0.5-1.1-1.1c0-0.7,0.5-1.2,1.2-1.2
		C53.7,367.6,54.2,368.1,54.2,368.8z M52.1,381.8v-10.2H54v10.2H52.1z"/>
	<path fill="#454547" d="M56.8,379.9c0.5,0.4,1.5,0.7,2.4,0.7c1.3,0,2-0.7,2-1.5c0-0.9-0.5-1.4-1.9-1.9c-1.8-0.7-2.7-1.7-2.7-2.9
		c0-1.6,1.3-3,3.5-3c1,0,1.9,0.3,2.5,0.6l-0.5,1.3c-0.4-0.3-1.1-0.6-2.1-0.6c-1.1,0-1.7,0.6-1.7,1.4c0,0.8,0.6,1.2,1.9,1.7
		c1.8,0.7,2.7,1.6,2.7,3.1c0,1.8-1.4,3-3.8,3c-1.1,0-2.1-0.3-2.9-0.7L56.8,379.9z"/>
	<path fill="#454547" d="M65.4,366.9h1.8v6.3h0c0.3-0.5,0.8-1,1.3-1.3c0.5-0.3,1.2-0.5,1.9-0.5c1.4,0,3.5,0.8,3.5,4.3v6h-1.8v-5.8
		c0-1.6-0.6-3-2.4-3c-1.2,0-2.1,0.8-2.5,1.8c-0.1,0.3-0.1,0.5-0.1,0.9v6.1h-1.8V366.9z"/>
	<path fill="#454547" d="M82.1,371.6l2.2,6c0.2,0.7,0.5,1.5,0.7,2.1h0c0.2-0.6,0.4-1.4,0.7-2.1l2-6h2l-2.8,7.2
		c-1.3,3.5-2.2,5.3-3.5,6.4c-0.9,0.8-1.8,1.1-2.3,1.2l-0.5-1.6c0.5-0.1,1.1-0.4,1.6-0.9c0.5-0.4,1.1-1.1,1.6-2.1
		c0.1-0.2,0.1-0.3,0.1-0.4c0-0.1,0-0.3-0.1-0.5l-3.8-9.4H82.1z"/>
	<path fill="#454547" d="M100.4,376.6c0,3.8-2.6,5.4-5.1,5.4c-2.8,0-4.9-2-4.9-5.2c0-3.4,2.2-5.4,5-5.4
		C98.4,371.4,100.4,373.5,100.4,376.6z M92.3,376.7c0,2.2,1.3,3.9,3.1,3.9c1.8,0,3.1-1.7,3.1-3.9c0-1.7-0.9-3.9-3-3.9
		S92.3,374.8,92.3,376.7z"/>
	<path fill="#454547" d="M111.2,379c0,1,0,2,0.1,2.8h-1.6l-0.1-1.7h0c-0.5,0.8-1.6,1.9-3.4,1.9c-1.6,0-3.5-0.9-3.5-4.5v-5.9h1.8v5.6
		c0,1.9,0.6,3.2,2.3,3.2c1.2,0,2.1-0.9,2.4-1.7c0.1-0.3,0.2-0.6,0.2-0.9v-6.2h1.8V379z"/>
	<path fill="#454547" d="M114.3,374.8c0-1.2,0-2.2-0.1-3.2h1.6l0.1,2h0.1c0.5-1.4,1.6-2.2,2.8-2.2c0.2,0,0.4,0,0.5,0.1v1.7
		c-0.2,0-0.4-0.1-0.6-0.1c-1.3,0-2.2,1-2.5,2.4c0,0.3-0.1,0.5-0.1,0.9v5.4h-1.8V374.8z"/>
	<path fill="#454547" d="M125.6,374.4c0-1,0-1.9-0.1-2.8h1.6l0.1,1.7h0c0.5-1,1.7-1.9,3.4-1.9c1.4,0,3.6,0.8,3.6,4.3v6.1h-1.8v-5.9
		c0-1.6-0.6-3-2.4-3c-1.2,0-2.2,0.9-2.5,1.9c-0.1,0.2-0.1,0.5-0.1,0.9v6.1h-1.8V374.4z"/>
	<path fill="#454547" d="M146.4,376.6c0,3.8-2.6,5.4-5.1,5.4c-2.8,0-4.9-2-4.9-5.2c0-3.4,2.2-5.4,5-5.4
		C144.5,371.4,146.4,373.5,146.4,376.6z M138.4,376.7c0,2.2,1.3,3.9,3.1,3.9c1.8,0,3.1-1.7,3.1-3.9c0-1.7-0.9-3.9-3-3.9
		S138.4,374.8,138.4,376.7z"/>
	<path fill="#454547" d="M153.3,375.4v1.4h-5.2v-1.4H153.3z"/>
	<path fill="#454547" d="M163.1,381.4c-0.5,0.3-1.6,0.6-2.9,0.6c-3.1,0-5.1-2.1-5.1-5.2c0-3.1,2.1-5.4,5.5-5.4
		c1.1,0,2.1,0.3,2.6,0.5l-0.4,1.4c-0.4-0.3-1.1-0.5-2.1-0.5c-2.3,0-3.6,1.7-3.6,3.8c0,2.4,1.5,3.8,3.5,3.8c1,0,1.7-0.3,2.3-0.5
		L163.1,381.4z"/>
	<path fill="#454547" d="M174.4,376.6c0,3.8-2.6,5.4-5.1,5.4c-2.8,0-4.9-2-4.9-5.2c0-3.4,2.2-5.4,5-5.4
		C172.4,371.4,174.4,373.5,174.4,376.6z M166.3,376.7c0,2.2,1.3,3.9,3.1,3.9c1.8,0,3.1-1.7,3.1-3.9c0-1.7-0.9-3.9-3-3.9
		S166.3,374.8,166.3,376.7z"/>
	<path fill="#454547" d="M176.4,379.9c0.5,0.4,1.5,0.7,2.4,0.7c1.3,0,2-0.7,2-1.5c0-0.9-0.5-1.4-1.9-1.9c-1.8-0.7-2.7-1.7-2.7-2.9
		c0-1.6,1.3-3,3.5-3c1,0,1.9,0.3,2.5,0.6l-0.5,1.3c-0.4-0.3-1.1-0.6-2.1-0.6c-1.1,0-1.7,0.6-1.7,1.4c0,0.8,0.6,1.2,1.9,1.7
		c1.8,0.7,2.7,1.6,2.7,3.1c0,1.8-1.4,3-3.8,3c-1.1,0-2.1-0.3-2.9-0.7L176.4,379.9z"/>
	<path fill="#454547" d="M187.2,368.7v2.9h2.6v1.4h-2.6v5.5c0,1.3,0.4,2,1.4,2c0.5,0,0.8-0.1,1.1-0.1l0.1,1.4
		c-0.4,0.1-0.9,0.3-1.6,0.3c-0.9,0-1.6-0.3-2-0.8c-0.5-0.5-0.7-1.4-0.7-2.6V373h-1.6v-1.4h1.6v-2.4L187.2,368.7z"/>
</g>
<g>
	<path fill="#454547" d="M25.9,392.6h1.8v12.6h6v1.5h-7.9V392.6z"/>
	<path fill="#454547" d="M37.8,393.7c0,0.6-0.4,1.1-1.2,1.1c-0.7,0-1.1-0.5-1.1-1.1c0-0.7,0.5-1.2,1.2-1.2
		C37.4,392.6,37.8,393.1,37.8,393.7z M35.8,406.8v-10.2h1.8v10.2H35.8z"/>
	<path fill="#454547" d="M40.9,406.8V398h-1.4v-1.4h1.4v-0.5c0-1.4,0.3-2.7,1.2-3.5c0.7-0.7,1.6-0.9,2.5-0.9c0.7,0,1.2,0.1,1.6,0.3
		l-0.3,1.4c-0.3-0.1-0.7-0.2-1.2-0.2c-1.6,0-2,1.4-2,2.9v0.5h2.5v1.4h-2.5v8.8H40.9z"/>
	<path fill="#454547" d="M47.6,402c0,2.5,1.6,3.5,3.5,3.5c1.3,0,2.1-0.2,2.8-0.5l0.3,1.3c-0.7,0.3-1.8,0.6-3.4,0.6
		c-3.1,0-5-2.1-5-5.1s1.8-5.5,4.8-5.5c3.3,0,4.2,2.9,4.2,4.8c0,0.4,0,0.7-0.1,0.9H47.6z M53,400.7c0-1.2-0.5-3-2.6-3
		c-1.9,0-2.7,1.7-2.8,3H53z"/>
	<path fill="#454547" d="M63.4,392.6v14.2h-1.8v-14.2H63.4z"/>
	<path fill="#454547" d="M66.8,399.3c0-1,0-1.9-0.1-2.8h1.6l0.1,1.7h0c0.5-1,1.7-1.9,3.4-1.9c1.4,0,3.6,0.8,3.6,4.3v6.1h-1.8v-5.9
		c0-1.6-0.6-3-2.4-3c-1.2,0-2.2,0.9-2.5,1.9c-0.1,0.2-0.1,0.5-0.1,0.9v6.1h-1.8V399.3z"/>
	<path fill="#454547" d="M78.2,404.9c0.5,0.4,1.5,0.7,2.4,0.7c1.3,0,2-0.7,2-1.5c0-0.9-0.5-1.4-1.9-1.9c-1.8-0.7-2.7-1.7-2.7-2.9
		c0-1.6,1.3-3,3.5-3c1,0,1.9,0.3,2.5,0.6l-0.5,1.3c-0.4-0.3-1.1-0.6-2.1-0.6c-1.1,0-1.7,0.6-1.7,1.4c0,0.8,0.6,1.2,1.9,1.7
		c1.8,0.7,2.7,1.6,2.7,3.1c0,1.8-1.4,3-3.8,3c-1.1,0-2.1-0.3-2.9-0.7L78.2,404.9z"/>
	<path fill="#454547" d="M95.2,404c0,1,0,2,0.1,2.8h-1.6l-0.1-1.7h0c-0.5,0.8-1.6,1.9-3.4,1.9c-1.6,0-3.5-0.9-3.5-4.5v-5.9h1.8v5.6
		c0,1.9,0.6,3.2,2.3,3.2c1.2,0,2.1-0.9,2.4-1.7c0.1-0.3,0.2-0.6,0.2-0.9v-6.2h1.8V404z"/>
	<path fill="#454547" d="M98.3,399.8c0-1.2,0-2.2-0.1-3.2h1.6l0.1,2h0.1c0.5-1.4,1.6-2.2,2.8-2.2c0.2,0,0.4,0,0.5,0.1v1.7
		c-0.2,0-0.4-0.1-0.6-0.1c-1.3,0-2.2,1-2.5,2.4c0,0.3-0.1,0.5-0.1,0.9v5.4h-1.8V399.8z"/>
	<path fill="#454547" d="M110.7,406.8l-0.1-1.3h-0.1c-0.6,0.8-1.7,1.5-3.1,1.5c-2.1,0-3.1-1.4-3.1-2.9c0-2.5,2.2-3.8,6.1-3.8v-0.2
		c0-0.8-0.2-2.4-2.3-2.4c-0.9,0-1.9,0.3-2.6,0.8l-0.4-1.2c0.8-0.5,2.1-0.9,3.3-0.9c3.1,0,3.9,2.1,3.9,4.2v3.8c0,0.9,0,1.7,0.2,2.4
		H110.7z M110.4,401.6c-2,0-4.3,0.3-4.3,2.3c0,1.2,0.8,1.8,1.7,1.8c1.3,0,2.2-0.8,2.5-1.7c0.1-0.2,0.1-0.4,0.1-0.6V401.6z"/>
	<path fill="#454547" d="M115.2,399.3c0-1,0-1.9-0.1-2.8h1.6l0.1,1.7h0c0.5-1,1.7-1.9,3.4-1.9c1.4,0,3.6,0.8,3.6,4.3v6.1H122v-5.9
		c0-1.6-0.6-3-2.4-3c-1.2,0-2.2,0.9-2.5,1.9c-0.1,0.2-0.1,0.5-0.1,0.9v6.1h-1.8V399.3z"/>
	<path fill="#454547" d="M134.1,406.4c-0.5,0.3-1.6,0.6-2.9,0.6c-3.1,0-5.1-2.1-5.1-5.2c0-3.1,2.1-5.4,5.5-5.4
		c1.1,0,2.1,0.3,2.6,0.5l-0.4,1.4c-0.4-0.3-1.1-0.5-2.1-0.5c-2.3,0-3.6,1.7-3.6,3.8c0,2.4,1.5,3.8,3.5,3.8c1,0,1.7-0.3,2.3-0.5
		L134.1,406.4z"/>
	<path fill="#454547" d="M137.2,402c0,2.5,1.6,3.5,3.5,3.5c1.3,0,2.1-0.2,2.8-0.5l0.3,1.3c-0.7,0.3-1.8,0.6-3.4,0.6
		c-3.1,0-5-2.1-5-5.1s1.8-5.5,4.8-5.5c3.3,0,4.2,2.9,4.2,4.8c0,0.4,0,0.7-0.1,0.9H137.2z M142.6,400.7c0-1.2-0.5-3-2.6-3
		c-1.9,0-2.7,1.7-2.8,3H142.6z"/>
	<path fill="#454547" d="M158,405.2L158,405.2c-0.6,1-1.7,1.8-3.4,1.8c-2.4,0-4.3-2.1-4.3-5.1c0-3.8,2.5-5.5,4.6-5.5
		c1.6,0,2.6,0.8,3.1,1.8h0l0.1-1.5h1.7c0,0.9-0.1,1.7-0.1,2.8v11.5H158V405.2z M158,400.7c0-0.3,0-0.5-0.1-0.8
		c-0.3-1.1-1.3-2.1-2.6-2.1c-1.9,0-3.1,1.6-3.1,3.9c0,2,1,3.8,3,3.8c1.2,0,2.2-0.7,2.6-2c0.1-0.3,0.1-0.6,0.1-0.9V400.7z"/>
	<path fill="#454547" d="M171.4,404c0,1,0,2,0.1,2.8h-1.6l-0.1-1.7h0c-0.5,0.8-1.6,1.9-3.4,1.9c-1.6,0-3.5-0.9-3.5-4.5v-5.9h1.8v5.6
		c0,1.9,0.6,3.2,2.3,3.2c1.2,0,2.1-0.9,2.4-1.7c0.1-0.3,0.2-0.6,0.2-0.9v-6.2h1.8V404z"/>
	<path fill="#454547" d="M183.7,401.6c0,3.8-2.6,5.4-5.1,5.4c-2.8,0-4.9-2-4.9-5.2c0-3.4,2.2-5.4,5-5.4
		C181.7,396.4,183.7,398.5,183.7,401.6z M175.6,401.7c0,2.2,1.3,3.9,3.1,3.9c1.8,0,3.1-1.7,3.1-3.9c0-1.7-0.9-3.9-3-3.9
		S175.6,399.8,175.6,401.7z"/>
	<path fill="#454547" d="M188.3,393.7v2.9h2.6v1.4h-2.6v5.5c0,1.3,0.4,2,1.4,2c0.5,0,0.8-0.1,1.1-0.1l0.1,1.4
		c-0.4,0.1-0.9,0.3-1.6,0.3c-0.9,0-1.6-0.3-2-0.8c-0.5-0.5-0.7-1.4-0.7-2.6V398h-1.6v-1.4h1.6v-2.4L188.3,393.7z"/>
	<path fill="#454547" d="M193.9,402c0,2.5,1.6,3.5,3.5,3.5c1.3,0,2.1-0.2,2.8-0.5l0.3,1.3c-0.7,0.3-1.8,0.6-3.4,0.6
		c-3.1,0-5-2.1-5-5.1s1.8-5.5,4.8-5.5c3.3,0,4.2,2.9,4.2,4.8c0,0.4,0,0.7-0.1,0.9H193.9z M199.3,400.7c0-1.2-0.5-3-2.6-3
		c-1.9,0-2.7,1.7-2.8,3H199.3z"/>
	<path fill="#454547" d="M202.7,405.7c0-0.8,0.5-1.3,1.3-1.3s1.2,0.5,1.2,1.3c0,0.8-0.5,1.3-1.3,1.3
		C203.2,407,202.7,406.4,202.7,405.7z"/>
</g>
</svg>
