<?xml version="1.0" encoding="utf-8"?>
<!-- Generator: Adobe Illustrator 27.4.0, SVG Export Plug-In . SVG Version: 6.00 Build 0)  -->
<svg version="1.1" baseProfile="tiny" id="Layer_1" xmlns="http://www.w3.org/2000/svg" xmlns:xlink="http://www.w3.org/1999/xlink"
	 x="0px" y="0px" viewBox="0 0 300 600" overflow="visible" xml:space="preserve">
<g>
	<path fill="#454547" d="M28.8,369.2h-4.3v-1.6h10.5v1.6h-4.3v12.6h-1.8V369.2z"/>
	<path fill="#454547" d="M35.5,374.8c0-1.2,0-2.2-0.1-3.2h1.6l0.1,2h0.1c0.5-1.4,1.6-2.2,2.8-2.2c0.2,0,0.4,0,0.5,0.1v1.7
		c-0.2,0-0.4-0.1-0.6-0.1c-1.3,0-2.2,1-2.5,2.4c0,0.3-0.1,0.5-0.1,0.9v5.4h-1.8V374.8z"/>
	<path fill="#454547" d="M50.9,379c0,1,0,2,0.1,2.8h-1.6l-0.1-1.7h0c-0.5,0.8-1.6,1.9-3.4,1.9c-1.6,0-3.5-0.9-3.5-4.5v-5.9h1.8v5.6
		c0,1.9,0.6,3.2,2.3,3.2c1.2,0,2.1-0.9,2.4-1.7c0.1-0.3,0.2-0.6,0.2-0.9v-6.2h1.8V379z"/>
	<path fill="#454547" d="M53.8,379.5c0.8,0.5,2,0.9,3.3,0.9c1.9,0,3-1,3-2.4c0-1.3-0.8-2.1-2.7-2.8c-2.3-0.8-3.7-2-3.7-4
		c0-2.2,1.8-3.8,4.6-3.8c1.4,0,2.5,0.3,3.1,0.7l-0.5,1.5c-0.5-0.3-1.4-0.7-2.7-0.7c-1.9,0-2.7,1.2-2.7,2.1c0,1.3,0.9,2,2.8,2.7
		c2.4,0.9,3.6,2.1,3.6,4.2c0,2.2-1.6,4.1-5,4.1c-1.4,0-2.9-0.4-3.6-0.9L53.8,379.5z"/>
	<path fill="#454547" d="M66.5,368.7v2.9h2.6v1.4h-2.6v5.5c0,1.3,0.4,2,1.4,2c0.5,0,0.8-0.1,1.1-0.1l0.1,1.4
		c-0.4,0.1-0.9,0.3-1.6,0.3c-0.9,0-1.6-0.3-2-0.8c-0.5-0.5-0.7-1.4-0.7-2.6V373h-1.6v-1.4h1.6v-2.4L66.5,368.7z"/>
	<path fill="#454547" d="M76.9,381.8l-0.1-1.3h-0.1c-0.6,0.8-1.7,1.5-3.1,1.5c-2.1,0-3.1-1.4-3.1-2.9c0-2.5,2.2-3.8,6.1-3.8v-0.2
		c0-0.8-0.2-2.4-2.3-2.4c-0.9,0-1.9,0.3-2.6,0.8l-0.4-1.2c0.8-0.5,2.1-0.9,3.3-0.9c3.1,0,3.9,2.1,3.9,4.2v3.8c0,0.9,0,1.7,0.2,2.4
		H76.9z M76.6,376.6c-2,0-4.3,0.3-4.3,2.3c0,1.2,0.8,1.8,1.7,1.8c1.3,0,2.2-0.8,2.5-1.7c0.1-0.2,0.1-0.4,0.1-0.6V376.6z"/>
	<path fill="#454547" d="M90.1,371.6c0,0.7-0.1,1.6-0.1,2.8v5.9c0,2.3-0.5,3.8-1.4,4.6c-1,0.9-2.4,1.2-3.7,1.2
		c-1.2,0-2.6-0.3-3.4-0.8l0.5-1.4c0.7,0.4,1.7,0.8,3,0.8c1.9,0,3.3-1,3.3-3.5V380h0c-0.6,0.9-1.7,1.7-3.2,1.7c-2.5,0-4.3-2.1-4.3-5
		c0-3.4,2.2-5.4,4.6-5.4c1.8,0,2.7,0.9,3.2,1.8h0l0.1-1.5H90.1z M88.2,375.6c0-0.3,0-0.6-0.1-0.8c-0.3-1.1-1.2-2-2.6-2
		c-1.8,0-3,1.5-3,3.8c0,2,1,3.7,3,3.7c1.1,0,2.2-0.7,2.6-1.9c0.1-0.3,0.1-0.7,0.1-1V375.6z"/>
	<path fill="#454547" d="M94.1,377c0,2.5,1.6,3.5,3.5,3.5c1.3,0,2.1-0.2,2.8-0.5l0.3,1.3c-0.7,0.3-1.8,0.6-3.4,0.6
		c-3.1,0-5-2.1-5-5.1s1.8-5.5,4.8-5.5c3.3,0,4.2,2.9,4.2,4.8c0,0.4,0,0.7-0.1,0.9H94.1z M99.5,375.7c0-1.2-0.5-3-2.6-3
		c-1.9,0-2.7,1.7-2.8,3H99.5z"/>
	<path fill="#454547" d="M107.5,367.6v0.9h-1.8v4.8h-1.1v-4.8h-1.8v-0.9H107.5z M113.7,373.3l-0.2-3.4c0-0.4,0-1,0-1.6h-0.1
		c-0.1,0.5-0.3,1.2-0.5,1.7l-1,3.2h-1.2l-1-3.3c-0.1-0.4-0.3-1.1-0.4-1.6h-0.1c0,0.5,0,1.1,0,1.6l-0.2,3.4h-1.1l0.4-5.7h1.7l1,2.8
		c0.1,0.4,0.2,0.9,0.4,1.4h0c0.1-0.5,0.3-1,0.4-1.4l1-2.8h1.6l0.4,5.7H113.7z"/>
	<path fill="#454547" d="M123.1,368.7c0,0.6-0.4,1.1-1.2,1.1c-0.7,0-1.1-0.5-1.1-1.1c0-0.7,0.5-1.2,1.2-1.2
		C122.7,367.6,123.1,368.1,123.1,368.7z M121.1,381.8v-10.2h1.8v10.2H121.1z"/>
	<path fill="#454547" d="M125.7,379.9c0.5,0.4,1.5,0.7,2.4,0.7c1.3,0,2-0.7,2-1.5c0-0.9-0.5-1.4-1.9-1.9c-1.8-0.7-2.7-1.7-2.7-2.9
		c0-1.6,1.3-3,3.5-3c1,0,1.9,0.3,2.5,0.6l-0.5,1.3c-0.4-0.3-1.1-0.6-2.1-0.6c-1.1,0-1.7,0.6-1.7,1.4c0,0.8,0.6,1.2,1.9,1.7
		c1.8,0.7,2.7,1.6,2.7,3.1c0,1.8-1.4,3-3.8,3c-1.1,0-2.1-0.3-2.9-0.7L125.7,379.9z"/>
	<path fill="#454547" d="M147.5,366.8v12.3c0,0.9,0,1.9,0.1,2.6h-1.7l-0.1-1.8h0c-0.6,1.1-1.8,2-3.5,2c-2.5,0-4.3-2.1-4.3-5.2
		c0-3.4,2.1-5.5,4.6-5.5c1.6,0,2.6,0.7,3.1,1.6h0v-6.1H147.5z M145.7,375.7c0-0.2,0-0.5-0.1-0.8c-0.3-1.2-1.3-2.1-2.7-2.1
		c-1.9,0-3,1.7-3,3.9c0,2.1,1,3.8,3,3.8c1.2,0,2.4-0.8,2.7-2.2c0.1-0.3,0.1-0.5,0.1-0.8V375.7z"/>
	<path fill="#454547" d="M151.6,377c0,2.5,1.6,3.5,3.5,3.5c1.3,0,2.1-0.2,2.8-0.5l0.3,1.3c-0.7,0.3-1.8,0.6-3.4,0.6
		c-3.1,0-5-2.1-5-5.1s1.8-5.5,4.8-5.5c3.3,0,4.2,2.9,4.2,4.8c0,0.4,0,0.7-0.1,0.9H151.6z M157,375.7c0-1.2-0.5-3-2.6-3
		c-1.9,0-2.7,1.7-2.8,3H157z"/>
	<path fill="#454547" d="M160.9,379.9c0.5,0.4,1.5,0.7,2.4,0.7c1.3,0,2-0.7,2-1.5c0-0.9-0.5-1.4-1.9-1.9c-1.8-0.7-2.7-1.7-2.7-2.9
		c0-1.6,1.3-3,3.5-3c1,0,1.9,0.3,2.5,0.6l-0.5,1.3c-0.4-0.3-1.1-0.6-2.1-0.6c-1.1,0-1.7,0.6-1.7,1.4c0,0.8,0.6,1.2,1.9,1.7
		c1.8,0.7,2.7,1.6,2.7,3.1c0,1.8-1.4,3-3.8,3c-1.1,0-2.1-0.3-2.9-0.7L160.9,379.9z"/>
	<path fill="#454547" d="M171.5,368.7c0,0.6-0.4,1.1-1.2,1.1c-0.7,0-1.1-0.5-1.1-1.1c0-0.7,0.5-1.2,1.2-1.2
		C171,367.6,171.5,368.1,171.5,368.7z M169.4,381.8v-10.2h1.8v10.2H169.4z"/>
	<path fill="#454547" d="M183.1,371.6c0,0.7-0.1,1.6-0.1,2.8v5.9c0,2.3-0.5,3.8-1.4,4.6c-1,0.9-2.4,1.2-3.7,1.2
		c-1.2,0-2.6-0.3-3.4-0.8l0.5-1.4c0.7,0.4,1.7,0.8,3,0.8c1.9,0,3.3-1,3.3-3.5V380h0c-0.6,0.9-1.7,1.7-3.2,1.7c-2.5,0-4.3-2.1-4.3-5
		c0-3.4,2.2-5.4,4.6-5.4c1.8,0,2.7,0.9,3.2,1.8h0l0.1-1.5H183.1z M181.2,375.6c0-0.3,0-0.6-0.1-0.8c-0.3-1.1-1.2-2-2.6-2
		c-1.8,0-3,1.5-3,3.8c0,2,1,3.7,3,3.7c1.1,0,2.2-0.7,2.6-1.9c0.1-0.3,0.1-0.7,0.1-1V375.6z"/>
	<path fill="#454547" d="M185.9,374.3c0-1,0-1.9-0.1-2.8h1.6l0.1,1.7h0c0.5-1,1.7-1.9,3.4-1.9c1.4,0,3.6,0.8,3.6,4.3v6.1h-1.8v-5.9
		c0-1.6-0.6-3-2.4-3c-1.2,0-2.2,0.9-2.5,1.9c-0.1,0.2-0.1,0.5-0.1,0.9v6.1h-1.8V374.3z"/>
	<path fill="#454547" d="M198.6,377c0,2.5,1.6,3.5,3.5,3.5c1.3,0,2.1-0.2,2.8-0.5l0.3,1.3c-0.7,0.3-1.8,0.6-3.4,0.6
		c-3.1,0-5-2.1-5-5.1s1.8-5.5,4.8-5.5c3.3,0,4.2,2.9,4.2,4.8c0,0.4,0,0.7-0.1,0.9H198.6z M204,375.7c0-1.2-0.5-3-2.6-3
		c-1.9,0-2.7,1.7-2.8,3H204z"/>
	<path fill="#454547" d="M216.9,366.8v12.3c0,0.9,0,1.9,0.1,2.6h-1.7l-0.1-1.8h0c-0.6,1.1-1.8,2-3.5,2c-2.5,0-4.3-2.1-4.3-5.2
		c0-3.4,2.1-5.5,4.6-5.5c1.6,0,2.6,0.7,3.1,1.6h0v-6.1H216.9z M215.1,375.7c0-0.2,0-0.5-0.1-0.8c-0.3-1.2-1.3-2.1-2.7-2.1
		c-1.9,0-3,1.7-3,3.9c0,2.1,1,3.8,3,3.8c1.2,0,2.4-0.8,2.7-2.2c0.1-0.3,0.1-0.5,0.1-0.8V375.7z"/>
</g>
<g>
	<path fill="#454547" d="M26.7,396.6l1.3,5.2c0.3,1.1,0.6,2.2,0.8,3.2h0.1c0.2-1,0.6-2.1,0.9-3.2l1.7-5.2H33l1.6,5.1
		c0.4,1.2,0.7,2.3,0.9,3.3h0.1c0.2-1,0.4-2.1,0.8-3.3l1.4-5.1h1.8l-3.3,10.2h-1.7l-1.6-4.8c-0.4-1.1-0.7-2.1-0.9-3.3h0
		c-0.3,1.2-0.6,2.3-0.9,3.4l-1.6,4.8h-1.7l-3.1-10.2H26.7z"/>
	<path fill="#454547" d="M43.5,393.7c0,0.6-0.4,1.1-1.2,1.1c-0.7,0-1.1-0.5-1.1-1.1c0-0.7,0.5-1.2,1.2-1.2
		C43.1,392.6,43.5,393.1,43.5,393.7z M41.5,406.7v-10.2h1.8v10.2H41.5z"/>
	<path fill="#454547" d="M48.6,393.7v2.9h2.6v1.4h-2.6v5.5c0,1.3,0.4,2,1.4,2c0.5,0,0.8-0.1,1.1-0.1l0.1,1.4
		c-0.4,0.1-0.9,0.3-1.6,0.3c-0.9,0-1.6-0.3-2-0.8c-0.5-0.5-0.7-1.4-0.7-2.6V398h-1.6v-1.4h1.6v-2.4L48.6,393.7z"/>
	<path fill="#454547" d="M53.3,391.8h1.8v6.3h0c0.3-0.5,0.8-1,1.3-1.3c0.5-0.3,1.2-0.5,1.9-0.5c1.4,0,3.5,0.8,3.5,4.3v6h-1.8v-5.8
		c0-1.6-0.6-3-2.4-3c-1.2,0-2.1,0.8-2.5,1.8c-0.1,0.3-0.1,0.5-0.1,0.9v6.1h-1.8V391.8z"/>
	<path fill="#454547" d="M70.1,396.6l2.2,6c0.2,0.7,0.5,1.5,0.7,2.1h0c0.2-0.6,0.4-1.4,0.7-2.1l2-6h2l-2.8,7.2
		c-1.3,3.5-2.2,5.3-3.5,6.4c-0.9,0.8-1.8,1.1-2.3,1.2l-0.5-1.6c0.5-0.1,1.1-0.4,1.6-0.9c0.5-0.4,1.1-1.1,1.6-2.1
		c0.1-0.2,0.1-0.3,0.1-0.4c0-0.1,0-0.3-0.1-0.5l-3.8-9.4H70.1z"/>
	<path fill="#454547" d="M88.3,401.6c0,3.8-2.6,5.4-5.1,5.4c-2.8,0-4.9-2-4.9-5.2c0-3.4,2.2-5.4,5-5.4
		C86.4,396.3,88.3,398.5,88.3,401.6z M80.3,401.7c0,2.2,1.3,3.9,3.1,3.9c1.8,0,3.1-1.7,3.1-3.9c0-1.7-0.9-3.9-3-3.9
		S80.3,399.7,80.3,401.7z"/>
	<path fill="#454547" d="M99.2,404c0,1,0,2,0.1,2.8h-1.6l-0.1-1.7h0c-0.5,0.8-1.6,1.9-3.4,1.9c-1.6,0-3.5-0.9-3.5-4.5v-5.9h1.8v5.6
		c0,1.9,0.6,3.2,2.3,3.2c1.2,0,2.1-0.9,2.4-1.7c0.1-0.3,0.2-0.6,0.2-0.9v-6.2h1.8V404z"/>
	<path fill="#454547" d="M108.8,393.7c0,0.6-0.4,1.1-1.2,1.1c-0.7,0-1.1-0.5-1.1-1.1c0-0.7,0.5-1.2,1.2-1.2
		C108.3,392.6,108.8,393.1,108.8,393.7z M106.7,406.7v-10.2h1.8v10.2H106.7z"/>
	<path fill="#454547" d="M111.6,399.3c0-1,0-1.9-0.1-2.8h1.6l0.1,1.7h0c0.5-1,1.7-1.9,3.4-1.9c1.4,0,3.6,0.8,3.6,4.3v6.1h-1.8v-5.9
		c0-1.6-0.6-3-2.4-3c-1.2,0-2.2,0.9-2.5,1.9c-0.1,0.2-0.1,0.5-0.1,0.9v6.1h-1.8V399.3z"/>
	<path fill="#454547" d="M127.7,399.3c0-1,0-1.9-0.1-2.8h1.6l0.1,1.6h0.1c0.6-1,1.5-1.9,3.2-1.9c1.4,0,2.4,0.8,2.9,2h0
		c0.3-0.6,0.7-1,1.1-1.3c0.6-0.5,1.3-0.7,2.2-0.7c1.3,0,3.3,0.9,3.3,4.4v6h-1.8V401c0-2-0.7-3.1-2.2-3.1c-1,0-1.9,0.8-2.2,1.7
		c-0.1,0.3-0.1,0.6-0.1,0.9v6.3h-1.8v-6.1c0-1.6-0.7-2.8-2.1-2.8c-1.2,0-2,0.9-2.3,1.8c-0.1,0.3-0.1,0.6-0.1,0.9v6.1h-1.8V399.3z"/>
	<path fill="#454547" d="M147.3,393.7c0,0.6-0.4,1.1-1.2,1.1c-0.7,0-1.1-0.5-1.1-1.1c0-0.7,0.5-1.2,1.2-1.2
		C146.8,392.6,147.3,393.1,147.3,393.7z M145.2,406.7v-10.2h1.8v10.2H145.2z"/>
	<path fill="#454547" d="M150.1,399.3c0-1,0-1.9-0.1-2.8h1.6l0.1,1.7h0c0.5-1,1.7-1.9,3.4-1.9c1.4,0,3.6,0.8,3.6,4.3v6.1h-1.8v-5.9
		c0-1.6-0.6-3-2.4-3c-1.2,0-2.2,0.9-2.5,1.9c-0.1,0.2-0.1,0.5-0.1,0.9v6.1h-1.8V399.3z"/>
	<path fill="#454547" d="M170.6,391.8v12.3c0,0.9,0,1.9,0.1,2.6H169l-0.1-1.8h0c-0.6,1.1-1.8,2-3.5,2c-2.5,0-4.3-2.1-4.3-5.2
		c0-3.4,2.1-5.5,4.6-5.5c1.6,0,2.6,0.7,3.1,1.6h0v-6.1H170.6z M168.7,400.7c0-0.2,0-0.5-0.1-0.8c-0.3-1.2-1.3-2.1-2.7-2.1
		c-1.9,0-3,1.7-3,3.9c0,2.1,1,3.8,3,3.8c1.2,0,2.4-0.8,2.7-2.2c0.1-0.3,0.1-0.5,0.1-0.8V400.7z"/>
	<path fill="#454547" d="M173,405.6c0-0.8,0.5-1.3,1.3-1.3s1.2,0.5,1.2,1.3c0,0.8-0.5,1.3-1.3,1.3C173.5,407,173,406.4,173,405.6z"
		/>
</g>
</svg>
