<svg baseProfile="tiny" xmlns="http://www.w3.org/2000/svg" viewBox="0 0 300 600" overflow="visible"><g fill="#193062"><path d="M30.4 309.7h4.2v7.8h7.6v-7.8h4.2v19.9h-4.2v-7.9h-7.6v7.9h-4.2v-19.9zM63.1 324.2h-9.5c.5 1.2 1.6 2 3.1 2 1.3 0 2.3-.7 2.9-1.6l3.2 1.9c-1.2 2.1-3.4 3.4-6.1 3.4-4.1 0-7.1-3.1-7.1-7.1 0-4.1 2.9-7.2 6.9-7.2 4.1 0 6.9 3 6.9 7.1l-.3 1.5zm-9.6-2.9h5.8c-.4-1.3-1.5-2-2.9-2-1.5-.1-2.6.7-2.9 2zM65.9 308.9h4v20.7h-4v-20.7zM87.8 322.8c0 4-2.8 7.1-6.8 7.1-1.3 0-2.5-.4-3.4-1v6.5h-4v-19.5h3.9v.8c.9-.7 2.1-1.1 3.5-1.1 4 0 6.8 3.1 6.8 7.2zm-4.1 0c0-1.8-1.3-3.3-3.1-3.3-1.9 0-3.2 1.4-3.2 3.3 0 1.8 1.3 3.2 3.2 3.2 1.8 0 3.1-1.4 3.1-3.2zM92.4 309.1c1.4 0 2.5 1.1 2.5 2.5s-1.1 2.5-2.5 2.5-2.5-1.1-2.5-2.5 1.1-2.5 2.5-2.5zm2.1 20.5h-4v-13.7h4v13.7zM110.7 321v8.6h-4v-7.8c0-1.3-.9-2.3-2.3-2.3s-2.3 1-2.3 2.3v7.8h-4v-13.7h3.9v.8c.9-.7 2-1.1 3.3-1.1 3.1 0 5.4 2.3 5.4 5.4zM127 315.9v13.3c0 3.7-2.7 6.5-6.8 6.5-3.1 0-5.6-1.7-6.4-4.4l3.7-1.4c.4 1.2 1.3 1.9 2.7 1.9 1.7 0 2.8-1.1 2.8-2.7v-1c-.9.7-2 1-3.3 1-3.7 0-6.4-3-6.4-6.7 0-3.8 2.7-6.8 6.4-6.8 1.3 0 2.5.4 3.4 1.1v-.8h3.9zm-3.9 6.5c0-1.6-1.3-2.9-2.9-2.9-1.7 0-2.9 1.3-2.9 2.9 0 1.6 1.3 2.8 2.9 2.8 1.7 0 2.9-1.2 2.9-2.8zM152.7 322.8c0 4-2.8 7.1-6.8 7.1-1.3 0-2.5-.4-3.4-1v6.5h-4v-19.5h3.9v.8c.9-.7 2.1-1.1 3.5-1.1 4 0 6.8 3.1 6.8 7.2zm-4 0c0-1.8-1.3-3.3-3.1-3.3-1.9 0-3.2 1.4-3.2 3.3 0 1.8 1.3 3.2 3.2 3.2 1.8 0 3.1-1.4 3.1-3.2zM164.1 315.9v4h-2c-1.6 0-2.6 1.2-2.6 2.7v7h-4v-13.7h3.9v1.2c.8-1 2-1.2 3.2-1.2h1.5zM172.5 315.6c4.1 0 7.2 3.1 7.2 7.2 0 3.9-3 7.1-7.2 7.1-4.1 0-7.2-3.2-7.2-7.1.1-4.1 3.1-7.2 7.2-7.2zm0 10.3c1.8 0 3.2-1.4 3.2-3.2 0-1.8-1.3-3.2-3.2-3.2-1.8 0-3.2 1.4-3.2 3.2.1 1.8 1.4 3.2 3.2 3.2zM186.8 315.9h4.2v3.8h-4.2v4.6c0 .9.6 1.5 1.5 1.5h2.7v3.8h-3.5c-2.8 0-4.7-1.8-4.7-4.6v-5.3h-2v-2.1l3.8-4.7h2.2v3zM206.4 324.2h-9.5c.5 1.2 1.6 2 3.1 2 1.3 0 2.3-.7 2.9-1.6l3.2 1.9c-1.2 2.1-3.4 3.4-6.1 3.4-4.1 0-7.1-3.1-7.1-7.1 0-4.1 2.9-7.2 6.9-7.2 4.1 0 6.9 3 6.9 7.1l-.3 1.5zm-9.6-2.9h5.8c-.4-1.3-1.5-2-2.9-2-1.5-.1-2.5.7-2.9 2zM215.4 315.6c2.6 0 4.8 1.3 6 3.2l-3.2 2.3c-.6-.9-1.5-1.6-2.7-1.6-1.8 0-3.1 1.4-3.1 3.2 0 1.8 1.3 3.2 3.1 3.2 1.2 0 2.1-.6 2.7-1.6l3.3 2.3c-1.2 2-3.3 3.2-6 3.2-4.1 0-7.1-3.1-7.1-7.2-.1-3.9 2.9-7 7-7zM228.2 315.9h4.2v3.8h-4.2v4.6c0 .9.6 1.5 1.5 1.5h2.7v3.8h-3.5c-2.8 0-4.7-1.8-4.7-4.6v-5.3h-2v-2.1l3.8-4.7h2.2v3z"/></g><g fill="#193062"><path d="M42.4 355l-7 19.5h-4.2l2.2-6.1-4.9-13.4h4.4l2.6 7.4 2.7-7.4h4.2zM50.3 354.7c4.1 0 7.2 3.1 7.2 7.2 0 3.9-3 7.1-7.2 7.1s-7.2-3.2-7.2-7.1c0-4.1 3-7.2 7.2-7.2zm0 10.3c1.8 0 3.2-1.4 3.2-3.2 0-1.8-1.3-3.2-3.2-3.2s-3.2 1.4-3.2 3.2c0 1.8 1.3 3.2 3.2 3.2zM72.6 355v13.7h-3.9v-.8c-.9.7-2 1.1-3.3 1.1-3.1 0-5.4-2.3-5.4-5.4V355h4v7.8c0 1.3.9 2.3 2.3 2.3s2.3-1 2.3-2.3V355h4zM84.9 355v4h-2c-1.6 0-2.6 1.2-2.6 2.7v7h-4V355h3.9v1.2c.8-1 2-1.2 3.2-1.2h1.5zM96.4 358.8h-2.7V355h2.7v-2.7c0-2.6 1.7-4.3 4.4-4.3h3.1v3.8h-2.3c-.7 0-1.1.4-1.1 1.1v2.1h3.5v3.8h-3.5v9.9h-4v-9.9zM117.2 360.1v8.6h-3.9v-.7c-.8.7-1.9 1-3.3 1-2.8 0-4.8-1.8-4.8-4.3 0-2.8 2.1-4.1 4.8-4.3l3.3-.3v-.1c0-.9-.9-1.6-2-1.6-1 0-1.8.5-2 1.3h-3.8c.2-2.9 2.6-5 5.8-5 3.5 0 5.9 2.2 5.9 5.4zm-3.9 3.8v-.9l-2.7.2c-1 .1-1.4.6-1.4 1.2 0 .7.6 1.3 1.7 1.3 1.5 0 2.4-.7 2.4-1.8zM140.7 359.7v9h-4v-8.1c0-1.1-.7-2-2-2-1.2 0-2 .9-2 2v8.1h-4v-8.1c0-1.1-.7-2-2-2-1.2 0-2 .9-2 2v8.1h-4V355h3.9v.7c.8-.6 1.9-1 3.1-1 1.4 0 2.7.5 3.6 1.4 1-.9 2.3-1.4 3.9-1.4 3.2 0 5.5 2.1 5.5 5zM146.3 348.2c1.4 0 2.5 1.1 2.5 2.5s-1.1 2.5-2.5 2.5-2.5-1.1-2.5-2.5 1-2.5 2.5-2.5zm2 20.5h-4V355h4v13.7zM151.9 347.9h4v20.7h-4v-20.7zM171.7 355l-7 19.5h-4.2l2.2-6.1-4.8-13.4h4.4l2.6 7.4 2.7-7.4h4.1zM178.1 350.9c0 .3-.1.6-.2.9l-1.6 4.5H174l.8-3.2c-.9-.3-1.5-1.2-1.5-2.3 0-1.4 1-2.4 2.4-2.4 1.4.1 2.4 1.1 2.4 2.5zM184.9 365.4c1.1 0 1.8-.4 1.8-1 0-.4-.4-.7-1-.7-.7-.1-1.4-.1-2.5-.3-2.7-.4-3.9-2-3.9-4 0-2.7 2.2-4.7 5.5-4.7 3.2 0 5.5 1.9 5.5 4.6h-3.9c0-.6-.7-1-1.7-1s-1.6.4-1.6.9c0 .4.3.6 1 .7.9.1 1.4.1 2.6.2 2.7.3 3.9 2 3.9 4.1 0 2.7-2.3 4.8-5.7 4.8-3.3 0-5.7-2-5.7-4.7h3.9c-.1.6.7 1.1 1.8 1.1z"/></g><g fill="#193062"><path d="M31.5 397.9h-2.7V394h2.7v-2.7c0-2.6 1.7-4.3 4.4-4.3H39v3.8h-2.3c-.7 0-1.1.4-1.1 1.1v2.1H39v3.8h-3.5v9.9h-4v-9.8zM54 394v13.7h-3.9v-.7c-.9.7-2 1.1-3.3 1.1-3.1 0-5.4-2.3-5.4-5.4V394h4v7.8c0 1.3.9 2.3 2.3 2.3s2.3-1 2.3-2.3V394h4zM62.1 394h4.2v3.8h-4.2v4.6c0 .9.6 1.5 1.5 1.5h2.7v3.8h-3.5c-2.8 0-4.7-1.8-4.7-4.6v-5.3h-2v-2.1l3.8-4.7h2.2v3zM81.6 394v13.7h-3.9v-.7c-.9.7-2 1.1-3.3 1.1-3.1 0-5.4-2.3-5.4-5.4V394h4v7.8c0 1.3.9 2.3 2.3 2.3s2.3-1 2.3-2.3V394h4zM93.9 394v4h-2c-1.6 0-2.6 1.2-2.6 2.7v7h-4V394h3.9v1.2c.8-1 2-1.2 3.2-1.2h1.5zM108.8 402.3h-9.5c.5 1.2 1.6 2 3.1 2 1.3 0 2.3-.7 2.9-1.6l3.2 1.9c-1.2 2.1-3.4 3.4-6.1 3.4-4.1 0-7.1-3.1-7.1-7.1 0-4.1 2.9-7.2 6.9-7.2 4.1 0 6.9 3 6.9 7.1-.1.6-.2 1.1-.3 1.5zm-9.6-2.9h5.8c-.4-1.3-1.5-2-2.9-2-1.5 0-2.6.7-2.9 2zM125.7 393.7c2.6 0 4.8 1.3 6 3.2l-3.2 2.3c-.6-.9-1.5-1.6-2.7-1.6-1.8 0-3.1 1.4-3.1 3.2 0 1.8 1.3 3.2 3.1 3.2 1.2 0 2.1-.6 2.7-1.6l3.3 2.3c-1.2 2-3.3 3.2-6 3.2-4.1 0-7.1-3.1-7.1-7.2-.1-3.8 2.9-7 7-7zM140 393.7c4.1 0 7.2 3.1 7.2 7.2 0 3.9-3 7.1-7.2 7.1s-7.2-3.2-7.2-7.1c0-4 3-7.2 7.2-7.2zm0 10.4c1.8 0 3.2-1.4 3.2-3.2 0-1.8-1.3-3.2-3.2-3.2s-3.2 1.4-3.2 3.2c0 1.8 1.4 3.2 3.2 3.2zM162.3 394v13.7h-3.9v-.7c-.9.7-2 1.1-3.3 1.1-3.1 0-5.4-2.3-5.4-5.4V394h4v7.8c0 1.3.9 2.3 2.3 2.3s2.3-1 2.3-2.3V394h4zM165.9 387h4v20.7h-4V387zM186.8 387v20.7h-3.9v-.8c-.9.7-2.1 1.1-3.5 1.1-4 0-6.8-3.2-6.8-7.1 0-4.1 2.8-7.2 6.8-7.2 1.3 0 2.5.4 3.4 1V387h4zm-3.8 13.9c0-1.8-1.3-3.3-3.2-3.3-1.8 0-3.1 1.4-3.1 3.3 0 1.8 1.3 3.2 3.1 3.2 1.9 0 3.2-1.4 3.2-3.2zM203.2 404.4c1.1 0 1.8-.4 1.8-1 0-.4-.4-.7-1-.7-.7-.1-1.4-.1-2.5-.3-2.7-.4-3.9-2-3.9-4 0-2.7 2.2-4.7 5.5-4.7 3.2 0 5.5 1.9 5.5 4.6h-3.9c0-.6-.7-1-1.7-1s-1.6.4-1.6.9c0 .4.3.6 1 .7.9.1 1.4.1 2.6.2 2.7.3 3.9 2 3.9 4.1 0 2.7-2.3 4.8-5.7 4.8-3.3 0-5.7-2-5.7-4.7h3.9c-.1.7.7 1.1 1.8 1.1zM216 394h4.2v3.8H216v4.6c0 .9.6 1.5 1.5 1.5h2.7v3.8h-3.5c-2.8 0-4.7-1.8-4.7-4.6v-5.3h-2v-2.1l3.8-4.7h2.2v3zM234.3 399.2v8.6h-3.9v-.8c-.8.7-1.8 1-3.3 1-2.8 0-4.8-1.8-4.8-4.3 0-2.8 2.1-4.1 4.8-4.3l3.3-.3v-.2c0-.9-.9-1.6-2-1.6-1 0-1.8.5-2 1.3h-3.8c.2-2.9 2.6-5 5.8-5 3.4.1 5.9 2.4 5.9 5.6zm-4 3.7v-.8l-2.7.2c-1 .1-1.4.6-1.4 1.2 0 .7.6 1.3 1.7 1.3 1.5 0 2.4-.7 2.4-1.9zM246.5 394v4h-2c-1.6 0-2.6 1.2-2.6 2.7v7h-4V394h3.9v1.2c.8-1 2-1.2 3.2-1.2h1.5zM253.6 394h4.2v3.8h-4.2v4.6c0 .9.6 1.5 1.5 1.5h2.7v3.8h-3.5c-2.8 0-4.7-1.8-4.7-4.6v-5.3h-2v-2.1l3.8-4.7h2.2v3z"/></g><g fill="#193062"><path d="M49.4 433.1l-4.5 13.7h-4.1l-1.7-5.7-1.7 5.7h-4.1l-4.5-13.7H33l2.4 7.8 2.4-7.8h2.6l2.3 7.5 2.5-7.5h4.2zM53.4 426.4c1.4 0 2.5 1.1 2.5 2.5s-1.1 2.5-2.5 2.5-2.5-1.1-2.5-2.5c0-1.5 1.1-2.5 2.5-2.5zm2 20.4h-4v-13.7h4v13.7zM63.6 433.1h4.2v3.8h-4.2v4.6c0 .9.6 1.5 1.5 1.5h2.7v3.8h-3.5c-2.8 0-4.7-1.8-4.7-4.6V437h-2v-2.1l3.8-4.7h2.2v2.9zM83.2 438.3v8.5h-4v-7.7c0-1.3-.9-2.4-2.3-2.4s-2.4 1-2.4 2.4v7.7h-4v-20.7h4v7.8c.9-.7 2-1 3.3-1 3.1-.1 5.4 2.2 5.4 5.4zM98.5 431.1h-5.7V427h15.6v4.1h-5.7v15.7h-4.2v-15.7zM117.2 433.1v4h-2c-1.6 0-2.6 1.2-2.6 2.7v7h-4v-13.7h3.9v1.2c.8-1 2-1.2 3.2-1.2h1.5zM132 433.1v13.7h-4v-.8c-.9.7-2 1.1-3.3 1.1-3.1 0-5.4-2.3-5.4-5.4v-8.6h4v7.8c0 1.3.9 2.3 2.3 2.3s2.3-1 2.3-2.3v-7.8h4.1zM142.2 430.7c-1.8 0-2.9.9-2.9 2.1 0 .8.5 1.3 1.2 1.6 1.3.5 3.1.2 5.1.8 2.6.8 4.2 2.7 4.2 5.4 0 3.8-2.9 6.6-7.3 6.6-4.3 0-7.5-2.6-7.5-6.4h4.2c0 1.4 1.4 2.4 3.3 2.4 2 0 3.1-1 3.1-2.3 0-.9-.6-1.4-1.3-1.7-1.2-.4-3.3-.3-5.1-.8-2.6-.7-4.1-2.7-4.1-5.3 0-3.7 2.9-6.3 7.1-6.3 4.2 0 7.2 2.5 7.2 6.2h-4.2c0-1.4-1.2-2.3-3-2.3zM157.2 433.1h4.2v3.8h-4.2v4.6c0 .9.6 1.5 1.5 1.5h2.7v3.8h-3.5c-2.8 0-4.7-1.8-4.7-4.6V437h-2v-2.1l3.8-4.7h2.2v2.9zM175.5 438.2v8.6h-3.9v-.7c-.8.7-1.8 1-3.3 1-2.8 0-4.8-1.8-4.8-4.3 0-2.8 2.1-4.1 4.8-4.3l3.3-.3v-.2c0-.9-.9-1.6-2-1.6-1 0-1.8.5-2 1.3h-3.8c.2-2.9 2.6-5 5.8-5 3.4.1 5.9 2.4 5.9 5.5zm-4 3.8v-.8l-2.7.2c-1 .1-1.4.6-1.4 1.2 0 .7.6 1.3 1.7 1.3 1.5 0 2.4-.7 2.4-1.9zM191.7 433.1v13.3c0 3.7-2.7 6.5-6.8 6.5-3.1 0-5.5-1.7-6.4-4.4l3.7-1.4c.4 1.2 1.3 1.9 2.7 1.9 1.7 0 2.8-1.1 2.8-2.7v-1c-.9.7-2 1-3.3 1-3.7 0-6.4-3-6.4-6.7 0-3.8 2.7-6.8 6.4-6.8 1.3 0 2.5.4 3.4 1.1v-.8h3.9zm-3.8 6.6c0-1.6-1.3-2.9-2.9-2.9-1.7 0-2.9 1.3-2.9 2.9 0 1.6 1.3 2.8 2.9 2.8 1.6 0 2.9-1.3 2.9-2.8zM208 441.4h-9.5c.5 1.2 1.6 2 3.1 2 1.3 0 2.3-.7 2.9-1.6l3.2 1.9c-1.2 2.1-3.4 3.4-6.1 3.4-4.1 0-7.1-3.1-7.1-7.1 0-4.1 2.9-7.2 6.9-7.2 4.1 0 6.9 3 6.9 7.1-.1.5-.2 1.1-.3 1.5zm-9.6-2.9h5.8c-.4-1.3-1.5-2-2.9-2-1.5 0-2.5.7-2.9 2zM212.2 429.2H210V427h6.7v2.2h-2.2v5.6h-2.3v-5.6zm5.6-2.2h2.3l1.8 3.6 1.7-3.6h2.3v7.8h-2.3v-3.5l-1.7 3.7-1.8-3.6v3.5h-2.2V427z"/></g><g fill="#193062"><path d="M30.4 466.1h4.2v15.7H46v4.1H30.4v-19.8zM50.7 465.4c1.4 0 2.5 1.1 2.5 2.5s-1.1 2.5-2.5 2.5-2.5-1.1-2.5-2.5 1-2.5 2.5-2.5zm2 20.5h-4v-13.7h4v13.7zM57.6 476.1h-2.7v-3.8h2.7v-2.7c0-2.6 1.7-4.3 4.4-4.3h3.1v3.8h-2.3c-.7 0-1.1.4-1.1 1.1v2.1h3.5v3.8h-3.5v9.9h-4v-9.9zM79.9 480.5h-9.5c.5 1.2 1.6 2 3.1 2 1.3 0 2.3-.7 2.9-1.6l3.2 1.9c-1.2 2.1-3.4 3.4-6.1 3.4-4.1 0-7.1-3.1-7.1-7.1 0-4.1 2.9-7.2 6.9-7.2 4.1 0 6.9 3 6.9 7.1-.1.5-.2 1.1-.3 1.5zm-9.6-2.9h5.8c-.4-1.3-1.5-2-2.9-2-1.5 0-2.6.7-2.9 2zM90.9 466.1h4.2V486h-4.2v-19.9zM111.6 477.4v8.6h-4v-7.8c0-1.3-.9-2.3-2.3-2.3s-2.3 1-2.3 2.3v7.8h-4v-13.7h3.9v.8c.9-.7 2-1.1 3.3-1.1 3.2-.1 5.4 2.2 5.4 5.4zM120 482.6c1.1 0 1.8-.4 1.8-1 0-.4-.4-.7-1-.7-.7-.1-1.4-.1-2.5-.3-2.7-.4-3.9-2-3.9-4 0-2.7 2.2-4.7 5.6-4.7 3.2 0 5.5 1.9 5.5 4.6h-3.9c0-.6-.7-1-1.7-1s-1.6.4-1.6.9c0 .4.3.6 1 .7.9.1 1.4.1 2.6.2 2.7.3 3.9 2 3.9 4.1 0 2.7-2.3 4.8-5.7 4.8-3.3 0-5.7-2-5.7-4.7h3.9c-.1.7.6 1.1 1.7 1.1zM140.9 472.2v13.7H137v-.8c-.9.7-2 1.1-3.3 1.1-3.1 0-5.4-2.3-5.4-5.4v-8.6h4v7.8c0 1.3.9 2.3 2.3 2.3s2.3-1 2.3-2.3v-7.8h4zM153.1 472.2v4h-2c-1.6 0-2.6 1.2-2.6 2.7v7h-4v-13.7h3.9v1.2c.8-1 2-1.2 3.2-1.2h1.5zM166.4 477.3v8.6h-3.9v-.7c-.8.7-1.8 1-3.3 1-2.8 0-4.8-1.8-4.8-4.3 0-2.8 2.1-4.1 4.8-4.3l3.3-.3v-.2c0-.9-.9-1.6-2-1.6-1 0-1.8.5-2 1.3h-3.8c.2-2.9 2.6-5 5.8-5 3.5.1 5.9 2.4 5.9 5.5zm-3.9 3.8v-.8l-2.7.2c-1 .1-1.4.6-1.4 1.2 0 .7.6 1.3 1.7 1.3 1.5 0 2.4-.7 2.4-1.9zM182.6 477.4v8.6h-4v-7.8c0-1.3-.9-2.3-2.3-2.3s-2.3 1-2.3 2.3v7.8h-4v-13.7h3.9v.8c.9-.7 2-1.1 3.3-1.1 3.1-.1 5.4 2.2 5.4 5.4zM192.3 471.9c2.6 0 4.8 1.3 6 3.2l-3.2 2.3c-.6-.9-1.5-1.6-2.7-1.6-1.8 0-3.1 1.4-3.1 3.2 0 1.8 1.3 3.2 3.1 3.2 1.2 0 2.1-.6 2.7-1.6l3.3 2.3c-1.2 2-3.3 3.2-6 3.2-4.1 0-7.1-3.1-7.1-7.2-.1-3.9 2.9-7 7-7zM213.1 480.5h-9.5c.5 1.2 1.6 2 3.1 2 1.3 0 2.3-.7 2.9-1.6l3.2 1.9c-1.2 2.1-3.4 3.4-6.1 3.4-4.1 0-7.1-3.1-7.1-7.1 0-4.1 2.9-7.2 6.9-7.2 4.1 0 6.9 3 6.9 7.1-.2.5-.2 1.1-.3 1.5zm-9.7-2.9h5.8c-.4-1.3-1.5-2-2.9-2s-2.5.7-2.9 2zM217.9 481.1c1.4 0 2.5 1.1 2.5 2.5s-1.1 2.5-2.5 2.5-2.5-1.1-2.5-2.5 1.1-2.5 2.5-2.5z"/></g></svg>