<svg baseProfile="tiny" xmlns="http://www.w3.org/2000/svg" viewBox="0 0 300 600" overflow="visible"><path fill="#FAE07E" d="M31.8 514.7H161v36.5H31.8z"/><g fill="#193062"><path d="M57.2 532.8v.3c0 1-.2 1.9-.7 2.7-.4.8-1 1.4-1.8 1.9s-1.7.7-2.7.7c-1 0-2-.2-2.8-.7-.8-.5-1.4-1.1-1.9-1.9-.5-.8-.7-1.8-.7-2.8 0-1 .2-1.9.7-2.8s1.1-1.5 1.9-2c.8-.5 1.8-.7 2.8-.7.7 0 1.3.1 1.9.3s1.1.5 1.6.9.9.9 1.2 1.4l-1.7 1.1c-.3-.5-.7-.9-1.2-1.2s-1.1-.5-1.8-.5c-.6 0-1.2.1-1.7.4-.5.3-.9.7-1.2 1.2-.3.5-.4 1.1-.4 1.7 0 .7.1 1.3.4 1.8.3.5.7.9 1.2 1.2s1.1.4 1.7.4c.7 0 1.3-.2 1.8-.5s.9-.7 1.1-1.3h-3.6v-1.9h5.9zM58.9 527.7H67v2h-6.1v2.2h3.4v2h-3.4v2.3H67v2h-8.2v-10.5zM71.2 529.7h-3.1v-2h8.2v2h-3.1v8.5h-2.1v-8.5zM87.2 536.7h-3.9l-.5 1.5h-2l3.5-10.5h2.1l3.4 10.5h-2.1l-.5-1.5zm-.6-2l-1.3-4-1.3 4h2.6zM105.7 536.3v1.9h-.9l-1.3-1c-.5.4-1 .7-1.6.9-.6.2-1.2.3-1.9.3-1 0-2-.2-2.8-.7-.8-.5-1.5-1.1-1.9-2s-.7-1.8-.7-2.8c0-1 .2-1.9.7-2.8s1.1-1.5 1.9-2c.8-.5 1.8-.7 2.8-.7 1 0 2 .2 2.8.7s1.5 1.1 1.9 2c.5.8.7 1.7.7 2.8 0 .9-.2 1.8-.6 2.6l.9.8zm-3.9-.4l-1-.8 1.3-1.7 1.1.8c.2-.4.2-.9.2-1.3 0-.6-.1-1.2-.4-1.7-.3-.5-.7-.9-1.2-1.2-.5-.3-1.1-.4-1.7-.4-.6 0-1.2.1-1.7.4-.5.3-.9.7-1.2 1.2-.3.5-.4 1.1-.4 1.7s.1 1.2.4 1.7c.3.5.7.9 1.2 1.2.5.3 1.1.4 1.7.4.5.2 1.1 0 1.7-.3zM115.6 534.3c0 .8-.2 1.5-.6 2.1-.4.6-.9 1.1-1.5 1.5-.6.4-1.4.5-2.1.5-.8 0-1.5-.2-2.2-.5s-1.2-.9-1.5-1.5c-.4-.6-.5-1.3-.5-2.1v-6.6h2.1v6.5c0 .4.1.8.3 1.1.2.3.4.6.8.8.3.2.7.3 1.1.3.4 0 .8-.1 1.1-.3.3-.2.6-.5.8-.8.2-.3.3-.7.3-1.1v-6.5h2v6.6zM122.6 527.5c1 0 2 .2 2.8.7s1.5 1.1 1.9 2c.5.8.7 1.7.7 2.8 0 1-.2 1.9-.7 2.8-.5.8-1.1 1.5-1.9 2-.8.5-1.8.7-2.8.7-1 0-2-.2-2.8-.7-.8-.5-1.5-1.1-1.9-2s-.7-1.8-.7-2.8c0-1 .2-1.9.7-2.8s1.1-1.5 1.9-2c.9-.4 1.8-.7 2.8-.7zm0 8.9c.6 0 1.2-.1 1.7-.4.5-.3.9-.7 1.2-1.2.3-.5.4-1.1.4-1.7s-.1-1.2-.4-1.7c-.3-.5-.7-.9-1.2-1.2-.5-.3-1.1-.4-1.7-.4-.6 0-1.2.1-1.7.4-.5.3-.9.7-1.2 1.2-.3.5-.4 1.1-.4 1.7s.1 1.2.4 1.7c.3.5.7.9 1.2 1.2.5.2 1.1.4 1.7.4zM131.7 529.7h-3.1v-2h8.2v2h-3.1v8.5h-2.1v-8.5zM138.1 527.7h8.2v2h-6.1v2.2h3.4v2h-3.4v2.3h6.1v2h-8.2v-10.5z"/></g></svg>