<svg baseProfile="tiny" xmlns="http://www.w3.org/2000/svg" viewBox="0 0 320 50" overflow="visible"><g fill="#193062"><path d="M79.9 11.5v.3c0 2.3-1.6 4-4 4s-4.1-1.7-4.1-4.1c0-2.3 1.7-4.1 4.1-4.1 1.6 0 2.9.8 3.6 2l-1.5.9c-.2-.7-1-1.2-2-1.2-1.4 0-2.4 1.1-2.4 2.4 0 1.5.9 2.5 2.4 2.5 1 0 1.7-.4 2-1.1h-2.6v-1.6h4.5zM86.2 13.6h-3.9c.2.5.7.8 1.3.8.5 0 .9-.3 1.2-.6l1.3.8c-.5.8-1.4 1.4-2.5 1.4-1.7 0-2.9-1.3-2.9-2.9 0-1.7 1.2-2.9 2.8-2.9 1.7 0 2.8 1.2 2.8 2.9 0 .1-.1.3-.1.5zm-3.9-1.2h2.4c-.2-.5-.6-.8-1.2-.8s-1.1.3-1.2.8zM89.1 10.2h1.7v1.6h-1.7v1.8c0 .4.2.6.6.6h1.1v1.6h-1.4c-1.1 0-1.9-.7-1.9-1.8v-2.1h-.8v-.8l1.5-1.9h.9v1zM100.9 13c0 1.6-1.1 2.9-2.7 2.9-.6 0-1-.2-1.4-.5v.3h-1.6V7.4h1.6v3.1c.4-.3.9-.4 1.4-.4 1.5 0 2.7 1.3 2.7 2.9zm-1.7 0c0-.7-.5-1.3-1.3-1.3s-1.3.6-1.3 1.3c0 .7.5 1.3 1.3 1.3s1.3-.6 1.3-1.3zM106.5 12.3v3.5h-1.6v-.3c-.3.3-.7.4-1.4.4-1.1 0-1.9-.7-1.9-1.7 0-1.1.9-1.6 1.9-1.7l1.4-.1v-.1c0-.4-.4-.7-.8-.7s-.7.2-.8.5h-1.6c.1-1.2 1-2 2.4-2 1.5 0 2.4.9 2.4 2.2zm-1.6 1.5v-.3l-1.1.1c-.4 0-.6.2-.6.5s.3.5.7.5c.7 0 1-.3 1-.8zM110.5 10.1c1.1 0 1.9.5 2.4 1.3l-1.3.9c-.2-.4-.6-.6-1.1-.6-.7 0-1.3.6-1.3 1.3 0 .7.5 1.3 1.3 1.3.5 0 .8-.3 1.1-.6l1.3.9c-.5.8-1.4 1.3-2.4 1.3-1.7 0-2.9-1.3-2.9-2.9 0-1.6 1.2-2.9 2.9-2.9zM117.1 12.9l2.1 2.9h-2l-1.8-2.6v2.6h-1.6V7.4h1.6v5.1l1.8-2.3h2l-2.1 2.7zM124.9 10.2h1.7v1.6h-1.7v1.8c0 .4.2.6.6.6h1.1v1.6h-1.4c-1.1 0-1.9-.7-1.9-1.8v-2.1h-.8v-.8l1.5-1.9h.9v1zM130.2 10.1c1.7 0 2.9 1.3 2.9 2.9 0 1.6-1.2 2.9-2.9 2.9s-2.9-1.3-2.9-2.9c0-1.6 1.2-2.9 2.9-2.9zm0 4.2c.7 0 1.3-.6 1.3-1.3 0-.7-.5-1.3-1.3-1.3-.7 0-1.3.6-1.3 1.3 0 .7.6 1.3 1.3 1.3zM139.2 10.2h1.7v1.6h-1.7v1.8c0 .4.2.6.6.6h1.1v1.6h-1.4c-1.1 0-1.9-.7-1.9-1.8v-2.1h-.8v-.8l1.5-1.9h.9v1zM147.1 12.3v3.5h-1.6v-3.1c0-.5-.4-1-.9-1-.6 0-1 .4-1 1v3.1H142V7.4h1.6v3.1c.4-.3.8-.4 1.3-.4 1.3 0 2.2.9 2.2 2.2zM153.7 13.6h-3.9c.2.5.7.8 1.3.8.5 0 .9-.3 1.2-.6l1.3.8c-.5.8-1.4 1.4-2.5 1.4-1.7 0-2.9-1.3-2.9-2.9 0-1.7 1.2-2.9 2.8-2.9 1.7 0 2.8 1.2 2.8 2.9-.1.1-.1.3-.1.5zm-3.9-1.2h2.4c-.2-.5-.6-.8-1.2-.8s-1.1.3-1.2.8zM159.8 10.2h1.7v1.6h-1.7v1.8c0 .4.2.6.6.6h1.1v1.6h-1.4c-1.1 0-1.9-.7-1.9-1.8v-2.1h-.8v-.8l1.5-1.9h.9v1zM167.8 12.3v3.5h-1.6v-3.1c0-.5-.4-1-.9-1-.6 0-1 .4-1 1v3.1h-1.6V7.4h1.6v3.1c.4-.3.8-.4 1.3-.4 1.2 0 2.2.9 2.2 2.2zM170 7.5c.6 0 1 .4 1 1s-.4 1-1 1-1-.5-1-1c0-.6.4-1 1-1zm.8 8.3h-1.6v-5.5h1.6v5.5zM177.4 12.3v3.5h-1.6v-3.1c0-.5-.4-.9-.9-.9-.6 0-.9.4-.9.9v3.1h-1.6v-5.5h1.6v.3c.4-.3.8-.4 1.4-.4 1.1-.1 2 .8 2 2.1zM184 10.2v5.4c0 1.5-1.1 2.6-2.8 2.6-1.3 0-2.2-.7-2.6-1.8l1.5-.6c.2.5.5.8 1.1.8.7 0 1.1-.4 1.1-1.1v-.4c-.4.3-.8.4-1.3.4-1.5 0-2.6-1.2-2.6-2.7s1.1-2.7 2.6-2.7c.5 0 1 .2 1.4.5v-.3h1.6zm-1.6 2.7c0-.7-.5-1.2-1.2-1.2s-1.2.5-1.2 1.2c0 .6.5 1.1 1.2 1.1s1.2-.5 1.2-1.1zM187.4 14.4c.4 0 .7-.2.7-.4s-.1-.3-.4-.3c-.3 0-.6 0-1-.1-1.1-.2-1.6-.8-1.6-1.6 0-1.1.9-1.9 2.2-1.9 1.3 0 2.2.8 2.2 1.9h-1.6c0-.3-.3-.4-.7-.4-.4 0-.7.2-.7.4s.1.2.4.3c.4 0 .6 0 1 .1 1.1.1 1.6.8 1.6 1.6 0 1.1-.9 1.9-2.3 1.9s-2.3-.8-2.3-1.9h1.6c.2.3.5.4.9.4zM198.5 10.2l-2.8 7.9H194l.9-2.5-2-5.4h1.8l1.1 3 1.1-3h1.6zM201.7 10.1c1.7 0 2.9 1.3 2.9 2.9 0 1.6-1.2 2.9-2.9 2.9s-2.9-1.3-2.9-2.9c0-1.6 1.2-2.9 2.9-2.9zm0 4.2c.7 0 1.3-.6 1.3-1.3 0-.7-.5-1.3-1.3-1.3-.7 0-1.3.6-1.3 1.3 0 .7.5 1.3 1.3 1.3zM210.7 10.2v5.5h-1.6v-.3c-.4.3-.8.4-1.3.4-1.2 0-2.2-.9-2.2-2.2v-3.5h1.6v3.1c0 .5.4.9.9.9.6 0 .9-.4.9-.9v-3.1h1.7zM215.4 7.4h1.6v8.4h-1.6V7.4zM221 10.1c1.7 0 2.9 1.3 2.9 2.9 0 1.6-1.2 2.9-2.9 2.9s-2.9-1.3-2.9-2.9c0-1.6 1.2-2.9 2.9-2.9zm0 4.2c.7 0 1.3-.6 1.3-1.3 0-.7-.5-1.3-1.3-1.3-.7 0-1.3.6-1.3 1.3 0 .7.5 1.3 1.3 1.3zM229.8 10.2l-2 5.5h-1.6l-2-5.5h1.8l1.1 3.1 1.1-3.1h1.6zM235.6 13.6h-3.9c.2.5.7.8 1.3.8.5 0 .9-.3 1.2-.6l1.3.8c-.5.8-1.4 1.4-2.5 1.4-1.7 0-2.9-1.3-2.9-2.9 0-1.7 1.2-2.9 2.8-2.9 1.7 0 2.8 1.2 2.8 2.9-.1.1-.1.3-.1.5zm-3.9-1.2h2.4c-.2-.5-.6-.8-1.2-.8-.7 0-1.1.3-1.2.8zM237.5 13.8c.6 0 1 .4 1 1s-.4 1-1 1-1-.5-1-1 .4-1 1-1z"/></g><g fill="#193062"><path d="M76.4 28.7h-2.9l-.3 1.1h-1.7l2.6-8h1.8l2.6 8h-1.7l-.4-1.1zm-.5-1.6l-.9-2.8-.9 2.8h1.8zM85.1 27c0 1.6-1.1 2.9-2.7 2.9-.5 0-1-.2-1.4-.4v2.6h-1.6v-7.9H81v.3c.4-.3.9-.4 1.4-.4 1.5 0 2.7 1.3 2.7 2.9zm-1.6 0c0-.7-.5-1.3-1.3-1.3s-1.3.6-1.3 1.3c0 .7.5 1.3 1.3 1.3.7 0 1.3-.6 1.3-1.3zM91.9 27c0 1.6-1.1 2.9-2.7 2.9-.5 0-1-.2-1.4-.4v2.6h-1.6v-7.9h1.6v.3c.4-.3.9-.4 1.4-.4 1.6 0 2.7 1.3 2.7 2.9zm-1.6 0c0-.7-.5-1.3-1.3-1.3s-1.3.6-1.3 1.3c0 .7.5 1.3 1.3 1.3s1.3-.6 1.3-1.3zM93 21.4h1.6v8.4H93v-8.4zM101 24.2l-2.8 7.9h-1.7l.9-2.5-2-5.4h1.8l1.1 3 1.1-3h1.6zM105.1 25.8H104v-1.6h1.1v-1.1c0-1.1.7-1.7 1.8-1.7h1.2V23h-.9c-.3 0-.5.2-.5.4v.8h1.4v1.6h-1.4v4h-1.6v-4zM111.6 24.1c1.7 0 2.9 1.3 2.9 2.9 0 1.6-1.2 2.9-2.9 2.9s-2.9-1.3-2.9-2.9c0-1.6 1.2-2.9 2.9-2.9zm0 4.2c.7 0 1.3-.6 1.3-1.3 0-.7-.5-1.3-1.3-1.3-.7 0-1.3.6-1.3 1.3 0 .7.5 1.3 1.3 1.3zM119 24.2v1.6h-.8c-.6 0-1.1.5-1.1 1.1v2.8h-1.6v-5.5h1.6v.5c.3-.4.8-.5 1.3-.5h.6zM123.3 21.7h1.7v6.4h4.6v1.7h-6.3v-8.1zM131.4 21.5c.6 0 1 .4 1 1s-.4 1-1 1-1-.5-1-1c0-.6.5-1 1-1zm.8 8.3h-1.6v-5.5h1.6v5.5zM134.2 25.8h-1.1v-1.6h1.1v-1.1c0-1.1.7-1.7 1.8-1.7h1.2V23h-.9c-.3 0-.5.2-.5.4v.8h1.4v1.6h-1.4v4h-1.6v-4zM143.3 27.6h-3.9c.2.5.7.8 1.3.8.5 0 .9-.3 1.2-.6l1.3.8c-.5.8-1.4 1.4-2.5 1.4-1.7 0-2.9-1.3-2.9-2.9 0-1.6 1.2-2.9 2.8-2.9 1.7 0 2.8 1.2 2.8 2.9-.1.1-.1.3-.1.5zm-3.9-1.2h2.4c-.2-.5-.6-.8-1.2-.8-.7 0-1.1.3-1.2.8zM147.7 21.7h1.7v8h-1.7v-8zM156.1 26.3v3.5h-1.6v-3.1c0-.5-.4-.9-.9-.9-.6 0-.9.4-.9.9v3.1H151v-5.5h1.6v.3c.4-.3.8-.4 1.4-.4 1.2-.1 2.1.8 2.1 2.1zM159.5 28.4c.4 0 .7-.2.7-.4s-.1-.3-.4-.3c-.3 0-.6 0-1-.1-1.1-.2-1.6-.8-1.6-1.6 0-1.1.9-1.9 2.2-1.9 1.3 0 2.2.8 2.2 1.9H160c0-.3-.3-.4-.7-.4-.4 0-.7.2-.7.4s.1.2.4.3c.4 0 .6 0 1 .1 1.1.1 1.6.8 1.6 1.6 0 1.1-.9 1.9-2.3 1.9s-2.3-.8-2.3-1.9h1.6c.1.3.4.4.9.4zM167.9 24.2v5.5h-1.6v-.3c-.4.3-.8.4-1.3.4-1.2 0-2.2-.9-2.2-2.2v-3.5h1.6v3.1c0 .5.4.9.9.9.6 0 .9-.4.9-.9v-3.1h1.7zM172.9 24.2v1.6h-.8c-.6 0-1.1.5-1.1 1.1v2.8h-1.6v-5.5h1.6v.5c.3-.4.8-.5 1.3-.5h.6zM178.3 26.3v3.5h-1.6v-.3c-.3.3-.7.4-1.4.4-1.1 0-1.9-.7-1.9-1.7 0-1.1.9-1.6 1.9-1.7l1.4-.1v-.1c0-.4-.4-.7-.8-.7s-.7.2-.8.5h-1.6c.1-1.2 1-2 2.4-2s2.4.9 2.4 2.2zm-1.6 1.5v-.3l-1.1.1c-.4 0-.6.2-.6.5s.3.5.7.5c.6 0 1-.3 1-.8zM184.8 26.3v3.5h-1.6v-3.1c0-.5-.4-.9-.9-.9-.6 0-.9.4-.9.9v3.1h-1.6v-5.5h1.6v.3c.4-.3.8-.4 1.4-.4 1.1-.1 2 .8 2 2.1zM188.7 24.1c1.1 0 1.9.5 2.4 1.3l-1.3.9c-.2-.4-.6-.6-1.1-.6-.7 0-1.3.6-1.3 1.3s.5 1.3 1.3 1.3c.5 0 .8-.3 1.1-.6l1.3.9c-.5.8-1.4 1.3-2.4 1.3-1.7 0-2.9-1.3-2.9-2.9s1.3-2.9 2.9-2.9zM197.1 27.6h-3.9c.2.5.7.8 1.3.8.5 0 .9-.3 1.2-.6l1.3.8c-.5.8-1.4 1.4-2.5 1.4-1.7 0-2.9-1.3-2.9-2.9 0-1.6 1.2-2.9 2.8-2.9 1.7 0 2.8 1.2 2.8 2.9 0 .1 0 .3-.1.5zm-3.9-1.2h2.4c-.2-.5-.6-.8-1.2-.8s-1 .3-1.2.8zM202.3 21.5c.6 0 1 .4 1 1s-.4 1-1 1-1-.5-1-1c-.1-.6.4-1 1-1zm.8 8.3h-1.6v-5.5h1.6v5.5zM209.6 26.3v3.5H208v-3.1c0-.5-.4-.9-.9-.9s-.9.4-.9.9v3.1h-1.6v-5.5h1.6v.3c.4-.3.8-.4 1.4-.4 1.1-.1 2 .8 2 2.1zM222.3 26.2v3.6h-1.6v-3.3c0-.4-.3-.8-.8-.8s-.8.4-.8.8v3.3h-1.6v-3.3c0-.4-.3-.8-.8-.8s-.8.4-.8.8v3.3h-1.6v-5.5h1.6v.3c.3-.2.8-.4 1.2-.4.6 0 1.1.2 1.4.6.4-.4.9-.6 1.6-.6 1.3-.1 2.2.8 2.2 2zM224.6 21.5c.6 0 1 .4 1 1s-.4 1-1 1-1-.5-1-1c0-.6.4-1 1-1zm.8 8.3h-1.6v-5.5h1.6v5.5zM232 26.3v3.5h-1.6v-3.1c0-.5-.4-.9-.9-.9s-.9.4-.9.9v3.1H227v-5.5h1.6v.3c.4-.3.8-.4 1.4-.4 1-.1 2 .8 2 2.1zM238.5 24.2v5.5h-1.6v-.3c-.4.3-.8.4-1.3.4-1.2 0-2.2-.9-2.2-2.2v-3.5h1.6v3.1c0 .5.4.9.9.9.6 0 .9-.4.9-.9v-3.1h1.7zM241.7 24.2h1.7v1.6h-1.7v1.8c0 .4.2.6.6.6h1.1v1.6H242c-1.1 0-1.9-.7-1.9-1.8v-2.1h-.8v-.8l1.5-1.9h.9v1zM249.7 27.6h-3.9c.2.5.7.8 1.3.8.5 0 .9-.3 1.2-.6l1.3.8c-.5.8-1.4 1.4-2.5 1.4-1.7 0-2.9-1.3-2.9-2.9 0-1.6 1.2-2.9 2.8-2.9 1.7 0 2.8 1.2 2.8 2.9-.1.1-.1.3-.1.5zm-3.9-1.2h2.4c-.2-.5-.6-.8-1.2-.8-.7 0-1.1.3-1.2.8zM252.8 28.4c.4 0 .7-.2.7-.4s-.1-.3-.4-.3c-.3 0-.6 0-1-.1-1.1-.2-1.6-.8-1.6-1.6 0-1.1.9-1.9 2.2-1.9 1.3 0 2.2.8 2.2 1.9h-1.6c0-.3-.3-.4-.7-.4-.4 0-.7.2-.7.4s.1.2.4.3c.4 0 .6 0 1 .1 1.1.1 1.6.8 1.6 1.6 0 1.1-.9 1.9-2.3 1.9s-2.3-.8-2.3-1.9h1.6c.1.3.4.4.9.4zM257 27.8c.6 0 1 .4 1 1s-.4 1-1 1-1-.5-1-1 .4-1 1-1z"/></g></svg>