<svg baseProfile="tiny" xmlns="http://www.w3.org/2000/svg" viewBox="0 0 728 90" overflow="visible"><g fill="#FFF"><path d="M17.7 75.6c0 .7-.2 1.3-.5 1.8s-.7.9-1.3 1.2c-.5.3-1.1.5-1.8.5s-1.3-.2-1.9-.5c-.6-.3-1-.8-1.3-1.3s-.5-1.2-.5-1.9.2-1.4.5-1.9c.3-.6.8-1 1.3-1.3s1.2-.5 1.9-.5 1.3.2 1.9.5 1 .7 1.3 1.3l-.6.4c-.3-.4-.6-.8-1-1-.4-.3-.9-.4-1.5-.4s-1.1.1-1.5.4c-.4.3-.8.6-1 1.1s-.4 1-.4 1.6c0 .6.1 1.1.4 1.6s.6.8 1 1.1.9.4 1.5.4c.5 0 .9-.1 1.3-.3s.7-.4.9-.7.4-.7.5-1.1h-3.1v-.7h3.9zM19 71.7h5.4v.7h-4.6v2.5h2.7v.7h-2.7v2.6h4.6v.8H19v-7.3zM31.3 71.7V79h-.8l-4-6v6h-.8v-7.3h.8l4 6v-6h.8zM35 75.8v.7h-2.3v-.7H35zM41.5 75.9v.7h-1.4V79h-.8v-2.3H36v-.6l3.2-4.4h.8V76h1.5zm-2.2 0v-3.2L37 75.9h2.3zM42.1 71.7h4.6v.7L43.8 79H43l2.9-6.6h-3.8v-.7zM52.4 77c0 .4-.1.8-.3 1.1-.2.3-.5.6-.8.8-.3.2-.7.3-1.1.3-.4 0-.8-.1-1.2-.3s-.6-.4-.8-.8-.3-.7-.3-1.1h.8c0 .3.1.5.2.7s.3.4.5.5c.2.1.5.2.8.2.3 0 .5-.1.8-.2s.4-.3.5-.5.2-.4.2-.7c0-.3-.1-.5-.2-.7-.1-.2-.3-.4-.5-.5-.2-.1-.5-.2-.7-.2h-.7v-.7h.7c.3 0 .5-.1.7-.2.2-.1.4-.3.5-.5s.2-.4.2-.7c0-.3-.1-.5-.2-.7-.1-.2-.3-.3-.5-.4-.2-.1-.4-.2-.7-.2-.3 0-.5.1-.7.2s-.4.2-.5.4c-.1.2-.2.4-.2.6h-.8c0-.4.1-.7.3-1 .2-.3.4-.5.7-.7.3-.2.7-.3 1.1-.3.4 0 .8.1 1.1.3.3.2.6.4.7.7s.3.6.3 1c0 .3-.1.7-.2.9s-.4.5-.7.7c.3.2.5.4.7.7s.3.9.3 1.3zM58.6 76.7c0 .4-.1.9-.3 1.2s-.5.6-.9.8-.8.3-1.2.3c-.5 0-.9-.1-1.2-.3s-.7-.5-.9-.8-.3-.8-.3-1.2c0-.3 0-.6.1-.9.1-.3.2-.6.4-.8l2.2-3.4h.9l-1.8 2.8c.2-.1.4-.1.7-.1.5 0 .9.1 1.2.3.4.2.7.5.9.8.1.5.2.9.2 1.3zm-.7 0c0-.3-.1-.6-.2-.8s-.3-.4-.6-.6c-.3-.1-.5-.2-.9-.2-.3 0-.6.1-.9.2-.3.1-.4.3-.6.6s-.2.5-.2.8c0 .3.1.6.2.8.1.2.3.4.6.6.3.1.5.2.9.2s.6-.1.9-.2c.3-.1.5-.3.6-.6s.2-.5.2-.8zM64.8 76.7c0 .4-.1.9-.3 1.2s-.5.6-.9.8-.8.3-1.2.3c-.5 0-.9-.1-1.2-.3s-.7-.5-.9-.8-.3-.7-.3-1.2c0-.3 0-.6.1-.9.1-.3.2-.6.4-.8l2.2-3.4h.9l-1.8 2.8c.2-.1.4-.1.7-.1.5 0 .9.1 1.2.3.4.2.7.5.9.8.1.5.2.9.2 1.3zm-.7 0c0-.3-.1-.6-.2-.8s-.3-.4-.6-.6c-.3-.1-.5-.2-.9-.2-.3 0-.6.1-.9.2-.3.1-.4.3-.6.6s-.2.5-.2.8c0 .3.1.6.2.8.1.2.3.4.6.6.3.1.5.2.9.2s.6-.1.9-.2c.3-.1.5-.3.6-.6s.2-.5.2-.8zM71 76.7c0 .4-.1.9-.3 1.2s-.5.6-.9.8-.8.3-1.2.3c-.5 0-.9-.1-1.2-.3s-.7-.5-.9-.8-.3-.8-.3-1.2c0-.3 0-.6.1-.9.1-.3.2-.6.4-.8l2.2-3.4h.9L68 74.4c.2-.1.4-.1.7-.1.5 0 .9.1 1.2.3.4.2.7.5.9.8.1.5.2.9.2 1.3zm-.8 0c0-.3-.1-.6-.2-.8s-.3-.4-.6-.6c-.3-.1-.5-.2-.9-.2-.3 0-.6.1-.9.2-.3.1-.4.3-.6.6s-.2.5-.2.8c0 .3.1.6.2.8.1.2.3.4.6.6.3.1.5.2.9.2s.6-.1.9-.2c.3-.1.5-.3.6-.6s.2-.5.2-.8zM77.2 76.7c0 .4-.1.9-.3 1.2s-.5.6-.9.8-.8.3-1.2.3c-.5 0-.9-.1-1.2-.3s-.7-.5-.9-.8-.3-.8-.3-1.2c0-.3 0-.6.1-.9.1-.3.2-.6.4-.8l2.2-3.4h.9l-1.8 2.8c.2-.1.4-.1.7-.1.5 0 .9.1 1.2.3.4.2.7.5.9.8.1.5.2.9.2 1.3zm-.8 0c0-.3-.1-.6-.2-.8s-.3-.4-.6-.6c-.3-.1-.5-.2-.9-.2-.3 0-.6.1-.9.2-.3.1-.4.3-.6.6s-.2.5-.2.8c0 .3.1.6.2.8.1.2.3.4.6.6.3.1.5.2.9.2s.6-.1.9-.2c.3-.1.5-.3.6-.6s.2-.5.2-.8zM79.1 77.9c.2 0 .3.1.4.2s.2.2.2.4-.1.3-.2.4c-.1.1-.2.1-.4.1s-.3-.1-.4-.2c-.1-.1-.2-.2-.2-.4s.1-.3.2-.4.2-.1.4-.1zM85.6 78.2v.8h-4.5v-.7l2.9-3.1c.2-.3.4-.5.5-.7s.2-.5.2-.7c0-.3-.1-.5-.2-.7s-.3-.4-.5-.5-.5-.2-.8-.2c-.3 0-.5.1-.7.2-.2.1-.4.3-.5.5-.1.2-.2.5-.2.7H81c0-.4.1-.8.3-1.1s.4-.6.8-.8.7-.3 1.2-.3c.4 0 .8.1 1.1.3.3.2.6.4.8.8s.3.7.3 1.1c0 .4-.1.7-.2 1s-.4.6-.7 1l-2.4 2.5h3.4z"/></g></svg>