<svg baseProfile="tiny" xmlns="http://www.w3.org/2000/svg" viewBox="0 0 728 90" overflow="visible"><g fill="#193062"><path d="M219.7 12.1h3.1v5.7h5.6v-5.7h3.1v14.6h-3.1v-5.8h-5.6v5.8h-3.1V12.1zM243.7 22.8h-7c.3.9 1.2 1.5 2.3 1.5 1 0 1.7-.5 2.1-1.2l2.4 1.4C242.6 26 241 27 239 27c-3 0-5.2-2.3-5.2-5.2 0-3 2.1-5.3 5.1-5.3 3 0 5.1 2.2 5.1 5.2-.2.3-.2.7-.3 1.1zm-7.1-2.2h4.3c-.3-1-1.1-1.5-2.1-1.5-1.1 0-1.9.6-2.2 1.5zM245.8 11.5h3v15.2h-3V11.5zM261.8 21.7c0 2.9-2.1 5.2-5 5.2-1 0-1.8-.3-2.5-.8V31h-3V16.7h2.9v.6c.7-.5 1.6-.8 2.6-.8 3-.1 5 2.2 5 5.2zm-2.9 0c0-1.4-1-2.4-2.3-2.4-1.4 0-2.4 1-2.4 2.4 0 1.3 1 2.4 2.4 2.4 1.3 0 2.3-1.1 2.3-2.4zM265.3 11.7c1.1 0 1.8.8 1.8 1.8s-.8 1.8-1.8 1.8c-1.1 0-1.8-.8-1.8-1.8-.1-1 .7-1.8 1.8-1.8zm1.5 15h-3v-10h3v10zM278.7 20.4v6.3h-3V21c0-1-.6-1.7-1.7-1.7-1 0-1.7.8-1.7 1.7v5.7h-3v-10h2.9v.6c.7-.5 1.5-.8 2.5-.8 2.3-.1 4 1.6 4 3.9zM290.7 16.7v9.8c0 2.7-2 4.8-5 4.8-2.3 0-4.1-1.3-4.7-3.2l2.7-1c.3.9 1 1.4 2 1.4 1.2 0 2.1-.8 2.1-2v-.7c-.6.5-1.5.7-2.4.7-2.7 0-4.7-2.2-4.7-5s2-5 4.7-5c1 0 1.8.3 2.5.8v-.6h2.8zm-2.9 4.8c0-1.2-.9-2.1-2.1-2.1-1.2 0-2.1.9-2.1 2.1 0 1.1.9 2.1 2.1 2.1 1.2-.1 2.1-1 2.1-2.1zM309.6 21.7c0 2.9-2.1 5.2-5 5.2-1 0-1.8-.3-2.5-.8V31h-3V16.7h2.9v.6c.7-.5 1.6-.8 2.6-.8 2.9-.1 5 2.2 5 5.2zm-3 0c0-1.4-1-2.4-2.3-2.4-1.4 0-2.4 1-2.4 2.4 0 1.3 1 2.4 2.4 2.4s2.3-1.1 2.3-2.4zM317.9 16.7v2.9h-1.5c-1.1 0-1.9.9-1.9 2v5.2h-3V16.7h2.9v.9c.6-.7 1.5-.9 2.3-.9h1.2zM324.2 16.4c3 0 5.3 2.3 5.3 5.3 0 2.9-2.2 5.2-5.3 5.2s-5.3-2.4-5.3-5.2c0-3 2.2-5.3 5.3-5.3zm0 7.7c1.3 0 2.3-1 2.3-2.3 0-1.3-1-2.4-2.3-2.4s-2.3 1-2.3 2.4c-.1 1.2.9 2.3 2.3 2.3zM334.7 16.7h3.1v2.8h-3.1v3.4c0 .7.4 1.1 1.1 1.1h2v2.8h-2.6c-2 0-3.4-1.3-3.4-3.4v-3.9h-1.5V18l2.8-3.4h1.6v2.1zM349.1 22.8h-7c.3.9 1.2 1.5 2.3 1.5 1 0 1.7-.5 2.1-1.2l2.4 1.4c-.9 1.5-2.5 2.5-4.5 2.5-3 0-5.2-2.3-5.2-5.2 0-3 2.1-5.3 5.1-5.3 3 0 5.1 2.2 5.1 5.2-.2.3-.2.7-.3 1.1zm-7.1-2.2h4.3c-.3-1-1.1-1.5-2.1-1.5-1.1 0-1.9.6-2.2 1.5zM355.7 16.4c1.9 0 3.5.9 4.4 2.4l-2.4 1.7c-.4-.7-1.1-1.2-2-1.2-1.3 0-2.3 1-2.3 2.4s1 2.4 2.3 2.4c.9 0 1.5-.5 2-1.1l2.4 1.7c-.9 1.4-2.5 2.4-4.4 2.4-3 0-5.2-2.3-5.2-5.3s2.2-5.4 5.2-5.4zM365.1 16.7h3.1v2.8h-3.1v3.4c0 .7.4 1.1 1.1 1.1h2v2.8h-2.6c-2 0-3.4-1.3-3.4-3.4v-3.9h-1.5V18l2.8-3.4h1.6v2.1zM384.3 16.7L379.2 31h-3.1l1.6-4.5-3.6-9.9h3.2l1.9 5.5 2-5.5h3.1zM390.1 16.4c3 0 5.3 2.3 5.3 5.3 0 2.9-2.2 5.2-5.3 5.2s-5.3-2.4-5.3-5.2c0-3 2.3-5.3 5.3-5.3zm0 7.7c1.3 0 2.3-1 2.3-2.3 0-1.3-1-2.4-2.3-2.4-1.3 0-2.3 1-2.3 2.4 0 1.2 1 2.3 2.3 2.3zM406.5 16.7v10.1h-2.9v-.6c-.7.5-1.5.8-2.4.8-2.3 0-3.9-1.7-3.9-4v-6.3h3v5.7c0 .9.6 1.7 1.7 1.7 1 0 1.7-.8 1.7-1.7v-5.7h2.8zM415.6 16.7v2.9h-1.5c-1.1 0-1.9.9-1.9 2v5.2h-3V16.7h2.9v.9c.6-.7 1.5-.9 2.3-.9h1.2zM424 19.5h-2v-2.8h2v-2c0-1.9 1.3-3.1 3.2-3.1h2.3v2.8h-1.7c-.5 0-.8.3-.8.8v1.5h2.5v2.8H427v7.3h-3v-7.3zM439.3 20.4v6.3h-2.9v-.5c-.6.5-1.4.8-2.5.8-2.1 0-3.5-1.3-3.5-3.2 0-2.1 1.6-3 3.5-3.1l2.5-.2v-.1c0-.7-.7-1.2-1.5-1.2-.7 0-1.3.4-1.5.9h-2.8c.1-2.1 1.9-3.6 4.3-3.6 2.7-.1 4.4 1.6 4.4 3.9zm-2.9 2.8v-.6l-2 .2c-.7.1-1.1.4-1.1.9s.5.9 1.3.9c1.2 0 1.8-.5 1.8-1.4zM456.6 20.2v6.6h-3v-5.9c0-.8-.5-1.5-1.5-1.5-.9 0-1.4.7-1.4 1.5v5.9h-3v-5.9c0-.8-.5-1.5-1.5-1.5-.9 0-1.5.7-1.5 1.5v5.9h-3V16.7h2.9v.5c.6-.4 1.4-.7 2.3-.7 1.1 0 2 .4 2.6 1 .7-.6 1.7-1 2.8-1 2.6-.1 4.3 1.5 4.3 3.7zM460.7 11.7c1.1 0 1.8.8 1.8 1.8s-.8 1.8-1.8 1.8c-1.1 0-1.8-.8-1.8-1.8s.7-1.8 1.8-1.8zm1.5 15h-3v-10h3v10zM464.8 11.5h3v15.2h-3V11.5zM479.4 16.7L474.3 31h-3.1l1.6-4.5-3.6-9.9h3.2l1.9 5.5 2-5.5h3.1zM484.1 13.7c0 .2 0 .5-.1.7l-1.2 3.3h-1.7l.6-2.3c-.7-.2-1.1-.9-1.1-1.7 0-1 .7-1.8 1.8-1.8 1 0 1.7.8 1.7 1.8zM489.1 24.3c.8 0 1.3-.3 1.3-.7 0-.3-.3-.5-.8-.5s-1.1-.1-1.8-.2c-2-.3-2.9-1.5-2.9-3 0-2 1.6-3.4 4.1-3.4 2.4 0 4.1 1.4 4.1 3.4h-2.9c0-.5-.5-.7-1.2-.7s-1.2.3-1.2.7c0 .3.2.4.7.5.6.1 1.1.1 1.9.2 2 .2 2.9 1.5 2.9 3 0 2-1.7 3.5-4.2 3.5s-4.2-1.4-4.2-3.5h2.9c-.1.4.5.7 1.3.7z"/></g><g fill="#193062"><path d="M220.5 43.5h-2v-2.8h2v-2c0-1.9 1.3-3.1 3.2-3.1h2.3v2.8h-1.7c-.5 0-.8.3-.8.8v1.5h2.5v2.8h-2.5v7.3h-3v-7.3zM237 40.7v10.1h-2.9v-.6c-.7.5-1.5.8-2.4.8-2.3 0-3.9-1.7-3.9-4v-6.3h3v5.7c0 .9.6 1.7 1.7 1.7 1 0 1.7-.8 1.7-1.7v-5.7h2.8zM243 40.7h3.1v2.8H243v3.4c0 .7.4 1.1 1.1 1.1h2v2.8h-2.6c-2 0-3.4-1.3-3.4-3.4v-3.9h-1.5V42l2.8-3.4h1.6v2.1zM257.3 40.7v10.1h-2.9v-.6c-.7.5-1.5.8-2.4.8-2.3 0-3.9-1.7-3.9-4v-6.3h3v5.7c0 .9.6 1.7 1.7 1.7 1 0 1.7-.8 1.7-1.7v-5.7h2.8zM266.3 40.7v2.9h-1.5c-1.1 0-1.9.9-1.9 2v5.2h-3V40.7h2.9v.9c.6-.7 1.5-.9 2.3-.9h1.2zM277.3 46.8h-7c.3.9 1.2 1.5 2.3 1.5 1 0 1.7-.5 2.1-1.2l2.4 1.4c-.9 1.5-2.5 2.5-4.5 2.5-3 0-5.2-2.3-5.2-5.2 0-3 2.1-5.3 5.1-5.3 3 0 5.1 2.2 5.1 5.2-.2.3-.2.7-.3 1.1zm-7.1-2.2h4.3c-.3-1-1.1-1.5-2.1-1.5-1.1 0-1.9.6-2.2 1.5zM289.7 40.4c1.9 0 3.5.9 4.4 2.4l-2.4 1.7c-.4-.7-1.1-1.2-2-1.2-1.3 0-2.3 1-2.3 2.4 0 1.3 1 2.4 2.3 2.4.9 0 1.5-.5 2-1.1l2.4 1.7c-.9 1.4-2.5 2.4-4.4 2.4-3 0-5.2-2.3-5.2-5.3 0-3.1 2.2-5.4 5.2-5.4zM300.2 40.4c3 0 5.3 2.3 5.3 5.3 0 2.9-2.2 5.2-5.3 5.2s-5.3-2.4-5.3-5.2c.1-3 2.3-5.3 5.3-5.3zm0 7.7c1.3 0 2.3-1 2.3-2.3 0-1.3-1-2.4-2.3-2.4s-2.3 1-2.3 2.4c0 1.2 1 2.3 2.3 2.3zM316.7 40.7v10.1h-2.9v-.6c-.7.5-1.5.8-2.4.8-2.3 0-3.9-1.7-3.9-4v-6.3h3v5.7c0 .9.6 1.7 1.7 1.7 1 0 1.7-.8 1.7-1.7v-5.7h2.8zM319.3 35.5h3v15.2h-3V35.5zM334.7 35.5v15.2h-2.9v-.6c-.7.5-1.6.8-2.6.8-2.9 0-5-2.3-5-5.2 0-3 2.1-5.3 5-5.3 1 0 1.8.3 2.5.8v-5.7h3zm-2.9 10.2c0-1.4-1-2.4-2.4-2.4-1.3 0-2.3 1-2.3 2.4 0 1.3 1 2.4 2.3 2.4 1.5 0 2.4-1.1 2.4-2.4zM346.7 48.3c.8 0 1.3-.3 1.3-.7 0-.3-.3-.5-.8-.5-.5-.1-1.1-.1-1.8-.2-2-.3-2.9-1.5-2.9-3 0-2 1.6-3.4 4.1-3.4 2.4 0 4.1 1.4 4.1 3.4h-2.9c0-.5-.5-.7-1.2-.7s-1.2.3-1.2.7c0 .3.2.4.7.5.6.1 1.1.1 1.9.2 2 .2 2.9 1.5 2.9 3 0 2-1.7 3.5-4.2 3.5s-4.2-1.4-4.2-3.5h2.9c-.1.4.5.7 1.3.7zM356.1 40.7h3.1v2.8h-3.1v3.4c0 .7.4 1.1 1.1 1.1h2v2.8h-2.6c-2 0-3.4-1.3-3.4-3.4v-3.9h-1.5V42l2.8-3.4h1.6v2.1zM369.6 44.4v6.3h-2.9v-.5c-.6.5-1.4.8-2.5.8-2.1 0-3.5-1.3-3.5-3.2 0-2.1 1.6-3 3.5-3.1l2.5-.2v-.1c0-.7-.7-1.2-1.5-1.2-.7 0-1.3.4-1.5.9h-2.8c.1-2.1 1.9-3.6 4.3-3.6 2.6-.1 4.4 1.6 4.4 3.9zm-2.9 2.8v-.6l-2 .2c-.7.1-1.1.4-1.1.9s.5.9 1.3.9c1.1 0 1.8-.5 1.8-1.4zM378.5 40.7v2.9H377c-1.1 0-1.9.9-1.9 2v5.2h-3V40.7h2.9v.9c.6-.7 1.5-.9 2.3-.9h1.2zM383.8 40.7h3.1v2.8h-3.1v3.4c0 .7.4 1.1 1.1 1.1h2v2.8h-2.6c-2 0-3.4-1.3-3.4-3.4v-3.9h-1.5V42l2.8-3.4h1.6v2.1zM408.8 40.7l-3.3 10.1h-3l-1.3-4.2-1.3 4.2h-3l-3.3-10.1h3.2l1.8 5.7 1.8-5.7h1.9l1.7 5.5 1.8-5.5h3zM411.8 35.7c1.1 0 1.8.8 1.8 1.8s-.8 1.8-1.8 1.8c-1.1 0-1.8-.8-1.8-1.8-.1-1 .7-1.8 1.8-1.8zm1.5 15h-3v-10h3v10zM419.2 40.7h3.1v2.8h-3.1v3.4c0 .7.4 1.1 1.1 1.1h2v2.8h-2.6c-2 0-3.4-1.3-3.4-3.4v-3.9h-1.5V42l2.8-3.4h1.6v2.1zM433.7 44.5v6.3h-3v-5.7c0-1-.6-1.7-1.7-1.7s-1.7.8-1.7 1.7v5.7h-3V35.5h3v5.7c.7-.5 1.5-.8 2.4-.8 2.3 0 4 1.7 4 4.1z"/></g><g fill="#193062"><path d="M222.8 63.2h-4.2v-3H230v3h-4v11.6h-3.1V63.2zM236.5 64.7v2.9H235c-1.1 0-1.9.9-1.9 2v5.2h-3V64.7h2.9v.9c.6-.7 1.5-.9 2.3-.9h1.2zM247.4 64.7v10.1h-2.9v-.6c-.7.5-1.5.8-2.4.8-2.3 0-3.9-1.7-3.9-4v-6.3h3v5.7c0 .9.6 1.7 1.7 1.7 1 0 1.7-.8 1.7-1.7v-5.7h2.8zM254.9 62.9c-1.3 0-2.1.7-2.1 1.5 0 .6.4.9.9 1.1.9.3 2.3.2 3.7.6 1.9.6 3.1 2 3.1 4 0 2.8-2.2 4.8-5.4 4.8-3.1 0-5.5-1.9-5.5-4.7h3.1c0 1.1 1 1.8 2.4 1.8 1.5 0 2.3-.7 2.3-1.7 0-.7-.4-1.1-.9-1.2-.9-.3-2.4-.2-3.7-.6-1.9-.5-3-2-3-3.9 0-2.7 2.1-4.7 5.2-4.7s5.3 1.8 5.3 4.5h-3.1c-.1-.9-1-1.5-2.3-1.5zM265.9 64.7h3.1v2.8h-3.1v3.4c0 .7.4 1.1 1.1 1.1h2v2.8h-2.6c-2 0-3.4-1.3-3.4-3.4v-3.9h-1.5V66l2.8-3.4h1.6v2.1zM279.4 68.4v6.3h-2.9v-.5c-.6.5-1.4.8-2.5.8-2.1 0-3.5-1.3-3.5-3.2 0-2.1 1.6-3 3.5-3.1l2.5-.2v-.1c0-.7-.7-1.2-1.5-1.2-.7 0-1.3.4-1.5.9h-2.8c.1-2.1 1.9-3.6 4.3-3.6 2.6-.1 4.4 1.6 4.4 3.9zm-2.9 2.8v-.6l-2 .2c-.7.1-1.1.4-1.1.9s.5.9 1.3.9c1.1 0 1.8-.5 1.8-1.4zM291.4 64.7v9.8c0 2.7-2 4.8-5 4.8-2.3 0-4.1-1.3-4.7-3.2l2.7-1c.3.9 1 1.4 2 1.4 1.2 0 2.1-.8 2.1-2v-.7c-.6.5-1.5.7-2.4.7-2.7 0-4.7-2.2-4.7-5s2-5 4.7-5c1 0 1.8.3 2.5.8v-.6h2.8zm-2.9 4.8c0-1.2-.9-2.1-2.1-2.1-1.2 0-2.1.9-2.1 2.1 0 1.1.9 2.1 2.1 2.1 1.2-.1 2.1-1 2.1-2.1zM303.3 70.8h-7c.3.9 1.2 1.5 2.3 1.5 1 0 1.7-.5 2.1-1.2l2.4 1.4c-.9 1.5-2.5 2.5-4.5 2.5-3 0-5.2-2.3-5.2-5.2 0-3 2.1-5.3 5.1-5.3 3 0 5.1 2.2 5.1 5.2-.1.3-.2.7-.3 1.1zm-7-2.2h4.3c-.3-1-1.1-1.5-2.1-1.5-1.2 0-2 .6-2.2 1.5zM306.4 61.8h-1.6v-1.6h4.9v1.6h-1.6v4.1h-1.7v-4.1zm4.1-1.7h1.7l1.3 2.6 1.3-2.6h1.7v5.7h-1.7v-2.6l-1.3 2.7-1.3-2.7v2.6h-1.6v-5.7zM324 60.1h3.1v11.6h8.3v3H324V60.1zM338.9 59.7c1.1 0 1.8.8 1.8 1.8s-.8 1.8-1.8 1.8c-1.1 0-1.8-.8-1.8-1.8-.1-1 .7-1.8 1.8-1.8zm1.5 15h-3v-10h3v10zM344 67.5h-2v-2.8h2v-2c0-1.9 1.3-3.1 3.2-3.1h2.3v2.8h-1.7c-.5 0-.8.3-.8.8v1.5h2.5v2.8H347v7.3h-3v-7.3zM360.4 70.8h-7c.3.9 1.2 1.5 2.3 1.5 1 0 1.7-.5 2.1-1.2l2.4 1.4c-.9 1.5-2.5 2.5-4.5 2.5-3 0-5.2-2.3-5.2-5.2 0-3 2.1-5.3 5.1-5.3 3 0 5.1 2.2 5.1 5.2-.2.3-.2.7-.3 1.1zm-7.1-2.2h4.3c-.3-1-1.1-1.5-2.1-1.5-1.1 0-1.9.6-2.2 1.5zM368.4 60.1h3.1v14.6h-3.1V60.1zM383.7 68.4v6.3h-3V69c0-1-.6-1.7-1.7-1.7s-1.7.8-1.7 1.7v5.7h-3v-10h2.9v.6c.7-.5 1.5-.8 2.5-.8 2.3-.1 4 1.6 4 3.9zM389.9 72.3c.8 0 1.3-.3 1.3-.7 0-.3-.3-.5-.8-.5-.5-.1-1.1-.1-1.8-.2-2-.3-2.9-1.5-2.9-3 0-2 1.6-3.4 4.1-3.4 2.4 0 4.1 1.4 4.1 3.4H391c0-.5-.5-.7-1.2-.7s-1.2.3-1.2.7c0 .3.2.4.7.5.6.1 1.1.1 1.9.2 2 .2 2.9 1.5 2.9 3 0 2-1.7 3.5-4.2 3.5s-4.2-1.4-4.2-3.5h2.9c-.1.4.5.7 1.3.7zM405.2 64.7v10.1h-2.9v-.6c-.7.5-1.5.8-2.4.8-2.3 0-3.9-1.7-3.9-4v-6.3h3v5.7c0 .9.6 1.7 1.7 1.7 1 0 1.7-.8 1.7-1.7v-5.7h2.8zM414.2 64.7v2.9h-1.5c-1.1 0-1.9.9-1.9 2v5.2h-3V64.7h2.9v.9c.6-.7 1.5-.9 2.3-.9h1.2zM424 68.4v6.3h-2.9v-.5c-.6.5-1.4.8-2.5.8-2.1 0-3.5-1.3-3.5-3.2 0-2.1 1.6-3 3.5-3.1l2.5-.2v-.1c0-.7-.7-1.2-1.5-1.2-.7 0-1.3.4-1.5.9h-2.8c.1-2.1 1.9-3.6 4.3-3.6 2.6-.1 4.4 1.6 4.4 3.9zm-2.9 2.8v-.6l-2 .2c-.7.1-1.1.4-1.1.9s.5.9 1.3.9c1.1 0 1.8-.5 1.8-1.4zM435.9 68.4v6.3h-3V69c0-1-.6-1.7-1.7-1.7s-1.7.8-1.7 1.7v5.7h-3v-10h2.9v.6c.7-.5 1.5-.8 2.5-.8 2.3-.1 4 1.6 4 3.9zM443 64.4c1.9 0 3.5.9 4.4 2.4l-2.4 1.7c-.4-.7-1.1-1.2-2-1.2-1.3 0-2.3 1-2.3 2.4 0 1.3 1 2.4 2.3 2.4.9 0 1.5-.5 2-1.1l2.4 1.7c-.9 1.4-2.5 2.4-4.4 2.4-3 0-5.2-2.3-5.2-5.3s2.2-5.4 5.2-5.4zM458.3 70.8h-7c.3.9 1.2 1.5 2.3 1.5 1 0 1.7-.5 2.1-1.2l2.4 1.4c-.9 1.5-2.5 2.5-4.5 2.5-3 0-5.2-2.3-5.2-5.2 0-3 2.1-5.3 5.1-5.3 3 0 5.1 2.2 5.1 5.2-.2.3-.2.7-.3 1.1zm-7.1-2.2h4.3c-.3-1-1.1-1.5-2.1-1.5-1.1 0-1.9.6-2.2 1.5zM461.9 71.2c1.1 0 1.8.8 1.8 1.8s-.8 1.8-1.8 1.8c-1.1 0-1.8-.8-1.8-1.8-.1-1 .7-1.8 1.8-1.8z"/></g></svg>