<svg baseProfile="tiny" xmlns="http://www.w3.org/2000/svg" viewBox="0 0 728 90" overflow="visible"><path fill="#FAE07E" d="M568 24.7h131.4v37.2H568z"/><g fill="#193062"><path d="M593.1 43.2v.4c0 1.1-.2 2-.7 2.8-.5.8-1.1 1.5-1.9 2s-1.8.7-2.8.7c-1.1 0-2-.2-2.9-.7-.8-.5-1.5-1.2-2-2-.5-.9-.7-1.8-.7-2.9 0-1 .2-2 .7-2.9.5-.9 1.2-1.5 2-2 .9-.5 1.8-.7 2.9-.7.7 0 1.4.1 2 .3.6.2 1.2.5 1.7.9s.9.9 1.2 1.5l-1.8 1.1c-.3-.5-.7-1-1.2-1.3s-1.1-.5-1.8-.5-1.3.2-1.8.5-.9.7-1.2 1.3c-.3.5-.5 1.1-.5 1.8s.1 1.3.4 1.9.7 1 1.2 1.3c.5.3 1.1.5 1.8.5s1.3-.2 1.9-.5.9-.8 1.2-1.3H587v-2h6.1zM594.8 38h8.5v2.1h-6.4v2.3h3.5v2.1h-3.5v2.4h6.4V49h-8.5V38zM607.6 40.1h-3.2V38h8.5v2.1h-3.2v8.8h-2.1v-8.8zM624.3 47.3h-4.1l-.5 1.6h-2.1l3.6-10.9h2.2l3.6 10.9h-2.2l-.5-1.6zm-.7-2l-1.4-4.1-1.4 4.1h2.8zM643.5 46.9v2h-1l-1.4-1.1c-.5.4-1 .7-1.7.9-.6.2-1.3.3-2 .3-1.1 0-2-.2-2.9-.7-.9-.5-1.5-1.2-2-2-.5-.9-.7-1.8-.7-2.9s.2-2 .7-2.9c.5-.9 1.2-1.5 2-2 .9-.5 1.8-.7 2.9-.7s2 .2 2.9.7c.9.5 1.5 1.2 2 2 .5.9.7 1.8.7 2.9 0 1-.2 1.9-.7 2.7l1.2.8zm-4.2-.4l-1.1-.8 1.3-1.7 1.1.9c.2-.4.3-.9.3-1.4 0-.7-.1-1.3-.4-1.8s-.7-1-1.2-1.3c-.5-.3-1.1-.5-1.8-.5s-1.3.2-1.8.5-.9.7-1.2 1.3c-.3.5-.5 1.1-.5 1.8s.1 1.3.5 1.8c.3.5.7 1 1.2 1.3.5.3 1.1.5 1.8.5.7-.1 1.3-.3 1.8-.6zM653.7 44.8c0 .8-.2 1.5-.6 2.2s-.9 1.2-1.6 1.5c-.7.4-1.4.6-2.2.6a4.645 4.645 0 0 1-3.9-2.1c-.4-.7-.6-1.4-.6-2.2V38h2.1v6.7c0 .4.1.8.3 1.2.2.3.5.6.8.8.3.2.7.3 1.2.3.4 0 .8-.1 1.2-.3.3-.2.6-.5.8-.8.2-.3.3-.7.3-1.2V38h2.1v6.8zM661 37.8c1.1 0 2 .2 2.9.7.9.5 1.5 1.2 2 2 .5.9.7 1.8.7 2.9s-.2 2-.7 2.9c-.5.9-1.2 1.5-2 2-.9.5-1.8.7-2.9.7-1.1 0-2-.2-2.9-.7-.9-.5-1.5-1.2-2-2-.5-.9-.7-1.8-.7-2.9s.2-2 .7-2.9c.5-.9 1.2-1.5 2-2s1.8-.7 2.9-.7zm0 9.2c.7 0 1.3-.2 1.8-.5s.9-.7 1.2-1.3c.3-.5.4-1.1.4-1.8s-.1-1.3-.4-1.8-.7-1-1.2-1.3c-.5-.3-1.1-.5-1.8-.5s-1.3.2-1.8.5-.9.7-1.2 1.3c-.3.5-.5 1.1-.5 1.8s.1 1.3.5 1.8c.3.5.7 1 1.2 1.3.5.3 1.1.5 1.8.5zM670.4 40.1h-3.2V38h8.5v2.1h-3.2v8.8h-2.1v-8.8zM677 38h8.5v2.1h-6.4v2.3h3.5v2.1h-3.5v2.4h6.4V49H677V38z"/></g></svg>