<?xml version="1.0" encoding="utf-8"?>
<!-- Generator: Adobe Illustrator 27.4.0, SVG Export Plug-In . SVG Version: 6.00 Build 0)  -->
<svg version="1.1" baseProfile="tiny" id="Layer_1" xmlns="http://www.w3.org/2000/svg" xmlns:xlink="http://www.w3.org/1999/xlink"
	 x="0px" y="0px" viewBox="0 0 300 600" overflow="visible" xml:space="preserve">
<g>
	<path fill="#231F20" d="M16.1,510.5c0,0.6-0.2,1.1-0.4,1.6c-0.3,0.5-0.6,0.9-1.1,1.1c-0.5,0.3-1,0.4-1.6,0.4
		c-0.6,0-1.2-0.1-1.7-0.4c-0.5-0.3-0.9-0.7-1.2-1.2c-0.3-0.5-0.4-1.1-0.4-1.7c0-0.6,0.1-1.2,0.4-1.7c0.3-0.5,0.7-0.9,1.2-1.2
		c0.5-0.3,1.1-0.4,1.7-0.4c0.6,0,1.2,0.1,1.7,0.4c0.5,0.3,0.9,0.7,1.2,1.2l-0.6,0.4c-0.2-0.4-0.5-0.7-0.9-0.9
		c-0.4-0.2-0.8-0.3-1.3-0.3c-0.5,0-1,0.1-1.4,0.3c-0.4,0.2-0.7,0.6-0.9,1c-0.2,0.4-0.3,0.9-0.3,1.4c0,0.5,0.1,1,0.3,1.4
		s0.5,0.7,0.9,1s0.9,0.3,1.4,0.3c0.4,0,0.8-0.1,1.1-0.2c0.3-0.2,0.6-0.4,0.8-0.6c0.2-0.3,0.4-0.6,0.5-1h-2.8v-0.6H16.1z"/>
	<path fill="#231F20" d="M17.2,507h4.9v0.7h-4.2v2.3h2.4v0.7h-2.4v2.3h4.2v0.7h-4.9V507z"/>
	<path fill="#231F20" d="M28.4,507v6.6h-0.7l-3.6-5.4v5.4h-0.7V507h0.7l3.6,5.4V507H28.4z"/>
	<path fill="#231F20" d="M31.7,510.7v0.6h-2.1v-0.6H31.7z"/>
	<path fill="#231F20" d="M37.1,511.6c0,0.4-0.1,0.8-0.3,1.1c-0.2,0.3-0.4,0.6-0.8,0.8c-0.3,0.2-0.7,0.3-1.1,0.3
		c-0.4,0-0.8-0.1-1.1-0.3c-0.3-0.2-0.6-0.4-0.8-0.7s-0.3-0.7-0.3-1.1h0.7c0,0.3,0.1,0.5,0.2,0.7c0.1,0.2,0.3,0.4,0.5,0.5
		c0.2,0.1,0.5,0.2,0.8,0.2c0.3,0,0.5-0.1,0.8-0.2c0.2-0.1,0.4-0.3,0.5-0.5c0.1-0.2,0.2-0.5,0.2-0.7s-0.1-0.5-0.2-0.7
		s-0.3-0.4-0.5-0.5c-0.2-0.1-0.5-0.2-0.8-0.2h-1.8l0.4-3.2h3.3v0.7h-2.7l-0.2,1.8H35c0.4,0,0.8,0.1,1.1,0.3c0.3,0.2,0.6,0.4,0.7,0.7
		C37,510.8,37.1,511.2,37.1,511.6z"/>
	<path fill="#231F20" d="M42.7,511.5c0,0.4-0.1,0.8-0.3,1.1s-0.4,0.6-0.8,0.8s-0.7,0.3-1.1,0.3c-0.4,0-0.8-0.1-1.1-0.3
		s-0.6-0.4-0.8-0.8c-0.2-0.3-0.3-0.7-0.3-1.1c0-0.3,0-0.5,0.1-0.8c0.1-0.3,0.2-0.5,0.3-0.7l2-3.1h0.8l-1.7,2.5
		c0.2,0,0.4-0.1,0.6-0.1c0.4,0,0.8,0.1,1.1,0.3c0.3,0.2,0.6,0.4,0.8,0.7C42.6,510.8,42.7,511.1,42.7,511.5z M42.1,511.5
		c0-0.3-0.1-0.5-0.2-0.8c-0.1-0.2-0.3-0.4-0.5-0.5c-0.2-0.1-0.5-0.2-0.8-0.2c-0.3,0-0.5,0.1-0.8,0.2c-0.2,0.1-0.4,0.3-0.5,0.5
		c-0.1,0.2-0.2,0.5-0.2,0.8c0,0.3,0.1,0.5,0.2,0.8c0.1,0.2,0.3,0.4,0.5,0.5c0.2,0.1,0.5,0.2,0.8,0.2s0.5-0.1,0.8-0.2
		c0.2-0.1,0.4-0.3,0.5-0.5C42,512.1,42.1,511.8,42.1,511.5z"/>
	<path fill="#231F20" d="M45.3,507.7l-1.8,1.1v-0.7l1.8-1.1H46v6.6h-0.7V507.7z"/>
	<path fill="#231F20" d="M52.4,510.8v0.7h-1.3v2.1h-0.7v-2.1h-3v-0.6l2.9-4h0.7v3.8H52.4z M50.5,510.8V508l-2.1,2.9H50.5z"/>
	<path fill="#231F20" d="M57.2,511.7c0,0.4-0.1,0.7-0.3,1c-0.2,0.3-0.4,0.5-0.7,0.7c-0.3,0.2-0.6,0.2-1,0.2c-0.4,0-0.7-0.1-1-0.2
		c-0.3-0.2-0.5-0.4-0.7-0.7c-0.2-0.3-0.3-0.6-0.3-1h0.7c0,0.2,0.1,0.4,0.2,0.6c0.1,0.2,0.3,0.3,0.5,0.4c0.2,0.1,0.4,0.2,0.7,0.2
		c0.3,0,0.5-0.1,0.7-0.2s0.4-0.3,0.5-0.4s0.2-0.4,0.2-0.6c0-0.2-0.1-0.5-0.2-0.6c-0.1-0.2-0.3-0.3-0.5-0.4c-0.2-0.1-0.4-0.2-0.7-0.2
		h-0.7v-0.7h0.7c0.2,0,0.4,0,0.6-0.1c0.2-0.1,0.3-0.2,0.4-0.4s0.2-0.4,0.2-0.6c0-0.2-0.1-0.4-0.2-0.6c-0.1-0.2-0.2-0.3-0.4-0.4
		c-0.2-0.1-0.4-0.1-0.6-0.1c-0.2,0-0.4,0-0.6,0.1s-0.3,0.2-0.4,0.4c-0.1,0.2-0.2,0.4-0.2,0.6h-0.7c0-0.3,0.1-0.6,0.2-0.9
		c0.2-0.3,0.4-0.5,0.7-0.6c0.3-0.2,0.6-0.2,1-0.2c0.4,0,0.7,0.1,1,0.2c0.3,0.2,0.5,0.4,0.7,0.6c0.2,0.3,0.2,0.6,0.2,0.9
		c0,0.3-0.1,0.6-0.2,0.9c-0.1,0.3-0.3,0.5-0.6,0.6c0.3,0.2,0.5,0.4,0.7,0.7C57.2,511.1,57.2,511.4,57.2,511.7z"/>
	<path fill="#231F20" d="M58.7,508.7c0-0.3,0.1-0.6,0.3-0.9c0.2-0.3,0.4-0.5,0.7-0.7s0.6-0.2,1-0.2s0.7,0.1,1,0.2s0.5,0.4,0.7,0.7
		s0.3,0.6,0.3,0.9c0,0.4,0.1,1,0.1,1.6c0,0.6,0,1.1-0.1,1.6c0,0.3-0.1,0.6-0.3,0.9c-0.2,0.3-0.4,0.5-0.7,0.7s-0.6,0.2-1,0.2
		s-0.7-0.1-1-0.2s-0.5-0.4-0.7-0.7c-0.2-0.3-0.3-0.6-0.3-0.9c0-0.4-0.1-1-0.1-1.6C58.7,509.6,58.7,509.1,58.7,508.7z M59.4,511.8
		c0,0.2,0.1,0.4,0.2,0.6s0.3,0.3,0.5,0.4c0.2,0.1,0.4,0.2,0.6,0.2s0.5-0.1,0.6-0.2c0.2-0.1,0.3-0.2,0.5-0.4s0.2-0.4,0.2-0.6
		c0-0.2,0-0.3,0-0.6s0-0.5,0-1s0-0.7,0-1c0-0.2,0-0.4,0-0.6c0-0.2-0.1-0.4-0.2-0.6s-0.3-0.3-0.5-0.4c-0.2-0.1-0.4-0.2-0.6-0.2
		s-0.5,0.1-0.6,0.2c-0.2,0.1-0.3,0.2-0.5,0.4s-0.2,0.4-0.2,0.6c0,0.1,0,0.3,0,0.6c0,0.2,0,0.5,0,1s0,0.7,0,1S59.4,511.6,59.4,511.8z
		"/>
	<path fill="#231F20" d="M64.4,508.7c0-0.3,0.1-0.6,0.3-0.9c0.2-0.3,0.4-0.5,0.7-0.7s0.6-0.2,1-0.2s0.7,0.1,1,0.2s0.5,0.4,0.7,0.7
		s0.3,0.6,0.3,0.9c0,0.4,0.1,1,0.1,1.6c0,0.6,0,1.1-0.1,1.6c0,0.3-0.1,0.6-0.3,0.9c-0.2,0.3-0.4,0.5-0.7,0.7s-0.6,0.2-1,0.2
		s-0.7-0.1-1-0.2s-0.5-0.4-0.7-0.7c-0.2-0.3-0.3-0.6-0.3-0.9c0-0.4-0.1-1-0.1-1.6C64.3,509.6,64.4,509.1,64.4,508.7z M65.1,511.8
		c0,0.2,0.1,0.4,0.2,0.6s0.3,0.3,0.5,0.4c0.2,0.1,0.4,0.2,0.6,0.2s0.5-0.1,0.6-0.2c0.2-0.1,0.3-0.2,0.5-0.4s0.2-0.4,0.2-0.6
		c0-0.2,0-0.3,0-0.6s0-0.5,0-1s0-0.7,0-1c0-0.2,0-0.4,0-0.6c0-0.2-0.1-0.4-0.2-0.6s-0.3-0.3-0.5-0.4c-0.2-0.1-0.4-0.2-0.6-0.2
		s-0.5,0.1-0.6,0.2c-0.2,0.1-0.3,0.2-0.5,0.4s-0.2,0.4-0.2,0.6c0,0.1,0,0.3,0,0.6c0,0.2,0,0.5,0,1s0,0.7,0,1S65,511.6,65.1,511.8z"
		/>
	<path fill="#231F20" d="M70.3,512.6c0.2,0,0.3,0,0.4,0.1s0.1,0.2,0.1,0.4s0,0.3-0.1,0.4c-0.1,0.1-0.2,0.1-0.4,0.1s-0.3,0-0.4-0.1
		c-0.1-0.1-0.1-0.2-0.1-0.4s0-0.3,0.1-0.4C70.1,512.6,70.2,512.6,70.3,512.6z"/>
	<path fill="#231F20" d="M73.7,507.7l-1.8,1.1v-0.7l1.8-1.1h0.7v6.6h-0.7V507.7z"/>
</g>
</svg>
