<?xml version="1.0" encoding="utf-8"?>
<!-- Generator: Adobe Illustrator 27.4.0, SVG Export Plug-In . SVG Version: 6.00 Build 0)  -->
<svg version="1.1" baseProfile="tiny" id="Layer_1" xmlns="http://www.w3.org/2000/svg" xmlns:xlink="http://www.w3.org/1999/xlink"
	 x="0px" y="0px" viewBox="0 0 300 600" overflow="visible" xml:space="preserve">
<g>
	<path fill="#454547" d="M18.7,408.5h6.5v1.3h-5v4h4.6v1.3h-4.6v5.5h-1.6V408.5z"/>
	<path fill="#454547" d="M28.7,409.5c0,0.5-0.4,1-1,1c-0.6,0-1-0.4-1-1c0-0.6,0.4-1,1-1C28.3,408.5,28.7,409,28.7,409.5z
		 M26.9,420.7V412h1.6v8.7H26.9z"/>
	<path fill="#454547" d="M31.2,414.3c0-0.9,0-1.6-0.1-2.4h1.4l0.1,1.4h0c0.4-0.8,1.4-1.6,2.9-1.6c1.2,0,3.1,0.7,3.1,3.7v5.2H37v-5
		c0-1.4-0.5-2.6-2-2.6c-1,0-1.9,0.7-2.1,1.6c-0.1,0.2-0.1,0.5-0.1,0.7v5.2h-1.6V414.3z"/>
	<path fill="#454547" d="M42.9,409.5c0,0.5-0.4,1-1,1c-0.6,0-1-0.4-1-1c0-0.6,0.4-1,1-1C42.5,408.5,42.9,409,42.9,409.5z
		 M41.2,420.7V412h1.6v8.7H41.2z"/>
	<path fill="#454547" d="M45.1,419.1c0.5,0.3,1.3,0.6,2.1,0.6c1.2,0,1.7-0.6,1.7-1.3c0-0.8-0.5-1.2-1.6-1.6
		c-1.6-0.6-2.3-1.4-2.3-2.5c0-1.4,1.1-2.6,3-2.6c0.9,0,1.7,0.3,2.1,0.5l-0.4,1.2c-0.3-0.2-1-0.5-1.8-0.5c-0.9,0-1.5,0.5-1.5,1.2
		c0,0.7,0.5,1,1.7,1.5c1.5,0.6,2.3,1.3,2.3,2.6c0,1.5-1.2,2.6-3.3,2.6c-1,0-1.8-0.2-2.4-0.6L45.1,419.1z"/>
	<path fill="#454547" d="M52.5,407.9h1.6v5.4h0c0.3-0.4,0.6-0.8,1.1-1.1c0.5-0.3,1-0.5,1.6-0.5c1.2,0,3,0.7,3,3.7v5.2h-1.6v-5
		c0-1.4-0.5-2.6-2-2.6c-1,0-1.8,0.7-2.1,1.6c-0.1,0.2-0.1,0.5-0.1,0.8v5.3h-1.6V407.9z"/>
	<path fill="#454547" d="M66.9,412l1.9,5.1c0.2,0.6,0.4,1.3,0.6,1.8h0c0.2-0.5,0.3-1.2,0.6-1.8l1.7-5.1h1.7l-2.4,6.2
		c-1.1,3-1.9,4.5-3,5.5c-0.8,0.7-1.5,1-1.9,1l-0.4-1.3c0.4-0.1,0.9-0.4,1.4-0.8c0.4-0.3,1-1,1.3-1.8c0.1-0.2,0.1-0.3,0.1-0.4
		c0-0.1,0-0.2-0.1-0.4l-3.2-8H66.9z"/>
	<path fill="#454547" d="M82.5,416.2c0,3.2-2.2,4.6-4.3,4.6c-2.4,0-4.2-1.7-4.2-4.5c0-2.9,1.9-4.6,4.3-4.6
		C80.8,411.8,82.5,413.6,82.5,416.2z M75.6,416.3c0,1.9,1.1,3.3,2.6,3.3c1.5,0,2.6-1.4,2.6-3.4c0-1.5-0.7-3.3-2.6-3.3
		C76.4,413,75.6,414.7,75.6,416.3z"/>
	<path fill="#454547" d="M91.8,418.3c0,0.9,0,1.7,0.1,2.4h-1.4l-0.1-1.4h0c-0.4,0.7-1.3,1.6-2.9,1.6c-1.4,0-3-0.8-3-3.8V412H86v4.8
		c0,1.7,0.5,2.8,1.9,2.8c1.1,0,1.8-0.7,2.1-1.4c0.1-0.2,0.1-0.5,0.1-0.8V412h1.6V418.3z"/>
	<path fill="#454547" d="M94.4,414.7c0-1,0-1.9-0.1-2.7h1.4l0.1,1.7h0.1c0.4-1.2,1.4-1.9,2.4-1.9c0.2,0,0.3,0,0.5,0.1v1.5
		c-0.2,0-0.3-0.1-0.5-0.1c-1.1,0-1.9,0.8-2.1,2c0,0.2-0.1,0.5-0.1,0.7v4.6h-1.6V414.7z"/>
	<path fill="#454547" d="M104.1,414.3c0-0.9,0-1.6-0.1-2.4h1.4l0.1,1.4h0c0.4-0.8,1.4-1.6,2.9-1.6c1.2,0,3.1,0.7,3.1,3.7v5.2h-1.6
		v-5c0-1.4-0.5-2.6-2-2.6c-1,0-1.9,0.7-2.1,1.6c-0.1,0.2-0.1,0.5-0.1,0.7v5.2h-1.6V414.3z"/>
	<path fill="#454547" d="M122,416.2c0,3.2-2.2,4.6-4.3,4.6c-2.4,0-4.2-1.7-4.2-4.5c0-2.9,1.9-4.6,4.3-4.6
		C120.3,411.8,122,413.6,122,416.2z M115.1,416.3c0,1.9,1.1,3.3,2.6,3.3c1.5,0,2.6-1.4,2.6-3.4c0-1.5-0.7-3.3-2.6-3.3
		C115.9,413,115.1,414.7,115.1,416.3z"/>
	<path fill="#454547" d="M127.9,415.2v1.2h-4.4v-1.2H127.9z"/>
	<path fill="#454547" d="M136.3,420.4c-0.4,0.2-1.3,0.5-2.5,0.5c-2.6,0-4.3-1.8-4.3-4.4c0-2.7,1.8-4.6,4.7-4.6
		c0.9,0,1.8,0.2,2.2,0.5l-0.4,1.2c-0.4-0.2-1-0.4-1.8-0.4c-2,0-3.1,1.5-3.1,3.3c0,2,1.3,3.3,3,3.3c0.9,0,1.5-0.2,1.9-0.4
		L136.3,420.4z"/>
	<path fill="#454547" d="M145.9,416.2c0,3.2-2.2,4.6-4.3,4.6c-2.4,0-4.2-1.7-4.2-4.5c0-2.9,1.9-4.6,4.3-4.6
		C144.2,411.8,145.9,413.6,145.9,416.2z M139,416.3c0,1.9,1.1,3.3,2.6,3.3c1.5,0,2.6-1.4,2.6-3.4c0-1.5-0.7-3.3-2.6-3.3
		C139.8,413,139,414.7,139,416.3z"/>
	<path fill="#454547" d="M147.7,419.1c0.5,0.3,1.3,0.6,2.1,0.6c1.2,0,1.7-0.6,1.7-1.3c0-0.8-0.5-1.2-1.6-1.6
		c-1.6-0.6-2.3-1.4-2.3-2.5c0-1.4,1.1-2.6,3-2.6c0.9,0,1.7,0.3,2.1,0.5l-0.4,1.2c-0.3-0.2-1-0.5-1.8-0.5c-0.9,0-1.5,0.5-1.5,1.2
		c0,0.7,0.5,1,1.7,1.5c1.5,0.6,2.3,1.3,2.3,2.6c0,1.5-1.2,2.6-3.3,2.6c-1,0-1.8-0.2-2.4-0.6L147.7,419.1z"/>
	<path fill="#454547" d="M157,409.5v2.5h2.3v1.2H157v4.7c0,1.1,0.3,1.7,1.2,1.7c0.4,0,0.7-0.1,0.9-0.1l0.1,1.2
		c-0.3,0.1-0.8,0.2-1.4,0.2c-0.7,0-1.3-0.2-1.7-0.7c-0.5-0.5-0.6-1.2-0.6-2.3v-4.8h-1.4V412h1.4v-2.1L157,409.5z"/>
	<path fill="#454547" d="M170.8,419.3L170.8,419.3c-0.5,0.9-1.5,1.5-2.9,1.5c-2,0-3.7-1.8-3.7-4.4c0-3.3,2.1-4.7,3.9-4.7
		c1.4,0,2.3,0.7,2.7,1.5h0l0.1-1.3h1.5c0,0.7-0.1,1.5-0.1,2.4v9.9h-1.6V419.3z M170.8,415.5c0-0.2,0-0.5-0.1-0.7
		c-0.2-1-1.1-1.8-2.3-1.8c-1.6,0-2.6,1.4-2.6,3.3c0,1.7,0.8,3.2,2.6,3.2c1,0,1.9-0.6,2.3-1.7c0.1-0.2,0.1-0.5,0.1-0.8V415.5z"/>
	<path fill="#454547" d="M182.3,418.3c0,0.9,0,1.7,0.1,2.4h-1.4l-0.1-1.4h0c-0.4,0.7-1.3,1.6-2.9,1.6c-1.4,0-3-0.8-3-3.8V412h1.6
		v4.8c0,1.7,0.5,2.8,1.9,2.8c1.1,0,1.8-0.7,2.1-1.4c0.1-0.2,0.1-0.5,0.1-0.8V412h1.6V418.3z"/>
	<path fill="#454547" d="M192.8,416.2c0,3.2-2.2,4.6-4.3,4.6c-2.4,0-4.2-1.7-4.2-4.5c0-2.9,1.9-4.6,4.3-4.6
		C191.1,411.8,192.8,413.6,192.8,416.2z M185.9,416.3c0,1.9,1.1,3.3,2.6,3.3c1.5,0,2.6-1.4,2.6-3.4c0-1.5-0.7-3.3-2.6-3.3
		C186.7,413,185.9,414.7,185.9,416.3z"/>
	<path fill="#454547" d="M196.7,409.5v2.5h2.3v1.2h-2.3v4.7c0,1.1,0.3,1.7,1.2,1.7c0.4,0,0.7-0.1,0.9-0.1l0.1,1.2
		c-0.3,0.1-0.8,0.2-1.4,0.2c-0.7,0-1.3-0.2-1.7-0.7c-0.5-0.5-0.6-1.2-0.6-2.3v-4.8h-1.4V412h1.4v-2.1L196.7,409.5z"/>
	<path fill="#454547" d="M201.5,416.6c0,2.1,1.4,3,3,3c1.1,0,1.8-0.2,2.4-0.5l0.3,1.1c-0.6,0.3-1.5,0.5-2.9,0.5
		c-2.7,0-4.3-1.8-4.3-4.4c0-2.6,1.5-4.7,4.1-4.7c2.8,0,3.6,2.5,3.6,4.1c0,0.3,0,0.6-0.1,0.7H201.5z M206.2,415.5
		c0-1-0.4-2.6-2.2-2.6c-1.6,0-2.3,1.5-2.4,2.6H206.2z"/>
	<path fill="#454547" d="M209.1,419.7c0-0.7,0.5-1.1,1.1-1.1s1.1,0.5,1.1,1.1c0,0.6-0.4,1.1-1.1,1.1
		C209.5,420.9,209.1,420.4,209.1,419.7z"/>
</g>
</svg>
