<?xml version="1.0" encoding="utf-8"?>
<!-- Generator: Adobe Illustrator 27.4.0, SVG Export Plug-In . SVG Version: 6.00 Build 0)  -->
<svg version="1.1" baseProfile="tiny" id="Layer_1" xmlns="http://www.w3.org/2000/svg" xmlns:xlink="http://www.w3.org/1999/xlink"
	 x="0px" y="0px" viewBox="0 0 300 600" overflow="visible" xml:space="preserve">
<g>
	<path fill="#193062" d="M30.2,258.9h-7.6l-1,2.9h-4l6.7-20.4h4.1l6.7,20.4h-4.1L30.2,258.9z M28.9,255.1l-2.5-7.7l-2.5,7.7H28.9z"
		/>
	<path fill="#193062" d="M52,254.8c0,1.3-0.3,2.6-0.9,3.7c-0.6,1.1-1.4,2-2.5,2.7c-1.1,0.7-2.3,1-3.6,1c-0.7,0-1.4-0.1-2.1-0.3
		c-0.6-0.2-1.2-0.5-1.7-0.9v6.9h-3.8v-20h3.8v1c0.5-0.4,1.1-0.7,1.7-1c0.7-0.2,1.4-0.3,2.1-0.3c1.3,0,2.5,0.3,3.6,1
		c1.1,0.6,1.9,1.5,2.5,2.7C51.7,252.2,52,253.4,52,254.8z M48.2,254.8c0-0.7-0.2-1.3-0.5-1.9c-0.3-0.6-0.7-1-1.3-1.3
		c-0.5-0.3-1.1-0.5-1.8-0.5c-0.7,0-1.3,0.2-1.9,0.5c-0.5,0.3-1,0.8-1.3,1.3s-0.5,1.2-0.5,1.9c0,0.7,0.2,1.3,0.5,1.8
		c0.3,0.6,0.7,1,1.3,1.3c0.5,0.3,1.2,0.5,1.9,0.5c0.7,0,1.3-0.2,1.8-0.5c0.5-0.3,1-0.8,1.3-1.3C48.1,256.1,48.2,255.5,48.2,254.8z"
		/>
	<path fill="#193062" d="M69.5,254.8c0,1.3-0.3,2.6-0.9,3.7c-0.6,1.1-1.4,2-2.5,2.7c-1.1,0.7-2.3,1-3.6,1c-0.7,0-1.4-0.1-2.1-0.3
		c-0.6-0.2-1.2-0.5-1.7-0.9v6.9h-3.8v-20h3.8v1c0.5-0.4,1.1-0.7,1.7-1c0.7-0.2,1.4-0.3,2.1-0.3c1.3,0,2.5,0.3,3.6,1
		c1.1,0.6,1.9,1.5,2.5,2.7C69.2,252.2,69.5,253.4,69.5,254.8z M65.7,254.8c0-0.7-0.2-1.3-0.5-1.9c-0.3-0.6-0.7-1-1.3-1.3
		c-0.5-0.3-1.1-0.5-1.8-0.5c-0.7,0-1.3,0.2-1.9,0.5c-0.5,0.3-1,0.8-1.3,1.3s-0.5,1.2-0.5,1.9c0,0.7,0.2,1.3,0.5,1.8
		c0.3,0.6,0.7,1,1.3,1.3c0.5,0.3,1.2,0.5,1.9,0.5c0.7,0,1.3-0.2,1.8-0.5c0.5-0.3,1-0.8,1.3-1.3C65.5,256.1,65.7,255.5,65.7,254.8z"
		/>
	<path fill="#193062" d="M72.3,240.5h3.8v21.3h-3.8V240.5z"/>
	<path fill="#193062" d="M92.4,247.7l-7.3,20h-4l2.3-6.2l-5.1-13.8h4.1l3,8.2l3-8.2H92.4z"/>
	<path fill="#193062" d="M96.4,240.8c0.5,0,0.9,0.1,1.2,0.3c0.4,0.2,0.7,0.5,0.9,0.9c0.2,0.4,0.3,0.8,0.3,1.2c0,0.4-0.1,0.9-0.3,1.2
		c-0.2,0.4-0.5,0.7-0.9,0.9c-0.4,0.2-0.8,0.3-1.2,0.3c-0.5,0-0.9-0.1-1.2-0.3c-0.4-0.2-0.7-0.5-0.9-0.9c-0.2-0.4-0.3-0.8-0.3-1.2
		c0-0.4,0.1-0.9,0.3-1.2c0.2-0.4,0.5-0.7,0.9-0.9C95.5,240.9,95.9,240.8,96.4,240.8z M98.3,261.8h-3.8v-14.1h3.8V261.8z"/>
	<path fill="#193062" d="M114.9,253v8.8h-3.8v-8.1c0-0.5-0.1-0.9-0.3-1.3c-0.2-0.4-0.5-0.7-0.9-1s-0.9-0.3-1.4-0.3
		c-0.5,0-1,0.1-1.4,0.3s-0.7,0.5-0.9,1c-0.2,0.4-0.3,0.8-0.3,1.3v8.1h-3.8v-14.1h3.8v0.9c0.5-0.4,1-0.7,1.6-0.9
		c0.6-0.2,1.2-0.3,1.9-0.3c1.1,0,2,0.2,2.9,0.7c0.8,0.5,1.5,1.2,2,2C114.7,251,114.9,252,114.9,253z"/>
	<path fill="#193062" d="M131.8,247.7v13.7c0,1.3-0.3,2.4-0.9,3.4s-1.4,1.8-2.5,2.4c-1.1,0.6-2.3,0.9-3.6,0.9c-1.1,0-2-0.2-2.9-0.6
		c-0.9-0.4-1.6-0.9-2.3-1.6c-0.6-0.7-1.1-1.5-1.4-2.4l3.5-1.3c0.2,0.7,0.6,1.2,1.1,1.6c0.5,0.4,1.2,0.6,2,0.6c0.6,0,1.2-0.1,1.7-0.4
		c0.5-0.3,0.8-0.6,1.1-1.1s0.4-1,0.4-1.6v-1.1c-0.5,0.4-1,0.7-1.6,0.9c-0.6,0.2-1.3,0.3-2,0.3c-1.3,0-2.4-0.3-3.4-0.9
		c-1-0.6-1.8-1.4-2.4-2.5c-0.6-1.1-0.9-2.2-0.9-3.5c0-1.3,0.3-2.5,0.9-3.5s1.4-1.9,2.4-2.5c1-0.6,2.1-0.9,3.4-0.9
		c0.7,0,1.4,0.1,2,0.3c0.6,0.2,1.2,0.5,1.7,0.9v-1H131.8z M128.1,254.4c0-0.6-0.1-1.2-0.4-1.7c-0.3-0.5-0.7-0.9-1.2-1.2
		c-0.5-0.3-1.1-0.4-1.7-0.4c-0.6,0-1.2,0.1-1.7,0.4c-0.5,0.3-0.9,0.7-1.2,1.2s-0.4,1.1-0.4,1.7c0,0.6,0.1,1.2,0.4,1.6
		c0.3,0.5,0.7,0.9,1.2,1.2s1.1,0.4,1.7,0.4c0.6,0,1.2-0.1,1.7-0.4c0.5-0.3,0.9-0.7,1.2-1.2C128,255.6,128.1,255,128.1,254.4z"/>
	<path fill="#193062" d="M145.1,251.3h-2.8v-3.6h2.8v-2.9c0-0.9,0.2-1.6,0.5-2.3c0.4-0.6,0.9-1.1,1.5-1.5c0.7-0.4,1.4-0.5,2.3-0.5h3
		v3.6h-2.4c-0.4,0-0.7,0.1-0.9,0.3c-0.2,0.2-0.3,0.5-0.3,0.9v2.4h3.6v3.6h-3.6v10.5h-3.8V251.3z"/>
	<path fill="#193062" d="M161.1,247.4c1.4,0,2.7,0.3,3.8,1c1.1,0.7,2,1.5,2.6,2.7c0.6,1.1,1,2.4,1,3.7c0,1.4-0.3,2.6-1,3.7
		c-0.6,1.1-1.5,2-2.6,2.7c-1.1,0.7-2.4,1-3.8,1s-2.7-0.3-3.8-1c-1.1-0.7-2-1.5-2.6-2.7c-0.6-1.1-1-2.4-1-3.7c0-1.4,0.3-2.6,1-3.7
		c0.6-1.1,1.5-2,2.6-2.7C158.4,247.7,159.7,247.4,161.1,247.4z M161.1,258.4c0.7,0,1.3-0.2,1.8-0.5c0.5-0.3,1-0.8,1.3-1.3
		c0.3-0.6,0.5-1.2,0.5-1.8c0-0.7-0.2-1.3-0.5-1.8c-0.3-0.6-0.7-1-1.3-1.3c-0.5-0.3-1.1-0.5-1.8-0.5c-0.7,0-1.3,0.2-1.8,0.5
		c-0.5,0.3-1,0.8-1.3,1.3c-0.3,0.6-0.5,1.2-0.5,1.8c0,0.7,0.2,1.3,0.5,1.8c0.3,0.6,0.7,1,1.3,1.3
		C159.8,258.3,160.4,258.4,161.1,258.4z"/>
	<path fill="#193062" d="M180,247.7v3.7H178c-0.5,0-1,0.1-1.5,0.4s-0.8,0.6-1,1.1s-0.4,1-0.4,1.5v7.4h-3.8v-14.1h3.7v1.4
		c0.4-0.5,0.8-0.8,1.4-1.1s1.2-0.3,1.9-0.3H180z"/>
</g>
<g>
	<path fill="#193062" d="M19.5,276.4h4v16.5h11.9v3.9H19.5V276.4z"/>
	<path fill="#193062" d="M40.1,275.8c0.5,0,0.9,0.1,1.2,0.3c0.4,0.2,0.7,0.5,0.9,0.9c0.2,0.4,0.3,0.8,0.3,1.2c0,0.4-0.1,0.9-0.3,1.2
		c-0.2,0.4-0.5,0.7-0.9,0.9c-0.4,0.2-0.8,0.3-1.2,0.3c-0.5,0-0.9-0.1-1.2-0.3c-0.4-0.2-0.7-0.5-0.9-0.9c-0.2-0.4-0.3-0.8-0.3-1.2
		c0-0.4,0.1-0.9,0.3-1.2c0.2-0.4,0.5-0.7,0.9-0.9C39.2,275.9,39.6,275.8,40.1,275.8z M42,296.8h-3.8v-14.1H42V296.8z"/>
	<path fill="#193062" d="M47.1,286.3h-2.8v-3.6h2.8v-2.9c0-0.9,0.2-1.6,0.5-2.3c0.4-0.6,0.9-1.1,1.5-1.5c0.7-0.4,1.4-0.5,2.3-0.5h3
		v3.6h-2.4c-0.4,0-0.7,0.1-0.9,0.3c-0.2,0.2-0.3,0.5-0.3,0.9v2.4h3.6v3.6h-3.6v10.5h-3.8V286.3z"/>
	<path fill="#193062" d="M69.7,291.2H59.6c0.2,0.7,0.7,1.3,1.3,1.7c0.6,0.4,1.3,0.6,2.2,0.6c0.7,0,1.3-0.2,1.8-0.5
		c0.5-0.3,1-0.7,1.3-1.3l3.1,1.9c-0.6,1.1-1.5,1.9-2.6,2.5s-2.3,0.9-3.7,0.9c-1.4,0-2.6-0.3-3.8-1c-1.1-0.6-2-1.5-2.6-2.6
		c-0.6-1.1-0.9-2.4-0.9-3.7c0-1.4,0.3-2.6,0.9-3.8c0.6-1.1,1.4-2,2.5-2.7c1.1-0.6,2.3-1,3.7-1s2.6,0.3,3.7,1
		c1.1,0.6,1.9,1.5,2.5,2.6c0.6,1.1,0.9,2.4,0.9,3.8C69.9,290.2,69.8,290.7,69.7,291.2z M59.6,288.3h6.5c-0.2-0.8-0.6-1.3-1.1-1.8
		c-0.6-0.4-1.3-0.6-2.1-0.6c-0.9,0-1.6,0.2-2.1,0.6S59.8,287.6,59.6,288.3z"/>
	<path fill="#193062" d="M81.1,276.4h4v20.4h-4V276.4z"/>
	<path fill="#193062" d="M102,288v8.8h-3.8v-8.1c0-0.5-0.1-0.9-0.3-1.3c-0.2-0.4-0.5-0.7-0.9-1s-0.9-0.3-1.4-0.3
		c-0.5,0-1,0.1-1.4,0.3s-0.7,0.5-0.9,1c-0.2,0.4-0.3,0.8-0.3,1.3v8.1h-3.8v-14.1h3.8v0.9c0.5-0.4,1-0.7,1.6-0.9
		c0.6-0.2,1.2-0.3,1.9-0.3c1.1,0,2,0.2,2.9,0.7c0.8,0.5,1.5,1.2,2,2C101.8,286,102,287,102,288z"/>
	<path fill="#193062" d="M110.6,293.7c0.6,0,1.1-0.1,1.4-0.3c0.4-0.2,0.5-0.5,0.5-0.9c0-0.2-0.1-0.4-0.3-0.6
		c-0.2-0.2-0.5-0.3-0.8-0.3c-0.4-0.1-0.7-0.1-1-0.1c-0.6-0.1-1.2-0.1-1.7-0.2c-1.3-0.2-2.3-0.7-2.9-1.4c-0.6-0.7-1-1.6-1-2.7
		c0-0.9,0.2-1.7,0.7-2.4c0.5-0.7,1.1-1.3,2-1.7c0.8-0.4,1.8-0.6,2.9-0.6c1.1,0,2,0.2,2.9,0.6c0.8,0.4,1.5,1,2,1.7s0.7,1.5,0.7,2.4
		h-3.7c0-0.4-0.2-0.7-0.5-0.9c-0.3-0.2-0.8-0.3-1.4-0.3c-0.6,0-1,0.1-1.4,0.3c-0.3,0.2-0.5,0.5-0.5,0.8c0,0.4,0.3,0.7,1,0.8
		c0.2,0,0.6,0.1,1.3,0.1c0.7,0.1,1.2,0.1,1.5,0.2c1.3,0.2,2.2,0.6,2.9,1.4c0.7,0.7,1,1.7,1,2.7c0,0.9-0.2,1.8-0.7,2.5
		c-0.5,0.7-1.2,1.3-2,1.7c-0.9,0.4-1.9,0.6-3,0.6c-1.1,0-2.1-0.2-3-0.6s-1.6-1-2.1-1.7c-0.5-0.7-0.7-1.6-0.7-2.5h3.7
		c0,0.4,0.2,0.7,0.6,1C109.5,293.5,110,293.7,110.6,293.7z"/>
	<path fill="#193062" d="M131.9,282.7v14.1h-3.7V296c-0.5,0.4-1,0.7-1.6,0.9c-0.6,0.2-1.2,0.3-1.9,0.3c-1,0-2-0.2-2.8-0.7
		s-1.5-1.2-2-2c-0.5-0.9-0.7-1.8-0.7-2.8v-8.8h3.8v8.1c0,0.5,0.1,0.9,0.3,1.3c0.2,0.4,0.5,0.7,0.9,0.9c0.4,0.2,0.8,0.3,1.4,0.3
		c0.5,0,1-0.1,1.4-0.3s0.7-0.5,0.9-0.9s0.3-0.8,0.3-1.3v-8.1H131.9z"/>
	<path fill="#193062" d="M144.4,282.7v3.7h-2.1c-0.5,0-1,0.1-1.5,0.4s-0.8,0.6-1,1.1c-0.2,0.5-0.4,1-0.4,1.5v7.4h-3.8v-14.1h3.7v1.4
		c0.4-0.5,0.8-0.8,1.4-1.1s1.2-0.3,1.9-0.3H144.4z"/>
	<path fill="#193062" d="M157.8,287.9v8.9h-3.7V296c-0.4,0.4-1,0.7-1.5,0.9s-1.2,0.3-2,0.3c-1,0-1.8-0.2-2.5-0.6
		c-0.7-0.4-1.3-0.9-1.7-1.6s-0.6-1.4-0.6-2.3c0-1.4,0.4-2.4,1.3-3.1c0.9-0.7,2.1-1.1,3.6-1.3l3.6-0.3v-0.2c0-0.3-0.1-0.7-0.3-0.9
		c-0.2-0.3-0.5-0.5-0.8-0.7s-0.7-0.2-1.1-0.2c-0.6,0-1.1,0.1-1.5,0.4c-0.4,0.3-0.7,0.6-0.8,1.1H146c0.1-0.9,0.4-1.8,0.9-2.6
		s1.2-1.4,2.1-1.8c0.9-0.4,1.8-0.6,2.9-0.6c1.2,0,2.2,0.2,3.1,0.7c0.9,0.5,1.6,1.1,2.1,2S157.8,286.9,157.8,287.9z M154.1,291.9v-1
		l-2.9,0.2c-0.6,0.1-1,0.2-1.3,0.5c-0.3,0.3-0.4,0.6-0.4,1s0.2,0.8,0.5,1c0.4,0.3,0.8,0.4,1.5,0.4c0.8,0,1.5-0.2,2-0.6
		C153.8,293.1,154.1,292.5,154.1,291.9z"/>
	<path fill="#193062" d="M174.4,288v8.8h-3.8v-8.1c0-0.5-0.1-0.9-0.3-1.3c-0.2-0.4-0.5-0.7-0.9-1s-0.9-0.3-1.4-0.3
		c-0.5,0-1,0.1-1.4,0.3s-0.7,0.5-0.9,1c-0.2,0.4-0.3,0.8-0.3,1.3v8.1h-3.8v-14.1h3.8v0.9c0.5-0.4,1-0.7,1.6-0.9s1.2-0.3,1.9-0.3
		c1.1,0,2,0.2,2.9,0.7c0.8,0.5,1.5,1.2,2,2C174.1,286,174.4,287,174.4,288z"/>
	<path fill="#193062" d="M184.5,282.4c1.3,0,2.5,0.3,3.5,0.9s1.9,1.4,2.5,2.4l-3.1,2.2c-0.3-0.5-0.8-0.9-1.3-1.2
		c-0.5-0.3-1.1-0.4-1.7-0.4c-0.7,0-1.3,0.2-1.8,0.5s-1,0.8-1.3,1.3c-0.3,0.6-0.5,1.2-0.5,1.9s0.2,1.3,0.5,1.9c0.3,0.6,0.7,1,1.3,1.3
		c0.5,0.3,1.1,0.5,1.8,0.5c0.6,0,1.2-0.2,1.7-0.5s0.9-0.7,1.3-1.2l3.1,2.2c-0.6,1-1.5,1.8-2.5,2.4s-2.2,0.9-3.5,0.9
		c-1.4,0-2.6-0.3-3.7-1c-1.1-0.6-2-1.5-2.6-2.7c-0.6-1.1-0.9-2.4-0.9-3.7s0.3-2.6,0.9-3.7c0.6-1.1,1.5-2,2.6-2.7
		C181.8,282.7,183.1,282.4,184.5,282.4z"/>
	<path fill="#193062" d="M206,291.2h-10.1c0.2,0.7,0.7,1.3,1.3,1.7s1.3,0.6,2.2,0.6c0.7,0,1.3-0.2,1.8-0.5c0.5-0.3,1-0.7,1.3-1.3
		l3.1,1.9c-0.6,1.1-1.5,1.9-2.6,2.5s-2.3,0.9-3.7,0.9c-1.4,0-2.6-0.3-3.8-1s-2-1.5-2.6-2.6s-0.9-2.4-0.9-3.7c0-1.4,0.3-2.6,0.9-3.8
		c0.6-1.1,1.4-2,2.5-2.7c1.1-0.6,2.3-1,3.7-1s2.6,0.3,3.7,1c1.1,0.6,1.9,1.5,2.5,2.6c0.6,1.1,0.9,2.4,0.9,3.8
		C206.1,290.2,206.1,290.7,206,291.2z M195.8,288.3h6.5c-0.2-0.8-0.6-1.3-1.1-1.8c-0.6-0.4-1.3-0.6-2.1-0.6c-0.9,0-1.6,0.2-2.1,0.6
		S196,287.6,195.8,288.3z"/>
</g>
<g>
	<path fill="#193062" d="M32.9,310.5v21.3h-3.8v-1c-0.5,0.4-1.1,0.7-1.7,1c-0.7,0.2-1.4,0.3-2.1,0.3c-1.3,0-2.5-0.3-3.6-1
		c-1.1-0.7-1.9-1.5-2.5-2.7c-0.6-1.1-0.9-2.4-0.9-3.7c0-1.4,0.3-2.6,0.9-3.8c0.6-1.1,1.4-2,2.5-2.7c1.1-0.6,2.3-1,3.6-1
		c0.7,0,1.4,0.1,2.1,0.3c0.7,0.2,1.2,0.5,1.7,0.9v-8.1H32.9z M29.2,324.8c0-0.7-0.2-1.3-0.5-1.9s-0.7-1-1.3-1.3
		c-0.5-0.3-1.2-0.5-1.9-0.5c-0.7,0-1.3,0.2-1.8,0.5s-1,0.8-1.3,1.3s-0.5,1.2-0.5,1.9c0,0.7,0.2,1.3,0.5,1.8s0.7,1,1.3,1.3
		s1.1,0.5,1.8,0.5c0.7,0,1.3-0.2,1.9-0.5s1-0.8,1.3-1.3S29.2,325.5,29.2,324.8z"/>
	<path fill="#193062" d="M43.1,317.4c1.4,0,2.7,0.3,3.8,1s2,1.5,2.6,2.7c0.6,1.1,1,2.4,1,3.7s-0.3,2.6-1,3.7c-0.6,1.1-1.5,2-2.6,2.7
		s-2.4,1-3.8,1s-2.7-0.3-3.8-1c-1.1-0.7-2-1.5-2.6-2.7c-0.6-1.1-1-2.4-1-3.7s0.3-2.6,1-3.7c0.6-1.1,1.5-2,2.6-2.7
		C40.4,317.7,41.7,317.4,43.1,317.4z M43.1,328.4c0.7,0,1.3-0.2,1.8-0.5c0.5-0.3,1-0.8,1.3-1.3c0.3-0.6,0.5-1.2,0.5-1.8
		s-0.2-1.3-0.5-1.8c-0.3-0.6-0.7-1-1.3-1.3c-0.5-0.3-1.1-0.5-1.8-0.5c-0.7,0-1.3,0.2-1.8,0.5c-0.5,0.3-1,0.8-1.3,1.3
		c-0.3,0.6-0.5,1.2-0.5,1.8s0.2,1.3,0.5,1.8c0.3,0.6,0.7,1,1.3,1.3C41.8,328.3,42.4,328.4,43.1,328.4z"/>
	<path fill="#193062" d="M66.4,326.2H56.3c0.2,0.7,0.7,1.3,1.3,1.7c0.6,0.4,1.3,0.6,2.2,0.6c0.7,0,1.3-0.2,1.8-0.5s1-0.7,1.3-1.3
		l3.1,1.9c-0.6,1.1-1.5,1.9-2.6,2.5s-2.3,0.9-3.7,0.9c-1.4,0-2.6-0.3-3.8-1c-1.1-0.6-2-1.5-2.6-2.6c-0.6-1.1-0.9-2.4-0.9-3.7
		c0-1.4,0.3-2.6,0.9-3.8s1.4-2,2.5-2.7c1.1-0.6,2.3-1,3.7-1s2.6,0.3,3.7,1c1.1,0.6,1.9,1.5,2.5,2.6c0.6,1.1,0.9,2.4,0.9,3.8
		C66.5,325.2,66.5,325.7,66.4,326.2z M56.2,323.3h6.5c-0.2-0.8-0.6-1.3-1.1-1.8s-1.3-0.6-2.1-0.6c-0.9,0-1.6,0.2-2.1,0.6
		S56.4,322.6,56.2,323.3z"/>
	<path fill="#193062" d="M74.3,328.7c0.6,0,1.1-0.1,1.4-0.3s0.5-0.5,0.5-0.9c0-0.2-0.1-0.4-0.3-0.6s-0.5-0.3-0.8-0.3
		c-0.4-0.1-0.7-0.1-1-0.1c-0.6-0.1-1.2-0.1-1.7-0.2c-1.3-0.2-2.3-0.7-2.9-1.4c-0.6-0.7-1-1.6-1-2.7c0-0.9,0.2-1.7,0.7-2.4
		c0.5-0.7,1.1-1.3,2-1.7c0.8-0.4,1.8-0.6,2.9-0.6c1.1,0,2,0.2,2.9,0.6s1.5,1,2,1.7s0.7,1.5,0.7,2.4h-3.7c0-0.4-0.2-0.7-0.5-0.9
		c-0.3-0.2-0.8-0.3-1.4-0.3c-0.6,0-1,0.1-1.4,0.3c-0.3,0.2-0.5,0.5-0.5,0.8c0,0.4,0.3,0.7,1,0.8c0.2,0,0.6,0.1,1.3,0.1
		s1.2,0.1,1.5,0.2c1.3,0.2,2.2,0.6,2.9,1.4c0.7,0.7,1,1.7,1,2.7c0,0.9-0.2,1.8-0.7,2.5s-1.2,1.3-2,1.7c-0.9,0.4-1.9,0.6-3,0.6
		c-1.1,0-2.1-0.2-3-0.6s-1.6-1-2.1-1.7s-0.7-1.6-0.7-2.5h3.7c0,0.4,0.2,0.7,0.6,1C73.2,328.5,73.7,328.7,74.3,328.7z"/>
	<path fill="#193062" d="M95.6,323v8.8h-3.8v-8.1c0-0.5-0.1-0.9-0.3-1.3c-0.2-0.4-0.5-0.7-0.9-1s-0.9-0.3-1.4-0.3
		c-0.5,0-1,0.1-1.4,0.3s-0.7,0.5-0.9,1s-0.3,0.8-0.3,1.3v8.1h-3.8v-14.1h3.8v0.9c0.5-0.4,1-0.7,1.6-0.9c0.6-0.2,1.2-0.3,1.9-0.3
		c1.1,0,2,0.2,2.9,0.7s1.5,1.2,2,2S95.6,322,95.6,323z"/>
	<path fill="#193062" d="M102.5,313.4c0,0.3-0.1,0.6-0.2,0.9l-1.7,4.7h-2.3l0.9-3.5c-0.4-0.2-0.8-0.4-1-0.8
		c-0.3-0.4-0.4-0.8-0.4-1.4c0-0.7,0.2-1.2,0.6-1.7c0.4-0.4,1-0.7,1.7-0.7c0.5,0,0.9,0.1,1.2,0.3s0.6,0.5,0.8,0.8
		C102.4,312.6,102.5,313,102.5,313.4z"/>
	<path fill="#193062" d="M110.1,317.7h4.4v3.6h-4.4v5.2c0,0.5,0.1,0.9,0.4,1.2c0.3,0.3,0.7,0.5,1.2,0.5h2.8v3.6H111
		c-0.9,0-1.7-0.2-2.4-0.6c-0.7-0.4-1.2-0.9-1.6-1.6c-0.4-0.7-0.6-1.5-0.6-2.4v-5.9h-2v-2l3.7-4.6h2.1V317.7z"/>
	<path fill="#193062" d="M138.4,323v8.8h-3.8v-8.1c0-0.5-0.1-0.9-0.3-1.3c-0.2-0.4-0.5-0.7-0.9-1s-0.9-0.3-1.4-0.3
		c-0.5,0-1,0.1-1.4,0.3c-0.4,0.2-0.7,0.5-0.9,1c-0.2,0.4-0.3,0.8-0.3,1.3v8.1h-3.8v-21.3h3.8v8.1c0.5-0.4,1-0.7,1.6-0.9
		c0.6-0.2,1.2-0.3,1.9-0.3c1.1,0,2,0.2,2.9,0.7s1.5,1.2,2,2S138.4,322,138.4,323z"/>
	<path fill="#193062" d="M153.5,322.9v8.9h-3.7V331c-0.4,0.4-1,0.7-1.5,0.9s-1.2,0.3-2,0.3c-1,0-1.8-0.2-2.5-0.6
		c-0.7-0.4-1.3-0.9-1.7-1.6s-0.6-1.4-0.6-2.3c0-1.4,0.4-2.4,1.3-3.1c0.9-0.7,2.1-1.1,3.6-1.3l3.6-0.3v-0.2c0-0.3-0.1-0.7-0.3-0.9
		c-0.2-0.3-0.5-0.5-0.8-0.7s-0.7-0.2-1.1-0.2c-0.6,0-1.1,0.1-1.5,0.4c-0.4,0.3-0.7,0.6-0.8,1.1h-3.7c0.1-0.9,0.4-1.8,0.9-2.6
		s1.2-1.4,2.1-1.8c0.9-0.4,1.8-0.6,2.9-0.6c1.2,0,2.2,0.2,3.1,0.7s1.6,1.1,2.1,2S153.5,321.9,153.5,322.9z M149.8,326.9v-1l-2.9,0.2
		c-0.6,0.1-1,0.2-1.3,0.5c-0.3,0.3-0.4,0.6-0.4,1s0.2,0.8,0.5,1s0.8,0.4,1.5,0.4c0.8,0,1.5-0.2,2-0.6S149.8,327.5,149.8,326.9z"/>
	<path fill="#193062" d="M169.1,317.7l-5.2,14.1h-3.8l-5.2-14.1h4.1l3,8.4l3-8.4H169.1z"/>
	<path fill="#193062" d="M183.9,326.2h-10.1c0.2,0.7,0.7,1.3,1.3,1.7s1.3,0.6,2.2,0.6c0.7,0,1.3-0.2,1.8-0.5s1-0.7,1.3-1.3l3.1,1.9
		c-0.6,1.1-1.5,1.9-2.6,2.5s-2.3,0.9-3.7,0.9c-1.4,0-2.6-0.3-3.8-1s-2-1.5-2.6-2.6s-0.9-2.4-0.9-3.7c0-1.4,0.3-2.6,0.9-3.8
		s1.4-2,2.5-2.7s2.3-1,3.7-1s2.6,0.3,3.7,1s1.9,1.5,2.5,2.6s0.9,2.4,0.9,3.8C184,325.2,184,325.7,183.9,326.2z M173.7,323.3h6.5
		c-0.2-0.8-0.6-1.3-1.1-1.8s-1.3-0.6-2.1-0.6c-0.9,0-1.6,0.2-2.1,0.6S173.9,322.6,173.7,323.3z"/>
	<path fill="#193062" d="M199.3,317.7h4.4v3.6h-4.4v5.2c0,0.5,0.1,0.9,0.4,1.2s0.7,0.5,1.2,0.5h2.8v3.6h-3.6c-0.9,0-1.7-0.2-2.4-0.6
		s-1.2-0.9-1.6-1.6s-0.6-1.5-0.6-2.4v-5.9h-2v-2l3.7-4.6h2.1V317.7z"/>
	<path fill="#193062" d="M212.9,317.4c1.4,0,2.7,0.3,3.8,1s2,1.5,2.6,2.7s1,2.4,1,3.7s-0.3,2.6-1,3.7s-1.5,2-2.6,2.7s-2.4,1-3.8,1
		s-2.7-0.3-3.8-1s-2-1.5-2.6-2.7s-1-2.4-1-3.7s0.3-2.6,1-3.7s1.5-2,2.6-2.7S211.5,317.4,212.9,317.4z M212.9,328.4
		c0.7,0,1.3-0.2,1.8-0.5s1-0.8,1.3-1.3s0.5-1.2,0.5-1.8s-0.2-1.3-0.5-1.8s-0.7-1-1.3-1.3s-1.1-0.5-1.8-0.5c-0.7,0-1.3,0.2-1.8,0.5
		s-1,0.8-1.3,1.3s-0.5,1.2-0.5,1.8s0.2,1.3,0.5,1.8s0.7,1,1.3,1.3S212.2,328.4,212.9,328.4z"/>
</g>
<g>
	<path fill="#193062" d="M33.8,359.8c0,1.3-0.3,2.6-0.9,3.7c-0.6,1.1-1.4,2-2.5,2.7c-1.1,0.7-2.3,1-3.6,1c-0.8,0-1.5-0.1-2.1-0.3
		c-0.7-0.2-1.2-0.5-1.7-1v1h-3.8v-21.3H23v8.1c0.5-0.4,1.1-0.7,1.7-0.9c0.7-0.2,1.3-0.3,2.1-0.3c1.3,0,2.5,0.3,3.6,1
		c1.1,0.6,1.9,1.5,2.5,2.7C33.5,357.2,33.8,358.4,33.8,359.8z M30,359.8c0-0.7-0.2-1.3-0.5-1.9s-0.7-1-1.3-1.3s-1.1-0.5-1.8-0.5
		c-0.7,0-1.3,0.2-1.9,0.5c-0.5,0.3-1,0.8-1.3,1.3s-0.5,1.2-0.5,1.9c0,0.7,0.2,1.3,0.5,1.8s0.7,1,1.3,1.3s1.2,0.5,1.9,0.5
		c0.7,0,1.3-0.2,1.8-0.5s1-0.8,1.3-1.3S30,360.5,30,359.8z"/>
	<path fill="#193062" d="M49.7,361.2H39.6c0.2,0.7,0.7,1.3,1.3,1.7c0.6,0.4,1.3,0.6,2.2,0.6c0.7,0,1.3-0.2,1.8-0.5s1-0.7,1.3-1.3
		l3.1,1.9c-0.6,1.1-1.5,1.9-2.6,2.5s-2.3,0.9-3.7,0.9c-1.4,0-2.6-0.3-3.8-1c-1.1-0.6-2-1.5-2.6-2.6c-0.6-1.1-0.9-2.4-0.9-3.7
		c0-1.4,0.3-2.6,0.9-3.8s1.4-2,2.5-2.7c1.1-0.6,2.3-1,3.7-1s2.6,0.3,3.7,1c1.1,0.6,1.9,1.5,2.5,2.6c0.6,1.1,0.9,2.4,0.9,3.8
		C49.9,360.2,49.8,360.7,49.7,361.2z M39.6,358.3h6.5c-0.2-0.8-0.6-1.3-1.1-1.8s-1.3-0.6-2.1-0.6c-0.9,0-1.6,0.2-2.1,0.6
		S39.8,357.6,39.6,358.3z"/>
	<path fill="#193062" d="M67.2,352.4c1.3,0,2.5,0.3,3.5,0.9c1.1,0.6,1.9,1.4,2.5,2.4l-3.1,2.2c-0.3-0.5-0.8-0.9-1.3-1.2
		s-1.1-0.4-1.7-0.4c-0.7,0-1.3,0.2-1.8,0.5s-1,0.8-1.3,1.3s-0.5,1.2-0.5,1.9s0.2,1.3,0.5,1.9s0.7,1,1.3,1.3s1.1,0.5,1.8,0.5
		c0.6,0,1.2-0.2,1.7-0.5s0.9-0.7,1.3-1.2l3.1,2.2c-0.6,1-1.5,1.8-2.5,2.4c-1.1,0.6-2.2,0.9-3.5,0.9c-1.4,0-2.6-0.3-3.7-1
		c-1.1-0.6-2-1.5-2.6-2.7s-0.9-2.4-0.9-3.7s0.3-2.6,0.9-3.7s1.5-2,2.6-2.7C64.6,352.7,65.8,352.4,67.2,352.4z"/>
	<path fill="#193062" d="M82.1,352.4c1.4,0,2.7,0.3,3.8,1s2,1.5,2.6,2.7c0.6,1.1,1,2.4,1,3.7s-0.3,2.6-1,3.7c-0.6,1.1-1.5,2-2.6,2.7
		s-2.4,1-3.8,1s-2.7-0.3-3.8-1c-1.1-0.7-2-1.5-2.6-2.7c-0.6-1.1-1-2.4-1-3.7s0.3-2.6,1-3.7c0.6-1.1,1.5-2,2.6-2.7
		C79.4,352.7,80.7,352.4,82.1,352.4z M82.1,363.4c0.7,0,1.3-0.2,1.8-0.5c0.5-0.3,1-0.8,1.3-1.3c0.3-0.6,0.5-1.2,0.5-1.8
		s-0.2-1.3-0.5-1.8c-0.3-0.6-0.7-1-1.3-1.3c-0.5-0.3-1.1-0.5-1.8-0.5c-0.7,0-1.3,0.2-1.8,0.5c-0.5,0.3-1,0.8-1.3,1.3
		c-0.3,0.6-0.5,1.2-0.5,1.8s0.2,1.3,0.5,1.8c0.3,0.6,0.7,1,1.3,1.3C80.8,363.3,81.4,363.4,82.1,363.4z"/>
	<path fill="#193062" d="M112.9,357.7v9.2h-3.8v-8.4c0-0.4-0.1-0.8-0.3-1.2c-0.2-0.4-0.5-0.6-0.8-0.8c-0.3-0.2-0.8-0.3-1.2-0.3
		c-0.4,0-0.8,0.1-1.2,0.3c-0.3,0.2-0.6,0.5-0.8,0.8s-0.3,0.7-0.3,1.2v8.4h-3.8v-8.4c0-0.4-0.1-0.8-0.3-1.2c-0.2-0.4-0.5-0.6-0.8-0.8
		s-0.7-0.3-1.2-0.3c-0.4,0-0.8,0.1-1.2,0.3c-0.4,0.2-0.6,0.5-0.8,0.8c-0.2,0.4-0.3,0.7-0.3,1.2v8.4h-3.8v-14.1H96v0.8
		c0.4-0.4,0.9-0.6,1.5-0.8s1.2-0.3,1.8-0.3c0.8,0,1.5,0.1,2.1,0.4c0.6,0.3,1.2,0.6,1.7,1.1c0.5-0.5,1.1-0.9,1.8-1.1
		c0.7-0.3,1.5-0.4,2.3-0.4c1.1,0,2.1,0.2,2.9,0.7s1.5,1.1,2,1.9C112.6,355.8,112.9,356.7,112.9,357.7z"/>
	<path fill="#193062" d="M131.2,359.8c0,1.3-0.3,2.6-0.9,3.7c-0.6,1.1-1.4,2-2.5,2.7c-1.1,0.7-2.3,1-3.6,1c-0.7,0-1.4-0.1-2.1-0.3
		c-0.6-0.2-1.2-0.5-1.7-0.9v6.9h-3.8v-20h3.8v1c0.5-0.4,1.1-0.7,1.7-1c0.7-0.2,1.4-0.3,2.1-0.3c1.3,0,2.5,0.3,3.6,1
		c1.1,0.6,1.9,1.5,2.5,2.7C130.9,357.2,131.2,358.4,131.2,359.8z M127.4,359.8c0-0.7-0.2-1.3-0.5-1.9s-0.7-1-1.3-1.3
		s-1.1-0.5-1.8-0.5c-0.7,0-1.3,0.2-1.9,0.5c-0.5,0.3-1,0.8-1.3,1.3s-0.5,1.2-0.5,1.9c0,0.7,0.2,1.3,0.5,1.8s0.7,1,1.3,1.3
		s1.2,0.5,1.9,0.5c0.7,0,1.3-0.2,1.8-0.5s1-0.8,1.3-1.3S127.4,360.5,127.4,359.8z"/>
	<path fill="#193062" d="M134,345.5h3.8v21.3H134V345.5z"/>
	<path fill="#193062" d="M143.6,345.8c0.5,0,0.9,0.1,1.2,0.3c0.4,0.2,0.7,0.5,0.9,0.9c0.2,0.4,0.3,0.8,0.3,1.2s-0.1,0.9-0.3,1.2
		c-0.2,0.4-0.5,0.7-0.9,0.9c-0.4,0.2-0.8,0.3-1.2,0.3c-0.5,0-0.9-0.1-1.2-0.3c-0.4-0.2-0.7-0.5-0.9-0.9c-0.2-0.4-0.3-0.8-0.3-1.2
		s0.1-0.9,0.3-1.2c0.2-0.4,0.5-0.7,0.9-0.9C142.7,345.9,143.1,345.8,143.6,345.8z M145.5,366.8h-3.8v-14.1h3.8V366.8z"/>
	<path fill="#193062" d="M155.6,352.4c1.3,0,2.5,0.3,3.5,0.9s1.9,1.4,2.5,2.4l-3.1,2.2c-0.3-0.5-0.8-0.9-1.3-1.2s-1.1-0.4-1.7-0.4
		c-0.7,0-1.3,0.2-1.8,0.5s-1,0.8-1.3,1.3s-0.5,1.2-0.5,1.9s0.2,1.3,0.5,1.9s0.7,1,1.3,1.3s1.1,0.5,1.8,0.5c0.6,0,1.2-0.2,1.7-0.5
		s0.9-0.7,1.3-1.2l3.1,2.2c-0.6,1-1.5,1.8-2.5,2.4s-2.2,0.9-3.5,0.9c-1.4,0-2.6-0.3-3.7-1s-2-1.5-2.6-2.7s-0.9-2.4-0.9-3.7
		s0.3-2.6,0.9-3.7s1.5-2,2.6-2.7S154.2,352.4,155.6,352.4z"/>
	<path fill="#193062" d="M175.5,357.9v8.9h-3.7V366c-0.4,0.4-1,0.7-1.5,0.9s-1.2,0.3-2,0.3c-1,0-1.8-0.2-2.5-0.6s-1.3-0.9-1.7-1.6
		s-0.6-1.4-0.6-2.3c0-1.4,0.4-2.4,1.3-3.1s2.1-1.1,3.6-1.3l3.6-0.3v-0.2c0-0.3-0.1-0.7-0.3-0.9s-0.5-0.5-0.8-0.7s-0.7-0.2-1.1-0.2
		c-0.6,0-1.1,0.1-1.5,0.4s-0.7,0.6-0.8,1.1h-3.7c0.1-0.9,0.4-1.8,0.9-2.6s1.2-1.4,2.1-1.8s1.8-0.6,2.9-0.6c1.2,0,2.2,0.2,3.1,0.7
		s1.6,1.1,2.1,2S175.5,356.9,175.5,357.9z M171.8,361.9v-1l-2.9,0.2c-0.6,0.1-1,0.2-1.3,0.5s-0.4,0.6-0.4,1s0.2,0.8,0.5,1
		s0.8,0.4,1.5,0.4c0.8,0,1.5-0.2,2-0.6S171.8,362.5,171.8,361.9z"/>
	<path fill="#193062" d="M183.4,352.7h4.4v3.6h-4.4v5.2c0,0.5,0.1,0.9,0.4,1.2s0.7,0.5,1.2,0.5h2.8v3.6h-3.6c-0.9,0-1.7-0.2-2.4-0.6
		s-1.2-0.9-1.6-1.6s-0.6-1.5-0.6-2.4v-5.9h-2v-2l3.7-4.6h2.1V352.7z"/>
	<path fill="#193062" d="M203.7,361.2h-10.1c0.2,0.7,0.7,1.3,1.3,1.7s1.3,0.6,2.2,0.6c0.7,0,1.3-0.2,1.8-0.5s1-0.7,1.3-1.3l3.1,1.9
		c-0.6,1.1-1.5,1.9-2.6,2.5s-2.3,0.9-3.7,0.9c-1.4,0-2.6-0.3-3.8-1s-2-1.5-2.6-2.6s-0.9-2.4-0.9-3.7c0-1.4,0.3-2.6,0.9-3.8
		s1.4-2,2.5-2.7s2.3-1,3.7-1s2.6,0.3,3.7,1s1.9,1.5,2.5,2.6s0.9,2.4,0.9,3.8C203.8,360.2,203.8,360.7,203.7,361.2z M193.5,358.3h6.5
		c-0.2-0.8-0.6-1.3-1.1-1.8s-1.3-0.6-2.1-0.6c-0.9,0-1.6,0.2-2.1,0.6S193.7,357.6,193.5,358.3z"/>
	<path fill="#193062" d="M220.3,345.5v21.3h-3.8v-1c-0.5,0.4-1.1,0.7-1.7,1s-1.4,0.3-2.1,0.3c-1.3,0-2.5-0.3-3.6-1s-1.9-1.5-2.5-2.7
		s-0.9-2.4-0.9-3.7c0-1.4,0.3-2.6,0.9-3.8s1.4-2,2.5-2.7s2.3-1,3.6-1c0.7,0,1.4,0.1,2.1,0.3s1.2,0.5,1.7,0.9v-8.1H220.3z
		 M216.6,359.8c0-0.7-0.2-1.3-0.5-1.9s-0.7-1-1.3-1.3s-1.2-0.5-1.9-0.5c-0.7,0-1.3,0.2-1.8,0.5s-1,0.8-1.3,1.3s-0.5,1.2-0.5,1.9
		c0,0.7,0.2,1.3,0.5,1.8s0.7,1,1.3,1.3s1.1,0.5,1.8,0.5c0.7,0,1.3-0.2,1.9-0.5s1-0.8,1.3-1.3S216.6,360.5,216.6,359.8z"/>
	<path fill="#193062" d="M226.3,362.2c0.5,0,0.9,0.1,1.2,0.3s0.7,0.5,0.9,0.9s0.3,0.8,0.3,1.2c0,0.4-0.1,0.9-0.3,1.2
		s-0.5,0.7-0.9,0.9s-0.8,0.3-1.2,0.3s-0.9-0.1-1.2-0.3s-0.7-0.5-0.9-0.9s-0.3-0.8-0.3-1.2c0-0.4,0.1-0.9,0.3-1.2s0.5-0.7,0.9-0.9
		S225.8,362.2,226.3,362.2z"/>
</g>
</svg>
