<?xml version="1.0" encoding="utf-8"?>
<!-- Generator: Adobe Illustrator 27.4.0, SVG Export Plug-In . SVG Version: 6.00 Build 0)  -->
<svg version="1.1" baseProfile="tiny" id="Layer_1" xmlns="http://www.w3.org/2000/svg" xmlns:xlink="http://www.w3.org/1999/xlink"
	 x="0px" y="0px" viewBox="0 0 300 600" overflow="visible" xml:space="preserve">
<rect x="-0.5" y="522.7" fill="#193062" width="301" height="78.1"/>
<rect x="67" y="543.9" fill="#F9DF7E" width="25.8" height="7.1"/>
<rect x="95" y="543.9" fill="#FFFFFF" width="6.2" height="7.1"/>
<rect x="67" y="553" fill="#F9DF7E" width="19.3" height="7.1"/>
<rect x="88.4" y="553" fill="#FFFFFF" width="12.7" height="7.1"/>
<rect x="67" y="562" fill="#F9DF7E" width="12.7" height="7.1"/>
<rect x="81.9" y="562" fill="#FFFFFF" width="19.3" height="7.1"/>
<rect x="67" y="571" fill="#F9DF7E" width="6.2" height="7.1"/>
<rect x="75.4" y="571" fill="#FFFFFF" width="25.8" height="7.1"/>
<polygon fill="#FFFFFF" points="121.2,554.2 115.5,554.2 115.5,551.1 130.3,551.1 130.3,554.2 124.5,554.2 124.5,570.9 121.2,570.9 
	"/>
<g>
	<path fill="none" d="M187.1,559.5c-2.5,0-4.2,2-4.2,4.5c0,2.5,1.7,4.5,4.2,4.5c2.5,0,4.1-2,4.1-4.5
		C191.2,561.4,189.6,559.5,187.1,559.5z"/>
	<path fill="none" d="M203.6,559.5c-2.4,0-4.1,1.8-4.1,4.3c0,2.5,1.8,4.3,4.1,4.3c2.4,0,4.2-1.8,4.2-4.3
		C207.7,561.3,206,559.5,203.6,559.5z"/>
	<path fill="none" d="M219.8,559.3c-1.8,0-3.6,1-4,3.1h7.7C223.2,560.4,221.6,559.3,219.8,559.3z"/>
	<path fill="#FFFFFF" d="M129.5,557v14h3.1v-6.8c0-2.8,1.6-4.3,3.3-4.3c0.6,0,1,0.1,1.5,0.3v-3.2c-0.4-0.1-0.8-0.1-1.2-0.1
		c-1.6,0-3.1,1-3.7,2.6V557H129.5z"/>
	<path fill="#FFFFFF" d="M139.8,557v8.4c0,3.6,2,5.9,5.2,5.9c1.8,0,3.3-0.8,4.1-2.2v1.9h3.1v-14h-3.1v6.9c0,3-1.4,4.6-3.4,4.6
		c-1.8,0-2.8-1.4-2.8-3.6V557H139.8z"/>
	<path fill="#FFFFFF" d="M161.3,568.2c-1.9,0-3.6-0.9-4.6-2.5l-2.6,2c1.2,2.1,3.8,3.6,7,3.6c3.9,0,6.6-2.3,6.6-5.7
		c0-3-1.7-4.7-4.7-5.8l-2-0.8c-2-0.8-3-1.4-3-2.9c0-1.4,1.4-2.3,3.1-2.3c1.5,0,2.8,0.7,3.8,1.8l2.3-2.2c-1.4-1.7-3.5-2.7-6-2.7
		c-3.7,0-6.4,2.1-6.4,5.6c0,2.7,1.5,4.4,4.7,5.6l2.2,0.8c1.9,0.7,2.8,1.6,2.8,3C164.5,567.2,163.1,568.2,161.3,568.2z"/>
	<path fill="#FFFFFF" d="M194.1,570.9v-14H191v1.9c-0.8-1.1-2.5-2.2-4.5-2.2c-3.8,0-6.7,3.3-6.7,7.3c0,4,2.9,7.3,6.7,7.3
		c2,0,3.7-1,4.5-2.2v1.9H194.1z M187.1,568.4c-2.5,0-4.2-2-4.2-4.5c0-2.5,1.7-4.5,4.2-4.5c2.5,0,4.1,2,4.1,4.5
		C191.2,566.5,189.6,568.4,187.1,568.4z"/>
	<path fill="#FFFFFF" d="M203.3,574.3c-1.9,0-3.5-0.8-4.6-2l-1.9,2.2c1.4,1.5,3.8,2.6,6.5,2.6c4.1,0,7.2-2.2,7.2-7.1v-13h-3.1v1.9
		c-0.8-1.2-2.5-2.2-4.5-2.2c-3.8,0-6.7,3.1-6.7,7.1c0,4,2.9,7.1,6.7,7.1c1.9,0,3.6-0.9,4.5-2.2v1.3
		C207.5,572.8,205.6,574.3,203.3,574.3z M203.6,568c-2.4,0-4.1-1.8-4.1-4.3c0-2.5,1.8-4.3,4.1-4.3c2.4,0,4.2,1.8,4.2,4.3
		C207.7,566.2,206,568,203.6,568z"/>
	<path fill="#FFFFFF" d="M220,556.7c-4.2,0-7.3,3.2-7.3,7.3c0,4.2,3,7.3,7.3,7.3c2.9,0,5.1-1.3,6.4-3.2l-2.3-1.7
		c-0.7,1.2-2,2.1-4,2.1c-2.3,0-4.1-1.5-4.3-3.8h10.9c0-0.4,0-0.7,0-1C226.7,559.1,223.6,556.7,220,556.7z M215.8,562.4
		c0.4-2.1,2.2-3.1,4-3.1c1.8,0,3.4,1.1,3.7,3.1H215.8z"/>
	<path fill="#FFFFFF" d="M171.3,553.1l0,1.8c0,1.2-0.9,2.1-2.1,2.1l-0.8,0v2.7h2.9v6.7c0,3.2,2.1,4.6,4.8,4.6c0.9,0,1.7-0.1,2.3-0.3
		V568c-0.4,0.2-1.1,0.3-1.6,0.3c-1.6,0-2.3-0.6-2.3-2.4v-6.2h4V557h-4v-3.9H171.3z"/>
	<polygon fill="#FFFFFF" points="228.5,554.6 227.8,553.1 227.4,553.1 227.4,555.5 227.8,555.5 227.8,554 228.5,555.6 229.3,554.1 
		229.3,555.5 229.7,555.5 229.7,553.1 229.3,553.1 	"/>
	<polygon fill="#FFFFFF" points="226.1,555.5 226.1,553.5 226.9,553.5 226.9,553.1 224.9,553.1 224.9,553.5 225.7,553.5 
		225.7,555.5 	"/>
</g>
</svg>
