<svg baseProfile="tiny" xmlns="http://www.w3.org/2000/svg" viewBox="0 0 300 250" overflow="visible"><g fill="#373535"><path d="M18.5 183.9c0 .5-.1 1-.4 1.4s-.6.8-1 1-.9.4-1.5.4-1.1-.1-1.5-.4-.8-.6-1-1.1-.4-1-.4-1.5c0-.6.1-1.1.4-1.5s.6-.8 1.1-1.1 1-.4 1.5-.4 1 .1 1.5.4.8.6 1 1l-.5.3c-.2-.3-.5-.6-.8-.8s-.7-.3-1.2-.3-.9.1-1.2.3-.6.5-.8.9-.3.8-.3 1.2c0 .5.1.9.3 1.2s.5.7.8.9.8.3 1.2.3c.4 0 .7-.1 1-.2s.6-.3.8-.6.3-.5.4-.9h-2.5v-.6h3.1zM19.5 180.8h4.3v.6h-3.7v2h2.2v.6h-2.2v2h3.7v.6h-4.3v-5.8zM29.4 180.8v5.8h-.6l-3.2-4.8v4.8H25v-5.8h.6l3.2 4.8v-4.8h.6zM32.4 184.1v.6h-1.8v-.6h1.8zM36.9 185c0 .3-.1.6-.2.9s-.4.5-.6.6-.6.2-.9.2c-.3 0-.7-.1-.9-.2s-.5-.3-.6-.6-.2-.5-.2-.9h.6c0 .2.1.4.2.6s.2.3.4.4.4.1.6.1c.2 0 .4 0 .6-.1s.3-.2.4-.4.1-.4.1-.6c0-.2 0-.4-.1-.6s-.2-.3-.4-.4-.4-.1-.6-.1h-.6v-.6h.6c.2 0 .4 0 .6-.1s.3-.2.4-.4.1-.3.1-.5 0-.4-.1-.5-.2-.3-.4-.4-.4-.1-.6-.1c-.2 0-.4 0-.6.1s-.3.2-.4.3-.1.3-.1.5h-.6c0-.3.1-.6.2-.8s.3-.4.6-.6.5-.2.9-.2c.3 0 .6.1.9.2s.5.3.6.6.2.5.2.8c0 .3-.1.5-.2.8s-.3.4-.5.6c.2.1.4.3.6.6s0 .5 0 .8zM41.9 182.6c0 .2 0 .5-.1.7l-.3.6-1.8 2.7H39l1.5-2.2c-.2 0-.3.1-.5.1-.4 0-.7-.1-1-.2s-.5-.4-.7-.7-.2-.6-.2-1 .1-.7.2-1 .4-.5.7-.7.6-.2 1-.2.7.1 1 .2.5.4.7.7.2.6.2 1zm-2 1.3c.3 0 .5-.1.7-.2s.4-.3.5-.5.2-.4.2-.7c0-.2-.1-.5-.2-.7s-.3-.4-.5-.5-.4-.2-.7-.2-.5.1-.7.2-.4.3-.5.5-.2.4-.2.7c0 .3.1.5.2.7s.3.4.5.5.5.2.7.2zM46.5 185c0 .3-.1.6-.2.9s-.4.5-.6.6-.6.2-.9.2c-.3 0-.7-.1-.9-.2s-.5-.3-.6-.6-.2-.5-.2-.9h.6c0 .2.1.4.2.6s.2.3.4.4.4.1.6.1c.2 0 .4 0 .6-.1s.3-.2.4-.4.1-.4.1-.6c0-.2 0-.4-.1-.6s-.2-.3-.4-.4-.4-.1-.6-.1h-.6v-.6h.6c.2 0 .4 0 .6-.1s.3-.2.4-.4.1-.3.1-.5 0-.4-.1-.5-.2-.3-.4-.4-.4-.1-.6-.1c-.2 0-.4 0-.6.1s-.3.2-.4.3-.1.3-.1.5H43c0-.3.1-.6.2-.8s.3-.4.6-.6.5-.2.9-.2c.3 0 .6.1.9.2s.5.3.6.6.2.5.2.8c0 .3-.1.5-.2.8s-.3.4-.5.6c.2.1.4.3.6.6s.2.5.2.8zM51.4 184.9c0 .4-.1.7-.2 1s-.4.5-.7.7-.6.2-1 .2-.7-.1-1-.2-.5-.4-.7-.7-.2-.6-.2-.9h.6c0 .2.1.5.2.6s.3.3.5.4.4.2.7.2c.3 0 .5-.1.7-.2s.4-.3.5-.4.2-.4.2-.7-.1-.5-.2-.7-.3-.3-.5-.5-.4-.2-.7-.2H48l.4-2.8h2.9v.6h-2.4l-.2 1.6h1c.4 0 .7.1.9.2s.5.4.7.7.1.7.1 1.1zM54 181.5l-1.6 1v-.6l1.6-1h.6v5.8H54v-5.2zM59.8 186.1v.6h-3.6v-.5l2.4-2.5c.2-.2.3-.4.4-.6s.1-.4.1-.6c0-.2 0-.4-.1-.6s-.2-.3-.4-.4-.4-.1-.6-.1c-.2 0-.4 0-.6.1s-.3.2-.4.4-.1.4-.2.6h-.6c0-.3.1-.6.2-.9s.4-.5.6-.6.6-.2.9-.2c.3 0 .6.1.9.2s.5.4.6.6.2.6.2.9c0 .3-.1.6-.2.8s-.3.5-.6.8l-1.9 2h2.9zM65 184.2v.6h-1.1v1.8h-.6v-1.8h-2.6v-.5l2.6-3.5h.7v3.4h1zm-1.7 0v-2.5l-1.9 2.5h1.9zM66.3 185.8c.1 0 .2 0 .3.1s.1.2.1.3 0 .2-.1.3-.2.1-.3.1-.2 0-.3-.1-.1-.2-.1-.3 0-.2.1-.3.1-.1.3-.1zM71.4 186.1v.6h-3.6v-.5l2.4-2.5c.2-.2.3-.4.4-.6s.1-.4.1-.6c0-.2 0-.4-.1-.6s-.2-.3-.4-.4-.4-.1-.6-.1c-.2 0-.4 0-.6.1s-.3.2-.4.4-.1.4-.2.6h-.6c0-.3.1-.6.2-.9s.4-.5.6-.6.6-.2.9-.2c.3 0 .6.1.9.2s.5.4.6.6.2.6.2.9c0 .3-.1.6-.2.8s-.3.5-.6.8l-1.9 2h2.9z"/></g></svg>