<svg baseProfile="tiny" xmlns="http://www.w3.org/2000/svg" viewBox="0 0 300 250" overflow="visible"><g fill="#193062"><path d="M13.4 21.6h9.7v2.6H16v2.3h3.9v2.6H16V34h-2.7V21.6zM26 21.2c.9 0 1.6.7 1.6 1.6 0 .9-.7 1.6-1.6 1.6s-1.6-.7-1.6-1.6c.1-.9.7-1.6 1.6-1.6zM27.3 34h-2.5v-8.6h2.5V34zM37.5 28.7V34H35v-4.8c0-.8-.5-1.5-1.4-1.5-.9 0-1.5.6-1.5 1.5V34h-2.5v-8.6H32v.5c.6-.4 1.3-.7 2.1-.7 1.9.1 3.4 1.5 3.4 3.5zM48 21.1v13h-2.5v-.5c-.6.4-1.3.7-2.2.7-2.5 0-4.2-2-4.2-4.5s1.8-4.5 4.2-4.5c.8 0 1.6.2 2.1.6v-4.8H48zm-2.5 8.6c0-1.2-.8-2-2-2-1.1 0-1.9.9-1.9 2s.8 2 1.9 2c1.2 0 2-.8 2-2zM55.3 21.6H58v9.8h7V34h-9.7V21.6zM67.9 21.2c.9 0 1.6.7 1.6 1.6 0 .9-.7 1.6-1.6 1.6s-1.6-.7-1.6-1.6c.1-.9.7-1.6 1.6-1.6zM69.2 34h-2.5v-8.6h2.5V34zM72.3 27.8h-1.7v-2.4h1.7v-1.7c0-1.6 1.1-2.7 2.8-2.7H77v2.4h-1.5c-.4 0-.7.2-.7.7v1.3H77v2.4h-2.2V34h-2.5v-6.2zM86.2 30.6h-6c.3.7 1 1.2 1.9 1.2.8 0 1.4-.4 1.8-1l2 1.2c-.7 1.3-2.1 2.1-3.8 2.1-2.6 0-4.5-1.9-4.5-4.5 0-2.5 1.8-4.5 4.3-4.5s4.3 1.9 4.3 4.5c.1.4.1.7 0 1zm-6-1.8h3.6c-.2-.8-.9-1.3-1.8-1.3s-1.6.5-1.8 1.3z"/></g><g fill="#193062"><path d="M13.4 45.6h2.7V58h-2.7V45.6zM26.4 52.7V58h-2.5v-4.8c0-.8-.5-1.5-1.4-1.5s-1.5.7-1.5 1.5V58h-2.5v-8.6H21v.5c.6-.4 1.3-.7 2.1-.7 1.9.1 3.3 1.5 3.3 3.5zM31.7 55.9c.7 0 1.1-.3 1.1-.6s-.2-.4-.6-.5c-.4-.1-.9-.1-1.5-.2-1.7-.3-2.4-1.3-2.4-2.5 0-1.7 1.4-2.9 3.5-2.9 2 0 3.5 1.2 3.5 2.9h-2.4c0-.4-.4-.6-1.1-.6-.6 0-1 .3-1 .6 0 .2.2.4.6.4.5.1.9.1 1.6.2 1.7.2 2.4 1.2 2.4 2.5 0 1.7-1.4 3-3.6 3-2.1 0-3.6-1.2-3.6-3h2.4c-.1.5.3.7 1.1.7zM44.7 49.4V58h-2.5v-.5c-.6.4-1.3.7-2.1.7-1.9 0-3.3-1.4-3.3-3.4v-5.4h2.5v4.9c0 .8.5 1.4 1.4 1.4.9 0 1.4-.6 1.4-1.4v-4.9h2.6zM52.3 49.4v2.5H51c-1 0-1.6.7-1.6 1.7V58h-2.5v-8.6h2.5v.8c.5-.6 1.3-.8 2-.8h.9zM60.6 52.6V58h-2.5v-.5c-.5.5-1.2.6-2.1.6-1.8 0-3-1.1-3-2.7 0-1.8 1.3-2.5 3-2.7l2.1-.2v-.1c0-.6-.6-1-1.3-1-.6 0-1.1.3-1.2.8h-2.4c.1-1.8 1.6-3.1 3.6-3.1 2.3.2 3.8 1.6 3.8 3.5zM58.2 55v-.5l-1.7.1c-.6.1-.9.4-.9.8s.4.8 1.1.8c.9 0 1.5-.5 1.5-1.2zM70.8 52.7V58h-2.5v-4.8c0-.8-.5-1.5-1.4-1.5-.9 0-1.5.6-1.5 1.5V58h-2.5v-8.6h2.5v.5c.6-.4 1.3-.7 2.1-.7 1.8.1 3.3 1.5 3.3 3.5zM76.8 49.3c1.6 0 3 .8 3.7 2l-2 1.4c-.4-.6-.9-1-1.7-1-1.1 0-1.9.9-1.9 2s.8 2 1.9 2c.7 0 1.3-.4 1.7-1l2 1.4c-.7 1.2-2.1 2-3.7 2-2.6 0-4.4-2-4.4-4.5s1.8-4.3 4.4-4.3zM89.8 54.6h-6c.3.7 1 1.2 1.9 1.2.8 0 1.4-.4 1.8-1l2 1.2c-.7 1.3-2.1 2.1-3.8 2.1-2.6 0-4.5-1.9-4.5-4.5 0-2.5 1.8-4.5 4.3-4.5s4.3 1.9 4.3 4.5c.1.4.1.7 0 1zm-6-1.8h3.6c-.2-.8-.9-1.3-1.8-1.3-.9.1-1.6.5-1.8 1.3zM97.3 51.8h-1.7v-2.4h1.7v-1.7c0-1.6 1.1-2.7 2.8-2.7h1.9v2.4h-1.5c-.4 0-.7.2-.7.7v1.3h2.2v2.4h-2.2V58h-2.5v-6.2zM107.2 49.3c2.6 0 4.5 2 4.5 4.5 0 2.4-1.9 4.5-4.5 4.5s-4.5-2-4.5-4.5c0-2.6 1.9-4.5 4.5-4.5zm0 6.4c1.1 0 2-.9 2-2s-.8-2-2-2c-1.1 0-2 .9-2 2 0 1.2.9 2 2 2zM118.8 49.4v2.5h-1.3c-1 0-1.6.7-1.6 1.7V58h-2.5v-8.6h2.5v.8c.5-.6 1.3-.8 2-.8h.9z"/></g><g fill="#193062"><path d="M20.9 73.4l-4.4 12.2h-2.6l1.4-3.8-3-8.4H15l1.6 4.6 1.7-4.6h2.6zM25.8 73.3c2.6 0 4.5 2 4.5 4.5 0 2.4-1.9 4.5-4.5 4.5s-4.5-2-4.5-4.5c0-2.6 1.9-4.5 4.5-4.5zm0 6.4c1.1 0 2-.9 2-2s-.8-2-2-2c-1.1 0-2 .9-2 2 0 1.2.9 2 2 2zM39.8 73.4V82h-2.5v-.5c-.6.4-1.3.7-2.1.7-1.9 0-3.3-1.4-3.3-3.4v-5.4h2.5v4.9c0 .8.5 1.4 1.4 1.4.9 0 1.4-.6 1.4-1.4v-4.9h2.6zM47.5 73.4v2.5h-1.3c-1 0-1.6.7-1.6 1.7V82H42v-8.6h2.5v.8c.5-.6 1.3-.8 2-.8h1zM54.6 75.8h-1.7v-2.4h1.7v-1.7c0-1.6 1.1-2.7 2.8-2.7h1.9v2.4h-1.5c-.4 0-.7.2-.7.7v1.3h2.2v2.4h-2.2V82h-2.5v-6.2zM67.7 76.6V82h-2.5v-.5c-.5.5-1.2.6-2.1.6-1.8 0-3-1.1-3-2.7 0-1.8 1.3-2.5 3-2.7l2.1-.2v-.1c0-.6-.6-1-1.3-1-.6 0-1.1.3-1.2.8h-2.4c.1-1.8 1.6-3.1 3.6-3.1 2.3.2 3.8 1.6 3.8 3.5zM65.2 79v-.5l-1.7.1c-.6.1-.9.4-.9.8s.4.8 1.1.8c.9 0 1.5-.5 1.5-1.2zM82.4 76.4V82h-2.5v-5c0-.7-.5-1.3-1.3-1.3-.7 0-1.2.6-1.2 1.3v5h-2.5v-5c0-.7-.5-1.3-1.2-1.3s-1.2.6-1.2 1.3v5H70v-8.6h2.5v.4c.5-.4 1.2-.6 1.9-.6.9 0 1.7.3 2.2.9.6-.5 1.4-.9 2.4-.9 1.9.1 3.4 1.4 3.4 3.2zM85.8 69.2c.9 0 1.6.7 1.6 1.6 0 .9-.7 1.6-1.6 1.6s-1.6-.7-1.6-1.6c.1-.9.7-1.6 1.6-1.6zM87.1 82h-2.5v-8.6h2.5V82zM89.3 69.1h2.5v13h-2.5v-13zM101.7 73.4l-4.4 12.2h-2.6l1.4-3.8-3-8.4h2.7l1.6 4.6 1.7-4.6h2.6z"/></g><g fill="#193062"><path d="M25.2 97.5l-2.8 8.6h-2.6l-1.1-3.6-1.1 3.6H15l-2.8-8.6H15l1.5 4.9 1.5-4.9h1.6l1.4 4.7 1.5-4.7h2.7zM27.8 93.2c.9 0 1.6.7 1.6 1.6 0 .9-.7 1.6-1.6 1.6s-1.6-.7-1.6-1.6c0-.9.7-1.6 1.6-1.6zM29 106h-2.5v-8.6H29v8.6zM34.1 97.5h2.6v2.4h-2.6v2.9c0 .6.4.9.9.9h1.7v2.4h-2.2c-1.7 0-2.9-1.1-2.9-2.9v-3.3h-1.2v-1.3l2.4-2.9h1.4v1.8zM46.4 100.7v5.3h-2.5v-4.8c0-.8-.5-1.5-1.4-1.5-.9 0-1.5.6-1.5 1.5v4.8h-2.5V93H41v4.8c.6-.4 1.3-.6 2.1-.6 1.9.1 3.3 1.5 3.3 3.5zM57.3 97.3c1.6 0 3 .8 3.7 2l-2 1.4c-.4-.6-.9-1-1.7-1-1.1 0-1.9.9-1.9 2s.8 2 1.9 2c.7 0 1.3-.4 1.7-1l2 1.4c-.7 1.2-2.1 2-3.7 2-2.6 0-4.4-2-4.4-4.5s1.9-4.3 4.4-4.3zM62.4 93.1h2.5v13h-2.5v-13zM75.1 102.6h-6c.3.7 1 1.2 1.9 1.2.8 0 1.4-.4 1.8-1l2 1.2c-.7 1.3-2.1 2.1-3.8 2.1-2.6 0-4.5-1.9-4.5-4.5 0-2.5 1.8-4.5 4.3-4.5s4.3 1.9 4.3 4.5c.1.4.1.7 0 1zm-6-1.8h3.6c-.2-.8-.9-1.3-1.8-1.3-.9.1-1.6.5-1.8 1.3zM83.9 100.6v5.4h-2.5v-.5c-.5.5-1.2.6-2.1.6-1.8 0-3-1.1-3-2.7 0-1.8 1.3-2.5 3-2.7l2.1-.2v-.1c0-.6-.6-1-1.3-1-.6 0-1.1.3-1.2.8h-2.4c.1-1.8 1.6-3.1 3.6-3.1 2.3.2 3.8 1.6 3.8 3.5zm-2.4 2.4v-.5l-1.7.1c-.6.1-.9.4-.9.8s.4.8 1.1.8c.9 0 1.5-.5 1.5-1.2zM91.6 97.5v2.5h-1.3c-1 0-1.6.7-1.6 1.7v4.4h-2.5v-8.6h2.5v.8c.5-.6 1.3-.8 2-.8h.9z"/></g><g fill="#193062"><path d="M14.5 117.2c.9 0 1.6.7 1.6 1.6 0 .9-.7 1.6-1.6 1.6s-1.6-.7-1.6-1.6c0-.9.7-1.6 1.6-1.6zm1.3 12.8h-2.5v-8.6h2.5v8.6zM25.9 124.7v5.4h-2.5v-4.8c0-.8-.5-1.5-1.4-1.5-.9 0-1.5.6-1.5 1.5v4.8H18v-8.6h2.5v.5c.6-.4 1.3-.7 2.1-.7 1.9 0 3.3 1.4 3.3 3.4zM28.9 123.9h-1.7v-2.4h1.7v-1.7c0-1.6 1.1-2.7 2.8-2.7h1.9v2.4h-1.5c-.4 0-.7.2-.7.7v1.3h2.2v2.4h-2.2v6.2h-2.5v-6.2zM38.8 121.3c2.6 0 4.5 2 4.5 4.5 0 2.4-1.9 4.5-4.5 4.5s-4.5-2-4.5-4.5c0-2.6 1.9-4.5 4.5-4.5zm0 6.4c1.1 0 2-.9 2-2s-.8-2-2-2c-1.1 0-2 .9-2 2 0 1.2.8 2 2 2zM50.4 121.5v2.5h-1.3c-1 0-1.6.7-1.6 1.7v4.4H45v-8.6h2.5v.8c.5-.6 1.3-.8 2-.8h.9zM64.3 124.4v5.6h-2.5v-5c0-.7-.5-1.3-1.3-1.3-.7 0-1.2.6-1.2 1.3v5h-2.5v-5c0-.7-.5-1.3-1.2-1.3s-1.2.6-1.2 1.3v5h-2.5v-8.6h2.5v.4c.5-.4 1.2-.6 1.9-.6.9 0 1.7.3 2.2.9.6-.5 1.4-.9 2.4-.9 1.9.1 3.4 1.4 3.4 3.2zM73.6 124.7v5.4h-2.5v-.5c-.5.5-1.2.6-2.1.6-1.8 0-3-1.1-3-2.7 0-1.8 1.3-2.5 3-2.7l2.1-.2v-.1c0-.6-.6-1-1.3-1-.6 0-1.1.3-1.2.8h-2.4c.1-1.8 1.6-3.1 3.6-3.1 2.3.1 3.8 1.5 3.8 3.5zm-2.5 2.3v-.5l-1.7.1c-.6.1-.9.4-.9.8s.4.8 1.1.8c1 0 1.5-.5 1.5-1.2zM78.5 121.5h2.6v2.4h-2.6v2.9c0 .6.4.9.9.9h1.7v2.4H79c-1.7 0-2.9-1.1-2.9-2.9v-3.3h-1.2v-1.3l2.4-2.9h1.4v1.8zM84.1 117.2c.9 0 1.6.7 1.6 1.6 0 .9-.7 1.6-1.6 1.6s-1.6-.7-1.6-1.6c.1-.9.7-1.6 1.6-1.6zm1.3 12.8h-2.5v-8.6h2.5v8.6zM91.5 121.3c2.6 0 4.5 2 4.5 4.5 0 2.4-1.9 4.5-4.5 4.5s-4.5-2-4.5-4.5c0-2.6 1.9-4.5 4.5-4.5zm0 6.4c1.1 0 2-.9 2-2s-.8-2-2-2c-1.1 0-2 .9-2 2 0 1.2.9 2 2 2zM105.6 124.7v5.4h-2.5v-4.8c0-.8-.5-1.5-1.4-1.5s-1.5.6-1.5 1.5v4.8h-2.5v-8.6h2.5v.5c.6-.4 1.3-.7 2.1-.7 1.8 0 3.3 1.4 3.3 3.4z"/></g><g fill="#193062"><path d="M14.1 147.9h-1.7v-2.4h1.7v-1.7c0-1.6 1.1-2.7 2.8-2.7h1.9v2.4h-1.5c-.4 0-.7.2-.7.7v1.3h2.2v2.4h-2.2v6.2h-2.5v-6.2zM25.7 145.5v2.5h-1.3c-1 0-1.6.7-1.6 1.7v4.4h-2.5v-8.6h2.5v.8c.5-.6 1.3-.8 2-.8h.9zM31 145.3c2.6 0 4.5 2 4.5 4.5 0 2.4-1.9 4.5-4.5 4.5s-4.5-2-4.5-4.5c.1-2.6 2-4.5 4.5-4.5zm0 6.5c1.1 0 2-.9 2-2s-.8-2-2-2c-1.1 0-2 .9-2 2 .1 1.1.9 2 2 2zM49.7 148.4v5.6h-2.5v-5c0-.7-.5-1.3-1.3-1.3-.7 0-1.2.6-1.2 1.3v5h-2.5v-5c0-.7-.5-1.3-1.2-1.3s-1.2.6-1.2 1.3v5h-2.5v-8.6h2.5v.4c.5-.4 1.2-.6 1.9-.6.9 0 1.7.3 2.2.9.6-.5 1.4-.9 2.4-.9 1.9.1 3.4 1.4 3.4 3.2zM59.6 145.5h2.6v2.4h-2.6v2.9c0 .6.4.9.9.9h1.7v2.4H60c-1.7 0-2.9-1.1-2.9-2.9v-3.3h-1.2v-1.3l2.4-2.9h1.4v1.8zM71.9 148.7v5.3h-2.5v-4.8c0-.8-.5-1.5-1.4-1.5-.9 0-1.5.6-1.5 1.5v4.8H64v-13h2.5v4.8c.6-.4 1.3-.6 2.1-.6 1.9.1 3.3 1.5 3.3 3.5zM82 150.6h-6c.3.7 1 1.2 1.9 1.2.8 0 1.4-.4 1.8-1l2 1.2c-.7 1.3-2.1 2.1-3.8 2.1-2.6 0-4.5-1.9-4.5-4.5 0-2.5 1.8-4.5 4.3-4.5s4.3 1.9 4.3 4.5c.1.4.1.8 0 1zm-6-1.8h3.6c-.2-.8-.9-1.3-1.8-1.3-.9.1-1.6.5-1.8 1.3zM91.8 152c.7 0 1.1-.3 1.1-.6s-.2-.4-.6-.5c-.4-.1-.9-.1-1.5-.2-1.7-.3-2.4-1.3-2.4-2.5 0-1.7 1.4-2.9 3.5-2.9 2 0 3.5 1.2 3.5 2.9H93c0-.4-.4-.6-1.1-.6-.6 0-1 .3-1 .6 0 .2.2.4.6.4.5.1.9.1 1.6.2 1.7.2 2.4 1.2 2.4 2.5 0 1.7-1.4 3-3.6 3-2.1 0-3.6-1.2-3.6-3h2.4c-.1.4.4.7 1.1.7zM99.8 145.5h2.6v2.4h-2.6v2.9c0 .6.4.9.9.9h1.7v2.4h-2.2c-1.7 0-2.9-1.1-2.9-2.9v-3.3H96v-1.3l2.4-2.9h1.4v1.8zM111.2 148.7v5.4h-2.5v-.5c-.5.5-1.2.6-2.1.6-1.8 0-3-1.1-3-2.7 0-1.8 1.3-2.5 3-2.7l2.1-.2v-.1c0-.6-.6-1-1.3-1-.6 0-1.1.3-1.2.8h-2.4c.1-1.8 1.6-3.1 3.6-3.1 2.3.1 3.8 1.5 3.8 3.5zm-2.5 2.3v-.5l-1.7.1c-.6.1-.9.4-.9.8s.4.8 1.1.8c1 0 1.5-.4 1.5-1.2zM118.8 145.5v2.5h-1.3c-1 0-1.6.7-1.6 1.7v4.4h-2.5v-8.6h2.5v.8c.5-.6 1.3-.8 2-.8h.9zM123.3 145.5h2.6v2.4h-2.6v2.9c0 .6.4.9.9.9h1.7v2.4h-2.2c-1.7 0-2.9-1.1-2.9-2.9v-3.3h-1.2v-1.3l2.4-2.9h1.4v1.8zM129 151c.9 0 1.6.7 1.6 1.6 0 .9-.7 1.6-1.6 1.6s-1.6-.7-1.6-1.6c0-.9.7-1.6 1.6-1.6z"/></g></svg>