<?xml version="1.0" encoding="utf-8"?>
<!-- Generator: Adobe Illustrator 27.4.0, SVG Export Plug-In . SVG Version: 6.00 Build 0)  -->
<svg version="1.1" baseProfile="tiny" id="Layer_1" xmlns="http://www.w3.org/2000/svg" xmlns:xlink="http://www.w3.org/1999/xlink"
	 x="0px" y="0px" viewBox="0 0 728 90" overflow="visible" xml:space="preserve">
<g>
	<path fill="#193062" d="M207.5,20.9v0.7c0,5.3-3.6,9.2-9,9.2c-5.5,0-9.3-4-9.3-9.4c0-5.3,3.9-9.4,9.4-9.4c3.6,0,6.6,1.8,8.2,4.5
		l-3.3,2.1c-0.9-1.7-2.7-2.8-4.9-2.8c-3.2,0-5.5,2.4-5.5,5.5c0,3.3,2.1,5.7,5.4,5.7c2.2,0,3.8-1,4.6-2.6h-5.9v-3.6H207.5z"/>
	<path fill="#193062" d="M215.8,17.7c3.8,0,6.6,2.9,6.6,6.6c0,3.6-2.8,6.5-6.6,6.5c-3.8,0-6.6-2.9-6.6-6.5
		C209.2,20.5,212,17.7,215.8,17.7z M215.8,27.2c1.7,0,2.9-1.3,2.9-2.9c0-1.7-1.2-3-2.9-3c-1.7,0-2.9,1.3-2.9,3
		C212.9,25.9,214.1,27.2,215.8,27.2z"/>
	<path fill="#193062" d="M233.3,21.5h-2.5v-3.5h2.5v-2.5c0-2.4,1.6-3.9,4-3.9h2.8V15H238c-0.6,0-1,0.3-1,1v1.9h3.2v3.5H237v9.1h-3.7
		V21.5z"/>
	<path fill="#193062" d="M247.9,17.7c3.8,0,6.6,2.9,6.6,6.6c0,3.6-2.8,6.5-6.6,6.5s-6.6-2.9-6.6-6.5
		C241.3,20.5,244.1,17.7,247.9,17.7z M247.9,27.2c1.7,0,2.9-1.3,2.9-2.9c0-1.7-1.2-3-2.9-3s-2.9,1.3-2.9,3
		C245,25.9,246.2,27.2,247.9,27.2z"/>
	<path fill="#193062" d="M264.9,17.9v3.6H263c-1.4,0-2.4,1.1-2.4,2.5v6.4h-3.7V17.9h3.6v1.1c0.7-0.9,1.8-1.1,2.9-1.1H264.9z"/>
	<path fill="#193062" d="M284.6,17.9l-4.1,12.6h-3.8l-1.6-5.3l-1.6,5.3h-3.8l-4.2-12.6h4l2.2,7.1l2.2-7.1h2.4l2.1,6.9l2.3-6.9H284.6
		z"/>
	<path fill="#193062" d="M296.5,22.6v7.9h-3.6v-0.7c-0.8,0.7-1.7,0.9-3.1,0.9c-2.6,0-4.4-1.6-4.4-3.9c0-2.6,2-3.7,4.4-3.9l3.1-0.2
		v-0.1c0-0.8-0.8-1.5-1.8-1.5c-0.9,0-1.6,0.5-1.8,1.2h-3.5c0.2-2.6,2.3-4.5,5.3-4.5C294.3,17.7,296.5,19.8,296.5,22.6z M292.9,26.1
		v-0.8l-2.5,0.2c-0.9,0.1-1.3,0.5-1.3,1.1c0,0.6,0.6,1.2,1.6,1.2C292,27.8,292.9,27.2,292.9,26.1z"/>
	<path fill="#193062" d="M307.7,17.9v3.6h-1.9c-1.4,0-2.4,1.1-2.4,2.5v6.4h-3.7V17.9h3.6v1.1c0.7-0.9,1.8-1.1,2.9-1.1H307.7z"/>
	<path fill="#193062" d="M322,11.5v19h-3.6v-0.8c-0.8,0.6-2,1-3.2,1c-3.6,0-6.2-2.9-6.2-6.5c0-3.7,2.6-6.6,6.2-6.6
		c1.2,0,2.3,0.4,3.1,1v-7.1H322z M318.4,24.3c0-1.7-1.2-3-2.9-3c-1.6,0-2.8,1.3-2.8,3c0,1.6,1.2,2.9,2.8,2.9
		C317.2,27.2,318.4,25.9,318.4,24.3z"/>
	<path fill="#193062" d="M350.2,17.9L346,30.5h-3.8l-1.6-5.3l-1.6,5.3h-3.8l-4.2-12.6h4l2.2,7.1l2.2-7.1h2.4l2.1,6.9l2.3-6.9H350.2z
		"/>
	<path fill="#193062" d="M353.9,11.7c1.3,0,2.3,1,2.3,2.3c0,1.3-1,2.3-2.3,2.3c-1.3,0-2.3-1-2.3-2.3
		C351.6,12.7,352.6,11.7,353.9,11.7z M355.7,30.5H352V17.9h3.7V30.5z"/>
	<path fill="#193062" d="M363.2,17.9h3.9v3.5h-3.9v4.2c0,0.8,0.5,1.4,1.4,1.4h2.5v3.5h-3.2c-2.5,0-4.3-1.6-4.3-4.2v-4.9h-1.8v-1.9
		l3.5-4.3h2V17.9z"/>
	<path fill="#193062" d="M381.2,22.7v7.8h-3.7v-7.1c0-1.2-0.8-2.2-2.1-2.2c-1.3,0-2.2,1-2.2,2.2v7.1h-3.7v-19h3.7v7.1
		c0.8-0.6,1.8-1,3-1C379.1,17.7,381.2,19.8,381.2,22.7z"/>
</g>
<g>
	<path fill="#193062" d="M195.4,43.7c2.4,0,4.4,1.2,5.5,2.9l-3,2.1c-0.5-0.8-1.4-1.4-2.5-1.4c-1.6,0-2.8,1.3-2.8,3
		c0,1.7,1.2,2.9,2.8,2.9c1.1,0,1.9-0.6,2.5-1.4l3,2.1c-1.1,1.8-3.1,3-5.5,3c-3.8,0-6.5-2.9-6.5-6.6S191.6,43.7,195.4,43.7z"/>
	<path fill="#193062" d="M208.6,43.7c3.8,0,6.6,2.9,6.6,6.6c0,3.6-2.8,6.5-6.6,6.5s-6.6-3-6.6-6.5C202,46.5,204.8,43.7,208.6,43.7z
		 M208.6,53.2c1.7,0,2.9-1.3,2.9-2.9c0-1.7-1.2-3-2.9-3s-2.9,1.3-2.9,3C205.7,51.9,206.9,53.2,208.6,53.2z"/>
	<path fill="#193062" d="M229.2,48.7v7.9h-3.7v-7.1c0-1.2-0.8-2.1-2.1-2.1s-2.1,0.9-2.1,2.1v7.1h-3.7V43.9h3.6v0.7
		c0.8-0.6,1.9-1,3.1-1C227.1,43.7,229.2,45.8,229.2,48.7z"/>
	<path fill="#193062" d="M233.6,47.5h-2.5v-3.5h2.5v-2.5c0-2.4,1.6-3.9,4-3.9h2.8V41h-2.1c-0.6,0-1,0.3-1,1v1.9h3.2v3.5h-3.2v9.1
		h-3.7V47.5z M244.6,37.7c1.3,0,2.3,1,2.3,2.3c0,1.3-1,2.3-2.3,2.3c-1.3,0-2.3-1-2.3-2.3C242.3,38.7,243.3,37.7,244.6,37.7z
		 M246.4,56.5h-3.7V43.9h3.7V56.5z"/>
	<path fill="#193062" d="M262,37.5v19h-3.6v-0.8c-0.8,0.7-2,1-3.2,1c-3.6,0-6.2-2.9-6.2-6.5c0-3.7,2.6-6.6,6.2-6.6
		c1.2,0,2.3,0.4,3.1,1v-7.1H262z M258.4,50.3c0-1.7-1.2-3-2.9-3c-1.6,0-2.8,1.3-2.8,3c0,1.6,1.2,2.9,2.8,2.9
		C257.2,53.2,258.4,51.9,258.4,50.3z"/>
	<path fill="#193062" d="M276.9,51.6h-8.8c0.4,1.1,1.5,1.8,2.8,1.8c1.2,0,2.1-0.6,2.6-1.4l2.9,1.8c-1.1,1.9-3.1,3.1-5.6,3.1
		c-3.8,0-6.5-2.8-6.5-6.5c0-3.7,2.6-6.6,6.3-6.6c3.7,0,6.3,2.8,6.3,6.5C277.1,50.7,277,51.1,276.9,51.6z M268.1,48.9h5.3
		c-0.4-1.2-1.3-1.8-2.6-1.8C269.4,47,268.4,47.7,268.1,48.9z"/>
	<path fill="#193062" d="M291.2,48.7v7.9h-3.7v-7.1c0-1.2-0.8-2.1-2.1-2.1s-2.1,0.9-2.1,2.1v7.1h-3.7V43.9h3.6v0.7
		c0.8-0.6,1.9-1,3.1-1C289.1,43.7,291.2,45.8,291.2,48.7z"/>
	<path fill="#193062" d="M300.1,43.7c2.4,0,4.4,1.2,5.5,2.9l-3,2.1c-0.5-0.8-1.4-1.4-2.5-1.4c-1.6,0-2.8,1.3-2.8,3
		c0,1.7,1.2,2.9,2.8,2.9c1.1,0,1.9-0.6,2.4-1.4l3,2.1c-1.1,1.8-3.1,3-5.5,3c-3.8,0-6.5-2.9-6.5-6.6S296.3,43.7,300.1,43.7z"/>
	<path fill="#193062" d="M319.2,51.6h-8.8c0.4,1.1,1.5,1.8,2.8,1.8c1.2,0,2.1-0.6,2.6-1.4l2.9,1.8c-1.1,1.9-3.1,3.1-5.6,3.1
		c-3.8,0-6.5-2.8-6.5-6.5c0-3.7,2.6-6.6,6.3-6.6c3.7,0,6.3,2.8,6.3,6.5C319.3,50.7,319.3,51.1,319.2,51.6z M310.3,48.9h5.3
		c-0.4-1.2-1.3-1.8-2.6-1.8C311.7,47,310.7,47.7,310.3,48.9z"/>
	<path fill="#193062" d="M323.6,52.1c1.3,0,2.3,1,2.3,2.3c0,1.3-1,2.3-2.3,2.3c-1.3,0-2.3-1-2.3-2.3
		C321.3,53.1,322.3,52.1,323.6,52.1z"/>
</g>
</svg>
