<svg baseProfile="tiny" xmlns="http://www.w3.org/2000/svg" viewBox="0 0 300 250" overflow="visible"><g fill="#193062"><path d="M10.8 73.7h2.5v4.6h4.5v-4.6h2.5v11.7h-2.5v-4.7h-4.5v4.7h-2.5V73.7zM30 82.2h-5.6c.3.7 1 1.2 1.8 1.2s1.3-.4 1.7-.9l1.9 1.1c-.7 1.2-2 2-3.6 2-2.4 0-4.2-1.8-4.2-4.2 0-2.4 1.7-4.2 4.1-4.2 2.4 0 4 1.8 4 4.2 0 .2-.1.5-.1.8zm-5.7-1.7h3.4c-.2-.8-.9-1.2-1.7-1.2-.8 0-1.5.4-1.7 1.2zM31.6 73.2H34v12.2h-2.4V73.2zM44.5 81.4c0 2.3-1.6 4.2-4 4.2-.8 0-1.5-.2-2-.6v3.8h-2.4V77.3h2.3v.5c.5-.4 1.3-.6 2.1-.6 2.3-.1 4 1.8 4 4.2zm-2.4 0c0-1.1-.8-1.9-1.8-1.9-1.1 0-1.9.8-1.9 1.9 0 1.1.8 1.9 1.9 1.9 1.1-.1 1.8-.9 1.8-1.9zM47.2 73.3c.8 0 1.5.6 1.5 1.5 0 .8-.6 1.5-1.5 1.5-.8 0-1.5-.7-1.5-1.5.1-.8.7-1.5 1.5-1.5zm1.2 12.1H46v-8.1h2.4v8.1zM58 80.3v5h-2.4v-4.6c0-.8-.5-1.4-1.3-1.4s-1.4.6-1.4 1.4v4.6h-2.4v-8.1h2.3v.5c.5-.4 1.2-.6 2-.6 1.9 0 3.2 1.4 3.2 3.2zM67.6 77.3v7.8c0 2.2-1.6 3.8-4 3.8-1.8 0-3.3-1-3.7-2.6l2.2-.8c.2.7.8 1.1 1.6 1.1 1 0 1.6-.6 1.6-1.6v-.6c-.5.4-1.2.6-1.9.6-2.2 0-3.8-1.7-3.8-4 0-2.2 1.6-4 3.8-4 .8 0 1.5.2 2 .7v-.5h2.2zm-2.3 3.8c0-1-.7-1.7-1.7-1.7s-1.7.8-1.7 1.7c0 .9.7 1.7 1.7 1.7s1.7-.7 1.7-1.7zM82.7 81.4c0 2.3-1.6 4.2-4 4.2-.8 0-1.5-.2-2-.6v3.8h-2.4V77.3h2.3v.5c.5-.4 1.3-.6 2.1-.6 2.3-.1 4 1.8 4 4.2zm-2.4 0c0-1.1-.8-1.9-1.8-1.9-1.1 0-1.9.8-1.9 1.9 0 1.1.8 1.9 1.9 1.9 1-.1 1.8-.9 1.8-1.9zM89.4 77.3v2.3h-1.2c-.9 0-1.6.7-1.6 1.6v4.1h-2.4v-8.1h2.3v.8c.4-.6 1.2-.7 1.9-.7h1zM94.3 77.1c2.4 0 4.2 1.8 4.2 4.2 0 2.3-1.8 4.2-4.2 4.2-2.4 0-4.2-1.9-4.2-4.2 0-2.3 1.8-4.2 4.2-4.2zm0 6.1c1.1 0 1.9-.8 1.9-1.9 0-1.1-.8-1.9-1.9-1.9-1.1 0-1.9.8-1.9 1.9.1 1.1.9 1.9 1.9 1.9zM102.8 77.3h2.5v2.3h-2.5v2.7c0 .5.4.9.9.9h1.6v2.3h-2.1c-1.6 0-2.8-1.1-2.8-2.7v-3.1h-1.2v-1.2l2.2-2.7h1.3v1.5zM114.3 82.2h-5.6c.3.7 1 1.2 1.8 1.2s1.3-.4 1.7-.9l1.9 1.1c-.7 1.2-2 2-3.6 2-2.4 0-4.2-1.8-4.2-4.2 0-2.4 1.7-4.2 4.1-4.2 2.4 0 4 1.8 4 4.2 0 .2 0 .5-.1.8zm-5.7-1.7h3.4c-.2-.8-.9-1.2-1.7-1.2-.8 0-1.5.4-1.7 1.2zM119.6 77.1c1.5 0 2.8.7 3.5 1.9l-1.9 1.3c-.4-.5-.9-.9-1.6-.9-1.1 0-1.8.8-1.8 1.9s.8 1.9 1.8 1.9c.7 0 1.2-.4 1.6-.9l1.9 1.3c-.7 1.2-2 1.9-3.5 1.9-2.4 0-4.2-1.8-4.2-4.2s1.8-4.2 4.2-4.2zM127.1 77.3h2.5v2.3h-2.5v2.7c0 .5.4.9.9.9h1.6v2.3h-2.1c-1.6 0-2.8-1.1-2.8-2.7v-3.1h-1.2v-1.2l2.2-2.7h1.3v1.5z"/></g><g fill="#193062"><path d="M17.8 100.3l-4.1 11.5h-2.5l1.3-3.6-2.8-7.9h2.6l1.5 4.4 1.6-4.4h2.4zM22.4 100.1c2.4 0 4.2 1.8 4.2 4.2 0 2.3-1.8 4.2-4.2 4.2-2.4 0-4.2-1.9-4.2-4.2 0-2.3 1.8-4.2 4.2-4.2zm0 6.1c1.1 0 1.9-.8 1.9-1.9 0-1.1-.8-1.9-1.9-1.9-1.1 0-1.9.8-1.9 1.9.1 1.1.9 1.9 1.9 1.9zM35.6 100.3v8.1h-2.3v-.4c-.5.4-1.2.6-2 .6-1.8 0-3.2-1.4-3.2-3.2v-5.1h2.4v4.6c0 .8.5 1.4 1.3 1.4s1.4-.6 1.4-1.4v-4.6h2.4zM42.8 100.3v2.3h-1.2c-.9 0-1.6.7-1.6 1.6v4.1h-2.4v-8.1H40v.7c.4-.6 1.2-.7 1.9-.7h.9zM49.6 102.6H48v-2.3h1.6v-1.6c0-1.6 1-2.5 2.6-2.5H54v2.3h-1.4c-.4 0-.7.2-.7.6v1.2h2v2.3h-2v5.8h-2.4v-5.8zM61.8 103.3v5.1h-2.3v-.4c-.5.4-1.1.6-2 .6-1.7 0-2.8-1-2.8-2.5 0-1.7 1.2-2.4 2.8-2.5l2-.2v-.1c0-.5-.5-1-1.2-1-.6 0-1.1.3-1.2.8h-2.3c.1-1.7 1.5-2.9 3.4-2.9 2.2-.1 3.6 1.3 3.6 3.1zm-2.3 2.2v-.5l-1.6.1c-.6 0-.8.3-.8.7 0 .4.4.8 1 .8.9 0 1.4-.4 1.4-1.1zM75.7 103.1v5.3h-2.4v-4.8c0-.6-.4-1.2-1.2-1.2-.7 0-1.2.5-1.2 1.2v4.8h-2.4v-4.8c0-.6-.4-1.2-1.2-1.2-.7 0-1.2.5-1.2 1.2v4.8h-2.4v-8.1H66v.4c.5-.4 1.1-.6 1.8-.6.8 0 1.6.3 2.1.8.6-.5 1.4-.8 2.3-.8 2.1 0 3.5 1.3 3.5 3zM78.9 96.3c.8 0 1.5.6 1.5 1.5 0 .8-.6 1.5-1.5 1.5-.8 0-1.5-.7-1.5-1.5.1-.9.7-1.5 1.5-1.5zm1.2 12.1h-2.4v-8.1h2.4v8.1zM82.2 96.2h2.4v12.2h-2.4V96.2zM93.9 100.3l-4.1 11.5h-2.5l1.3-3.6-2.8-7.9h2.6l1.5 4.4 1.6-4.4h2.4zM97.6 97.9c0 .2 0 .4-.1.5l-.9 2.7h-1.4l.4-1.9c-.5-.2-.9-.7-.9-1.3 0-.8.6-1.4 1.4-1.4 1 0 1.5.6 1.5 1.4zM101.7 106.4c.6 0 1-.3 1-.6 0-.2-.2-.4-.6-.4-.4 0-.8-.1-1.5-.2-1.6-.2-2.3-1.2-2.3-2.4 0-1.6 1.3-2.7 3.3-2.7 1.9 0 3.2 1.1 3.3 2.7h-2.3c0-.4-.4-.6-1-.6s-1 .2-1 .5c0 .2.2.4.6.4.5.1.8.1 1.5.1 1.6.2 2.3 1.2 2.3 2.4 0 1.6-1.3 2.8-3.3 2.8-2 0-3.4-1.2-3.4-2.8h2.3c0 .6.4.8 1.1.8z"/></g><g fill="#193062"><path d="M11.4 125.5H9.8v-2.3h1.6v-1.6c0-1.6 1-2.5 2.6-2.5h1.8v2.3h-1.4c-.4 0-.7.2-.7.6v1.2h2v2.3h-2v5.8h-2.4v-5.8zM24.6 123.3v8.1h-2.3v-.4c-.5.4-1.2.6-2 .6-1.8 0-3.2-1.4-3.2-3.2v-5.1h2.4v4.6c0 .8.5 1.4 1.3 1.4s1.4-.6 1.4-1.4v-4.6h2.4zM29.4 123.3h2.5v2.3h-2.5v2.7c0 .5.4.9.9.9h1.6v2.3h-2.1c-1.6 0-2.8-1.1-2.8-2.7v-3.1h-1.2v-1.2l2.2-2.7h1.3v1.5zM40.9 123.3v8.1h-2.3v-.4c-.5.4-1.2.6-2 .6-1.8 0-3.2-1.4-3.2-3.2v-5.1h2.4v4.6c0 .8.5 1.4 1.3 1.4s1.4-.6 1.4-1.4v-4.6h2.4zM48.1 123.3v2.3h-1.2c-.9 0-1.6.7-1.6 1.6v4.1H43v-8.1h2.3v.7c.4-.6 1.2-.7 1.9-.7h.9zM56.9 128.2h-5.6c.3.7 1 1.2 1.8 1.2s1.3-.4 1.7-.9l1.9 1.1c-.7 1.2-2 2-3.6 2-2.4 0-4.2-1.8-4.2-4.2 0-2.4 1.7-4.2 4.1-4.2 2.4 0 4 1.8 4 4.2 0 .2-.1.5-.1.8zm-5.7-1.7h3.4c-.2-.8-.9-1.2-1.7-1.2-.8 0-1.5.4-1.7 1.2zM66.8 123.1c1.5 0 2.8.7 3.5 1.9l-1.9 1.3c-.4-.5-.9-.9-1.6-.9-1.1 0-1.8.8-1.8 1.9 0 1.1.8 1.9 1.8 1.9.7 0 1.2-.4 1.6-.9l1.9 1.3c-.7 1.2-2 1.9-3.5 1.9-2.4 0-4.2-1.8-4.2-4.2 0-2.3 1.8-4.2 4.2-4.2zM75.2 123.1c2.4 0 4.2 1.8 4.2 4.2 0 2.3-1.8 4.2-4.2 4.2-2.4 0-4.2-1.9-4.2-4.2 0-2.3 1.8-4.2 4.2-4.2zm0 6.1c1.1 0 1.9-.8 1.9-1.9 0-1.1-.8-1.9-1.9-1.9-1.1 0-1.9.8-1.9 1.9.1 1.1.8 1.9 1.9 1.9zM88.4 123.3v8.1H86v-.4c-.5.4-1.2.6-2 .6-1.8 0-3.2-1.4-3.2-3.2v-5.1h2.4v4.6c0 .8.5 1.4 1.3 1.4s1.4-.6 1.4-1.4v-4.6h2.5zM90.5 119.2h2.4v12.2h-2.4v-12.2zM102.8 119.2v12.2h-2.3v-.5c-.5.4-1.3.7-2.1.7-2.3 0-4-1.9-4-4.2 0-2.4 1.6-4.2 4-4.2.8 0 1.5.2 2 .6v-4.6h2.4zm-2.3 8.1c0-1.1-.8-1.9-1.9-1.9-1.1 0-1.8.8-1.8 1.9 0 1.1.8 1.9 1.8 1.9 1.1 0 1.9-.8 1.9-1.9zM112.4 129.4c.6 0 1-.3 1-.6 0-.2-.2-.4-.6-.4-.4 0-.8-.1-1.5-.2-1.6-.2-2.3-1.2-2.3-2.4 0-1.6 1.3-2.7 3.3-2.7 1.9 0 3.2 1.1 3.3 2.7h-2.3c0-.4-.4-.6-1-.6s-1 .2-1 .5c0 .2.2.4.6.4.5.1.8.1 1.5.1 1.6.2 2.3 1.2 2.3 2.4 0 1.6-1.3 2.8-3.3 2.8-2 0-3.4-1.2-3.4-2.8h2.3c0 .5.4.8 1.1.8zM119.9 123.3h2.5v2.3h-2.5v2.7c0 .5.4.9.9.9h1.6v2.3h-2.1c-1.6 0-2.8-1.1-2.8-2.7v-3.1h-1.2v-1.2l2.2-2.7h1.3v1.5zM130.7 126.3v5.1h-2.3v-.4c-.5.4-1.1.6-2 .6-1.7 0-2.8-1-2.8-2.5 0-1.7 1.2-2.4 2.8-2.5l2-.2v-.1c0-.5-.5-1-1.2-1-.6 0-1.1.3-1.2.8h-2.3c.1-1.7 1.5-2.9 3.4-2.9 2.1-.1 3.6 1.3 3.6 3.1zm-2.4 2.2v-.5l-1.6.1c-.6 0-.8.3-.8.7 0 .4.4.8 1 .8.9 0 1.4-.4 1.4-1.1zM137.9 123.3v2.3h-1.2c-.9 0-1.6.7-1.6 1.6v4.1h-2.4v-8.1h2.3v.7c.4-.6 1.2-.7 1.9-.7h1zM142.1 123.3h2.5v2.3h-2.5v2.7c0 .5.4.9.9.9h1.6v2.3h-2.1c-1.6 0-2.8-1.1-2.8-2.7v-3.1h-1.2v-1.2l2.2-2.7h1.3v1.5z"/></g><g fill="#193062"><path d="M21.9 146.3l-2.7 8.1h-2.4l-1-3.4-1 3.4h-2.4l-2.7-8.1h2.6l1.4 4.6 1.4-4.6h1.5l1.4 4.4 1.5-4.4h2.4zM24.3 142.3c.8 0 1.5.6 1.5 1.5 0 .8-.6 1.5-1.5 1.5-.8 0-1.5-.7-1.5-1.5 0-.9.7-1.5 1.5-1.5zm1.2 12h-2.4v-8.1h2.4v8.1zM30.3 146.3h2.5v2.3h-2.5v2.7c0 .5.4.9.9.9h1.6v2.3h-2.1c-1.6 0-2.8-1.1-2.8-2.7v-3.1h-1.2v-1.2l2.2-2.7h1.3v1.5zM41.8 149.3v5h-2.4v-4.5c0-.8-.5-1.4-1.3-1.4s-1.4.6-1.4 1.4v4.5h-2.4v-12.2h2.4v4.6c.5-.4 1.2-.6 1.9-.6 1.9 0 3.2 1.4 3.2 3.2zM50.8 145.1h-3.3v-2.4h9.2v2.4h-3.3v9.3h-2.5v-9.3zM61.8 146.3v2.3h-1.2c-.9 0-1.6.7-1.6 1.6v4.1h-2.4v-8.1H59v.7c.4-.6 1.2-.7 1.9-.7h.9zM70.5 146.3v8.1h-2.3v-.4c-.5.4-1.2.6-2 .6-1.8 0-3.2-1.4-3.2-3.2v-5.1h2.4v4.6c0 .8.5 1.4 1.3 1.4s1.4-.6 1.4-1.4v-4.6h2.4zM76.5 144.9c-1.1 0-1.7.5-1.7 1.2 0 .4.3.8.7.9.8.3 1.8.1 3 .5 1.5.4 2.4 1.6 2.4 3.2 0 2.2-1.7 3.9-4.3 3.9-2.5 0-4.4-1.5-4.4-3.8h2.5c0 .8.8 1.4 2 1.4s1.8-.6 1.8-1.3c0-.5-.4-.8-.8-1-.7-.3-2-.2-3-.5-1.6-.4-2.4-1.6-2.4-3.1 0-2.2 1.7-3.7 4.2-3.7 2.4 0 4.2 1.5 4.2 3.6h-2.5c.1-.9-.7-1.3-1.7-1.3zM85.3 146.3h2.5v2.3h-2.5v2.7c0 .5.4.9.9.9h1.6v2.3h-2.1c-1.6 0-2.8-1.1-2.8-2.7v-3.1h-1.2v-1.2l2.2-2.7h1.3v1.5zM96.1 149.3v5.1h-2.3v-.4c-.5.4-1.1.6-2 .6-1.7 0-2.8-1-2.8-2.5 0-1.7 1.2-2.4 2.8-2.5l2-.2v-.1c0-.5-.5-1-1.2-1-.6 0-1.1.3-1.2.8h-2.3c.1-1.7 1.5-2.9 3.4-2.9 2.1-.1 3.6 1.2 3.6 3.1zm-2.4 2.2v-.5l-1.6.1c-.6 0-.8.3-.8.7 0 .4.4.8 1 .8.9 0 1.4-.4 1.4-1.1zM105.6 146.3v7.8c0 2.2-1.6 3.8-4 3.8-1.8 0-3.3-1-3.7-2.6l2.2-.8c.2.7.8 1.1 1.6 1.1 1 0 1.6-.6 1.6-1.6v-.6c-.5.4-1.2.6-1.9.6-2.2 0-3.8-1.7-3.8-4s1.6-4 3.8-4c.8 0 1.5.2 2 .7v-.5h2.2zm-2.2 3.8c0-1-.7-1.7-1.7-1.7s-1.7.8-1.7 1.7c0 .9.7 1.7 1.7 1.7.9 0 1.7-.8 1.7-1.7zM115.2 151.2h-5.6c.3.7 1 1.2 1.8 1.2s1.3-.4 1.7-.9l1.9 1.1c-.7 1.2-2 2-3.6 2-2.4 0-4.2-1.8-4.2-4.2 0-2.4 1.7-4.2 4.1-4.2 2.4 0 4 1.8 4 4.2 0 .2 0 .5-.1.8zm-5.6-1.8h3.4c-.2-.8-.9-1.2-1.7-1.2-.9.1-1.5.5-1.7 1.2zM117.7 144h-1.3v-1.3h3.9v1.3H119v3.3h-1.4V144zm3.3-1.3h1.3l1 2.1 1-2.1h1.3v4.6h-1.3v-2.1l-1 2.2-1.1-2.1v2H121v-4.6z"/></g><g fill="#193062"><path d="M10.8 165.7h2.5v9.3H20v2.4h-9.2v-11.7zM22.7 165.3c.8 0 1.5.6 1.5 1.5 0 .8-.6 1.5-1.5 1.5-.8 0-1.5-.7-1.5-1.5 0-.9.6-1.5 1.5-1.5zm1.2 12h-2.4v-8.1h2.4v8.1zM26.7 171.5h-1.6v-2.3h1.6v-1.6c0-1.6 1-2.5 2.6-2.5h1.8v2.3h-1.4c-.4 0-.7.2-.7.6v1.2h2v2.3h-2v5.8h-2.4v-5.8zM39.9 174.2h-5.6c.3.7 1 1.2 1.8 1.2s1.3-.4 1.7-.9l1.9 1.1c-.7 1.2-2 2-3.6 2-2.4 0-4.2-1.8-4.2-4.2 0-2.4 1.7-4.2 4.1-4.2 2.4 0 4 1.8 4 4.2 0 .2-.1.5-.1.8zm-5.7-1.8h3.4c-.2-.8-.9-1.2-1.7-1.2-.8.1-1.5.5-1.7 1.2zM46.3 165.7h2.5v11.7h-2.5v-11.7zM58.5 172.3v5h-2.4v-4.6c0-.8-.5-1.4-1.3-1.4s-1.4.6-1.4 1.4v4.6H51v-8.1h2.3v.5c.5-.4 1.2-.6 2-.6 1.9 0 3.2 1.4 3.2 3.2zM63.5 175.4c.6 0 1-.3 1-.6 0-.2-.2-.4-.6-.4-.4 0-.8-.1-1.5-.2-1.6-.2-2.3-1.2-2.3-2.4 0-1.6 1.3-2.7 3.3-2.7 1.9 0 3.2 1.1 3.3 2.7h-2.3c0-.4-.4-.6-1-.6s-1 .2-1 .5c0 .2.2.4.6.4.5.1.8.1 1.5.1 1.6.2 2.3 1.2 2.3 2.4 0 1.6-1.3 2.8-3.3 2.8-2 0-3.4-1.2-3.4-2.8h2.3c0 .5.4.8 1.1.8zM75.7 169.3v8.1h-2.3v-.4c-.5.4-1.2.6-2 .6-1.8 0-3.2-1.4-3.2-3.2v-5.1h2.4v4.6c0 .8.5 1.4 1.3 1.4s1.4-.6 1.4-1.4v-4.6h2.4zM83 169.3v2.3h-1.2c-.9 0-1.6.7-1.6 1.6v4.1h-2.4v-8.1h2.3v.7c.4-.6 1.2-.7 1.9-.7h1zM90.7 172.3v5.1h-2.3v-.4c-.5.4-1.1.6-2 .6-1.7 0-2.8-1-2.8-2.5 0-1.7 1.2-2.4 2.8-2.5l2-.2v-.1c0-.5-.5-1-1.2-1-.6 0-1.1.3-1.2.8h-2.3c.1-1.7 1.5-2.9 3.4-2.9 2.2-.1 3.6 1.2 3.6 3.1zm-2.3 2.2v-.5l-1.6.1c-.6 0-.8.3-.8.7 0 .4.4.8 1 .8.9 0 1.4-.4 1.4-1.1zM100.3 172.3v5h-2.4v-4.6c0-.8-.5-1.4-1.3-1.4s-1.4.6-1.4 1.4v4.6h-2.4v-8.1h2.3v.5c.5-.4 1.2-.6 2-.6 1.8 0 3.2 1.4 3.2 3.2zM106 169.1c1.5 0 2.8.7 3.5 1.9l-1.9 1.3c-.4-.5-.9-.9-1.6-.9-1.1 0-1.8.8-1.8 1.9 0 1.1.8 1.9 1.8 1.9.7 0 1.2-.4 1.6-.9l1.9 1.3c-.7 1.2-2 1.9-3.5 1.9-2.4 0-4.2-1.8-4.2-4.2 0-2.4 1.7-4.2 4.2-4.2zM118.2 174.2h-5.6c.3.7 1 1.2 1.8 1.2s1.3-.4 1.7-.9l1.9 1.1c-.7 1.2-2 2-3.6 2-2.4 0-4.2-1.8-4.2-4.2 0-2.4 1.7-4.2 4.1-4.2 2.4 0 4 1.8 4 4.2 0 .2 0 .5-.1.8zm-5.7-1.8h3.4c-.2-.8-.9-1.2-1.7-1.2-.8.1-1.5.5-1.7 1.2zM121 174.5c.8 0 1.5.6 1.5 1.5 0 .8-.6 1.5-1.5 1.5s-1.5-.7-1.5-1.5c.1-.9.7-1.5 1.5-1.5z"/></g></svg>