<svg baseProfile="tiny" xmlns="http://www.w3.org/2000/svg" viewBox="0 0 300 250" overflow="visible"><g fill="#454547"><path d="M17.3 142.1h-2.9v-1h7v1h-2.9v8.4h-1.2v-8.4zM21.9 145.8c0-.8 0-1.5-.1-2.1h1.1v1.3h.1c.3-.9 1.1-1.5 1.9-1.5h.4v1.2h-.4c-.9 0-1.5.7-1.7 1.6 0 .2-.1.4-.1.6v3.6h-1.2v-4.7zM32.1 148.6c0 .7 0 1.3.1 1.8h-1.1l-.1-1.1c-.3.5-1 1.3-2.2 1.3-1.1 0-2.3-.6-2.3-3v-4h1.2v3.8c0 1.3.4 2.2 1.5 2.2.8 0 1.4-.6 1.6-1.1.1-.2.1-.4.1-.6v-4.2h1.2v4.9zM34 149c.5.3 1.3.6 2.2.6 1.2 0 2-.7 2-1.6 0-.9-.5-1.4-1.8-1.9-1.5-.5-2.5-1.3-2.5-2.7 0-1.5 1.2-2.6 3.1-2.6 1 0 1.7.2 2.1.5l-.3 1c-.3-.2-.9-.4-1.8-.4-1.3 0-1.8.8-1.8 1.4 0 .9.6 1.3 1.9 1.8 1.6.6 2.4 1.4 2.4 2.8 0 1.5-1.1 2.7-3.3 2.7-.9 0-1.9-.3-2.4-.6l.2-1zM42.5 141.8v1.9h1.8v.9h-1.8v3.7c0 .8.2 1.3.9 1.3.3 0 .6 0 .7-.1l.1.9c-.2.1-.6.2-1.1.2-.6 0-1-.2-1.3-.5-.4-.4-.5-1-.5-1.8v-3.7h-1.1v-.9h1.1v-1.6l1.2-.3zM49.4 150.5l-.1-.9c-.4.5-1.1 1-2.1 1-1.4 0-2.1-1-2.1-1.9 0-1.6 1.5-2.5 4.1-2.5v-.2c0-.6-.2-1.6-1.5-1.6-.6 0-1.3.2-1.8.5l-.3-.8c.6-.4 1.4-.6 2.2-.6 2.1 0 2.6 1.4 2.6 2.8v2.5c0 .6 0 1.2.1 1.6h-1.1zm-.2-3.5c-1.3 0-2.9.2-2.9 1.5 0 .8.5 1.2 1.2 1.2.9 0 1.4-.6 1.6-1.1 0-.1.1-.3.1-.4V147zM58.2 143.7c0 .5-.1 1-.1 1.9v3.9c0 1.6-.3 2.5-1 3.1-.7.6-1.6.8-2.5.8-.8 0-1.7-.2-2.3-.6l.3-.9c.4.3 1.1.5 2 .5 1.3 0 2.2-.7 2.2-2.4v-.8c-.4.6-1.1 1.1-2.2 1.1-1.7 0-2.9-1.4-2.9-3.3 0-2.3 1.5-3.6 3.1-3.6 1.2 0 1.8.6 2.1 1.2l.1-1h1.2zm-1.2 2.7c0-.2 0-.4-.1-.6-.2-.7-.8-1.3-1.7-1.3-1.2 0-2 1-2 2.6 0 1.3.7 2.4 2 2.4.8 0 1.4-.5 1.7-1.3.1-.2.1-.4.1-.7v-1.1zM60.9 147.3c0 1.7 1.1 2.4 2.3 2.4.9 0 1.4-.2 1.9-.4l.2.9c-.4.2-1.2.4-2.3.4-2.1 0-3.3-1.4-3.3-3.4s1.2-3.7 3.2-3.7c2.2 0 2.8 1.9 2.8 3.2v.6h-4.8zm3.6-.9c0-.8-.3-2-1.7-2-1.2 0-1.8 1.1-1.9 2h3.6zM69.8 141v.6h-1.2v3.2h-.8v-3.2h-1.2v-.6h3.2zm4.2 3.8l-.1-2.2v-1.1c-.1.3-.2.8-.3 1.1l-.7 2.1H72l-.7-2.2c-.1-.3-.2-.7-.3-1.1v1.1l-.1 2.2h-.7l.3-3.8h1.1l.7 1.9c.1.3.2.6.3 1 .1-.4.2-.7.3-1l.7-1.9h1.1l.3 3.8h-1zM82.7 150.2c-.3.2-1 .4-1.9.4-2 0-3.4-1.4-3.4-3.5s1.4-3.6 3.6-3.6c.7 0 1.4.2 1.7.4l-.3 1c-.3-.2-.8-.3-1.4-.3-1.6 0-2.4 1.1-2.4 2.6 0 1.6 1 2.5 2.4 2.5.7 0 1.2-.2 1.5-.3l.2.8zM90.2 147c0 2.5-1.7 3.6-3.4 3.6-1.8 0-3.2-1.3-3.2-3.5 0-2.3 1.5-3.6 3.4-3.6s3.2 1.5 3.2 3.5zm-5.4.1c0 1.5.9 2.6 2.1 2.6 1.2 0 2.1-1.1 2.1-2.6 0-1.1-.6-2.6-2-2.6-1.6 0-2.2 1.3-2.2 2.6zM97.4 148.6c0 .7 0 1.3.1 1.8h-1.1l-.1-1.1c-.3.5-1 1.3-2.2 1.3-1.1 0-2.3-.6-2.3-3v-4H93v3.8c0 1.3.4 2.2 1.5 2.2.8 0 1.4-.6 1.6-1.1.1-.2.1-.4.1-.6v-4.2h1.2v4.9zM99.4 140.5h1.2v9.9h-1.2v-9.9zM108.6 140.5v8.2c0 .6 0 1.3.1 1.8h-1.1l-.1-1.2c-.4.8-1.2 1.3-2.3 1.3-1.6 0-2.9-1.4-2.9-3.4 0-2.3 1.4-3.6 3-3.6 1 0 1.7.5 2 1v-4h1.3zm-1.2 6c0-.2 0-.4-.1-.5-.2-.8-.9-1.4-1.8-1.4-1.3 0-2 1.1-2 2.6 0 1.4.7 2.5 2 2.5.8 0 1.6-.5 1.8-1.5 0-.2.1-.3.1-.5v-1.2z"/></g><g fill="#454547"><path d="M15.5 156.5h1.2v4.2c.2-.4.5-.7.9-.9.4-.2.8-.3 1.3-.3.9 0 2.4.6 2.4 2.9v4h-1.2v-3.9c0-1.1-.4-2-1.6-2-.8 0-1.4.6-1.7 1.2-.1.2-.1.4-.1.6v4.1h-1.2v-9.9zM24 163.3c0 1.7 1.1 2.4 2.3 2.4.9 0 1.4-.2 1.9-.4l.2.9c-.4.2-1.2.4-2.3.4-2.1 0-3.3-1.4-3.3-3.4s1.2-3.7 3.2-3.7c2.2 0 2.8 1.9 2.8 3.2v.6H24zm3.6-.9c0-.8-.3-2-1.7-2-1.2 0-1.8 1.1-1.9 2h3.6zM30.3 156.5h1.2v9.9h-1.2v-9.9zM33.6 161.9c0-.9 0-1.6-.1-2.2h1.1l.1 1.2c.5-.8 1.3-1.3 2.4-1.3 1.6 0 2.9 1.4 2.9 3.4 0 2.4-1.5 3.6-3.1 3.6-.9 0-1.7-.4-2.1-1.1v3.7h-1.2v-7.3zm1.2 1.8c0 .2 0 .4.1.5.2.9 1 1.4 1.8 1.4 1.3 0 2.1-1.1 2.1-2.6 0-1.4-.7-2.5-2-2.5-.8 0-1.6.6-1.9 1.5 0 .2-.1.3-.1.5v1.2zM44.5 161.5c0-.7 0-1.3-.1-1.8h1.1l.1 1.1c.4-.6 1-1.2 2.1-1.2.9 0 1.6.6 1.9 1.4.2-.4.5-.7.8-.9.4-.3.9-.5 1.5-.5.9 0 2.2.6 2.2 2.9v4H53v-3.8c0-1.3-.5-2.1-1.5-2.1-.7 0-1.2.5-1.5 1.1-.1.2-.1.4-.1.6v4.2h-1.2v-4.1c0-1.1-.5-1.9-1.4-1.9-.8 0-1.3.6-1.5 1.2-.1.2-.1.4-.1.6v4.1h-1.2v-4.9zM60 166.5l-.1-.9c-.4.5-1.1 1-2.1 1-1.4 0-2.1-1-2.1-1.9 0-1.6 1.5-2.5 4.1-2.5v-.2c0-.6-.2-1.6-1.5-1.6-.6 0-1.3.2-1.8.5l-.3-.8c.6-.4 1.4-.6 2.2-.6 2.1 0 2.6 1.4 2.6 2.8v2.5c0 .6 0 1.2.1 1.6H60zm-.2-3.5c-1.3 0-2.9.2-2.9 1.5 0 .8.5 1.2 1.2 1.2.9 0 1.4-.6 1.6-1.1 0-.1.1-.3.1-.4V163zM64.2 162.8c.2-.2.4-.5.6-.8l2-2.3h1.5l-2.6 2.8 3 4h-1.5l-2.3-3.2-.6.7v2.5H63v-9.9h1.2v6.2zM70.2 163.3c0 1.7 1.1 2.4 2.3 2.4.9 0 1.4-.2 1.9-.4l.2.9c-.4.2-1.2.4-2.3.4-2.1 0-3.3-1.4-3.3-3.4s1.2-3.7 3.2-3.7c2.2 0 2.8 1.9 2.8 3.2v.6h-4.8zm3.6-.9c0-.8-.3-2-1.7-2-1.2 0-1.8 1.1-1.9 2h3.6zM80.9 157.8c0 .4-.3.8-.8.8-.4 0-.7-.3-.7-.8 0-.4.3-.8.8-.8.4 0 .7.4.7.8zm-1.4 8.7v-6.8h1.2v6.8h-1.2zM84.3 157.8v1.9H86v.9h-1.8v3.7c0 .8.2 1.3.9 1.3.3 0 .6 0 .7-.1l.1.9c-.2.1-.6.2-1.1.2-.6 0-1-.2-1.3-.5-.4-.4-.5-1-.5-1.8v-3.7h-1v-.9h1.1v-1.6l1.2-.3zM90.2 165.2c.4.2 1 .5 1.6.5.9 0 1.3-.4 1.3-1s-.4-.9-1.3-1.2c-1.2-.4-1.8-1.1-1.8-1.9 0-1.1.9-2 2.3-2 .7 0 1.3.2 1.7.4l-.3.9c-.3-.2-.8-.4-1.4-.4-.7 0-1.1.4-1.1.9 0 .6.4.8 1.3 1.1 1.2.4 1.8 1 1.8 2 0 1.2-.9 2-2.5 2-.7 0-1.4-.2-1.9-.5l.3-.8zM97.3 157.8c0 .4-.3.8-.8.8-.4 0-.7-.3-.7-.8 0-.4.3-.8.8-.8.4 0 .7.4.7.8zm-1.4 8.7v-6.8h1.2v6.8h-1.2zM99.2 161.5c0-.7 0-1.3-.1-1.8h1.1l.1 1.1c.4-.6 1-1.2 2.1-1.2.9 0 1.6.6 1.9 1.4.2-.4.5-.7.8-.9.4-.3.9-.5 1.5-.5.9 0 2.2.6 2.2 2.9v4h-1.2v-3.8c0-1.3-.5-2.1-1.5-2.1-.7 0-1.2.5-1.5 1.1-.1.2-.1.4-.1.6v4.2h-1.2v-4.1c0-1.1-.5-1.9-1.4-1.9-.8 0-1.3.6-1.5 1.2-.1.2-.1.4-.1.6v4.1h-1.2v-4.9zM110.9 161.9c0-.9 0-1.6-.1-2.2h1.1l.1 1.2c.5-.8 1.3-1.3 2.4-1.3 1.6 0 2.9 1.4 2.9 3.4 0 2.4-1.5 3.6-3.1 3.6-.9 0-1.7-.4-2.1-1.1v3.7h-1.2v-7.3zm1.2 1.8c0 .2 0 .4.1.5.2.9 1 1.4 1.8 1.4 1.3 0 2.1-1.1 2.1-2.6 0-1.4-.7-2.5-2-2.5-.8 0-1.6.6-1.9 1.5 0 .2-.1.3-.1.5v1.2zM118.8 156.5h1.2v9.9h-1.2v-9.9zM122.8 163.3c0 1.7 1.1 2.4 2.3 2.4.9 0 1.4-.2 1.9-.4l.2.9c-.4.2-1.2.4-2.3.4-2.1 0-3.3-1.4-3.3-3.4s1.2-3.7 3.2-3.7c2.2 0 2.8 1.9 2.8 3.2v.6h-4.8zm3.7-.9c0-.8-.3-2-1.7-2-1.2 0-1.8 1.1-1.9 2h3.6zM128.7 165.8c0-.5.4-.9.8-.9s.8.4.8.9-.3.9-.8.9c-.5-.1-.8-.4-.8-.9z"/></g></svg>