<svg baseProfile="tiny" xmlns="http://www.w3.org/2000/svg" viewBox="0 0 300 250" overflow="visible"><g fill="#193062"><path d="M22.9 25.4H18l-.6 1.9h-2.5l4.3-13.1h2.6l4.3 13.1h-2.6l-.6-1.9zm-.8-2.5l-1.6-5-1.6 5h3.2zM36.9 22.7c0 .9-.2 1.7-.6 2.4s-.9 1.3-1.6 1.7-1.5.6-2.3.6c-.5 0-.9-.1-1.3-.2s-.8-.3-1.1-.6V31h-2.5V18.2H30v.6c.3-.3.7-.5 1.1-.6s.9-.2 1.4-.2c.9 0 1.6.2 2.3.6s1.2 1 1.6 1.7.5 1.5.5 2.4zm-2.4 0c0-.4-.1-.8-.3-1.2s-.5-.6-.8-.9-.7-.3-1.2-.3-.9.1-1.2.3-.6.5-.8.8-.3.8-.3 1.2c0 .4.1.8.3 1.2s.5.6.8.8.8.3 1.2.3c.4 0 .8-.1 1.2-.3s.6-.5.8-.8.3-.7.3-1.1zM48.1 22.7c0 .9-.2 1.7-.6 2.4s-.9 1.3-1.6 1.7-1.5.6-2.3.6c-.5 0-.9-.1-1.3-.2s-.8-.3-1.1-.6V31h-2.5V18.2h2.4v.6c.3-.3.7-.5 1.1-.6s.9-.2 1.4-.2c.9 0 1.6.2 2.3.6s1.2 1 1.6 1.7.6 1.5.6 2.4zm-2.4 0c0-.4-.1-.8-.3-1.2s-.5-.6-.8-.9-.7-.3-1.2-.3-.9.1-1.2.3-.6.5-.8.8-.3.8-.3 1.2c0 .4.1.8.3 1.2s.5.6.8.8.8.4 1.3.4c.4 0 .8-.1 1.2-.3s.6-.5.8-.8.2-.8.2-1.2zM50 13.5h2.5v13.7H50V13.5zM62.9 18.2L58.2 31h-2.6l1.5-4-3.3-8.9h2.6l1.9 5.3 1.9-5.3h2.7zM65.5 13.7c.3 0 .6.1.8.2s.4.3.6.6.1.5.1.7-.1.5-.2.8-.3.4-.6.6-.5.2-.8.2-.6-.1-.8-.2-.4-.3-.6-.6-.2-.5-.2-.8.1-.5.2-.8.3-.4.6-.6.6-.1.9-.1zm1.2 13.5h-2.5v-9.1h2.5v9.1zM77.4 21.6v5.7H75V22c0-.3-.1-.6-.2-.9s-.3-.5-.6-.6-.6-.2-.9-.2c-.3 0-.6.1-.9.2s-.5.4-.6.6-.2.5-.2.9v5.2h-2.5v-9.1h2.4v.6c.3-.3.7-.4 1-.6s.8-.2 1.2-.2c.7 0 1.3.2 1.8.5s1 .7 1.3 1.3.6 1.2.6 1.9zM88.2 18.2V27c0 .8-.2 1.5-.6 2.2s-.9 1.2-1.6 1.5-1.5.6-2.3.6c-.7 0-1.3-.1-1.9-.4s-1.1-.6-1.5-1-.7-.9-.9-1.5l2.2-.9c.1.4.4.8.7 1s.8.4 1.3.4c.4 0 .8-.1 1.1-.2s.5-.4.7-.7.3-.6.3-1v-.7c-.3.2-.7.4-1.1.6s-.8.2-1.3.2c-.8 0-1.5-.2-2.2-.6s-1.2-.9-1.5-1.6-.6-1.4-.6-2.3a4.63 4.63 0 0 1 2.1-3.9c.6-.4 1.4-.6 2.2-.6.4 0 .9.1 1.3.2s.8.3 1.1.6v-.6h2.5zm-2.4 4.3c0-.4-.1-.8-.3-1.1s-.4-.6-.8-.8-.7-.3-1.1-.3c-.4 0-.8.1-1.1.3s-.6.4-.8.8-.3.7-.3 1.1c0 .4.1.7.3 1.1s.4.6.8.8.7.3 1.1.3c.4 0 .8-.1 1.1-.3s.6-.4.8-.8.3-.7.3-1.1zM96.7 20.5h-1.8v-2.3h1.8v-1.9c0-.6.1-1 .3-1.5s.6-.7 1-1 .9-.3 1.5-.3h2v2.3H100c-.2 0-.4.1-.6.2s-.2.3-.2.6v1.5h2.3v2.3h-2.3v6.8h-2.4v-6.7zM107 18c.9 0 1.7.2 2.4.6s1.3 1 1.7 1.7.6 1.5.6 2.4-.2 1.7-.6 2.4-1 1.3-1.7 1.7-1.5.6-2.4.6-1.7-.2-2.4-.6-1.3-1-1.7-1.7-.6-1.5-.6-2.4.2-1.7.6-2.4 1-1.3 1.7-1.7 1.5-.6 2.4-.6zm0 7c.4 0 .8-.1 1.2-.3s.6-.5.8-.8.3-.8.3-1.2-.1-.8-.3-1.2-.5-.6-.8-.8-.7-.3-1.2-.3c-.4 0-.8.1-1.2.3s-.6.5-.8.8-.3.8-.3 1.2.1.8.3 1.2.5.6.8.8.8.3 1.2.3zM119.2 18.2v2.4h-1.3c-.4 0-.7.1-.9.3s-.5.4-.7.7-.2.6-.2 1v4.8h-2.5v-9.1h2.4v.7c.2-.3.5-.5.9-.7s.8-.2 1.2-.2h1.1z"/></g><g fill="#193062"><path d="M16 36.1h2.6v10.6h7.6v2.5H16V36.1zM29.2 35.7c.3 0 .6.1.8.2s.4.3.6.6.2.5.2.8-.1.5-.2.8-.3.4-.6.6-.5.2-.8.2-.6-.1-.8-.2-.4-.4-.5-.7-.2-.5-.2-.8.1-.5.2-.8.3-.4.6-.6.4-.1.7-.1zm1.3 13.5H28v-9.1h2.5v9.1zM33.8 42.5H32v-2.3h1.8v-1.9c0-.6.1-1 .3-1.5s.6-.7 1-1 .9-.3 1.5-.3h2v2.3H37c-.2 0-.4.1-.6.2s-.2.3-.2.6v1.5h2.3v2.3h-2.3v6.8h-2.4v-6.7zM48.3 45.6h-6.5c.2.5.4.8.8 1.1s.9.4 1.4.4c.4 0 .8-.1 1.2-.3s.6-.5.8-.8l2 1.2c-.4.7-1 1.2-1.7 1.6s-1.5.6-2.4.6c-.9 0-1.7-.2-2.4-.6s-1.3-1-1.7-1.7-.6-1.5-.6-2.4c0-.9.2-1.7.6-2.4s.9-1.3 1.6-1.7 1.6-.6 2.5-.6 1.7.2 2.4.6 1.2 1 1.6 1.7.6 1.5.6 2.4c-.1.3-.1.6-.2.9zm-6.5-1.9H46c-.1-.5-.4-.9-.7-1.1s-.8-.4-1.3-.4c-.6 0-1 .1-1.4.4s-.7.7-.8 1.1zM55.6 36.1h2.6v13.1h-2.6V36.1zM69.1 43.6v5.7h-2.4V44c0-.3-.1-.6-.2-.9s-.3-.5-.6-.6-.6-.2-.9-.2c-.3 0-.6.1-.9.2s-.5.4-.6.6-.2.5-.2.9v5.2h-2.5v-9.1h2.4v.6c.3-.3.7-.4 1-.6s.8-.1 1.3-.1c.7 0 1.3.2 1.8.5s1 .7 1.3 1.3.5 1.1.5 1.8zM74.6 47.2c.4 0 .7-.1.9-.2s.3-.3.3-.6c0-.2-.1-.3-.2-.4s-.3-.2-.5-.2c-.3 0-.5-.1-.6-.1-.4 0-.8-.1-1.1-.1-.8-.1-1.4-.4-1.9-.9s-.5-1-.5-1.7c0-.6.2-1.1.5-1.6s.7-.8 1.3-1.1 1.2-.4 1.9-.4 1.3.1 1.8.4 1 .6 1.3 1.1.5 1 .5 1.6h-2.4c0-.2-.1-.4-.3-.6s-.5-.2-.9-.2-.7.1-.9.2-.3.3-.3.5c0 .3.2.5.7.5.1 0 .4 0 .8.1s.7.1 1 .1c.8.1 1.4.4 1.9.9s.6 1.1.6 1.8c0 .6-.2 1.1-.5 1.6s-.7.9-1.3 1.1-1.2.4-1.9.4-1.4-.1-1.9-.4-1-.6-1.3-1.1-.5-1-.5-1.6h2.4c0 .3.1.5.4.6s.3.3.7.3zM88.2 40.2v9.1h-2.4v-.6c-.3.2-.6.4-1 .6s-.8.2-1.2.2c-.7 0-1.3-.2-1.8-.5s-1-.7-1.3-1.3-.5-1.2-.5-1.9v-5.7h2.5v5.2c0 .3.1.6.2.8s.3.5.6.6.5.2.9.2c.3 0 .6-.1.9-.2s.5-.4.6-.6.2-.5.2-.8v-5.2h2.3zM96.3 40.2v2.4H95c-.4 0-.7.1-.9.3s-.5.4-.7.7-.2.6-.2 1v4.8h-2.5v-9.1h2.4v.7c.2-.3.5-.5.9-.7s.8-.2 1.2-.2h1.1zM104.9 43.5v5.7h-2.4v-.6c-.3.3-.6.4-1 .6s-.8.2-1.3.2c-.6 0-1.2-.1-1.6-.4s-.8-.6-1.1-1-.4-.9-.4-1.5c0-.9.3-1.5.9-2s1.3-.7 2.3-.8l2.3-.2v-.2c0-.2-.1-.4-.2-.6s-.3-.3-.5-.4-.5-.2-.7-.2c-.4 0-.7.1-.9.3s-.4.4-.5.7h-2.3c0-.6.2-1.2.6-1.7s.8-.9 1.3-1.2 1.2-.4 1.9-.4c.8 0 1.4.2 2 .5s1 .7 1.4 1.3.2 1.2.2 1.9zm-2.4 2.5v-.7l-1.9.2c-.4 0-.7.1-.8.3s-.3.4-.3.6.1.5.3.7.5.3.9.3c.5 0 1-.1 1.3-.4s.5-.5.5-1zM115.6 43.6v5.7h-2.4V44c0-.3-.1-.6-.2-.9s-.3-.5-.6-.6-.6-.2-.9-.2c-.3 0-.6.1-.9.2s-.5.4-.6.6-.2.5-.2.9v5.2h-2.5v-9.1h2.4v.6c.3-.3.7-.4 1-.6s.8-.2 1.2-.2c.7 0 1.3.2 1.8.5s1 .7 1.3 1.3.6 1.2.6 1.9zM122.1 40a4.63 4.63 0 0 1 3.9 2.1l-2 1.4c-.2-.3-.5-.6-.8-.8s-.7-.3-1.1-.3c-.4 0-.8.1-1.2.3s-.6.5-.8.8-.3.8-.3 1.2.1.8.3 1.2.5.6.8.8.7.3 1.2.3c.4 0 .8-.1 1.1-.3s.6-.5.8-.8l2 1.4c-.4.7-1 1.2-1.6 1.5s-1.4.6-2.3.6c-.9 0-1.7-.2-2.4-.6s-1.3-1-1.7-1.7-.6-1.5-.6-2.4.2-1.7.6-2.4 1-1.3 1.7-1.7 1.5-.6 2.4-.6zM135.9 45.6h-6.5c.2.5.4.8.8 1.1s.9.4 1.4.4c.4 0 .8-.1 1.2-.3s.6-.5.8-.8l2 1.2c-.4.7-1 1.2-1.7 1.6s-1.5.6-2.4.6c-.9 0-1.7-.2-2.4-.6s-1.3-1-1.7-1.7-.6-1.5-.6-2.4c0-.9.2-1.7.6-2.4s.9-1.3 1.6-1.7 1.5-.6 2.4-.6 1.7.2 2.4.6 1.2 1 1.6 1.7.6 1.5.6 2.4c0 .3 0 .6-.1.9zm-6.5-1.9h4.2c-.1-.5-.4-.9-.7-1.1s-.8-.4-1.3-.4c-.6 0-1 .1-1.4.4s-.7.7-.8 1.1z"/></g><g fill="#193062"><path d="M24.6 57.5v13.7h-2.4v-.6c-.3.3-.7.5-1.1.6s-.9.2-1.4.2c-.9 0-1.6-.2-2.3-.6s-1.2-1-1.6-1.7-.6-1.5-.6-2.4c0-.9.2-1.7.6-2.4s.9-1.3 1.6-1.7 1.5-.6 2.3-.6c.5 0 .9.1 1.3.2s.8.3 1.1.6v-5.2h2.5zm-2.4 9.2c0-.5-.1-.9-.3-1.2s-.5-.6-.8-.8-.7-.3-1.2-.3c-.4 0-.8.1-1.2.3s-.6.5-.8.9-.3.8-.3 1.2c0 .4.1.8.3 1.2s.5.6.8.8.7.3 1.2.3c.4 0 .8-.1 1.2-.3s.6-.5.8-.8.3-.9.3-1.3zM31.2 61.9c.9 0 1.7.2 2.4.6s1.3 1 1.7 1.7.6 1.5.6 2.4-.2 1.7-.6 2.4-1 1.3-1.7 1.7-1.5.6-2.4.6-1.7-.2-2.4-.6-1.3-1-1.7-1.7-.6-1.5-.6-2.4.2-1.7.6-2.4 1-1.3 1.7-1.7 1.5-.6 2.4-.6zm0 7.1c.4 0 .8-.1 1.2-.3s.6-.5.8-.8.3-.8.3-1.2-.1-.8-.3-1.2-.5-.6-.8-.8-.7-.3-1.2-.3c-.4 0-.8.1-1.2.3s-.6.5-.8.8-.3.8-.3 1.2.1.8.3 1.2.5.6.8.8.7.3 1.2.3zM46.2 67.6h-6.5c.2.5.4.8.8 1.1s.9.4 1.4.4c.4 0 .8-.1 1.2-.3s.6-.5.8-.8l2 1.2c-.4.7-1 1.2-1.7 1.6s-1.5.6-2.4.6c-.9 0-1.7-.2-2.4-.6s-1.3-1-1.7-1.7-.6-1.5-.6-2.4c0-.9.2-1.7.6-2.4s.9-1.3 1.6-1.7 1.5-.6 2.4-.6 1.7.2 2.4.6 1.2 1 1.6 1.7.6 1.5.6 2.4c-.1.3-.1.6-.1.9zm-6.6-1.9h4.2c-.1-.5-.4-.9-.7-1.1s-.8-.4-1.3-.4c-.6 0-1 .1-1.4.4s-.7.7-.8 1.1zM51.2 69.2c.4 0 .7-.1.9-.2s.3-.3.3-.6c0-.2-.1-.3-.2-.4s-.3-.2-.5-.2c-.3 0-.5-.1-.6-.1-.4 0-.8-.1-1.1-.1-.8-.1-1.4-.4-1.9-.9s-.6-1-.6-1.7c0-.6.2-1.1.5-1.6s.7-.8 1.3-1.1 1.2-.4 1.9-.4 1.3.1 1.8.4 1 .6 1.3 1.1.5 1 .5 1.6h-2.4c0-.2-.1-.4-.3-.6s-.5-.2-.9-.2-.7.1-.9.2-.3.3-.3.5c0 .3.2.5.7.5.1 0 .4 0 .8.1s.7.1 1 .1c.8.1 1.4.4 1.9.9s.6 1.1.6 1.8c0 .6-.2 1.1-.5 1.6s-.7.9-1.3 1.1-1.2.4-1.9.4-1.4-.1-1.9-.4-1-.6-1.3-1.1-.5-1-.5-1.6H50c0 .3.1.5.4.6s.4.3.8.3zM65 65.6v5.7h-2.4V66c0-.3-.1-.6-.2-.9s-.3-.5-.6-.6-.6-.2-.9-.2c-.3 0-.6.1-.9.2s-.5.4-.6.6-.2.5-.2.9v5.2h-2.5v-9.1h2.4v.6c.3-.3.7-.4 1-.6s.8-.2 1.2-.2c.7 0 1.3.2 1.8.5s1 .7 1.3 1.3.6 1.2.6 1.9zM69.4 59.4c0 .2 0 .4-.1.6l-1.1 3h-1.5l.6-2.2c-.3-.1-.5-.3-.7-.5s-.2-.5-.2-.9.1-.8.4-1.1.6-.4 1.1-.4c.3 0 .6.1.8.2s.4.3.5.5.2.5.2.8zM74.3 62.1h2.9v2.3h-2.9v3.4c0 .3.1.6.3.8s.4.3.8.3h1.8v2.3h-2.3c-.6 0-1.1-.1-1.6-.4s-.8-.6-1.1-1-.4-1-.4-1.5v-3.8h-1.3v-1.3l2.4-2.9h1.4v1.8zM92.4 65.6v5.7H90V66c0-.3-.1-.6-.2-.9s-.3-.5-.6-.6-.6-.2-.9-.2c-.3 0-.6.1-.9.2s-.5.4-.6.6-.2.5-.2.9v5.2h-2.5V57.5h2.5v5.2c.3-.2.6-.4 1-.6s.8-.2 1.2-.2c.7 0 1.3.2 1.8.5s1 .7 1.3 1.3.5 1.2.5 1.9zM102.2 65.5v5.7h-2.4v-.6c-.3.3-.6.4-1 .6s-.8.2-1.3.2c-.6 0-1.2-.1-1.6-.4s-.8-.6-1.1-1-.4-.9-.4-1.5c0-.9.3-1.5.9-2s1.3-.7 2.3-.8l2.3-.2v-.2c0-.2-.1-.4-.2-.6s-.3-.3-.5-.4-.5-.2-.7-.2c-.4 0-.7.1-.9.3s-.4.4-.5.7h-2.3c0-.6.2-1.2.6-1.7s.8-.9 1.3-1.2 1.2-.4 1.9-.4c.8 0 1.4.2 2 .5s1 .7 1.4 1.3.2 1.2.2 1.9zM99.8 68v-.7l-1.9.2c-.4 0-.7.1-.8.3s-.3.4-.3.6.1.5.3.7.5.3.9.3c.5 0 1-.1 1.3-.4s.5-.5.5-1zM112.2 62.1l-3.3 9.1h-2.4l-3.3-9.1h2.6l1.9 5.4 1.9-5.4h2.6zM121.7 67.6h-6.5c.2.5.4.8.8 1.1s.9.4 1.4.4c.4 0 .8-.1 1.2-.3s.6-.5.8-.8l2 1.2c-.4.7-1 1.2-1.7 1.6s-1.5.6-2.4.6c-.9 0-1.7-.2-2.4-.6s-1.3-1-1.7-1.7-.6-1.5-.6-2.4c0-.9.2-1.7.6-2.4s.9-1.3 1.6-1.7 1.5-.6 2.4-.6 1.7.2 2.4.6 1.2 1 1.6 1.7.6 1.5.6 2.4c0 .3-.1.6-.1.9zm-6.6-1.9h4.2c-.1-.5-.4-.9-.7-1.1s-.8-.4-1.3-.4c-.6 0-1 .1-1.4.4s-.6.7-.8 1.1z"/></g><g fill="#193062"><path d="M18.6 84.1h2.9v2.3h-2.9v3.4c0 .3.1.6.3.8s.4.3.8.3h1.8v2.3h-2.3c-.6 0-1.1-.1-1.6-.4s-.8-.6-1.1-1-.4-1-.4-1.5v-3.8h-1.3v-1.3l2.4-2.9h1.4v1.8zM27.4 83.9c.9 0 1.7.2 2.4.6s1.3 1 1.7 1.7.6 1.5.6 2.4-.2 1.7-.6 2.4-1 1.3-1.7 1.7-1.5.6-2.4.6-1.7-.2-2.4-.6-1.3-1-1.7-1.7-.6-1.5-.6-2.4.2-1.7.6-2.4 1-1.3 1.7-1.7 1.5-.6 2.4-.6zm0 7.1c.4 0 .8-.1 1.2-.3s.6-.5.8-.8.3-.8.3-1.2-.1-.8-.3-1.2-.5-.6-.8-.8-.7-.3-1.2-.3c-.4 0-.8.1-1.2.3s-.6.5-.8.8-.3.8-.3 1.2.1.8.3 1.2.5.6.8.8.7.3 1.2.3zM48.5 88.7c0 .9-.2 1.7-.6 2.4s-.9 1.3-1.6 1.7-1.5.6-2.3.6c-.5 0-.9-.1-1.4-.2s-.8-.3-1.1-.6v.6h-2.4V79.5h2.5v5.2c.3-.3.7-.4 1.1-.6s.9-.2 1.3-.2c.9 0 1.6.2 2.3.6s1.2 1 1.6 1.7.6 1.6.6 2.5zm-2.4 0c0-.4-.1-.8-.3-1.2s-.5-.6-.8-.9-.7-.3-1.2-.3-.9.1-1.2.3-.6.5-.8.8-.3.8-.3 1.2c0 .4.1.8.3 1.2s.5.6.8.8.8.3 1.2.3c.4 0 .8-.1 1.2-.3s.6-.5.8-.8.3-.7.3-1.1zM58.8 89.6h-6.5c.2.5.4.8.8 1.1s.9.4 1.4.4c.4 0 .8-.1 1.2-.3s.6-.5.8-.8l2 1.2c-.4.7-1 1.2-1.7 1.6s-1.5.6-2.4.6c-.9 0-1.7-.2-2.4-.6s-1.3-1-1.7-1.7-.6-1.5-.6-2.4c0-.9.2-1.7.6-2.4s.9-1.3 1.6-1.7 1.5-.6 2.4-.6 1.7.2 2.4.6 1.2 1 1.6 1.7.6 1.5.6 2.4c0 .3-.1.6-.1.9zm-6.6-1.9h4.2c-.1-.5-.4-.9-.7-1.1s-.8-.4-1.3-.4c-.6 0-1 .1-1.4.4s-.7.6-.8 1.1z"/></g><g fill="#193062"><path d="M19.9 105.9a4.63 4.63 0 0 1 3.9 2.1l-2 1.4c-.2-.3-.5-.6-.8-.8s-.7-.3-1.1-.3c-.4 0-.8.1-1.2.3s-.6.5-.8.8-.3.8-.3 1.2.1.8.3 1.2.5.6.8.8.7.3 1.2.3c.4 0 .8-.1 1.1-.3s.6-.5.8-.8l2 1.4c-.4.7-1 1.2-1.6 1.5s-1.4.6-2.3.6c-.9 0-1.7-.2-2.4-.6s-1.3-1-1.7-1.7-.6-1.5-.6-2.4.2-1.7.6-2.4 1-1.3 1.7-1.7 1.5-.6 2.4-.6zM29.5 105.9c.9 0 1.7.2 2.4.6s1.3 1 1.7 1.7.6 1.5.6 2.4-.2 1.7-.6 2.4-1 1.3-1.7 1.7-1.5.6-2.4.6-1.7-.2-2.4-.6-1.3-1-1.7-1.7-.6-1.5-.6-2.4.2-1.7.6-2.4 1-1.3 1.7-1.7 1.5-.6 2.4-.6zm0 7.1c.4 0 .8-.1 1.2-.3s.6-.5.8-.8.3-.8.3-1.2-.1-.8-.3-1.2-.5-.6-.8-.8-.7-.3-1.2-.3c-.4 0-.8.1-1.2.3s-.6.5-.8.8-.3.8-.3 1.2.1.8.3 1.2.5.6.8.8.8.3 1.2.3zM49.3 109.3v5.9h-2.4v-5.4c0-.3-.1-.5-.2-.8s-.3-.4-.5-.5-.5-.2-.8-.2c-.3 0-.5.1-.8.2s-.4.3-.5.5-.2.5-.2.7v5.4h-2.4v-5.4c0-.3-.1-.5-.2-.8s-.3-.4-.5-.5-.5-.2-.8-.2c-.3 0-.5.1-.8.2s-.4.3-.5.5-.2.5-.2.7v5.4H36v-9.1h2.4v.5c.3-.2.6-.4 1-.5s.7-.2 1.2-.2 1 .1 1.4.3.8.4 1.1.7c.3-.3.7-.6 1.2-.7s.9-.3 1.5-.3c.7 0 1.3.1 1.9.4s1 .7 1.3 1.2.3 1.4.3 2zM61.1 110.7c0 .9-.2 1.7-.6 2.4s-.9 1.3-1.6 1.7-1.5.6-2.3.6c-.5 0-.9-.1-1.3-.2s-.8-.3-1.1-.6v4.4h-2.5v-12.9h2.4v.6c.3-.3.7-.5 1.1-.6s.9-.2 1.4-.2c.9 0 1.6.2 2.3.6s1.2 1 1.6 1.7.6 1.6.6 2.5zm-2.5 0c0-.4-.1-.8-.3-1.2s-.5-.6-.8-.9-.7-.3-1.2-.3-.9.1-1.2.3-.6.5-.8.8-.3.8-.3 1.2c0 .4.1.8.3 1.2s.5.6.8.8.8.3 1.2.3c.4 0 .8-.1 1.2-.3s.6-.5.8-.8.3-.7.3-1.1zM62.9 101.5h2.5v13.7h-2.5v-13.7zM69 101.7c.3 0 .6.1.8.2s.4.3.6.6.2.5.2.8-.1.5-.2.8-.3.4-.6.6-.5.2-.8.2-.6-.1-.8-.2-.4-.3-.6-.6-.2-.5-.2-.8.1-.5.2-.8.3-.4.6-.6.5-.2.8-.2zm1.2 13.5h-2.5v-9.1h2.5v9.1zM76.8 105.9a4.63 4.63 0 0 1 3.9 2.1l-2 1.4c-.2-.3-.5-.6-.8-.8s-.7-.3-1.1-.3c-.4 0-.8.1-1.2.3s-.6.5-.8.8-.3.8-.3 1.2.1.8.3 1.2.5.6.8.8.7.3 1.2.3c.4 0 .8-.1 1.1-.3s.6-.5.8-.8l2 1.4c-.4.7-1 1.2-1.6 1.5s-1.4.6-2.3.6c-.9 0-1.7-.2-2.4-.6s-1.3-1-1.7-1.7-.6-1.5-.6-2.4.2-1.7.6-2.4 1-1.3 1.7-1.7 1.5-.6 2.4-.6zM89.6 109.5v5.7h-2.4v-.6c-.3.3-.6.4-1 .6s-.8.2-1.3.2c-.6 0-1.2-.1-1.6-.4s-.8-.6-1.1-1-.4-.9-.4-1.5c0-.9.3-1.5.9-2s1.3-.7 2.3-.8l2.3-.2v-.2c0-.2-.1-.4-.2-.6s-.3-.3-.5-.4-.5-.2-.7-.2c-.4 0-.7.1-.9.3s-.4.4-.5.7h-2.3c0-.6.2-1.2.6-1.7s.8-.9 1.3-1.2 1.2-.4 1.9-.4c.8 0 1.4.2 2 .5s1 .7 1.4 1.3.2 1.2.2 1.9zm-2.4 2.5v-.7l-1.9.2c-.4 0-.7.1-.8.3s-.3.4-.3.6.1.5.3.7.5.3.9.3c.5 0 1-.1 1.3-.4s.5-.5.5-1zM94.6 106.1h2.9v2.3h-2.9v3.4c0 .3.1.6.3.8s.4.3.8.3h1.8v2.3h-2.3c-.6 0-1.1-.1-1.6-.4s-.8-.6-1.1-1-.4-1-.4-1.5v-3.8h-1.3v-1.3l2.4-2.9h1.4v1.8zM107.7 111.6h-6.5c.2.5.4.8.8 1.1s.9.4 1.4.4c.4 0 .8-.1 1.2-.3s.6-.5.8-.8l2 1.2c-.4.7-1 1.2-1.7 1.6s-1.5.6-2.4.6c-.9 0-1.7-.2-2.4-.6s-1.3-1-1.7-1.7-.6-1.5-.6-2.4c0-.9.2-1.7.6-2.4s.9-1.3 1.6-1.7 1.5-.6 2.4-.6 1.7.2 2.4.6 1.2 1 1.6 1.7.6 1.5.6 2.4c0 .3-.1.6-.1.9zm-6.6-1.9h4.2c-.1-.5-.4-.9-.7-1.1s-.8-.4-1.3-.4c-.6 0-1 .1-1.4.4s-.6.6-.8 1.1zM118.4 101.5v13.7H116v-.6c-.3.3-.7.5-1.1.6s-.9.2-1.4.2c-.9 0-1.6-.2-2.3-.6s-1.2-1-1.6-1.7-.6-1.5-.6-2.4c0-.9.2-1.7.6-2.4s.9-1.3 1.6-1.7 1.5-.6 2.3-.6c.5 0 .9.1 1.3.2s.8.3 1.1.6v-5.2h2.5zm-2.4 9.2c0-.5-.1-.9-.3-1.2s-.5-.6-.8-.8-.7-.3-1.2-.3c-.4 0-.8.1-1.2.3s-.6.5-.8.9-.3.8-.3 1.2c0 .4.1.8.3 1.2s.5.6.8.8.7.3 1.2.3c.4 0 .8-.1 1.2-.3s.6-.5.8-.8.3-.9.3-1.3zM122.2 112.2c.3 0 .6.1.8.2s.4.3.6.6.2.5.2.8c0 .3-.1.5-.2.8s-.3.4-.6.6-.5.2-.8.2-.6-.1-.8-.2-.4-.3-.6-.6-.2-.5-.2-.8c0-.3.1-.6.2-.8s.3-.4.6-.6.5-.2.8-.2z"/></g></svg>