<svg baseProfile="tiny" xmlns="http://www.w3.org/2000/svg" viewBox="0 0 320 50" overflow="visible"><g fill="#FFF"><path d="M8.1 43.5c0 .3-.1.6-.2.9-.2.3-.4.5-.6.6s-.6.2-.9.2c-.4 0-.7-.1-1-.2s-.5-.4-.7-.7c-.2-.3-.2-.6-.2-1s.1-.7.2-1c.2-.3.4-.5.7-.7.3-.2.6-.2 1-.2.3 0 .7.1.9.2.3.2.5.4.6.6l-.3.2c-.2-.1-.4-.3-.6-.4s-.5-.2-.7-.2c-.3 0-.5.1-.8.2-.2.1-.4.3-.5.5-.1.2-.2.5-.2.8 0 .3.1.6.2.8.1.2.3.4.5.5.2.1.5.2.8.2.2 0 .4 0 .6-.1.2-.1.3-.2.5-.4.1-.2.2-.3.3-.5H6.1v-.4h2zM8.7 41.5h2.7v.4H9.1v1.3h1.4v.4H9.1v1.3h2.3v.4H8.7v-3.8zM14.9 41.5v3.7h-.4l-2-3v3h-.4v-3.7h.4l2 3v-3h.4zM16.7 43.6v.4h-1.1v-.4h1.1zM19.9 43.6v.4h-.7v1.1h-.4V44h-1.6v-.3l1.6-2.2h.4v2.1h.7zm-1 0V42l-1.2 1.6h1.2zM20.2 41.5h2.3v.4l-1.4 3.3h-.4l1.4-3.3h-1.9v-.4zM25.4 44.2c0 .2 0 .4-.1.5-.1.2-.2.3-.4.4s-.4.1-.6.1c-.2 0-.4 0-.6-.1-.2-.1-.3-.2-.4-.4-.1-.2-.1-.3-.1-.5h.4c0 .1 0 .2.1.3.1.1.2.2.3.2s.2.1.4.1c.1 0 .3 0 .4-.1.1-.1.2-.1.3-.2.1-.1.1-.2.1-.4 0-.1 0-.3-.1-.4-.1-.1-.1-.2-.3-.2s-.2-.1-.4-.1H24V43h.4c.1 0 .2 0 .3-.1s.2-.1.2-.2.1-.2.1-.3c0-.1 0-.2-.1-.3s-.1-.2-.2-.2-.2-.1-.3-.1c-.1 0-.2 0-.3.1s-.2.1-.2.2c-.1.1-.1.2-.1.3h-.4c0-.2 0-.4.1-.5.1-.2.2-.3.4-.4.2-.1.3-.1.5-.1s.4 0 .5.1c.2.1.3.2.4.4.1.2.1.3.1.5s0 .3-.1.5c-.1.1-.2.3-.3.3.2.1.3.2.4.4-.1.2 0 .4 0 .6zM28.5 44c0 .2-.1.4-.2.6-.1.2-.2.3-.4.4s-.4.2-.6.2c-.2 0-.4-.1-.6-.2s-.3-.2-.4-.4c-.1-.2-.2-.4-.2-.6 0-.1 0-.3.1-.4 0-.1.1-.3.2-.4l1.1-1.7h.4l-.9 1.4h.3c.2 0 .4 0 .6.2.2.1.3.2.4.4.2.1.2.3.2.5zm-.4 0c0-.2 0-.3-.1-.4l-.3-.3c-.1-.1-.3-.1-.4-.1-.2 0-.3 0-.4.1l-.3.3c-.1.1-.1.3-.1.4 0 .2 0 .3.1.4l.3.3c.1.1.3.1.4.1s.3 0 .4-.1l.3-.3c.1-.1.1-.2.1-.4zM31.6 44c0 .2-.1.4-.2.6-.1.2-.2.3-.4.4s-.4.2-.6.2c-.2 0-.4-.1-.6-.2s-.3-.2-.4-.4c-.1-.2-.2-.4-.2-.6 0-.1 0-.3.1-.4 0-.1.1-.3.2-.4l1.1-1.7h.4l-.9 1.4h.3c.2 0 .4 0 .6.2.2.1.3.2.4.4.2.1.2.3.2.5zm-.4 0c0-.2 0-.3-.1-.4l-.3-.3c-.1-.1-.3-.1-.4-.1-.2 0-.3 0-.4.1l-.3.3c-.1.1-.1.3-.1.4 0 .2 0 .3.1.4l.3.3c.1.1.3.1.4.1s.3 0 .4-.1l.3-.3c.1-.1.1-.2.1-.4zM34.7 44c0 .2-.1.4-.2.6-.1.2-.2.3-.4.4s-.4.2-.6.2c-.2 0-.4-.1-.6-.2s-.3-.2-.4-.4c-.1-.2-.2-.4-.2-.6 0-.1 0-.3.1-.4 0-.1.1-.3.2-.4l1.1-1.7h.4l-.9 1.4h.3c.2 0 .4 0 .6.2.2.1.3.2.4.4.1.1.2.3.2.5zm-.4 0c0-.2 0-.3-.1-.4l-.3-.3c-.1-.1-.3-.1-.4-.1-.2 0-.3 0-.4.1l-.3.3c-.1.1-.1.3-.1.4 0 .2 0 .3.1.4l.3.3c.1.1.3.1.4.1s.3 0 .4-.1l.3-.3c.1-.1.1-.2.1-.4zM37.8 44c0 .2-.1.4-.2.6-.1.2-.2.3-.4.4s-.4.2-.6.2c-.2 0-.4-.1-.6-.2s-.3-.2-.4-.4c-.1-.2-.2-.4-.2-.6 0-.1 0-.3.1-.4 0-.1.1-.3.2-.4l1.1-1.7h.4l-.9 1.4h.3c.2 0 .4 0 .6.2.2.1.3.2.4.4.1.1.2.3.2.5zm-.4 0c0-.2 0-.3-.1-.4l-.3-.3c-.1-.1-.3-.1-.4-.1-.2 0-.3 0-.4.1l-.3.3c-.1.1-.1.3-.1.4 0 .2 0 .3.1.4l.3.3c.1.1.3.1.4.1s.3 0 .4-.1l.3-.3c.1-.1.1-.2.1-.4zM38.8 44.6c.1 0 .2 0 .2.1.1.1.1.1.1.2s0 .2-.1.2c-.1.1-.1.1-.2.1s-.2 0-.2-.1c-.1-.1-.1-.1-.1-.2s0-.2.1-.2c0-.1.1-.1.2-.1zM42 44.8v.4h-2.2v-.3l1.5-1.6c.1-.1.2-.2.3-.4.1-.1.1-.2.1-.4 0-.1 0-.3-.1-.4-.1-.1-.1-.2-.3-.3-.1-.1-.2-.1-.4-.1-.1 0-.3 0-.4.1-.1.1-.2.1-.3.2s-.1.2-.1.4h-.4c0-.2 0-.4.1-.5.1-.2.2-.3.4-.4.2-.1.4-.1.6-.1.2 0 .4 0 .6.1.2.1.3.2.4.4.1.2.1.3.1.6 0 .2 0 .4-.1.5-.1.2-.2.3-.4.5l-1.2 1.3H42z"/></g></svg>