<svg baseProfile="tiny" xmlns="http://www.w3.org/2000/svg" viewBox="0 0 728 90" overflow="visible"><g fill="#454547"><path d="M188.8 68.8h5.1v1H190v3.1h3.6v1H190v4.3h-1.2v-9.4zM196.6 69.5c0 .4-.3.8-.8.8-.4 0-.7-.3-.7-.8 0-.4.3-.8.8-.8.4 0 .7.4.7.8zm-1.4 8.7v-6.8h1.2v6.8h-1.2zM198.5 73.3c0-.7 0-1.3-.1-1.8h1.1l.1 1.1c.3-.6 1.1-1.3 2.2-1.3.9 0 2.4.6 2.4 2.9v4H203v-3.9c0-1.1-.4-2-1.6-2-.8 0-1.4.6-1.7 1.3-.1.2-.1.4-.1.6v4.1h-1.2v-5zM207.7 69.5c0 .4-.3.8-.8.8-.4 0-.7-.3-.7-.8 0-.4.3-.8.8-.8.4 0 .7.4.7.8zm-1.4 8.7v-6.8h1.2v6.8h-1.2zM209.4 76.9c.4.2 1 .5 1.6.5.9 0 1.3-.4 1.3-1s-.4-.9-1.3-1.2c-1.2-.4-1.8-1.1-1.8-1.9 0-1.1.9-2 2.3-2 .7 0 1.3.2 1.7.4l-.3.9c-.3-.2-.8-.4-1.4-.4-.7 0-1.1.4-1.1.9 0 .6.4.8 1.3 1.1 1.2.4 1.8 1 1.8 2 0 1.2-.9 2-2.5 2-.7 0-1.4-.2-1.9-.5l.3-.8zM215.1 68.3h1.2v4.2c.2-.4.5-.7.9-.9.4-.2.8-.3 1.3-.3.9 0 2.4.6 2.4 2.9v4h-1.2v-3.9c0-1.1-.4-2-1.6-2-.8 0-1.4.6-1.7 1.2-.1.2-.1.4-.1.6v4.1h-1.2v-9.9zM226.3 71.4l1.5 4c.2.4.3 1 .4 1.4.1-.4.3-.9.4-1.4l1.3-4h1.3l-1.8 4.8c-.9 2.3-1.5 3.5-2.3 4.2-.6.5-1.2.7-1.5.8l-.3-1c.3-.1.7-.3 1.1-.6.3-.3.8-.7 1-1.4.1-.1.1-.2.1-.3s0-.2-.1-.3l-2.5-6.2h1.4zM238.5 74.8c0 2.5-1.7 3.6-3.4 3.6-1.8 0-3.2-1.3-3.2-3.5 0-2.3 1.5-3.6 3.4-3.6 1.8 0 3.2 1.4 3.2 3.5zm-5.4 0c0 1.5.9 2.6 2.1 2.6 1.2 0 2.1-1.1 2.1-2.6 0-1.1-.6-2.6-2-2.6-1.6 0-2.2 1.3-2.2 2.6zM245.7 76.4c0 .7 0 1.3.1 1.8h-1.1l-.1-1.1c-.3.5-1 1.3-2.2 1.3-1.1 0-2.3-.6-2.3-3v-4h1.2v3.8c0 1.3.4 2.2 1.5 2.2.8 0 1.4-.6 1.6-1.1.1-.2.1-.4.1-.6v-4.2h1.2v4.9zM247.7 73.5c0-.8 0-1.5-.1-2.1h1.1v1.3h.1c.3-.9 1.1-1.5 1.9-1.5h.4v1.2h-.4c-.9 0-1.5.7-1.7 1.6 0 .2-.1.4-.1.6v3.6h-1.2v-4.7zM255.3 73.3c0-.7 0-1.3-.1-1.8h1.1l.1 1.1c.3-.6 1.1-1.3 2.2-1.3.9 0 2.4.6 2.4 2.9v4h-1.2v-3.9c0-1.1-.4-2-1.6-2-.8 0-1.4.6-1.7 1.3-.1.2-.1.4-.1.6v4.1h-1.2v-5zM269.2 74.8c0 2.5-1.7 3.6-3.4 3.6-1.8 0-3.2-1.3-3.2-3.5 0-2.3 1.5-3.6 3.4-3.6s3.2 1.4 3.2 3.5zm-5.4 0c0 1.5.9 2.6 2.1 2.6 1.2 0 2.1-1.1 2.1-2.6 0-1.1-.6-2.6-2-2.6-1.6 0-2.2 1.3-2.2 2.6zM273.8 74v.9h-3.5V74h3.5zM280.3 77.9c-.3.2-1 .4-1.9.4-2 0-3.4-1.4-3.4-3.5s1.4-3.6 3.6-3.6c.7 0 1.4.2 1.7.4l-.3 1c-.3-.2-.8-.3-1.4-.3-1.6 0-2.4 1.1-2.4 2.6 0 1.6 1 2.5 2.4 2.5.7 0 1.2-.2 1.5-.3l.2.8zM287.8 74.8c0 2.5-1.7 3.6-3.4 3.6-1.8 0-3.2-1.3-3.2-3.5 0-2.3 1.5-3.6 3.4-3.6s3.2 1.4 3.2 3.5zm-5.4 0c0 1.5.9 2.6 2.1 2.6 1.2 0 2.1-1.1 2.1-2.6 0-1.1-.6-2.6-2-2.6-1.6 0-2.2 1.3-2.2 2.6zM289.2 76.9c.4.2 1 .5 1.6.5.9 0 1.3-.4 1.3-1s-.4-.9-1.3-1.2c-1.2-.4-1.8-1.1-1.8-1.9 0-1.1.9-2 2.3-2 .7 0 1.3.2 1.7.4l-.3.9c-.3-.2-.8-.4-1.4-.4-.7 0-1.1.4-1.1.9 0 .6.4.8 1.3 1.1 1.2.4 1.8 1 1.8 2 0 1.2-.9 2-2.5 2-.7 0-1.4-.2-1.9-.5l.3-.8zM296.4 69.5v1.9h1.8v.9h-1.8V76c0 .8.2 1.3.9 1.3.3 0 .6 0 .7-.1l.1.9c-.2.1-.6.2-1.1.2-.6 0-1-.2-1.3-.5-.4-.4-.5-1-.5-1.8v-3.7h-1.1v-.9h1.1v-1.6l1.2-.3zM302.5 68.8h1.2v8.4h4v1h-5.3v-9.4zM310.5 69.5c0 .4-.3.8-.8.8-.4 0-.7-.3-.7-.8 0-.4.3-.8.8-.8.4 0 .7.4.7.8zm-1.4 8.7v-6.8h1.2v6.8h-1.2zM312.5 78.2v-5.8h-1v-.9h1v-.3c0-1 .2-1.8.8-2.4.5-.4 1.1-.6 1.7-.6.4 0 .8.1 1.1.2l-.2 1c-.2-.1-.4-.2-.8-.2-1.1 0-1.3.9-1.3 2v.4h1.6v.9h-1.6v5.8h-1.3zM317 75c0 1.7 1.1 2.4 2.3 2.4.9 0 1.4-.2 1.9-.4l.2.9c-.4.2-1.2.4-2.3.4-2.1 0-3.3-1.4-3.3-3.4s1.2-3.7 3.2-3.7c2.2 0 2.8 1.9 2.8 3.2v.6H317zm3.6-.8c0-.8-.3-2-1.7-2-1.2 0-1.8 1.1-1.9 2h3.6zM327.5 68.8v9.4h-1.2v-9.4h1.2zM329.7 73.3c0-.7 0-1.3-.1-1.8h1.1l.1 1.1c.3-.6 1.1-1.3 2.2-1.3.9 0 2.4.6 2.4 2.9v4h-1.2v-3.9c0-1.1-.4-2-1.6-2-.8 0-1.4.6-1.7 1.3-.1.2-.1.4-.1.6v4.1h-1.2v-5zM337.3 76.9c.4.2 1 .5 1.6.5.9 0 1.3-.4 1.3-1s-.4-.9-1.3-1.2c-1.2-.4-1.8-1.1-1.8-1.9 0-1.1.9-2 2.3-2 .7 0 1.3.2 1.7.4l-.3.9c-.3-.2-.8-.4-1.4-.4-.7 0-1.1.4-1.1.9 0 .6.4.8 1.3 1.1 1.2.4 1.8 1 1.8 2 0 1.2-.9 2-2.5 2-.7 0-1.4-.2-1.9-.5l.3-.8zM348.7 76.4c0 .7 0 1.3.1 1.8h-1.1l-.1-1.1c-.3.5-1 1.3-2.2 1.3-1.1 0-2.3-.6-2.3-3v-4h1.2v3.8c0 1.3.4 2.2 1.5 2.2.8 0 1.4-.6 1.6-1.1.1-.2.1-.4.1-.6v-4.2h1.2v4.9zM350.8 73.5c0-.8 0-1.5-.1-2.1h1.1v1.3h.1c.3-.9 1.1-1.5 1.9-1.5h.4v1.2h-.4c-.9 0-1.5.7-1.7 1.6 0 .2-.1.4-.1.6v3.6h-1.2v-4.7zM359 78.2l-.1-.9c-.4.5-1.1 1-2.1 1-1.4 0-2.1-1-2.1-1.9 0-1.6 1.5-2.5 4.1-2.5v-.1c0-.6-.2-1.6-1.5-1.6-.6 0-1.3.2-1.8.5l-.3-.8c.6-.4 1.4-.6 2.2-.6 2.1 0 2.6 1.4 2.6 2.8v2.5c0 .6 0 1.2.1 1.6H359zm-.2-3.5c-1.3 0-2.9.2-2.9 1.5 0 .8.5 1.2 1.2 1.2.9 0 1.4-.6 1.6-1.1 0-.1.1-.3.1-.4v-1.2zM362 73.3c0-.7 0-1.3-.1-1.8h1.1l.1 1.1c.3-.6 1.1-1.3 2.2-1.3.9 0 2.4.6 2.4 2.9v4h-1.2v-3.9c0-1.1-.4-2-1.6-2-.8 0-1.4.6-1.7 1.3-.1.2-.1.4-.1.6v4.1H362v-5zM374.6 77.9c-.3.2-1 .4-1.9.4-2 0-3.4-1.4-3.4-3.5s1.4-3.6 3.6-3.6c.7 0 1.4.2 1.7.4l-.3 1c-.3-.2-.8-.3-1.4-.3-1.6 0-2.4 1.1-2.4 2.6 0 1.6 1 2.5 2.4 2.5.7 0 1.2-.2 1.5-.3l.2.8zM376.7 75c0 1.7 1.1 2.4 2.3 2.4.9 0 1.4-.2 1.9-.4l.2.9c-.4.2-1.2.4-2.3.4-2.1 0-3.3-1.4-3.3-3.4s1.2-3.7 3.2-3.7c2.2 0 2.8 1.9 2.8 3.2v.6h-4.8zm3.6-.8c0-.8-.3-2-1.7-2-1.2 0-1.8 1.1-1.9 2h3.6zM390.6 77.2c-.4.7-1.1 1.2-2.2 1.2-1.6 0-2.9-1.4-2.9-3.4 0-2.5 1.6-3.7 3.1-3.7 1.1 0 1.8.5 2.1 1.2v-1h1.2V81h-1.2v-3.8zm0-3c0-.2 0-.4-.1-.5-.2-.8-.8-1.4-1.8-1.4-1.3 0-2 1.1-2 2.6 0 1.3.6 2.5 2 2.5.8 0 1.5-.5 1.8-1.3.1-.2.1-.4.1-.6v-1.3zM399.5 76.4c0 .7 0 1.3.1 1.8h-1.1l-.1-1.1c-.3.5-1 1.3-2.2 1.3-1.1 0-2.3-.6-2.3-3v-4h1.2v3.8c0 1.3.4 2.2 1.5 2.2.8 0 1.4-.6 1.6-1.1.1-.2.1-.4.1-.6v-4.2h1.2v4.9zM407.7 74.8c0 2.5-1.7 3.6-3.4 3.6-1.8 0-3.2-1.3-3.2-3.5 0-2.3 1.5-3.6 3.4-3.6s3.2 1.4 3.2 3.5zm-5.4 0c0 1.5.9 2.6 2.1 2.6 1.2 0 2.1-1.1 2.1-2.6 0-1.1-.6-2.6-2-2.6s-2.2 1.3-2.2 2.6zM410.7 69.5v1.9h1.8v.9h-1.8V76c0 .8.2 1.3.9 1.3.3 0 .6 0 .7-.1l.1.9c-.2.1-.6.2-1.1.2-.6 0-1-.2-1.3-.5-.4-.4-.5-1-.5-1.8v-3.7h-1.1v-.9h1.1v-1.6l1.2-.3zM414.5 75c0 1.7 1.1 2.4 2.3 2.4.9 0 1.4-.2 1.9-.4l.2.9c-.4.2-1.2.4-2.3.4-2.1 0-3.3-1.4-3.3-3.4s1.2-3.7 3.2-3.7c2.2 0 2.8 1.9 2.8 3.2v.6h-4.8zm3.6-.8c0-.8-.3-2-1.7-2-1.2 0-1.8 1.1-1.9 2h3.6zM420.4 77.5c0-.5.3-.9.8-.9s.8.4.8.9-.3.9-.8.9-.8-.4-.8-.9z"/></g></svg>