<svg baseProfile="tiny" xmlns="http://www.w3.org/2000/svg" viewBox="0 0 728 90" overflow="visible"><g fill="#193062"><path d="M207.5 20.9v.7c0 5.3-3.6 9.2-9 9.2-5.5 0-9.3-4-9.3-9.4 0-5.3 3.9-9.4 9.4-9.4 3.6 0 6.6 1.8 8.2 4.5l-3.3 2.1c-.9-1.7-2.7-2.8-4.9-2.8-3.2 0-5.5 2.4-5.5 5.5 0 3.3 2.1 5.7 5.4 5.7 2.2 0 3.8-1 4.6-2.6h-5.9v-3.6h10.3zM215.8 17.7c3.8 0 6.6 2.9 6.6 6.6 0 3.6-2.8 6.5-6.6 6.5s-6.6-2.9-6.6-6.5c0-3.8 2.8-6.6 6.6-6.6zm0 9.5c1.7 0 2.9-1.3 2.9-2.9 0-1.7-1.2-3-2.9-3s-2.9 1.3-2.9 3c0 1.6 1.2 2.9 2.9 2.9zM233.3 21.5h-2.5V18h2.5v-2.5c0-2.4 1.6-3.9 4-3.9h2.8V15H238c-.6 0-1 .3-1 1v1.9h3.2v3.5H237v9.1h-3.7v-9zM247.9 17.7c3.8 0 6.6 2.9 6.6 6.6 0 3.6-2.8 6.5-6.6 6.5s-6.6-2.9-6.6-6.5c0-3.8 2.8-6.6 6.6-6.6zm0 9.5c1.7 0 2.9-1.3 2.9-2.9 0-1.7-1.2-3-2.9-3s-2.9 1.3-2.9 3c0 1.6 1.2 2.9 2.9 2.9zM264.9 17.9v3.6H263c-1.4 0-2.4 1.1-2.4 2.5v6.4h-3.7V17.9h3.6V19c.7-.9 1.8-1.1 2.9-1.1h1.5zM284.6 17.9l-4.1 12.6h-3.8l-1.6-5.3-1.6 5.3h-3.8l-4.2-12.6h4l2.2 7.1 2.2-7.1h2.4l2.1 6.9 2.3-6.9h3.9zM296.5 22.6v7.9h-3.6v-.7c-.8.7-1.7.9-3.1.9-2.6 0-4.4-1.6-4.4-3.9 0-2.6 2-3.7 4.4-3.9l3.1-.2v-.1c0-.8-.8-1.5-1.8-1.5-.9 0-1.6.5-1.8 1.2h-3.5c.2-2.6 2.3-4.5 5.3-4.5 3.2-.1 5.4 2 5.4 4.8zm-3.6 3.5v-.8l-2.5.2c-.9.1-1.3.5-1.3 1.1 0 .6.6 1.2 1.6 1.2 1.3 0 2.2-.6 2.2-1.7zM307.7 17.9v3.6h-1.9c-1.4 0-2.4 1.1-2.4 2.5v6.4h-3.7V17.9h3.6V19c.7-.9 1.8-1.1 2.9-1.1h1.5zM322 11.5v19h-3.6v-.8c-.8.6-2 1-3.2 1-3.6 0-6.2-2.9-6.2-6.5 0-3.7 2.6-6.6 6.2-6.6 1.2 0 2.3.4 3.1 1v-7.1h3.7zm-3.6 12.8c0-1.7-1.2-3-2.9-3-1.6 0-2.8 1.3-2.8 3 0 1.6 1.2 2.9 2.8 2.9 1.7 0 2.9-1.3 2.9-2.9zM350.2 17.9L346 30.5h-3.8l-1.6-5.3-1.6 5.3h-3.8L331 17.9h4l2.2 7.1 2.2-7.1h2.4l2.1 6.9 2.3-6.9h4zM353.9 11.7c1.3 0 2.3 1 2.3 2.3 0 1.3-1 2.3-2.3 2.3-1.3 0-2.3-1-2.3-2.3 0-1.3 1-2.3 2.3-2.3zm1.8 18.8H352V17.9h3.7v12.6zM363.2 17.9h3.9v3.5h-3.9v4.2c0 .8.5 1.4 1.4 1.4h2.5v3.5h-3.2c-2.5 0-4.3-1.6-4.3-4.2v-4.9h-1.8v-1.9l3.5-4.3h2v2.7zM381.2 22.7v7.8h-3.7v-7.1c0-1.2-.8-2.2-2.1-2.2s-2.2 1-2.2 2.2v7.1h-3.7v-19h3.7v7.1c.8-.6 1.8-1 3-1 2.9.1 5 2.2 5 5.1z"/></g><g fill="#193062"><path d="M195.4 43.7c2.4 0 4.4 1.2 5.5 2.9l-3 2.1c-.5-.8-1.4-1.4-2.5-1.4-1.6 0-2.8 1.3-2.8 3s1.2 2.9 2.8 2.9c1.1 0 1.9-.6 2.5-1.4l3 2.1c-1.1 1.8-3.1 3-5.5 3-3.8 0-6.5-2.9-6.5-6.6s2.7-6.6 6.5-6.6zM208.6 43.7c3.8 0 6.6 2.9 6.6 6.6 0 3.6-2.8 6.5-6.6 6.5s-6.6-3-6.6-6.5c0-3.8 2.8-6.6 6.6-6.6zm0 9.5c1.7 0 2.9-1.3 2.9-2.9 0-1.7-1.2-3-2.9-3s-2.9 1.3-2.9 3c0 1.6 1.2 2.9 2.9 2.9zM229.2 48.7v7.9h-3.7v-7.1c0-1.2-.8-2.1-2.1-2.1s-2.1.9-2.1 2.1v7.1h-3.7V43.9h3.6v.7c.8-.6 1.9-1 3.1-1 2.8.1 4.9 2.2 4.9 5.1zM233.6 47.5h-2.5V44h2.5v-2.5c0-2.4 1.6-3.9 4-3.9h2.8V41h-2.1c-.6 0-1 .3-1 1v1.9h3.2v3.5h-3.2v9.1h-3.7v-9zm11-9.8c1.3 0 2.3 1 2.3 2.3 0 1.3-1 2.3-2.3 2.3-1.3 0-2.3-1-2.3-2.3 0-1.3 1-2.3 2.3-2.3zm1.8 18.8h-3.7V43.9h3.7v12.6zM262 37.5v19h-3.6v-.8c-.8.7-2 1-3.2 1-3.6 0-6.2-2.9-6.2-6.5 0-3.7 2.6-6.6 6.2-6.6 1.2 0 2.3.4 3.1 1v-7.1h3.7zm-3.6 12.8c0-1.7-1.2-3-2.9-3-1.6 0-2.8 1.3-2.8 3 0 1.6 1.2 2.9 2.8 2.9 1.7 0 2.9-1.3 2.9-2.9zM276.9 51.6h-8.8c.4 1.1 1.5 1.8 2.8 1.8 1.2 0 2.1-.6 2.6-1.4l2.9 1.8c-1.1 1.9-3.1 3.1-5.6 3.1-3.8 0-6.5-2.8-6.5-6.5s2.6-6.6 6.3-6.6c3.7 0 6.3 2.8 6.3 6.5.2.4.1.8 0 1.3zm-8.8-2.7h5.3c-.4-1.2-1.3-1.8-2.6-1.8-1.4-.1-2.4.6-2.7 1.8zM291.2 48.7v7.9h-3.7v-7.1c0-1.2-.8-2.1-2.1-2.1s-2.1.9-2.1 2.1v7.1h-3.7V43.9h3.6v.7c.8-.6 1.9-1 3.1-1 2.8.1 4.9 2.2 4.9 5.1zM300.1 43.7c2.4 0 4.4 1.2 5.5 2.9l-3 2.1c-.5-.8-1.4-1.4-2.5-1.4-1.6 0-2.8 1.3-2.8 3s1.2 2.9 2.8 2.9c1.1 0 1.9-.6 2.4-1.4l3 2.1c-1.1 1.8-3.1 3-5.5 3-3.8 0-6.5-2.9-6.5-6.6s2.8-6.6 6.6-6.6zM319.2 51.6h-8.8c.4 1.1 1.5 1.8 2.8 1.8 1.2 0 2.1-.6 2.6-1.4l2.9 1.8c-1.1 1.9-3.1 3.1-5.6 3.1-3.8 0-6.5-2.8-6.5-6.5s2.6-6.6 6.3-6.6c3.7 0 6.3 2.8 6.3 6.5.1.4.1.8 0 1.3zm-8.9-2.7h5.3c-.4-1.2-1.3-1.8-2.6-1.8-1.3-.1-2.3.6-2.7 1.8zM323.6 52.1c1.3 0 2.3 1 2.3 2.3 0 1.3-1 2.3-2.3 2.3-1.3 0-2.3-1-2.3-2.3 0-1.3 1-2.3 2.3-2.3z"/></g></svg>