<svg baseProfile="tiny" xmlns="http://www.w3.org/2000/svg" viewBox="0 0 728 90" overflow="visible"><path fill="#193062" d="M589.9.2h137.8v89.5H589.9z"/><path fill="#FAE07E" d="M605 32.1h16.7v4.6H605z"/><path fill="#FFF" d="M623.1 32.1h4v4.6h-4z"/><path fill="#FAE07E" d="M605 38h12.5v4.6H605z"/><path fill="#FFF" d="M618.8 38h8.2v4.6h-8.2zM614.6 43.8h12.5v4.6h-12.5zM610.4 49.6h16.7v4.6h-16.7zM640 38.8h-3.7v-2h9.6v2h-3.7v10.8H640z"/><path fill="none" d="M703.8 42.1c-1.2 0-2.3.7-2.6 2h5c-.2-1.3-1.2-2-2.4-2zM693.3 42.2c-1.5 0-2.7 1.2-2.7 2.8 0 1.6 1.2 2.8 2.7 2.8 1.5 0 2.7-1.2 2.7-2.8 0-1.6-1.2-2.8-2.7-2.8zM682.6 42.2c-1.6 0-2.7 1.3-2.7 2.9 0 1.6 1.1 2.9 2.7 2.9s2.7-1.3 2.7-2.9c0-1.6-1.1-2.9-2.7-2.9z"/><path fill="#FFF" d="M645.4 40.6v9h2v-4.4c0-1.8 1-2.8 2.2-2.8.4 0 .6.1 1 .2v-2c-.3-.1-.5-.1-.8-.1-1 0-2 .7-2.4 1.7v-1.6h-2zM652.1 40.6V46c0 2.3 1.3 3.8 3.4 3.8 1.2 0 2.1-.5 2.6-1.4v1.2h2v-9h-2V45c0 1.9-.9 3-2.2 3-1.2 0-1.8-.9-1.8-2.3v-5.1h-2zM666 47.8c-1.2 0-2.3-.6-3-1.6l-1.7 1.3c.8 1.4 2.5 2.3 4.6 2.3 2.5 0 4.3-1.5 4.3-3.7 0-1.9-1.1-3.1-3-3.8l-1.3-.5c-1.3-.5-1.9-.9-1.9-1.8s.9-1.5 2-1.5c1 0 1.8.4 2.4 1.2l1.5-1.4c-.9-1.1-2.3-1.8-3.9-1.8-2.4 0-4.2 1.4-4.2 3.6 0 1.8 1 2.9 3 3.6l1.4.5c1.2.5 1.8 1 1.8 2s-.9 1.6-2 1.6zM687.1 49.6v-9h-2v1.2c-.5-.7-1.6-1.4-2.9-1.4-2.5 0-4.3 2.1-4.3 4.7s1.9 4.7 4.3 4.7c1.3 0 2.4-.7 2.9-1.4v1.2h2zm-4.5-1.6c-1.6 0-2.7-1.3-2.7-2.9 0-1.6 1.1-2.9 2.7-2.9s2.7 1.3 2.7 2.9c0 1.6-1.1 2.9-2.7 2.9zM693.1 51.8c-1.2 0-2.2-.5-3-1.3l-1.2 1.4c.9 1 2.5 1.7 4.2 1.7 2.7 0 4.7-1.4 4.7-4.6v-8.4h-2v1.2c-.5-.8-1.6-1.4-2.9-1.4-2.4 0-4.3 2-4.3 4.6 0 2.6 1.9 4.6 4.3 4.6 1.2 0 2.3-.6 2.9-1.4v.8c0 1.8-1.2 2.8-2.7 2.8zm.2-4.1c-1.5 0-2.7-1.2-2.7-2.8 0-1.6 1.2-2.8 2.7-2.8 1.5 0 2.7 1.2 2.7 2.8 0 1.7-1.2 2.8-2.7 2.8zM703.9 40.4c-2.7 0-4.7 2-4.7 4.7s2 4.7 4.7 4.7c1.9 0 3.3-.8 4.1-2.1l-1.5-1.1c-.5.8-1.3 1.4-2.6 1.4-1.5 0-2.7-1-2.8-2.5h7.1v-.7c0-2.8-1.9-4.4-4.3-4.4zm-2.7 3.7c.3-1.3 1.4-2 2.6-2 1.2 0 2.2.7 2.4 2h-5zM672.4 38.1v1.1c0 .8-.6 1.4-1.4 1.4h-.5v1.8h1.9v4.4c0 2 1.4 3 3.1 3 .6 0 1.1-.1 1.5-.2v-1.8c-.3.1-.7.2-1.1.2-1 0-1.5-.4-1.5-1.5v-4h2.6v-1.8h-2.6v-2.5h-2zM709.5 39l-.5-.9h-.3v1.5h.3v-.9l.5 1 .4-1v.9h.3v-1.5h-.3zM707.9 39.7v-1.3h.5v-.3h-1.3v.3h.5v1.3z"/></svg>