<?xml version="1.0" encoding="utf-8"?>
<!-- Generator: Adobe Illustrator 27.4.0, SVG Export Plug-In . SVG Version: 6.00 Build 0)  -->
<svg version="1.1" baseProfile="tiny" id="Layer_1" xmlns="http://www.w3.org/2000/svg" xmlns:xlink="http://www.w3.org/1999/xlink"
	 x="0px" y="0px" viewBox="0 0 300 50" overflow="visible" xml:space="preserve">
<g>
	<path fill="#FFFFFF" d="M12,42.5c0,0.4-0.1,0.8-0.3,1.1c-0.2,0.3-0.4,0.6-0.8,0.8s-0.7,0.3-1.1,0.3c-0.4,0-0.8-0.1-1.1-0.3
		c-0.3-0.2-0.6-0.5-0.8-0.8s-0.3-0.7-0.3-1.2c0-0.4,0.1-0.8,0.3-1.2c0.2-0.3,0.5-0.6,0.8-0.8s0.7-0.3,1.1-0.3c0.4,0,0.8,0.1,1.1,0.3
		s0.6,0.4,0.8,0.8l-0.4,0.2c-0.2-0.3-0.4-0.5-0.6-0.6c-0.3-0.2-0.6-0.2-0.9-0.2c-0.3,0-0.6,0.1-0.9,0.2c-0.3,0.2-0.5,0.4-0.6,0.6
		S8.2,42,8.2,42.4c0,0.3,0.1,0.7,0.2,0.9S8.7,43.8,9,44s0.6,0.2,0.9,0.2c0.3,0,0.5-0.1,0.8-0.2s0.4-0.2,0.6-0.4s0.3-0.4,0.3-0.6H9.7
		v-0.4H12z"/>
	<path fill="#FFFFFF" d="M12.8,40.2H16v0.4h-2.8v1.5h1.6v0.4h-1.6v1.5H16v0.4h-3.2V40.2z"/>
	<path fill="#FFFFFF" d="M20.2,40.2v4.4h-0.5L17.4,41v3.6h-0.5v-4.4h0.5l2.4,3.6v-3.6H20.2z"/>
	<path fill="#FFFFFF" d="M22.4,42.7v0.4h-1.4v-0.4H22.4z"/>
	<path fill="#FFFFFF" d="M26,43.2c0,0.3-0.1,0.5-0.2,0.7s-0.3,0.4-0.5,0.5c-0.2,0.1-0.5,0.2-0.7,0.2c-0.3,0-0.5-0.1-0.7-0.2
		c-0.2-0.1-0.4-0.3-0.5-0.5s-0.2-0.4-0.2-0.7h0.5c0,0.2,0,0.3,0.1,0.5c0.1,0.1,0.2,0.3,0.3,0.3c0.1,0.1,0.3,0.1,0.5,0.1
		c0.2,0,0.4,0,0.5-0.1c0.1-0.1,0.3-0.2,0.3-0.3c0.1-0.1,0.1-0.3,0.1-0.5s0-0.3-0.1-0.5s-0.2-0.3-0.3-0.3c-0.1-0.1-0.3-0.1-0.5-0.1
		h-1.2l0.3-2.1h2.2v0.4h-1.8l-0.2,1.2h0.7c0.3,0,0.5,0.1,0.7,0.2s0.4,0.3,0.5,0.5S26,43,26,43.2z"/>
	<path fill="#FFFFFF" d="M29.8,43.2c0,0.3-0.1,0.5-0.2,0.7s-0.3,0.4-0.5,0.5s-0.5,0.2-0.7,0.2c-0.3,0-0.5-0.1-0.7-0.2
		s-0.4-0.3-0.5-0.5s-0.2-0.5-0.2-0.7c0-0.2,0-0.3,0.1-0.5s0.1-0.3,0.2-0.5l1.3-2h0.5L28,41.9c0.1,0,0.3,0,0.4,0
		c0.3,0,0.5,0.1,0.7,0.2c0.2,0.1,0.4,0.3,0.5,0.5C29.7,42.7,29.8,43,29.8,43.2z M29.4,43.2c0-0.2,0-0.4-0.1-0.5s-0.2-0.3-0.4-0.3
		c-0.2-0.1-0.3-0.1-0.5-0.1c-0.2,0-0.4,0-0.5,0.1c-0.2,0.1-0.3,0.2-0.4,0.3s-0.1,0.3-0.1,0.5c0,0.2,0,0.4,0.1,0.5s0.2,0.3,0.4,0.3
		s0.3,0.1,0.5,0.1s0.4,0,0.5-0.1s0.3-0.2,0.4-0.3S29.4,43.4,29.4,43.2z"/>
	<path fill="#FFFFFF" d="M31.5,40.7l-1.2,0.7v-0.5l1.2-0.7H32v4.4h-0.5V40.7z"/>
	<path fill="#FFFFFF" d="M36.3,42.8v0.4h-0.8v1.4H35v-1.4h-2v-0.4l1.9-2.6h0.5v2.6H36.3z M35,42.8v-1.9l-1.4,1.9H35z"/>
	<path fill="#FFFFFF" d="M39.5,43.4c0,0.2-0.1,0.5-0.2,0.6c-0.1,0.2-0.3,0.3-0.5,0.5c-0.2,0.1-0.4,0.2-0.7,0.2
		c-0.3,0-0.5-0.1-0.7-0.2S37.1,44.2,37,44s-0.2-0.4-0.2-0.6h0.5c0,0.2,0,0.3,0.1,0.4s0.2,0.2,0.3,0.3c0.1,0.1,0.3,0.1,0.5,0.1
		c0.2,0,0.3,0,0.5-0.1s0.2-0.2,0.3-0.3s0.1-0.3,0.1-0.4c0-0.2,0-0.3-0.1-0.4c-0.1-0.1-0.2-0.2-0.3-0.3s-0.3-0.1-0.4-0.1h-0.4v-0.4
		h0.4c0.2,0,0.3,0,0.4-0.1s0.2-0.2,0.3-0.3s0.1-0.2,0.1-0.4c0-0.2,0-0.3-0.1-0.4s-0.2-0.2-0.3-0.3s-0.3-0.1-0.4-0.1
		c-0.2,0-0.3,0-0.4,0.1s-0.2,0.2-0.3,0.3c-0.1,0.1-0.1,0.2-0.1,0.4h-0.5c0-0.2,0.1-0.4,0.2-0.6c0.1-0.2,0.3-0.3,0.4-0.4
		c0.2-0.1,0.4-0.2,0.7-0.2c0.2,0,0.5,0.1,0.7,0.2c0.2,0.1,0.3,0.2,0.4,0.4s0.2,0.4,0.2,0.6c0,0.2,0,0.4-0.1,0.6s-0.2,0.3-0.4,0.4
		c0.2,0.1,0.3,0.2,0.4,0.4S39.5,43.1,39.5,43.4z"/>
	<path fill="#FFFFFF" d="M40.5,41.3c0-0.2,0.1-0.4,0.2-0.6s0.3-0.3,0.5-0.4s0.4-0.2,0.7-0.2s0.5,0.1,0.7,0.2s0.4,0.2,0.5,0.4
		s0.2,0.4,0.2,0.6c0,0.3,0,0.6,0,1c0,0.4,0,0.8,0,1.1c0,0.2-0.1,0.4-0.2,0.6s-0.3,0.3-0.5,0.4s-0.4,0.2-0.7,0.2s-0.5-0.1-0.7-0.2
		s-0.4-0.2-0.5-0.4s-0.2-0.4-0.2-0.6c0-0.3,0-0.6,0-1.1C40.4,42,40.4,41.6,40.5,41.3z M40.9,43.4c0,0.2,0.1,0.3,0.1,0.4
		s0.2,0.2,0.3,0.3s0.3,0.1,0.4,0.1s0.3,0,0.4-0.1s0.2-0.2,0.3-0.3s0.1-0.3,0.1-0.4c0-0.1,0-0.2,0-0.4s0-0.4,0-0.6s0-0.5,0-0.6
		s0-0.3,0-0.4c0-0.2-0.1-0.3-0.1-0.4s-0.2-0.2-0.3-0.3s-0.3-0.1-0.4-0.1s-0.3,0-0.4,0.1s-0.2,0.2-0.3,0.3s-0.1,0.3-0.1,0.4
		c0,0.1,0,0.2,0,0.4s0,0.4,0,0.6s0,0.5,0,0.6S40.9,43.3,40.9,43.4z"/>
	<path fill="#FFFFFF" d="M44.2,41.3c0-0.2,0.1-0.4,0.2-0.6s0.3-0.3,0.5-0.4s0.4-0.2,0.7-0.2s0.5,0.1,0.7,0.2s0.4,0.2,0.5,0.4
		s0.2,0.4,0.2,0.6c0,0.3,0,0.6,0,1c0,0.4,0,0.8,0,1.1c0,0.2-0.1,0.4-0.2,0.6s-0.3,0.3-0.5,0.4s-0.4,0.2-0.7,0.2s-0.5-0.1-0.7-0.2
		s-0.4-0.2-0.5-0.4s-0.2-0.4-0.2-0.6c0-0.3,0-0.6,0-1.1C44.2,42,44.2,41.6,44.2,41.3z M44.7,43.4c0,0.2,0.1,0.3,0.1,0.4
		s0.2,0.2,0.3,0.3s0.3,0.1,0.4,0.1s0.3,0,0.4-0.1s0.2-0.2,0.3-0.3s0.1-0.3,0.1-0.4c0-0.1,0-0.2,0-0.4s0-0.4,0-0.6s0-0.5,0-0.6
		s0-0.3,0-0.4c0-0.2-0.1-0.3-0.1-0.4s-0.2-0.2-0.3-0.3s-0.3-0.1-0.4-0.1s-0.3,0-0.4,0.1s-0.2,0.2-0.3,0.3s-0.1,0.3-0.1,0.4
		c0,0.1,0,0.2,0,0.4s0,0.4,0,0.6s0,0.5,0,0.6S44.7,43.3,44.7,43.4z"/>
	<path fill="#FFFFFF" d="M48.2,43.9c0.1,0,0.2,0,0.2,0.1s0.1,0.1,0.1,0.2s0,0.2-0.1,0.2c-0.1,0.1-0.1,0.1-0.2,0.1s-0.2,0-0.2-0.1
		c-0.1-0.1-0.1-0.1-0.1-0.2s0-0.2,0.1-0.2S48.1,43.9,48.2,43.9z"/>
	<path fill="#FFFFFF" d="M50.4,40.7l-1.2,0.7v-0.5l1.2-0.7h0.5v4.4h-0.5V40.7z"/>
</g>
</svg>
