<?xml version="1.0" encoding="utf-8"?>
<!-- Generator: Adobe Illustrator 27.4.0, SVG Export Plug-In . SVG Version: 6.00 Build 0)  -->
<svg version="1.1" baseProfile="tiny" id="Layer_1" xmlns="http://www.w3.org/2000/svg" xmlns:xlink="http://www.w3.org/1999/xlink"
	 x="0px" y="0px" viewBox="0 0 300 50" overflow="visible" xml:space="preserve">
<g>
	<path fill="#454547" d="M80.3,36.6h3.1v0.6H81v1.9h2.2v0.6H81v2.6h-0.7V36.6z"/>
	<path fill="#454547" d="M85,37c0,0.3-0.2,0.5-0.5,0.5c-0.3,0-0.5-0.2-0.5-0.5c0-0.3,0.2-0.5,0.5-0.5C84.8,36.6,85,36.8,85,37z
		 M84.2,42.3v-4.1h0.7v4.1H84.2z"/>
	<path fill="#454547" d="M86.1,39.3c0-0.4,0-0.8,0-1.1h0.7l0,0.7h0c0.2-0.4,0.7-0.8,1.4-0.8c0.6,0,1.5,0.3,1.5,1.8v2.5h-0.7v-2.4
		c0-0.7-0.2-1.2-1-1.2c-0.5,0-0.9,0.3-1,0.8c0,0.1-0.1,0.2-0.1,0.3v2.5h-0.7V39.3z"/>
	<path fill="#454547" d="M91.7,37c0,0.3-0.2,0.5-0.5,0.5c-0.3,0-0.5-0.2-0.5-0.5c0-0.3,0.2-0.5,0.5-0.5C91.5,36.6,91.7,36.8,91.7,37
		z M90.9,42.3v-4.1h0.7v4.1H90.9z"/>
	<path fill="#454547" d="M92.7,41.5c0.2,0.1,0.6,0.3,1,0.3c0.5,0,0.8-0.3,0.8-0.6c0-0.4-0.2-0.6-0.8-0.8c-0.7-0.3-1.1-0.7-1.1-1.2
		c0-0.7,0.5-1.2,1.4-1.2c0.4,0,0.8,0.1,1,0.3l-0.2,0.5c-0.2-0.1-0.5-0.2-0.8-0.2c-0.4,0-0.7,0.3-0.7,0.6c0,0.3,0.2,0.5,0.8,0.7
		c0.7,0.3,1.1,0.6,1.1,1.2c0,0.7-0.6,1.2-1.5,1.2c-0.5,0-0.9-0.1-1.2-0.3L92.7,41.5z"/>
	<path fill="#454547" d="M96.2,36.3H97v2.6h0c0.1-0.2,0.3-0.4,0.5-0.5c0.2-0.1,0.5-0.2,0.8-0.2c0.6,0,1.4,0.3,1.4,1.8v2.4H99v-2.4
		c0-0.7-0.2-1.2-1-1.2c-0.5,0-0.9,0.3-1,0.7c0,0.1-0.1,0.2-0.1,0.4v2.5h-0.7V36.3z"/>
	<path fill="#454547" d="M103,38.2l0.9,2.4c0.1,0.3,0.2,0.6,0.3,0.8h0c0.1-0.2,0.2-0.6,0.3-0.9l0.8-2.4h0.8l-1.1,2.9
		c-0.5,1.4-0.9,2.1-1.4,2.6c-0.4,0.3-0.7,0.5-0.9,0.5l-0.2-0.6c0.2-0.1,0.4-0.2,0.7-0.4c0.2-0.2,0.5-0.5,0.6-0.8
		c0-0.1,0.1-0.1,0.1-0.2c0,0,0-0.1-0.1-0.2l-1.5-3.8H103z"/>
	<path fill="#454547" d="M110.4,40.2c0,1.5-1.1,2.2-2,2.2c-1.1,0-2-0.8-2-2.1c0-1.4,0.9-2.2,2-2.2C109.6,38.1,110.4,38.9,110.4,40.2
		z M107.1,40.2c0,0.9,0.5,1.6,1.2,1.6c0.7,0,1.2-0.7,1.2-1.6c0-0.7-0.3-1.6-1.2-1.6S107.1,39.5,107.1,40.2z"/>
	<path fill="#454547" d="M114.8,41.2c0,0.4,0,0.8,0,1.1h-0.7l0-0.7h0c-0.2,0.3-0.6,0.8-1.4,0.8c-0.6,0-1.4-0.4-1.4-1.8v-2.4h0.7v2.3
		c0,0.8,0.2,1.3,0.9,1.3c0.5,0,0.9-0.3,1-0.7c0-0.1,0.1-0.2,0.1-0.4v-2.5h0.7V41.2z"/>
	<path fill="#454547" d="M116,39.5c0-0.5,0-0.9,0-1.3h0.7l0,0.8h0c0.2-0.6,0.6-0.9,1.1-0.9c0.1,0,0.1,0,0.2,0v0.7
		c-0.1,0-0.2,0-0.3,0c-0.5,0-0.9,0.4-1,1c0,0.1,0,0.2,0,0.3v2.2H116V39.5z"/>
	<path fill="#454547" d="M120.6,39.3c0-0.4,0-0.8,0-1.1h0.7l0,0.7h0c0.2-0.4,0.7-0.8,1.4-0.8c0.6,0,1.5,0.3,1.5,1.8v2.5h-0.7v-2.4
		c0-0.7-0.2-1.2-1-1.2c-0.5,0-0.9,0.3-1,0.8c0,0.1-0.1,0.2-0.1,0.3v2.5h-0.7V39.3z"/>
	<path fill="#454547" d="M129,40.2c0,1.5-1.1,2.2-2,2.2c-1.1,0-2-0.8-2-2.1c0-1.4,0.9-2.2,2-2.2C128.2,38.1,129,38.9,129,40.2z
		 M125.8,40.2c0,0.9,0.5,1.6,1.2,1.6c0.7,0,1.2-0.7,1.2-1.6c0-0.7-0.3-1.6-1.2-1.6S125.8,39.5,125.8,40.2z"/>
	<path fill="#454547" d="M131.8,39.7v0.6h-2.1v-0.6H131.8z"/>
	<path fill="#454547" d="M135.8,42.1c-0.2,0.1-0.6,0.2-1.2,0.2c-1.2,0-2-0.8-2-2.1c0-1.3,0.9-2.2,2.2-2.2c0.4,0,0.8,0.1,1,0.2
		l-0.2,0.6c-0.2-0.1-0.5-0.2-0.9-0.2c-0.9,0-1.5,0.7-1.5,1.6c0,1,0.6,1.5,1.4,1.5c0.4,0,0.7-0.1,0.9-0.2L135.8,42.1z"/>
	<path fill="#454547" d="M140.3,40.2c0,1.5-1.1,2.2-2,2.2c-1.1,0-2-0.8-2-2.1c0-1.4,0.9-2.2,2-2.2C139.5,38.1,140.3,38.9,140.3,40.2
		z M137.1,40.2c0,0.9,0.5,1.6,1.2,1.6c0.7,0,1.2-0.7,1.2-1.6c0-0.7-0.3-1.6-1.2-1.6S137.1,39.5,137.1,40.2z"/>
	<path fill="#454547" d="M141.2,41.5c0.2,0.1,0.6,0.3,1,0.3c0.5,0,0.8-0.3,0.8-0.6c0-0.4-0.2-0.6-0.8-0.8c-0.7-0.3-1.1-0.7-1.1-1.2
		c0-0.7,0.5-1.2,1.4-1.2c0.4,0,0.8,0.1,1,0.3l-0.2,0.5c-0.2-0.1-0.5-0.2-0.8-0.2c-0.4,0-0.7,0.3-0.7,0.6c0,0.3,0.2,0.5,0.8,0.7
		c0.7,0.3,1.1,0.6,1.1,1.2c0,0.7-0.6,1.2-1.5,1.2c-0.5,0-0.9-0.1-1.2-0.3L141.2,41.5z"/>
	<path fill="#454547" d="M145.6,37v1.2h1.1v0.6h-1.1V41c0,0.5,0.1,0.8,0.6,0.8c0.2,0,0.3,0,0.4-0.1l0,0.6c-0.1,0.1-0.4,0.1-0.7,0.1
		c-0.3,0-0.6-0.1-0.8-0.3c-0.2-0.2-0.3-0.6-0.3-1.1v-2.2h-0.6v-0.6h0.6v-1L145.6,37z"/>
	<path fill="#454547" d="M152.1,41.7L152.1,41.7c-0.2,0.4-0.7,0.7-1.4,0.7c-1,0-1.7-0.8-1.7-2.1c0-1.5,1-2.2,1.9-2.2
		c0.6,0,1.1,0.3,1.3,0.7h0l0-0.6h0.7c0,0.3,0,0.7,0,1.1V44h-0.7V41.7z M152.1,39.8c0-0.1,0-0.2,0-0.3c-0.1-0.5-0.5-0.8-1.1-0.8
		c-0.8,0-1.2,0.7-1.2,1.6c0,0.8,0.4,1.5,1.2,1.5c0.5,0,0.9-0.3,1.1-0.8c0-0.1,0.1-0.2,0.1-0.4V39.8z"/>
	<path fill="#454547" d="M157.5,41.2c0,0.4,0,0.8,0,1.1h-0.7l0-0.7h0c-0.2,0.3-0.6,0.8-1.4,0.8c-0.6,0-1.4-0.4-1.4-1.8v-2.4h0.7v2.3
		c0,0.8,0.2,1.3,0.9,1.3c0.5,0,0.8-0.3,1-0.7c0-0.1,0.1-0.2,0.1-0.4v-2.5h0.7V41.2z"/>
	<path fill="#454547" d="M162.5,40.2c0,1.5-1.1,2.2-2,2.2c-1.1,0-2-0.8-2-2.1c0-1.4,0.9-2.2,2-2.2C161.7,38.1,162.5,38.9,162.5,40.2
		z M159.2,40.2c0,0.9,0.5,1.6,1.2,1.6c0.7,0,1.2-0.7,1.2-1.6c0-0.7-0.3-1.6-1.2-1.6S159.2,39.5,159.2,40.2z"/>
	<path fill="#454547" d="M164.3,37v1.2h1.1v0.6h-1.1V41c0,0.5,0.1,0.8,0.6,0.8c0.2,0,0.3,0,0.4-0.1l0,0.6c-0.1,0.1-0.4,0.1-0.7,0.1
		c-0.3,0-0.6-0.1-0.8-0.3c-0.2-0.2-0.3-0.6-0.3-1.1v-2.2h-0.6v-0.6h0.6v-1L164.3,37z"/>
	<path fill="#454547" d="M166.6,40.4c0,1,0.7,1.4,1.4,1.4c0.5,0,0.9-0.1,1.1-0.2l0.1,0.5c-0.3,0.1-0.7,0.3-1.4,0.3
		c-1.3,0-2-0.8-2-2.1c0-1.2,0.7-2.2,1.9-2.2c1.3,0,1.7,1.2,1.7,1.9c0,0.2,0,0.3,0,0.3H166.6z M168.8,39.8c0-0.5-0.2-1.2-1-1.2
		c-0.8,0-1.1,0.7-1.1,1.2H168.8z"/>
	<path fill="#454547" d="M170.2,41.9c0-0.3,0.2-0.5,0.5-0.5c0.3,0,0.5,0.2,0.5,0.5c0,0.3-0.2,0.5-0.5,0.5
		C170.4,42.4,170.2,42.2,170.2,41.9z"/>
</g>
</svg>
