<?xml version="1.0" encoding="utf-8"?>
<!-- Generator: Adobe Illustrator 27.4.0, SVG Export Plug-In . SVG Version: 6.00 Build 0)  -->
<svg version="1.1" baseProfile="tiny" id="Layer_1" xmlns="http://www.w3.org/2000/svg" xmlns:xlink="http://www.w3.org/1999/xlink"
	 x="0px" y="0px" viewBox="0 0 300 50" overflow="visible" xml:space="preserve">
<g>
	<path fill="#454547" d="M81,37.4h-1.7v-0.6h4.2v0.6h-1.8v5.1H81V37.4z"/>
	<path fill="#454547" d="M83.7,39.7c0-0.5,0-0.9,0-1.3h0.7l0,0.8h0c0.2-0.6,0.6-0.9,1.1-0.9c0.1,0,0.1,0,0.2,0V39
		c-0.1,0-0.2,0-0.3,0c-0.5,0-0.9,0.4-1,1c0,0.1,0,0.2,0,0.3v2.2h-0.7V39.7z"/>
	<path fill="#454547" d="M89.9,41.4c0,0.4,0,0.8,0,1.1h-0.7l0-0.7h0c-0.2,0.3-0.6,0.8-1.4,0.8c-0.6,0-1.4-0.4-1.4-1.8v-2.4h0.7v2.3
		c0,0.8,0.2,1.3,0.9,1.3c0.5,0,0.9-0.3,1-0.7c0-0.1,0.1-0.2,0.1-0.4v-2.5h0.7V41.4z"/>
	<path fill="#454547" d="M91.1,41.6c0.3,0.2,0.8,0.4,1.3,0.4c0.8,0,1.2-0.4,1.2-1c0-0.5-0.3-0.8-1.1-1.1c-0.9-0.3-1.5-0.8-1.5-1.6
		c0-0.9,0.7-1.6,1.9-1.6c0.6,0,1,0.1,1.3,0.3l-0.2,0.6c-0.2-0.1-0.6-0.3-1.1-0.3c-0.8,0-1.1,0.5-1.1,0.9c0,0.5,0.3,0.8,1.1,1.1
		c1,0.4,1.5,0.8,1.5,1.7c0,0.9-0.7,1.6-2,1.6c-0.6,0-1.2-0.2-1.5-0.4L91.1,41.6z"/>
	<path fill="#454547" d="M96.2,37.2v1.2h1.1V39h-1.1v2.2c0,0.5,0.1,0.8,0.6,0.8c0.2,0,0.3,0,0.4-0.1l0,0.6c-0.1,0.1-0.4,0.1-0.7,0.1
		c-0.3,0-0.6-0.1-0.8-0.3c-0.2-0.2-0.3-0.6-0.3-1.1V39h-0.6v-0.6h0.6v-1L96.2,37.2z"/>
	<path fill="#454547" d="M100.4,42.5l-0.1-0.5h0c-0.2,0.3-0.7,0.6-1.3,0.6c-0.8,0-1.3-0.6-1.3-1.2c0-1,0.9-1.5,2.5-1.5v-0.1
		c0-0.3-0.1-1-0.9-1c-0.4,0-0.8,0.1-1.1,0.3l-0.2-0.5c0.3-0.2,0.8-0.4,1.4-0.4c1.3,0,1.6,0.9,1.6,1.7v1.5c0,0.4,0,0.7,0.1,1H100.4z
		 M100.3,40.4c-0.8,0-1.7,0.1-1.7,0.9c0,0.5,0.3,0.7,0.7,0.7c0.5,0,0.9-0.3,1-0.7c0-0.1,0-0.2,0-0.2V40.4z"/>
	<path fill="#454547" d="M105.8,38.4c0,0.3,0,0.6,0,1.1v2.4c0,0.9-0.2,1.5-0.6,1.9c-0.4,0.4-1,0.5-1.5,0.5c-0.5,0-1-0.1-1.4-0.3
		l0.2-0.6c0.3,0.2,0.7,0.3,1.2,0.3c0.8,0,1.3-0.4,1.3-1.4v-0.5h0c-0.2,0.4-0.7,0.7-1.3,0.7c-1,0-1.8-0.9-1.8-2
		c0-1.4,0.9-2.2,1.9-2.2c0.7,0,1.1,0.4,1.3,0.7h0l0-0.6H105.8z M105,40c0-0.1,0-0.2,0-0.3c-0.1-0.4-0.5-0.8-1-0.8
		c-0.7,0-1.2,0.6-1.2,1.6c0,0.8,0.4,1.5,1.2,1.5c0.5,0,0.9-0.3,1-0.8c0-0.1,0.1-0.3,0.1-0.4V40z"/>
	<path fill="#454547" d="M107.4,40.6c0,1,0.7,1.4,1.4,1.4c0.5,0,0.9-0.1,1.1-0.2l0.1,0.5c-0.3,0.1-0.7,0.3-1.4,0.3
		c-1.3,0-2-0.8-2-2.1c0-1.2,0.7-2.2,1.9-2.2c1.3,0,1.7,1.2,1.7,1.9c0,0.2,0,0.3,0,0.3H107.4z M109.6,40.1c0-0.5-0.2-1.2-1-1.2
		c-0.8,0-1.1,0.7-1.1,1.2H109.6z"/>
	<path fill="#454547" d="M112.8,36.8v0.4h-0.7v1.9h-0.5v-1.9h-0.7v-0.4H112.8z M115.3,39.1l-0.1-1.4c0-0.2,0-0.4,0-0.6h0
		c-0.1,0.2-0.1,0.5-0.2,0.7l-0.4,1.3h-0.5l-0.4-1.3c0-0.2-0.1-0.5-0.2-0.7h0c0,0.2,0,0.4,0,0.6l-0.1,1.4h-0.4l0.2-2.3h0.7l0.4,1.1
		c0.1,0.2,0.1,0.3,0.2,0.6h0c0.1-0.2,0.1-0.4,0.2-0.6l0.4-1.1h0.7l0.2,2.3H115.3z"/>
	<path fill="#454547" d="M121.2,42.4c-0.2,0.1-0.6,0.2-1.2,0.2c-1.2,0-2-0.8-2-2.1c0-1.3,0.9-2.2,2.2-2.2c0.4,0,0.8,0.1,1,0.2
		l-0.2,0.6c-0.2-0.1-0.5-0.2-0.9-0.2c-0.9,0-1.5,0.7-1.5,1.6c0,1,0.6,1.5,1.4,1.5c0.4,0,0.7-0.1,0.9-0.2L121.2,42.4z"/>
	<path fill="#454547" d="M125.8,40.4c0,1.5-1.1,2.2-2,2.2c-1.1,0-2-0.8-2-2.1c0-1.4,0.9-2.2,2-2.2C125,38.3,125.8,39.2,125.8,40.4z
		 M122.5,40.5c0,0.9,0.5,1.6,1.2,1.6c0.7,0,1.2-0.7,1.2-1.6c0-0.7-0.3-1.6-1.2-1.6S122.5,39.7,122.5,40.5z"/>
	<path fill="#454547" d="M130.2,41.4c0,0.4,0,0.8,0,1.1h-0.7l0-0.7h0c-0.2,0.3-0.6,0.8-1.4,0.8c-0.6,0-1.4-0.4-1.4-1.8v-2.4h0.7v2.3
		c0,0.8,0.2,1.3,0.9,1.3c0.5,0,0.9-0.3,1-0.7c0-0.1,0.1-0.2,0.1-0.4v-2.5h0.7V41.4z"/>
	<path fill="#454547" d="M131.4,36.5h0.7v6h-0.7V36.5z"/>
	<path fill="#454547" d="M137,36.5v5c0,0.4,0,0.8,0,1.1h-0.7l0-0.7h0c-0.2,0.5-0.7,0.8-1.4,0.8c-1,0-1.8-0.8-1.8-2.1
		c0-1.4,0.8-2.2,1.8-2.2c0.6,0,1.1,0.3,1.2,0.6h0v-2.5H137z M136.2,40.1c0-0.1,0-0.2,0-0.3c-0.1-0.5-0.5-0.9-1.1-0.9
		c-0.8,0-1.2,0.7-1.2,1.6c0,0.8,0.4,1.5,1.2,1.5c0.5,0,1-0.3,1.1-0.9c0-0.1,0-0.2,0-0.3V40.1z"/>
	<path fill="#454547" d="M140,36.5h0.7v2.6h0c0.1-0.2,0.3-0.4,0.5-0.5c0.2-0.1,0.5-0.2,0.8-0.2c0.6,0,1.4,0.3,1.4,1.8v2.4h-0.7v-2.4
		c0-0.7-0.2-1.2-1-1.2c-0.5,0-0.9,0.3-1,0.7c0,0.1-0.1,0.2-0.1,0.4v2.5H140V36.5z"/>
	<path fill="#454547" d="M145.2,40.6c0,1,0.7,1.4,1.4,1.4c0.5,0,0.9-0.1,1.1-0.2l0.1,0.5c-0.3,0.1-0.7,0.3-1.4,0.3
		c-1.3,0-2-0.8-2-2.1c0-1.2,0.7-2.2,1.9-2.2c1.3,0,1.7,1.2,1.7,1.9c0,0.2,0,0.3,0,0.3H145.2z M147.3,40.1c0-0.5-0.2-1.2-1-1.2
		c-0.8,0-1.1,0.7-1.1,1.2H147.3z"/>
	<path fill="#454547" d="M149,36.5h0.7v6H149V36.5z"/>
	<path fill="#454547" d="M151,39.8c0-0.5,0-1,0-1.3h0.7l0,0.7h0c0.3-0.5,0.8-0.8,1.5-0.8c1,0,1.7,0.8,1.7,2.1c0,1.5-0.9,2.2-1.9,2.2
		c-0.5,0-1-0.2-1.3-0.6h0v2.2H151V39.8z M151.7,40.9c0,0.1,0,0.2,0,0.3c0.1,0.5,0.6,0.9,1.1,0.9c0.8,0,1.2-0.6,1.2-1.6
		c0-0.8-0.4-1.5-1.2-1.5c-0.5,0-1,0.4-1.1,0.9c0,0.1-0.1,0.2-0.1,0.3V40.9z"/>
	<path fill="#454547" d="M157.6,39.5c0-0.4,0-0.8,0-1.1h0.7l0,0.7h0c0.2-0.4,0.6-0.8,1.3-0.8c0.6,0,1,0.3,1.2,0.8h0
		c0.1-0.2,0.3-0.4,0.5-0.5c0.2-0.2,0.5-0.3,0.9-0.3c0.5,0,1.4,0.4,1.4,1.8v2.4h-0.7v-2.3c0-0.8-0.3-1.3-0.9-1.3
		c-0.4,0-0.8,0.3-0.9,0.7c0,0.1-0.1,0.2-0.1,0.4v2.5h-0.7v-2.5c0-0.7-0.3-1.1-0.9-1.1c-0.5,0-0.8,0.4-0.9,0.7c0,0.1-0.1,0.2-0.1,0.4
		v2.5h-0.7V39.5z"/>
	<path fill="#454547" d="M167,42.5l-0.1-0.5h0c-0.2,0.3-0.7,0.6-1.3,0.6c-0.8,0-1.3-0.6-1.3-1.2c0-1,0.9-1.5,2.5-1.5v-0.1
		c0-0.3-0.1-1-0.9-1c-0.4,0-0.8,0.1-1.1,0.3l-0.2-0.5c0.3-0.2,0.8-0.4,1.4-0.4c1.3,0,1.6,0.9,1.6,1.7v1.5c0,0.4,0,0.7,0.1,1H167z
		 M166.9,40.4c-0.8,0-1.7,0.1-1.7,0.9c0,0.5,0.3,0.7,0.7,0.7c0.5,0,0.9-0.3,1-0.7c0-0.1,0-0.2,0-0.2V40.4z"/>
	<path fill="#454547" d="M169.6,40.3L169.6,40.3c0.1-0.1,0.3-0.3,0.4-0.5l1.2-1.4h0.9l-1.6,1.7l1.8,2.4h-0.9l-1.4-2l-0.4,0.4v1.5
		h-0.7v-6h0.7V40.3z"/>
	<path fill="#454547" d="M173.2,40.6c0,1,0.7,1.4,1.4,1.4c0.5,0,0.9-0.1,1.1-0.2l0.1,0.5c-0.3,0.1-0.7,0.3-1.4,0.3
		c-1.3,0-2-0.8-2-2.1c0-1.2,0.7-2.2,1.9-2.2c1.3,0,1.7,1.2,1.7,1.9c0,0.2,0,0.3,0,0.3H173.2z M175.4,40.1c0-0.5-0.2-1.2-1-1.2
		c-0.8,0-1.1,0.7-1.1,1.2H175.4z"/>
	<path fill="#454547" d="M179.7,37.3c0,0.3-0.2,0.5-0.5,0.5c-0.3,0-0.5-0.2-0.5-0.5c0-0.3,0.2-0.5,0.5-0.5
		C179.5,36.8,179.7,37,179.7,37.3z M178.9,42.5v-4.1h0.7v4.1H178.9z"/>
	<path fill="#454547" d="M181.8,37.2v1.2h1.1V39h-1.1v2.2c0,0.5,0.1,0.8,0.6,0.8c0.2,0,0.3,0,0.4-0.1l0,0.6
		c-0.1,0.1-0.4,0.1-0.7,0.1c-0.3,0-0.6-0.1-0.8-0.3c-0.2-0.2-0.3-0.6-0.3-1.1V39h-0.6v-0.6h0.6v-1L181.8,37.2z"/>
	<path fill="#454547" d="M185.4,41.8c0.2,0.1,0.6,0.3,1,0.3c0.5,0,0.8-0.3,0.8-0.6c0-0.4-0.2-0.6-0.8-0.8c-0.7-0.3-1.1-0.7-1.1-1.2
		c0-0.7,0.5-1.2,1.4-1.2c0.4,0,0.8,0.1,1,0.3l-0.2,0.5c-0.2-0.1-0.5-0.2-0.8-0.2c-0.4,0-0.7,0.3-0.7,0.6c0,0.3,0.2,0.5,0.8,0.7
		c0.7,0.3,1.1,0.6,1.1,1.2c0,0.7-0.6,1.2-1.5,1.2c-0.5,0-0.9-0.1-1.2-0.3L185.4,41.8z"/>
	<path fill="#454547" d="M189.7,37.3c0,0.3-0.2,0.5-0.5,0.5c-0.3,0-0.5-0.2-0.5-0.5c0-0.3,0.2-0.5,0.5-0.5
		C189.5,36.8,189.7,37,189.7,37.3z M188.8,42.5v-4.1h0.7v4.1H188.8z"/>
	<path fill="#454547" d="M190.8,39.5c0-0.4,0-0.8,0-1.1h0.7l0,0.7h0c0.2-0.4,0.6-0.8,1.3-0.8c0.6,0,1,0.3,1.2,0.8h0
		c0.1-0.2,0.3-0.4,0.5-0.5c0.2-0.2,0.5-0.3,0.9-0.3c0.5,0,1.4,0.4,1.4,1.8v2.4H196v-2.3c0-0.8-0.3-1.3-0.9-1.3
		c-0.4,0-0.8,0.3-0.9,0.7c0,0.1-0.1,0.2-0.1,0.4v2.5h-0.7v-2.5c0-0.7-0.3-1.1-0.9-1.1c-0.5,0-0.8,0.4-0.9,0.7c0,0.1-0.1,0.2-0.1,0.4
		v2.5h-0.7V39.5z"/>
	<path fill="#454547" d="M197.9,39.8c0-0.5,0-1,0-1.3h0.7l0,0.7h0c0.3-0.5,0.8-0.8,1.5-0.8c1,0,1.7,0.8,1.7,2.1
		c0,1.5-0.9,2.2-1.9,2.2c-0.5,0-1-0.2-1.3-0.6h0v2.2h-0.7V39.8z M198.7,40.9c0,0.1,0,0.2,0,0.3c0.1,0.5,0.6,0.9,1.1,0.9
		c0.8,0,1.2-0.6,1.2-1.6c0-0.8-0.4-1.5-1.2-1.5c-0.5,0-1,0.4-1.1,0.9c0,0.1-0.1,0.2-0.1,0.3V40.9z"/>
	<path fill="#454547" d="M202.8,36.5h0.7v6h-0.7V36.5z"/>
	<path fill="#454547" d="M205.2,40.6c0,1,0.7,1.4,1.4,1.4c0.5,0,0.9-0.1,1.1-0.2l0.1,0.5c-0.3,0.1-0.7,0.3-1.4,0.3
		c-1.3,0-2-0.8-2-2.1c0-1.2,0.7-2.2,1.9-2.2c1.3,0,1.7,1.2,1.7,1.9c0,0.2,0,0.3,0,0.3H205.2z M207.4,40.1c0-0.5-0.2-1.2-1-1.2
		c-0.8,0-1.1,0.7-1.1,1.2H207.4z"/>
	<path fill="#454547" d="M208.8,42.1c0-0.3,0.2-0.5,0.5-0.5c0.3,0,0.5,0.2,0.5,0.5c0,0.3-0.2,0.5-0.5,0.5
		C209,42.6,208.8,42.4,208.8,42.1z"/>
</g>
</svg>
