<?xml version="1.0" encoding="utf-8"?>
<!-- Generator: Adobe Illustrator 27.4.0, SVG Export Plug-In . SVG Version: 6.00 Build 0)  -->
<svg version="1.1" baseProfile="tiny" id="Layer_1" xmlns="http://www.w3.org/2000/svg" xmlns:xlink="http://www.w3.org/1999/xlink"
	 x="0px" y="0px" viewBox="0 0 300 50" overflow="visible" xml:space="preserve">
<g>
	<path fill="#193062" d="M85.5,14.3h-3.1L82,15.4h-1.8L83,6.7H85l2.8,8.8h-1.9L85.5,14.3z M85,12.5l-1-3l-1,3H85z"/>
	<path fill="#193062" d="M95,12.4c0,1.8-1.2,3.1-3,3.1c-0.6,0-1.1-0.2-1.5-0.5V18h-1.8V9.4h1.7v0.3c0.4-0.3,0.9-0.5,1.5-0.5
		C93.8,9.3,95,10.6,95,12.4z M93.2,12.4c0-0.8-0.6-1.4-1.4-1.4c-0.8,0-1.4,0.6-1.4,1.4c0,0.8,0.6,1.4,1.4,1.4
		C92.6,13.8,93.2,13.2,93.2,12.4z"/>
	<path fill="#193062" d="M102.4,12.4c0,1.8-1.2,3.1-3,3.1c-0.6,0-1.1-0.2-1.5-0.5V18h-1.8V9.4h1.7v0.3c0.4-0.3,0.9-0.5,1.5-0.5
		C101.2,9.3,102.4,10.6,102.4,12.4z M100.7,12.4c0-0.8-0.6-1.4-1.4-1.4c-0.8,0-1.4,0.6-1.4,1.4c0,0.8,0.6,1.4,1.4,1.4
		C100.1,13.8,100.7,13.2,100.7,12.4z"/>
	<path fill="#193062" d="M103.6,6.3h1.8v9.1h-1.8V6.3z"/>
	<path fill="#193062" d="M112.4,9.4l-3.1,8.6h-1.9l1-2.7l-2.1-5.9h1.9l1.2,3.3l1.2-3.3H112.4z"/>
	<path fill="#193062" d="M114.1,6.4c0.6,0,1.1,0.5,1.1,1.1c0,0.6-0.5,1.1-1.1,1.1S113,8.1,113,7.5C113,6.9,113.5,6.4,114.1,6.4z
		 M115,15.4h-1.8v-6h1.8V15.4z"/>
	<path fill="#193062" d="M122.2,11.7v3.8h-1.8V12c0-0.6-0.4-1-1-1s-1,0.5-1,1v3.4h-1.8v-6h1.7v0.3c0.4-0.3,0.9-0.5,1.5-0.5
		C121.2,9.3,122.2,10.3,122.2,11.7z"/>
	<path fill="#193062" d="M129.4,9.4v5.9c0,1.6-1.2,2.9-3,2.9c-1.4,0-2.4-0.8-2.8-1.9l1.6-0.6c0.2,0.5,0.6,0.8,1.2,0.8
		c0.7,0,1.2-0.5,1.2-1.2v-0.4c-0.4,0.3-0.9,0.4-1.4,0.4c-1.6,0-2.8-1.3-2.8-3c0-1.7,1.2-3,2.8-3c0.6,0,1.1,0.2,1.5,0.5V9.4H129.4z
		 M127.7,12.3c0-0.7-0.6-1.3-1.3-1.3c-0.7,0-1.3,0.6-1.3,1.3c0,0.7,0.6,1.2,1.3,1.2C127.1,13.5,127.7,13,127.7,12.3z"/>
	<path fill="#193062" d="M135,11.1h-1.2V9.4h1.2V8.2c0-1.2,0.8-1.9,1.9-1.9h1.4V8h-1c-0.3,0-0.5,0.2-0.5,0.5v0.9h1.5v1.7h-1.5v4.4
		H135V11.1z"/>
	<path fill="#193062" d="M142,9.3c1.8,0,3.2,1.4,3.2,3.2c0,1.7-1.3,3.1-3.2,3.1c-1.8,0-3.2-1.4-3.2-3.1
		C138.8,10.6,140.2,9.3,142,9.3z M142,13.8c0.8,0,1.4-0.6,1.4-1.4c0-0.8-0.6-1.4-1.4-1.4s-1.4,0.6-1.4,1.4
		C140.6,13.2,141.2,13.8,142,13.8z"/>
	<path fill="#193062" d="M150.2,9.4v1.8h-0.9c-0.7,0-1.2,0.5-1.2,1.2v3.1h-1.8v-6h1.7v0.5c0.3-0.4,0.9-0.5,1.4-0.5H150.2z"/>
	<path fill="#193062" d="M154.8,6.7h1.9v6.9h5v1.8h-6.9V6.7z"/>
	<path fill="#193062" d="M163.7,6.4c0.6,0,1.1,0.5,1.1,1.1c0,0.6-0.5,1.1-1.1,1.1s-1.1-0.5-1.1-1.1C162.6,6.9,163,6.4,163.7,6.4z
		 M164.6,15.4h-1.8v-6h1.8V15.4z"/>
	<path fill="#193062" d="M166.7,11.1h-1.2V9.4h1.2V8.2c0-1.2,0.8-1.9,1.9-1.9h1.4V8h-1c-0.3,0-0.5,0.2-0.5,0.5v0.9h1.5v1.7h-1.5v4.4
		h-1.8V11.1z"/>
	<path fill="#193062" d="M176.6,13.1h-4.2c0.2,0.5,0.7,0.9,1.4,0.9c0.6,0,1-0.3,1.3-0.7l1.4,0.9c-0.5,0.9-1.5,1.5-2.7,1.5
		c-1.8,0-3.1-1.4-3.1-3.1c0-1.8,1.3-3.2,3-3.2c1.8,0,3,1.3,3,3.1C176.7,12.6,176.6,12.9,176.6,13.1z M172.3,11.8h2.6
		c-0.2-0.6-0.6-0.9-1.3-0.9C173,10.9,172.5,11.2,172.3,11.8z"/>
	<path fill="#193062" d="M181.4,6.7h1.9v8.8h-1.9V6.7z"/>
	<path fill="#193062" d="M190.6,11.7v3.8h-1.8V12c0-0.6-0.4-1-1-1c-0.6,0-1,0.5-1,1v3.4H185v-6h1.7v0.3c0.4-0.3,0.9-0.5,1.5-0.5
		C189.6,9.3,190.6,10.3,190.6,11.7z"/>
	<path fill="#193062" d="M194.3,14c0.5,0,0.8-0.2,0.8-0.4c0-0.2-0.2-0.3-0.5-0.3c-0.3,0-0.6,0-1.1-0.1c-1.2-0.2-1.7-0.9-1.7-1.8
		c0-1.2,1-2.1,2.4-2.1c1.4,0,2.4,0.8,2.4,2H195c0-0.3-0.3-0.4-0.7-0.4c-0.4,0-0.7,0.2-0.7,0.4c0,0.2,0.1,0.3,0.4,0.3
		c0.4,0,0.6,0,1.1,0.1c1.2,0.1,1.7,0.9,1.7,1.8c0,1.2-1,2.1-2.5,2.1c-1.5,0-2.5-0.9-2.5-2.1h1.7C193.5,13.8,193.8,14,194.3,14z"/>
	<path fill="#193062" d="M203.5,9.4v6h-1.7v-0.3c-0.4,0.3-0.9,0.5-1.5,0.5c-1.4,0-2.4-1-2.4-2.4V9.4h1.8v3.4c0,0.6,0.4,1,1,1
		c0.6,0,1-0.5,1-1V9.4H203.5z"/>
	<path fill="#193062" d="M208.9,9.4v1.8H208c-0.7,0-1.2,0.5-1.2,1.2v3.1h-1.8v-6h1.7v0.5c0.3-0.4,0.9-0.5,1.4-0.5H208.9z"/>
	<path fill="#193062" d="M214.8,11.7v3.8H213v-0.3c-0.4,0.3-0.8,0.5-1.5,0.5c-1.2,0-2.1-0.8-2.1-1.9c0-1.2,0.9-1.8,2.1-1.9l1.5-0.1
		v-0.1c0-0.4-0.4-0.7-0.9-0.7c-0.4,0-0.8,0.2-0.9,0.6h-1.7c0.1-1.3,1.1-2.2,2.6-2.2C213.7,9.3,214.8,10.3,214.8,11.7z M213,13.3
		v-0.4l-1.2,0.1c-0.4,0-0.6,0.3-0.6,0.5c0,0.3,0.3,0.6,0.8,0.6C212.6,14.1,213,13.8,213,13.3z"/>
	<path fill="#193062" d="M221.9,11.7v3.8h-1.8V12c0-0.6-0.4-1-1-1c-0.6,0-1,0.5-1,1v3.4h-1.8v-6h1.7v0.3c0.4-0.3,0.9-0.5,1.5-0.5
		C220.9,9.3,221.9,10.3,221.9,11.7z"/>
	<path fill="#193062" d="M226.2,9.3c1.2,0,2.1,0.6,2.6,1.4l-1.4,1c-0.3-0.4-0.7-0.7-1.2-0.7c-0.8,0-1.4,0.6-1.4,1.4
		c0,0.8,0.6,1.4,1.4,1.4c0.5,0,0.9-0.3,1.2-0.7l1.4,1c-0.5,0.9-1.5,1.4-2.6,1.4c-1.8,0-3.1-1.4-3.1-3.2S224.4,9.3,226.2,9.3z"/>
	<path fill="#193062" d="M235.3,13.1h-4.2c0.2,0.5,0.7,0.9,1.4,0.9c0.6,0,1-0.3,1.3-0.7l1.4,0.9c-0.5,0.9-1.5,1.5-2.7,1.5
		c-1.8,0-3.1-1.4-3.1-3.1c0-1.8,1.3-3.2,3-3.2c1.8,0,3,1.3,3,3.1C235.4,12.6,235.4,12.9,235.3,13.1z M231.1,11.8h2.6
		c-0.2-0.6-0.6-0.9-1.3-0.9C231.7,10.9,231.2,11.2,231.1,11.8z"/>
	<path fill="#193062" d="M245.9,6.3v9.1h-1.7v-0.4c-0.4,0.3-0.9,0.5-1.5,0.5c-1.8,0-3-1.4-3-3.1c0-1.8,1.2-3.2,3-3.2
		c0.6,0,1.1,0.2,1.5,0.5V6.3H245.9z M244.2,12.4c0-0.8-0.6-1.4-1.4-1.4c-0.8,0-1.4,0.6-1.4,1.4c0,0.8,0.6,1.4,1.4,1.4
		C243.6,13.8,244.2,13.2,244.2,12.4z"/>
	<path fill="#193062" d="M250.2,9.3c1.8,0,3.2,1.4,3.2,3.2c0,1.7-1.3,3.1-3.2,3.1s-3.2-1.4-3.2-3.1C247.1,10.6,248.4,9.3,250.2,9.3z
		 M250.2,13.8c0.8,0,1.4-0.6,1.4-1.4c0-0.8-0.6-1.4-1.4-1.4s-1.4,0.6-1.4,1.4C248.9,13.2,249.4,13.8,250.2,13.8z"/>
	<path fill="#193062" d="M260.2,13.1H256c0.2,0.5,0.7,0.9,1.4,0.9c0.6,0,1-0.3,1.3-0.7l1.4,0.9c-0.5,0.9-1.5,1.5-2.7,1.5
		c-1.8,0-3.1-1.4-3.1-3.1c0-1.8,1.3-3.2,3-3.2c1.8,0,3,1.3,3,3.1C260.3,12.6,260.3,12.9,260.2,13.1z M256,11.8h2.6
		c-0.2-0.6-0.6-0.9-1.3-0.9C256.6,10.9,256.1,11.2,256,11.8z"/>
	<path fill="#193062" d="M263.6,14c0.5,0,0.8-0.2,0.8-0.4c0-0.2-0.2-0.3-0.5-0.3c-0.3,0-0.6,0-1.1-0.1c-1.2-0.2-1.7-0.9-1.7-1.8
		c0-1.2,1-2.1,2.4-2.1c1.4,0,2.4,0.8,2.4,2h-1.7c0-0.3-0.3-0.4-0.7-0.4c-0.4,0-0.7,0.2-0.7,0.4c0,0.2,0.1,0.3,0.4,0.3
		c0.4,0,0.6,0,1.1,0.1c1.2,0.1,1.7,0.9,1.7,1.8c0,1.2-1,2.1-2.5,2.1c-1.5,0-2.5-0.9-2.5-2.1h1.7C262.8,13.8,263.1,14,263.6,14z"/>
	<path fill="#193062" d="M272.9,11.7v3.8h-1.8V12c0-0.6-0.4-1-1-1c-0.6,0-1,0.5-1,1v3.4h-1.8v-6h1.7v0.3c0.4-0.3,0.9-0.5,1.5-0.5
		C271.8,9.3,272.9,10.3,272.9,11.7z"/>
	<path fill="#193062" d="M275.8,7.6c0,0.1,0,0.3-0.1,0.4l-0.7,2h-1l0.3-1.4c-0.4-0.1-0.7-0.5-0.7-1c0-0.6,0.4-1.1,1.1-1.1
		S275.8,7,275.8,7.6z"/>
	<path fill="#193062" d="M279.2,9.4h1.9v1.7h-1.9v2c0,0.4,0.3,0.6,0.7,0.6h1.2v1.7h-1.6c-1.2,0-2.1-0.8-2.1-2v-2.3h-0.9v-0.9
		l1.7-2.1h1V9.4z"/>
</g>
<g>
	<path fill="#193062" d="M86.4,26.7v3.8h-1.8V27c0-0.6-0.4-1-1-1c-0.6,0-1,0.5-1,1v3.4h-1.8v-9.1h1.8v3.4c0.4-0.3,0.9-0.5,1.5-0.5
		C85.4,24.3,86.4,25.3,86.4,26.7z"/>
	<path fill="#193062" d="M93,26.7v3.8h-1.7v-0.3c-0.4,0.3-0.8,0.5-1.5,0.5c-1.2,0-2.1-0.8-2.1-1.9c0-1.2,0.9-1.8,2.1-1.9l1.5-0.1
		v-0.1c0-0.4-0.4-0.7-0.9-0.7c-0.4,0-0.8,0.2-0.9,0.6h-1.7c0.1-1.3,1.1-2.2,2.6-2.2C91.9,24.3,93,25.3,93,26.7z M91.3,28.3v-0.4
		L90.1,28c-0.4,0-0.6,0.3-0.6,0.5c0,0.3,0.3,0.6,0.8,0.6C90.9,29.1,91.3,28.8,91.3,28.3z"/>
	<path fill="#193062" d="M99.7,24.4l-2.2,6h-1.8l-2.2-6h1.9l1.2,3.3l1.2-3.3H99.7z"/>
	<path fill="#193062" d="M106,28.1h-4.2c0.2,0.5,0.7,0.9,1.4,0.9c0.6,0,1-0.3,1.3-0.7l1.4,0.9c-0.5,0.9-1.5,1.5-2.7,1.5
		c-1.8,0-3.1-1.4-3.1-3.1c0-1.8,1.3-3.2,3-3.2c1.8,0,3,1.3,3,3.1C106.1,27.6,106.1,27.9,106,28.1z M101.8,26.8h2.6
		c-0.2-0.6-0.6-0.9-1.3-0.9C102.4,25.9,101.9,26.2,101.8,26.8z"/>
	<path fill="#193062" d="M112.7,24.4h1.9v1.7h-1.9v2c0,0.4,0.3,0.6,0.7,0.6h1.2v1.7H113c-1.2,0-2.1-0.8-2.1-2v-2.3h-0.9v-0.9
		l1.7-2.1h1V24.4z"/>
	<path fill="#193062" d="M118.5,24.3c1.8,0,3.2,1.4,3.2,3.2c0,1.7-1.3,3.1-3.2,3.1c-1.8,0-3.2-1.4-3.2-3.1
		C115.4,25.6,116.7,24.3,118.5,24.3z M118.5,28.8c0.8,0,1.4-0.6,1.4-1.4c0-0.8-0.6-1.4-1.4-1.4s-1.4,0.6-1.4,1.4
		C117.1,28.2,117.7,28.8,118.5,28.8z"/>
	<path fill="#193062" d="M132.6,27.4c0,1.8-1.2,3.1-3,3.1c-0.6,0-1.1-0.2-1.5-0.5v0.4h-1.7v-9.1h1.8v3.4c0.4-0.3,0.9-0.5,1.5-0.5
		C131.4,24.3,132.6,25.6,132.6,27.4z M130.8,27.4c0-0.8-0.6-1.4-1.4-1.4c-0.8,0-1.4,0.6-1.4,1.4c0,0.8,0.6,1.4,1.4,1.4
		C130.3,28.8,130.8,28.2,130.8,27.4z"/>
	<path fill="#193062" d="M139.4,28.1h-4.2c0.2,0.5,0.7,0.9,1.4,0.9c0.6,0,1-0.3,1.3-0.7l1.4,0.9c-0.5,0.9-1.5,1.5-2.7,1.5
		c-1.8,0-3.1-1.4-3.1-3.1c0-1.8,1.3-3.2,3-3.2c1.8,0,3,1.3,3,3.1C139.5,27.6,139.5,27.9,139.4,28.1z M135.2,26.8h2.6
		c-0.2-0.6-0.6-0.9-1.3-0.9C135.8,25.9,135.3,26.2,135.2,26.8z"/>
	<path fill="#193062" d="M146.8,24.3c1.2,0,2.1,0.6,2.6,1.4l-1.4,1c-0.3-0.4-0.7-0.7-1.2-0.7c-0.8,0-1.4,0.6-1.4,1.4
		c0,0.8,0.6,1.4,1.4,1.4c0.5,0,0.9-0.3,1.2-0.7l1.4,1c-0.5,0.9-1.5,1.4-2.6,1.4c-1.8,0-3.1-1.4-3.1-3.2
		C143.7,25.6,145,24.3,146.8,24.3z"/>
	<path fill="#193062" d="M153.2,24.3c1.8,0,3.2,1.4,3.2,3.2c0,1.7-1.3,3.1-3.2,3.1s-3.2-1.4-3.2-3.1C150,25.6,151.3,24.3,153.2,24.3
		z M153.2,28.8c0.8,0,1.4-0.6,1.4-1.4c0-0.8-0.6-1.4-1.4-1.4s-1.4,0.6-1.4,1.4C151.8,28.2,152.4,28.8,153.2,28.8z"/>
	<path fill="#193062" d="M166.3,26.5v3.9h-1.8v-3.6c0-0.5-0.3-0.9-0.9-0.9c-0.5,0-0.9,0.4-0.9,0.9v3.6H161v-3.6
		c0-0.5-0.3-0.9-0.9-0.9c-0.5,0-0.9,0.4-0.9,0.9v3.6h-1.8v-6h1.7v0.3c0.4-0.3,0.8-0.4,1.4-0.4c0.6,0,1.2,0.2,1.6,0.6
		c0.4-0.4,1-0.6,1.7-0.6C165.3,24.3,166.3,25.2,166.3,26.5z"/>
	<path fill="#193062" d="M174.1,27.4c0,1.8-1.2,3.1-3,3.1c-0.6,0-1.1-0.2-1.5-0.5V33h-1.8v-8.6h1.7v0.3c0.4-0.3,0.9-0.5,1.5-0.5
		C172.9,24.3,174.1,25.6,174.1,27.4z M172.4,27.4c0-0.8-0.6-1.4-1.4-1.4c-0.8,0-1.4,0.6-1.4,1.4c0,0.8,0.6,1.4,1.4,1.4
		C171.8,28.8,172.4,28.2,172.4,27.4z"/>
	<path fill="#193062" d="M175.3,21.3h1.8v9.1h-1.8V21.3z"/>
	<path fill="#193062" d="M179.6,21.4c0.6,0,1.1,0.5,1.1,1.1c0,0.6-0.5,1.1-1.1,1.1s-1.1-0.5-1.1-1.1
		C178.5,21.9,178.9,21.4,179.6,21.4z M180.5,30.4h-1.8v-6h1.8V30.4z"/>
	<path fill="#193062" d="M184.8,24.3c1.2,0,2.1,0.6,2.6,1.4l-1.4,1c-0.3-0.4-0.7-0.7-1.2-0.7c-0.8,0-1.4,0.6-1.4,1.4
		c0,0.8,0.6,1.4,1.4,1.4c0.5,0,0.9-0.3,1.2-0.7l1.4,1c-0.5,0.9-1.5,1.4-2.6,1.4c-1.8,0-3.1-1.4-3.1-3.2
		C181.6,25.6,183,24.3,184.8,24.3z"/>
	<path fill="#193062" d="M193.3,26.7v3.8h-1.7v-0.3c-0.4,0.3-0.8,0.5-1.5,0.5c-1.2,0-2.1-0.8-2.1-1.9c0-1.2,0.9-1.8,2.1-1.9l1.5-0.1
		v-0.1c0-0.4-0.4-0.7-0.9-0.7c-0.4,0-0.8,0.2-0.9,0.6h-1.7c0.1-1.3,1.1-2.2,2.6-2.2C192.3,24.3,193.3,25.3,193.3,26.7z M191.6,28.3
		v-0.4l-1.2,0.1c-0.4,0-0.6,0.3-0.6,0.5c0,0.3,0.3,0.6,0.8,0.6C191.2,29.1,191.6,28.8,191.6,28.3z"/>
	<path fill="#193062" d="M196.8,24.4h1.9v1.7h-1.9v2c0,0.4,0.3,0.6,0.7,0.6h1.2v1.7h-1.6c-1.2,0-2.1-0.8-2.1-2v-2.3h-0.9v-0.9
		l1.7-2.1h1V24.4z"/>
	<path fill="#193062" d="M205.5,28.1h-4.2c0.2,0.5,0.7,0.9,1.4,0.9c0.6,0,1-0.3,1.3-0.7l1.4,0.9c-0.5,0.9-1.5,1.5-2.7,1.5
		c-1.8,0-3.1-1.4-3.1-3.1c0-1.8,1.3-3.2,3-3.2c1.8,0,3,1.3,3,3.1C205.5,27.6,205.5,27.9,205.5,28.1z M201.2,26.8h2.6
		c-0.2-0.6-0.6-0.9-1.3-0.9C201.9,25.9,201.4,26.2,201.2,26.8z"/>
	<path fill="#193062" d="M212.6,21.3v9.1h-1.7v-0.4c-0.4,0.3-0.9,0.5-1.5,0.5c-1.8,0-3-1.4-3-3.1c0-1.8,1.2-3.2,3-3.2
		c0.6,0,1.1,0.2,1.5,0.5v-3.4H212.6z M210.9,27.4c0-0.8-0.6-1.4-1.4-1.4c-0.8,0-1.4,0.6-1.4,1.4c0,0.8,0.6,1.4,1.4,1.4
		C210.3,28.8,210.9,28.2,210.9,27.4z"/>
	<path fill="#193062" d="M215.1,28.3c0.6,0,1.1,0.5,1.1,1.1c0,0.6-0.5,1.1-1.1,1.1S214,30,214,29.4C214,28.8,214.5,28.3,215.1,28.3z
		"/>
</g>
</svg>
