<?xml version="1.0" encoding="utf-8"?>
<!-- Generator: Adobe Illustrator 27.4.0, SVG Export Plug-In . SVG Version: 6.00 Build 0)  -->
<svg version="1.1" baseProfile="tiny" id="Layer_1" xmlns="http://www.w3.org/2000/svg" xmlns:xlink="http://www.w3.org/1999/xlink"
	 x="0px" y="0px" viewBox="0 0 300 50" overflow="visible" xml:space="preserve">
<rect x="0.2" y="-0.5" fill="#193062" width="71.6" height="50.5"/>
<rect x="8.2" y="16.5" fill="#FAE07E" width="9.1" height="2.5"/>
<rect x="18.1" y="16.5" fill="#FFFFFF" width="2.2" height="2.5"/>
<rect x="8.2" y="19.7" fill="#FAE07E" width="6.8" height="2.5"/>
<rect x="15.8" y="19.7" fill="#FFFFFF" width="4.5" height="2.5"/>
<rect x="8.2" y="22.9" fill="#FAE07E" width="4.5" height="2.5"/>
<rect x="13.5" y="22.9" fill="#FFFFFF" width="6.8" height="2.5"/>
<rect x="8.2" y="26.1" fill="#FAE07E" width="2.2" height="2.5"/>
<rect x="11.2" y="26.1" fill="#FFFFFF" width="9.1" height="2.5"/>
<polygon fill="#FFFFFF" points="27.3,20.2 25.3,20.2 25.3,19.1 30.5,19.1 30.5,20.2 28.5,20.2 28.5,26 27.3,26 "/>
<g>
	<path fill="none" d="M62,21.9c-0.6,0-1.3,0.4-1.4,1.1h2.7C63.2,22.3,62.6,21.9,62,21.9z"/>
	<path fill="none" d="M50.5,22c-0.9,0-1.5,0.7-1.5,1.6c0,0.9,0.6,1.6,1.5,1.6c0.9,0,1.5-0.7,1.5-1.6C51.9,22.7,51.4,22,50.5,22z"/>
	<ellipse fill="none" cx="56.3" cy="23.5" rx="1.5" ry="1.5"/>
	<path fill="#FFFFFF" d="M30.2,21.1V26h1.1v-2.4c0-1,0.6-1.5,1.2-1.5c0.2,0,0.4,0,0.5,0.1v-1.1c-0.1,0-0.3,0-0.4,0
		c-0.6,0-1.1,0.4-1.3,0.9v-0.9H30.2z"/>
	<path fill="#FFFFFF" d="M33.8,21.1v2.9c0,1.3,0.7,2.1,1.8,2.1c0.6,0,1.1-0.3,1.4-0.8V26h1.1v-4.9h-1.1v2.4c0,1.1-0.5,1.6-1.2,1.6
		c-0.6,0-1-0.5-1-1.3v-2.8H33.8z"/>
	<path fill="#FFFFFF" d="M41.4,25.1c-0.7,0-1.3-0.3-1.6-0.9l-0.9,0.7c0.4,0.7,1.4,1.3,2.5,1.3c1.4,0,2.3-0.8,2.3-2
		c0-1-0.6-1.7-1.6-2l-0.7-0.3c-0.7-0.3-1.1-0.5-1.1-1c0-0.5,0.5-0.8,1.1-0.8c0.5,0,1,0.2,1.3,0.6l0.8-0.8c-0.5-0.6-1.2-1-2.1-1
		c-1.3,0-2.3,0.7-2.3,2c0,1,0.5,1.6,1.6,2l0.8,0.3c0.7,0.2,1,0.6,1,1.1C42.5,24.7,42.1,25.1,41.4,25.1z"/>
	<path fill="#FFFFFF" d="M52.9,26v-4.9h-1.1v0.7C51.6,21.4,51,21,50.3,21c-1.3,0-2.4,1.2-2.4,2.6c0,1.4,1,2.6,2.4,2.6
		c0.7,0,1.3-0.4,1.6-0.8V26H52.9z M50.5,25.2c-0.9,0-1.5-0.7-1.5-1.6c0-0.9,0.6-1.6,1.5-1.6c0.9,0,1.5,0.7,1.5,1.6
		C51.9,24.5,51.4,25.2,50.5,25.2z"/>
	<path fill="#FFFFFF" d="M56.2,27.2c-0.7,0-1.2-0.3-1.6-0.7l-0.7,0.8c0.5,0.5,1.3,0.9,2.3,0.9c1.5,0,2.5-0.8,2.5-2.5v-4.6h-1.1v0.7
		c-0.3-0.4-0.9-0.8-1.6-0.8c-1.3,0-2.4,1.1-2.4,2.5c0,1.4,1,2.5,2.4,2.5c0.7,0,1.3-0.3,1.6-0.8v0.5C57.7,26.7,57,27.2,56.2,27.2z
		 M56.3,25c-0.8,0-1.5-0.6-1.5-1.5s0.6-1.5,1.5-1.5s1.5,0.6,1.5,1.5S57.1,25,56.3,25z"/>
	<path fill="#FFFFFF" d="M62.1,21c-1.5,0-2.6,1.1-2.6,2.6c0,1.5,1.1,2.6,2.6,2.6c1,0,1.8-0.4,2.2-1.1l-0.8-0.6
		c-0.3,0.4-0.7,0.7-1.4,0.7c-0.8,0-1.5-0.5-1.5-1.3h3.9c0-0.2,0-0.2,0-0.4C64.4,21.9,63.3,21,62.1,21z M60.6,23
		c0.1-0.7,0.8-1.1,1.4-1.1c0.6,0,1.2,0.4,1.3,1.1H60.6z"/>
	<path fill="#FFFFFF" d="M44.9,19.8l0,0.6c0,0.4-0.3,0.7-0.7,0.7l-0.3,0v1h1v2.4c0,1.1,0.7,1.6,1.7,1.6c0.3,0,0.6,0,0.8-0.1v-1
		c-0.2,0.1-0.4,0.1-0.6,0.1c-0.6,0-0.8-0.2-0.8-0.8v-2.2h1.4v-1H46v-1.4H44.9z"/>
	<polygon fill="#FFFFFF" points="65.1,20.3 64.8,19.8 64.7,19.8 64.7,20.6 64.8,20.6 64.8,20.1 65.1,20.6 65.3,20.1 65.3,20.6 
		65.5,20.6 65.5,19.8 65.3,19.8 	"/>
	<polygon fill="#FFFFFF" points="64.2,20.6 64.2,19.9 64.5,19.9 64.5,19.8 63.8,19.8 63.8,19.9 64.1,19.9 64.1,20.6 	"/>
</g>
</svg>
