<?xml version="1.0" encoding="utf-8"?>
<!-- Generator: Adobe Illustrator 27.4.0, SVG Export Plug-In . SVG Version: 6.00 Build 0)  -->
<svg version="1.1" baseProfile="tiny" id="Layer_1" xmlns="http://www.w3.org/2000/svg" xmlns:xlink="http://www.w3.org/1999/xlink"
	 x="0px" y="0px" viewBox="0 0 300 50" overflow="visible" xml:space="preserve">
<g>
	<path fill="#193062" d="M85.3,7.1h1.7v3.2h3.1V7.1h1.7v8h-1.7V12h-3.1v3.2h-1.7V7.1z"/>
	<path fill="#193062" d="M98.5,13h-3.9c0.2,0.5,0.7,0.8,1.3,0.8c0.5,0,0.9-0.3,1.2-0.6l1.3,0.8c-0.5,0.8-1.4,1.4-2.5,1.4
		c-1.7,0-2.9-1.3-2.9-2.9c0-1.7,1.2-2.9,2.8-2.9c1.7,0,2.8,1.2,2.8,2.9C98.6,12.6,98.6,12.8,98.5,13z M94.6,11.8H97
		c-0.2-0.5-0.6-0.8-1.2-0.8C95.2,11,94.8,11.3,94.6,11.8z"/>
	<path fill="#193062" d="M99.7,6.8h1.6v8.4h-1.6V6.8z"/>
	<path fill="#193062" d="M108.5,12.4c0,1.6-1.1,2.9-2.7,2.9c-0.5,0-1-0.2-1.4-0.4v2.6h-1.6V9.6h1.6v0.3c0.4-0.3,0.9-0.4,1.4-0.4
		C107.4,9.5,108.5,10.8,108.5,12.4z M106.9,12.4c0-0.7-0.5-1.3-1.3-1.3c-0.8,0-1.3,0.6-1.3,1.3c0,0.7,0.5,1.3,1.3,1.3
		C106.4,13.7,106.9,13.1,106.9,12.4z"/>
	<path fill="#193062" d="M110.4,6.9c0.6,0,1,0.4,1,1c0,0.6-0.4,1-1,1c-0.6,0-1-0.5-1-1C109.4,7.3,109.8,6.9,110.4,6.9z M111.2,15.2
		h-1.6V9.6h1.6V15.2z"/>
	<path fill="#193062" d="M117.8,11.7v3.5h-1.6V12c0-0.5-0.4-0.9-0.9-0.9c-0.6,0-0.9,0.4-0.9,0.9v3.1h-1.6V9.6h1.6v0.3
		c0.4-0.3,0.8-0.4,1.4-0.4C116.9,9.5,117.8,10.4,117.8,11.7z"/>
	<path fill="#193062" d="M124.4,9.6V15c0,1.5-1.1,2.6-2.8,2.6c-1.3,0-2.2-0.7-2.6-1.8l1.5-0.6c0.2,0.5,0.5,0.8,1.1,0.8
		c0.7,0,1.1-0.4,1.1-1.1v-0.4c-0.4,0.3-0.8,0.4-1.3,0.4c-1.5,0-2.6-1.2-2.6-2.7s1.1-2.7,2.6-2.7c0.5,0,1,0.2,1.4,0.5V9.6H124.4z
		 M122.8,12.3c0-0.7-0.5-1.2-1.2-1.2c-0.7,0-1.2,0.5-1.2,1.2c0,0.6,0.5,1.1,1.2,1.1C122.3,13.4,122.8,12.9,122.8,12.3z"/>
	<path fill="#193062" d="M134.8,12.4c0,1.6-1.1,2.9-2.7,2.9c-0.5,0-1-0.2-1.4-0.4v2.6H129V9.6h1.6v0.3c0.4-0.3,0.9-0.4,1.4-0.4
		C133.6,9.5,134.8,10.8,134.8,12.4z M133.1,12.4c0-0.7-0.5-1.3-1.3-1.3c-0.8,0-1.3,0.6-1.3,1.3c0,0.7,0.5,1.3,1.3,1.3
		C132.6,13.7,133.1,13.1,133.1,12.4z"/>
	<path fill="#193062" d="M139.4,9.6v1.6h-0.8c-0.6,0-1.1,0.5-1.1,1.1v2.8h-1.6V9.6h1.6v0.5c0.3-0.4,0.8-0.5,1.3-0.5H139.4z"/>
	<path fill="#193062" d="M142.8,9.5c1.7,0,2.9,1.3,2.9,2.9c0,1.6-1.2,2.9-2.9,2.9c-1.7,0-2.9-1.3-2.9-2.9
		C139.9,10.8,141.1,9.5,142.8,9.5z M142.8,13.7c0.7,0,1.3-0.6,1.3-1.3c0-0.7-0.5-1.3-1.3-1.3c-0.7,0-1.3,0.6-1.3,1.3
		C141.5,13.1,142.1,13.7,142.8,13.7z"/>
	<path fill="#193062" d="M148.6,9.6h1.7v1.6h-1.7V13c0,0.4,0.2,0.6,0.6,0.6h1.1v1.6h-1.4c-1.1,0-1.9-0.7-1.9-1.8v-2.1h-0.8v-0.8
		l1.5-1.9h0.9V9.6z"/>
	<path fill="#193062" d="M156.5,13h-3.9c0.2,0.5,0.7,0.8,1.3,0.8c0.5,0,0.9-0.3,1.2-0.6l1.3,0.8c-0.5,0.8-1.4,1.4-2.5,1.4
		c-1.7,0-2.9-1.3-2.9-2.9c0-1.7,1.2-2.9,2.8-2.9c1.7,0,2.8,1.2,2.8,2.9C156.6,12.6,156.6,12.8,156.5,13z M152.6,11.8h2.4
		c-0.2-0.5-0.6-0.8-1.2-0.8C153.2,11,152.8,11.3,152.6,11.8z"/>
	<path fill="#193062" d="M160.1,9.5c1.1,0,1.9,0.5,2.4,1.3l-1.3,0.9c-0.2-0.4-0.6-0.6-1.1-0.6c-0.7,0-1.3,0.6-1.3,1.3
		c0,0.7,0.5,1.3,1.3,1.3c0.5,0,0.8-0.3,1.1-0.6l1.3,0.9c-0.5,0.8-1.4,1.3-2.4,1.3c-1.7,0-2.9-1.3-2.9-2.9
		C157.3,10.8,158.5,9.5,160.1,9.5z"/>
	<path fill="#193062" d="M165.3,9.6h1.7v1.6h-1.7V13c0,0.4,0.2,0.6,0.6,0.6h1.1v1.6h-1.4c-1.1,0-1.9-0.7-1.9-1.8v-2.1h-0.8v-0.8
		l1.5-1.9h0.9V9.6z"/>
	<path fill="#193062" d="M175.9,9.6l-2.8,7.9h-1.7l0.9-2.5l-2-5.4h1.8l1.1,3l1.1-3H175.9z"/>
	<path fill="#193062" d="M179.1,9.5c1.7,0,2.9,1.3,2.9,2.9c0,1.6-1.2,2.9-2.9,2.9c-1.7,0-2.9-1.3-2.9-2.9
		C176.2,10.8,177.4,9.5,179.1,9.5z M179.1,13.7c0.7,0,1.3-0.6,1.3-1.3c0-0.7-0.5-1.3-1.3-1.3c-0.7,0-1.3,0.6-1.3,1.3
		C177.8,13.1,178.3,13.7,179.1,13.7z"/>
	<path fill="#193062" d="M188.1,9.6v5.5h-1.6v-0.3c-0.4,0.3-0.8,0.4-1.3,0.4c-1.2,0-2.2-0.9-2.2-2.2V9.6h1.6v3.1
		c0,0.5,0.4,0.9,0.9,0.9c0.6,0,0.9-0.4,0.9-0.9V9.6H188.1z"/>
	<path fill="#193062" d="M193.1,9.6v1.6h-0.8c-0.6,0-1.1,0.5-1.1,1.1v2.8h-1.6V9.6h1.6v0.5c0.3-0.4,0.8-0.5,1.3-0.5H193.1z"/>
	<path fill="#193062" d="M197.7,11.2h-1.1V9.6h1.1V8.5c0-1.1,0.7-1.7,1.8-1.7h1.2v1.6h-0.9c-0.3,0-0.5,0.2-0.5,0.4v0.8h1.4v1.6h-1.4
		v4h-1.6V11.2z"/>
	<path fill="#193062" d="M206.1,11.7v3.5h-1.6v-0.3c-0.3,0.3-0.7,0.4-1.4,0.4c-1.1,0-1.9-0.7-1.9-1.7c0-1.1,0.9-1.6,1.9-1.7l1.4-0.1
		v-0.1c0-0.4-0.4-0.7-0.8-0.7c-0.4,0-0.7,0.2-0.8,0.5h-1.6c0.1-1.2,1-2,2.4-2C205.2,9.5,206.1,10.4,206.1,11.7z M204.5,13.2v-0.3
		l-1.1,0.1c-0.4,0-0.6,0.2-0.6,0.5c0,0.3,0.3,0.5,0.7,0.5C204.2,14,204.5,13.7,204.5,13.2z"/>
	<path fill="#193062" d="M215.7,11.6v3.6H214v-3.3c0-0.4-0.3-0.8-0.8-0.8c-0.5,0-0.8,0.4-0.8,0.8v3.3h-1.6v-3.3
		c0-0.4-0.3-0.8-0.8-0.8c-0.5,0-0.8,0.4-0.8,0.8v3.3h-1.6V9.6h1.6v0.3c0.3-0.2,0.8-0.4,1.2-0.4c0.6,0,1.1,0.2,1.4,0.6
		c0.4-0.4,0.9-0.6,1.6-0.6C214.7,9.5,215.7,10.4,215.7,11.6z"/>
	<path fill="#193062" d="M217.9,6.9c0.6,0,1,0.4,1,1c0,0.6-0.4,1-1,1s-1-0.5-1-1C216.9,7.3,217.3,6.9,217.9,6.9z M218.7,15.2h-1.6
		V9.6h1.6V15.2z"/>
	<path fill="#193062" d="M220.2,6.8h1.6v8.4h-1.6V6.8z"/>
	<path fill="#193062" d="M228.2,9.6l-2.8,7.9h-1.7l0.9-2.5l-2-5.4h1.8l1.1,3l1.1-3H228.2z"/>
	<path fill="#193062" d="M230.7,8c0,0.1,0,0.3-0.1,0.4l-0.6,1.8h-0.9l0.3-1.3c-0.4-0.1-0.6-0.5-0.6-0.9c0-0.6,0.4-1,1-1
		S230.7,7.4,230.7,8z"/>
	<path fill="#193062" d="M233.5,13.8c0.4,0,0.7-0.2,0.7-0.4c0-0.2-0.1-0.3-0.4-0.3c-0.3,0-0.6,0-1-0.1c-1.1-0.2-1.6-0.8-1.6-1.6
		c0-1.1,0.9-1.9,2.2-1.9c1.3,0,2.2,0.8,2.2,1.9h-1.6c0-0.3-0.3-0.4-0.7-0.4c-0.4,0-0.7,0.2-0.7,0.4c0,0.2,0.1,0.2,0.4,0.3
		c0.4,0,0.6,0,1,0.1c1.1,0.1,1.6,0.8,1.6,1.6c0,1.1-0.9,1.9-2.3,1.9c-1.4,0-2.3-0.8-2.3-1.9h1.6C232.8,13.7,233.1,13.8,233.5,13.8z"
		/>
</g>
<g>
	<path fill="#193062" d="M85.8,24.2h-1.1v-1.6h1.1v-1.1c0-1.1,0.7-1.7,1.8-1.7h1.2v1.6h-0.9c-0.3,0-0.5,0.2-0.5,0.4v0.8h1.4v1.6
		h-1.4v4h-1.6V24.2z"/>
	<path fill="#193062" d="M94.9,22.6v5.5h-1.6v-0.3c-0.4,0.3-0.8,0.4-1.3,0.4c-1.2,0-2.2-0.9-2.2-2.2v-3.5h1.6v3.1
		c0,0.5,0.4,0.9,0.9,0.9s0.9-0.4,0.9-0.9v-3.1H94.9z"/>
	<path fill="#193062" d="M98.1,22.6h1.7v1.6h-1.7V26c0,0.4,0.2,0.6,0.6,0.6h1.1v1.6h-1.4c-1.1,0-1.9-0.7-1.9-1.8v-2.1h-0.8v-0.8
		l1.5-1.9h0.9V22.6z"/>
	<path fill="#193062" d="M106,22.6v5.5h-1.6v-0.3c-0.4,0.3-0.8,0.4-1.3,0.4c-1.2,0-2.2-0.9-2.2-2.2v-3.5h1.6v3.1
		c0,0.5,0.4,0.9,0.9,0.9s0.9-0.4,0.9-0.9v-3.1H106z"/>
	<path fill="#193062" d="M111,22.6v1.6h-0.8c-0.6,0-1.1,0.5-1.1,1.1v2.8h-1.6v-5.5h1.6v0.5c0.3-0.4,0.8-0.5,1.3-0.5H111z"/>
	<path fill="#193062" d="M117,26h-3.9c0.2,0.5,0.7,0.8,1.3,0.8c0.5,0,0.9-0.3,1.2-0.6l1.3,0.8c-0.5,0.8-1.4,1.4-2.5,1.4
		c-1.7,0-2.9-1.3-2.9-2.9c0-1.7,1.2-2.9,2.8-2.9c1.7,0,2.8,1.2,2.8,2.9C117.1,25.6,117.1,25.8,117,26z M113.1,24.8h2.4
		c-0.2-0.5-0.6-0.8-1.2-0.8C113.7,24,113.3,24.3,113.1,24.8z"/>
	<path fill="#193062" d="M123.8,22.5c1.1,0,1.9,0.5,2.4,1.3l-1.3,0.9c-0.2-0.4-0.6-0.6-1.1-0.6c-0.7,0-1.3,0.6-1.3,1.3
		c0,0.7,0.5,1.3,1.3,1.3c0.5,0,0.8-0.3,1.1-0.6l1.3,0.9c-0.5,0.8-1.4,1.3-2.4,1.3c-1.7,0-2.9-1.3-2.9-2.9
		C121,23.8,122.2,22.5,123.8,22.5z"/>
	<path fill="#193062" d="M129.6,22.5c1.7,0,2.9,1.3,2.9,2.9c0,1.6-1.2,2.9-2.9,2.9c-1.7,0-2.9-1.3-2.9-2.9
		C126.7,23.8,128,22.5,129.6,22.5z M129.6,26.7c0.7,0,1.3-0.6,1.3-1.3c0-0.7-0.5-1.3-1.3-1.3c-0.7,0-1.3,0.6-1.3,1.3
		C128.4,26.1,128.9,26.7,129.6,26.7z"/>
	<path fill="#193062" d="M138.7,22.6v5.5h-1.6v-0.3c-0.4,0.3-0.8,0.4-1.3,0.4c-1.2,0-2.2-0.9-2.2-2.2v-3.5h1.6v3.1
		c0,0.5,0.4,0.9,0.9,0.9s0.9-0.4,0.9-0.9v-3.1H138.7z"/>
	<path fill="#193062" d="M140.1,19.8h1.6v8.4h-1.6V19.8z"/>
	<path fill="#193062" d="M148.6,19.8v8.4H147v-0.3c-0.4,0.3-0.9,0.5-1.4,0.5c-1.6,0-2.7-1.3-2.7-2.9c0-1.6,1.1-2.9,2.7-2.9
		c0.5,0,1,0.2,1.4,0.4v-3.1H148.6z M147,25.4c0-0.7-0.5-1.3-1.3-1.3c-0.7,0-1.3,0.6-1.3,1.3c0,0.7,0.5,1.3,1.3,1.3
		C146.5,26.7,147,26.1,147,25.4z"/>
	<path fill="#193062" d="M155.2,26.8c0.4,0,0.7-0.2,0.7-0.4c0-0.2-0.1-0.3-0.4-0.3c-0.3,0-0.6,0-1-0.1c-1.1-0.2-1.6-0.8-1.6-1.6
		c0-1.1,0.9-1.9,2.2-1.9c1.3,0,2.2,0.8,2.2,1.9h-1.6c0-0.3-0.3-0.4-0.7-0.4c-0.4,0-0.7,0.2-0.7,0.4c0,0.2,0.1,0.2,0.4,0.3
		c0.4,0,0.6,0,1,0.1c1.1,0.1,1.6,0.8,1.6,1.6c0,1.1-0.9,1.9-2.3,1.9c-1.4,0-2.3-0.8-2.3-1.9h1.6C154.4,26.7,154.7,26.8,155.2,26.8z"
		/>
	<path fill="#193062" d="M160.4,22.6h1.7v1.6h-1.7V26c0,0.4,0.2,0.6,0.6,0.6h1.1v1.6h-1.4c-1.1,0-1.9-0.7-1.9-1.8v-2.1h-0.8v-0.8
		l1.5-1.9h0.9V22.6z"/>
	<path fill="#193062" d="M167.8,24.7v3.5h-1.6v-0.3c-0.3,0.3-0.7,0.4-1.4,0.4c-1.1,0-1.9-0.7-1.9-1.7c0-1.1,0.9-1.6,1.9-1.7l1.4-0.1
		v-0.1c0-0.4-0.4-0.7-0.8-0.7c-0.4,0-0.7,0.2-0.8,0.5H163c0.1-1.2,1-2,2.4-2C166.8,22.5,167.8,23.4,167.8,24.7z M166.2,26.2v-0.3
		l-1.1,0.1c-0.4,0-0.6,0.2-0.6,0.5c0,0.3,0.3,0.5,0.7,0.5C165.8,27,166.2,26.7,166.2,26.2z"/>
	<path fill="#193062" d="M172.7,22.6v1.6h-0.8c-0.6,0-1.1,0.5-1.1,1.1v2.8h-1.6v-5.5h1.6v0.5c0.3-0.4,0.8-0.5,1.3-0.5H172.7z"/>
	<path fill="#193062" d="M175.6,22.6h1.7v1.6h-1.7V26c0,0.4,0.2,0.6,0.6,0.6h1.1v1.6h-1.4c-1.1,0-1.9-0.7-1.9-1.8v-2.1h-0.8v-0.8
		l1.5-1.9h0.9V22.6z"/>
	<path fill="#193062" d="M189.3,22.6l-1.8,5.5h-1.7l-0.7-2.3l-0.7,2.3h-1.7l-1.8-5.5h1.8l1,3.1l1-3.1h1.1l0.9,3l1-3H189.3z"/>
	<path fill="#193062" d="M191,19.9c0.6,0,1,0.4,1,1c0,0.6-0.4,1-1,1s-1-0.5-1-1C190,20.3,190.4,19.9,191,19.9z M191.8,28.2h-1.6
		v-5.5h1.6V28.2z"/>
	<path fill="#193062" d="M195.1,22.6h1.7v1.6h-1.7V26c0,0.4,0.2,0.6,0.6,0.6h1.1v1.6h-1.4c-1.1,0-1.9-0.7-1.9-1.8v-2.1h-0.8v-0.8
		l1.5-1.9h0.9V22.6z"/>
	<path fill="#193062" d="M203,24.7v3.5h-1.6V25c0-0.5-0.4-1-0.9-1c-0.6,0-1,0.4-1,1v3.1h-1.6v-8.4h1.6v3.1c0.4-0.3,0.8-0.4,1.3-0.4
		C202.1,22.5,203,23.4,203,24.7z"/>
</g>
<g>
	<path fill="#193062" d="M87.1,34.8h-2.3v-1.7h6.3v1.7h-2.3v6.4h-1.7V34.8z"/>
	<path fill="#193062" d="M94.6,35.6v1.6h-0.8c-0.6,0-1.1,0.5-1.1,1.1v2.8h-1.6v-5.5h1.6v0.5c0.3-0.4,0.8-0.5,1.3-0.5H94.6z"/>
	<path fill="#193062" d="M100.6,35.6v5.5H99v-0.3c-0.4,0.3-0.8,0.4-1.3,0.4c-1.2,0-2.2-0.9-2.2-2.2v-3.5h1.6v3.1
		c0,0.5,0.4,0.9,0.9,0.9s0.9-0.4,0.9-0.9v-3.1H100.6z"/>
	<path fill="#193062" d="M104.7,34.7c-0.7,0-1.2,0.4-1.2,0.8c0,0.3,0.2,0.5,0.5,0.6c0.5,0.2,1.3,0.1,2,0.3c1,0.3,1.7,1.1,1.7,2.2
		c0,1.5-1.2,2.7-3,2.7c-1.7,0-3-1.1-3-2.6h1.7c0,0.6,0.6,1,1.3,1c0.8,0,1.3-0.4,1.3-0.9c0-0.4-0.2-0.6-0.5-0.7
		c-0.5-0.2-1.3-0.1-2.1-0.3c-1.1-0.3-1.6-1.1-1.6-2.2c0-1.5,1.2-2.6,2.9-2.6c1.7,0,2.9,1,2.9,2.5H106
		C105.9,35,105.4,34.7,104.7,34.7z"/>
	<path fill="#193062" d="M110.8,35.6h1.7v1.6h-1.7V39c0,0.4,0.2,0.6,0.6,0.6h1.1v1.6h-1.4c-1.1,0-1.9-0.7-1.9-1.8v-2.1h-0.8v-0.8
		l1.5-1.9h0.9V35.6z"/>
	<path fill="#193062" d="M118.2,37.7v3.5h-1.6v-0.3c-0.3,0.3-0.7,0.4-1.4,0.4c-1.1,0-1.9-0.7-1.9-1.7c0-1.1,0.9-1.6,1.9-1.7l1.4-0.1
		v-0.1c0-0.4-0.4-0.7-0.8-0.7c-0.4,0-0.7,0.2-0.8,0.5h-1.6c0.1-1.2,1-2,2.4-2C117.2,35.5,118.2,36.4,118.2,37.7z M116.6,39.2v-0.3
		l-1.1,0.1c-0.4,0-0.6,0.2-0.6,0.5c0,0.3,0.3,0.5,0.7,0.5C116.2,40,116.6,39.7,116.6,39.2z"/>
	<path fill="#193062" d="M124.8,35.6V41c0,1.5-1.1,2.6-2.8,2.6c-1.3,0-2.2-0.7-2.6-1.8l1.5-0.6c0.2,0.5,0.5,0.8,1.1,0.8
		c0.7,0,1.1-0.4,1.1-1.1v-0.4c-0.4,0.3-0.8,0.4-1.3,0.4c-1.5,0-2.6-1.2-2.6-2.7s1.1-2.7,2.6-2.7c0.5,0,1,0.2,1.4,0.5v-0.3H124.8z
		 M123.2,38.3c0-0.7-0.5-1.2-1.2-1.2c-0.7,0-1.2,0.5-1.2,1.2c0,0.6,0.5,1.1,1.2,1.1C122.7,39.4,123.2,38.9,123.2,38.3z"/>
	<path fill="#193062" d="M131.4,39h-3.9c0.2,0.5,0.7,0.8,1.3,0.8c0.5,0,0.9-0.3,1.2-0.6l1.3,0.8c-0.5,0.8-1.4,1.4-2.5,1.4
		c-1.7,0-2.9-1.3-2.9-2.9c0-1.7,1.2-2.9,2.8-2.9c1.7,0,2.8,1.2,2.8,2.9C131.4,38.6,131.4,38.8,131.4,39z M127.5,37.8h2.4
		c-0.2-0.5-0.6-0.8-1.2-0.8C128,37,127.6,37.3,127.5,37.8z"/>
	<path fill="#193062" d="M133,34h-0.9v-0.9h2.7V34H134v2.3H133V34z M135.3,33.1h0.9l0.7,1.5l0.7-1.5h0.9v3.2h-0.9v-1.4l-0.7,1.5
		l-0.7-1.5v1.4h-0.9V33.1z"/>
	<path fill="#193062" d="M142.7,33.1h1.7v6.4h4.6v1.7h-6.3V33.1z"/>
	<path fill="#193062" d="M150.9,32.9c0.6,0,1,0.4,1,1c0,0.6-0.4,1-1,1c-0.6,0-1-0.5-1-1C149.9,33.3,150.3,32.9,150.9,32.9z
		 M151.7,41.2h-1.6v-5.5h1.6V41.2z"/>
	<path fill="#193062" d="M153.7,37.2h-1.1v-1.6h1.1v-1.1c0-1.1,0.7-1.7,1.8-1.7h1.2v1.6h-0.9c-0.3,0-0.5,0.2-0.5,0.4v0.8h1.4v1.6
		h-1.4v4h-1.6V37.2z"/>
	<path fill="#193062" d="M162.7,39h-3.9c0.2,0.5,0.7,0.8,1.3,0.8c0.5,0,0.9-0.3,1.2-0.6l1.3,0.8c-0.5,0.8-1.4,1.4-2.5,1.4
		c-1.7,0-2.9-1.3-2.9-2.9c0-1.7,1.2-2.9,2.8-2.9c1.7,0,2.8,1.2,2.8,2.9C162.8,38.6,162.8,38.8,162.7,39z M158.8,37.8h2.4
		c-0.2-0.5-0.6-0.8-1.2-0.8C159.4,37,159,37.3,158.8,37.8z"/>
	<path fill="#193062" d="M167.2,33.1h1.7v8h-1.7V33.1z"/>
	<path fill="#193062" d="M175.6,37.7v3.5h-1.6V38c0-0.5-0.4-0.9-0.9-0.9s-0.9,0.4-0.9,0.9v3.1h-1.6v-5.5h1.6v0.3
		c0.4-0.3,0.8-0.4,1.4-0.4C174.6,35.5,175.6,36.4,175.6,37.7z"/>
	<path fill="#193062" d="M179,39.8c0.4,0,0.7-0.2,0.7-0.4c0-0.2-0.1-0.3-0.4-0.3c-0.3,0-0.6,0-1-0.1c-1.1-0.2-1.6-0.8-1.6-1.6
		c0-1.1,0.9-1.9,2.2-1.9c1.3,0,2.2,0.8,2.2,1.9h-1.6c0-0.3-0.3-0.4-0.7-0.4c-0.4,0-0.7,0.2-0.7,0.4c0,0.2,0.1,0.2,0.4,0.3
		c0.4,0,0.6,0,1,0.1c1.1,0.1,1.6,0.8,1.6,1.6c0,1.1-0.9,1.9-2.3,1.9c-1.4,0-2.3-0.8-2.3-1.9h1.6C178.2,39.7,178.5,39.8,179,39.8z"/>
	<path fill="#193062" d="M187.4,35.6v5.5h-1.6v-0.3c-0.4,0.3-0.8,0.4-1.3,0.4c-1.2,0-2.2-0.9-2.2-2.2v-3.5h1.6v3.1
		c0,0.5,0.4,0.9,0.9,0.9c0.6,0,0.9-0.4,0.9-0.9v-3.1H187.4z"/>
	<path fill="#193062" d="M192.4,35.6v1.6h-0.8c-0.6,0-1.1,0.5-1.1,1.1v2.8h-1.6v-5.5h1.6v0.5c0.3-0.4,0.8-0.5,1.3-0.5H192.4z"/>
	<path fill="#193062" d="M197.7,37.7v3.5h-1.6v-0.3c-0.3,0.3-0.7,0.4-1.4,0.4c-1.1,0-1.9-0.7-1.9-1.7c0-1.1,0.9-1.6,1.9-1.7l1.4-0.1
		v-0.1c0-0.4-0.4-0.7-0.8-0.7c-0.4,0-0.7,0.2-0.8,0.5H193c0.1-1.2,1-2,2.4-2C196.7,35.5,197.7,36.4,197.7,37.7z M196.1,39.2v-0.3
		L195,39c-0.4,0-0.6,0.2-0.6,0.5c0,0.3,0.3,0.5,0.7,0.5C195.8,40,196.1,39.7,196.1,39.2z"/>
	<path fill="#193062" d="M204.3,37.7v3.5h-1.6V38c0-0.5-0.4-0.9-0.9-0.9c-0.6,0-0.9,0.4-0.9,0.9v3.1h-1.6v-5.5h1.6v0.3
		c0.4-0.3,0.8-0.4,1.4-0.4C203.3,35.5,204.3,36.4,204.3,37.7z"/>
	<path fill="#193062" d="M208.2,35.5c1.1,0,1.9,0.5,2.4,1.3l-1.3,0.9c-0.2-0.4-0.6-0.6-1.1-0.6c-0.7,0-1.3,0.6-1.3,1.3
		s0.5,1.3,1.3,1.3c0.5,0,0.8-0.3,1.1-0.6l1.3,0.9c-0.5,0.8-1.4,1.3-2.4,1.3c-1.7,0-2.9-1.3-2.9-2.9S206.5,35.5,208.2,35.5z"/>
	<path fill="#193062" d="M216.6,39h-3.9c0.2,0.5,0.7,0.8,1.3,0.8c0.5,0,0.9-0.3,1.2-0.6l1.3,0.8c-0.5,0.8-1.4,1.4-2.5,1.4
		c-1.7,0-2.9-1.3-2.9-2.9c0-1.7,1.2-2.9,2.8-2.9c1.7,0,2.8,1.2,2.8,2.9C216.7,38.6,216.6,38.8,216.6,39z M212.7,37.8h2.4
		c-0.2-0.5-0.6-0.8-1.2-0.8C213.3,37,212.8,37.3,212.7,37.8z"/>
	<path fill="#193062" d="M218.5,39.2c0.6,0,1,0.4,1,1c0,0.6-0.4,1-1,1s-1-0.5-1-1C217.5,39.7,218,39.2,218.5,39.2z"/>
</g>
</svg>
