<?xml version="1.0" encoding="utf-8"?>
<!-- Generator: Adobe Illustrator 27.4.0, SVG Export Plug-In . SVG Version: 6.00 Build 0)  -->
<svg version="1.1" baseProfile="tiny" id="Layer_1" xmlns="http://www.w3.org/2000/svg" xmlns:xlink="http://www.w3.org/1999/xlink"
	 x="0px" y="0px" viewBox="0 0 300 50" overflow="visible" xml:space="preserve">
<rect x="238.7" y="29.9" fill="#FAE07E" width="52.6" height="14.9"/>
<g>
	<path fill="#193062" d="M248.5,37.2v0.1c0,0.4-0.1,0.8-0.3,1.1s-0.4,0.6-0.7,0.8c-0.3,0.2-0.7,0.3-1.1,0.3c-0.4,0-0.8-0.1-1.1-0.3
		s-0.6-0.5-0.8-0.8s-0.3-0.7-0.3-1.1c0-0.4,0.1-0.8,0.3-1.1s0.5-0.6,0.8-0.8s0.7-0.3,1.1-0.3c0.3,0,0.5,0,0.8,0.1
		c0.2,0.1,0.5,0.2,0.7,0.4c0.2,0.2,0.3,0.4,0.5,0.6l-0.7,0.4c-0.1-0.2-0.3-0.4-0.5-0.5c-0.2-0.1-0.4-0.2-0.7-0.2
		c-0.3,0-0.5,0.1-0.7,0.2c-0.2,0.1-0.4,0.3-0.5,0.5c-0.1,0.2-0.2,0.4-0.2,0.7c0,0.3,0.1,0.5,0.2,0.7c0.1,0.2,0.3,0.4,0.5,0.5
		c0.2,0.1,0.4,0.2,0.7,0.2c0.3,0,0.5-0.1,0.7-0.2c0.2-0.1,0.4-0.3,0.5-0.5h-1.5v-0.8H248.5z"/>
	<path fill="#193062" d="M249.4,35.1h3.3V36h-2.5v0.9h1.4v0.8h-1.4v0.9h2.5v0.8h-3.3V35.1z"/>
	<path fill="#193062" d="M254.5,36h-1.2v-0.8h3.3V36h-1.2v3.5h-0.8V36z"/>
	<path fill="#193062" d="M261.1,38.8h-1.6l-0.2,0.6h-0.8l1.4-4.3h0.9l1.4,4.3h-0.9L261.1,38.8z M260.8,38l-0.5-1.6l-0.5,1.6H260.8z"
		/>
	<path fill="#193062" d="M268.6,38.6v0.8h-0.4l-0.5-0.4c-0.2,0.2-0.4,0.3-0.6,0.4s-0.5,0.1-0.8,0.1c-0.4,0-0.8-0.1-1.1-0.3
		s-0.6-0.5-0.8-0.8s-0.3-0.7-0.3-1.1c0-0.4,0.1-0.8,0.3-1.1s0.5-0.6,0.8-0.8s0.7-0.3,1.1-0.3c0.4,0,0.8,0.1,1.1,0.3s0.6,0.5,0.8,0.8
		s0.3,0.7,0.3,1.1c0,0.4-0.1,0.7-0.3,1.1L268.6,38.6z M267,38.5l-0.4-0.3l0.5-0.7l0.4,0.3c0.1-0.2,0.1-0.3,0.1-0.5
		c0-0.3-0.1-0.5-0.2-0.7c-0.1-0.2-0.3-0.4-0.5-0.5c-0.2-0.1-0.4-0.2-0.7-0.2c-0.3,0-0.5,0.1-0.7,0.2c-0.2,0.1-0.4,0.3-0.5,0.5
		c-0.1,0.2-0.2,0.4-0.2,0.7c0,0.3,0.1,0.5,0.2,0.7c0.1,0.2,0.3,0.4,0.5,0.5c0.2,0.1,0.4,0.2,0.7,0.2C266.5,38.7,266.8,38.6,267,38.5
		z"/>
	<path fill="#193062" d="M272.8,37.8c0,0.3-0.1,0.6-0.2,0.9c-0.1,0.3-0.4,0.5-0.6,0.6c-0.3,0.1-0.6,0.2-0.9,0.2
		c-0.3,0-0.6-0.1-0.9-0.2c-0.3-0.1-0.5-0.3-0.6-0.6s-0.2-0.5-0.2-0.9v-2.7h0.8v2.6c0,0.2,0,0.3,0.1,0.5c0.1,0.1,0.2,0.2,0.3,0.3
		c0.1,0.1,0.3,0.1,0.5,0.1c0.2,0,0.3,0,0.5-0.1c0.1-0.1,0.2-0.2,0.3-0.3c0.1-0.1,0.1-0.3,0.1-0.5v-2.6h0.8V37.8z"/>
	<path fill="#193062" d="M275.8,35.1c0.4,0,0.8,0.1,1.1,0.3s0.6,0.5,0.8,0.8s0.3,0.7,0.3,1.1c0,0.4-0.1,0.8-0.3,1.1
		s-0.5,0.6-0.8,0.8s-0.7,0.3-1.1,0.3c-0.4,0-0.8-0.1-1.1-0.3s-0.6-0.5-0.8-0.8s-0.3-0.7-0.3-1.1c0-0.4,0.1-0.8,0.3-1.1
		s0.5-0.6,0.8-0.8S275.4,35.1,275.8,35.1z M275.8,38.7c0.3,0,0.5-0.1,0.7-0.2c0.2-0.1,0.4-0.3,0.5-0.5c0.1-0.2,0.2-0.4,0.2-0.7
		c0-0.3-0.1-0.5-0.2-0.7c-0.1-0.2-0.3-0.4-0.5-0.5c-0.2-0.1-0.4-0.2-0.7-0.2c-0.3,0-0.5,0.1-0.7,0.2c-0.2,0.1-0.4,0.3-0.5,0.5
		c-0.1,0.2-0.2,0.4-0.2,0.7c0,0.3,0.1,0.5,0.2,0.7c0.1,0.2,0.3,0.4,0.5,0.5C275.3,38.6,275.5,38.7,275.8,38.7z"/>
	<path fill="#193062" d="M279.7,36h-1.2v-0.8h3.3V36h-1.2v3.5h-0.8V36z"/>
	<path fill="#193062" d="M282.4,35.1h3.3V36h-2.5v0.9h1.4v0.8h-1.4v0.9h2.5v0.8h-3.3V35.1z"/>
</g>
</svg>
