<?xml version="1.0" encoding="utf-8"?>
<!-- Generator: Adobe Illustrator 27.4.0, SVG Export Plug-In . SVG Version: 6.00 Build 0)  -->
<svg version="1.1" baseProfile="tiny" id="Layer_1" xmlns="http://www.w3.org/2000/svg" xmlns:xlink="http://www.w3.org/1999/xlink"
	 x="0px" y="0px" viewBox="0 0 300 250" overflow="visible" xml:space="preserve">
<g>
	<path fill="#231F20" d="M16.5,239.4c0,0.6-0.2,1.1-0.4,1.6c-0.3,0.5-0.6,0.9-1.1,1.1c-0.5,0.3-1,0.4-1.6,0.4
		c-0.6,0-1.2-0.1-1.7-0.4c-0.5-0.3-0.9-0.7-1.2-1.2c-0.3-0.5-0.4-1.1-0.4-1.7c0-0.6,0.1-1.2,0.4-1.7c0.3-0.5,0.7-0.9,1.2-1.2
		c0.5-0.3,1.1-0.4,1.7-0.4c0.6,0,1.2,0.1,1.7,0.4c0.5,0.3,0.9,0.7,1.2,1.2l-0.6,0.4c-0.2-0.4-0.5-0.7-0.9-0.9
		c-0.4-0.2-0.8-0.3-1.3-0.3c-0.5,0-1,0.1-1.4,0.3c-0.4,0.2-0.7,0.6-0.9,1c-0.2,0.4-0.3,0.9-0.3,1.4c0,0.5,0.1,1,0.3,1.4
		s0.5,0.7,0.9,1s0.9,0.3,1.4,0.3c0.4,0,0.8-0.1,1.1-0.2c0.3-0.2,0.6-0.4,0.8-0.6c0.2-0.3,0.4-0.6,0.5-1H13v-0.6H16.5z"/>
	<path fill="#231F20" d="M17.7,235.9h4.9v0.7h-4.2v2.3h2.4v0.7h-2.4v2.3h4.2v0.7h-4.9V235.9z"/>
	<path fill="#231F20" d="M28.8,235.9v6.6h-0.7l-3.6-5.4v5.4h-0.7v-6.6h0.7l3.6,5.4v-5.4H28.8z"/>
	<path fill="#231F20" d="M32.1,239.5v0.6h-2.1v-0.6H32.1z"/>
	<path fill="#231F20" d="M37.9,239.7v0.7h-1.3v2.1H36v-2.1h-3v-0.6l2.9-4h0.7v3.8H37.9z M36,239.7v-2.9l-2.1,2.9H36z"/>
	<path fill="#231F20" d="M38.5,235.9h4.2v0.6l-2.6,5.9h-0.7l2.6-5.9h-3.4V235.9z"/>
	<path fill="#231F20" d="M47.8,240.6c0,0.4-0.1,0.7-0.3,1c-0.2,0.3-0.4,0.5-0.7,0.7c-0.3,0.2-0.7,0.2-1.1,0.2s-0.7-0.1-1-0.2
		c-0.3-0.2-0.5-0.4-0.7-0.7c-0.2-0.3-0.3-0.6-0.3-1c0-0.3,0.1-0.7,0.2-0.9c0.2-0.3,0.4-0.5,0.6-0.7c-0.2-0.2-0.4-0.4-0.6-0.6
		c-0.1-0.3-0.2-0.5-0.2-0.8c0-0.3,0.1-0.7,0.2-0.9s0.4-0.5,0.7-0.7s0.6-0.2,1-0.2s0.7,0.1,1,0.2c0.3,0.2,0.5,0.4,0.7,0.7
		s0.2,0.6,0.2,0.9c0,0.3-0.1,0.6-0.2,0.8c-0.1,0.3-0.3,0.5-0.6,0.6c0.3,0.2,0.5,0.4,0.6,0.7C47.7,240,47.8,240.3,47.8,240.6z
		 M47.1,240.6c0-0.2-0.1-0.5-0.2-0.7s-0.3-0.3-0.5-0.5c-0.2-0.1-0.4-0.2-0.7-0.2s-0.5,0.1-0.7,0.2c-0.2,0.1-0.4,0.3-0.5,0.5
		c-0.1,0.2-0.2,0.4-0.2,0.7s0.1,0.5,0.2,0.7s0.3,0.3,0.5,0.5c0.2,0.1,0.4,0.2,0.7,0.2c0.3,0,0.5-0.1,0.7-0.2
		c0.2-0.1,0.4-0.3,0.5-0.5S47.1,240.8,47.1,240.6z M44.5,237.6c0,0.2,0.1,0.4,0.2,0.6c0.1,0.2,0.2,0.3,0.4,0.4
		c0.2,0.1,0.4,0.1,0.6,0.1s0.5,0,0.6-0.1s0.3-0.2,0.4-0.4c0.1-0.2,0.2-0.4,0.2-0.6s-0.1-0.4-0.2-0.6c-0.1-0.2-0.2-0.3-0.4-0.4
		s-0.4-0.1-0.6-0.1s-0.5,0-0.6,0.1c-0.2,0.1-0.3,0.2-0.4,0.4C44.6,237.2,44.5,237.4,44.5,237.6z"/>
	<path fill="#231F20" d="M53,240.6c0,0.4-0.1,0.7-0.3,1c-0.2,0.3-0.4,0.5-0.7,0.7c-0.3,0.2-0.6,0.2-1,0.2c-0.4,0-0.7-0.1-1-0.2
		c-0.3-0.2-0.5-0.4-0.7-0.7c-0.2-0.3-0.3-0.6-0.3-1h0.7c0,0.2,0.1,0.4,0.2,0.6c0.1,0.2,0.3,0.3,0.5,0.4c0.2,0.1,0.4,0.2,0.7,0.2
		c0.3,0,0.5-0.1,0.7-0.2s0.4-0.3,0.5-0.4s0.2-0.4,0.2-0.6c0-0.2-0.1-0.5-0.2-0.6c-0.1-0.2-0.3-0.3-0.5-0.4c-0.2-0.1-0.4-0.2-0.7-0.2
		h-0.7v-0.7H51c0.2,0,0.4,0,0.6-0.1c0.2-0.1,0.3-0.2,0.4-0.4s0.2-0.4,0.2-0.6c0-0.2-0.1-0.4-0.2-0.6c-0.1-0.2-0.2-0.3-0.4-0.4
		c-0.2-0.1-0.4-0.1-0.6-0.1c-0.2,0-0.4,0-0.6,0.1s-0.3,0.2-0.4,0.4c-0.1,0.2-0.2,0.4-0.2,0.6h-0.7c0-0.3,0.1-0.6,0.2-0.9
		c0.2-0.3,0.4-0.5,0.7-0.6c0.3-0.2,0.6-0.2,1-0.2c0.4,0,0.7,0.1,1,0.2c0.3,0.2,0.5,0.4,0.7,0.6c0.2,0.3,0.2,0.6,0.2,0.9
		c0,0.3-0.1,0.6-0.2,0.9c-0.1,0.3-0.3,0.5-0.6,0.6c0.3,0.2,0.5,0.4,0.7,0.7C52.9,240,53,240.3,53,240.6z"/>
	<path fill="#231F20" d="M55.9,236.6l-1.8,1.1v-0.7l1.8-1.1h0.7v6.6h-0.7V236.6z"/>
	<path fill="#231F20" d="M58.2,235.9h4.2v0.6l-2.6,5.9H59l2.6-5.9h-3.4V235.9z"/>
	<path fill="#231F20" d="M67.7,239.7v0.7h-1.3v2.1h-0.7v-2.1h-3v-0.6l2.9-4h0.7v3.8H67.7z M65.7,239.7v-2.9l-2.1,2.9H65.7z"/>
	<path fill="#231F20" d="M69,241.5c0.2,0,0.3,0,0.4,0.1s0.1,0.2,0.1,0.4s0,0.3-0.1,0.4c-0.1,0.1-0.2,0.1-0.4,0.1s-0.3,0-0.4-0.1
		c-0.1-0.1-0.1-0.2-0.1-0.4s0-0.3,0.1-0.4C68.8,241.5,68.9,241.5,69,241.5z"/>
	<path fill="#231F20" d="M74.8,241.8v0.7h-4v-0.6l2.6-2.8c0.2-0.2,0.4-0.4,0.5-0.6c0.1-0.2,0.2-0.4,0.2-0.7c0-0.2-0.1-0.5-0.2-0.7
		c-0.1-0.2-0.3-0.3-0.5-0.5c-0.2-0.1-0.4-0.2-0.7-0.2c-0.2,0-0.5,0.1-0.7,0.2c-0.2,0.1-0.3,0.3-0.5,0.4c-0.1,0.2-0.2,0.4-0.2,0.7
		h-0.7c0-0.4,0.1-0.7,0.3-1c0.2-0.3,0.4-0.5,0.7-0.7c0.3-0.2,0.6-0.3,1-0.3c0.4,0,0.7,0.1,1,0.2c0.3,0.2,0.5,0.4,0.7,0.7
		c0.2,0.3,0.2,0.6,0.2,1c0,0.3-0.1,0.6-0.2,0.9s-0.4,0.6-0.6,0.9l-2.2,2.3H74.8z"/>
</g>
</svg>
