<?xml version="1.0" encoding="utf-8"?>
<!-- Generator: Adobe Illustrator 27.4.0, SVG Export Plug-In . SVG Version: 6.00 Build 0)  -->
<svg version="1.1" baseProfile="tiny" id="Layer_1" xmlns="http://www.w3.org/2000/svg" xmlns:xlink="http://www.w3.org/1999/xlink"
	 x="0px" y="0px" viewBox="0 0 300 250" overflow="visible" xml:space="preserve">
<g>
	<path fill="#193062" d="M14.5,75.9c-1.1,0-1.7,0.5-1.7,1.2c0,0.4,0.3,0.8,0.7,0.9c0.8,0.3,1.8,0.1,3,0.5c1.5,0.4,2.4,1.6,2.4,3.2
		c0,2.2-1.7,3.9-4.3,3.9c-2.5,0-4.4-1.5-4.4-3.8h2.5c0,0.8,0.8,1.4,2,1.4c1.2,0,1.8-0.6,1.8-1.3c0-0.5-0.4-0.8-0.8-1
		c-0.7-0.3-2-0.2-3-0.5c-1.6-0.4-2.4-1.6-2.4-3.1c0-2.2,1.7-3.7,4.2-3.7c2.4,0,4.2,1.5,4.2,3.6h-2.5C16.3,76.4,15.6,75.9,14.5,75.9z
		"/>
	<path fill="#193062" d="M23.3,77.3h2.5v2.3h-2.5v2.7c0,0.5,0.4,0.9,0.9,0.9h1.6v2.3h-2.1c-1.6,0-2.8-1.1-2.8-2.7v-3.1h-1.2v-1.2
		l2.2-2.7h1.3V77.3z"/>
	<path fill="#193062" d="M28.6,73.3c0.8,0,1.5,0.6,1.5,1.5c0,0.8-0.6,1.5-1.5,1.5c-0.8,0-1.5-0.7-1.5-1.5
		C27.1,74,27.7,73.3,28.6,73.3z M29.8,85.4h-2.4v-8.1h2.4V85.4z"/>
	<path fill="#193062" d="M31.9,73.2h2.4v12.2h-2.4V73.2z"/>
	<path fill="#193062" d="M36.4,73.2h2.4v12.2h-2.4V73.2z"/>
	<path fill="#193062" d="M48.3,83.4c0.6,0,1-0.3,1-0.6c0-0.2-0.2-0.4-0.6-0.4c-0.4,0-0.8-0.1-1.5-0.2C45.8,82,45,81,45,79.9
		c0-1.6,1.3-2.7,3.3-2.7c1.9,0,3.2,1.1,3.3,2.7h-2.3c0-0.4-0.4-0.6-1-0.6c-0.6,0-1,0.2-1,0.5c0,0.2,0.2,0.4,0.6,0.4
		c0.5,0.1,0.8,0.1,1.5,0.1c1.6,0.2,2.3,1.2,2.3,2.4c0,1.6-1.3,2.8-3.3,2.8c-2,0-3.4-1.2-3.4-2.8h2.3C47.2,83.2,47.7,83.4,48.3,83.4z
		"/>
	<path fill="#193062" d="M60.7,82.2h-5.6c0.3,0.7,1,1.2,1.8,1.2c0.8,0,1.3-0.4,1.7-0.9l1.9,1.1c-0.7,1.2-2,2-3.6,2
		c-2.4,0-4.2-1.8-4.2-4.2c0-2.4,1.7-4.2,4.1-4.2c2.4,0,4,1.8,4,4.2C60.8,81.6,60.7,81.9,60.7,82.2z M55,80.5h3.4
		c-0.2-0.8-0.9-1.2-1.7-1.2C55.9,79.3,55.2,79.7,55,80.5z"/>
	<path fill="#193062" d="M69,80.3v5.1h-2.3v-0.4c-0.5,0.4-1.1,0.6-2,0.6c-1.7,0-2.8-1-2.8-2.5c0-1.7,1.2-2.4,2.8-2.5l2-0.2v-0.1
		c0-0.5-0.5-1-1.2-1c-0.6,0-1.1,0.3-1.2,0.8h-2.3c0.1-1.7,1.5-2.9,3.4-2.9C67.6,77.1,69,78.5,69,80.3z M66.7,82.5V82l-1.6,0.1
		c-0.6,0-0.8,0.3-0.8,0.7c0,0.4,0.4,0.8,1,0.8C66.2,83.6,66.7,83.2,66.7,82.5z"/>
	<path fill="#193062" d="M76.2,77.3v2.3H75c-0.9,0-1.6,0.7-1.6,1.6v4.1h-2.4v-8.1h2.3V78c0.4-0.6,1.2-0.7,1.9-0.7H76.2z"/>
	<path fill="#193062" d="M81.1,77.1c1.5,0,2.8,0.7,3.5,1.9l-1.9,1.3c-0.4-0.5-0.9-0.9-1.6-0.9c-1.1,0-1.8,0.8-1.8,1.9
		s0.8,1.9,1.8,1.9c0.7,0,1.2-0.4,1.6-0.9l1.9,1.3c-0.7,1.2-2,1.9-3.5,1.9c-2.4,0-4.2-1.8-4.2-4.2S78.7,77.1,81.1,77.1z"/>
	<path fill="#193062" d="M93.4,80.3v5H91v-4.5c0-0.8-0.5-1.4-1.3-1.4c-0.8,0-1.4,0.6-1.4,1.4v4.5h-2.4V73.2h2.4v4.6
		c0.5-0.4,1.2-0.6,1.9-0.6C92,77.1,93.4,78.5,93.4,80.3z"/>
	<path fill="#193062" d="M96.6,73.3c0.8,0,1.5,0.6,1.5,1.5c0,0.8-0.6,1.5-1.5,1.5c-0.8,0-1.5-0.7-1.5-1.5
		C95.1,74,95.8,73.3,96.6,73.3z M97.8,85.4h-2.4v-8.1h2.4V85.4z"/>
	<path fill="#193062" d="M107.4,80.3v5H105v-4.6c0-0.8-0.5-1.4-1.3-1.4c-0.8,0-1.4,0.6-1.4,1.4v4.6h-2.4v-8.1h2.3v0.5
		c0.5-0.4,1.2-0.6,2-0.6C106,77.1,107.4,78.5,107.4,80.3z"/>
	<path fill="#193062" d="M117,77.3v7.8c0,2.2-1.6,3.8-4,3.8c-1.8,0-3.3-1-3.7-2.6l2.2-0.8c0.2,0.7,0.8,1.1,1.6,1.1
		c1,0,1.6-0.6,1.6-1.6v-0.6c-0.5,0.4-1.2,0.6-1.9,0.6c-2.2,0-3.8-1.7-3.8-4c0-2.2,1.6-4,3.8-4c0.8,0,1.5,0.2,2,0.7v-0.5H117z
		 M114.7,81.1c0-1-0.7-1.7-1.7-1.7c-1,0-1.7,0.8-1.7,1.7c0,0.9,0.7,1.7,1.7,1.7C113.9,82.8,114.7,82.1,114.7,81.1z"/>
</g>
<g>
	<path fill="#193062" d="M11.4,102.6H9.8v-2.3h1.6v-1.6c0-1.6,1-2.5,2.6-2.5h1.8v2.3h-1.4c-0.4,0-0.7,0.2-0.7,0.6v1.2h2v2.3h-2v5.8
		h-2.4V102.6z"/>
	<path fill="#193062" d="M20.7,100.1c2.4,0,4.2,1.8,4.2,4.2c0,2.3-1.8,4.2-4.2,4.2c-2.4,0-4.2-1.9-4.2-4.2
		C16.5,102,18.3,100.1,20.7,100.1z M20.7,106.2c1.1,0,1.9-0.8,1.9-1.9c0-1.1-0.8-1.9-1.9-1.9c-1.1,0-1.9,0.8-1.9,1.9
		C18.9,105.4,19.6,106.2,20.7,106.2z"/>
	<path fill="#193062" d="M31.6,100.3v2.3h-1.2c-0.9,0-1.6,0.7-1.6,1.6v4.1h-2.4v-8.1h2.3v0.7c0.4-0.6,1.2-0.7,1.9-0.7H31.6z"/>
	<path fill="#193062" d="M37.7,96.7h2.5v9.3h6.7v2.4h-9.2V96.7z"/>
	<path fill="#193062" d="M49.6,96.3c0.8,0,1.5,0.6,1.5,1.5c0,0.8-0.6,1.5-1.5,1.5c-0.8,0-1.5-0.7-1.5-1.5
		C48.2,96.9,48.8,96.3,49.6,96.3z M50.8,108.4h-2.4v-8.1h2.4V108.4z"/>
	<path fill="#193062" d="M53.7,102.6h-1.6v-2.3h1.6v-1.6c0-1.6,1-2.5,2.6-2.5h1.8v2.3h-1.4c-0.4,0-0.7,0.2-0.7,0.6v1.2h2v2.3h-2v5.8
		h-2.4V102.6z"/>
	<path fill="#193062" d="M66.8,105.2h-5.6c0.3,0.7,1,1.2,1.8,1.2c0.8,0,1.3-0.4,1.7-0.9l1.9,1.1c-0.7,1.2-2,2-3.6,2
		c-2.4,0-4.2-1.8-4.2-4.2c0-2.4,1.7-4.2,4.1-4.2c2.4,0,4,1.8,4,4.2C66.9,104.6,66.9,104.9,66.8,105.2z M61.2,103.5h3.4
		c-0.2-0.8-0.9-1.2-1.7-1.2C62,102.3,61.4,102.7,61.2,103.5z"/>
	<path fill="#193062" d="M73.3,96.7h2.5v11.7h-2.5V96.7z"/>
	<path fill="#193062" d="M85.5,103.3v5h-2.4v-4.6c0-0.8-0.5-1.4-1.3-1.4c-0.8,0-1.4,0.6-1.4,1.4v4.6H78v-8.1h2.3v0.5
		c0.5-0.4,1.2-0.6,2-0.6C84.2,100.1,85.5,101.5,85.5,103.3z"/>
	<path fill="#193062" d="M90.4,106.4c0.6,0,1-0.3,1-0.6c0-0.2-0.2-0.4-0.6-0.4c-0.4,0-0.8-0.1-1.5-0.2c-1.6-0.2-2.3-1.2-2.3-2.4
		c0-1.6,1.3-2.7,3.3-2.7c1.9,0,3.2,1.1,3.3,2.7h-2.3c0-0.4-0.4-0.6-1-0.6c-0.6,0-1,0.2-1,0.5c0,0.2,0.2,0.4,0.6,0.4
		c0.5,0.1,0.8,0.1,1.5,0.1c1.6,0.2,2.3,1.2,2.3,2.4c0,1.6-1.3,2.8-3.3,2.8c-2,0-3.4-1.2-3.4-2.8h2.3
		C89.3,106.2,89.8,106.4,90.4,106.4z"/>
	<path fill="#193062" d="M102.7,100.3v8.1h-2.3v-0.4c-0.5,0.4-1.2,0.6-2,0.6c-1.8,0-3.2-1.4-3.2-3.2v-5.1h2.4v4.6
		c0,0.8,0.5,1.4,1.3,1.4s1.4-0.6,1.4-1.4v-4.6H102.7z"/>
	<path fill="#193062" d="M109.9,100.3v2.3h-1.2c-0.9,0-1.6,0.7-1.6,1.6v4.1h-2.4v-8.1h2.3v0.7c0.4-0.6,1.2-0.7,1.9-0.7H109.9z"/>
	<path fill="#193062" d="M117.7,103.3v5.1h-2.3v-0.4c-0.5,0.4-1.1,0.6-2,0.6c-1.7,0-2.8-1-2.8-2.5c0-1.7,1.2-2.4,2.8-2.5l2-0.2v-0.1
		c0-0.5-0.5-1-1.2-1c-0.6,0-1.1,0.3-1.2,0.8h-2.3c0.1-1.7,1.5-2.9,3.4-2.9C116.3,100.1,117.7,101.5,117.7,103.3z M115.4,105.5V105
		l-1.6,0.1c-0.6,0-0.8,0.3-0.8,0.7c0,0.4,0.4,0.8,1,0.8C114.9,106.6,115.4,106.2,115.4,105.5z"/>
	<path fill="#193062" d="M127.2,103.3v5h-2.4v-4.6c0-0.8-0.5-1.4-1.3-1.4c-0.8,0-1.4,0.6-1.4,1.4v4.6h-2.4v-8.1h2.3v0.5
		c0.5-0.4,1.2-0.6,2-0.6C125.9,100.1,127.2,101.5,127.2,103.3z"/>
	<path fill="#193062" d="M132.9,100.1c1.5,0,2.8,0.7,3.5,1.9l-1.9,1.3c-0.4-0.5-0.9-0.9-1.6-0.9c-1.1,0-1.8,0.8-1.8,1.9
		s0.8,1.9,1.8,1.9c0.7,0,1.2-0.4,1.6-0.9l1.9,1.3c-0.7,1.2-2,1.9-3.5,1.9c-2.4,0-4.2-1.8-4.2-4.2S130.5,100.1,132.9,100.1z"/>
	<path fill="#193062" d="M145.1,105.2h-5.6c0.3,0.7,1,1.2,1.8,1.2c0.8,0,1.3-0.4,1.7-0.9l1.9,1.1c-0.7,1.2-2,2-3.6,2
		c-2.4,0-4.2-1.8-4.2-4.2c0-2.4,1.7-4.2,4.1-4.2c2.4,0,4,1.8,4,4.2C145.2,104.6,145.2,104.9,145.1,105.2z M139.5,103.5h3.4
		c-0.2-0.8-0.9-1.2-1.7-1.2C140.3,102.3,139.7,102.7,139.5,103.5z"/>
</g>
<g>
	<path fill="#193062" d="M13.3,123.3h2.5v2.3h-2.5v2.7c0,0.5,0.4,0.9,0.9,0.9h1.6v2.3h-2.1c-1.6,0-2.8-1.1-2.8-2.7v-3.1H9.8v-1.2
		l2.2-2.7h1.3V123.3z"/>
	<path fill="#193062" d="M24.8,126.3v5h-2.4v-4.5c0-0.8-0.5-1.4-1.3-1.4c-0.8,0-1.4,0.6-1.4,1.4v4.5h-2.4v-12.2h2.4v4.6
		c0.5-0.4,1.2-0.6,1.9-0.6C23.5,123.1,24.8,124.5,24.8,126.3z"/>
	<path fill="#193062" d="M33.6,126.3v5.1h-2.3v-0.4c-0.5,0.4-1.1,0.6-2,0.6c-1.7,0-2.8-1-2.8-2.5c0-1.7,1.2-2.4,2.8-2.5l2-0.2v-0.1
		c0-0.5-0.5-1-1.2-1c-0.6,0-1.1,0.3-1.2,0.8h-2.3c0.1-1.7,1.5-2.9,3.4-2.9C32.1,123.1,33.6,124.5,33.6,126.3z M31.2,128.5V128
		l-1.6,0.1c-0.6,0-0.8,0.3-0.8,0.7c0,0.4,0.4,0.8,1,0.8C30.7,129.6,31.2,129.2,31.2,128.5z"/>
	<path fill="#193062" d="M38.2,123.3h2.5v2.3h-2.5v2.7c0,0.5,0.4,0.9,0.9,0.9h1.6v2.3h-2.1c-1.6,0-2.8-1.1-2.8-2.7v-3.1h-1.2v-1.2
		l2.2-2.7h1.3V123.3z"/>
	<path fill="#193062" d="M47.7,125.5h-1.6v-2.3h1.6v-1.6c0-1.6,1-2.5,2.6-2.5h1.8v2.3h-1.4c-0.4,0-0.7,0.2-0.7,0.6v1.2h2v2.3h-2v5.8
		h-2.4V125.5z M54.7,119.3c0.8,0,1.5,0.6,1.5,1.5c0,0.8-0.6,1.5-1.5,1.5c-0.8,0-1.5-0.7-1.5-1.5C53.3,119.9,53.9,119.3,54.7,119.3z
		 M55.9,131.4h-2.4v-8.1h2.4V131.4z"/>
	<path fill="#193062" d="M60.7,123.3h2.5v2.3h-2.5v2.7c0,0.5,0.4,0.9,0.9,0.9h1.6v2.3h-2.1c-1.6,0-2.8-1.1-2.8-2.7v-3.1h-1.2v-1.2
		l2.2-2.7h1.3V123.3z"/>
	<path fill="#193062" d="M67.7,129.4c0.6,0,1-0.3,1-0.6c0-0.2-0.2-0.4-0.6-0.4c-0.4,0-0.8-0.1-1.5-0.2c-1.6-0.2-2.3-1.2-2.3-2.4
		c0-1.6,1.3-2.7,3.3-2.7c1.9,0,3.2,1.1,3.3,2.7h-2.3c0-0.4-0.4-0.6-1-0.6c-0.6,0-1,0.2-1,0.5c0,0.2,0.2,0.4,0.6,0.4
		c0.5,0.1,0.8,0.1,1.5,0.1c1.6,0.2,2.3,1.2,2.3,2.4c0,1.6-1.3,2.8-3.3,2.8c-2,0-3.4-1.2-3.4-2.8h2.3C66.6,129.1,67,129.4,67.7,129.4
		z"/>
	<path fill="#193062" d="M83.8,123.3l-4.1,11.5h-2.5l1.3-3.6l-2.8-7.9h2.6l1.5,4.4l1.6-4.4H83.8z"/>
	<path fill="#193062" d="M88.4,123.1c2.4,0,4.2,1.8,4.2,4.2c0,2.3-1.8,4.2-4.2,4.2c-2.4,0-4.2-1.9-4.2-4.2
		C84.2,125,86,123.1,88.4,123.1z M88.4,129.2c1.1,0,1.9-0.8,1.9-1.9c0-1.1-0.8-1.9-1.9-1.9c-1.1,0-1.9,0.8-1.9,1.9
		C86.6,128.4,87.4,129.2,88.4,129.2z"/>
	<path fill="#193062" d="M101.6,123.3v8.1h-2.3v-0.4c-0.5,0.4-1.2,0.6-2,0.6c-1.8,0-3.2-1.4-3.2-3.2v-5.1h2.4v4.6
		c0,0.8,0.5,1.4,1.3,1.4s1.4-0.6,1.4-1.4v-4.6H101.6z"/>
	<path fill="#193062" d="M108.8,123.3v2.3h-1.2c-0.9,0-1.6,0.7-1.6,1.6v4.1h-2.4v-8.1h2.3v0.7c0.4-0.6,1.2-0.7,1.9-0.7H108.8z"/>
</g>
<g>
	<path fill="#193062" d="M11.4,148.5H9.8v-2.3h1.6v-1.6c0-1.6,1-2.5,2.6-2.5h1.8v2.3h-1.4c-0.4,0-0.7,0.2-0.7,0.6v1.2h2v2.3h-2v5.8
		h-2.4V148.5z"/>
	<path fill="#193062" d="M23.7,149.3v5.1h-2.3v-0.4c-0.5,0.4-1.1,0.6-2,0.6c-1.7,0-2.8-1-2.8-2.5c0-1.7,1.2-2.4,2.8-2.5l2-0.2v-0.1
		c0-0.5-0.5-1-1.2-1c-0.6,0-1.1,0.3-1.2,0.8h-2.3c0.1-1.7,1.5-2.9,3.4-2.9C22.3,146.1,23.7,147.4,23.7,149.3z M21.4,151.5V151
		l-1.6,0.1c-0.6,0-0.8,0.3-0.8,0.7c0,0.4,0.4,0.8,1,0.8C20.8,152.6,21.4,152.2,21.4,151.5z"/>
	<path fill="#193062" d="M37.5,149.1v5.3h-2.4v-4.8c0-0.6-0.4-1.2-1.2-1.2c-0.7,0-1.2,0.5-1.2,1.2v4.8h-2.4v-4.8
		c0-0.6-0.4-1.2-1.2-1.2c-0.7,0-1.2,0.5-1.2,1.2v4.8h-2.4v-8.1h2.3v0.4c0.5-0.4,1.1-0.6,1.8-0.6c0.8,0,1.6,0.3,2.1,0.8
		c0.6-0.5,1.4-0.8,2.3-0.8C36.1,146.1,37.5,147.3,37.5,149.1z"/>
	<path fill="#193062" d="M40.8,142.3c0.8,0,1.5,0.6,1.5,1.5c0,0.8-0.6,1.5-1.5,1.5c-0.8,0-1.5-0.7-1.5-1.5
		C39.3,142.9,39.9,142.3,40.8,142.3z M41.9,154.3h-2.4v-8.1h2.4V154.3z"/>
	<path fill="#193062" d="M44.1,142.1h2.4v12.2h-2.4V142.1z"/>
	<path fill="#193062" d="M55.7,146.3l-4.1,11.5h-2.5l1.3-3.6l-2.8-7.9h2.6l1.5,4.4l1.6-4.4H55.7z"/>
	<path fill="#193062" d="M59.5,143.9c0,0.2,0,0.4-0.1,0.5l-0.9,2.7h-1.4l0.4-1.9c-0.5-0.2-0.9-0.7-0.9-1.3c0-0.8,0.6-1.4,1.4-1.4
		C58.9,142.5,59.5,143.1,59.5,143.9z"/>
	<path fill="#193062" d="M63.5,152.4c0.6,0,1-0.3,1-0.6c0-0.2-0.2-0.4-0.6-0.4c-0.4,0-0.8-0.1-1.5-0.2c-1.6-0.2-2.3-1.2-2.3-2.4
		c0-1.6,1.3-2.7,3.3-2.7c1.9,0,3.2,1.1,3.3,2.7h-2.3c0-0.4-0.4-0.6-1-0.6c-0.6,0-1,0.2-1,0.5c0,0.2,0.2,0.4,0.6,0.4
		c0.5,0.1,0.8,0.1,1.5,0.1c1.6,0.2,2.3,1.2,2.3,2.4c0,1.6-1.3,2.8-3.3,2.8c-2,0-3.4-1.2-3.4-2.8h2.3
		C62.4,152.1,62.8,152.4,63.5,152.4z"/>
	<path fill="#193062" d="M80.5,149.3v5h-2.4v-4.6c0-0.8-0.5-1.4-1.3-1.4c-0.8,0-1.4,0.6-1.4,1.4v4.6H73v-8.1h2.3v0.5
		c0.5-0.4,1.2-0.6,2-0.6C79.1,146.1,80.5,147.5,80.5,149.3z"/>
	<path fill="#193062" d="M90,151.2h-5.6c0.3,0.7,1,1.2,1.8,1.2c0.8,0,1.3-0.4,1.7-0.9l1.9,1.1c-0.7,1.2-2,2-3.6,2
		c-2.4,0-4.2-1.8-4.2-4.2c0-2.4,1.7-4.2,4.1-4.2c2.4,0,4,1.8,4,4.2C90.1,150.6,90.1,150.9,90,151.2z M84.3,149.4h3.4
		c-0.2-0.8-0.9-1.2-1.7-1.2C85.2,148.3,84.5,148.7,84.3,149.4z"/>
	<path fill="#193062" d="M99.1,151.2h-5.6c0.3,0.7,1,1.2,1.8,1.2c0.8,0,1.3-0.4,1.7-0.9l1.9,1.1c-0.7,1.2-2,2-3.6,2
		c-2.4,0-4.2-1.8-4.2-4.2c0-2.4,1.7-4.2,4.1-4.2c2.4,0,4,1.8,4,4.2C99.2,150.6,99.2,150.9,99.1,151.2z M93.5,149.4h3.4
		c-0.2-0.8-0.9-1.2-1.7-1.2C94.3,148.3,93.7,148.7,93.5,149.4z"/>
	<path fill="#193062" d="M108.6,142.1v12.2h-2.3v-0.5c-0.5,0.4-1.3,0.7-2.1,0.7c-2.3,0-4-1.9-4-4.2c0-2.4,1.6-4.2,4-4.2
		c0.8,0,1.5,0.2,2,0.6v-4.6H108.6z M106.3,150.3c0-1.1-0.8-1.9-1.9-1.9c-1.1,0-1.8,0.8-1.8,1.9c0,1.1,0.8,1.9,1.8,1.9
		C105.6,152.2,106.3,151.4,106.3,150.3z"/>
	<path fill="#193062" d="M113.6,152.4c0.6,0,1-0.3,1-0.6c0-0.2-0.2-0.4-0.6-0.4c-0.4,0-0.8-0.1-1.5-0.2c-1.6-0.2-2.3-1.2-2.3-2.4
		c0-1.6,1.3-2.7,3.3-2.7c1.9,0,3.2,1.1,3.3,2.7h-2.3c0-0.4-0.4-0.6-1-0.6c-0.6,0-1,0.2-1,0.5c0,0.2,0.2,0.4,0.6,0.4
		c0.5,0.1,0.8,0.1,1.5,0.1c1.6,0.2,2.3,1.2,2.3,2.4c0,1.6-1.3,2.8-3.3,2.8c-2,0-3.4-1.2-3.4-2.8h2.3
		C112.5,152.1,112.9,152.4,113.6,152.4z"/>
	<path fill="#193062" d="M119.9,150.7L119.9,150.7c0-1.5,0.3-2.1,1.5-3.2c0.6-0.5,0.9-0.9,0.9-1.5c0-0.7-0.4-1.1-1.1-1.1
		c-0.6,0-1.1,0.5-1.1,1.1h-2.5c0-2,1.5-3.6,3.6-3.6c2.1,0,3.6,1.5,3.6,3.5c0,1.5-0.7,2.2-1.7,3.2c-0.7,0.6-0.9,1-0.9,1.6v0.1H119.9z
		 M121.1,151.5c0.8,0,1.5,0.6,1.5,1.5c0,0.8-0.6,1.5-1.5,1.5c-0.8,0-1.5-0.7-1.5-1.5C119.6,152.1,120.2,151.5,121.1,151.5z"/>
</g>
<g>
	<path fill="#193062" d="M13.3,168.1H10v-2.4h9.2v2.4h-3.3v9.3h-2.5V168.1z"/>
	<path fill="#193062" d="M24.2,169.3v2.3H23c-0.9,0-1.6,0.7-1.6,1.6v4.1h-2.4v-8.1h2.3v0.7c0.4-0.6,1.2-0.7,1.9-0.7H24.2z"/>
	<path fill="#193062" d="M33,169.3v8.1h-2.3v-0.4c-0.5,0.4-1.2,0.6-2,0.6c-1.8,0-3.2-1.4-3.2-3.2v-5.1h2.4v4.6
		c0,0.8,0.5,1.4,1.3,1.4s1.4-0.6,1.4-1.4v-4.6H33z"/>
	<path fill="#193062" d="M37.9,175.4c0.6,0,1-0.3,1-0.6c0-0.2-0.2-0.4-0.6-0.4c-0.4,0-0.8-0.1-1.5-0.2c-1.6-0.2-2.3-1.2-2.3-2.4
		c0-1.6,1.3-2.7,3.3-2.7c1.9,0,3.2,1.1,3.3,2.7h-2.3c0-0.4-0.4-0.6-1-0.6c-0.6,0-1,0.2-1,0.5c0,0.2,0.2,0.4,0.6,0.4
		c0.5,0.1,0.8,0.1,1.5,0.1c1.6,0.2,2.3,1.2,2.3,2.4c0,1.6-1.3,2.8-3.3,2.8c-2,0-3.4-1.2-3.4-2.8h2.3
		C36.8,175.1,37.3,175.4,37.9,175.4z"/>
	<path fill="#193062" d="M45.5,169.3h2.5v2.3h-2.5v2.7c0,0.5,0.4,0.9,0.9,0.9h1.6v2.3h-2.1c-1.6,0-2.8-1.1-2.8-2.7v-3.1h-1.2v-1.2
		l2.2-2.7h1.3V169.3z"/>
	<path fill="#193062" d="M56.5,168.1h-3.3v-2.4h9.2v2.4H59v9.3h-2.5V168.1z"/>
	<path fill="#193062" d="M67.5,169.3v2.3h-1.2c-0.9,0-1.6,0.7-1.6,1.6v4.1h-2.4v-8.1h2.3v0.7c0.4-0.6,1.2-0.7,1.9-0.7H67.5z"/>
	<path fill="#193062" d="M76.2,169.3v8.1h-2.3v-0.4c-0.5,0.4-1.2,0.6-2,0.6c-1.8,0-3.2-1.4-3.2-3.2v-5.1h2.4v4.6
		c0,0.8,0.5,1.4,1.3,1.4s1.4-0.6,1.4-1.4v-4.6H76.2z"/>
	<path fill="#193062" d="M82.2,167.8c-1.1,0-1.7,0.5-1.7,1.2c0,0.4,0.3,0.8,0.7,0.9c0.8,0.3,1.8,0.1,3,0.5c1.5,0.4,2.4,1.6,2.4,3.2
		c0,2.2-1.7,3.9-4.3,3.9c-2.5,0-4.4-1.5-4.4-3.8h2.5c0,0.8,0.8,1.4,2,1.4c1.2,0,1.8-0.6,1.8-1.3c0-0.5-0.4-0.8-0.8-1
		c-0.7-0.3-2-0.2-3-0.5c-1.6-0.4-2.4-1.6-2.4-3.1c0-2.2,1.7-3.7,4.2-3.7c2.4,0,4.2,1.5,4.2,3.6H84C83.9,168.3,83.2,167.8,82.2,167.8
		z"/>
	<path fill="#193062" d="M91,169.3h2.5v2.3H91v2.7c0,0.5,0.4,0.9,0.9,0.9h1.6v2.3h-2.1c-1.6,0-2.8-1.1-2.8-2.7v-3.1h-1.2v-1.2
		l2.2-2.7H91V169.3z"/>
	<path fill="#193062" d="M101.7,172.3v5.1h-2.3v-0.4c-0.5,0.4-1.1,0.6-2,0.6c-1.7,0-2.8-1-2.8-2.5c0-1.7,1.2-2.4,2.8-2.5l2-0.2v-0.1
		c0-0.5-0.5-1-1.2-1c-0.6,0-1.1,0.3-1.2,0.8h-2.3c0.1-1.7,1.5-2.9,3.4-2.9C100.3,169.1,101.7,170.4,101.7,172.3z M99.4,174.5V174
		l-1.6,0.1c-0.6,0-0.8,0.3-0.8,0.7c0,0.4,0.4,0.8,1,0.8C98.9,175.6,99.4,175.2,99.4,174.5z"/>
	<path fill="#193062" d="M111.3,169.3v7.8c0,2.2-1.6,3.8-4,3.8c-1.8,0-3.3-1-3.7-2.6l2.2-0.8c0.2,0.7,0.8,1.1,1.6,1.1
		c1,0,1.6-0.6,1.6-1.6v-0.6c-0.5,0.4-1.2,0.6-1.9,0.6c-2.2,0-3.8-1.7-3.8-4s1.6-4,3.8-4c0.8,0,1.5,0.2,2,0.7v-0.5H111.3z M109,173.1
		c0-1-0.7-1.7-1.7-1.7c-1,0-1.7,0.8-1.7,1.7c0,0.9,0.7,1.7,1.7,1.7C108.3,174.8,109,174,109,173.1z"/>
	<path fill="#193062" d="M120.9,174.2h-5.6c0.3,0.7,1,1.2,1.8,1.2c0.8,0,1.3-0.4,1.7-0.9l1.9,1.1c-0.7,1.2-2,2-3.6,2
		c-2.4,0-4.2-1.8-4.2-4.2c0-2.4,1.7-4.2,4.1-4.2c2.4,0,4,1.8,4,4.2C121,173.6,121,173.9,120.9,174.2z M115.2,172.4h3.4
		c-0.2-0.8-0.9-1.2-1.7-1.2C116.1,171.3,115.4,171.7,115.2,172.4z"/>
	<path fill="#193062" d="M123.3,167h-1.3v-1.3h3.9v1.3h-1.3v3.3h-1.4V167z M126.7,165.7h1.3l1,2.1l1-2.1h1.3v4.6H130v-2.1l-1,2.2
		l-1.1-2.1v2h-1.3V165.7z"/>
</g>
</svg>
