<svg baseProfile="tiny" xmlns="http://www.w3.org/2000/svg" viewBox="0 0 320 50" overflow="visible"><g fill="#193062"><path d="M87.3 9.4c-.7 0-1.2.4-1.2.8 0 .3.2.5.5.6.5.2 1.3.1 2 .3 1 .3 1.7 1.1 1.7 2.2 0 1.5-1.2 2.7-3 2.7-1.7 0-3-1.1-3-2.6H86c0 .6.6 1 1.3 1 .8 0 1.3-.4 1.3-.9 0-.4-.2-.6-.5-.7-.5-.2-1.3-.1-2.1-.3-1.1-.3-1.6-1.1-1.6-2.2 0-1.5 1.2-2.6 2.9-2.6s2.9 1 2.9 2.5h-1.7c0-.5-.5-.8-1.2-.8zM93.3 10.4H95V12h-1.7v1.8c0 .4.2.6.6.6H95V16h-1.4c-1.1 0-1.9-.7-1.9-1.8v-2.1h-.8v-.8l1.5-1.9h.9v1zM97 7.6c.6 0 1 .4 1 1s-.4 1-1 1-1-.5-1-1c-.1-.5.4-1 1-1zm.8 8.3h-1.6v-5.5h1.6v5.5zM99.2 7.5h1.6v8.4h-1.6V7.5zM102.3 7.5h1.6v8.4h-1.6V7.5zM110.5 14.6c.4 0 .7-.2.7-.4s-.1-.3-.4-.3c-.3 0-.6 0-1-.1-1.1-.2-1.6-.8-1.6-1.6 0-1.1.9-1.9 2.2-1.9 1.3 0 2.2.8 2.2 1.9H111c0-.3-.3-.4-.7-.4-.4 0-.7.2-.7.4s.1.2.4.3c.4 0 .6 0 1 .1 1.1.1 1.6.8 1.6 1.6 0 1.1-.9 1.9-2.3 1.9s-2.3-.8-2.3-1.9h1.6c.2.2.5.4.9.4zM119 13.7h-3.9c.2.5.7.8 1.3.8.5 0 .9-.3 1.2-.6l1.3.8c-.5.8-1.4 1.4-2.5 1.4-1.7 0-2.9-1.3-2.9-2.9 0-1.7 1.2-2.9 2.8-2.9 1.7 0 2.8 1.2 2.8 2.9 0 .1 0 .3-.1.5zm-3.9-1.2h2.4c-.2-.5-.6-.8-1.2-.8s-1 .3-1.2.8zM124.8 12.4v3.5h-1.6v-.3c-.3.3-.7.4-1.4.4-1.1 0-1.9-.7-1.9-1.7 0-1.1.9-1.6 1.9-1.7l1.4-.1v-.1c0-.4-.4-.7-.8-.7s-.7.2-.8.5H120c.1-1.2 1-2 2.4-2s2.4 1 2.4 2.2zm-1.6 1.6v-.3l-1.1.1c-.4 0-.6.2-.6.5s.3.5.7.5c.6-.1 1-.4 1-.8zM129.7 10.4V12h-.8c-.6 0-1.1.5-1.1 1.1v2.8h-1.6v-5.5h1.6v.5c.3-.4.8-.5 1.3-.5h.6zM133.1 10.2c1.1 0 1.9.5 2.4 1.3l-1.3.9c-.2-.4-.6-.6-1.1-.6-.7 0-1.3.6-1.3 1.3 0 .7.5 1.3 1.3 1.3.5 0 .8-.3 1.1-.6l1.3.9c-.5.8-1.4 1.3-2.4 1.3-1.7 0-2.9-1.3-2.9-2.9s1.2-2.9 2.9-2.9zM141.5 12.5V16h-1.6v-3.1c0-.5-.4-1-.9-1-.6 0-1 .4-1 1V16h-1.6V7.5h1.6v3.1c.4-.3.8-.4 1.3-.4 1.3 0 2.2 1 2.2 2.3zM143.7 7.6c.6 0 1 .4 1 1s-.4 1-1 1-1-.5-1-1 .4-1 1-1zm.8 8.3h-1.6v-5.5h1.6v5.5zM151.1 12.4v3.5h-1.6v-3.1c0-.5-.4-.9-.9-.9-.6 0-.9.4-.9.9v3.1H146v-5.5h1.6v.3c.4-.3.8-.4 1.4-.4 1.2-.1 2.1.9 2.1 2.1zM157.7 10.4v5.4c0 1.5-1.1 2.6-2.8 2.6-1.3 0-2.2-.7-2.6-1.8l1.5-.6c.2.5.5.8 1.1.8.7 0 1.1-.4 1.1-1.1v-.4c-.4.3-.8.4-1.3.4-1.5 0-2.6-1.2-2.6-2.7s1.1-2.7 2.6-2.7c.5 0 1 .2 1.4.5v-.3h1.6zm-1.6 2.6c0-.7-.5-1.2-1.2-1.2s-1.2.5-1.2 1.2c0 .6.5 1.1 1.2 1.1s1.2-.5 1.2-1.1zM162.9 11.9h-1.1v-1.6h1.1v-1c0-1.1.7-1.7 1.8-1.7h1.2v1.6h-.9c-.3 0-.5.2-.5.4v.8h1.4V12h-1.4v4h-1.6v-4.1zM169.3 10.2c1.7 0 2.9 1.3 2.9 2.9 0 1.6-1.2 2.9-2.9 2.9s-2.9-1.3-2.9-2.9c0-1.6 1.2-2.9 2.9-2.9zm0 4.2c.7 0 1.3-.6 1.3-1.3 0-.7-.5-1.3-1.3-1.3-.7 0-1.3.6-1.3 1.3 0 .8.5 1.3 1.3 1.3zM176.8 10.4V12h-.8c-.6 0-1.1.5-1.1 1.1v2.8h-1.6v-5.5h1.6v.5c.3-.4.8-.5 1.3-.5h.6zM181 7.9h1.7v6.4h4.6V16H181V7.9zM189.2 7.6c.6 0 1 .4 1 1s-.4 1-1 1-1-.5-1-1c-.1-.5.4-1 1-1zm.8 8.3h-1.6v-5.5h1.6v5.5zM192 11.9h-1.1v-1.6h1.1v-1c0-1.1.7-1.7 1.8-1.7h1.2v1.6h-1c-.3 0-.5.2-.5.4v.8h1.4V12h-1.4v4H192v-4.1zM201 13.7h-3.9c.2.5.7.8 1.3.8.5 0 .9-.3 1.2-.6l1.3.8c-.5.8-1.4 1.4-2.5 1.4-1.7 0-2.9-1.3-2.9-2.9 0-1.7 1.2-2.9 2.8-2.9 1.7 0 2.8 1.2 2.8 2.9 0 .1-.1.3-.1.5zm-3.9-1.2h2.4c-.2-.5-.6-.8-1.2-.8s-1.1.3-1.2.8zM205.4 7.9h1.7v8h-1.7v-8zM213.8 12.4v3.5h-1.6v-3.1c0-.5-.4-.9-.9-.9s-.9.4-.9.9v3.1h-1.6v-5.5h1.6v.3c.4-.3.8-.4 1.4-.4 1.1-.1 2 .9 2 2.1zM217.2 14.6c.4 0 .7-.2.7-.4s-.1-.3-.4-.3c-.3 0-.6 0-1-.1-1.1-.2-1.6-.8-1.6-1.6 0-1.1.9-1.9 2.2-1.9 1.3 0 2.2.8 2.2 1.9h-1.6c0-.3-.3-.4-.7-.4-.4 0-.7.2-.7.4s.1.2.4.3c.4 0 .6 0 1 .1 1.1.1 1.6.8 1.6 1.6 0 1.1-.9 1.9-2.3 1.9s-2.3-.8-2.3-1.9h1.6c.2.2.5.4.9.4zM225.6 10.4v5.5H224v-.3c-.4.3-.8.4-1.3.4-1.2 0-2.2-.9-2.2-2.2v-3.5h1.6v3.1c0 .5.4.9.9.9.6 0 .9-.4.9-.9v-3.1h1.7zM230.6 10.4V12h-.8c-.6 0-1.1.5-1.1 1.1v2.8h-1.6v-5.5h1.6v.5c.3-.4.8-.5 1.3-.5h.6zM236 12.4v3.5h-1.6v-.3c-.3.3-.7.4-1.4.4-1.1 0-1.9-.7-1.9-1.7 0-1.1.9-1.6 1.9-1.7l1.4-.1v-.1c0-.4-.4-.7-.8-.7s-.7.2-.8.5h-1.6c.1-1.2 1-2 2.4-2s2.4 1 2.4 2.2zm-1.6 1.6v-.3l-1.1.1c-.4 0-.6.2-.6.5s.3.5.7.5c.6-.1 1-.4 1-.8zM242.5 12.4v3.5h-1.6v-3.1c0-.5-.4-.9-.9-.9s-.9.4-.9.9v3.1h-1.6v-5.5h1.6v.3c.4-.3.8-.4 1.4-.4 1.1-.1 2 .9 2 2.1zM246.4 10.2c1.1 0 1.9.5 2.4 1.3l-1.3.9c-.2-.4-.6-.6-1.1-.6-.7 0-1.3.6-1.3 1.3 0 .7.5 1.3 1.3 1.3.5 0 .8-.3 1.1-.6l1.3.9c-.5.8-1.4 1.3-2.4 1.3-1.7 0-2.9-1.3-2.9-2.9s1.3-2.9 2.9-2.9zM254.8 13.7H251c.2.5.7.8 1.3.8.5 0 .9-.3 1.2-.6l1.3.8c-.5.8-1.4 1.4-2.5 1.4-1.7 0-2.9-1.3-2.9-2.9 0-1.7 1.2-2.9 2.8-2.9 1.7 0 2.8 1.2 2.8 2.9-.1.1-.1.3-.2.5zm-3.9-1.2h2.4c-.2-.5-.6-.8-1.2-.8s-1 .3-1.2.8z"/></g><g fill="#193062"><path d="M86.4 23.4h1.7V25h-1.7v1.8c0 .4.2.6.6.6h1.1V29h-1.4c-1.1 0-1.9-.7-1.9-1.8v-2.1H84v-.8l1.5-1.9h.9v1zM94.4 25.5V29h-1.6v-3.1c0-.5-.4-1-.9-1-.6 0-1 .4-1 1V29h-1.6v-8.4h1.6v3.1c.4-.3.8-.4 1.3-.4 1.2-.1 2.2.9 2.2 2.2zM100.4 25.4v3.5h-1.6v-.3c-.4.3-.8.4-1.4.4-1.1 0-1.9-.7-1.9-1.7 0-1.1.9-1.6 1.9-1.7l1.4-.1v-.1c0-.4-.4-.7-.8-.7s-.7.2-.8.5h-1.6c.1-1.2 1-2 2.4-2s2.4 1 2.4 2.2zM98.8 27v-.3l-1.1.1c-.4 0-.6.2-.6.5s.3.5.7.5c.6-.1 1-.4 1-.8zM103.6 23.4h1.7V25h-1.7v1.8c0 .4.2.6.6.6h1.1V29h-1.4c-1.1 0-1.9-.7-1.9-1.8v-2.1h-.8v-.8l1.5-1.9h.9v1zM110.1 24.9H109v-1.6h1.1v-1.1c0-1.1.7-1.7 1.8-1.7h1.2v1.6h-.9c-.3 0-.5.2-.5.4v.8h1.4v1.6h-1.4v4h-1.6v-4zm4.8-4.3c.6 0 1 .4 1 1s-.4 1-1 1-1-.5-1-1 .5-1 1-1zm.9 8.3h-1.6v-5.5h1.6v5.5zM119 23.4h1.7V25H119v1.8c0 .4.2.6.6.6h1.1V29h-1.4c-1.1 0-1.9-.7-1.9-1.8v-2.1h-.8v-.8l1.5-1.9h.9v1zM123.8 27.6c.4 0 .7-.2.7-.4s-.1-.3-.4-.3-.6 0-1-.1c-1.1-.2-1.6-.8-1.6-1.6 0-1.1.9-1.9 2.2-1.9 1.3 0 2.2.8 2.2 1.9h-1.6c0-.3-.3-.4-.7-.4-.4 0-.7.2-.7.4s.1.2.4.3c.4 0 .6 0 1 .1 1.1.1 1.6.8 1.6 1.6 0 1.1-.9 1.9-2.3 1.9s-2.3-.8-2.3-1.9h1.6c.2.2.5.4.9.4zM134.9 23.4l-2.8 7.9h-1.7l.9-2.5-2-5.4h1.8l1.1 3 1.1-3h1.6zM138.1 23.2c1.7 0 2.9 1.3 2.9 2.9 0 1.6-1.2 2.9-2.9 2.9s-2.9-1.3-2.9-2.9c0-1.6 1.2-2.9 2.9-2.9zm0 4.2c.7 0 1.3-.6 1.3-1.3 0-.7-.5-1.3-1.3-1.3-.7 0-1.3.6-1.3 1.3 0 .8.5 1.3 1.3 1.3zM147.1 23.4v5.5h-1.6v-.3c-.4.3-.8.4-1.3.4-1.2 0-2.2-.9-2.2-2.2v-3.5h1.6v3.1c0 .5.4.9.9.9s.9-.4.9-.9v-3.1h1.7zM152.1 23.4V25h-.8c-.6 0-1.1.5-1.1 1.1v2.8h-1.6v-5.5h1.6v.5c.3-.4.8-.5 1.3-.5h.6zM156.7 24.9h-1.1v-1.6h1.1v-1.1c0-1.1.7-1.7 1.8-1.7h1.2v1.6h-.9c-.3 0-.5.2-.5.4v.8h1.4v1.6h-1.4v4h-1.6v-4zM165.2 25.4v3.5h-1.6v-.3c-.3.3-.7.4-1.4.4-1.1 0-1.9-.7-1.9-1.7 0-1.1.9-1.6 1.9-1.7l1.4-.1v-.1c0-.4-.4-.7-.8-.7s-.7.2-.8.5h-1.6c.1-1.2 1-2 2.4-2s2.4 1 2.4 2.2zm-1.6 1.6v-.3l-1.1.1c-.4 0-.6.2-.6.5s.3.5.7.5c.6-.1 1-.4 1-.8zM174.7 25.3v3.6h-1.6v-3.3c0-.4-.3-.8-.8-.8s-.8.4-.8.8v3.3h-1.6v-3.3c0-.4-.3-.8-.8-.8s-.8.4-.8.8v3.3h-1.6v-5.5h1.6v.3c.3-.2.8-.4 1.2-.4.6 0 1.1.2 1.4.6.4-.4.9-.6 1.6-.6 1.2-.1 2.2.8 2.2 2zM176.9 20.6c.6 0 1 .4 1 1s-.4 1-1 1-1-.5-1-1 .4-1 1-1zm.8 8.3h-1.6v-5.5h1.6v5.5zM179.2 20.5h1.6v8.4h-1.6v-8.4zM187.2 23.4l-2.8 7.9h-1.7l.9-2.5-2-5.4h1.8l1.1 3 1.1-3h1.6zM189.8 21.7c0 .1 0 .3-.1.4l-.6 1.8h-.9l.3-1.3c-.4-.1-.6-.5-.6-.9 0-.6.4-1 1-1s.9.5.9 1zM192.6 27.6c.4 0 .7-.2.7-.4s-.1-.3-.4-.3c-.3 0-.6 0-1-.1-1.1-.2-1.6-.8-1.6-1.6 0-1.1.9-1.9 2.2-1.9 1.3 0 2.2.8 2.2 1.9h-1.6c0-.3-.3-.4-.7-.4-.4 0-.7.2-.7.4s.1.2.4.3c.4 0 .6 0 1 .1 1.1.1 1.6.8 1.6 1.6 0 1.1-.9 1.9-2.3 1.9s-2.3-.8-2.3-1.9h1.6c.1.2.4.4.9.4zM204.2 25.4v3.5h-1.6v-3.1c0-.5-.4-.9-.9-.9-.6 0-.9.4-.9.9v3.1h-1.6v-5.5h1.6v.3c.4-.3.8-.4 1.4-.4 1.1-.1 2 .9 2 2.1zM210.8 26.7h-3.9c.2.5.7.8 1.3.8.5 0 .9-.3 1.2-.6l1.3.8c-.5.8-1.4 1.4-2.5 1.4-1.7 0-2.9-1.3-2.9-2.9 0-1.7 1.2-2.9 2.8-2.9 1.7 0 2.8 1.2 2.8 2.9-.1.1-.1.3-.1.5zm-3.9-1.2h2.4c-.2-.5-.6-.8-1.2-.8s-1.1.3-1.2.8zM217.1 26.7h-3.9c.2.5.7.8 1.3.8.5 0 .9-.3 1.2-.6l1.3.8c-.5.8-1.4 1.4-2.5 1.4-1.7 0-2.9-1.3-2.9-2.9 0-1.7 1.2-2.9 2.8-2.9 1.7 0 2.8 1.2 2.8 2.9-.1.1-.1.3-.1.5zm-3.9-1.2h2.4c-.2-.5-.6-.8-1.2-.8-.7 0-1.1.3-1.2.8zM223.6 20.5v8.4H222v-.3c-.4.3-.9.5-1.4.5-1.6 0-2.7-1.3-2.7-2.9 0-1.6 1.1-2.9 2.7-2.9.5 0 1 .2 1.4.4v-3.1h1.6zm-1.6 5.6c0-.7-.5-1.3-1.3-1.3-.7 0-1.3.6-1.3 1.3 0 .7.5 1.3 1.3 1.3s1.3-.5 1.3-1.3zM227 27.6c.4 0 .7-.2.7-.4s-.1-.3-.4-.3c-.3 0-.6 0-1-.1-1.1-.2-1.6-.8-1.6-1.6 0-1.1.9-1.9 2.2-1.9 1.3 0 2.2.8 2.2 1.9h-1.6c0-.3-.3-.4-.7-.4-.4 0-.7.2-.7.4s.1.2.4.3c.4 0 .6 0 1 .1 1.1.1 1.6.8 1.6 1.6 0 1.1-.9 1.9-2.3 1.9s-2.3-.8-2.3-1.9h1.6c.1.2.4.4.9.4zM231.4 26.4c0-1 .2-1.5 1-2.2.4-.4.6-.6.6-1.1 0-.5-.3-.8-.7-.8-.4 0-.7.3-.7.8h-1.7c0-1.4 1.1-2.5 2.5-2.5s2.4 1.1 2.4 2.4c0 1-.5 1.5-1.2 2.2-.5.4-.6.7-.6 1.1h-1.6zm.7.6c.6 0 1 .4 1 1s-.4 1-1 1-1-.5-1-1c0-.6.4-1 1-1z"/></g><g fill="#193062"><path d="M86.4 35.6h-2.3v-1.7h6.3v1.7h-2.3V42h-1.7v-6.4zM94 36.4V38h-.8c-.6 0-1.1.5-1.1 1.1v2.8h-1.6v-5.5H92v.5c.3-.4.8-.5 1.3-.5h.7zM100 36.4v5.5h-1.6v-.3c-.4.3-.9.4-1.4.4-1.2 0-2.2-.9-2.2-2.2v-3.5h1.6v3.1c0 .5.4.9.9.9s.9-.4.9-.9v-3.1h1.8zM103.4 40.6c.4 0 .7-.2.7-.4s-.1-.3-.4-.3c-.3 0-.6 0-1-.1-1.1-.2-1.6-.8-1.6-1.6 0-1.1.9-1.9 2.2-1.9 1.3 0 2.2.8 2.2 1.9H104c0-.3-.3-.4-.7-.4-.4 0-.7.2-.7.4s.1.2.4.3c.4 0 .6 0 1 .1 1.1.1 1.6.8 1.6 1.6 0 1.1-.9 1.9-2.3 1.9s-2.3-.8-2.3-1.9h1.6c0 .2.3.4.8.4zM108.6 36.4h1.7V38h-1.7v1.8c0 .4.2.6.6.6h1.1V42h-1.4c-1.1 0-1.9-.7-1.9-1.8v-2.1h-.8v-.8l1.5-1.9h.9v1zM116.2 35.6h-2.3v-1.7h6.3v1.7h-2.3V42h-1.7v-6.4zM123.7 36.4V38h-.8c-.6 0-1.1.5-1.1 1.1v2.8h-1.6v-5.5h1.6v.5c.3-.4.8-.5 1.3-.5h.6zM129.7 36.4v5.5h-1.6v-.3c-.4.3-.8.4-1.3.4-1.2 0-2.2-.9-2.2-2.2v-3.5h1.6v3.1c0 .5.4.9.9.9s.9-.4.9-.9v-3.1h1.7zM133.8 35.4c-.7 0-1.2.4-1.2.8 0 .3.2.5.5.6.5.2 1.3.1 2 .3 1 .3 1.7 1.1 1.7 2.2 0 1.5-1.2 2.7-3 2.7-1.7 0-3-1.1-3-2.6h1.7c0 .6.6 1 1.3 1 .8 0 1.3-.4 1.3-.9 0-.4-.2-.6-.5-.7-.5-.2-1.3-.1-2.1-.3-1.1-.3-1.6-1.1-1.6-2.2 0-1.5 1.2-2.6 2.9-2.6s2.9 1 2.9 2.5H135c0-.5-.5-.8-1.2-.8zM139.9 36.4h1.7V38h-1.7v1.8c0 .4.2.6.6.6h1.1V42h-1.4c-1.1 0-1.9-.7-1.9-1.8v-2.1h-.8v-.8l1.5-1.9h.9v1zM147.3 38.4v3.5h-1.6v-.3c-.3.3-.7.4-1.4.4-1.1 0-1.9-.7-1.9-1.7 0-1.1.9-1.6 1.9-1.7l1.4-.1v-.1c0-.4-.4-.7-.8-.7s-.7.2-.8.5h-1.6c.1-1.2 1-2 2.4-2s2.4 1 2.4 2.2zm-1.6 1.6v-.3l-1.1.1c-.4 0-.6.2-.6.5s.3.5.7.5c.6-.1 1-.4 1-.8zM153.9 36.4v5.4c0 1.5-1.1 2.6-2.8 2.6-1.3 0-2.2-.7-2.6-1.8l1.5-.6c.2.5.5.8 1.1.8.7 0 1.1-.4 1.1-1.1v-.4c-.4.3-.8.4-1.3.4-1.5 0-2.6-1.2-2.6-2.7s1.1-2.7 2.6-2.7c.5 0 1 .2 1.4.5v-.3h1.6zm-1.6 2.6c0-.7-.5-1.2-1.2-1.2s-1.2.5-1.2 1.2c0 .6.5 1.1 1.2 1.1s1.2-.5 1.2-1.1zM160.4 39.7h-3.9c.2.5.7.8 1.3.8.5 0 .9-.3 1.2-.6l1.3.8c-.5.8-1.4 1.4-2.5 1.4-1.7 0-2.9-1.3-2.9-2.9 0-1.7 1.2-2.9 2.8-2.9 1.7 0 2.8 1.2 2.8 2.9 0 .1 0 .3-.1.5zm-3.8-1.2h2.4c-.2-.5-.6-.8-1.2-.8-.7 0-1.1.3-1.2.8zM162.1 34.8h-.9v-.9h2.7v.9h-.9V37h-.9v-2.2zm2.3-.9h.9l.7 1.5.7-1.5h.9V37h-.9v-1.4l-.7 1.5-.7-1.5V37h-.9v-3.1z"/></g></svg>