<svg baseProfile="tiny" xmlns="http://www.w3.org/2000/svg" viewBox="0 0 320 50" overflow="visible"><path fill="#FAE07E" d="M256.6 24.5h57.8v16.3h-57.8z"/><g fill="#193062"><path d="M264.1 30.3h.9v3.8h2.7v.9H264v-4.7zM268.6 30.3h3.7v.9h-2.7v1h1.5v.9h-1.5v1h2.7v.9h-3.7v-4.7zM274.2 31.3h-1.4v-.9h3.7v.9h-1.4v3.8h-.9v-3.8zM282.7 33.3c0 .3-.1.7-.2.9s-.4.5-.7.7c-.3.2-.6.2-1 .2s-.7-.1-1-.2c-.3-.2-.5-.4-.7-.7s-.2-.6-.2-.9v-2.9h.9v2.9c0 .2 0 .3.1.5s.2.3.3.4c.1.1.3.1.5.1s.3 0 .5-.1c.1-.1.3-.2.3-.4.1-.1.1-.3.1-.5v-2.9h.9v2.9zM285.3 31.2c-.1 0-.3 0-.4.1s-.2.1-.3.2c-.1.1-.1.2-.1.3 0 .1 0 .2.1.3l.2.2h.9c.1 0 .2 0 .3.1.3.1.5.2.7.5.2.2.3.5.3.8 0 .3-.1.6-.2.8-.1.2-.3.4-.6.5-.3.1-.6.2-.9.2-.3 0-.6-.1-.9-.2-.3-.1-.5-.3-.6-.5s-.2-.5-.2-.8h.9c0 .1 0 .2.1.3.1.1.2.2.3.2.1.1.3.1.4.1.2 0 .3 0 .4-.1s.2-.1.3-.2.1-.2.1-.3c0-.1 0-.2-.1-.3l-.2-.2c-.1 0-.1 0-.2-.1h-.7c-.1 0-.2 0-.3-.1-.3-.1-.5-.2-.7-.5-.2-.2-.2-.5-.2-.8 0-.3.1-.5.2-.8.1-.2.3-.4.6-.5.3-.1.5-.2.9-.2.3 0 .6.1.9.2s.5.3.6.5c.1.2.2.5.2.8H286c0-.1 0-.2-.1-.3s-.2-.2-.3-.2h-.3zM289.6 30.3h.9v1.9h1.9v-1.9h.9V35h-.9v-1.9h-1.9V35h-.9v-4.7zM294.5 30.3h3.7v.9h-2.7v1h1.5v.9h-1.5v1h2.7v.9h-3.7v-4.7zM299.1 30.3h.9v3.8h2.7v.9H299v-4.7zM307.3 32c0 .3-.1.6-.2.9-.1.3-.3.5-.6.6-.3.1-.6.2-.9.2h-1.1V35h-.9v-4.7h2c.3 0 .6.1.9.2.3.1.5.3.6.6.1.3.2.6.2.9zm-1 0c0-.2 0-.3-.1-.4l-.3-.3c-.1-.1-.3-.1-.4-.1h-1.1v1.6h1.1c.2 0 .3 0 .4-.1l.3-.3c.1-.1.1-.2.1-.4z"/></g></svg>