<?xml version="1.0" encoding="utf-8"?>
<!-- Generator: Adobe Illustrator 27.4.0, SVG Export Plug-In . SVG Version: 6.00 Build 0)  -->
<svg version="1.1" baseProfile="tiny" id="Layer_1" xmlns="http://www.w3.org/2000/svg" xmlns:xlink="http://www.w3.org/1999/xlink"
	 x="0px" y="0px" viewBox="0 0 160 600" overflow="visible" xml:space="preserve">
<g>
	<path fill="#193062" d="M16.4,296.5h2.9v5.4h5.3v-5.4h2.9v13.8h-2.9v-5.5h-5.3v5.5h-2.9V296.5z"/>
	<path fill="#193062" d="M39.1,306.5h-6.6c0.3,0.8,1.1,1.4,2.2,1.4c0.9,0,1.6-0.5,2-1.1l2.2,1.3c-0.8,1.4-2.4,2.3-4.3,2.3
		c-2.9,0-5-2.2-5-5c0-2.8,2-5,4.8-5c2.8,0,4.8,2.1,4.8,5C39.2,305.8,39.1,306.2,39.1,306.5z M32.4,304.5h4c-0.3-0.9-1-1.4-2-1.4
		C33.4,303.1,32.6,303.6,32.4,304.5z"/>
	<path fill="#193062" d="M41,295.9h2.8v14.4H41V295.9z"/>
	<path fill="#193062" d="M56.2,305.5c0,2.8-1.9,5-4.7,5c-0.9,0-1.7-0.3-2.4-0.7v4.5h-2.8v-13.5h2.7v0.5c0.6-0.5,1.5-0.8,2.4-0.8
		C54.2,300.5,56.2,302.7,56.2,305.5z M53.4,305.5c0-1.3-0.9-2.3-2.2-2.3c-1.3,0-2.2,1-2.2,2.3c0,1.2,0.9,2.2,2.2,2.2
		C52.5,307.8,53.4,306.8,53.4,305.5z"/>
	<path fill="#193062" d="M59.4,296c1,0,1.7,0.8,1.7,1.7c0,1-0.7,1.7-1.7,1.7s-1.7-0.8-1.7-1.7C57.7,296.8,58.4,296,59.4,296z
		 M60.8,310.3H58v-9.5h2.8V310.3z"/>
	<path fill="#193062" d="M72.1,304.3v6h-2.8v-5.4c0-0.9-0.6-1.6-1.6-1.6c-1,0-1.6,0.7-1.6,1.6v5.4h-2.8v-9.5h2.7v0.5
		c0.6-0.5,1.4-0.8,2.3-0.8C70.6,300.5,72.1,302.2,72.1,304.3z"/>
	<path fill="#193062" d="M83.5,300.8v9.2c0,2.6-1.9,4.5-4.7,4.5c-2.2,0-3.9-1.2-4.4-3l2.6-1c0.3,0.8,0.9,1.3,1.9,1.3
		c1.2,0,1.9-0.7,1.9-1.9v-0.7c-0.6,0.5-1.4,0.7-2.3,0.7c-2.6,0-4.5-2.1-4.5-4.7s1.9-4.7,4.4-4.7c0.9,0,1.7,0.3,2.3,0.8v-0.6H83.5z
		 M80.8,305.3c0-1.1-0.9-2-2-2c-1.2,0-2,0.9-2,2c0,1.1,0.9,2,2,2C79.9,307.3,80.8,306.4,80.8,305.3z"/>
</g>
<g>
	<path fill="#193062" d="M26.1,331.5c0,2.8-1.9,5-4.7,5c-0.9,0-1.7-0.3-2.4-0.7v4.5h-2.8v-13.5h2.7v0.5c0.6-0.5,1.5-0.8,2.4-0.8
		C24.1,326.5,26.1,328.7,26.1,331.5z M23.3,331.5c0-1.3-0.9-2.3-2.2-2.3c-1.3,0-2.2,1-2.2,2.3c0,1.2,0.9,2.2,2.2,2.2
		C22.4,333.8,23.3,332.8,23.3,331.5z"/>
	<path fill="#193062" d="M34,326.7v2.8h-1.4c-1.1,0-1.8,0.8-1.8,1.9v4.9h-2.8v-9.5h2.7v0.9c0.5-0.7,1.4-0.9,2.2-0.9H34z"/>
	<path fill="#193062" d="M39.9,326.5c2.9,0,5,2.2,5,5c0,2.7-2.1,5-5,5s-5-2.2-5-5C34.9,328.7,37,326.5,39.9,326.5z M39.9,333.7
		c1.3,0,2.2-1,2.2-2.2c0-1.3-0.9-2.2-2.2-2.2s-2.2,1-2.2,2.2C37.7,332.8,38.6,333.7,39.9,333.7z"/>
	<path fill="#193062" d="M49.8,326.7h2.9v2.7h-2.9v3.2c0,0.6,0.4,1,1,1h1.9v2.7h-2.5c-1.9,0-3.3-1.2-3.3-3.2v-3.7h-1.4V328l2.6-3.2
		h1.5V326.7z"/>
	<path fill="#193062" d="M63.4,332.5h-6.6c0.3,0.8,1.1,1.4,2.2,1.4c0.9,0,1.6-0.5,2-1.1l2.2,1.3c-0.8,1.4-2.4,2.3-4.3,2.3
		c-2.9,0-5-2.2-5-5c0-2.8,2-5,4.8-5c2.8,0,4.8,2.1,4.8,5C63.5,331.8,63.5,332.2,63.4,332.5z M56.7,330.5h4c-0.3-0.9-1-1.4-2-1.4
		C57.7,329.1,57,329.6,56.7,330.5z"/>
	<path fill="#193062" d="M69.7,326.5c1.8,0,3.3,0.9,4.1,2.2l-2.2,1.6c-0.4-0.6-1-1.1-1.9-1.1c-1.2,0-2.2,1-2.2,2.2
		c0,1.3,0.9,2.2,2.2,2.2c0.8,0,1.5-0.4,1.9-1.1l2.3,1.6c-0.8,1.4-2.3,2.2-4.1,2.2c-2.9,0-4.9-2.2-4.9-5
		C64.8,328.7,66.8,326.5,69.7,326.5z"/>
	<path fill="#193062" d="M78.6,326.7h2.9v2.7h-2.9v3.2c0,0.6,0.4,1,1,1h1.9v2.7H79c-1.9,0-3.3-1.2-3.3-3.2v-3.7h-1.4V328l2.6-3.2
		h1.5V326.7z"/>
	<path fill="#193062" d="M96.7,326.7l-4.9,13.5h-2.9l1.5-4.2l-3.4-9.3h3l1.8,5.2l1.9-5.2H96.7z"/>
	<path fill="#193062" d="M102.2,326.5c2.9,0,5,2.2,5,5c0,2.7-2.1,5-5,5s-5-2.2-5-5C97.2,328.7,99.3,326.5,102.2,326.5z M102.2,333.7
		c1.3,0,2.2-1,2.2-2.2c0-1.3-0.9-2.2-2.2-2.2s-2.2,1-2.2,2.2C100,332.8,100.9,333.7,102.2,333.7z"/>
	<path fill="#193062" d="M117.7,326.7v9.5H115v-0.5c-0.6,0.5-1.4,0.7-2.3,0.7c-2.1,0-3.7-1.6-3.7-3.8v-6h2.8v5.4
		c0,0.9,0.6,1.6,1.6,1.6c1,0,1.6-0.7,1.6-1.6v-5.4H117.7z"/>
	<path fill="#193062" d="M126.2,326.7v2.8h-1.4c-1.1,0-1.8,0.8-1.8,1.9v4.9h-2.8v-9.5h2.7v0.9c0.5-0.7,1.4-0.9,2.2-0.9H126.2z"/>
</g>
<g>
	<path fill="#193062" d="M17.1,355.4h-1.9v-2.7h1.9v-1.9c0-1.8,1.2-3,3.1-3h2.1v2.7h-1.6c-0.5,0-0.8,0.3-0.8,0.8v1.5h2.4v2.7h-2.4
		v6.9h-2.8V355.4z"/>
	<path fill="#193062" d="M31.6,356.3v6h-2.7v-0.5c-0.6,0.5-1.3,0.7-2.3,0.7c-2,0-3.3-1.2-3.3-3c0-2,1.5-2.8,3.3-3l2.3-0.2v-0.1
		c0-0.6-0.6-1.1-1.4-1.1c-0.7,0-1.2,0.4-1.4,0.9h-2.7c0.1-2,1.8-3.4,4-3.4C29.9,352.5,31.6,354.1,31.6,356.3z M28.8,358.9v-0.6
		l-1.9,0.2c-0.7,0.1-1,0.4-1,0.9c0,0.5,0.4,0.9,1.2,0.9C28.2,360.2,28.8,359.7,28.8,358.9z"/>
	<path fill="#193062" d="M47.9,356v6.2h-2.8v-5.6c0-0.8-0.5-1.4-1.4-1.4c-0.8,0-1.4,0.6-1.4,1.4v5.6h-2.8v-5.6
		c0-0.8-0.5-1.4-1.4-1.4c-0.8,0-1.4,0.6-1.4,1.4v5.6H34v-9.5h2.7v0.5c0.6-0.4,1.3-0.7,2.1-0.7c1,0,1.9,0.4,2.5,1
		c0.7-0.6,1.6-1,2.7-1C46.3,352.5,47.9,354,47.9,356z"/>
	<path fill="#193062" d="M51.8,348c1,0,1.7,0.8,1.7,1.7c0,1-0.7,1.7-1.7,1.7s-1.7-0.8-1.7-1.7C50,348.8,50.8,348,51.8,348z
		 M53.2,362.3h-2.8v-9.5h2.8V362.3z"/>
	<path fill="#193062" d="M55.7,347.8h2.8v14.4h-2.8V347.8z"/>
	<path fill="#193062" d="M69.5,352.7l-4.9,13.5h-2.9l1.5-4.2l-3.4-9.3h3l1.8,5.2l1.9-5.2H69.5z"/>
	<path fill="#193062" d="M73.9,349.9c0,0.2,0,0.4-0.1,0.6l-1.1,3.1H71l0.5-2.2c-0.6-0.2-1-0.8-1-1.6c0-1,0.7-1.7,1.7-1.7
		S73.9,349,73.9,349.9z"/>
	<path fill="#193062" d="M78.6,359.9c0.8,0,1.2-0.3,1.2-0.7c0-0.3-0.2-0.5-0.7-0.5s-1-0.1-1.7-0.2c-1.9-0.3-2.7-1.4-2.7-2.8
		c0-1.9,1.6-3.2,3.9-3.2c2.2,0,3.8,1.3,3.9,3.2h-2.7c0-0.4-0.5-0.7-1.2-0.7c-0.7,0-1.1,0.3-1.1,0.6c0,0.3,0.2,0.4,0.7,0.5
		c0.6,0.1,1,0.1,1.8,0.2c1.9,0.2,2.7,1.4,2.7,2.8c0,1.9-1.6,3.3-4,3.3c-2.3,0-4-1.4-4-3.3h2.7C77.3,359.6,77.9,359.9,78.6,359.9z"/>
</g>
<g>
	<path fill="#193062" d="M17.1,381.4h-1.9v-2.7h1.9v-1.9c0-1.8,1.2-3,3.1-3h2.1v2.7h-1.6c-0.5,0-0.8,0.3-0.8,0.8v1.5h2.4v2.7h-2.4
		v6.9h-2.8V381.4z"/>
	<path fill="#193062" d="M32.7,378.7v9.5H30v-0.5c-0.6,0.5-1.4,0.7-2.3,0.7c-2.1,0-3.7-1.6-3.7-3.8v-6h2.8v5.4
		c0,0.9,0.6,1.6,1.6,1.6c1,0,1.6-0.7,1.6-1.6v-5.4H32.7z"/>
	<path fill="#193062" d="M38.4,378.7h2.9v2.7h-2.9v3.2c0,0.6,0.4,1,1,1h1.9v2.7h-2.5c-1.9,0-3.3-1.2-3.3-3.2v-3.7h-1.4v-1.4l2.6-3.2
		h1.5V378.7z"/>
	<path fill="#193062" d="M51.9,378.7v9.5h-2.7v-0.5c-0.6,0.5-1.4,0.7-2.3,0.7c-2.1,0-3.7-1.6-3.7-3.8v-6h2.8v5.4
		c0,0.9,0.6,1.6,1.6,1.6c1,0,1.6-0.7,1.6-1.6v-5.4H51.9z"/>
	<path fill="#193062" d="M60.4,378.7v2.8H59c-1.1,0-1.8,0.8-1.8,1.9v4.9h-2.8v-9.5h2.7v0.9c0.5-0.7,1.4-0.9,2.2-0.9H60.4z"/>
	<path fill="#193062" d="M70.8,384.5h-6.6c0.3,0.8,1.1,1.4,2.2,1.4c0.9,0,1.6-0.5,2-1.1l2.2,1.3c-0.8,1.4-2.4,2.3-4.3,2.3
		c-2.9,0-5-2.2-5-5c0-2.8,2-5,4.8-5c2.8,0,4.8,2.1,4.8,5C70.9,383.8,70.9,384.2,70.8,384.5z M64.1,382.5h4c-0.3-0.9-1-1.4-2-1.4
		C65.1,381.1,64.4,381.6,64.1,382.5z"/>
	<path fill="#193062" d="M82.5,378.5c1.8,0,3.3,0.9,4.1,2.2l-2.2,1.6c-0.4-0.6-1-1.1-1.9-1.1c-1.2,0-2.2,1-2.2,2.2
		c0,1.3,0.9,2.2,2.2,2.2c0.8,0,1.5-0.4,1.9-1.1l2.3,1.6c-0.8,1.4-2.3,2.2-4.1,2.2c-2.9,0-4.9-2.2-4.9-5
		C77.6,380.7,79.7,378.5,82.5,378.5z"/>
	<path fill="#193062" d="M92.5,378.5c2.9,0,5,2.2,5,5c0,2.7-2.1,5-5,5s-5-2.2-5-5C87.5,380.7,89.6,378.5,92.5,378.5z M92.5,385.7
		c1.3,0,2.2-1,2.2-2.2c0-1.3-0.9-2.2-2.2-2.2s-2.2,1-2.2,2.2C90.3,384.7,91.2,385.7,92.5,385.7z"/>
	<path fill="#193062" d="M108,378.7v9.5h-2.7v-0.5c-0.6,0.5-1.4,0.7-2.3,0.7c-2.1,0-3.7-1.6-3.7-3.8v-6h2.8v5.4
		c0,0.9,0.6,1.6,1.6,1.6c1,0,1.6-0.7,1.6-1.6v-5.4H108z"/>
	<path fill="#193062" d="M110.5,373.8h2.8v14.4h-2.8V373.8z"/>
	<path fill="#193062" d="M125,373.8v14.4h-2.7v-0.6c-0.6,0.5-1.5,0.8-2.4,0.8c-2.8,0-4.7-2.2-4.7-5c0-2.8,1.9-5,4.7-5
		c0.9,0,1.7,0.3,2.4,0.7v-5.4H125z M122.3,383.5c0-1.3-0.9-2.3-2.2-2.3c-1.2,0-2.2,1-2.2,2.3c0,1.2,0.9,2.2,2.2,2.2
		C121.4,385.7,122.3,384.7,122.3,383.5z"/>
</g>
<g>
	<path fill="#193062" d="M19.6,411.9c0.8,0,1.2-0.3,1.2-0.7c0-0.3-0.2-0.5-0.7-0.5s-1-0.1-1.7-0.2c-1.9-0.3-2.7-1.4-2.7-2.8
		c0-1.9,1.6-3.2,3.9-3.2c2.2,0,3.8,1.3,3.9,3.2h-2.7c0-0.4-0.5-0.7-1.2-0.7c-0.7,0-1.1,0.3-1.1,0.6c0,0.3,0.2,0.4,0.7,0.5
		c0.6,0.1,1,0.1,1.8,0.2c1.9,0.2,2.7,1.4,2.7,2.8c0,1.9-1.6,3.3-4,3.3c-2.3,0-4-1.4-4-3.3h2.7C18.3,411.6,18.8,411.9,19.6,411.9z"/>
	<path fill="#193062" d="M28.5,404.7h2.9v2.7h-2.9v3.2c0,0.6,0.4,1,1,1h1.9v2.7h-2.5c-1.9,0-3.3-1.2-3.3-3.2v-3.7h-1.4v-1.4l2.6-3.2
		h1.5V404.7z"/>
	<path fill="#193062" d="M41.2,408.3v6h-2.7v-0.5c-0.6,0.5-1.3,0.7-2.3,0.7c-2,0-3.3-1.2-3.3-3c0-2,1.5-2.8,3.3-3l2.3-0.2v-0.1
		c0-0.6-0.6-1.1-1.4-1.1c-0.7,0-1.2,0.4-1.4,0.9H33c0.1-2,1.8-3.4,4-3.4C39.5,404.5,41.2,406.1,41.2,408.3z M38.4,410.9v-0.6
		l-1.9,0.2c-0.7,0.1-1,0.4-1,0.9c0,0.5,0.4,0.9,1.2,0.9C37.8,412.2,38.4,411.7,38.4,410.9z"/>
	<path fill="#193062" d="M49.7,404.7v2.8h-1.4c-1.1,0-1.8,0.8-1.8,1.9v4.9h-2.8v-9.5h2.7v0.9c0.5-0.7,1.4-0.9,2.2-0.9H49.7z"/>
	<path fill="#193062" d="M54.6,404.7h2.9v2.7h-2.9v3.2c0,0.6,0.4,1,1,1h1.9v2.7h-2.5c-1.9,0-3.3-1.2-3.3-3.2v-3.7h-1.4v-1.4l2.6-3.2
		h1.5V404.7z"/>
	<path fill="#193062" d="M78.3,404.7l-3.1,9.5h-2.9l-1.2-4l-1.2,4H67l-3.2-9.5h3l1.7,5.4l1.7-5.4H72l1.6,5.2l1.7-5.2H78.3z"/>
	<path fill="#193062" d="M81.1,400c1,0,1.7,0.8,1.7,1.7c0,1-0.7,1.7-1.7,1.7s-1.7-0.8-1.7-1.7C79.3,400.8,80.1,400,81.1,400z
		 M82.5,414.2h-2.8v-9.5h2.8V414.2z"/>
	<path fill="#193062" d="M88.1,404.7H91v2.7h-2.9v3.2c0,0.6,0.4,1,1,1H91v2.7h-2.5c-1.9,0-3.3-1.2-3.3-3.2v-3.7h-1.4v-1.4l2.6-3.2
		h1.5V404.7z"/>
	<path fill="#193062" d="M101.7,408.3v5.9h-2.8v-5.4c0-0.9-0.6-1.6-1.6-1.6c-1,0-1.6,0.7-1.6,1.6v5.4h-2.8v-14.4h2.8v5.4
		c0.6-0.5,1.4-0.7,2.3-0.7C100.2,404.5,101.7,406.1,101.7,408.3z"/>
</g>
<g>
	<path fill="#193062" d="M19.3,429.3h-3.9v-2.9h10.8v2.9h-3.9v10.9h-2.9V429.3z"/>
	<path fill="#193062" d="M32.3,430.7v2.8h-1.4c-1.1,0-1.8,0.8-1.8,1.9v4.9h-2.8v-9.5H29v0.9c0.5-0.7,1.4-0.9,2.2-0.9H32.3z"/>
	<path fill="#193062" d="M42.6,430.7v9.5h-2.7v-0.5c-0.6,0.5-1.4,0.7-2.3,0.7c-2.1,0-3.7-1.6-3.7-3.8v-6h2.8v5.4
		c0,0.9,0.6,1.6,1.6,1.6c1,0,1.6-0.7,1.6-1.6v-5.4H42.6z"/>
	<path fill="#193062" d="M49.7,429c-1.2,0-2,0.6-2,1.5c0,0.5,0.3,0.9,0.9,1.1c0.9,0.3,2.2,0.2,3.5,0.5c1.8,0.5,2.9,1.9,2.9,3.8
		c0,2.6-2,4.6-5.1,4.6c-3,0-5.2-1.8-5.2-4.5h2.9c0,1,1,1.7,2.3,1.7c1.4,0,2.2-0.7,2.2-1.6c0-0.6-0.4-1-0.9-1.2
		c-0.9-0.3-2.3-0.2-3.5-0.5c-1.8-0.5-2.8-1.9-2.8-3.7c0-2.6,2-4.4,5-4.4c2.9,0,5,1.7,5,4.3h-2.9C51.8,429.6,50.9,429,49.7,429z"/>
	<path fill="#193062" d="M60.1,430.7H63v2.7h-2.9v3.2c0,0.6,0.4,1,1,1H63v2.7h-2.5c-1.9,0-3.3-1.2-3.3-3.2v-3.7h-1.4v-1.4l2.6-3.2
		h1.5V430.7z"/>
	<path fill="#193062" d="M72.8,434.2v6H70v-0.5c-0.6,0.5-1.3,0.7-2.3,0.7c-2,0-3.3-1.2-3.3-3c0-2,1.5-2.8,3.3-3l2.3-0.2v-0.1
		c0-0.6-0.6-1.1-1.4-1.1c-0.7,0-1.2,0.4-1.4,0.9h-2.7c0.1-2,1.8-3.4,4-3.4C71.1,430.5,72.8,432.1,72.8,434.2z M70,436.9v-0.6
		l-1.9,0.2c-0.7,0.1-1,0.4-1,0.9c0,0.5,0.4,0.9,1.2,0.9C69.4,438.2,70,437.7,70,436.9z"/>
	<path fill="#193062" d="M84.1,430.7v9.2c0,2.6-1.9,4.5-4.7,4.5c-2.2,0-3.9-1.2-4.4-3l2.6-1c0.3,0.8,0.9,1.3,1.9,1.3
		c1.2,0,1.9-0.7,1.9-1.9v-0.7c-0.6,0.5-1.4,0.7-2.3,0.7c-2.6,0-4.5-2.1-4.5-4.7s1.9-4.7,4.4-4.7c0.9,0,1.7,0.3,2.3,0.8v-0.6H84.1z
		 M81.4,435.2c0-1.1-0.9-2-2-2c-1.2,0-2,0.9-2,2c0,1.1,0.9,2,2,2C80.5,437.2,81.4,436.3,81.4,435.2z"/>
	<path fill="#193062" d="M95.4,436.5h-6.6c0.3,0.8,1.1,1.4,2.2,1.4c0.9,0,1.6-0.5,2-1.1l2.2,1.3c-0.8,1.4-2.4,2.3-4.3,2.3
		c-2.9,0-5-2.2-5-5c0-2.8,2-5,4.8-5c2.8,0,4.8,2.1,4.8,5C95.5,435.8,95.5,436.1,95.4,436.5z M88.7,434.4h4c-0.3-0.9-1-1.4-2-1.4
		C89.7,433,89,433.5,88.7,434.4z"/>
	<path fill="#193062" d="M98.3,428h-1.5v-1.5h4.6v1.5h-1.5v3.9h-1.6V428z M102.2,426.4h1.6l1.2,2.5l1.2-2.5h1.6v5.4h-1.6v-2.5
		l-1.2,2.6l-1.2-2.5v2.4h-1.5V426.4z"/>
</g>
<g>
	<path fill="#193062" d="M16.4,452.4h2.9v10.9h7.9v2.9H16.4V452.4z"/>
	<path fill="#193062" d="M30.4,452c1,0,1.7,0.8,1.7,1.7c0,1-0.7,1.7-1.7,1.7s-1.7-0.8-1.7-1.7C28.7,452.7,29.4,452,30.4,452z
		 M31.8,466.2H29v-9.5h2.8V466.2z"/>
	<path fill="#193062" d="M35.2,459.3h-1.9v-2.7h1.9v-1.9c0-1.8,1.2-3,3.1-3h2.1v2.7h-1.6c-0.5,0-0.8,0.3-0.8,0.8v1.5h2.4v2.7H38v6.9
		h-2.8V459.3z"/>
	<path fill="#193062" d="M50.7,462.4h-6.6c0.3,0.8,1.1,1.4,2.2,1.4c0.9,0,1.6-0.5,2-1.1l2.2,1.3c-0.8,1.4-2.4,2.3-4.3,2.3
		c-2.9,0-5-2.2-5-5c0-2.8,2-5,4.8-5c2.8,0,4.8,2.1,4.8,5C50.8,461.8,50.8,462.1,50.7,462.4z M44,460.4h4c-0.3-0.9-1-1.4-2-1.4
		C45,459,44.3,459.5,44,460.4z"/>
	<path fill="#193062" d="M58.3,452.4h2.9v13.8h-2.9V452.4z"/>
	<path fill="#193062" d="M72.8,460.2v6H70v-5.4c0-0.9-0.6-1.6-1.6-1.6c-1,0-1.6,0.7-1.6,1.6v5.4H64v-9.5h2.7v0.5
		c0.6-0.5,1.4-0.8,2.3-0.8C71.2,456.5,72.8,458.1,72.8,460.2z"/>
	<path fill="#193062" d="M78.6,463.9c0.8,0,1.2-0.3,1.2-0.7c0-0.3-0.2-0.5-0.7-0.5s-1-0.1-1.7-0.2c-1.9-0.3-2.7-1.4-2.7-2.8
		c0-1.9,1.6-3.2,3.9-3.2c2.2,0,3.8,1.3,3.9,3.2h-2.7c0-0.4-0.5-0.7-1.2-0.7c-0.7,0-1.1,0.3-1.1,0.6c0,0.3,0.2,0.4,0.7,0.5
		c0.6,0.1,1,0.1,1.8,0.2c1.9,0.2,2.7,1.4,2.7,2.8c0,1.9-1.6,3.3-4,3.3c-2.3,0-4-1.4-4-3.3h2.7C77.3,463.6,77.8,463.9,78.6,463.9z"/>
	<path fill="#193062" d="M93.1,456.7v9.5h-2.7v-0.5c-0.6,0.5-1.4,0.7-2.3,0.7c-2.1,0-3.7-1.6-3.7-3.8v-6h2.8v5.4
		c0,0.9,0.6,1.6,1.6,1.6c1,0,1.6-0.7,1.6-1.6v-5.4H93.1z"/>
	<path fill="#193062" d="M101.6,456.7v2.8h-1.4c-1.1,0-1.8,0.8-1.8,1.9v4.9h-2.8v-9.5h2.7v0.9c0.5-0.7,1.4-0.9,2.2-0.9H101.6z"/>
	<path fill="#193062" d="M110.9,460.2v6h-2.7v-0.5c-0.6,0.5-1.3,0.7-2.3,0.7c-2,0-3.3-1.2-3.3-3c0-2,1.5-2.8,3.3-3l2.3-0.2v-0.1
		c0-0.6-0.6-1.1-1.4-1.1c-0.7,0-1.2,0.4-1.4,0.9h-2.7c0.1-2,1.8-3.4,4-3.4C109.2,456.5,110.9,458.1,110.9,460.2z M108.1,462.9v-0.6
		l-1.9,0.2c-0.7,0.1-1,0.4-1,0.9c0,0.5,0.4,0.9,1.2,0.9C107.5,464.2,108.1,463.7,108.1,462.9z"/>
	<path fill="#193062" d="M122.1,460.2v6h-2.8v-5.4c0-0.9-0.6-1.6-1.6-1.6c-1,0-1.6,0.7-1.6,1.6v5.4h-2.8v-9.5h2.7v0.5
		c0.6-0.5,1.4-0.8,2.3-0.8C120.5,456.5,122.1,458.1,122.1,460.2z"/>
	<path fill="#193062" d="M128.8,456.5c1.8,0,3.3,0.9,4.1,2.2l-2.2,1.6c-0.4-0.6-1-1.1-1.9-1.1c-1.2,0-2.2,1-2.2,2.2
		c0,1.3,0.9,2.2,2.2,2.2c0.8,0,1.5-0.4,1.9-1.1l2.3,1.6c-0.8,1.4-2.3,2.2-4.1,2.2c-2.9,0-4.9-2.2-4.9-5
		C123.9,458.6,126,456.5,128.8,456.5z"/>
	<path fill="#193062" d="M143.3,462.4h-6.6c0.3,0.8,1.1,1.4,2.2,1.4c0.9,0,1.6-0.5,2-1.1l2.2,1.3c-0.8,1.4-2.4,2.3-4.3,2.3
		c-2.9,0-5-2.2-5-5c0-2.8,2-5,4.8-5c2.8,0,4.8,2.1,4.8,5C143.4,461.8,143.3,462.1,143.3,462.4z M136.6,460.4h4c-0.3-0.9-1-1.4-2-1.4
		C137.6,459,136.8,459.5,136.6,460.4z"/>
	<path fill="#193062" d="M146.6,462.8c1,0,1.7,0.8,1.7,1.7c0,1-0.7,1.7-1.7,1.7c-1,0-1.7-0.8-1.7-1.7
		C144.9,463.6,145.6,462.8,146.6,462.8z"/>
</g>
</svg>
