<?xml version="1.0" encoding="utf-8"?>
<!-- Generator: Adobe Illustrator 27.4.0, SVG Export Plug-In . SVG Version: 6.00 Build 0)  -->
<svg version="1.1" baseProfile="tiny" id="Layer_1" xmlns="http://www.w3.org/2000/svg" xmlns:xlink="http://www.w3.org/1999/xlink"
	 x="0px" y="0px" viewBox="0 0 160 600" overflow="visible" xml:space="preserve">
<rect x="31.1" y="21.5" fill="#FAE07E" width="15.2" height="4.2"/>
<rect x="47.5" y="21.5" fill="#FFFFFF" width="3.7" height="4.2"/>
<rect x="31.1" y="26.8" fill="#FAE07E" width="11.3" height="4.2"/>
<rect x="43.7" y="26.8" fill="#FFFFFF" width="7.5" height="4.2"/>
<rect x="31.1" y="32.1" fill="#FAE07E" width="7.5" height="4.2"/>
<rect x="39.8" y="32.1" fill="#FFFFFF" width="11.3" height="4.2"/>
<rect x="31.1" y="37.4" fill="#FAE07E" width="3.7" height="4.2"/>
<rect x="36" y="37.4" fill="#FFFFFF" width="15.2" height="4.2"/>
<polygon fill="#FFFFFF" points="63,27.6 59.6,27.6 59.6,25.7 68.3,25.7 68.3,27.6 64.9,27.6 64.9,37.4 63,37.4 "/>
<g>
	<path fill="none" d="M101.8,30.7c-1.5,0-2.4,1.2-2.4,2.6s1,2.6,2.4,2.6s2.4-1.2,2.4-2.6S103.3,30.7,101.8,30.7z"/>
	<path fill="none" d="M121.1,30.5c-1,0-2.1,0.6-2.4,1.8h4.6C123.1,31.2,122.1,30.5,121.1,30.5z"/>
	<path fill="none" d="M111.5,30.7c-1.4,0-2.4,1.1-2.4,2.5c0,1.5,1,2.5,2.4,2.5c1.4,0,2.4-1.1,2.4-2.5
		C114,31.7,112.9,30.7,111.5,30.7z"/>
	<path fill="#FFFFFF" d="M67.9,29.2v8.2h1.8v-4c0-1.6,0.9-2.5,2-2.5c0.3,0,0.6,0,0.9,0.1v-1.9c-0.2,0-0.5-0.1-0.7-0.1
		c-0.9,0-1.9,0.6-2.2,1.5v-1.5H67.9z"/>
	<path fill="#FFFFFF" d="M74,29.2v4.9c0,2.1,1.2,3.5,3.1,3.5c1,0,1.9-0.5,2.4-1.3v1.1h1.8v-8.2h-1.8v4.1c0,1.8-0.8,2.7-2,2.7
		c-1,0-1.6-0.8-1.6-2.1v-4.6H74z"/>
	<path fill="#FFFFFF" d="M86.6,35.8c-1.1,0-2.1-0.6-2.7-1.5l-1.5,1.2c0.7,1.3,2.3,2.1,4.2,2.1c2.3,0,3.9-1.3,3.9-3.4
		c0-1.7-1-2.8-2.7-3.4l-1.2-0.4c-1.2-0.4-1.8-0.8-1.8-1.7c0-0.8,0.9-1.3,1.8-1.3c0.9,0,1.6,0.4,2.2,1.1l1.3-1.3
		c-0.9-1-2.1-1.6-3.5-1.6c-2.2,0-3.8,1.3-3.8,3.3c0,1.6,0.9,2.6,2.8,3.3l1.3,0.5c1.1,0.4,1.7,1,1.7,1.8
		C88.5,35.2,87.7,35.8,86.6,35.8z"/>
	<path fill="#FFFFFF" d="M105.9,37.4v-8.2h-1.8v1.1c-0.5-0.7-1.4-1.3-2.6-1.3c-2.2,0-4,1.9-4,4.3c0,2.4,1.7,4.3,4,4.3
		c1.2,0,2.2-0.6,2.6-1.3v1.1H105.9z M101.8,35.9c-1.5,0-2.4-1.2-2.4-2.6s1-2.6,2.4-2.6s2.4,1.2,2.4,2.6S103.3,35.9,101.8,35.9z"/>
	<path fill="#FFFFFF" d="M111.3,39.4c-1.1,0-2-0.4-2.7-1.2l-1.1,1.3c0.8,0.9,2.2,1.5,3.8,1.5c2.4,0,4.3-1.3,4.3-4.2v-7.7h-1.8v1.1
		c-0.5-0.7-1.5-1.3-2.6-1.3c-2.2,0-3.9,1.8-3.9,4.2c0,2.3,1.7,4.2,3.9,4.2c1.1,0,2.1-0.6,2.6-1.3v0.8
		C113.8,38.5,112.7,39.4,111.3,39.4z M111.5,35.7c-1.4,0-2.4-1.1-2.4-2.5c0-1.5,1-2.5,2.4-2.5c1.4,0,2.4,1.1,2.4,2.5
		C114,34.6,112.9,35.7,111.5,35.7z"/>
	<path fill="#FFFFFF" d="M121.2,29c-2.5,0-4.3,1.9-4.3,4.3c0,2.5,1.8,4.3,4.3,4.3c1.7,0,3-0.7,3.7-1.9l-1.4-1
		c-0.4,0.7-1.2,1.3-2.3,1.3c-1.4,0-2.4-0.9-2.5-2.2h6.5c0-0.3,0-0.4,0-0.6C125.1,30.4,123.3,29,121.2,29z M118.7,32.4
		c0.2-1.2,1.3-1.8,2.4-1.8c1.1,0,2,0.6,2.2,1.8H118.7z"/>
	<path fill="#FFFFFF" d="M92.5,26.9l0,1c0,0.7-0.6,1.3-1.2,1.3l-0.5,0v1.6h1.7v4c0,1.9,1.2,2.7,2.8,2.7c0.6,0,1-0.1,1.3-0.2v-1.6
		c-0.3,0.1-0.6,0.2-1,0.2c-0.9,0-1.4-0.4-1.4-1.4v-3.7h2.3v-1.6h-2.3v-2.3H92.5z"/>
	<polygon fill="#FFFFFF" points="126.2,27.8 125.8,26.9 125.5,26.9 125.5,28.3 125.8,28.3 125.8,27.5 126.2,28.4 126.6,27.5 
		126.6,28.3 126.9,28.3 126.9,26.9 126.6,26.9 	"/>
	<polygon fill="#FFFFFF" points="124.8,28.3 124.8,27.2 125.3,27.2 125.3,26.9 124.1,26.9 124.1,27.2 124.5,27.2 124.5,28.3 	"/>
</g>
</svg>
