<svg baseProfile="tiny" xmlns="http://www.w3.org/2000/svg" viewBox="0 0 728 90" overflow="visible"><g fill="#FFF"><path d="M17.7 75.8c0 .7-.2 1.3-.5 1.8s-.7.9-1.3 1.2c-.5.3-1.1.5-1.8.5s-1.3-.2-1.9-.5c-.6-.3-1-.8-1.3-1.3s-.5-1.2-.5-1.9.2-1.4.5-1.9c.3-.6.8-1 1.3-1.3s1.2-.5 1.9-.5 1.3.2 1.9.5 1 .7 1.3 1.3l-.6.4c-.3-.4-.6-.8-1-1-.4-.3-.9-.4-1.5-.4s-1.1.1-1.5.4c-.4.3-.8.6-1 1.1s-.4 1-.4 1.6c0 .6.1 1.1.4 1.6s.6.8 1 1.1.9.4 1.5.4c.5 0 .9-.1 1.3-.3s.7-.4.9-.7.4-.7.5-1.1h-3.1v-.7h3.9zM18.9 71.9h5.4v.7h-4.6v2.5h2.7v.7h-2.7v2.6h4.6v.7h-5.4v-7.2zM31.3 71.9v7.3h-.8l-4-6v6h-.8v-7.3h.8l4 6v-6h.8zM35 76v.7h-2.3V76H35zM41.4 76.2v.7H40v2.3h-.8v-2.3H36v-.6l3.2-4.4h.8v4.3h1.4zm-2.1 0V73L37 76.2h2.3zM42 71.9h4.6v.7l-2.9 6.6H43l2.9-6.6H42v-.7zM52.4 77.2c0 .4-.1.8-.3 1.1s-.5.6-.8.8c-.3.2-.7.3-1.2.3s-.8-.2-1.1-.4c-.3-.2-.6-.4-.8-.8s-.3-.7-.3-1.1c0-.4.1-.7.3-1s.4-.5.7-.7c-.3-.2-.5-.4-.6-.7s-.3-.6-.3-.9c0-.4.1-.7.3-1s.4-.5.8-.7.7-.3 1.1-.3.8.1 1.1.3.6.4.8.7.3.7.3 1c0 .3-.1.7-.2.9s-.4.5-.6.7c.3.2.5.4.7.7s.1.7.1 1.1zm-.8-.1c0-.3-.1-.5-.2-.7s-.3-.4-.5-.5c-.2-.1-.5-.2-.8-.2s-.6.1-.8.2c-.2.1-.4.3-.5.5s-.2.5-.2.7.1.5.2.7.3.4.5.5c.2.1.5.2.8.2.3 0 .6-.1.8-.2.2-.1.4-.3.5-.5s.2-.4.2-.7zm-2.8-3.3c0 .3.1.5.2.7.1.2.3.4.5.5s.4.2.7.2.5-.1.7-.2.4-.3.5-.5c.1-.2.2-.4.2-.7s-.1-.5-.2-.7-.3-.4-.5-.5-.4-.2-.7-.2-.5.1-.7.2-.4.3-.5.5-.2.4-.2.7zM58.2 77.2c0 .4-.1.8-.3 1.1-.2.3-.5.6-.8.8-.3.2-.7.3-1.1.3-.4 0-.8-.1-1.2-.3s-.6-.4-.8-.8-.3-.7-.3-1.1h.8c0 .3.1.5.2.7s.3.4.5.5c.2.1.5.2.8.2.3 0 .5-.1.8-.2s.4-.3.5-.5.2-.4.2-.7c0-.3-.1-.5-.2-.7-.1-.2-.3-.4-.5-.5-.2-.1-.5-.2-.7-.2h-.7v-.7h.6c.3 0 .5-.1.7-.2.2-.1.4-.3.5-.5s.2-.4.2-.7c0-.3-.1-.5-.2-.7-.1-.2-.3-.3-.5-.4-.2-.1-.4-.2-.7-.2-.3 0-.5.1-.7.2s-.4.2-.5.4c-.1.2-.2.4-.2.6h-.8c0-.4.1-.7.3-1 .2-.3.4-.5.7-.7.3-.2.7-.3 1.1-.3.4 0 .8.1 1.1.3.3.2.6.4.7.7s.3.6.3 1c0 .3-.1.7-.2.9s-.4.5-.7.7c.3.2.5.4.7.7s.4.9.4 1.3zM61.4 72.7l-2 1.2v-.8l2-1.2h.8v7.3h-.8v-6.5zM63.9 71.9h4.6v.7l-2.9 6.6h-.8l2.9-6.6h-3.8v-.7zM74.5 76.2v.7h-1.4v2.3h-.8v-2.3H69v-.6l3.2-4.4h.8v4.3h1.5zm-2.2 0V73L70 76.2h2.3zM76 78.1c.2 0 .3.1.4.2s.2.2.2.4-.1.3-.2.4c-.1.1-.2.2-.4.2s-.3-.1-.4-.2c-.1-.1-.2-.2-.2-.4s.1-.3.2-.4.2-.2.4-.2zM82.5 78.4v.7H78v-.7l2.9-3.1c.2-.3.4-.5.5-.7s.2-.5.2-.7c0-.3-.1-.5-.2-.7s-.3-.4-.5-.5-.5-.2-.8-.2c-.3 0-.5.1-.7.2-.2.1-.4.3-.5.5-.1.2-.2.5-.2.7H78c0-.4.1-.8.3-1.1s.4-.6.8-.8.7-.3 1.2-.3c.4 0 .8.1 1.1.3.3.2.6.4.8.8s.3.7.3 1.1c0 .4-.1.7-.2 1s-.4.6-.7 1L79 78.4h3.5z"/></g></svg>