<svg baseProfile="tiny" xmlns="http://www.w3.org/2000/svg" viewBox="0 0 728 90" overflow="visible"><g fill="#193062"><path d="M224.3 15.1c-1.3 0-2.1.7-2.1 1.5 0 .6.4.9.9 1.1.9.3 2.3.2 3.7.6 1.9.6 3.1 2 3.1 4 0 2.8-2.2 4.8-5.4 4.8-3.1 0-5.5-1.9-5.5-4.7h3.1c0 1.1 1 1.8 2.4 1.8 1.5 0 2.3-.7 2.3-1.7 0-.7-.4-1.1-.9-1.2-.9-.3-2.4-.2-3.7-.6-1.9-.5-3-2-3-3.9 0-2.7 2.1-4.7 5.2-4.7s5.3 1.8 5.3 4.5h-3.1c-.1-.9-1-1.5-2.3-1.5zM235.3 16.9h3.1v2.8h-3.1v3.4c0 .7.4 1.1 1.1 1.1h2V27h-2.6c-2 0-3.4-1.3-3.4-3.4v-3.9h-1.5v-1.5l2.8-3.4h1.6v2.1zM241.9 11.9c1.1 0 1.8.8 1.8 1.8s-.8 1.8-1.8 1.8c-1.1 0-1.8-.8-1.8-1.8s.8-1.8 1.8-1.8zm1.5 15.1h-3V16.9h3V27zM246 11.7h3V27h-3V11.7zM251.6 11.7h3V27h-3V11.7zM266.6 24.5c.8 0 1.3-.3 1.3-.7 0-.3-.3-.5-.8-.5-.5-.1-1.1-.1-1.8-.2-2-.3-2.9-1.5-2.9-3 0-2 1.6-3.4 4.1-3.4 2.4 0 4.1 1.4 4.1 3.4h-2.9c0-.5-.5-.7-1.2-.7s-1.2.3-1.2.7c0 .3.2.4.7.5.6.1 1.1.1 1.9.2 2 .2 2.9 1.5 2.9 3 0 2-1.7 3.5-4.2 3.5s-4.2-1.4-4.2-3.5h2.9c-.1.4.5.7 1.3.7zM282 23h-7c.3.9 1.2 1.5 2.3 1.5 1 0 1.7-.5 2.1-1.2l2.4 1.4c-.9 1.5-2.5 2.5-4.5 2.5-3 0-5.2-2.3-5.2-5.2 0-3 2.1-5.3 5.1-5.3 3 0 5.1 2.2 5.1 5.2-.1.4-.2.7-.3 1.1zm-7-2.2h4.3c-.3-1-1.1-1.5-2.1-1.5-1.2.1-2 .6-2.2 1.5zM292.5 20.6V27h-2.9v-.5c-.6.5-1.4.8-2.5.8-2.1 0-3.5-1.3-3.5-3.2 0-2.1 1.6-3 3.5-3.1l2.5-.2v-.1c0-.7-.7-1.2-1.5-1.2-.7 0-1.3.4-1.5.9h-2.8c.1-2.1 1.9-3.6 4.3-3.6 2.6-.1 4.4 1.5 4.4 3.8zm-2.9 2.8v-.6l-2 .2c-.7.1-1.1.4-1.1.9s.5.9 1.3.9c1.1 0 1.8-.5 1.8-1.4zM301.4 16.9v2.9h-1.5c-1.1 0-1.9.9-1.9 2V27h-3V16.9h2.9v.9c.6-.7 1.5-.9 2.3-.9h1.2zM307.6 16.7c1.9 0 3.5.9 4.4 2.4l-2.4 1.7c-.4-.7-1.1-1.2-2-1.2-1.3 0-2.3 1-2.3 2.4s1 2.4 2.3 2.4c.9 0 1.5-.5 2-1.1L312 25c-.9 1.4-2.5 2.4-4.4 2.4-3 0-5.2-2.3-5.2-5.3 0-3.1 2.2-5.4 5.2-5.4zM322.9 20.7V27h-3v-5.7c0-1-.6-1.7-1.7-1.7s-1.7.8-1.7 1.7V27h-3V11.7h3v5.7c.7-.5 1.5-.8 2.4-.8 2.3.1 4 1.8 4 4.1zM327 11.9c1.1 0 1.8.8 1.8 1.8s-.8 1.8-1.8 1.8c-1.1 0-1.8-.8-1.8-1.8-.1-1 .7-1.8 1.8-1.8zm1.4 15.1h-3V16.9h3V27zM340.4 20.7V27h-3v-5.7c0-1-.6-1.7-1.7-1.7-1 0-1.7.8-1.7 1.7V27h-3V16.9h2.9v.6c.7-.5 1.5-.8 2.5-.8 2.3 0 4 1.7 4 4zM352.4 16.9v9.8c0 2.7-2 4.8-5 4.8-2.3 0-4.1-1.3-4.7-3.2l2.7-1c.3.9 1 1.4 2 1.4 1.2 0 2.1-.8 2.1-2V26c-.6.5-1.5.7-2.4.7-2.7 0-4.7-2.2-4.7-5s2-5 4.7-5c1 0 1.8.3 2.5.8v-.6h2.8zm-2.9 4.8c0-1.2-.9-2.1-2.1-2.1-1.2 0-2.1.9-2.1 2.1 0 1.1.9 2.1 2.1 2.1 1.2 0 2.1-1 2.1-2.1zM361.8 19.7h-2v-2.8h2v-2c0-1.9 1.3-3.1 3.2-3.1h2.3v2.8h-1.7c-.5 0-.8.3-.8.8v1.5h2.5v2.8h-2.5V27h-3v-7.3zM373.4 16.7c3 0 5.3 2.3 5.3 5.3 0 2.9-2.2 5.2-5.3 5.2s-5.3-2.4-5.3-5.2c.1-3 2.3-5.3 5.3-5.3zm0 7.6c1.3 0 2.3-1 2.3-2.3 0-1.3-1-2.4-2.3-2.4-1.3 0-2.3 1-2.3 2.4 0 1.2 1 2.3 2.3 2.3zM387 16.9v2.9h-1.5c-1.1 0-1.9.9-1.9 2V27h-3V16.9h2.9v.9c.6-.7 1.5-.9 2.3-.9h1.2zM394.7 12.4h3.1V24h8.3v3h-11.4V12.4zM409.6 11.9c1.1 0 1.8.8 1.8 1.8s-.8 1.8-1.8 1.8c-1.1 0-1.8-.8-1.8-1.8-.1-1 .7-1.8 1.8-1.8zM411 27h-3V16.9h3V27zM414.7 19.7h-2v-2.8h2v-2c0-1.9 1.3-3.1 3.2-3.1h2.3v2.8h-1.7c-.5 0-.8.3-.8.8v1.5h2.5v2.8h-2.5V27h-3v-7.3zM431.1 23h-7c.3.9 1.2 1.5 2.3 1.5 1 0 1.7-.5 2.1-1.2l2.4 1.4c-.9 1.5-2.5 2.5-4.5 2.5-3 0-5.2-2.3-5.2-5.2 0-3 2.1-5.3 5.1-5.3 3 0 5.1 2.2 5.1 5.2-.2.4-.3.7-.3 1.1zm-7.1-2.2h4.3c-.3-1-1.1-1.5-2.1-1.5-1.2.1-2 .6-2.2 1.5zM439.1 12.4h3.1V27h-3.1V12.4zM454.4 20.7V27h-3v-5.7c0-1-.6-1.7-1.7-1.7s-1.7.8-1.7 1.7V27h-3V16.9h2.9v.6c.7-.5 1.5-.8 2.5-.8 2.3 0 4 1.7 4 4zM460.6 24.5c.8 0 1.3-.3 1.3-.7 0-.3-.3-.5-.8-.5s-1.1-.1-1.8-.2c-2-.3-2.9-1.5-2.9-3 0-2 1.6-3.4 4.1-3.4 2.4 0 4.1 1.4 4.1 3.4h-2.9c0-.5-.5-.7-1.2-.7s-1.2.3-1.2.7c0 .3.2.4.7.5.6.1 1.1.1 1.9.2 2 .2 2.9 1.5 2.9 3 0 2-1.7 3.5-4.2 3.5s-4.2-1.4-4.2-3.5h2.9c-.1.4.4.7 1.3.7zM475.9 16.9V27H473v-.6c-.7.5-1.5.8-2.4.8-2.3 0-3.9-1.7-3.9-4v-6.3h3v5.7c0 .9.6 1.7 1.7 1.7 1 0 1.7-.8 1.7-1.7v-5.7h2.8zM484.9 16.9v2.9h-1.5c-1.1 0-1.9.9-1.9 2V27h-3V16.9h2.9v.9c.6-.7 1.5-.9 2.3-.9h1.2zM494.7 20.6V27h-2.9v-.5c-.6.5-1.4.8-2.5.8-2.1 0-3.5-1.3-3.5-3.2 0-2.1 1.6-3 3.5-3.1l2.5-.2v-.1c0-.7-.7-1.2-1.5-1.2-.7 0-1.3.4-1.5.9H486c.1-2.1 1.9-3.6 4.3-3.6 2.6-.1 4.4 1.5 4.4 3.8zm-2.9 2.8v-.6l-2 .2c-.7.1-1.1.4-1.1.9s.5.9 1.3.9c1.1 0 1.8-.5 1.8-1.4zM506.6 20.7V27h-3v-5.7c0-1-.6-1.7-1.7-1.7-1 0-1.7.8-1.7 1.7V27h-3V16.9h2.9v.6c.7-.5 1.5-.8 2.5-.8 2.3 0 4 1.7 4 4zM513.7 16.7c1.9 0 3.5.9 4.4 2.4l-2.4 1.7c-.4-.7-1.1-1.2-2-1.2-1.3 0-2.3 1-2.3 2.4s1 2.4 2.3 2.4c.9 0 1.5-.5 2-1.1l2.4 1.7c-.9 1.4-2.5 2.4-4.4 2.4-3 0-5.2-2.3-5.2-5.3 0-3.1 2.2-5.4 5.2-5.4zM529 23h-7c.3.9 1.2 1.5 2.3 1.5 1 0 1.7-.5 2.1-1.2l2.4 1.4c-.9 1.5-2.5 2.5-4.5 2.5-3 0-5.2-2.3-5.2-5.2 0-3 2.1-5.3 5.1-5.3 3 0 5.1 2.2 5.1 5.2-.2.4-.3.7-.3 1.1zm-7.1-2.2h4.3c-.3-1-1.1-1.5-2.1-1.5-1.2.1-2 .6-2.2 1.5z"/></g><g fill="#193062"><path d="M222.8 40.9h3.1v2.8h-3.1v3.4c0 .7.4 1.1 1.1 1.1h2V51h-2.6c-2 0-3.4-1.3-3.4-3.4v-3.9h-1.5v-1.5l2.8-3.4h1.6v2.1zM237.2 44.7V51h-3v-5.7c0-1-.6-1.7-1.7-1.7s-1.7.8-1.7 1.7V51h-3V35.7h3v5.7c.7-.5 1.5-.8 2.4-.8 2.3.1 4 1.8 4 4.1zM248.1 44.6V51h-2.9v-.5c-.6.5-1.4.8-2.5.8-2.1 0-3.5-1.3-3.5-3.2 0-2.1 1.6-3 3.5-3.1l2.5-.2v-.1c0-.7-.7-1.2-1.5-1.2-.7 0-1.3.4-1.5.9h-2.8c.1-2.1 1.9-3.6 4.3-3.6 2.7-.1 4.4 1.5 4.4 3.8zm-2.9 2.8v-.6l-2 .2c-.7.1-1.1.4-1.1.9s.5.9 1.3.9c1.2 0 1.8-.5 1.8-1.4zM254 40.9h3.1v2.8H254v3.4c0 .7.4 1.1 1.1 1.1h2V51h-2.6c-2 0-3.4-1.3-3.4-3.4v-3.9h-1.5v-1.5l2.8-3.4h1.6v2.1zM265.8 43.7h-2v-2.8h2v-2c0-1.9 1.3-3.1 3.2-3.1h2.3v2.8h-1.7c-.5 0-.8.3-.8.8v1.5h2.5v2.8h-2.5V51h-3v-7.3zm8.8-7.8c1.1 0 1.8.8 1.8 1.8s-.8 1.8-1.8 1.8c-1.1 0-1.8-.8-1.8-1.8s.8-1.8 1.8-1.8zm1.5 15.1h-3V40.9h3V51zM282.1 40.9h3.1v2.8h-3.1v3.4c0 .7.4 1.1 1.1 1.1h2V51h-2.6c-2 0-3.4-1.3-3.4-3.4v-3.9h-1.5v-1.5l2.8-3.4h1.6v2.1zM290.8 48.5c.8 0 1.3-.3 1.3-.7 0-.3-.3-.5-.8-.5-.5-.1-1.1-.1-1.8-.2-2-.3-2.9-1.5-2.9-3 0-2 1.6-3.4 4.1-3.4 2.4 0 4.1 1.4 4.1 3.4h-2.9c0-.5-.5-.7-1.2-.7s-1.2.3-1.2.7c0 .3.2.4.7.5.6.1 1.1.1 1.9.2 2 .2 2.9 1.5 2.9 3 0 2-1.7 3.5-4.2 3.5s-4.2-1.4-4.2-3.5h2.9c-.1.4.4.7 1.3.7zM310.9 40.9l-5.2 14.3h-3.1l1.6-4.5-3.6-9.9h3.2l1.9 5.5 2-5.5h3.2zM316.7 40.7c3 0 5.3 2.3 5.3 5.3 0 2.9-2.2 5.2-5.3 5.2s-5.3-2.4-5.3-5.2c.1-3 2.3-5.3 5.3-5.3zm0 7.6c1.3 0 2.3-1 2.3-2.3 0-1.3-1-2.4-2.3-2.4s-2.3 1-2.3 2.4c0 1.2 1 2.3 2.3 2.3zM333.2 40.9V51h-2.9v-.6c-.7.5-1.5.8-2.4.8-2.3 0-3.9-1.7-3.9-4v-6.3h3v5.7c0 .9.6 1.7 1.7 1.7 1 0 1.7-.8 1.7-1.7v-5.7h2.8zM342.2 40.9v2.9h-1.5c-1.1 0-1.9.9-1.9 2V51h-3V40.9h2.9v.9c.6-.7 1.5-.9 2.3-.9h1.2zM350.6 43.7h-2v-2.8h2v-2c0-1.9 1.3-3.1 3.2-3.1h2.3v2.8h-1.7c-.5 0-.8.3-.8.8v1.5h2.5v2.8h-2.5V51h-3v-7.3zM366 44.6V51h-2.9v-.5c-.6.5-1.4.8-2.5.8-2.1 0-3.5-1.3-3.5-3.2 0-2.1 1.6-3 3.5-3.1l2.5-.2v-.1c0-.7-.7-1.2-1.5-1.2-.7 0-1.3.4-1.5.9h-2.8c.1-2.1 1.9-3.6 4.3-3.6 2.6-.1 4.4 1.5 4.4 3.8zm-2.9 2.8v-.6l-2 .2c-.7.1-1.1.4-1.1.9s.5.9 1.3.9c1.1 0 1.8-.5 1.8-1.4zM383.3 44.4V51h-3v-6c0-.8-.5-1.5-1.5-1.5-.9 0-1.4.7-1.4 1.5v6h-3v-6c0-.8-.5-1.5-1.5-1.5-.9 0-1.5.7-1.5 1.5v6h-3V40.9h2.9v.5c.6-.4 1.4-.7 2.3-.7 1.1 0 2 .4 2.6 1 .7-.6 1.7-1 2.8-1 2.5 0 4.3 1.5 4.3 3.7zM387.3 35.9c1.1 0 1.8.8 1.8 1.8s-.8 1.8-1.8 1.8c-1.1 0-1.8-.8-1.8-1.8s.8-1.8 1.8-1.8zm1.5 15.1h-3V40.9h3V51zM391.4 35.7h3V51h-3V35.7zM406 40.9l-5.2 14.3h-3.1l1.6-4.5-3.6-9.9h3.2l1.9 5.5 2-5.5h3.2zM410.7 37.9c0 .2 0 .5-.1.7l-1.2 3.3h-1.7l.6-2.3c-.7-.2-1.1-.9-1.1-1.7 0-1 .7-1.8 1.8-1.8 1 0 1.7.8 1.7 1.8zM415.8 48.5c.8 0 1.3-.3 1.3-.7 0-.3-.3-.5-.8-.5-.5-.1-1.1-.1-1.8-.2-2-.3-2.9-1.5-2.9-3 0-2 1.6-3.4 4.1-3.4 2.4 0 4.1 1.4 4.1 3.4h-2.9c0-.5-.5-.7-1.2-.7s-1.2.3-1.2.7c0 .3.2.4.7.5.6.1 1.1.1 1.9.2 2 .2 2.9 1.5 2.9 3 0 2-1.7 3.5-4.2 3.5s-4.2-1.4-4.2-3.5h2.9c-.1.4.4.7 1.3.7zM436.9 44.7V51h-3v-5.7c0-1-.6-1.7-1.7-1.7s-1.7.8-1.7 1.7V51h-3V40.9h2.9v.6c.7-.5 1.5-.8 2.5-.8 2.4 0 4 1.7 4 4zM448.9 47h-7c.3.9 1.2 1.5 2.3 1.5 1 0 1.7-.5 2.1-1.2l2.4 1.4c-.9 1.5-2.5 2.5-4.5 2.5-3 0-5.2-2.3-5.2-5.2 0-3 2.1-5.3 5.1-5.3 3 0 5.1 2.2 5.1 5.2-.2.4-.3.7-.3 1.1zm-7.1-2.2h4.3c-.3-1-1.1-1.5-2.1-1.5-1.2.1-2 .6-2.2 1.5zM460.3 47h-7c.3.9 1.2 1.5 2.3 1.5 1 0 1.7-.5 2.1-1.2l2.4 1.4c-.9 1.5-2.5 2.5-4.5 2.5-3 0-5.2-2.3-5.2-5.2 0-3 2.1-5.3 5.1-5.3 3 0 5.1 2.2 5.1 5.2-.2.4-.2.7-.3 1.1zm-7.1-2.2h4.3c-.3-1-1.1-1.5-2.1-1.5-1.1.1-1.9.6-2.2 1.5zM472.1 35.7V51h-2.9v-.6c-.7.5-1.6.8-2.6.8-2.9 0-5-2.3-5-5.2 0-3 2.1-5.3 5-5.3 1 0 1.8.3 2.5.8v-5.7h3zm-2.8 10.2c0-1.4-1-2.4-2.4-2.4-1.3 0-2.3 1-2.3 2.4 0 1.3 1 2.4 2.3 2.4 1.4 0 2.4-1 2.4-2.4zM478.4 48.5c.8 0 1.3-.3 1.3-.7 0-.3-.3-.5-.8-.5-.5-.1-1.1-.1-1.8-.2-2-.3-2.9-1.5-2.9-3 0-2 1.6-3.4 4.1-3.4 2.4 0 4.1 1.4 4.1 3.4h-2.9c0-.5-.5-.7-1.2-.7s-1.2.3-1.2.7c0 .3.2.4.7.5.6.1 1.1.1 1.9.2 2 .2 2.9 1.5 2.9 3 0 2-1.7 3.5-4.2 3.5s-4.2-1.4-4.2-3.5h2.9c-.1.4.4.7 1.3.7zM486.3 46.5c0-1.9.4-2.7 1.8-4 .8-.7 1.2-1.2 1.2-1.9 0-.8-.6-1.4-1.4-1.4s-1.4.6-1.4 1.4h-3.1c0-2.5 1.9-4.5 4.5-4.5s4.4 1.9 4.4 4.3c0 1.8-.8 2.8-2.2 4-.9.8-1.1 1.3-1.1 2v.1h-2.7zm1.4.9c1.1 0 1.8.8 1.8 1.8s-.8 1.8-1.8 1.8-1.8-.8-1.8-1.8.7-1.8 1.8-1.8z"/></g><g fill="#193062"><path d="M222.8 63.4h-4.2v-3H230v3h-4.2V75h-3.1V63.4zM236.5 64.9v2.9H235c-1.1 0-1.9.9-1.9 2V75h-3V64.9h2.9v.9c.6-.7 1.5-.9 2.3-.9h1.2zM247.4 64.9V75h-2.9v-.6c-.7.5-1.5.8-2.4.8-2.3 0-3.9-1.7-3.9-4v-6.3h3v5.7c0 .9.6 1.7 1.7 1.7 1 0 1.7-.8 1.7-1.7v-5.7h2.8zM253.6 72.5c.8 0 1.3-.3 1.3-.7 0-.3-.3-.5-.8-.5-.5-.1-1.1-.1-1.8-.2-2-.3-2.9-1.5-2.9-3 0-2 1.6-3.4 4.1-3.4 2.4 0 4.1 1.4 4.1 3.4h-2.9c0-.5-.5-.7-1.2-.7s-1.2.3-1.2.7c0 .3.2.4.7.5.6.1 1.1.1 1.9.2 2 .2 2.9 1.5 2.9 3 0 2-1.7 3.5-4.2 3.5s-4.2-1.4-4.2-3.5h2.9c-.1.4.5.7 1.3.7zM263 64.9h3.1v2.8H263v3.4c0 .7.4 1.1 1.1 1.1h2V75h-2.6c-2 0-3.4-1.3-3.4-3.4v-3.9h-1.5v-1.5l2.8-3.4h1.6v2.1zM276.8 63.4h-4.2v-3H284v3h-4.2V75h-3.1V63.4zM290.5 64.9v2.9H289c-1.1 0-1.9.9-1.9 2V75h-3V64.9h2.9v.9c.6-.7 1.5-.9 2.3-.9h1.2zM301.4 64.9V75h-2.9v-.6c-.7.5-1.5.8-2.4.8-2.3 0-3.9-1.7-3.9-4v-6.3h3v5.7c0 .9.6 1.7 1.7 1.7 1 0 1.7-.8 1.7-1.7v-5.7h2.8zM308.9 63.1c-1.3 0-2.1.7-2.1 1.5 0 .6.4.9.9 1.1.9.3 2.3.2 3.7.6 1.9.6 3.1 2 3.1 4 0 2.8-2.2 4.8-5.4 4.8-3.1 0-5.5-1.9-5.5-4.7h3.1c0 1.1 1 1.8 2.4 1.8 1.5 0 2.3-.7 2.3-1.7 0-.7-.4-1.1-.9-1.2-.9-.3-2.4-.2-3.7-.6-1.9-.5-3-2-3-3.9 0-2.7 2.1-4.7 5.2-4.7s5.3 1.8 5.3 4.5h-3.1c-.1-.9-1-1.5-2.3-1.5zM319.9 64.9h3.1v2.8h-3.1v3.4c0 .7.4 1.1 1.1 1.1h2V75h-2.6c-2 0-3.4-1.3-3.4-3.4v-3.9h-1.5v-1.5l2.8-3.4h1.6v2.1zM333.4 68.6V75h-2.9v-.5c-.6.5-1.4.8-2.5.8-2.1 0-3.5-1.3-3.5-3.2 0-2.1 1.6-3 3.5-3.1l2.5-.2v-.1c0-.7-.7-1.2-1.5-1.2-.7 0-1.3.4-1.5.9h-2.8c.1-2.1 1.9-3.6 4.3-3.6 2.6-.1 4.4 1.5 4.4 3.8zm-2.9 2.8v-.6l-2 .2c-.7.1-1.1.4-1.1.9s.5.9 1.3.9c1.1 0 1.8-.5 1.8-1.4zM345.4 64.9v9.8c0 2.7-2 4.8-5 4.8-2.3 0-4.1-1.3-4.7-3.2l2.7-1c.3.9 1 1.4 2 1.4 1.2 0 2.1-.8 2.1-2V74c-.6.5-1.5.7-2.4.7-2.7 0-4.7-2.2-4.7-5s2-5 4.7-5c1 0 1.8.3 2.5.8v-.6h2.8zm-2.9 4.8c0-1.2-.9-2.1-2.1-2.1-1.2 0-2.1.9-2.1 2.1 0 1.1.9 2.1 2.1 2.1 1.2 0 2.1-1 2.1-2.1zM357.3 71h-7c.3.9 1.2 1.5 2.3 1.5 1 0 1.7-.5 2.1-1.2l2.4 1.4c-.9 1.5-2.5 2.5-4.5 2.5-3 0-5.2-2.3-5.2-5.2 0-3 2.1-5.3 5.1-5.3 3 0 5.1 2.2 5.1 5.2-.1.4-.2.7-.3 1.1zm-7-2.2h4.3c-.3-1-1.1-1.5-2.1-1.5-1.2.1-2 .6-2.2 1.5zM360.4 62h-1.6v-1.6h4.9V62h-1.6v4.1h-1.7V62zm4.1-1.6h1.7l1.3 2.6 1.3-2.6h1.7v5.7h-1.7v-2.6l-1.3 2.7-1.3-2.7v2.6h-1.6v-5.7z"/></g></svg>