<svg baseProfile="tiny" xmlns="http://www.w3.org/2000/svg" viewBox="0 0 300 50" overflow="visible"><g fill="#193062"><path d="M83.9 8c-.7 0-1.2.4-1.2.8 0 .3.2.5.5.6.5.2 1.3.1 2 .3 1 .3 1.7 1.1 1.7 2.2 0 1.5-1.2 2.7-3 2.7-1.7 0-3-1.1-3-2.6h1.7c0 .6.6 1 1.3 1 .8 0 1.3-.4 1.3-.9 0-.4-.2-.6-.5-.7-.5-.2-1.3-.1-2.1-.3-1.1-.3-1.6-1.1-1.6-2.2 0-1.5 1.2-2.6 2.9-2.6s2.9 1 2.9 2.5h-1.7c0-.4-.5-.8-1.2-.8zM90 9h1.7v1.6H90v1.8c0 .4.2.6.6.6h1.1v1.6h-1.4c-1.1 0-1.9-.7-1.9-1.8v-2.1h-.8v-1l1.5-1.9h.9V9zM93.6 6.3c.6 0 1 .4 1 1s-.4 1-1 1-1-.5-1-1c0-.6.4-1 1-1zm.8 8.3h-1.6V9h1.6v5.6zM95.8 6.2h1.6v8.4h-1.6V6.2zM98.9 6.2h1.6v8.4h-1.6V6.2zM107.2 13.2c.4 0 .7-.2.7-.4s-.1-.3-.4-.3c-.3 0-.6 0-1-.1-1.1-.2-1.6-.8-1.6-1.6 0-1.1.9-1.9 2.2-1.9 1.3 0 2.2.8 2.2 1.9h-1.6c0-.3-.3-.4-.7-.4-.4 0-.7.2-.7.4s.1.2.4.3c.4 0 .6 0 1 .1 1.1.1 1.6.8 1.6 1.6 0 1.1-.9 1.9-2.3 1.9s-2.3-.8-2.3-1.9h1.6c.1.2.4.4.9.4zM115.6 12.4h-3.9c.2.5.7.8 1.3.8.5 0 .9-.3 1.2-.6l1.3.8c-.5.8-1.4 1.4-2.5 1.4-1.7 0-2.9-1.3-2.9-2.9 0-1.7 1.2-2.9 2.8-2.9 1.7 0 2.8 1.2 2.8 2.9 0 .1 0 .3-.1.5zm-3.8-1.2h2.4c-.2-.5-.6-.8-1.2-.8-.7 0-1.1.3-1.2.8zM121.4 11.1v3.5h-1.6v-.3c-.3.3-.7.4-1.4.4-1.1 0-1.9-.7-1.9-1.7 0-1.1.9-1.6 1.9-1.7l1.4-.1V11c0-.4-.4-.7-.8-.7s-.7.2-.8.5h-1.6c.1-1.2 1-2 2.4-2 1.4.1 2.4 1 2.4 2.3zm-1.6 1.5v-.3l-1.1.1c-.4 0-.6.2-.6.5s.3.5.7.5c.6 0 1-.3 1-.8zM126.3 9v1.6h-.8c-.6 0-1.1.5-1.1 1.1v2.8h-1.6V9h1.6v.5c.3-.4.8-.5 1.3-.5h.6zM129.7 8.9c1.1 0 1.9.5 2.4 1.3l-1.3.9c-.2-.4-.6-.6-1.1-.6-.7 0-1.3.6-1.3 1.3 0 .7.5 1.3 1.3 1.3.5 0 .8-.3 1.1-.6l1.3.9c-.5.8-1.4 1.3-2.4 1.3-1.7 0-2.9-1.3-2.9-2.9 0-1.6 1.3-2.9 2.9-2.9zM138.1 11.1v3.5h-1.6v-3.1c0-.5-.4-1-.9-1-.6 0-1 .4-1 1v3.1H133V6.2h1.6v3.1c.4-.3.8-.4 1.3-.4 1.3 0 2.2.9 2.2 2.2zM140.4 6.3c.6 0 1 .4 1 1s-.4 1-1 1-1-.5-1-1c-.1-.6.4-1 1-1zm.8 8.3h-1.6V9h1.6v5.6zM147.7 11.1v3.5h-1.6v-3.1c0-.5-.4-.9-.9-.9-.6 0-.9.4-.9.9v3.1h-1.6V9h1.6v.3c.4-.3.8-.4 1.4-.4 1.1 0 2 .9 2 2.2zM154.3 9v5.4c0 1.5-1.1 2.6-2.8 2.6-1.3 0-2.2-.7-2.6-1.8l1.5-.6c.2.5.5.8 1.1.8.7 0 1.1-.4 1.1-1.1V14c-.4.3-.8.4-1.3.4-1.5 0-2.6-1.2-2.6-2.7s1.1-2.7 2.6-2.7c.5 0 1 .2 1.4.5V9h1.6zm-1.5 2.7c0-.7-.5-1.2-1.2-1.2s-1.2.5-1.2 1.2c0 .6.5 1.1 1.2 1.1s1.2-.5 1.2-1.1zM159.5 10.6h-1.1V9h1.1V7.9c0-1.1.7-1.7 1.8-1.7h1.2v1.6h-.9c-.3 0-.5.2-.5.4V9h1.4v1.6h-1.4v4h-1.6v-4zM165.9 8.9c1.7 0 2.9 1.3 2.9 2.9 0 1.6-1.2 2.9-2.9 2.9s-2.9-1.3-2.9-2.9c0-1.6 1.2-2.9 2.9-2.9zm0 4.2c.7 0 1.3-.6 1.3-1.3 0-.7-.5-1.3-1.3-1.3-.7 0-1.3.6-1.3 1.3 0 .7.6 1.3 1.3 1.3zM173.4 9v1.6h-.8c-.6 0-1.1.5-1.1 1.1v2.8h-1.6V9h1.6v.5c.3-.4.8-.5 1.3-.5h.6zM177.6 6.5h1.7v6.4h4.6v1.7h-6.3V6.5zM185.8 6.3c.6 0 1 .4 1 1s-.4 1-1 1-1-.5-1-1c0-.6.4-1 1-1zm.8 8.3H185V9h1.6v5.6zM188.6 10.6h-1.1V9h1.1V7.9c0-1.1.7-1.7 1.8-1.7h1.2v1.6h-.9c-.3 0-.5.2-.5.4V9h1.4v1.6h-1.4v4h-1.6v-4zM197.6 12.4h-3.9c.2.5.7.8 1.3.8.5 0 .9-.3 1.2-.6l1.3.8c-.5.8-1.4 1.4-2.5 1.4-1.7 0-2.9-1.3-2.9-2.9 0-1.7 1.2-2.9 2.8-2.9 1.7 0 2.8 1.2 2.8 2.9 0 .1 0 .3-.1.5zm-3.9-1.2h2.4c-.2-.5-.6-.8-1.2-.8s-1 .3-1.2.8zM202 6.5h1.7v8H202v-8zM210.5 11.1v3.5h-1.6v-3.1c0-.5-.4-.9-.9-.9-.6 0-.9.4-.9.9v3.1h-1.6V9h1.6v.3c.4-.3.8-.4 1.4-.4 1 0 2 .9 2 2.2zM213.9 13.2c.4 0 .7-.2.7-.4s-.1-.3-.4-.3c-.3 0-.6 0-1-.1-1.1-.2-1.6-.8-1.6-1.6 0-1.1.9-1.9 2.2-1.9 1.3 0 2.2.8 2.2 1.9h-1.6c0-.3-.3-.4-.7-.4-.4 0-.7.2-.7.4s.1.2.4.3c.4 0 .6 0 1 .1 1.1.1 1.6.8 1.6 1.6 0 1.1-.9 1.9-2.3 1.9s-2.3-.8-2.3-1.9h1.6c.1.2.4.4.9.4zM222.3 9v5.5h-1.6v-.3c-.4.3-.8.4-1.3.4-1.2 0-2.2-.9-2.2-2.2V9h1.6v3.1c0 .5.4.9.9.9.6 0 .9-.4.9-.9V9h1.7zM227.2 9v1.6h-.8c-.6 0-1.1.5-1.1 1.1v2.8h-1.6V9h1.6v.5c.3-.4.8-.5 1.3-.5h.6zM232.6 11.1v3.5H231v-.3c-.3.3-.7.4-1.4.4-1.1 0-1.9-.7-1.9-1.7 0-1.1.9-1.6 1.9-1.7l1.4-.1V11c0-.4-.4-.7-.8-.7s-.7.2-.8.5h-1.6c.1-1.2 1-2 2.4-2 1.4.1 2.4 1 2.4 2.3zm-1.6 1.5v-.3l-1.1.1c-.4 0-.6.2-.6.5s.3.5.7.5c.6 0 1-.3 1-.8zM239.1 11.1v3.5h-1.6v-3.1c0-.5-.4-.9-.9-.9-.6 0-.9.4-.9.9v3.1H234V9h1.6v.3c.4-.3.8-.4 1.4-.4 1.2 0 2.1.9 2.1 2.2zM243.1 8.9c1.1 0 1.9.5 2.4 1.3l-1.3.9c-.2-.4-.6-.6-1.1-.6-.7 0-1.3.6-1.3 1.3 0 .7.5 1.3 1.3 1.3.5 0 .8-.3 1.1-.6l1.3.9c-.5.8-1.4 1.3-2.4 1.3-1.7 0-2.9-1.3-2.9-2.9 0-1.6 1.2-2.9 2.9-2.9zM251.5 12.4h-3.9c.2.5.7.8 1.3.8.5 0 .9-.3 1.2-.6l1.3.8c-.5.8-1.4 1.4-2.5 1.4-1.7 0-2.9-1.3-2.9-2.9 0-1.7 1.2-2.9 2.8-2.9 1.7 0 2.8 1.2 2.8 2.9-.1.1-.1.3-.1.5zm-3.9-1.2h2.4c-.2-.5-.6-.8-1.2-.8-.7 0-1.1.3-1.2.8z"/></g><g fill="#193062"><path d="M83.1 22h1.7v1.6h-1.7v1.8c0 .4.2.6.6.6h1.1v1.6h-1.4c-1.1 0-1.9-.7-1.9-1.8v-2.1h-.8v-.8l1.5-1.9h.9v1zM91 24.1v3.5h-1.6v-3.1c0-.5-.4-1-.9-1-.6 0-1 .4-1 1v3.1h-1.6v-8.4h1.6v3.1c.4-.3.8-.4 1.3-.4 1.3 0 2.2.9 2.2 2.2zM97 24.1v3.5h-1.6v-.3c-.3.3-.7.4-1.4.4-1.1 0-1.9-.7-1.9-1.7 0-1.1.9-1.6 1.9-1.7l1.4-.1V24c0-.4-.4-.7-.8-.7s-.7.2-.8.5h-1.6c.1-1.2 1-2 2.4-2 1.4.1 2.4 1 2.4 2.3zm-1.6 1.5v-.3l-1.1.1c-.4 0-.6.2-.6.5s.3.5.7.5c.6 0 1-.3 1-.8zM100.2 22h1.7v1.6h-1.7v1.8c0 .4.2.6.6.6h1.1v1.6h-1.4c-1.1 0-1.9-.7-1.9-1.8v-2.1h-.8v-.8l1.5-1.9h.9v1zM106.7 23.6h-1.1V22h1.1v-1.1c0-1.1.7-1.7 1.8-1.7h1.2v1.6h-.9c-.3 0-.5.2-.5.4v.8h1.4v1.6h-1.4v4h-1.6v-4zm4.9-4.3c.6 0 1 .4 1 1s-.4 1-1 1-1-.5-1-1c0-.6.4-1 1-1zm.8 8.3h-1.6V22h1.6v5.6zM115.7 22h1.7v1.6h-1.7v1.8c0 .4.2.6.6.6h1.1v1.6H116c-1.1 0-1.9-.7-1.9-1.8v-2.1h-.8v-.8l1.5-1.9h.9v1zM120.2 20.4c0 .1 0 .3-.1.4l-.6 1.8h-.9l.3-1.3c-.4-.1-.6-.5-.6-.9 0-.6.4-1 1-1s.9.4.9 1zM123 26.2c.4 0 .7-.2.7-.4s-.1-.3-.4-.3c-.3 0-.6 0-1-.1-1.1-.2-1.6-.8-1.6-1.6 0-1.1.9-1.9 2.2-1.9 1.3 0 2.2.8 2.2 1.9h-1.6c0-.3-.3-.4-.7-.4-.4 0-.7.2-.7.4s.1.2.4.3c.4 0 .6 0 1 .1 1.1.1 1.6.8 1.6 1.6 0 1.1-.9 1.9-2.3 1.9s-2.3-.8-2.3-1.9h1.6c.2.2.5.4.9.4zM134.1 22l-2.8 7.9h-1.7l.9-2.5-2-5.4h1.8l1.1 3 1.1-3h1.6zM137.3 21.9c1.7 0 2.9 1.3 2.9 2.9 0 1.6-1.2 2.9-2.9 2.9s-2.9-1.3-2.9-2.9c0-1.6 1.2-2.9 2.9-2.9zm0 4.2c.7 0 1.3-.6 1.3-1.3 0-.7-.5-1.3-1.3-1.3-.7 0-1.3.6-1.3 1.3 0 .7.5 1.3 1.3 1.3zM146.3 22v5.5h-1.6v-.3c-.4.3-.8.4-1.3.4-1.2 0-2.2-.9-2.2-2.2V22h1.6v3.1c0 .5.4.9.9.9s.9-.4.9-.9V22h1.7zM151.3 22v1.6h-.8c-.6 0-1.1.5-1.1 1.1v2.8h-1.6V22h1.6v.5c.3-.4.8-.5 1.3-.5h.6zM155.9 23.6h-1.1V22h1.1v-1.1c0-1.1.7-1.7 1.8-1.7h1.2v1.6h-.9c-.3 0-.5.2-.5.4v.8h1.4v1.6h-1.4v4h-1.6v-4zM164.4 24.1v3.5h-1.6v-.3c-.3.3-.7.4-1.4.4-1.1 0-1.9-.7-1.9-1.7 0-1.1.9-1.6 1.9-1.7l1.4-.1V24c0-.4-.4-.7-.8-.7s-.7.2-.8.5h-1.6c.1-1.2 1-2 2.4-2 1.4.1 2.4 1 2.4 2.3zm-1.6 1.5v-.3l-1.1.1c-.4 0-.6.2-.6.5s.3.5.7.5c.6 0 1-.3 1-.8zM173.9 23.9v3.6h-1.6v-3.3c0-.4-.3-.8-.8-.8s-.8.4-.8.8v3.3H169v-3.3c0-.4-.3-.8-.8-.8s-.8.4-.8.8v3.3h-1.6V22h1.6v.3c.3-.2.8-.4 1.2-.4.6 0 1.1.2 1.4.6.4-.4.9-.6 1.6-.6 1.3 0 2.3.9 2.3 2zM176.1 19.3c.6 0 1 .4 1 1s-.4 1-1 1-1-.5-1-1c0-.6.4-1 1-1zm.8 8.3h-1.6V22h1.6v5.6zM178.4 19.2h1.6v8.4h-1.6v-8.4zM186.4 22l-2.8 7.9h-1.7l.9-2.5-2-5.4h1.8l1.1 3 1.1-3h1.6zM189 20.4c0 .1 0 .3-.1.4l-.6 1.8h-.9l.3-1.3c-.4-.1-.6-.5-.6-.9 0-.6.4-1 1-1s.9.4.9 1zM191.8 26.2c.4 0 .7-.2.7-.4s-.1-.3-.4-.3c-.3 0-.6 0-1-.1-1.1-.2-1.6-.8-1.6-1.6 0-1.1.9-1.9 2.2-1.9 1.3 0 2.2.8 2.2 1.9h-1.6c0-.3-.3-.4-.7-.4-.4 0-.7.2-.7.4s.1.2.4.3c.4 0 .6 0 1 .1 1.1.1 1.6.8 1.6 1.6 0 1.1-.9 1.9-2.3 1.9s-2.3-.8-2.3-1.9h1.6c.1.2.4.4.9.4zM203.4 24.1v3.5h-1.6v-3.1c0-.5-.4-.9-.9-.9-.6 0-.9.4-.9.9v3.1h-1.6V22h1.6v.3c.4-.3.8-.4 1.4-.4 1.1 0 2 .9 2 2.2zM210 25.4h-3.9c.2.5.7.8 1.3.8.5 0 .9-.3 1.2-.6l1.3.8c-.5.8-1.4 1.4-2.5 1.4-1.7 0-2.9-1.3-2.9-2.9 0-1.7 1.2-2.9 2.8-2.9 1.7 0 2.8 1.2 2.8 2.9-.1.1-.1.3-.1.5zm-3.9-1.2h2.4c-.2-.5-.6-.8-1.2-.8-.7 0-1.1.3-1.2.8zM216.2 25.4h-3.9c.2.5.7.8 1.3.8.5 0 .9-.3 1.2-.6l1.3.8c-.5.8-1.4 1.4-2.5 1.4-1.7 0-2.9-1.3-2.9-2.9 0-1.7 1.2-2.9 2.8-2.9 1.7 0 2.8 1.2 2.8 2.9 0 .1 0 .3-.1.5zm-3.9-1.2h2.4c-.2-.5-.6-.8-1.2-.8s-1 .3-1.2.8zM222.8 19.2v8.4h-1.6v-.3c-.4.3-.9.5-1.4.5-1.6 0-2.7-1.3-2.7-2.9 0-1.6 1.1-2.9 2.7-2.9.5 0 1 .2 1.4.4v-3.1h1.6zm-1.6 5.6c0-.7-.5-1.3-1.3-1.3-.7 0-1.3.6-1.3 1.3 0 .7.5 1.3 1.3 1.3s1.3-.6 1.3-1.3zM226.2 26.2c.4 0 .7-.2.7-.4s-.1-.3-.4-.3c-.3 0-.6 0-1-.1-1.1-.2-1.6-.8-1.6-1.6 0-1.1.9-1.9 2.2-1.9 1.3 0 2.2.8 2.2 1.9h-1.6c0-.3-.3-.4-.7-.4-.4 0-.7.2-.7.4s.1.2.4.3c.4 0 .6 0 1 .1 1.1.1 1.6.8 1.6 1.6 0 1.1-.9 1.9-2.3 1.9s-2.3-.8-2.3-1.9h1.6c.1.2.4.4.9.4zM230.5 25.1c0-1 .2-1.5 1-2.2.4-.4.6-.6.6-1.1 0-.5-.3-.8-.7-.8-.4 0-.7.3-.7.8H229c0-1.4 1.1-2.5 2.5-2.5s2.4 1.1 2.4 2.4c0 1-.5 1.5-1.2 2.2-.5.4-.6.7-.6 1.1h-1.6zm.8.5c.6 0 1 .4 1 1s-.4 1-1 1-1-.5-1-1c0-.6.4-1 1-1z"/></g><g fill="#193062"><path d="M83.1 34.2h-2.3v-1.7h6.3v1.7h-2.3v6.4h-1.7v-6.4zM90.6 35v1.6h-.8c-.6 0-1.1.5-1.1 1.1v2.8h-1.6V35h1.6v.5c.3-.4.8-.5 1.3-.5h.6zM96.6 35v5.5H95v-.3c-.4.3-.8.4-1.3.4-1.2 0-2.2-.9-2.2-2.2V35h1.6v3.1c0 .5.4.9.9.9s.9-.4.9-.9V35h1.7zM100 39.2c.4 0 .7-.2.7-.4s-.1-.3-.4-.3c-.3 0-.6 0-1-.1-1.1-.2-1.6-.8-1.6-1.6 0-1.1.9-1.9 2.2-1.9 1.3 0 2.2.8 2.2 1.9h-1.6c0-.3-.3-.4-.7-.4-.4 0-.7.2-.7.4s.1.2.4.3c.4 0 .6 0 1 .1 1.1.1 1.6.8 1.6 1.6 0 1.1-.9 1.9-2.3 1.9s-2.3-.8-2.3-1.9h1.6c.2.3.5.4.9.4zM105.2 35h1.7v1.6h-1.7v1.8c0 .4.2.6.6.6h1.1v1.6h-1.4c-1.1 0-1.9-.7-1.9-1.8v-2.1h-.8v-.8l1.5-1.9h.9v1zM112.8 34.2h-2.3v-1.7h6.3v1.7h-2.3v6.4h-1.7v-6.4zM120.3 35v1.6h-.8c-.6 0-1.1.5-1.1 1.1v2.8h-1.6V35h1.6v.5c.3-.4.8-.5 1.3-.5h.6zM126.3 35v5.5h-1.6v-.3c-.4.3-.8.4-1.3.4-1.2 0-2.2-.9-2.2-2.2V35h1.6v3.1c0 .5.4.9.9.9s.9-.4.9-.9V35h1.7zM130.5 34c-.7 0-1.2.4-1.2.8 0 .3.2.5.5.6.5.2 1.3.1 2 .3 1 .3 1.7 1.1 1.7 2.2 0 1.5-1.2 2.7-3 2.7-1.7 0-3-1.1-3-2.6h1.7c0 .6.6 1 1.3 1 .8 0 1.3-.4 1.3-.9 0-.4-.2-.6-.5-.7-.5-.2-1.3-.1-2.1-.3-1.1-.3-1.6-1.1-1.6-2.2 0-1.5 1.2-2.6 2.9-2.6s2.9 1 2.9 2.5h-1.7c0-.4-.5-.8-1.2-.8zM136.5 35h1.7v1.6h-1.7v1.8c0 .4.2.6.6.6h1.1v1.6h-1.4c-1.1 0-1.9-.7-1.9-1.8v-2.1h-.8v-.8l1.5-1.9h.9v1zM143.9 37.1v3.5h-1.6v-.3c-.3.3-.7.4-1.4.4-1.1 0-1.9-.7-1.9-1.7 0-1.1.9-1.6 1.9-1.7l1.4-.1V37c0-.4-.4-.7-.8-.7s-.7.2-.8.5h-1.6c.1-1.2 1-2 2.4-2 1.4.1 2.4 1 2.4 2.3zm-1.6 1.5v-.3l-1.1.1c-.4 0-.6.2-.6.5s.3.5.7.5c.6 0 1-.3 1-.8zM150.5 35v5.4c0 1.5-1.1 2.6-2.8 2.6-1.3 0-2.2-.7-2.6-1.8l1.5-.6c.2.5.5.8 1.1.8.7 0 1.1-.4 1.1-1.1V40c-.4.3-.8.4-1.3.4-1.5 0-2.6-1.2-2.6-2.7s1.1-2.7 2.6-2.7c.5 0 1 .2 1.4.5V35h1.6zm-1.6 2.7c0-.7-.5-1.2-1.2-1.2s-1.2.5-1.2 1.2c0 .6.5 1.1 1.2 1.1s1.2-.5 1.2-1.1zM157.1 38.4h-3.9c.2.5.7.8 1.3.8.5 0 .9-.3 1.2-.6l1.3.8c-.5.8-1.4 1.4-2.5 1.4-1.7 0-2.9-1.3-2.9-2.9 0-1.7 1.2-2.9 2.8-2.9 1.7 0 2.8 1.2 2.8 2.9-.1.1-.1.3-.1.5zm-3.9-1.2h2.4c-.2-.5-.6-.8-1.2-.8s-1.1.3-1.2.8zM158.7 33.4h-.9v-.9h2.7v.9h-.9v2.3h-.9v-2.3zm2.3-.9h.9l.7 1.5.7-1.5h.9v3.2h-.9v-1.4l-.7 1.5-.7-1.5v1.4h-.9v-3.2z"/></g></svg>