<svg baseProfile="tiny" xmlns="http://www.w3.org/2000/svg" viewBox="0 0 300 50" overflow="visible"><path fill="#FAE07E" d="M238.7 29.3h52.6v14.9h-52.6z"/><g fill="#193062"><path d="M245.5 34.5h.8V38h2.5v.8h-3.3v-4.3zM249.5 34.5h3.3v.8h-2.5v.9h1.4v.8h-1.4v1h2.5v.8h-3.3v-4.3zM254.7 35.4h-1.2v-.8h3.3v.8h-1.2v3.5h-.8v-3.5zM262.4 37.2c0 .3-.1.6-.2.9-.1.3-.4.5-.6.6-.3.1-.6.2-.9.2-.3 0-.6-.1-.9-.2-.3-.1-.5-.3-.6-.6s-.2-.5-.2-.9v-2.7h.8v2.6c0 .2 0 .3.1.5l.3.3c.1.1.3.1.5.1s.3 0 .5-.1l.3-.3c.1-.1.1-.3.1-.5v-2.6h.8v2.7zM264.7 35.3c-.1 0-.3 0-.4.1s-.2.1-.2.2c-.1.1-.1.2-.1.3 0 .1 0 .2.1.2s.1.1.2.1h.8c.1 0 .2 0 .3.1.3.1.5.2.6.4.2.2.2.4.2.7 0 .3-.1.5-.2.7-.1.2-.3.4-.6.5-.2.1-.5.2-.8.2-.3 0-.6-.1-.8-.2-.2-.1-.4-.3-.6-.5-.1-.2-.2-.4-.2-.7h.8c0 .1 0 .2.1.3.1.1.2.2.3.2.1 0 .2.1.4.1.1 0 .3 0 .4-.1.1 0 .2-.1.2-.2s.1-.2.1-.3c0-.1 0-.2-.1-.3l-.2-.2c-.1 0-.1 0-.2-.1h-.6c-.1 0-.2 0-.3-.1-.3-.1-.5-.2-.6-.4s-.2-.4-.2-.7c0-.3.1-.5.2-.7.1-.2.3-.4.5-.5.2-.1.5-.2.8-.2.3 0 .6.1.8.2.2.1.4.3.5.5s.2.4.2.7h-.8c0-.1 0-.2-.1-.3l-.2-.2c-.1-.1-.1.2-.3.2zM268.6 34.5h.8v1.7h1.8v-1.7h.8v4.3h-.8v-1.7h-1.8v1.7h-.8v-4.3zM273.1 34.5h3.3v.8H274v.9h1.4v.8H274v1h2.5v.8h-3.3v-4.3zM277.3 34.5h.8V38h2.5v.8h-3.3v-4.3zM284.8 36.1c0 .3-.1.6-.2.8s-.3.4-.6.5-.5.2-.8.2h-1v1.2h-.8v-4.3h1.8c.3 0 .6.1.8.2.2.1.4.3.6.5s.2.6.2.9zm-.9 0c0-.1 0-.3-.1-.4s-.1-.2-.3-.3c-.1-.1-.2-.1-.4-.1h-1v1.4h1c.1 0 .3 0 .4-.1.1-.1.2-.1.3-.3.1 0 .1-.1.1-.2z"/></g></svg>