<?xml version="1.0" encoding="utf-8"?>
<!-- Generator: Adobe Illustrator 27.4.0, SVG Export Plug-In . SVG Version: 6.00 Build 0)  -->
<svg version="1.1" baseProfile="tiny" id="Layer_1" xmlns="http://www.w3.org/2000/svg" xmlns:xlink="http://www.w3.org/1999/xlink"
	 x="0px" y="0px" viewBox="0 0 300 250" overflow="visible" xml:space="preserve">
<rect x="9.6" y="196.8" fill="#FAE07E" width="98.3" height="27.8"/>
<g>
	<path fill="#193062" d="M23,206.6h1.6v6.5h4.7v1.5H23V206.6z"/>
	<path fill="#193062" d="M30.3,206.6h6.2v1.5h-4.7v1.7h2.6v1.5h-2.6v1.7h4.7v1.5h-6.2V206.6z"/>
	<path fill="#193062" d="M39.8,208.2h-2.3v-1.5h6.2v1.5h-2.3v6.5h-1.6V208.2z"/>
	<path fill="#193062" d="M54.1,211.6c0,0.6-0.1,1.1-0.4,1.6s-0.7,0.9-1.2,1.1c-0.5,0.3-1,0.4-1.6,0.4c-0.6,0-1.2-0.1-1.7-0.4
		c-0.5-0.3-0.9-0.7-1.2-1.1c-0.3-0.5-0.4-1-0.4-1.6v-5h1.6v4.9c0,0.3,0.1,0.6,0.2,0.8c0.1,0.3,0.3,0.5,0.6,0.6
		c0.3,0.1,0.5,0.2,0.9,0.2c0.3,0,0.6-0.1,0.8-0.2c0.3-0.1,0.4-0.3,0.6-0.6s0.2-0.5,0.2-0.8v-4.9h1.6V211.6z"/>
	<path fill="#193062" d="M58.3,208c-0.3,0-0.5,0-0.7,0.1c-0.2,0.1-0.3,0.2-0.4,0.3c-0.1,0.1-0.2,0.3-0.2,0.5c0,0.2,0.1,0.3,0.2,0.4
		c0.1,0.1,0.2,0.2,0.4,0.3c0.1,0,0.2,0.1,0.4,0.1c0.1,0,0.3,0,0.5,0.1c0.3,0,0.5,0,0.6,0.1s0.3,0.1,0.5,0.1c0.5,0.2,0.9,0.4,1.2,0.8
		c0.3,0.4,0.4,0.8,0.4,1.4c0,0.5-0.1,1-0.4,1.4c-0.2,0.4-0.6,0.7-1,0.9s-1,0.3-1.5,0.3c-0.6,0-1.1-0.1-1.5-0.3
		c-0.5-0.2-0.8-0.5-1.1-0.9c-0.3-0.4-0.4-0.8-0.4-1.3H57c0,0.2,0.1,0.4,0.2,0.6s0.3,0.3,0.5,0.4c0.2,0.1,0.5,0.1,0.7,0.1
		c0.3,0,0.5,0,0.7-0.1c0.2-0.1,0.4-0.2,0.5-0.4s0.2-0.3,0.2-0.5c0-0.2-0.1-0.3-0.2-0.5c-0.1-0.1-0.2-0.2-0.4-0.3
		c-0.1,0-0.3-0.1-0.4-0.1c-0.1,0-0.3,0-0.6-0.1c-0.2,0-0.4,0-0.6-0.1c-0.2,0-0.3-0.1-0.5-0.1c-0.5-0.2-0.9-0.4-1.2-0.8
		s-0.4-0.8-0.4-1.3c0-0.5,0.1-0.9,0.4-1.3c0.2-0.4,0.6-0.7,1-0.9c0.4-0.2,0.9-0.3,1.5-0.3c0.5,0,1,0.1,1.5,0.3s0.8,0.5,1,0.9
		s0.4,0.8,0.4,1.3h-1.6c0-0.2-0.1-0.4-0.2-0.5c-0.1-0.1-0.3-0.3-0.5-0.3C58.8,208.1,58.6,208,58.3,208z"/>
	<path fill="#193062" d="M65.6,206.6h1.6v3.2h3.3v-3.2H72v8h-1.6v-3.3h-3.3v3.3h-1.6V206.6z"/>
	<path fill="#193062" d="M73.8,206.6H80v1.5h-4.7v1.7h2.6v1.5h-2.6v1.7H80v1.5h-6.2V206.6z"/>
	<path fill="#193062" d="M81.4,206.6H83v6.5h4.7v1.5h-6.2V206.6z"/>
	<path fill="#193062" d="M95.1,209.5c0,0.6-0.1,1.1-0.4,1.5s-0.6,0.8-1,1c-0.4,0.2-1,0.4-1.5,0.4h-1.8v2.3h-1.6v-8h3.4
		c0.6,0,1.1,0.1,1.5,0.4s0.8,0.6,1,1C94.9,208.5,95.1,209,95.1,209.5z M93.5,209.5c0-0.3-0.1-0.5-0.2-0.7c-0.1-0.2-0.3-0.4-0.5-0.5
		c-0.2-0.1-0.4-0.2-0.7-0.2h-1.9v2.7h1.9c0.3,0,0.5-0.1,0.7-0.2c0.2-0.1,0.4-0.3,0.5-0.5S93.5,209.8,93.5,209.5z"/>
</g>
</svg>
