<svg baseProfile="tiny" xmlns="http://www.w3.org/2000/svg" viewBox="0 0 300 50" overflow="visible"><g fill="#193062"><path d="M61.7 8.6h5.7v1.5h-4.2v1.3h2.3V13h-2.3v2.9h-1.6V8.6zM69.1 8.4c.5 0 .9.4.9.9s-.4.9-.9.9-.9-.4-.9-.9.4-.9.9-.9zm.8 7.5h-1.5v-5h1.5v5zM75.8 12.7v3.1h-1.5V13c0-.5-.3-.9-.8-.9s-.9.4-.9.9v2.8h-1.5v-5h1.4v.3c.3-.2.7-.4 1.2-.4 1.3 0 2.1.9 2.1 2zM82 8.3v7.6h-1.4v-.3c-.3.3-.8.4-1.3.4-1.5 0-2.5-1.2-2.5-2.6 0-1.5 1-2.6 2.5-2.6.5 0 .9.1 1.3.4V8.3H82zm-1.4 5.1c0-.7-.5-1.2-1.2-1.2s-1.1.5-1.1 1.2.5 1.2 1.1 1.2c.7 0 1.2-.6 1.2-1.2zM86.3 8.6h1.6v5.8h4.2v1.5h-5.7V8.6zM93.8 8.4c.5 0 .9.4.9.9s-.4.9-.9.9-.9-.4-.9-.9c-.1-.5.3-.9.9-.9zm.7 7.5H93v-5h1.5v5zM96.3 12.3h-1v-1.4h1v-1c0-1 .6-1.6 1.6-1.6H99v1.4h-.9c-.2 0-.4.1-.4.4v.8H99v1.4h-1.3v3.6h-1.5v-3.6zM104.5 13.9H101c.2.4.6.7 1.1.7.5 0 .8-.2 1-.6l1.2.7c-.4.8-1.3 1.2-2.2 1.2-1.5 0-2.6-1.1-2.6-2.6s1-2.6 2.5-2.6 2.5 1.1 2.5 2.6c.1.2.1.4 0 .6zm-3.5-1.1h2.1c-.1-.5-.5-.7-1.1-.7-.5 0-.9.3-1 .7zM108.5 8.6h1.6v7.3h-1.6V8.6zM116.2 12.7v3.1h-1.5V13c0-.5-.3-.9-.8-.9s-.9.4-.9.9v2.8h-1.5v-5h1.4v.3c.3-.2.7-.4 1.2-.4 1.2 0 2.1.9 2.1 2zM119.3 14.7c.4 0 .6-.2.6-.4 0-.1-.1-.2-.4-.3-.2 0-.5 0-.9-.1-1-.1-1.4-.7-1.4-1.5 0-1 .8-1.7 2-1.7s2 .7 2 1.7h-1.4c0-.2-.2-.4-.6-.4-.4 0-.6.1-.6.3 0 .1.1.2.4.2.3 0 .5 0 .9.1 1 .1 1.4.7 1.4 1.5 0 1-.8 1.8-2.1 1.8-1.2 0-2.1-.7-2.1-1.7h1.4c.1.3.4.5.8.5zM126.9 10.9v5h-1.4v-.3c-.3.2-.7.4-1.2.4-1.1 0-2-.8-2-2v-3.2h1.5v2.9c0 .5.3.8.8.8s.8-.4.8-.8v-2.9h1.5zM131.4 10.9v1.5h-.7c-.6 0-1 .4-1 1V16h-1.5v-5h1.4v.4c.3-.4.7-.4 1.2-.4h.6zM136.3 12.7v3.2h-1.4v-.3c-.3.3-.7.4-1.2.4-1 0-1.8-.6-1.8-1.6s.8-1.5 1.8-1.6l1.2-.1v-.1c0-.3-.3-.6-.7-.6-.4 0-.7.2-.7.5H132c.1-1 .9-1.8 2.1-1.8 1.3 0 2.2.9 2.2 2zm-1.4 1.4v-.3l-1 .1c-.4 0-.5.2-.5.4 0 .3.2.5.6.5.5 0 .9-.2.9-.7zM142.3 12.7v3.1h-1.5V13c0-.5-.3-.9-.8-.9s-.9.4-.9.9v2.8h-1.5v-5h1.4v.3c.3-.2.7-.4 1.2-.4 1.2 0 2.1.9 2.1 2zM145.8 10.7c1 0 1.7.5 2.2 1.2l-1.2.8c-.2-.3-.5-.6-1-.6-.7 0-1.1.5-1.1 1.2s.5 1.2 1.1 1.2c.4 0 .8-.2 1-.6l1.2.8c-.4.7-1.2 1.2-2.2 1.2-1.5 0-2.6-1.1-2.6-2.6s1.1-2.6 2.6-2.6zM153.5 13.9H150c.2.4.6.7 1.1.7.5 0 .8-.2 1-.6l1.2.7c-.4.8-1.3 1.2-2.2 1.2-1.5 0-2.6-1.1-2.6-2.6s1-2.6 2.5-2.6 2.5 1.1 2.5 2.6v.6zm-3.6-1.1h2.1c-.1-.5-.5-.7-1.1-.7-.4 0-.8.3-1 .7zM157.9 12.3h-1v-1.4h1v-1c0-1 .6-1.6 1.6-1.6h1.1v1.4h-.9c-.2 0-.4.1-.4.4v.8h1.3v1.4h-1.3v3.6h-1.5v-3.6zM163.7 10.7c1.5 0 2.6 1.1 2.6 2.6 0 1.4-1.1 2.6-2.6 2.6s-2.6-1.2-2.6-2.6c0-1.4 1.1-2.6 2.6-2.6zm0 3.9c.7 0 1.2-.5 1.2-1.2s-.5-1.2-1.2-1.2-1.2.5-1.2 1.2c.1.6.5 1.2 1.2 1.2zM170.5 10.9v1.5h-.7c-.6 0-1 .4-1 1V16h-1.5v-5h1.4v.4c.3-.4.7-.4 1.2-.4h.6zM178.4 10.9l-2.6 7.2h-1.5l.8-2.2-1.8-4.9h1.6l1 2.7 1-2.7h1.5zM181.3 10.7c1.5 0 2.6 1.1 2.6 2.6 0 1.4-1.1 2.6-2.6 2.6s-2.6-1.2-2.6-2.6c0-1.4 1.1-2.6 2.6-2.6zm0 3.9c.7 0 1.2-.5 1.2-1.2s-.5-1.2-1.2-1.2-1.2.5-1.2 1.2c.1.6.5 1.2 1.2 1.2zM189.5 10.9v5h-1.4v-.3c-.3.2-.8.4-1.2.4-1.1 0-2-.8-2-2v-3.2h1.5v2.9c0 .5.3.8.8.8s.8-.4.8-.8v-2.9h1.5zM194.1 10.9v1.5h-.7c-.6 0-1 .4-1 1V16h-1.5v-5h1.4v.4c.3-.4.7-.4 1.2-.4h.6zM198.3 12.3h-1v-1.4h1v-1c0-1 .6-1.6 1.6-1.6h1.1v1.4h-.9c-.2 0-.4.1-.4.4v.8h1.3v1.4h-1.3v3.6h-1.5v-3.6zM205.9 12.7v3.2h-1.4v-.3c-.3.3-.7.4-1.2.4-1 0-1.8-.6-1.8-1.6s.8-1.5 1.8-1.6l1.2-.1v-.1c0-.3-.3-.6-.7-.6-.4 0-.7.2-.7.5h-1.4c.1-1 .9-1.8 2.1-1.8 1.3 0 2.1.9 2.1 2zm-1.4 1.4v-.3l-1 .1c-.4 0-.5.2-.5.4 0 .3.2.5.6.5.6 0 .9-.2.9-.7zM214.6 12.6v3.3h-1.5v-3c0-.4-.3-.7-.7-.7-.4 0-.7.3-.7.7v3h-1.5v-3c0-.4-.3-.7-.7-.7-.4 0-.7.3-.7.7v3h-1.5v-5h1.4v.2c.3-.2.7-.3 1.1-.3.5 0 1 .2 1.3.5.3-.3.8-.5 1.4-.5 1.2-.1 2.1.7 2.1 1.8zM216.6 8.4c.5 0 .9.4.9.9s-.4.9-.9.9-.9-.4-.9-.9.4-.9.9-.9zm.8 7.5h-1.5v-5h1.5v5zM218.7 8.3h1.5v7.6h-1.5V8.3zM226 10.9l-2.6 7.2h-1.5l.8-2.2-1.8-4.9h1.6l1 2.7 1-2.7h1.5z"/></g><g fill="#193062"><path d="M68.7 23.9l-1.7 5h-1.5l-.6-2.1-.6 2.1h-1.5l-1.7-5h1.6l.9 2.9.9-2.9h1l.8 2.7.9-2.7h1.5zM70.1 21.4c.5 0 .9.4.9.9s-.4.9-.9.9-.9-.4-.9-.9.4-.9.9-.9zm.8 7.5h-1.5v-5h1.5v5zM73.9 23.9h1.5v1.4h-1.5V27c0 .3.2.5.5.5h1v1.4h-1.3c-1 0-1.7-.7-1.7-1.7v-1.9h-.7v-.8l1.4-1.7h.8v1.1zM81.1 25.8v3.1h-1.5v-2.8c0-.5-.3-.9-.8-.9s-.9.4-.9.9v2.8h-1.5v-7.6h1.5v2.8c.3-.2.7-.4 1.2-.4 1.1 0 2 .9 2 2.1zM87.5 23.7c1 0 1.7.5 2.2 1.2l-1.2.8c-.2-.3-.5-.6-1-.6-.7 0-1.1.5-1.1 1.2s.5 1.2 1.1 1.2c.4 0 .8-.2 1-.6l1.2.8c-.4.7-1.2 1.2-2.2 1.2-1.5 0-2.6-1.1-2.6-2.6s1.1-2.6 2.6-2.6zM90.5 21.3H92v7.6h-1.5v-7.6zM98 26.9h-3.5c.2.4.6.7 1.1.7.5 0 .8-.2 1-.6l1.2.7c-.4.8-1.3 1.2-2.2 1.2-1.5 0-2.6-1.1-2.6-2.6s1-2.6 2.5-2.6 2.5 1.1 2.5 2.6v.6zm-3.6-1.1h2.1c-.1-.5-.5-.7-1.1-.7-.4 0-.8.3-1 .7zM103.2 25.7v3.2h-1.4v-.3c-.3.3-.7.4-1.2.4-1 0-1.8-.7-1.8-1.6 0-1 .8-1.5 1.8-1.6l1.2-.1v-.1c0-.3-.3-.6-.7-.6-.4 0-.7.2-.7.5H99c.1-1 .9-1.8 2.1-1.8 1.2 0 2.1.9 2.1 2zm-1.5 1.4v-.3l-1 .1c-.4 0-.5.2-.5.5s.2.5.6.5c.6-.1.9-.3.9-.8zM107.7 23.9v1.5h-.7c-.6 0-1 .4-1 1V29h-1.5v-5h1.4v.4c.3-.4.7-.4 1.2-.4h.6zM112.1 21.4c.5 0 .9.4.9.9s-.4.9-.9.9-.9-.4-.9-.9.4-.9.9-.9zm.8 7.5h-1.5v-5h1.5v5zM118.9 25.7v3.1h-1.5V26c0-.5-.3-.9-.8-.9s-.9.4-.9.9v2.8h-1.5v-5h1.4v.3c.3-.2.7-.4 1.2-.4 1.2 0 2.1.9 2.1 2zM120.6 25.3h-1v-1.4h1v-1c0-1 .6-1.6 1.6-1.6h1.1v1.4h-.9c-.2 0-.4.1-.4.4v.8h1.3v1.4H122v3.6h-1.5v-3.6zM126.4 23.7c1.5 0 2.6 1.1 2.6 2.6 0 1.4-1.1 2.6-2.6 2.6s-2.6-1.2-2.6-2.6c0-1.4 1.1-2.6 2.6-2.6zm0 3.9c.7 0 1.2-.5 1.2-1.2s-.5-1.2-1.2-1.2-1.2.5-1.2 1.2c.1.6.6 1.2 1.2 1.2zM133.2 23.9v1.5h-.7c-.6 0-1 .4-1 1V29H130v-5h1.4v.4c.3-.4.7-.4 1.2-.4h.6zM141.4 25.6v3.3H140v-3c0-.4-.3-.7-.7-.7-.4 0-.7.3-.7.7v3H137v-3c0-.4-.3-.7-.7-.7-.4 0-.7.3-.7.7v3h-1.5v-5h1.4v.2c.3-.2.7-.3 1.1-.3.5 0 1 .2 1.3.5.4-.3.8-.5 1.4-.5 1.3-.1 2.1.7 2.1 1.8zM146.9 25.7v3.2h-1.4v-.3c-.3.3-.7.4-1.2.4-1 0-1.8-.7-1.8-1.6 0-1 .8-1.5 1.8-1.6l1.2-.1v-.1c0-.3-.3-.6-.7-.6-.4 0-.7.2-.7.5h-1.4c.1-1 .9-1.8 2.1-1.8 1.2 0 2.1.9 2.1 2zm-1.5 1.4v-.3l-1 .1c-.4 0-.5.2-.5.5s.2.5.6.5c.6-.1.9-.3.9-.8zM149.8 23.9h1.5v1.4h-1.5V27c0 .3.2.5.5.5h1v1.4H150c-1 0-1.7-.7-1.7-1.7v-1.9h-.7v-.8l1.4-1.7h.8v1.1zM153.1 21.4c.5 0 .9.4.9.9s-.4.9-.9.9-.9-.4-.9-.9.4-.9.9-.9zm.7 7.5h-1.5v-5h1.5v5zM157.4 23.7c1.5 0 2.6 1.1 2.6 2.6 0 1.4-1.1 2.6-2.6 2.6s-2.6-1.2-2.6-2.6c0-1.4 1.1-2.6 2.6-2.6zm0 3.9c.7 0 1.2-.5 1.2-1.2s-.5-1.2-1.2-1.2-1.2.5-1.2 1.2c.1.6.6 1.2 1.2 1.2zM165.7 25.7v3.1h-1.5V26c0-.5-.3-.9-.8-.9s-.9.4-.9.9v2.8H161v-5h1.4v.3c.3-.2.8-.4 1.2-.4 1.3 0 2.1.9 2.1 2zM170.4 25.3h-1v-1.4h1v-1c0-1 .6-1.6 1.6-1.6h1.1v1.4h-.9c-.2 0-.4.1-.4.4v.8h1.3v1.4h-1.3v3.6h-1.5v-3.6zM177.2 23.9v1.5h-.7c-.6 0-1 .4-1 1V29H174v-5h1.4v.4c.3-.4.7-.4 1.2-.4h.6zM180.4 23.7c1.5 0 2.6 1.1 2.6 2.6 0 1.4-1.1 2.6-2.6 2.6s-2.6-1.2-2.6-2.6c-.1-1.4 1-2.6 2.6-2.6zm0 3.9c.7 0 1.2-.5 1.2-1.2s-.5-1.2-1.2-1.2-1.2.5-1.2 1.2c0 .6.5 1.2 1.2 1.2zM191.3 25.6v3.3h-1.5v-3c0-.4-.3-.7-.7-.7-.4 0-.7.3-.7.7v3h-1.5v-3c0-.4-.3-.7-.7-.7-.4 0-.7.3-.7.7v3H184v-5h1.4v.2c.3-.2.7-.3 1.1-.3.5 0 1 .2 1.3.5.3-.3.8-.5 1.4-.5 1.3-.1 2.1.7 2.1 1.8zM197.2 23.9h1.5v1.4h-1.5V27c0 .3.2.5.5.5h1v1.4h-1.3c-1 0-1.7-.7-1.7-1.7v-1.9h-.7v-.8l1.4-1.7h.8v1.1zM204.4 25.8v3.1h-1.5v-2.8c0-.5-.3-.9-.8-.9s-.9.4-.9.9v2.8h-1.5v-7.6h1.5v2.8c.3-.2.7-.4 1.2-.4 1.1 0 2 .9 2 2.1zM210.3 26.9h-3.5c.2.4.6.7 1.1.7.5 0 .8-.2 1-.6l1.2.7c-.4.8-1.3 1.2-2.2 1.2-1.5 0-2.6-1.1-2.6-2.6s1-2.6 2.5-2.6 2.5 1.1 2.5 2.6c.1.2.1.4 0 .6zm-3.5-1.1h2.1c-.1-.5-.5-.7-1.1-.7-.5 0-.9.3-1 .7zM216.1 27.7c.4 0 .6-.2.6-.4s-.1-.2-.4-.3c-.2 0-.5 0-.9-.1-1-.1-1.4-.7-1.4-1.5 0-1 .8-1.7 2-1.7s2 .7 2 1.7h-1.4c0-.2-.2-.4-.6-.4-.4 0-.6.1-.6.3 0 .1.1.2.3.2.3 0 .5 0 .9.1 1 .1 1.4.7 1.4 1.5 0 1-.8 1.8-2.1 1.8-1.2 0-2.1-.7-2.1-1.7h1.4c.2.3.5.5.9.5zM220.8 23.9h1.5v1.4h-1.5V27c0 .3.2.5.5.5h1v1.4H221c-1 0-1.7-.7-1.7-1.7v-1.9h-.7v-.8l1.4-1.7h.8v1.1zM227.5 25.7v3.2H226v-.3c-.3.3-.7.4-1.2.4-1 0-1.8-.7-1.8-1.6 0-1 .8-1.5 1.8-1.6l1.2-.1v-.1c0-.3-.3-.6-.7-.6-.4 0-.7.2-.7.5h-1.4c.1-1 .9-1.8 2.1-1.8 1.3 0 2.2.9 2.2 2zm-1.5 1.4v-.3l-1 .1c-.4 0-.5.2-.5.5s.2.5.6.5c.6-.1.9-.3.9-.8zM232 23.9v1.5h-.7c-.6 0-1 .4-1 1V29h-1.5v-5h1.4v.4c.3-.4.7-.4 1.2-.4h.6zM234.6 23.9h1.5v1.4h-1.5V27c0 .3.2.5.5.5h1v1.4h-1.3c-1 0-1.7-.7-1.7-1.7v-1.9h-.7v-.8l1.4-1.7h.8v1.1zM238 27.1c.5 0 .9.4.9.9s-.4.9-.9.9-.9-.4-.9-.9c-.1-.5.3-.9.9-.9z"/></g></svg>