<?xml version="1.0" encoding="utf-8"?>
<!-- Generator: Adobe Illustrator 27.4.0, SVG Export Plug-In . SVG Version: 6.00 Build 0)  -->
<svg version="1.1" baseProfile="tiny" id="Layer_1" xmlns="http://www.w3.org/2000/svg" xmlns:xlink="http://www.w3.org/1999/xlink"
	 x="0px" y="0px" viewBox="0 0 320 50" overflow="visible" xml:space="preserve">
<g>
	<path fill="#FFFFFF" d="M8.1,43.5c0,0.3-0.1,0.6-0.2,0.9c-0.2,0.3-0.4,0.5-0.6,0.6s-0.6,0.2-0.9,0.2c-0.4,0-0.7-0.1-1-0.2
		s-0.5-0.4-0.7-0.7c-0.2-0.3-0.2-0.6-0.2-1c0-0.4,0.1-0.7,0.2-1c0.2-0.3,0.4-0.5,0.7-0.7c0.3-0.2,0.6-0.2,1-0.2
		c0.3,0,0.7,0.1,0.9,0.2c0.3,0.2,0.5,0.4,0.6,0.6l-0.3,0.2C7.4,42.3,7.2,42.1,7,42s-0.5-0.2-0.7-0.2c-0.3,0-0.5,0.1-0.8,0.2
		c-0.2,0.1-0.4,0.3-0.5,0.5c-0.1,0.2-0.2,0.5-0.2,0.8c0,0.3,0.1,0.6,0.2,0.8c0.1,0.2,0.3,0.4,0.5,0.5c0.2,0.1,0.5,0.2,0.8,0.2
		c0.2,0,0.4,0,0.6-0.1c0.2-0.1,0.3-0.2,0.5-0.4c0.1-0.2,0.2-0.3,0.3-0.5H6.1v-0.4H8.1z"/>
	<path fill="#FFFFFF" d="M8.7,41.5h2.7v0.4H9.1v1.3h1.4v0.4H9.1v1.3h2.3v0.4H8.7V41.5z"/>
	<path fill="#FFFFFF" d="M14.9,41.5v3.7h-0.4l-2-3v3h-0.4v-3.7h0.4l2,3v-3H14.9z"/>
	<path fill="#FFFFFF" d="M16.7,43.6v0.4h-1.1v-0.4H16.7z"/>
	<path fill="#FFFFFF" d="M19.9,43.6V44h-0.7v1.1h-0.4V44h-1.6v-0.3l1.6-2.2h0.4v2.1H19.9z M18.9,43.6v-1.6l-1.2,1.6H18.9z"/>
	<path fill="#FFFFFF" d="M20.2,41.5h2.3v0.4l-1.4,3.3h-0.4l1.4-3.3h-1.9V41.5z"/>
	<path fill="#FFFFFF" d="M25.4,44.2c0,0.2,0,0.4-0.1,0.5c-0.1,0.2-0.2,0.3-0.4,0.4s-0.4,0.1-0.6,0.1c-0.2,0-0.4,0-0.6-0.1
		c-0.2-0.1-0.3-0.2-0.4-0.4c-0.1-0.2-0.1-0.3-0.1-0.5h0.4c0,0.1,0,0.2,0.1,0.3c0.1,0.1,0.2,0.2,0.3,0.2s0.2,0.1,0.4,0.1
		c0.1,0,0.3,0,0.4-0.1c0.1-0.1,0.2-0.1,0.3-0.2c0.1-0.1,0.1-0.2,0.1-0.4c0-0.1,0-0.3-0.1-0.4c-0.1-0.1-0.1-0.2-0.3-0.2
		s-0.2-0.1-0.4-0.1h-0.4v-0.4h0.4c0.1,0,0.2,0,0.3-0.1s0.2-0.1,0.2-0.2s0.1-0.2,0.1-0.3c0-0.1,0-0.2-0.1-0.3s-0.1-0.2-0.2-0.2
		s-0.2-0.1-0.3-0.1c-0.1,0-0.2,0-0.3,0.1s-0.2,0.1-0.2,0.2c-0.1,0.1-0.1,0.2-0.1,0.3h-0.4c0-0.2,0-0.4,0.1-0.5
		c0.1-0.2,0.2-0.3,0.4-0.4c0.2-0.1,0.3-0.1,0.5-0.1c0.2,0,0.4,0,0.5,0.1c0.2,0.1,0.3,0.2,0.4,0.4c0.1,0.2,0.1,0.3,0.1,0.5
		c0,0.2,0,0.3-0.1,0.5c-0.1,0.1-0.2,0.3-0.3,0.3c0.2,0.1,0.3,0.2,0.4,0.4C25.3,43.8,25.4,44,25.4,44.2z"/>
	<path fill="#FFFFFF" d="M28.5,44c0,0.2-0.1,0.4-0.2,0.6c-0.1,0.2-0.2,0.3-0.4,0.4s-0.4,0.2-0.6,0.2c-0.2,0-0.4-0.1-0.6-0.2
		s-0.3-0.2-0.4-0.4c-0.1-0.2-0.2-0.4-0.2-0.6c0-0.1,0-0.3,0.1-0.4c0-0.1,0.1-0.3,0.2-0.4l1.1-1.7h0.4L27,42.9c0.1,0,0.2,0,0.3,0
		c0.2,0,0.4,0,0.6,0.2c0.2,0.1,0.3,0.2,0.4,0.4C28.5,43.6,28.5,43.8,28.5,44z M28.1,44c0-0.2,0-0.3-0.1-0.4
		c-0.1-0.1-0.2-0.2-0.3-0.3s-0.3-0.1-0.4-0.1c-0.2,0-0.3,0-0.4,0.1c-0.1,0.1-0.2,0.2-0.3,0.3c-0.1,0.1-0.1,0.3-0.1,0.4
		c0,0.2,0,0.3,0.1,0.4s0.2,0.2,0.3,0.3c0.1,0.1,0.3,0.1,0.4,0.1s0.3,0,0.4-0.1s0.2-0.2,0.3-0.3C28.1,44.3,28.1,44.2,28.1,44z"/>
	<path fill="#FFFFFF" d="M31.6,44c0,0.2-0.1,0.4-0.2,0.6c-0.1,0.2-0.2,0.3-0.4,0.4s-0.4,0.2-0.6,0.2c-0.2,0-0.4-0.1-0.6-0.2
		s-0.3-0.2-0.4-0.4c-0.1-0.2-0.2-0.4-0.2-0.6c0-0.1,0-0.3,0.1-0.4c0-0.1,0.1-0.3,0.2-0.4l1.1-1.7H31l-0.9,1.4c0.1,0,0.2,0,0.3,0
		c0.2,0,0.4,0,0.6,0.2c0.2,0.1,0.3,0.2,0.4,0.4C31.6,43.6,31.6,43.8,31.6,44z M31.2,44c0-0.2,0-0.3-0.1-0.4
		c-0.1-0.1-0.2-0.2-0.3-0.3s-0.3-0.1-0.4-0.1c-0.2,0-0.3,0-0.4,0.1c-0.1,0.1-0.2,0.2-0.3,0.3c-0.1,0.1-0.1,0.3-0.1,0.4
		c0,0.2,0,0.3,0.1,0.4s0.2,0.2,0.3,0.3c0.1,0.1,0.3,0.1,0.4,0.1s0.3,0,0.4-0.1s0.2-0.2,0.3-0.3C31.2,44.3,31.2,44.2,31.2,44z"/>
	<path fill="#FFFFFF" d="M34.7,44c0,0.2-0.1,0.4-0.2,0.6c-0.1,0.2-0.2,0.3-0.4,0.4s-0.4,0.2-0.6,0.2c-0.2,0-0.4-0.1-0.6-0.2
		s-0.3-0.2-0.4-0.4c-0.1-0.2-0.2-0.4-0.2-0.6c0-0.1,0-0.3,0.1-0.4c0-0.1,0.1-0.3,0.2-0.4l1.1-1.7h0.4l-0.9,1.4c0.1,0,0.2,0,0.3,0
		c0.2,0,0.4,0,0.6,0.2c0.2,0.1,0.3,0.2,0.4,0.4C34.6,43.6,34.7,43.8,34.7,44z M34.3,44c0-0.2,0-0.3-0.1-0.4
		c-0.1-0.1-0.2-0.2-0.3-0.3s-0.3-0.1-0.4-0.1c-0.2,0-0.3,0-0.4,0.1c-0.1,0.1-0.2,0.2-0.3,0.3c-0.1,0.1-0.1,0.3-0.1,0.4
		c0,0.2,0,0.3,0.1,0.4s0.2,0.2,0.3,0.3c0.1,0.1,0.3,0.1,0.4,0.1s0.3,0,0.4-0.1s0.2-0.2,0.3-0.3C34.3,44.3,34.3,44.2,34.3,44z"/>
	<path fill="#FFFFFF" d="M37.8,44c0,0.2-0.1,0.4-0.2,0.6c-0.1,0.2-0.2,0.3-0.4,0.4s-0.4,0.2-0.6,0.2c-0.2,0-0.4-0.1-0.6-0.2
		s-0.3-0.2-0.4-0.4c-0.1-0.2-0.2-0.4-0.2-0.6c0-0.1,0-0.3,0.1-0.4c0-0.1,0.1-0.3,0.2-0.4l1.1-1.7h0.4l-0.9,1.4c0.1,0,0.2,0,0.3,0
		c0.2,0,0.4,0,0.6,0.2c0.2,0.1,0.3,0.2,0.4,0.4C37.7,43.6,37.8,43.8,37.8,44z M37.4,44c0-0.2,0-0.3-0.1-0.4
		c-0.1-0.1-0.2-0.2-0.3-0.3s-0.3-0.1-0.4-0.1c-0.2,0-0.3,0-0.4,0.1c-0.1,0.1-0.2,0.2-0.3,0.3c-0.1,0.1-0.1,0.3-0.1,0.4
		c0,0.2,0,0.3,0.1,0.4s0.2,0.2,0.3,0.3c0.1,0.1,0.3,0.1,0.4,0.1s0.3,0,0.4-0.1s0.2-0.2,0.3-0.3C37.4,44.3,37.4,44.2,37.4,44z"/>
	<path fill="#FFFFFF" d="M38.8,44.6c0.1,0,0.2,0,0.2,0.1c0.1,0.1,0.1,0.1,0.1,0.2s0,0.2-0.1,0.2c-0.1,0.1-0.1,0.1-0.2,0.1
		s-0.2,0-0.2-0.1c-0.1-0.1-0.1-0.1-0.1-0.2s0-0.2,0.1-0.2C38.6,44.6,38.7,44.6,38.8,44.6z"/>
	<path fill="#FFFFFF" d="M42,44.8v0.4h-2.2v-0.3l1.5-1.6c0.1-0.1,0.2-0.2,0.3-0.4c0.1-0.1,0.1-0.2,0.1-0.4c0-0.1,0-0.3-0.1-0.4
		c-0.1-0.1-0.1-0.2-0.3-0.3c-0.1-0.1-0.2-0.1-0.4-0.1c-0.1,0-0.3,0-0.4,0.1c-0.1,0.1-0.2,0.1-0.3,0.2s-0.1,0.2-0.1,0.4h-0.4
		c0-0.2,0-0.4,0.1-0.5c0.1-0.2,0.2-0.3,0.4-0.4c0.2-0.1,0.4-0.1,0.6-0.1c0.2,0,0.4,0,0.6,0.1c0.2,0.1,0.3,0.2,0.4,0.4
		c0.1,0.2,0.1,0.3,0.1,0.6c0,0.2,0,0.4-0.1,0.5c-0.1,0.2-0.2,0.3-0.4,0.5l-1.2,1.3H42z"/>
</g>
</svg>
