<?xml version="1.0" encoding="utf-8"?>
<!-- Generator: Adobe Illustrator 27.4.0, SVG Export Plug-In . SVG Version: 6.00 Build 0)  -->
<svg version="1.1" baseProfile="tiny" id="Layer_1" xmlns="http://www.w3.org/2000/svg" xmlns:xlink="http://www.w3.org/1999/xlink"
	 x="0px" y="0px" viewBox="0 0 300 600" overflow="visible" xml:space="preserve">
<g>
	<path fill="#193062" d="M30.4,309.7h4.2v7.8h7.6v-7.8h4.2v19.9h-4.2v-7.9h-7.6v7.9h-4.2V309.7z"/>
	<path fill="#193062" d="M63.1,324.2h-9.5c0.5,1.2,1.6,2,3.1,2c1.3,0,2.3-0.7,2.9-1.6l3.2,1.9c-1.2,2.1-3.4,3.4-6.1,3.4
		c-4.1,0-7.1-3.1-7.1-7.1c0-4.1,2.9-7.2,6.9-7.2c4.1,0,6.9,3,6.9,7.1C63.3,323.2,63.2,323.7,63.1,324.2z M53.5,321.3h5.8
		c-0.4-1.3-1.5-2-2.9-2C54.9,319.2,53.8,320,53.5,321.3z"/>
	<path fill="#193062" d="M65.9,308.9h4v20.7h-4V308.9z"/>
	<path fill="#193062" d="M87.8,322.8c0,4-2.8,7.1-6.8,7.1c-1.3,0-2.5-0.4-3.4-1v6.5h-4v-19.5h3.9v0.8c0.9-0.7,2.1-1.1,3.5-1.1
		C85,315.6,87.8,318.7,87.8,322.8z M83.7,322.8c0-1.8-1.3-3.3-3.1-3.3c-1.9,0-3.2,1.4-3.2,3.3c0,1.8,1.3,3.2,3.2,3.2
		C82.4,326,83.7,324.6,83.7,322.8z"/>
	<path fill="#193062" d="M92.4,309.1c1.4,0,2.5,1.1,2.5,2.5c0,1.4-1.1,2.5-2.5,2.5s-2.5-1.1-2.5-2.5C89.9,310.2,91,309.1,92.4,309.1
		z M94.5,329.6h-4v-13.7h4V329.6z"/>
	<path fill="#193062" d="M110.7,321v8.6h-4v-7.8c0-1.3-0.9-2.3-2.3-2.3c-1.4,0-2.3,1-2.3,2.3v7.8h-4v-13.7h3.9v0.8
		c0.9-0.7,2-1.1,3.3-1.1C108.4,315.6,110.7,317.9,110.7,321z"/>
	<path fill="#193062" d="M127,315.9v13.3c0,3.7-2.7,6.5-6.8,6.5c-3.1,0-5.6-1.7-6.4-4.4l3.7-1.4c0.4,1.2,1.3,1.9,2.7,1.9
		c1.7,0,2.8-1.1,2.8-2.7v-1c-0.9,0.7-2,1-3.3,1c-3.7,0-6.4-3-6.4-6.7c0-3.8,2.7-6.8,6.4-6.8c1.3,0,2.5,0.4,3.4,1.1v-0.8H127z
		 M123.1,322.4c0-1.6-1.3-2.9-2.9-2.9c-1.7,0-2.9,1.3-2.9,2.9c0,1.6,1.3,2.8,2.9,2.8C121.9,325.2,123.1,324,123.1,322.4z"/>
	<path fill="#193062" d="M152.7,322.8c0,4-2.8,7.1-6.8,7.1c-1.3,0-2.5-0.4-3.4-1v6.5h-4v-19.5h3.9v0.8c0.9-0.7,2.1-1.1,3.5-1.1
		C149.9,315.6,152.7,318.7,152.7,322.8z M148.7,322.8c0-1.8-1.3-3.3-3.1-3.3c-1.9,0-3.2,1.4-3.2,3.3c0,1.8,1.3,3.2,3.2,3.2
		C147.4,326,148.7,324.6,148.7,322.8z"/>
	<path fill="#193062" d="M164.1,315.9v4h-2c-1.6,0-2.6,1.2-2.6,2.7v7h-4v-13.7h3.9v1.2c0.8-1,2-1.2,3.2-1.2H164.1z"/>
	<path fill="#193062" d="M172.5,315.6c4.1,0,7.2,3.1,7.2,7.2c0,3.9-3,7.1-7.2,7.1c-4.1,0-7.2-3.2-7.2-7.1
		C165.4,318.7,168.4,315.6,172.5,315.6z M172.5,325.9c1.8,0,3.2-1.4,3.2-3.2c0-1.8-1.3-3.2-3.2-3.2c-1.8,0-3.2,1.4-3.2,3.2
		C169.4,324.5,170.7,325.9,172.5,325.9z"/>
	<path fill="#193062" d="M186.8,315.9h4.2v3.8h-4.2v4.6c0,0.9,0.6,1.5,1.5,1.5h2.7v3.8h-3.5c-2.8,0-4.7-1.8-4.7-4.6v-5.3h-2v-2.1
		l3.8-4.7h2.2V315.9z"/>
	<path fill="#193062" d="M206.4,324.2h-9.5c0.5,1.2,1.6,2,3.1,2c1.3,0,2.3-0.7,2.9-1.6l3.2,1.9c-1.2,2.1-3.4,3.4-6.1,3.4
		c-4.1,0-7.1-3.1-7.1-7.1c0-4.1,2.9-7.2,6.9-7.2c4.1,0,6.9,3,6.9,7.1C206.6,323.2,206.5,323.7,206.4,324.2z M196.8,321.3h5.8
		c-0.4-1.3-1.5-2-2.9-2C198.2,319.2,197.2,320,196.8,321.3z"/>
	<path fill="#193062" d="M215.4,315.6c2.6,0,4.8,1.3,6,3.2l-3.2,2.3c-0.6-0.9-1.5-1.6-2.7-1.6c-1.8,0-3.1,1.4-3.1,3.2
		c0,1.8,1.3,3.2,3.1,3.2c1.2,0,2.1-0.6,2.7-1.6l3.3,2.3c-1.2,2-3.3,3.2-6,3.2c-4.1,0-7.1-3.1-7.1-7.2
		C208.3,318.7,211.3,315.6,215.4,315.6z"/>
	<path fill="#193062" d="M228.2,315.9h4.2v3.8h-4.2v4.6c0,0.9,0.6,1.5,1.5,1.5h2.7v3.8h-3.5c-2.8,0-4.7-1.8-4.7-4.6v-5.3h-2v-2.1
		l3.8-4.7h2.2V315.9z"/>
</g>
<g>
	<path fill="#193062" d="M42.4,355l-7,19.5h-4.2l2.2-6.1L28.5,355h4.4l2.6,7.4l2.7-7.4H42.4z"/>
	<path fill="#193062" d="M50.3,354.7c4.1,0,7.2,3.1,7.2,7.2c0,3.9-3,7.1-7.2,7.1s-7.2-3.2-7.2-7.1C43.1,357.8,46.1,354.7,50.3,354.7
		z M50.3,365c1.8,0,3.2-1.4,3.2-3.2c0-1.8-1.3-3.2-3.2-3.2s-3.2,1.4-3.2,3.2C47.1,363.6,48.4,365,50.3,365z"/>
	<path fill="#193062" d="M72.6,355v13.7h-3.9v-0.8c-0.9,0.7-2,1.1-3.3,1.1c-3.1,0-5.4-2.3-5.4-5.4V355h4v7.8c0,1.3,0.9,2.3,2.3,2.3
		c1.4,0,2.3-1,2.3-2.3V355H72.6z"/>
	<path fill="#193062" d="M84.9,355v4h-2c-1.6,0-2.6,1.2-2.6,2.7v7h-4V355h3.9v1.2c0.8-1,2-1.2,3.2-1.2H84.9z"/>
	<path fill="#193062" d="M96.4,358.8h-2.7V355h2.7v-2.7c0-2.6,1.7-4.3,4.4-4.3h3.1v3.8h-2.3c-0.7,0-1.1,0.4-1.1,1.1v2.1h3.5v3.8
		h-3.5v9.9h-4V358.8z"/>
	<path fill="#193062" d="M117.2,360.1v8.6h-3.9v-0.7c-0.8,0.7-1.9,1-3.3,1c-2.8,0-4.8-1.8-4.8-4.3c0-2.8,2.1-4.1,4.8-4.3l3.3-0.3
		V360c0-0.9-0.9-1.6-2-1.6c-1,0-1.8,0.5-2,1.3h-3.8c0.2-2.9,2.6-5,5.8-5C114.8,354.7,117.2,356.9,117.2,360.1z M113.3,363.9V363
		l-2.7,0.2c-1,0.1-1.4,0.6-1.4,1.2c0,0.7,0.6,1.3,1.7,1.3C112.4,365.7,113.3,365,113.3,363.9z"/>
	<path fill="#193062" d="M140.7,359.7v9h-4v-8.1c0-1.1-0.7-2-2-2c-1.2,0-2,0.9-2,2v8.1h-4v-8.1c0-1.1-0.7-2-2-2c-1.2,0-2,0.9-2,2
		v8.1h-4V355h3.9v0.7c0.8-0.6,1.9-1,3.1-1c1.4,0,2.7,0.5,3.6,1.4c1-0.9,2.3-1.4,3.9-1.4C138.4,354.7,140.7,356.8,140.7,359.7z"/>
	<path fill="#193062" d="M146.3,348.2c1.4,0,2.5,1.1,2.5,2.5c0,1.4-1.1,2.5-2.5,2.5s-2.5-1.1-2.5-2.5
		C143.8,349.3,144.8,348.2,146.3,348.2z M148.3,368.7h-4V355h4V368.7z"/>
	<path fill="#193062" d="M151.9,347.9h4v20.7h-4V347.9z"/>
	<path fill="#193062" d="M171.7,355l-7,19.5h-4.2l2.2-6.1l-4.8-13.4h4.4l2.6,7.4l2.7-7.4H171.7z"/>
	<path fill="#193062" d="M178.1,350.9c0,0.3-0.1,0.6-0.2,0.9l-1.6,4.5H174l0.8-3.2c-0.9-0.3-1.5-1.2-1.5-2.3c0-1.4,1-2.4,2.4-2.4
		C177.1,348.5,178.1,349.5,178.1,350.9z"/>
	<path fill="#193062" d="M184.9,365.4c1.1,0,1.8-0.4,1.8-1c0-0.4-0.4-0.7-1-0.7c-0.7-0.1-1.4-0.1-2.5-0.3c-2.7-0.4-3.9-2-3.9-4
		c0-2.7,2.2-4.7,5.5-4.7c3.2,0,5.5,1.9,5.5,4.6h-3.9c0-0.6-0.7-1-1.7-1c-1,0-1.6,0.4-1.6,0.9c0,0.4,0.3,0.6,1,0.7
		c0.9,0.1,1.4,0.1,2.6,0.2c2.7,0.3,3.9,2,3.9,4.1c0,2.7-2.3,4.8-5.7,4.8c-3.3,0-5.7-2-5.7-4.7h3.9
		C183,364.9,183.8,365.4,184.9,365.4z"/>
</g>
<g>
	<path fill="#193062" d="M31.5,397.9h-2.7V394h2.7v-2.7c0-2.6,1.7-4.3,4.4-4.3H39v3.8h-2.3c-0.7,0-1.1,0.4-1.1,1.1v2.1H39v3.8h-3.5
		v9.9h-4V397.9z"/>
	<path fill="#193062" d="M54,394v13.7h-3.9V407c-0.9,0.7-2,1.1-3.3,1.1c-3.1,0-5.4-2.3-5.4-5.4V394h4v7.8c0,1.3,0.9,2.3,2.3,2.3
		c1.4,0,2.3-1,2.3-2.3V394H54z"/>
	<path fill="#193062" d="M62.1,394h4.2v3.8h-4.2v4.6c0,0.9,0.6,1.5,1.5,1.5h2.7v3.8h-3.5c-2.8,0-4.7-1.8-4.7-4.6v-5.3h-2v-2.1
		l3.8-4.7h2.2V394z"/>
	<path fill="#193062" d="M81.6,394v13.7h-3.9V407c-0.9,0.7-2,1.1-3.3,1.1c-3.1,0-5.4-2.3-5.4-5.4V394h4v7.8c0,1.3,0.9,2.3,2.3,2.3
		c1.4,0,2.3-1,2.3-2.3V394H81.6z"/>
	<path fill="#193062" d="M93.9,394v4h-2c-1.6,0-2.6,1.2-2.6,2.7v7h-4V394h3.9v1.2c0.8-1,2-1.2,3.2-1.2H93.9z"/>
	<path fill="#193062" d="M108.8,402.3h-9.5c0.5,1.2,1.6,2,3.1,2c1.3,0,2.3-0.7,2.9-1.6l3.2,1.9c-1.2,2.1-3.4,3.4-6.1,3.4
		c-4.1,0-7.1-3.1-7.1-7.1c0-4.1,2.9-7.2,6.9-7.2c4.1,0,6.9,3,6.9,7.1C109,401.4,108.9,401.9,108.8,402.3z M99.2,399.4h5.8
		c-0.4-1.3-1.5-2-2.9-2C100.6,397.4,99.5,398.1,99.2,399.4z"/>
	<path fill="#193062" d="M125.7,393.7c2.6,0,4.8,1.3,6,3.2l-3.2,2.3c-0.6-0.9-1.5-1.6-2.7-1.6c-1.8,0-3.1,1.4-3.1,3.2
		c0,1.8,1.3,3.2,3.1,3.2c1.2,0,2.1-0.6,2.7-1.6l3.3,2.3c-1.2,2-3.3,3.2-6,3.2c-4.1,0-7.1-3.1-7.1-7.2
		C118.6,396.9,121.6,393.7,125.7,393.7z"/>
	<path fill="#193062" d="M140,393.7c4.1,0,7.2,3.1,7.2,7.2c0,3.9-3,7.1-7.2,7.1s-7.2-3.2-7.2-7.1C132.8,396.9,135.8,393.7,140,393.7
		z M140,404.1c1.8,0,3.2-1.4,3.2-3.2c0-1.8-1.3-3.2-3.2-3.2s-3.2,1.4-3.2,3.2C136.8,402.7,138.2,404.1,140,404.1z"/>
	<path fill="#193062" d="M162.3,394v13.7h-3.9V407c-0.9,0.7-2,1.1-3.3,1.1c-3.1,0-5.4-2.3-5.4-5.4V394h4v7.8c0,1.3,0.9,2.3,2.3,2.3
		c1.4,0,2.3-1,2.3-2.3V394H162.3z"/>
	<path fill="#193062" d="M165.9,387h4v20.7h-4V387z"/>
	<path fill="#193062" d="M186.8,387v20.7h-3.9v-0.8c-0.9,0.7-2.1,1.1-3.5,1.1c-4,0-6.8-3.2-6.8-7.1c0-4.1,2.8-7.2,6.8-7.2
		c1.3,0,2.5,0.4,3.4,1V387H186.8z M183,400.9c0-1.8-1.3-3.3-3.2-3.3c-1.8,0-3.1,1.4-3.1,3.3c0,1.8,1.3,3.2,3.1,3.2
		C181.7,404.1,183,402.7,183,400.9z"/>
	<path fill="#193062" d="M203.2,404.4c1.1,0,1.8-0.4,1.8-1c0-0.4-0.4-0.7-1-0.7c-0.7-0.1-1.4-0.1-2.5-0.3c-2.7-0.4-3.9-2-3.9-4
		c0-2.7,2.2-4.7,5.5-4.7c3.2,0,5.5,1.9,5.5,4.6h-3.9c0-0.6-0.7-1-1.7-1c-1,0-1.6,0.4-1.6,0.9c0,0.4,0.3,0.6,1,0.7
		c0.9,0.1,1.4,0.1,2.6,0.2c2.7,0.3,3.9,2,3.9,4.1c0,2.7-2.3,4.8-5.7,4.8c-3.3,0-5.7-2-5.7-4.7h3.9
		C201.3,404,202.1,404.4,203.2,404.4z"/>
	<path fill="#193062" d="M216,394h4.2v3.8H216v4.6c0,0.9,0.6,1.5,1.5,1.5h2.7v3.8h-3.5c-2.8,0-4.7-1.8-4.7-4.6v-5.3h-2v-2.1l3.8-4.7
		h2.2V394z"/>
	<path fill="#193062" d="M234.3,399.2v8.6h-3.9V407c-0.8,0.7-1.8,1-3.3,1c-2.8,0-4.8-1.8-4.8-4.3c0-2.8,2.1-4.1,4.8-4.3l3.3-0.3
		v-0.2c0-0.9-0.9-1.6-2-1.6c-1,0-1.8,0.5-2,1.3h-3.8c0.2-2.9,2.6-5,5.8-5C231.8,393.7,234.3,396,234.3,399.2z M230.3,402.9v-0.8
		l-2.7,0.2c-1,0.1-1.4,0.6-1.4,1.2c0,0.7,0.6,1.3,1.7,1.3C229.4,404.8,230.3,404.1,230.3,402.9z"/>
	<path fill="#193062" d="M246.5,394v4h-2c-1.6,0-2.6,1.2-2.6,2.7v7h-4V394h3.9v1.2c0.8-1,2-1.2,3.2-1.2H246.5z"/>
	<path fill="#193062" d="M253.6,394h4.2v3.8h-4.2v4.6c0,0.9,0.6,1.5,1.5,1.5h2.7v3.8h-3.5c-2.8,0-4.7-1.8-4.7-4.6v-5.3h-2v-2.1
		l3.8-4.7h2.2V394z"/>
</g>
<g>
	<path fill="#193062" d="M49.4,433.1l-4.5,13.7h-4.1l-1.7-5.7l-1.7,5.7h-4.1l-4.5-13.7H33l2.4,7.8l2.4-7.8h2.6l2.3,7.5l2.5-7.5H49.4
		z"/>
	<path fill="#193062" d="M53.4,426.4c1.4,0,2.5,1.1,2.5,2.5c0,1.4-1.1,2.5-2.5,2.5s-2.5-1.1-2.5-2.5C50.9,427.4,52,426.4,53.4,426.4
		z M55.4,446.8h-4v-13.7h4V446.8z"/>
	<path fill="#193062" d="M63.6,433.1h4.2v3.8h-4.2v4.6c0,0.9,0.6,1.5,1.5,1.5h2.7v3.8h-3.5c-2.8,0-4.7-1.8-4.7-4.6V437h-2v-2.1
		l3.8-4.7h2.2V433.1z"/>
	<path fill="#193062" d="M83.2,438.3v8.5h-4v-7.7c0-1.3-0.9-2.4-2.3-2.4c-1.4,0-2.4,1-2.4,2.4v7.7h-4v-20.7h4v7.8c0.9-0.7,2-1,3.3-1
		C80.9,432.8,83.2,435.1,83.2,438.3z"/>
	<path fill="#193062" d="M98.5,431.1h-5.7V427h15.6v4.1h-5.7v15.7h-4.2V431.1z"/>
	<path fill="#193062" d="M117.2,433.1v4h-2c-1.6,0-2.6,1.2-2.6,2.7v7h-4v-13.7h3.9v1.2c0.8-1,2-1.2,3.2-1.2H117.2z"/>
	<path fill="#193062" d="M132,433.1v13.7H128v-0.8c-0.9,0.7-2,1.1-3.3,1.1c-3.1,0-5.4-2.3-5.4-5.4v-8.6h4v7.8c0,1.3,0.9,2.3,2.3,2.3
		c1.4,0,2.3-1,2.3-2.3v-7.8H132z"/>
	<path fill="#193062" d="M142.2,430.7c-1.8,0-2.9,0.9-2.9,2.1c0,0.8,0.5,1.3,1.2,1.6c1.3,0.5,3.1,0.2,5.1,0.8
		c2.6,0.8,4.2,2.7,4.2,5.4c0,3.8-2.9,6.6-7.3,6.6c-4.3,0-7.5-2.6-7.5-6.4h4.2c0,1.4,1.4,2.4,3.3,2.4c2,0,3.1-1,3.1-2.3
		c0-0.9-0.6-1.4-1.3-1.7c-1.2-0.4-3.3-0.3-5.1-0.8c-2.6-0.7-4.1-2.7-4.1-5.3c0-3.7,2.9-6.3,7.1-6.3c4.2,0,7.2,2.5,7.2,6.2h-4.2
		C145.2,431.6,144,430.7,142.2,430.7z"/>
	<path fill="#193062" d="M157.2,433.1h4.2v3.8h-4.2v4.6c0,0.9,0.6,1.5,1.5,1.5h2.7v3.8h-3.5c-2.8,0-4.7-1.8-4.7-4.6V437h-2v-2.1
		l3.8-4.7h2.2V433.1z"/>
	<path fill="#193062" d="M175.5,438.2v8.6h-3.9v-0.7c-0.8,0.7-1.8,1-3.3,1c-2.8,0-4.8-1.8-4.8-4.3c0-2.8,2.1-4.1,4.8-4.3l3.3-0.3
		v-0.2c0-0.9-0.9-1.6-2-1.6c-1,0-1.8,0.5-2,1.3h-3.8c0.2-2.9,2.6-5,5.8-5C173,432.8,175.5,435.1,175.5,438.2z M171.5,442v-0.8
		l-2.7,0.2c-1,0.1-1.4,0.6-1.4,1.2c0,0.7,0.6,1.3,1.7,1.3C170.6,443.9,171.5,443.2,171.5,442z"/>
	<path fill="#193062" d="M191.7,433.1v13.3c0,3.7-2.7,6.5-6.8,6.5c-3.1,0-5.5-1.7-6.4-4.4l3.7-1.4c0.4,1.2,1.3,1.9,2.7,1.9
		c1.7,0,2.8-1.1,2.8-2.7v-1c-0.9,0.7-2,1-3.3,1c-3.7,0-6.4-3-6.4-6.7c0-3.8,2.7-6.8,6.4-6.8c1.3,0,2.5,0.4,3.4,1.1v-0.8H191.7z
		 M187.9,439.7c0-1.6-1.3-2.9-2.9-2.9c-1.7,0-2.9,1.3-2.9,2.9c0,1.6,1.3,2.8,2.9,2.8C186.6,442.5,187.9,441.2,187.9,439.7z"/>
	<path fill="#193062" d="M208,441.4h-9.5c0.5,1.2,1.6,2,3.1,2c1.3,0,2.3-0.7,2.9-1.6l3.2,1.9c-1.2,2.1-3.4,3.4-6.1,3.4
		c-4.1,0-7.1-3.1-7.1-7.1c0-4.1,2.9-7.2,6.9-7.2c4.1,0,6.9,3,6.9,7.1C208.2,440.4,208.1,441,208,441.4z M198.4,438.5h5.8
		c-0.4-1.3-1.5-2-2.9-2C199.8,436.5,198.8,437.2,198.4,438.5z"/>
	<path fill="#193062" d="M212.2,429.2H210V427h6.7v2.2h-2.2v5.6h-2.3V429.2z M217.8,427h2.3l1.8,3.6l1.7-3.6h2.3v7.8h-2.3v-3.5
		l-1.7,3.7l-1.8-3.6v3.5h-2.2V427z"/>
</g>
<g>
	<path fill="#193062" d="M30.4,466.1h4.2v15.7H46v4.1H30.4V466.1z"/>
	<path fill="#193062" d="M50.7,465.4c1.4,0,2.5,1.1,2.5,2.5c0,1.4-1.1,2.5-2.5,2.5s-2.5-1.1-2.5-2.5
		C48.2,466.5,49.2,465.4,50.7,465.4z M52.7,485.9h-4v-13.7h4V485.9z"/>
	<path fill="#193062" d="M57.6,476.1h-2.7v-3.8h2.7v-2.7c0-2.6,1.7-4.3,4.4-4.3h3.1v3.8h-2.3c-0.7,0-1.1,0.4-1.1,1.1v2.1h3.5v3.8
		h-3.5v9.9h-4V476.1z"/>
	<path fill="#193062" d="M79.9,480.5h-9.5c0.5,1.2,1.6,2,3.1,2c1.3,0,2.3-0.7,2.9-1.6l3.2,1.9c-1.2,2.1-3.4,3.4-6.1,3.4
		c-4.1,0-7.1-3.1-7.1-7.1c0-4.1,2.9-7.2,6.9-7.2c4.1,0,6.9,3,6.9,7.1C80.1,479.5,80,480.1,79.9,480.5z M70.3,477.6h5.8
		c-0.4-1.3-1.5-2-2.9-2C71.7,475.6,70.6,476.3,70.3,477.6z"/>
	<path fill="#193062" d="M90.9,466.1h4.2v19.9h-4.2V466.1z"/>
	<path fill="#193062" d="M111.6,477.4v8.6h-4v-7.8c0-1.3-0.9-2.3-2.3-2.3c-1.4,0-2.3,1-2.3,2.3v7.8h-4v-13.7h3.9v0.8
		c0.9-0.7,2-1.1,3.3-1.1C109.4,471.9,111.6,474.2,111.6,477.4z"/>
	<path fill="#193062" d="M120,482.6c1.1,0,1.8-0.4,1.8-1c0-0.4-0.4-0.7-1-0.7c-0.7-0.1-1.4-0.1-2.5-0.3c-2.7-0.4-3.9-2-3.9-4
		c0-2.7,2.2-4.7,5.6-4.7c3.2,0,5.5,1.9,5.5,4.6h-3.9c0-0.6-0.7-1-1.7-1c-1,0-1.6,0.4-1.6,0.9c0,0.4,0.3,0.6,1,0.7
		c0.9,0.1,1.4,0.1,2.6,0.2c2.7,0.3,3.9,2,3.9,4.1c0,2.7-2.3,4.8-5.7,4.8c-3.3,0-5.7-2-5.7-4.7h3.9
		C118.2,482.2,118.9,482.6,120,482.6z"/>
	<path fill="#193062" d="M140.9,472.2v13.7h-3.9v-0.8c-0.9,0.7-2,1.1-3.3,1.1c-3.1,0-5.4-2.3-5.4-5.4v-8.6h4v7.8
		c0,1.3,0.9,2.3,2.3,2.3c1.4,0,2.3-1,2.3-2.3v-7.8H140.9z"/>
	<path fill="#193062" d="M153.1,472.2v4h-2c-1.6,0-2.6,1.2-2.6,2.7v7h-4v-13.7h3.9v1.2c0.8-1,2-1.2,3.2-1.2H153.1z"/>
	<path fill="#193062" d="M166.4,477.3v8.6h-3.9v-0.7c-0.8,0.7-1.8,1-3.3,1c-2.8,0-4.8-1.8-4.8-4.3c0-2.8,2.1-4.1,4.8-4.3l3.3-0.3
		v-0.2c0-0.9-0.9-1.6-2-1.6c-1,0-1.8,0.5-2,1.3h-3.8c0.2-2.9,2.6-5,5.8-5C164,471.9,166.4,474.2,166.4,477.3z M162.5,481.1v-0.8
		l-2.7,0.2c-1,0.1-1.4,0.6-1.4,1.2c0,0.7,0.6,1.3,1.7,1.3C161.6,483,162.5,482.3,162.5,481.1z"/>
	<path fill="#193062" d="M182.6,477.4v8.6h-4v-7.8c0-1.3-0.9-2.3-2.3-2.3c-1.4,0-2.3,1-2.3,2.3v7.8h-4v-13.7h3.9v0.8
		c0.9-0.7,2-1.1,3.3-1.1C180.3,471.9,182.6,474.2,182.6,477.4z"/>
	<path fill="#193062" d="M192.3,471.9c2.6,0,4.8,1.3,6,3.2l-3.2,2.3c-0.6-0.9-1.5-1.6-2.7-1.6c-1.8,0-3.1,1.4-3.1,3.2
		c0,1.8,1.3,3.2,3.1,3.2c1.2,0,2.1-0.6,2.7-1.6l3.3,2.3c-1.2,2-3.3,3.2-6,3.2c-4.1,0-7.1-3.1-7.1-7.2
		C185.2,475,188.2,471.9,192.3,471.9z"/>
	<path fill="#193062" d="M213.1,480.5h-9.5c0.5,1.2,1.6,2,3.1,2c1.3,0,2.3-0.7,2.9-1.6l3.2,1.9c-1.2,2.1-3.4,3.4-6.1,3.4
		c-4.1,0-7.1-3.1-7.1-7.1c0-4.1,2.9-7.2,6.9-7.2c4.1,0,6.9,3,6.9,7.1C213.2,479.5,213.2,480.1,213.1,480.5z M203.4,477.6h5.8
		c-0.4-1.3-1.5-2-2.9-2C204.9,475.6,203.8,476.3,203.4,477.6z"/>
	<path fill="#193062" d="M217.9,481.1c1.4,0,2.5,1.1,2.5,2.5c0,1.4-1.1,2.5-2.5,2.5c-1.4,0-2.5-1.1-2.5-2.5
		C215.4,482.2,216.5,481.1,217.9,481.1z"/>
</g>
</svg>
