<?xml version="1.0" encoding="utf-8"?>
<!-- Generator: Adobe Illustrator 27.4.0, SVG Export Plug-In . SVG Version: 6.00 Build 0)  -->
<svg version="1.1" baseProfile="tiny" id="Layer_1" xmlns="http://www.w3.org/2000/svg" xmlns:xlink="http://www.w3.org/1999/xlink"
	 x="0px" y="0px" viewBox="0 0 300 600" overflow="visible" xml:space="preserve">
<rect x="31.8" y="514.7" fill="#FAE07E" width="129.2" height="36.5"/>
<g>
	<path fill="#193062" d="M57.2,532.8v0.3c0,1-0.2,1.9-0.7,2.7c-0.4,0.8-1,1.4-1.8,1.9c-0.8,0.5-1.7,0.7-2.7,0.7c-1,0-2-0.2-2.8-0.7
		c-0.8-0.5-1.4-1.1-1.9-1.9c-0.5-0.8-0.7-1.8-0.7-2.8c0-1,0.2-1.9,0.7-2.8s1.1-1.5,1.9-2c0.8-0.5,1.8-0.7,2.8-0.7
		c0.7,0,1.3,0.1,1.9,0.3s1.1,0.5,1.6,0.9c0.5,0.4,0.9,0.9,1.2,1.4l-1.7,1.1c-0.3-0.5-0.7-0.9-1.2-1.2s-1.1-0.5-1.8-0.5
		c-0.6,0-1.2,0.1-1.7,0.4c-0.5,0.3-0.9,0.7-1.2,1.2c-0.3,0.5-0.4,1.1-0.4,1.7c0,0.7,0.1,1.3,0.4,1.8c0.3,0.5,0.7,0.9,1.2,1.2
		s1.1,0.4,1.7,0.4c0.7,0,1.3-0.2,1.8-0.5s0.9-0.7,1.1-1.3h-3.6v-1.9H57.2z"/>
	<path fill="#193062" d="M58.9,527.7H67v2h-6.1v2.2h3.4v2h-3.4v2.3H67v2h-8.2V527.7z"/>
	<path fill="#193062" d="M71.2,529.7h-3.1v-2h8.2v2h-3.1v8.5h-2.1V529.7z"/>
	<path fill="#193062" d="M87.2,536.7h-3.9l-0.5,1.5h-2l3.5-10.5h2.1l3.4,10.5h-2.1L87.2,536.7z M86.6,534.7l-1.3-4l-1.3,4H86.6z"/>
	<path fill="#193062" d="M105.7,536.3v1.9h-0.9l-1.3-1c-0.5,0.4-1,0.7-1.6,0.9c-0.6,0.2-1.2,0.3-1.9,0.3c-1,0-2-0.2-2.8-0.7
		c-0.8-0.5-1.5-1.1-1.9-2s-0.7-1.8-0.7-2.8c0-1,0.2-1.9,0.7-2.8s1.1-1.5,1.9-2c0.8-0.5,1.8-0.7,2.8-0.7c1,0,2,0.2,2.8,0.7
		s1.5,1.1,1.9,2c0.5,0.8,0.7,1.7,0.7,2.8c0,0.9-0.2,1.8-0.6,2.6L105.7,536.3z M101.8,535.9l-1-0.8l1.3-1.7l1.1,0.8
		c0.2-0.4,0.2-0.9,0.2-1.3c0-0.6-0.1-1.2-0.4-1.7c-0.3-0.5-0.7-0.9-1.2-1.2c-0.5-0.3-1.1-0.4-1.7-0.4c-0.6,0-1.2,0.1-1.7,0.4
		c-0.5,0.3-0.9,0.7-1.2,1.2c-0.3,0.5-0.4,1.1-0.4,1.7s0.1,1.2,0.4,1.7c0.3,0.5,0.7,0.9,1.2,1.2c0.5,0.3,1.1,0.4,1.7,0.4
		C100.6,536.4,101.2,536.2,101.8,535.9z"/>
	<path fill="#193062" d="M115.6,534.3c0,0.8-0.2,1.5-0.6,2.1c-0.4,0.6-0.9,1.1-1.5,1.5c-0.6,0.4-1.4,0.5-2.1,0.5
		c-0.8,0-1.5-0.2-2.2-0.5s-1.2-0.9-1.5-1.5c-0.4-0.6-0.5-1.3-0.5-2.1v-6.6h2.1v6.5c0,0.4,0.1,0.8,0.3,1.1c0.2,0.3,0.4,0.6,0.8,0.8
		c0.3,0.2,0.7,0.3,1.1,0.3c0.4,0,0.8-0.1,1.1-0.3c0.3-0.2,0.6-0.5,0.8-0.8c0.2-0.3,0.3-0.7,0.3-1.1v-6.5h2V534.3z"/>
	<path fill="#193062" d="M122.6,527.5c1,0,2,0.2,2.8,0.7s1.5,1.1,1.9,2c0.5,0.8,0.7,1.7,0.7,2.8c0,1-0.2,1.9-0.7,2.8
		c-0.5,0.8-1.1,1.5-1.9,2c-0.8,0.5-1.8,0.7-2.8,0.7c-1,0-2-0.2-2.8-0.7c-0.8-0.5-1.5-1.1-1.9-2s-0.7-1.8-0.7-2.8
		c0-1,0.2-1.9,0.7-2.8s1.1-1.5,1.9-2C120.7,527.8,121.6,527.5,122.6,527.5z M122.6,536.4c0.6,0,1.2-0.1,1.7-0.4
		c0.5-0.3,0.9-0.7,1.2-1.2c0.3-0.5,0.4-1.1,0.4-1.7s-0.1-1.2-0.4-1.7c-0.3-0.5-0.7-0.9-1.2-1.2c-0.5-0.3-1.1-0.4-1.7-0.4
		c-0.6,0-1.2,0.1-1.7,0.4c-0.5,0.3-0.9,0.7-1.2,1.2c-0.3,0.5-0.4,1.1-0.4,1.7s0.1,1.2,0.4,1.7c0.3,0.5,0.7,0.9,1.2,1.2
		C121.4,536.2,122,536.4,122.6,536.4z"/>
	<path fill="#193062" d="M131.7,529.7h-3.1v-2h8.2v2h-3.1v8.5h-2.1V529.7z"/>
	<path fill="#193062" d="M138.1,527.7h8.2v2h-6.1v2.2h3.4v2h-3.4v2.3h6.1v2h-8.2V527.7z"/>
</g>
</svg>
