<?xml version="1.0" encoding="utf-8"?>
<!-- Generator: Adobe Illustrator 27.4.0, SVG Export Plug-In . SVG Version: 6.00 Build 0)  -->
<svg version="1.1" baseProfile="tiny" id="Layer_1" xmlns="http://www.w3.org/2000/svg" xmlns:xlink="http://www.w3.org/1999/xlink"
	 x="0px" y="0px" viewBox="0 0 160 600" overflow="visible" xml:space="preserve">
<rect x="18.8" y="512.2" fill="#FAE07E" width="122.8" height="34.7"/>
<g>
	<path fill="#193062" d="M35.9,524.5h2v8.1h5.8v1.9h-7.8V524.5z"/>
	<path fill="#193062" d="M44.9,524.5h7.8v1.9h-5.8v2.1h3.2v1.9h-3.2v2.2h5.8v1.9h-7.8V524.5z"/>
	<path fill="#193062" d="M56.6,526.4h-2.9v-1.9h7.8v1.9h-2.9v8.1h-2V526.4z"/>
	<path fill="#193062" d="M74.6,530.8c0,0.7-0.2,1.4-0.5,2s-0.8,1.1-1.4,1.4c-0.6,0.3-1.3,0.5-2,0.5c-0.8,0-1.5-0.2-2.1-0.5
		s-1.1-0.8-1.4-1.4c-0.3-0.6-0.5-1.3-0.5-2v-6.3h2v6.2c0,0.4,0.1,0.7,0.3,1.1c0.2,0.3,0.4,0.6,0.7,0.7c0.3,0.2,0.7,0.3,1.1,0.3
		c0.4,0,0.7-0.1,1.1-0.3c0.3-0.2,0.6-0.4,0.7-0.7c0.2-0.3,0.3-0.7,0.3-1.1v-6.2h1.9V530.8z"/>
	<path fill="#193062" d="M79.7,526.2c-0.3,0-0.6,0.1-0.8,0.2c-0.2,0.1-0.4,0.2-0.6,0.4c-0.1,0.2-0.2,0.4-0.2,0.6
		c0,0.2,0.1,0.4,0.2,0.5c0.1,0.2,0.3,0.3,0.5,0.3c0.1,0,0.3,0.1,0.4,0.1c0.2,0,0.4,0,0.7,0.1c0.3,0,0.6,0.1,0.8,0.1s0.4,0.1,0.7,0.1
		c0.6,0.2,1.1,0.5,1.5,1c0.4,0.5,0.5,1,0.5,1.7c0,0.6-0.2,1.2-0.5,1.7c-0.3,0.5-0.7,0.9-1.3,1.2c-0.6,0.3-1.2,0.4-1.9,0.4
		c-0.7,0-1.3-0.1-1.9-0.4c-0.6-0.3-1-0.6-1.3-1.1c-0.3-0.5-0.5-1-0.5-1.7h2c0,0.3,0.1,0.5,0.2,0.7c0.2,0.2,0.4,0.4,0.6,0.5
		c0.3,0.1,0.6,0.2,0.9,0.2c0.3,0,0.6-0.1,0.9-0.2c0.3-0.1,0.4-0.3,0.6-0.5c0.1-0.2,0.2-0.4,0.2-0.7c0-0.2-0.1-0.4-0.2-0.6
		c-0.1-0.2-0.3-0.3-0.5-0.4c-0.1-0.1-0.3-0.1-0.5-0.1c-0.2,0-0.4-0.1-0.7-0.1c-0.3,0-0.5-0.1-0.8-0.1c-0.2,0-0.4-0.1-0.6-0.1
		c-0.7-0.2-1.2-0.5-1.5-1s-0.5-1-0.5-1.7c0-0.6,0.2-1.1,0.5-1.6c0.3-0.5,0.7-0.9,1.3-1.1c0.5-0.3,1.2-0.4,1.8-0.4
		c0.7,0,1.3,0.1,1.8,0.4c0.5,0.3,1,0.6,1.3,1.1c0.3,0.5,0.5,1,0.5,1.6h-2c0-0.2-0.1-0.4-0.2-0.6s-0.3-0.3-0.6-0.4
		S80.1,526.2,79.7,526.2z"/>
	<path fill="#193062" d="M88.8,524.5h2v4h4.1v-4h2v10h-2v-4.1h-4.1v4.1h-2V524.5z"/>
	<path fill="#193062" d="M99,524.5h7.8v1.9h-5.8v2.1h3.2v1.9h-3.2v2.2h5.8v1.9H99V524.5z"/>
	<path fill="#193062" d="M108.5,524.5h2v8.1h5.8v1.9h-7.8V524.5z"/>
	<path fill="#193062" d="M125.5,528.1c0,0.7-0.2,1.3-0.5,1.9s-0.7,1-1.3,1.3c-0.6,0.3-1.2,0.5-1.9,0.5h-2.3v2.8h-2v-10h4.3
		c0.7,0,1.4,0.2,1.9,0.5c0.6,0.3,1,0.7,1.3,1.3S125.5,527.4,125.5,528.1z M123.5,528.1c0-0.3-0.1-0.6-0.2-0.9s-0.3-0.5-0.6-0.6
		s-0.5-0.2-0.9-0.2h-2.3v3.4h2.3c0.3,0,0.6-0.1,0.9-0.2c0.3-0.1,0.5-0.3,0.6-0.6S123.5,528.4,123.5,528.1z"/>
</g>
</svg>
