<?xml version="1.0" encoding="utf-8"?>
<!-- Generator: Adobe Illustrator 27.4.0, SVG Export Plug-In . SVG Version: 6.00 Build 0)  -->
<svg version="1.1" baseProfile="tiny" id="Layer_1" xmlns="http://www.w3.org/2000/svg" xmlns:xlink="http://www.w3.org/1999/xlink"
	 x="0px" y="0px" viewBox="0 0 160 600" overflow="visible" xml:space="preserve">
<rect x="31.2" y="21.5" fill="#FAE07E" width="15.2" height="4.2"/>
<rect x="47.7" y="21.5" fill="#FFFFFF" width="3.7" height="4.2"/>
<rect x="31.2" y="26.8" fill="#FAE07E" width="11.3" height="4.2"/>
<rect x="43.8" y="26.8" fill="#FFFFFF" width="7.5" height="4.2"/>
<rect x="31.2" y="32.1" fill="#FAE07E" width="7.5" height="4.2"/>
<rect x="40" y="32.1" fill="#FFFFFF" width="11.3" height="4.2"/>
<rect x="31.2" y="37.4" fill="#FAE07E" width="3.7" height="4.2"/>
<rect x="36.2" y="37.4" fill="#FFFFFF" width="15.2" height="4.2"/>
<polygon fill="#FFFFFF" points="63.2,27.6 59.8,27.6 59.8,25.7 68.5,25.7 68.5,27.6 65.1,27.6 65.1,37.4 63.2,37.4 "/>
<g>
	<path fill="none" d="M111.7,30.7c-1.4,0-2.4,1.1-2.4,2.5c0,1.5,1.1,2.5,2.4,2.5c1.4,0,2.4-1.1,2.4-2.5
		C114.1,31.7,113.1,30.7,111.7,30.7z"/>
	<path fill="none" d="M102,30.7c-1.5,0-2.4,1.2-2.4,2.6s1,2.6,2.4,2.6s2.4-1.2,2.4-2.6S103.4,30.7,102,30.7z"/>
	<path fill="none" d="M121.3,30.5c-1.1,0-2.1,0.6-2.4,1.8h4.6C123.3,31.2,122.3,30.5,121.3,30.5z"/>
	<path fill="#FFFFFF" d="M68,29.2v8.2h1.8v-4c0-1.6,0.9-2.5,2-2.5c0.3,0,0.6,0,0.9,0.1v-1.9c-0.2,0-0.5-0.1-0.7-0.1
		c-0.9,0-1.9,0.6-2.2,1.5v-1.5H68z"/>
	<path fill="#FFFFFF" d="M74.1,29.2v4.9c0,2.1,1.2,3.5,3.1,3.5c1,0,1.9-0.5,2.4-1.3v1.1h1.8v-8.2h-1.8v4.1c0,1.8-0.8,2.7-2,2.7
		c-1.1,0-1.6-0.8-1.6-2.1v-4.6H74.1z"/>
	<path fill="#FFFFFF" d="M86.8,35.8c-1.1,0-2.1-0.6-2.7-1.5l-1.5,1.2c0.7,1.3,2.3,2.1,4.2,2.1c2.3,0,3.9-1.3,3.9-3.4
		c0-1.7-1-2.8-2.7-3.4l-1.2-0.4c-1.2-0.4-1.8-0.8-1.8-1.7c0-0.8,0.9-1.3,1.8-1.3c0.9,0,1.6,0.4,2.2,1.1l1.3-1.3
		c-0.9-1-2.1-1.6-3.5-1.6c-2.2,0-3.8,1.3-3.8,3.3c0,1.6,0.9,2.6,2.8,3.3l1.3,0.5c1.1,0.4,1.7,1,1.7,1.8
		C88.7,35.2,87.8,35.8,86.8,35.8z"/>
	<path fill="#FFFFFF" d="M106.1,37.4v-8.2h-1.8v1.1c-0.5-0.7-1.4-1.3-2.6-1.3c-2.2,0-4,1.9-4,4.3c0,2.4,1.7,4.3,4,4.3
		c1.2,0,2.2-0.6,2.6-1.3v1.1H106.1z M102,35.9c-1.5,0-2.4-1.2-2.4-2.6s1-2.6,2.4-2.6s2.4,1.2,2.4,2.6S103.4,35.9,102,35.9z"/>
	<path fill="#FFFFFF" d="M111.5,39.4c-1.1,0-2-0.4-2.7-1.2l-1.1,1.3c0.8,0.9,2.2,1.5,3.8,1.5c2.4,0,4.3-1.3,4.3-4.2v-7.7H114v1.1
		c-0.5-0.7-1.5-1.3-2.6-1.3c-2.2,0-3.9,1.8-3.9,4.2c0,2.3,1.7,4.2,3.9,4.2c1.1,0,2.1-0.6,2.6-1.3v0.8
		C114,38.5,112.9,39.4,111.5,39.4z M111.7,35.7c-1.4,0-2.4-1.1-2.4-2.5c0-1.5,1.1-2.5,2.4-2.5c1.4,0,2.4,1.1,2.4,2.5
		C114.1,34.6,113.1,35.7,111.7,35.7z"/>
	<path fill="#FFFFFF" d="M121.3,29c-2.5,0-4.3,1.9-4.3,4.3c0,2.5,1.8,4.3,4.3,4.3c1.7,0,3-0.7,3.7-1.9l-1.4-1
		c-0.4,0.7-1.2,1.3-2.3,1.3c-1.4,0-2.4-0.9-2.5-2.2h6.4c0-0.3,0-0.4,0-0.6C125.3,30.4,123.5,29,121.3,29z M118.9,32.4
		c0.2-1.2,1.3-1.8,2.4-1.8c1.1,0,2,0.6,2.2,1.8H118.9z"/>
	<path fill="#FFFFFF" d="M92.7,26.9l0,1c0,0.7-0.6,1.3-1.2,1.3l-0.5,0v1.6h1.7v4c0,1.9,1.2,2.7,2.8,2.7c0.6,0,1-0.1,1.3-0.2v-1.6
		c-0.3,0.1-0.6,0.2-1,0.2c-0.9,0-1.4-0.4-1.4-1.4v-3.7h2.3v-1.6h-2.3v-2.3H92.7z"/>
	<polygon fill="#FFFFFF" points="126.4,27.8 126,26.9 125.7,26.9 125.7,28.3 126,28.3 126,27.5 126.4,28.4 126.8,27.5 126.8,28.3 
		127.1,28.3 127.1,26.9 126.8,26.9 	"/>
	<polygon fill="#FFFFFF" points="125,28.3 125,27.2 125.4,27.2 125.4,26.9 124.2,26.9 124.2,27.2 124.7,27.2 124.7,28.3 	"/>
</g>
</svg>
