<?xml version="1.0" encoding="utf-8"?>
<!-- Generator: Adobe Illustrator 27.4.0, SVG Export Plug-In . SVG Version: 6.00 Build 0)  -->
<svg version="1.1" baseProfile="tiny" id="Layer_1" xmlns="http://www.w3.org/2000/svg" xmlns:xlink="http://www.w3.org/1999/xlink"
	 x="0px" y="0px" viewBox="0 0 300 250" overflow="visible" xml:space="preserve">
<rect x="9.6" y="196.8" fill="#FAE07E" width="98.3" height="27.8"/>
<g>
	<path fill="#193062" d="M28.8,210.5v0.3c0,0.8-0.2,1.5-0.5,2.1c-0.3,0.6-0.8,1.1-1.4,1.4s-1.3,0.5-2.1,0.5c-0.8,0-1.5-0.2-2.1-0.5
		c-0.6-0.4-1.1-0.8-1.4-1.5c-0.3-0.6-0.5-1.3-0.5-2.1c0-0.8,0.2-1.5,0.5-2.1c0.4-0.6,0.8-1.1,1.5-1.5s1.3-0.5,2.1-0.5
		c0.5,0,1,0.1,1.5,0.2c0.5,0.2,0.9,0.4,1.2,0.7s0.7,0.7,0.9,1.1l-1.3,0.8c-0.2-0.4-0.5-0.7-0.9-0.9s-0.8-0.3-1.3-0.3
		c-0.5,0-0.9,0.1-1.3,0.3c-0.4,0.2-0.7,0.5-0.9,0.9c-0.2,0.4-0.3,0.8-0.3,1.3c0,0.5,0.1,1,0.3,1.4s0.5,0.7,0.9,0.9
		c0.4,0.2,0.8,0.3,1.3,0.3c0.5,0,1-0.1,1.4-0.3c0.4-0.2,0.7-0.6,0.8-1h-2.7v-1.5H28.8z"/>
	<path fill="#193062" d="M30,206.6h6.2v1.5h-4.7v1.7h2.6v1.5h-2.6v1.7h4.7v1.5H30V206.6z"/>
	<path fill="#193062" d="M39.5,208.2h-2.3v-1.5h6.2v1.5H41v6.5h-1.6V208.2z"/>
	<path fill="#193062" d="M51.7,213.5h-3l-0.4,1.1h-1.6l2.6-8H51l2.6,8H52L51.7,213.5z M51.2,212l-1-3l-1,3H51.2z"/>
	<path fill="#193062" d="M65.8,213.2v1.5h-0.7l-1-0.8c-0.4,0.3-0.8,0.5-1.2,0.7c-0.5,0.2-0.9,0.2-1.4,0.2c-0.8,0-1.5-0.2-2.1-0.5
		s-1.1-0.9-1.5-1.5s-0.5-1.3-0.5-2.1s0.2-1.5,0.5-2.1c0.4-0.6,0.8-1.1,1.5-1.5s1.3-0.5,2.1-0.5s1.5,0.2,2.1,0.5
		c0.6,0.4,1.1,0.9,1.5,1.5c0.4,0.6,0.5,1.3,0.5,2.1c0,0.7-0.2,1.4-0.5,2L65.8,213.2z M62.7,212.9l-0.8-0.6l1-1.3l0.8,0.6
		c0.1-0.3,0.2-0.7,0.2-1c0-0.5-0.1-0.9-0.3-1.3c-0.2-0.4-0.5-0.7-0.9-0.9c-0.4-0.2-0.8-0.3-1.3-0.3c-0.5,0-0.9,0.1-1.3,0.3
		c-0.4,0.2-0.7,0.5-0.9,0.9c-0.2,0.4-0.3,0.8-0.3,1.3s0.1,0.9,0.3,1.3c0.2,0.4,0.5,0.7,0.9,0.9c0.4,0.2,0.8,0.3,1.3,0.3
		C61.9,213.2,62.3,213.1,62.7,212.9z"/>
	<path fill="#193062" d="M73.3,211.6c0,0.6-0.1,1.1-0.4,1.6s-0.7,0.9-1.2,1.1c-0.5,0.3-1,0.4-1.6,0.4c-0.6,0-1.2-0.1-1.7-0.4
		c-0.5-0.3-0.9-0.7-1.2-1.1c-0.3-0.5-0.4-1-0.4-1.6v-5h1.6v4.9c0,0.3,0.1,0.6,0.2,0.8c0.1,0.3,0.3,0.5,0.6,0.6
		c0.3,0.1,0.5,0.2,0.9,0.2c0.3,0,0.6-0.1,0.8-0.2c0.3-0.1,0.4-0.3,0.6-0.6s0.2-0.5,0.2-0.8v-4.9h1.6V211.6z"/>
	<path fill="#193062" d="M78.7,206.5c0.8,0,1.5,0.2,2.1,0.5c0.6,0.4,1.1,0.9,1.5,1.5c0.4,0.6,0.5,1.3,0.5,2.1s-0.2,1.5-0.5,2.1
		c-0.4,0.6-0.8,1.1-1.5,1.5s-1.3,0.5-2.1,0.5c-0.8,0-1.5-0.2-2.1-0.5s-1.1-0.9-1.5-1.5s-0.5-1.3-0.5-2.1s0.2-1.5,0.5-2.1
		c0.4-0.6,0.8-1.1,1.5-1.5S77.9,206.5,78.7,206.5z M78.7,213.2c0.5,0,0.9-0.1,1.3-0.3c0.4-0.2,0.7-0.5,0.9-0.9s0.3-0.8,0.3-1.3
		s-0.1-0.9-0.3-1.3c-0.2-0.4-0.5-0.7-0.9-0.9c-0.4-0.2-0.8-0.3-1.3-0.3c-0.5,0-0.9,0.1-1.3,0.3c-0.4,0.2-0.7,0.5-0.9,0.9
		c-0.2,0.4-0.3,0.8-0.3,1.3s0.1,0.9,0.3,1.3c0.2,0.4,0.5,0.7,0.9,0.9C77.8,213.1,78.2,213.2,78.7,213.2z"/>
	<path fill="#193062" d="M85.7,208.2h-2.3v-1.5h6.2v1.5h-2.3v6.5h-1.6V208.2z"/>
	<path fill="#193062" d="M90.6,206.6h6.2v1.5h-4.7v1.7h2.6v1.5h-2.6v1.7h4.7v1.5h-6.2V206.6z"/>
</g>
</svg>
