<?xml version="1.0" encoding="utf-8"?>
<!-- Generator: Adobe Illustrator 27.4.0, SVG Export Plug-In . SVG Version: 6.00 Build 0)  -->
<svg version="1.1" baseProfile="tiny" id="Layer_1" xmlns="http://www.w3.org/2000/svg" xmlns:xlink="http://www.w3.org/1999/xlink"
	 x="0px" y="0px" viewBox="0 0 300 250" overflow="visible" xml:space="preserve">
<rect x="24.1" y="17" fill="#FAE07E" width="17.2" height="4.8"/>
<rect x="42.7" y="17" fill="#FFFFFF" width="4.1" height="4.8"/>
<rect x="24.1" y="23" fill="#FAE07E" width="12.8" height="4.7"/>
<rect x="38.4" y="23" fill="#FFFFFF" width="8.5" height="4.7"/>
<rect x="24.1" y="29" fill="#FAE07E" width="8.5" height="4.7"/>
<rect x="34" y="29" fill="#FFFFFF" width="12.8" height="4.7"/>
<rect x="24.1" y="35" fill="#FAE07E" width="4.1" height="4.7"/>
<rect x="29.7" y="35" fill="#FFFFFF" width="17.2" height="4.7"/>
<polygon fill="#FFFFFF" points="60.2,23.9 56.4,23.9 56.4,21.8 66.2,21.8 66.2,23.9 62.4,23.9 62.4,35 60.2,35 "/>
<g>
	<path fill="none" d="M104.1,27.4c-1.7,0-2.8,1.3-2.8,3s1.1,3,2.8,3c1.7,0,2.8-1.3,2.8-3S105.8,27.4,104.1,27.4z"/>
	<path fill="none" d="M115.1,27.4c-1.6,0-2.8,1.2-2.8,2.9s1.2,2.8,2.8,2.8s2.8-1.2,2.8-2.8S116.7,27.4,115.1,27.4z"/>
	<path fill="none" d="M125.9,27.2c-1.2,0-2.4,0.7-2.7,2.1h5.2C128.2,27.9,127.1,27.2,125.9,27.2z"/>
	<path fill="#FFFFFF" d="M65.7,25.7V35h2v-4.5c0-1.9,1.1-2.9,2.2-2.9c0.4,0,0.7,0.1,1,0.2v-2.1c-0.3-0.1-0.5-0.1-0.8-0.1
		c-1.1,0-2.1,0.7-2.5,1.8v-1.7H65.7z"/>
	<path fill="#FFFFFF" d="M72.6,25.7v5.6c0,2.4,1.3,3.9,3.5,3.9c1.2,0,2.2-0.5,2.7-1.5V35h2v-9.3h-2v4.6c0,2-0.9,3.1-2.3,3.1
		c-1.2,0-1.9-0.9-1.9-2.4v-5.2H72.6z"/>
	<path fill="#FFFFFF" d="M86.9,33.2c-1.3,0-2.4-0.6-3.1-1.7l-1.7,1.4c0.8,1.4,2.6,2.4,4.7,2.4c2.6,0,4.4-1.5,4.4-3.8
		c0-2-1.2-3.1-3.1-3.9L86.8,27c-1.4-0.5-2-0.9-2-1.9c0-1,1-1.5,2.1-1.5c1,0,1.8,0.4,2.5,1.2l1.5-1.5c-1-1.2-2.4-1.8-4-1.8
		c-2.5,0-4.3,1.4-4.3,3.7c0,1.8,1,3,3.1,3.7l1.4,0.5c1.3,0.5,1.9,1.1,1.9,2C89,32.5,88.1,33.2,86.9,33.2z"/>
	<path fill="#FFFFFF" d="M108.8,35v-9.3h-2v1.2c-0.5-0.7-1.6-1.4-3-1.4c-2.5,0-4.5,2.2-4.5,4.8s1.9,4.8,4.5,4.8c1.3,0,2.5-0.7,3-1.4
		V35H108.8z M104.1,33.3c-1.7,0-2.8-1.3-2.8-3s1.1-3,2.8-3c1.7,0,2.8,1.3,2.8,3S105.8,33.3,104.1,33.3z"/>
	<path fill="#FFFFFF" d="M114.9,37.2c-1.2,0-2.3-0.5-3.1-1.4l-1.2,1.5c0.9,1,2.5,1.7,4.3,1.7c2.7,0,4.8-1.5,4.8-4.7v-8.7h-2v1.2
		c-0.6-0.8-1.7-1.4-3-1.4c-2.5,0-4.5,2.1-4.5,4.7c0,2.6,2,4.7,4.5,4.7c1.3,0,2.4-0.6,3-1.5v0.9C117.7,36.2,116.4,37.2,114.9,37.2z
		 M115.1,33.1c-1.6,0-2.8-1.2-2.8-2.8s1.2-2.9,2.8-2.9s2.8,1.2,2.8,2.9S116.7,33.1,115.1,33.1z"/>
	<path fill="#FFFFFF" d="M126,25.5c-2.8,0-4.8,2.1-4.8,4.8c0,2.8,2,4.8,4.8,4.8c2,0,3.4-0.8,4.2-2.2l-1.6-1.1
		c-0.5,0.8-1.4,1.4-2.7,1.4c-1.5,0-2.8-1-2.9-2.5h7.3c0-0.3,0-0.5,0-0.7C130.5,27.1,128.5,25.5,126,25.5z M123.3,29.3
		c0.3-1.4,1.5-2.1,2.7-2.1c1.2,0,2.3,0.7,2.5,2.1H123.3z"/>
	<path fill="#FFFFFF" d="M93.6,23.1l0,1.2c0,0.8-0.6,1.4-1.4,1.4l-0.5,0v1.8h1.9V32c0,2.1,1.4,3.1,3.2,3.1c0.6,0,1.1-0.1,1.5-0.2
		v-1.8c-0.3,0.1-0.7,0.2-1.1,0.2c-1.1,0-1.6-0.4-1.6-1.6v-4.2h2.7v-1.8h-2.7v-2.6H93.6z"/>
	<polygon fill="#FFFFFF" points="131.7,24.1 131.3,23.1 131,23.1 131,24.7 131.3,24.7 131.3,23.7 131.7,24.7 132.2,23.7 132.2,24.7 
		132.5,24.7 132.5,23.1 132.2,23.1 	"/>
	<polygon fill="#FFFFFF" points="130.1,24.7 130.1,23.4 130.7,23.4 130.7,23.1 129.3,23.1 129.3,23.4 129.8,23.4 129.8,24.7 	"/>
</g>
</svg>
