<svg baseProfile="tiny" xmlns="http://www.w3.org/2000/svg" viewBox="0 0 160 600" overflow="visible"><path fill="#FAE07E" d="M18.8 512.2h122.8v34.7H18.8z"/><g fill="#193062"><path d="M35.9 524.5h2v8.1h5.8v1.9h-7.8v-10zM44.9 524.5h7.8v1.9h-5.8v2.1h3.2v1.9h-3.2v2.2h5.8v1.9h-7.8v-10zM56.6 526.4h-2.9v-1.9h7.8v1.9h-2.9v8.1h-2v-8.1zM74.6 530.8c0 .7-.2 1.4-.5 2s-.8 1.1-1.4 1.4c-.6.3-1.3.5-2 .5-.8 0-1.5-.2-2.1-.5s-1.1-.8-1.4-1.4c-.3-.6-.5-1.3-.5-2v-6.3h2v6.2c0 .4.1.7.3 1.1.2.3.4.6.7.7.3.2.7.3 1.1.3.4 0 .7-.1 1.1-.3.3-.2.6-.4.7-.7.2-.3.3-.7.3-1.1v-6.2h1.9v6.3zM79.7 526.2c-.3 0-.6.1-.8.2-.2.1-.4.2-.6.4-.1.2-.2.4-.2.6 0 .2.1.4.2.5.1.2.3.3.5.3.1 0 .3.1.4.1.2 0 .4 0 .7.1.3 0 .6.1.8.1s.4.1.7.1c.6.2 1.1.5 1.5 1 .4.5.5 1 .5 1.7 0 .6-.2 1.2-.5 1.7s-.7.9-1.3 1.2c-.6.3-1.2.4-1.9.4s-1.3-.1-1.9-.4c-.6-.3-1-.6-1.3-1.1-.3-.5-.5-1-.5-1.7h2c0 .3.1.5.2.7.2.2.4.4.6.5.3.1.6.2.9.2.3 0 .6-.1.9-.2.3-.1.4-.3.6-.5.1-.2.2-.4.2-.7 0-.2-.1-.4-.2-.6-.1-.2-.3-.3-.5-.4-.1-.1-.3-.1-.5-.1s-.4-.1-.7-.1c-.3 0-.5-.1-.8-.1-.2 0-.4-.1-.6-.1-.7-.2-1.2-.5-1.5-1s-.5-1-.5-1.7c0-.6.2-1.1.5-1.6s.7-.9 1.3-1.1c.5-.3 1.2-.4 1.8-.4.7 0 1.3.1 1.8.4.5.3 1 .6 1.3 1.1.3.5.5 1 .5 1.6h-2c0-.2-.1-.4-.2-.6s-.3-.3-.6-.4-.4-.1-.8-.1zM88.8 524.5h2v4h4.1v-4h2v10h-2v-4.1h-4.1v4.1h-2v-10zM99 524.5h7.8v1.9H101v2.1h3.2v1.9H101v2.2h5.8v1.9H99v-10zM108.5 524.5h2v8.1h5.8v1.9h-7.8v-10zM125.5 528.1c0 .7-.2 1.3-.5 1.9s-.7 1-1.3 1.3c-.6.3-1.2.5-1.9.5h-2.3v2.8h-2v-10h4.3c.7 0 1.4.2 1.9.5.6.3 1 .7 1.3 1.3s.5 1 .5 1.7zm-2 0c0-.3-.1-.6-.2-.9s-.3-.5-.6-.6-.5-.2-.9-.2h-2.3v3.4h2.3c.3 0 .6-.1.9-.2.3-.1.5-.3.6-.6s.2-.6.2-.9z"/></g></svg>