<?xml version="1.0" encoding="utf-8"?>
<!-- Generator: Adobe Illustrator 27.4.0, SVG Export Plug-In . SVG Version: 6.00 Build 0)  -->
<svg version="1.1" baseProfile="tiny" id="Layer_1" xmlns="http://www.w3.org/2000/svg" xmlns:xlink="http://www.w3.org/1999/xlink"
	 x="0px" y="0px" viewBox="0 0 728 90" overflow="visible" xml:space="preserve">
<g>
	<path fill="#FFFFFF" d="M17.7,75.8c0,0.7-0.2,1.3-0.5,1.8c-0.3,0.5-0.7,0.9-1.3,1.2c-0.5,0.3-1.1,0.5-1.8,0.5
		c-0.7,0-1.3-0.2-1.9-0.5c-0.6-0.3-1-0.8-1.3-1.3s-0.5-1.2-0.5-1.9c0-0.7,0.2-1.4,0.5-1.9c0.3-0.6,0.8-1,1.3-1.3s1.2-0.5,1.9-0.5
		c0.7,0,1.3,0.2,1.9,0.5s1,0.7,1.3,1.3l-0.6,0.4c-0.3-0.4-0.6-0.8-1-1c-0.4-0.3-0.9-0.4-1.5-0.4c-0.6,0-1.1,0.1-1.5,0.4
		c-0.4,0.3-0.8,0.6-1,1.1s-0.4,1-0.4,1.6c0,0.6,0.1,1.1,0.4,1.6s0.6,0.8,1,1.1s0.9,0.4,1.5,0.4c0.5,0,0.9-0.1,1.3-0.3
		s0.7-0.4,0.9-0.7s0.4-0.7,0.5-1.1h-3.1v-0.7H17.7z"/>
	<path fill="#FFFFFF" d="M18.9,71.9h5.4v0.7h-4.6v2.5h2.7v0.7h-2.7v2.6h4.6v0.7h-5.4V71.9z"/>
	<path fill="#FFFFFF" d="M31.3,71.9v7.3h-0.8l-4-6v6h-0.8v-7.3h0.8l4,6v-6H31.3z"/>
	<path fill="#FFFFFF" d="M35,76v0.7h-2.3V76H35z"/>
	<path fill="#FFFFFF" d="M41.4,76.2v0.7H40v2.3h-0.8v-2.3H36v-0.6l3.2-4.4H40v4.3H41.4z M39.3,76.2V73l-2.3,3.2H39.3z"/>
	<path fill="#FFFFFF" d="M42,71.9h4.6v0.7l-2.9,6.6H43l2.9-6.6H42V71.9z"/>
	<path fill="#FFFFFF" d="M52.4,77.2c0,0.4-0.1,0.8-0.3,1.1s-0.5,0.6-0.8,0.8c-0.3,0.2-0.7,0.3-1.2,0.3S49.3,79.2,49,79
		c-0.3-0.2-0.6-0.4-0.8-0.8s-0.3-0.7-0.3-1.1c0-0.4,0.1-0.7,0.3-1s0.4-0.5,0.7-0.7c-0.3-0.2-0.5-0.4-0.6-0.7S48,74.1,48,73.8
		c0-0.4,0.1-0.7,0.3-1s0.4-0.5,0.8-0.7s0.7-0.3,1.1-0.3s0.8,0.1,1.1,0.3s0.6,0.4,0.8,0.7s0.3,0.7,0.3,1c0,0.3-0.1,0.7-0.2,0.9
		s-0.4,0.5-0.6,0.7c0.3,0.2,0.5,0.4,0.7,0.7S52.4,76.8,52.4,77.2z M51.6,77.1c0-0.3-0.1-0.5-0.2-0.7s-0.3-0.4-0.5-0.5
		c-0.2-0.1-0.5-0.2-0.8-0.2s-0.6,0.1-0.8,0.2c-0.2,0.1-0.4,0.3-0.5,0.5s-0.2,0.5-0.2,0.7s0.1,0.5,0.2,0.7s0.3,0.4,0.5,0.5
		c0.2,0.1,0.5,0.2,0.8,0.2c0.3,0,0.6-0.1,0.8-0.2c0.2-0.1,0.4-0.3,0.5-0.5S51.6,77.4,51.6,77.1z M48.8,73.8c0,0.3,0.1,0.5,0.2,0.7
		c0.1,0.2,0.3,0.4,0.5,0.5s0.4,0.2,0.7,0.2s0.5-0.1,0.7-0.2s0.4-0.3,0.5-0.5c0.1-0.2,0.2-0.4,0.2-0.7s-0.1-0.5-0.2-0.7
		s-0.3-0.4-0.5-0.5s-0.4-0.2-0.7-0.2s-0.5,0.1-0.7,0.2s-0.4,0.3-0.5,0.5S48.8,73.5,48.8,73.8z"/>
	<path fill="#FFFFFF" d="M58.2,77.2c0,0.4-0.1,0.8-0.3,1.1c-0.2,0.3-0.5,0.6-0.8,0.8c-0.3,0.2-0.7,0.3-1.1,0.3
		c-0.4,0-0.8-0.1-1.2-0.3s-0.6-0.4-0.8-0.8s-0.3-0.7-0.3-1.1h0.8c0,0.3,0.1,0.5,0.2,0.7s0.3,0.4,0.5,0.5c0.2,0.1,0.5,0.2,0.8,0.2
		c0.3,0,0.5-0.1,0.8-0.2s0.4-0.3,0.5-0.5s0.2-0.4,0.2-0.7c0-0.3-0.1-0.5-0.2-0.7c-0.1-0.2-0.3-0.4-0.5-0.5c-0.2-0.1-0.5-0.2-0.7-0.2
		h-0.7v-0.7H56c0.3,0,0.5-0.1,0.7-0.2c0.2-0.1,0.4-0.3,0.5-0.5s0.2-0.4,0.2-0.7c0-0.3-0.1-0.5-0.2-0.7c-0.1-0.2-0.3-0.3-0.5-0.4
		c-0.2-0.1-0.4-0.2-0.7-0.2c-0.3,0-0.5,0.1-0.7,0.2s-0.4,0.2-0.5,0.4c-0.1,0.2-0.2,0.4-0.2,0.6h-0.8c0-0.4,0.1-0.7,0.3-1
		c0.2-0.3,0.4-0.5,0.7-0.7c0.3-0.2,0.7-0.3,1.1-0.3c0.4,0,0.8,0.1,1.1,0.3c0.3,0.2,0.6,0.4,0.7,0.7s0.3,0.6,0.3,1
		c0,0.3-0.1,0.7-0.2,0.9s-0.4,0.5-0.7,0.7c0.3,0.2,0.5,0.4,0.7,0.7S58.2,76.8,58.2,77.2z"/>
	<path fill="#FFFFFF" d="M61.4,72.7l-2,1.2v-0.8l2-1.2h0.8v7.3h-0.8V72.7z"/>
	<path fill="#FFFFFF" d="M63.9,71.9h4.6v0.7l-2.9,6.6h-0.8l2.9-6.6h-3.8V71.9z"/>
	<path fill="#FFFFFF" d="M74.5,76.2v0.7h-1.4v2.3h-0.8v-2.3H69v-0.6l3.2-4.4h0.8v4.3H74.5z M72.3,76.2V73L70,76.2H72.3z"/>
	<path fill="#FFFFFF" d="M76,78.1c0.2,0,0.3,0.1,0.4,0.2s0.2,0.2,0.2,0.4s-0.1,0.3-0.2,0.4c-0.1,0.1-0.2,0.2-0.4,0.2
		s-0.3-0.1-0.4-0.2c-0.1-0.1-0.2-0.2-0.2-0.4s0.1-0.3,0.2-0.4S75.8,78.1,76,78.1z"/>
	<path fill="#FFFFFF" d="M82.5,78.4v0.7H78v-0.7l2.9-3.1c0.2-0.3,0.4-0.5,0.5-0.7s0.2-0.5,0.2-0.7c0-0.3-0.1-0.5-0.2-0.7
		s-0.3-0.4-0.5-0.5s-0.5-0.2-0.8-0.2c-0.3,0-0.5,0.1-0.7,0.2c-0.2,0.1-0.4,0.3-0.5,0.5c-0.1,0.2-0.2,0.5-0.2,0.7H78
		c0-0.4,0.1-0.8,0.3-1.1s0.4-0.6,0.8-0.8s0.7-0.3,1.2-0.3c0.4,0,0.8,0.1,1.1,0.3c0.3,0.2,0.6,0.4,0.8,0.8s0.3,0.7,0.3,1.1
		c0,0.4-0.1,0.7-0.2,1s-0.4,0.6-0.7,1L79,78.4H82.5z"/>
</g>
</svg>
