<?xml version="1.0" encoding="utf-8"?>
<!-- Generator: Adobe Illustrator 27.4.0, SVG Export Plug-In . SVG Version: 6.00 Build 0)  -->
<svg version="1.1" baseProfile="tiny" id="Layer_1" xmlns="http://www.w3.org/2000/svg" xmlns:xlink="http://www.w3.org/1999/xlink"
	 x="0px" y="0px" viewBox="0 0 728 90" overflow="visible" xml:space="preserve">
<rect x="568" y="25" fill="#FAE07E" width="131.4" height="37.2"/>
<g>
	<path fill="#193062" d="M585.3,38.2h2.1V47h6.4v2.1h-8.5V38.2z"/>
	<path fill="#193062" d="M595.1,38.2h8.5v2.1h-6.4v2.3h3.5v2.1h-3.5V47h6.4v2.1h-8.5V38.2z"/>
	<path fill="#193062" d="M607.9,40.3h-3.2v-2.1h8.5v2.1h-3.2v8.8h-2.1V40.3z"/>
	<path fill="#193062" d="M627.5,45c0,0.8-0.2,1.5-0.6,2.2s-0.9,1.2-1.6,1.5c-0.7,0.4-1.4,0.6-2.2,0.6c-0.8,0-1.6-0.2-2.3-0.6
		c-0.7-0.4-1.2-0.9-1.6-1.5s-0.6-1.4-0.6-2.2v-6.8h2.1v6.7c0,0.4,0.1,0.8,0.3,1.1c0.2,0.3,0.5,0.6,0.8,0.8c0.3,0.2,0.7,0.3,1.2,0.3
		c0.4,0,0.8-0.1,1.2-0.3c0.3-0.2,0.6-0.5,0.8-0.8s0.3-0.7,0.3-1.1v-6.7h2.1V45z"/>
	<path fill="#193062" d="M633.2,40c-0.3,0-0.7,0.1-0.9,0.2c-0.3,0.1-0.5,0.3-0.6,0.5c-0.1,0.2-0.2,0.4-0.2,0.7
		c0,0.2,0.1,0.4,0.2,0.6c0.1,0.2,0.3,0.3,0.6,0.4c0.2,0.1,0.3,0.1,0.5,0.1c0.2,0,0.4,0,0.7,0.1c0.4,0,0.6,0.1,0.9,0.1
		s0.5,0.1,0.7,0.2c0.7,0.2,1.3,0.6,1.7,1.1c0.4,0.5,0.6,1.1,0.6,1.9c0,0.7-0.2,1.3-0.5,1.8s-0.8,1-1.4,1.3s-1.3,0.5-2.1,0.5
		c-0.8,0-1.5-0.1-2.1-0.4c-0.6-0.3-1.1-0.7-1.5-1.2c-0.4-0.5-0.5-1.1-0.5-1.8h2.1c0,0.3,0.1,0.5,0.3,0.8c0.2,0.2,0.4,0.4,0.7,0.5
		s0.6,0.2,1,0.2c0.4,0,0.7-0.1,1-0.2c0.3-0.1,0.5-0.3,0.6-0.5s0.2-0.5,0.2-0.7c0-0.3-0.1-0.5-0.2-0.6c-0.1-0.2-0.3-0.3-0.6-0.4
		c-0.2-0.1-0.3-0.1-0.5-0.1c-0.2,0-0.5-0.1-0.8-0.1c-0.3,0-0.6-0.1-0.8-0.1c-0.2,0-0.5-0.1-0.7-0.1c-0.7-0.2-1.3-0.6-1.6-1.1
		s-0.6-1.1-0.6-1.8c0-0.7,0.2-1.2,0.5-1.8c0.3-0.5,0.8-0.9,1.4-1.2s1.3-0.4,2-0.4c0.7,0,1.4,0.1,2,0.4c0.6,0.3,1.1,0.7,1.4,1.2
		s0.5,1.1,0.5,1.7H635c0-0.3-0.1-0.5-0.2-0.7c-0.2-0.2-0.4-0.4-0.6-0.5C633.8,40.1,633.5,40,633.2,40z"/>
	<path fill="#193062" d="M643.1,38.2h2.1v4.4h4.5v-4.4h2.1v10.9h-2.1v-4.5h-4.5v4.5h-2.1V38.2z"/>
	<path fill="#193062" d="M654.2,38.2h8.5v2.1h-6.4v2.3h3.5v2.1h-3.5V47h6.4v2.1h-8.5V38.2z"/>
	<path fill="#193062" d="M664.6,38.2h2.1V47h6.4v2.1h-8.5V38.2z"/>
	<path fill="#193062" d="M683.1,42.1c0,0.8-0.2,1.4-0.5,2c-0.3,0.6-0.8,1.1-1.4,1.4S679.8,46,679,46h-2.5v3.1h-2.1V38.2h4.7
		c0.8,0,1.5,0.2,2.1,0.5s1.1,0.8,1.4,1.4S683.1,41.3,683.1,42.1z M680.9,42.1c0-0.4-0.1-0.7-0.2-0.9s-0.4-0.5-0.7-0.7
		c-0.3-0.2-0.6-0.2-1-0.2h-2.5v3.7h2.5c0.4,0,0.7-0.1,1-0.2s0.5-0.4,0.7-0.7S680.9,42.5,680.9,42.1z"/>
</g>
</svg>
