<?xml version="1.0" encoding="utf-8"?>
<!-- Generator: Adobe Illustrator 27.4.0, SVG Export Plug-In . SVG Version: 6.00 Build 0)  -->
<svg version="1.1" baseProfile="tiny" id="Layer_1" xmlns="http://www.w3.org/2000/svg" xmlns:xlink="http://www.w3.org/1999/xlink"
	 x="0px" y="0px" viewBox="0 0 728 90" overflow="visible" xml:space="preserve">
<rect x="19.2" y="25.9" fill="#FAE07E" width="22.8" height="6.3"/>
<rect x="43.9" y="25.9" fill="#FFFFFF" width="5.5" height="6.3"/>
<rect x="19.2" y="33.9" fill="#FAE07E" width="17" height="6.3"/>
<rect x="38.1" y="33.9" fill="#FFFFFF" width="11.3" height="6.3"/>
<rect x="19.2" y="41.9" fill="#FAE07E" width="11.3" height="6.3"/>
<rect x="32.4" y="41.9" fill="#FFFFFF" width="17" height="6.3"/>
<rect x="19.2" y="49.8" fill="#FAE07E" width="5.5" height="6.3"/>
<rect x="26.6" y="49.8" fill="#FFFFFF" width="22.8" height="6.3"/>
<polygon fill="#FFFFFF" points="67.2,35 62.1,35 62.1,32.2 75.2,32.2 75.2,35 70.1,35 70.1,49.8 67.2,49.8 "/>
<g>
	<ellipse fill="none" cx="140.1" cy="43.4" rx="3.7" ry="3.8"/>
	<path fill="none" d="M125.5,39.7c-2.2,0-3.7,1.7-3.7,4c0,2.2,1.5,4,3.7,4c2.2,0,3.7-1.7,3.7-4C129.2,41.4,127.7,39.7,125.5,39.7z"
		/>
	<path fill="none" d="M154.5,39.5c-1.6,0-3.2,0.9-3.6,2.7h6.9C157.5,40.4,156.1,39.5,154.5,39.5z"/>
	<path fill="#FFFFFF" d="M74.5,37.4v12.4h2.7v-6c0-2.5,1.4-3.8,3-3.8c0.5,0,0.9,0.1,1.4,0.2v-2.8c-0.4-0.1-0.7-0.1-1.1-0.1
		c-1.4,0-2.8,0.9-3.3,2.3v-2.2H74.5z"/>
	<path fill="#FFFFFF" d="M83.6,37.4v7.4c0,3.2,1.8,5.2,4.6,5.2c1.6,0,2.9-0.7,3.6-1.9v1.7h2.7V37.4h-2.7v6.1c0,2.6-1.3,4.1-3,4.1
		c-1.6,0-2.5-1.2-2.5-3.2v-7H83.6z"/>
	<path fill="#FFFFFF" d="M102.7,47.4c-1.7,0-3.2-0.8-4.1-2.3l-2.3,1.8c1.1,1.9,3.4,3.2,6.2,3.2c3.4,0,5.8-2,5.8-5.1
		c0-2.6-1.5-4.2-4.1-5.1l-1.8-0.7c-1.8-0.7-2.7-1.2-2.7-2.5c0-1.3,1.3-2,2.8-2c1.4,0,2.4,0.6,3.3,1.6l2-2c-1.3-1.5-3.1-2.4-5.3-2.4
		c-3.3,0-5.7,1.9-5.7,5c0,2.4,1.4,3.9,4.1,5l1.9,0.7c1.7,0.6,2.5,1.4,2.5,2.7C105.5,46.5,104.3,47.4,102.7,47.4z"/>
	<path fill="#FFFFFF" d="M131.7,49.8V37.4H129v1.7c-0.7-1-2.2-1.9-3.9-1.9c-3.4,0-5.9,2.9-5.9,6.4c0,3.5,2.6,6.4,5.9,6.4
		c1.8,0,3.3-0.9,3.9-1.9v1.7H131.7z M125.5,47.6c-2.2,0-3.7-1.7-3.7-4c0-2.2,1.5-4,3.7-4c2.2,0,3.7,1.7,3.7,4
		C129.2,45.8,127.7,47.6,125.5,47.6z"/>
	<path fill="#FFFFFF" d="M139.8,52.8c-1.7,0-3.1-0.7-4.1-1.8l-1.7,2c1.2,1.4,3.4,2.3,5.8,2.3c3.7,0,6.4-2,6.4-6.3V37.4h-2.7v1.7
		c-0.7-1.1-2.2-1.9-3.9-1.9c-3.3,0-5.9,2.8-5.9,6.3c0,3.5,2.6,6.3,5.9,6.3c1.7,0,3.2-0.8,3.9-1.9v1.1
		C143.6,51.4,141.9,52.8,139.8,52.8z M140.1,47.2c-2.1,0-3.7-1.6-3.7-3.8s1.6-3.8,3.7-3.8s3.7,1.6,3.7,3.8S142.2,47.2,140.1,47.2z"
		/>
	<path fill="#FFFFFF" d="M154.6,37.2c-3.8,0-6.4,2.8-6.4,6.4c0,3.8,2.7,6.4,6.4,6.4c2.6,0,4.5-1.1,5.6-2.9l-2.1-1.5
		c-0.6,1.1-1.8,1.9-3.5,1.9c-2,0-3.7-1.3-3.8-3.4h9.7c0-0.4,0-0.6,0-0.9C160.6,39.3,157.8,37.2,154.6,37.2z M151,42.2
		c0.4-1.8,2-2.7,3.6-2.7s3,1,3.3,2.7H151z"/>
	<path fill="#FFFFFF" d="M111.5,34l0,1.6c0,1-0.8,1.9-1.9,1.9l-0.7,0v2.4h2.6v6c0,2.8,1.9,4.1,4.2,4.1c0.8,0,1.5-0.1,2-0.3v-2.4
		c-0.4,0.1-0.9,0.2-1.5,0.2c-1.4,0-2.1-0.6-2.1-2.1v-5.5h3.5v-2.4h-3.5V34H111.5z"/>
	<polygon fill="#FFFFFF" points="162.2,35.3 161.6,34 161.2,34 161.2,36.2 161.6,36.2 161.6,34.8 162.2,36.2 162.8,34.8 162.8,36.2 
		163.3,36.2 163.3,34 162.8,34 	"/>
	<polygon fill="#FFFFFF" points="160.1,36.2 160.1,34.4 160.8,34.4 160.8,34 159,34 159,34.4 159.7,34.4 159.7,36.2 	"/>
</g>
</svg>
