<?xml version="1.0" encoding="utf-8"?>
<!-- Generator: Adobe Illustrator 27.4.0, SVG Export Plug-In . SVG Version: 6.00 Build 0)  -->
<svg version="1.1" baseProfile="tiny" id="Layer_1" xmlns="http://www.w3.org/2000/svg" xmlns:xlink="http://www.w3.org/1999/xlink"
	 x="0px" y="0px" viewBox="0 0 300 600" overflow="visible" xml:space="preserve">
<rect x="28" y="515.5" fill="#FAE07E" width="129.2" height="36.5"/>
<g>
	<path fill="#193062" d="M46,528.5H48v8.5h6.1v2H46V528.5z"/>
	<path fill="#193062" d="M55.4,528.5h8.2v2h-6.1v2.2h3.4v2h-3.4v2.3h6.1v2h-8.2V528.5z"/>
	<path fill="#193062" d="M67.8,530.5h-3.1v-2h8.2v2h-3.1v8.5h-2.1V530.5z"/>
	<path fill="#193062" d="M86.6,535.1c0,0.8-0.2,1.5-0.6,2.1c-0.4,0.6-0.9,1.1-1.5,1.5c-0.6,0.4-1.4,0.5-2.1,0.5
		c-0.8,0-1.5-0.2-2.2-0.5s-1.2-0.9-1.5-1.5c-0.4-0.6-0.5-1.3-0.5-2.1v-6.6h2.1v6.5c0,0.4,0.1,0.8,0.3,1.1c0.2,0.3,0.4,0.6,0.8,0.8
		c0.3,0.2,0.7,0.3,1.1,0.3c0.4,0,0.8-0.1,1.1-0.3c0.3-0.2,0.6-0.5,0.8-0.8c0.2-0.3,0.3-0.7,0.3-1.1v-6.5h2V535.1z"/>
	<path fill="#193062" d="M92.1,530.3c-0.3,0-0.6,0.1-0.9,0.2c-0.3,0.1-0.4,0.3-0.6,0.5c-0.1,0.2-0.2,0.4-0.2,0.6
		c0,0.2,0.1,0.4,0.2,0.6c0.1,0.2,0.3,0.3,0.5,0.4c0.1,0.1,0.3,0.1,0.5,0.1s0.4,0,0.7,0.1c0.3,0,0.6,0.1,0.8,0.1
		c0.2,0,0.5,0.1,0.7,0.2c0.7,0.2,1.2,0.6,1.6,1s0.6,1.1,0.6,1.8c0,0.7-0.2,1.3-0.5,1.8s-0.8,0.9-1.4,1.2c-0.6,0.3-1.3,0.4-2,0.4
		c-0.7,0-1.4-0.1-2-0.4s-1.1-0.7-1.4-1.2c-0.3-0.5-0.5-1.1-0.5-1.8h2.1c0,0.3,0.1,0.5,0.2,0.7c0.2,0.2,0.4,0.4,0.7,0.5
		c0.3,0.1,0.6,0.2,1,0.2c0.4,0,0.7-0.1,0.9-0.2c0.3-0.1,0.5-0.3,0.6-0.5s0.2-0.4,0.2-0.7c0-0.2-0.1-0.5-0.2-0.6
		c-0.1-0.2-0.3-0.3-0.5-0.4c-0.2-0.1-0.3-0.1-0.5-0.1s-0.5-0.1-0.8-0.1c-0.3,0-0.6-0.1-0.8-0.1c-0.2,0-0.4-0.1-0.6-0.1
		c-0.7-0.2-1.2-0.5-1.6-1c-0.4-0.5-0.6-1.1-0.6-1.8c0-0.6,0.2-1.2,0.5-1.7c0.3-0.5,0.8-0.9,1.3-1.2c0.6-0.3,1.2-0.4,1.9-0.4
		c0.7,0,1.4,0.1,1.9,0.4c0.6,0.3,1,0.7,1.3,1.1c0.3,0.5,0.5,1.1,0.5,1.7h-2.1c0-0.2-0.1-0.5-0.2-0.7c-0.1-0.2-0.4-0.3-0.6-0.4
		C92.7,530.4,92.4,530.3,92.1,530.3z"/>
	<path fill="#193062" d="M101.6,528.5h2.1v4.2h4.3v-4.2h2.1v10.5H108v-4.3h-4.3v4.3h-2.1V528.5z"/>
	<path fill="#193062" d="M112.3,528.5h8.2v2h-6.1v2.2h3.4v2h-3.4v2.3h6.1v2h-8.2V528.5z"/>
	<path fill="#193062" d="M122.3,528.5h2.1v8.5h6.1v2h-8.2V528.5z"/>
	<path fill="#193062" d="M140.2,532.3c0,0.7-0.2,1.4-0.5,2s-0.8,1-1.4,1.4c-0.6,0.3-1.3,0.5-2,0.5h-2.4v3h-2.1v-10.5h4.5
		c0.8,0,1.4,0.2,2,0.5c0.6,0.3,1,0.8,1.4,1.3C140,530.9,140.2,531.6,140.2,532.3z M138.1,532.3c0-0.3-0.1-0.6-0.2-0.9
		c-0.2-0.3-0.4-0.5-0.6-0.6c-0.3-0.2-0.6-0.2-0.9-0.2h-2.5v3.5h2.5c0.3,0,0.7-0.1,0.9-0.2s0.5-0.4,0.6-0.6
		C138,532.9,138.1,532.6,138.1,532.3z"/>
</g>
</svg>
