<svg baseProfile="tiny" xmlns="http://www.w3.org/2000/svg" viewBox="0 0 300 600" overflow="visible"><g fill="#193062"><path d="M44.5 229.1v.9c0 6.1-4.2 10.6-10.5 10.6-6.4 0-10.8-4.6-10.8-10.9 0-6.1 4.6-10.9 10.9-10.9 4.2 0 7.6 2.1 9.5 5.3l-3.8 2.4c-1-1.9-3.1-3.2-5.7-3.2-3.7 0-6.4 2.8-6.4 6.4 0 3.9 2.5 6.6 6.3 6.6 2.6 0 4.4-1.2 5.4-3h-6.8v-4.2h11.9zM61.1 234.5H50.9c.5 1.3 1.7 2.1 3.3 2.1 1.4 0 2.4-.7 3-1.7l3.4 2.1c-1.3 2.2-3.7 3.6-6.5 3.6-4.4 0-7.6-3.3-7.6-7.6 0-4.4 3-7.7 7.4-7.7s7.3 3.2 7.3 7.6c0 .6 0 1.1-.1 1.6zm-10.3-3.1H57c-.4-1.4-1.6-2.1-3.1-2.1-1.6 0-2.7.7-3.1 2.1zM68.9 225.7h4.5v4.1h-4.5v4.9c0 1 .6 1.6 1.6 1.6h2.9v4.1h-3.8c-3 0-5-1.9-5-4.9v-5.7h-2.1v-2.2l4-5h2.3v3.1zM99.8 233c0 4.2-3 7.6-7.2 7.6-1.5 0-2.8-.4-3.7-1.2v.9h-4.2v-22.1H89v8.3c1-.7 2.3-1.1 3.7-1.1 4.1 0 7.1 3.3 7.1 7.6zm-4.3 0c0-2-1.4-3.5-3.3-3.5-2 0-3.4 1.5-3.4 3.5 0 1.9 1.4 3.4 3.4 3.4 1.9 0 3.3-1.5 3.3-3.4zM114.7 231.1v9.2h-4.2v-.8c-.9.8-2 1.1-3.6 1.1-3 0-5.1-1.9-5.1-4.6 0-3 2.3-4.3 5.1-4.6l3.6-.3v-.1c0-1-1-1.7-2.1-1.7s-1.9.6-2.1 1.4h-4.1c.2-3 2.7-5.3 6.2-5.3 3.8 0 6.3 2.4 6.3 5.7zm-4.2 4.1v-.9l-2.9.2c-1.1.1-1.5.6-1.5 1.3 0 .8.7 1.4 1.9 1.4 1.6 0 2.5-.8 2.5-2zM125.1 225.4c2.8 0 5.1 1.3 6.4 3.4l-3.5 2.4c-.6-1-1.6-1.7-2.9-1.7-1.9 0-3.3 1.5-3.3 3.5 0 1.9 1.4 3.4 3.3 3.4 1.3 0 2.2-.7 2.8-1.7l3.5 2.4c-1.3 2.1-3.6 3.4-6.4 3.4-4.4 0-7.6-3.3-7.6-7.6s3.3-7.5 7.7-7.5zM142.5 232.6l5.6 7.7h-5.2l-4.8-6.8v6.8h-4.3v-22.1h4.3v13.5l4.8-6.1h5.3l-5.7 7zM163.1 225.7h4.5v4.1h-4.5v4.9c0 1 .6 1.6 1.6 1.6h2.9v4.1h-3.8c-3 0-5-1.9-5-4.9v-5.7h-2.1v-2.2l4-5h2.3v3.1zM177.1 225.4c4.4 0 7.6 3.3 7.6 7.7 0 4.2-3.2 7.6-7.6 7.6-4.4 0-7.6-3.4-7.6-7.6 0-4.4 3.2-7.7 7.6-7.7zm0 11c1.9 0 3.4-1.5 3.4-3.4s-1.4-3.5-3.4-3.5c-1.9 0-3.4 1.5-3.4 3.5.1 1.9 1.5 3.4 3.4 3.4z"/></g><g fill="#193062"><path d="M28.7 266.7h4.5v4.1h-4.5v4.9c0 1 .6 1.6 1.6 1.6h2.9v4.1h-3.8c-3 0-5-1.9-5-4.9v-5.7h-2.1v-2.2l4-5h2.3v3.1zM49.7 272.2v9.1h-4.3v-8.2c0-1.4-.9-2.5-2.4-2.5s-2.5 1.1-2.5 2.5v8.2h-4.3v-22.1h4.3v8.3c1-.7 2.1-1.1 3.5-1.1 3.2 0 5.7 2.4 5.7 5.8zM67 275.5H56.8c.5 1.3 1.7 2.1 3.3 2.1 1.4 0 2.4-.7 3-1.7l3.4 2.1c-1.3 2.2-3.7 3.6-6.5 3.6-4.4 0-7.6-3.3-7.6-7.6 0-4.4 3-7.7 7.4-7.7s7.3 3.2 7.3 7.6c0 .6 0 1.1-.1 1.6zm-10.3-3.1h6.2c-.4-1.4-1.6-2.1-3.1-2.1-1.6 0-2.7.7-3.1 2.1zM83.2 266.7h4.5v4.1h-4.5v4.9c0 1 .6 1.6 1.6 1.6h2.9v4.1h-3.8c-3 0-5-1.9-5-4.9v-5.7h-2.1v-2.2l4-5h2.3v3.1zM104.1 272.2v9.1h-4.3v-8.2c0-1.4-.9-2.5-2.4-2.5s-2.5 1.1-2.5 2.5v8.2h-4.3v-22.1h4.3v8.3c1-.7 2.1-1.1 3.5-1.1 3.3 0 5.7 2.4 5.7 5.8zM110 259.5c1.5 0 2.7 1.2 2.7 2.7 0 1.5-1.1 2.7-2.7 2.7-1.5 0-2.7-1.2-2.7-2.7 0-1.6 1.2-2.7 2.7-2.7zm2.1 21.8h-4.3v-14.6h4.3v14.6zM129.5 272.2v9.1h-4.3V273c0-1.4-.9-2.5-2.4-2.5s-2.5 1.1-2.5 2.5v8.3H116v-14.6h4.2v.8c1-.7 2.2-1.2 3.6-1.2 3.2.1 5.7 2.5 5.7 5.9zM146.9 266.7v14.2c0 3.9-2.9 6.9-7.3 6.9-3.3 0-5.9-1.9-6.8-4.6l3.9-1.5c.4 1.3 1.4 2 2.9 2 1.8 0 3-1.1 3-2.9v-1.1c-.9.7-2.1 1.1-3.5 1.1-3.9 0-6.8-3.2-6.8-7.2s2.9-7.2 6.8-7.2c1.4 0 2.6.4 3.6 1.2v-.9h4.2zm-4.2 7c0-1.7-1.3-3.1-3.1-3.1s-3.1 1.4-3.1 3.1c0 1.7 1.3 3 3.1 3s3.1-1.4 3.1-3zM155.9 277.8c1.2 0 1.9-.5 1.9-1.1 0-.4-.4-.7-1.1-.8-.7-.1-1.5-.1-2.6-.3-2.8-.4-4.1-2.1-4.1-4.3 0-2.8 2.4-5 5.9-5 3.5 0 5.9 2 5.9 4.9h-4.1c0-.7-.7-1.1-1.8-1.1s-1.7.4-1.7 1c0 .4.3.6 1 .7.9.1 1.5.1 2.7.3 2.8.3 4.1 2.1 4.1 4.3 0 2.9-2.4 5.1-6.1 5.1-3.6 0-6.1-2.1-6.1-5h4.1c0 .8.8 1.3 2 1.3zM185.2 266.7l-7.5 20.8h-4.5l2.3-6.5-5.2-14.3h4.6l2.8 7.9 2.8-7.9h4.7zM193.5 266.4c4.4 0 7.6 3.3 7.6 7.7 0 4.2-3.2 7.6-7.6 7.6-4.4 0-7.6-3.4-7.6-7.6 0-4.4 3.2-7.7 7.6-7.7zm0 11c1.9 0 3.4-1.5 3.4-3.4s-1.4-3.5-3.4-3.5c-1.9 0-3.4 1.5-3.4 3.5.1 1.9 1.5 3.4 3.4 3.4zM217.4 266.7v14.6h-4.2v-.8c-1 .7-2.2 1.1-3.5 1.1-3.3 0-5.7-2.5-5.7-5.8v-9.2h4.3v8.3c0 1.4.9 2.5 2.4 2.5s2.5-1.1 2.5-2.5v-8.3h4.2z"/></g><g fill="#193062"><path d="M23.9 300.2h4.3v22.1h-4.3v-22.1zM38.7 307.4c4.4 0 7.6 3.3 7.6 7.7 0 4.2-3.2 7.6-7.6 7.6s-7.6-3.4-7.6-7.6c0-4.4 3.2-7.7 7.6-7.7zm0 11c1.9 0 3.4-1.5 3.4-3.4s-1.4-3.5-3.4-3.5-3.4 1.5-3.4 3.5c0 1.9 1.4 3.4 3.4 3.4zM61.9 307.7l-5.3 14.6h-4.3L47 307.7h4.6l2.8 8.1 2.8-8.1h4.7zM77.2 316.5H67c.5 1.3 1.7 2.1 3.3 2.1 1.4 0 2.4-.7 3-1.7l3.4 2.1c-1.3 2.2-3.7 3.6-6.5 3.6-4.4 0-7.6-3.3-7.6-7.6 0-4.4 3-7.7 7.4-7.7s7.3 3.2 7.3 7.6c.1.6 0 1.1-.1 1.6zm-10.3-3.1h6.2c-.4-1.4-1.6-2.1-3.1-2.1s-2.7.7-3.1 2.1zM82.4 317.2c1.5 0 2.7 1.2 2.7 2.7 0 1.5-1.1 2.7-2.7 2.7-1.5 0-2.7-1.2-2.7-2.7 0-1.6 1.1-2.7 2.7-2.7zM108.3 319.5h-7.5l-.9 2.8h-4.5l6.9-21.2h4.6l6.8 21.2h-4.6l-.8-2.8zm-1.4-4.3l-2.4-7.4-2.4 7.4h4.8zM131.1 315c0 4.2-3 7.6-7.2 7.6-1.4 0-2.7-.4-3.7-1.1v6.9H116v-20.8h4.2v.8c1-.7 2.3-1.2 3.7-1.2 4.2.2 7.2 3.5 7.2 7.8zm-4.3 0c0-2-1.4-3.5-3.3-3.5-2 0-3.4 1.5-3.4 3.5 0 1.9 1.4 3.4 3.4 3.4 1.9.1 3.3-1.5 3.3-3.4zM149.1 315c0 4.2-3 7.6-7.2 7.6-1.4 0-2.7-.4-3.7-1.1v6.9H134v-20.8h4.2v.8c1-.7 2.3-1.2 3.7-1.2 4.3.2 7.2 3.5 7.2 7.8zm-4.3 0c0-2-1.4-3.5-3.3-3.5-2 0-3.4 1.5-3.4 3.5 0 1.9 1.4 3.4 3.4 3.4 2 .1 3.3-1.5 3.3-3.4zM152 300.2h4.3v22.1H152v-22.1zM173.2 307.7l-7.5 20.8h-4.5l2.3-6.5-5.2-14.3h4.6l2.8 7.9 2.8-7.9h4.7zM184 311.8h-2.9v-4.1h2.9v-2.9c0-2.8 1.9-4.6 4.7-4.6h3.3v4.1h-2.5c-.7 0-1.2.4-1.2 1.2v2.2h3.7v4.1h-3.7v10.5H184v-10.5zM200.9 307.4c4.4 0 7.6 3.3 7.6 7.7 0 4.2-3.2 7.6-7.6 7.6-4.4 0-7.6-3.4-7.6-7.6 0-4.4 3.2-7.7 7.6-7.7zm0 11c1.9 0 3.4-1.5 3.4-3.4s-1.4-3.5-3.4-3.5c-1.9 0-3.4 1.5-3.4 3.5 0 1.9 1.5 3.4 3.4 3.4zM220.7 307.7v4.2h-2.2c-1.7 0-2.8 1.2-2.8 2.9v7.5h-4.3v-14.6h4.2v1.3c.8-1 2.1-1.3 3.4-1.3h1.7z"/></g><g fill="#193062"><path d="M24.2 342.1h4.5v16.8h12.1v4.4H24.2v-21.2zM45.8 341.5c1.5 0 2.7 1.2 2.7 2.7 0 1.5-1.1 2.7-2.7 2.7-1.5 0-2.7-1.2-2.7-2.7 0-1.6 1.1-2.7 2.7-2.7zm2.1 21.8h-4.3v-14.6h4.3v14.6zM53.1 352.8h-2.9v-4.1h2.9v-2.9c0-2.8 1.9-4.6 4.7-4.6h3.3v4.1h-2.5c-.7 0-1.2.4-1.2 1.2v2.2h3.7v4.1h-3.7v10.5h-4.3v-10.5zM77 357.5H66.8c.5 1.3 1.7 2.1 3.3 2.1 1.4 0 2.4-.7 3-1.7l3.4 2.1c-1.3 2.2-3.7 3.6-6.5 3.6-4.4 0-7.6-3.3-7.6-7.6 0-4.4 3-7.7 7.4-7.7s7.3 3.2 7.3 7.6c0 .6 0 1.2-.1 1.6zm-10.3-3.1h6.2c-.4-1.4-1.6-2.1-3.1-2.1-1.6 0-2.7.8-3.1 2.1zM88.6 342.1h4.5v21.2h-4.5v-21.2zM110.8 354.2v9.1h-4.3V355c0-1.4-.9-2.5-2.4-2.5s-2.5 1.1-2.5 2.5v8.3h-4.3v-14.6h4.2v.8c1-.7 2.2-1.2 3.6-1.2 3.3.1 5.7 2.5 5.7 5.9zM119.8 359.8c1.2 0 1.9-.5 1.9-1.1 0-.4-.4-.7-1.1-.8s-1.5-.1-2.6-.3c-2.8-.4-4.1-2.1-4.1-4.3 0-2.8 2.4-5 5.9-5 3.5 0 5.9 2 5.9 4.9h-4.1c0-.7-.7-1.1-1.8-1.1s-1.7.4-1.7 1c0 .4.3.6 1 .7.9.1 1.5.1 2.7.3 2.8.3 4.1 2.1 4.1 4.3 0 2.9-2.4 5.1-6.1 5.1-3.6 0-6.1-2.1-6.1-5h4.1c0 .8.7 1.3 2 1.3zM141.9 348.7v14.6h-4.2v-.8c-1 .7-2.2 1.1-3.5 1.1-3.3 0-5.7-2.5-5.7-5.8v-9.2h4.3v8.3c0 1.4.9 2.5 2.4 2.5s2.5-1.1 2.5-2.5v-8.3h4.2zM155.1 348.7v4.2h-2.2c-1.7 0-2.8 1.2-2.8 2.9v7.5h-4.3v-14.6h4.2v1.3c.8-1 2.1-1.3 3.4-1.3h1.7zM169.2 354.2v9.2H165v-.8c-.9.8-2 1.1-3.6 1.1-3 0-5.1-1.9-5.1-4.6 0-3 2.3-4.3 5.1-4.6l3.6-.3v-.2c0-1-1-1.7-2.1-1.7s-1.9.6-2.1 1.4h-4.1c.2-3 2.7-5.3 6.2-5.3 3.7 0 6.3 2.4 6.3 5.8zm-4.2 4v-.9l-2.9.2c-1.1.1-1.5.6-1.5 1.3 0 .8.7 1.4 1.9 1.4 1.5 0 2.5-.8 2.5-2zM186.4 354.2v9.1h-4.3V355c0-1.4-.9-2.5-2.4-2.5s-2.5 1.1-2.5 2.5v8.3h-4.3v-14.6h4.2v.8c1-.7 2.2-1.2 3.6-1.2 3.3.1 5.7 2.5 5.7 5.9zM196.8 348.4c2.8 0 5.1 1.3 6.4 3.4l-3.5 2.4c-.6-1-1.6-1.7-2.9-1.7-1.9 0-3.3 1.5-3.3 3.5s1.4 3.4 3.3 3.4c1.3 0 2.2-.7 2.8-1.7l3.5 2.4c-1.3 2.1-3.6 3.4-6.4 3.4-4.4 0-7.6-3.3-7.6-7.6s3.3-7.5 7.7-7.5zM218.9 357.5h-10.2c.5 1.3 1.7 2.1 3.3 2.1 1.4 0 2.4-.7 3-1.7l3.4 2.1c-1.3 2.2-3.7 3.6-6.5 3.6-4.4 0-7.6-3.3-7.6-7.6 0-4.4 3-7.7 7.4-7.7s7.3 3.2 7.3 7.6c.1.6 0 1.2-.1 1.6zm-10.3-3.1h6.2c-.4-1.4-1.6-2.1-3.1-2.1s-2.7.8-3.1 2.1z"/></g><g fill="#193062"><path d="M26.1 382.5c1.5 0 2.7 1.2 2.7 2.7 0 1.5-1.1 2.7-2.7 2.7-1.5 0-2.7-1.2-2.7-2.7 0-1.6 1.1-2.7 2.7-2.7zm2.1 21.8h-4.3v-14.6h4.3v14.6zM45.6 395.2v9.1h-4.3V396c0-1.4-.9-2.5-2.4-2.5s-2.5 1.1-2.5 2.5v8.3H32v-14.6h4.2v.8c1-.7 2.2-1.2 3.6-1.2 3.3.1 5.8 2.6 5.8 5.9zM79 394.8v9.5h-4.3v-8.6c0-1.2-.8-2.1-2.1-2.1-1.2 0-2.1 1-2.1 2.1v8.6h-4.3v-8.6c0-1.2-.8-2.1-2.1-2.1-1.2 0-2.1 1-2.1 2.1v8.6h-4.3v-14.6h4.2v.7c.9-.6 2-1 3.3-1 1.5 0 2.9.6 3.8 1.5 1-.9 2.5-1.5 4.1-1.5 3.4 0 5.9 2.3 5.9 5.4zM84.9 382.5c1.5 0 2.7 1.2 2.7 2.7 0 1.5-1.1 2.7-2.7 2.7-1.5 0-2.7-1.2-2.7-2.7 0-1.6 1.2-2.7 2.7-2.7zm2.2 21.8h-4.3v-14.6h4.3v14.6zM104.4 395.2v9.1h-4.3V396c0-1.4-.9-2.5-2.4-2.5s-2.5 1.1-2.5 2.5v8.3h-4.3v-14.6h4.2v.8c1-.7 2.2-1.2 3.6-1.2 3.3.1 5.7 2.6 5.7 5.9zM121.5 389.7v14.6h-4.2v-.8c-1 .7-2.2 1.1-3.5 1.1-3.3 0-5.7-2.5-5.7-5.8v-9.2h4.3v8.3c0 1.4.9 2.5 2.4 2.5s2.5-1.1 2.5-2.5v-8.3h4.2zM130.1 389.7h4.5v4.1h-4.5v4.9c0 1 .6 1.6 1.6 1.6h2.9v4.1h-3.8c-3 0-5-1.9-5-4.9v-5.7h-2.1v-2.2l4-5h2.3v3.1zM151 398.6h-10.2c.5 1.3 1.7 2.1 3.3 2.1 1.4 0 2.4-.7 3-1.7l3.4 2.1c-1.3 2.2-3.7 3.6-6.5 3.6-4.4 0-7.6-3.3-7.6-7.6 0-4.4 3-7.7 7.4-7.7s7.3 3.2 7.3 7.6c.1.5 0 1.1-.1 1.6zm-10.2-3.1h6.2c-.4-1.4-1.6-2.1-3.1-2.1-1.6-.1-2.8.7-3.1 2.1zM159.3 400.8c1.2 0 1.9-.5 1.9-1.1 0-.4-.4-.7-1.1-.8s-1.5-.1-2.6-.3c-2.8-.4-4.1-2.1-4.1-4.3 0-2.8 2.4-5 5.9-5 3.5 0 5.9 2 5.9 4.9h-4.1c0-.7-.7-1.1-1.8-1.1s-1.7.4-1.7 1c0 .4.3.6 1 .7.9.1 1.5.1 2.7.3 2.8.3 4.1 2.1 4.1 4.3 0 2.9-2.4 5.1-6.1 5.1-3.6 0-6.1-2.1-6.1-5h4.1c0 .8.7 1.3 2 1.3zM170.4 399.2c1.5 0 2.7 1.2 2.7 2.7 0 1.5-1.1 2.7-2.7 2.7-1.5 0-2.7-1.2-2.7-2.7 0-1.6 1.2-2.7 2.7-2.7z"/></g></svg>