<svg baseProfile="tiny" xmlns="http://www.w3.org/2000/svg" viewBox="0 0 300 250" overflow="visible"><g fill="#231F20"><path d="M18.4 184.1c0 .5-.1.9-.3 1.3-.2.4-.5.7-.9.9s-.8.3-1.3.3-.9-.1-1.3-.3-.7-.5-.9-.9c-.2-.4-.3-.9-.3-1.4 0-.5.1-.9.3-1.3.2-.4.5-.7.9-.9.4-.2.8-.3 1.3-.3s.9.1 1.3.3c.4.2.7.5.9.9l-.4.3c-.2-.3-.4-.5-.7-.7s-.6-.3-1-.3-.8.1-1.1.3c-.3.2-.6.4-.7.8-.2.3-.3.7-.3 1.1 0 .4.1.8.3 1.1.2.3.4.6.7.8.3.2.7.3 1.1.3.3 0 .6-.1.9-.2.3-.1.5-.3.7-.5.2-.2.3-.5.4-.8h-2.2v-.5h2.6zM19.3 181.3h3.8v.5h-3.2v1.8h1.9v.5h-1.9v1.8h3.2v.5h-3.8v-5.1zM28 181.3v5.1h-.5l-2.8-4.2v4.2h-.5v-5.1h.5l2.8 4.2v-4.2h.5zM30.6 184.2v.5H29v-.5h1.6zM34.8 184.9c0 .3-.1.6-.2.8-.1.2-.3.4-.6.6s-.5.2-.9.2c-.3 0-.6-.1-.9-.2-.3-.1-.5-.3-.6-.6s-.2-.5-.2-.8h.6c0 .2.1.4.2.6s.2.3.4.4c.2.1.4.1.6.1.2 0 .4 0 .6-.1s.3-.2.4-.4c.1-.2.1-.4.1-.6 0-.2 0-.4-.1-.6-.1-.2-.2-.3-.4-.4s-.4-.1-.6-.1h-1.4l.3-2.5h2.6v.5h-2.1l-.2 1.4h.9c.3 0 .6.1.8.2.2.1.4.3.6.6 0 .3.1.6.1.9zM39.2 184.9c0 .3-.1.6-.2.9-.1.3-.3.5-.6.6s-.5.2-.9.2c-.3 0-.6-.1-.9-.2s-.5-.3-.6-.6c-.1-.2-.2-.5-.2-.8 0-.2 0-.4.1-.6l.3-.6 1.6-2.4h.6l-1.3 2c.2 0 .3-.1.5-.1.3 0 .6.1.9.2.3.1.5.3.6.6 0 .2.1.5.1.8zm-.6 0c0-.2 0-.4-.1-.6-.1-.2-.2-.3-.4-.4s-.4-.1-.6-.1c-.2 0-.4 0-.6.1-.2.1-.3.2-.4.4-.1.2-.1.4-.1.6 0 .2 0 .4.1.6s.2.3.4.4c.2.1.4.1.6.1s.4 0 .6-.1.3-.2.4-.4c.1-.2.1-.4.1-.6zM41.2 181.9l-1.4.8v-.6l1.4-.8h.5v5.1h-.5v-4.5zM46.7 184.3v.5h-1v1.6h-.5v-1.6h-2.3v-.4l2.3-3.1h.6v3h.9zm-1.5 0v-2.2l-1.6 2.2h1.6zM50.5 185.9v.5h-3.1v-.4l2.1-2.2c.2-.2.3-.3.4-.5.1-.2.1-.3.1-.5s0-.4-.1-.5c-.1-.2-.2-.3-.4-.4-.2-.1-.3-.1-.5-.1s-.4 0-.5.1c-.2.1-.3.2-.4.3s-.1.3-.1.5h-.5c0-.3.1-.5.2-.8.1-.2.3-.4.5-.5.2-.1.5-.2.8-.2.3 0 .6.1.8.2.2.1.4.3.5.5.1.2.2.5.2.8 0 .3-.1.5-.2.7-.1.2-.3.4-.5.7l-1.7 1.8h2.4zM54.9 182.9c0 .2 0 .4-.1.6l-.3.6-1.6 2.4h-.6l1.3-2c-.2 0-.3.1-.5.1-.3 0-.6-.1-.9-.2-.3-.1-.5-.3-.6-.6-.1-.2-.2-.5-.2-.8 0-.3.1-.6.2-.9.1-.3.3-.5.6-.6.3-.1.5-.2.9-.2.3 0 .6.1.9.2.3.1.5.3.6.6.2.2.3.5.3.8zm-1.7 1.2c.2 0 .4 0 .6-.1.2-.1.3-.2.4-.4.1-.2.1-.4.1-.6 0-.2 0-.4-.1-.6s-.2-.3-.4-.4c-.2-.1-.4-.1-.6-.1s-.4 0-.6.1-.3.2-.4.4c-.1.2-.1.4-.1.6 0 .2 0 .4.1.6.1.2.2.3.4.4s.4.1.6.1zM55.7 181.3h3.2v.5l-2 4.6h-.6l2-4.6h-2.7v-.5zM60.3 185.7c.1 0 .2 0 .3.1.1.1.1.2.1.3s0 .2-.1.3c-.1.1-.2.1-.3.1s-.2 0-.3-.1c-.1-.1-.1-.2-.1-.3s0-.2.1-.3c0-.1.1-.1.3-.1zM62.8 181.9l-1.4.8v-.6l1.4-.8h.5v5.1h-.5v-4.5z"/></g></svg>