<svg baseProfile="tiny" xmlns="http://www.w3.org/2000/svg" viewBox="0 0 300 250" overflow="visible"><path fill="#193062" d="M32.5 23.4v.6c0 1.6-.3 3.1-1 4.3-.7 1.3-1.7 2.3-2.9 3s-2.7 1.1-4.3 1.1c-1.6 0-3.1-.4-4.4-1.1-1.3-.7-2.3-1.8-3-3.1-.7-1.3-1.1-2.8-1.1-4.4 0-1.6.4-3.1 1.1-4.4s1.8-2.4 3.1-3.1c1.3-.8 2.8-1.1 4.4-1.1 1.1 0 2.1.2 3.1.5s1.8.8 2.6 1.5 1.4 1.4 1.9 2.2L29 21c-.4-.8-1.1-1.5-1.9-2s-1.8-.7-2.8-.7c-1 0-1.9.2-2.8.7-.8.5-1.4 1.1-1.9 1.9-.5.8-.7 1.7-.7 2.8 0 1.1.2 2 .7 2.9s1.1 1.5 1.8 1.9c.8.5 1.7.7 2.8.7 1.1 0 2.1-.2 2.9-.7s1.4-1.2 1.8-2h-5.7v-3.1h9.3zM40.2 20.3c1.1 0 2.2.3 3.1.8.9.5 1.6 1.3 2.2 2.2.5.9.8 1.9.8 3.1s-.3 2.1-.8 3.1c-.5.9-1.2 1.7-2.2 2.2-.9.5-2 .8-3.1.8s-2.2-.3-3.1-.8c-.9-.5-1.6-1.3-2.2-2.2-.5-.9-.8-1.9-.8-3.1s.3-2.1.8-3.1c.5-.9 1.2-1.7 2.2-2.2.9-.6 1.9-.8 3.1-.8zm0 9c.6 0 1.1-.1 1.5-.4s.8-.6 1-1.1c.3-.5.4-1 .4-1.5s-.1-1.1-.4-1.5c-.3-.5-.6-.8-1-1.1s-.9-.4-1.5-.4-1.1.1-1.5.4c-.4.3-.8.6-1 1.1-.3.5-.4 1-.4 1.5s.1 1.1.4 1.5c.3.5.6.8 1 1.1.4.3.9.4 1.5.4zM17.3 48.5H15v-3h2.3v-2.4c0-.7.1-1.3.4-1.9.3-.5.7-.9 1.3-1.2.5-.3 1.2-.4 1.9-.4h2.5v3h-2c-.3 0-.6.1-.7.3-.2.2-.3.4-.3.8v1.9h3v3h-3v8.6h-3.1v-8.7zM30.4 45.3c1.1 0 2.2.3 3.1.8.9.5 1.6 1.3 2.2 2.2.5.9.8 1.9.8 3.1s-.3 2.1-.8 3.1c-.5.9-1.2 1.7-2.2 2.2-.9.5-2 .8-3.1.8s-2.2-.3-3.1-.8c-.9-.5-1.6-1.3-2.2-2.2-.5-.9-.8-1.9-.8-3.1s.3-2.1.8-3.1c.5-.9 1.2-1.7 2.2-2.2 1-.6 2-.8 3.1-.8zm0 9c.6 0 1.1-.1 1.5-.4s.8-.6 1-1.1c.3-.5.4-1 .4-1.5s-.1-1.1-.4-1.5c-.3-.5-.6-.8-1-1.1s-.9-.4-1.5-.4-1.1.1-1.5.4c-.4.3-.8.6-1 1.1-.3.5-.4 1-.4 1.5s.1 1.1.4 1.5c.3.5.6.8 1 1.1.5.3 1 .4 1.5.4zM46 45.5v3.1h-1.7c-.4 0-.9.1-1.2.3-.4.2-.6.5-.8.9-.2.4-.3.8-.3 1.2v6.1h-3.1V45.5H42v1.1c.3-.4.7-.7 1.2-.9.5-.2 1-.3 1.6-.3H46zM64 45.5l-3.8 11.6H57l-1.6-5.4-1.7 5.4h-3.2l-3.8-11.6h3.4l2.2 7 2.2-7h2l2.1 6.8 2.2-6.8H64zM74.8 49.8v7.3h-3.1v-.7c-.4.3-.8.6-1.3.7s-1 .2-1.7.2c-.8 0-1.5-.2-2.1-.5-.6-.3-1.1-.7-1.4-1.3-.3-.5-.5-1.2-.5-1.9 0-1.1.4-2 1.1-2.6.7-.6 1.7-.9 2.9-1l2.9-.3v-.2c0-.3-.1-.5-.2-.8s-.4-.4-.7-.6c-.3-.1-.6-.2-.9-.2-.5 0-.9.1-1.2.3-.3.2-.5.5-.6.9h-3c.1-.8.3-1.5.7-2.1s1-1.1 1.7-1.5c.7-.4 1.5-.5 2.4-.5 1 0 1.8.2 2.6.6.7.4 1.3.9 1.7 1.6.5.9.7 1.7.7 2.6zM71.7 53v-.8l-2.4.2c-.5 0-.8.2-1.1.4s-.3.5-.3.8.1.6.4.8c.3.2.7.3 1.2.3.7 0 1.2-.2 1.6-.5.4-.2.6-.6.6-1.2zM85 45.5v3.1h-1.7c-.4 0-.9.1-1.2.3-.4.2-.6.5-.8.9-.2.4-.3.8-.3 1.2v6.1h-3.1V45.5H81v1.1c.3-.4.7-.7 1.2-.9.5-.2 1-.3 1.6-.3H85zM98.2 39.6v17.5h-3.1v-.8c-.4.3-.9.6-1.4.8-.5.2-1.1.3-1.7.3-1.1 0-2.1-.3-2.9-.8-.9-.5-1.6-1.3-2-2.2-.5-.9-.7-1.9-.7-3s.2-2.2.7-3.1c.5-.9 1.2-1.7 2-2.2s1.9-.8 3-.8c.6 0 1.2.1 1.7.3.5.2 1 .4 1.4.7v-6.7h3zm-3 11.7c0-.6-.1-1.1-.4-1.6-.2-.5-.6-.8-1-1.1-.4-.3-1-.4-1.5-.4s-1 .1-1.5.4c-.4.3-.8.6-1 1.1s-.4 1-.4 1.5c0 .6.1 1.1.4 1.5s.6.8 1 1.1c.4.3.9.4 1.5.4s1.1-.1 1.5-.4.8-.6 1-1.1.4-.8.4-1.4zM32.2 70.5l-3.8 11.6h-3.2l-1.6-5.4-1.7 5.4h-3.2l-3.8-11.6h3.4l2.2 7 2.2-7h2l2.1 6.8 2.2-6.8h3.2zM35.6 64.8c.4 0 .7.1 1 .3.3.2.5.4.7.7s.3.6.3 1-.1.7-.3 1-.4.5-.7.7c-.3.2-.6.3-1 .3s-.7-.1-1-.3c-.3-.2-.5-.4-.7-.7s-.3-.6-.3-1 .1-.7.3-1 .4-.5.7-.7c.3-.2.6-.3 1-.3zm1.6 17.3H34V70.5h3.1v11.6zM43.8 70.5h3.6v3h-3.6v4.3c0 .4.1.7.4 1 .2.2.6.4 1 .4h2.3v3h-2.9c-.7 0-1.4-.2-2-.5-.6-.3-1-.8-1.3-1.3s-.5-1.2-.5-2v-4.9H39v-1.6l3-3.8h1.7v2.4zM60.4 74.9v7.2h-3.1v-6.6c0-.4-.1-.8-.3-1.1s-.4-.6-.7-.8c-.3-.2-.7-.3-1.1-.3-.4 0-.8.1-1.1.3-.3.2-.6.5-.8.8-.2.3-.3.7-.3 1.1v6.6h-3.1V64.6H53v6.6c.4-.3.8-.5 1.3-.7s1-.2 1.6-.2c.9 0 1.7.2 2.3.6.7.4 1.2 1 1.6 1.7.4.6.6 1.4.6 2.3zM21.4 95.3c1.1 0 2 .2 2.9.7.9.5 1.6 1.1 2.1 2l-2.5 1.8c-.3-.4-.6-.8-1-1-.4-.2-.9-.4-1.4-.4-.5 0-1 .1-1.5.4s-.8.6-1 1.1c-.2.5-.4 1-.4 1.5s.1 1.1.4 1.5c.2.5.6.8 1 1.1.4.3.9.4 1.5.4.5 0 1-.1 1.4-.4s.8-.6 1-1l2.5 1.8c-.5.8-1.2 1.5-2.1 2-.9.5-1.8.7-2.9.7-1.1 0-2.2-.3-3.1-.8-.9-.5-1.6-1.3-2.1-2.2-.5-.9-.8-1.9-.8-3.1s.3-2.1.8-3.1c.5-.9 1.2-1.7 2.1-2.2.9-.6 2-.8 3.1-.8zm12.2 0c1.1 0 2.2.3 3.1.8.9.5 1.6 1.3 2.2 2.2.5.9.8 1.9.8 3.1 0 1.1-.3 2.1-.8 3.1-.5.9-1.2 1.7-2.2 2.2-.9.5-2 .8-3.1.8s-2.2-.3-3.1-.8c-.9-.5-1.6-1.3-2.2-2.2-.5-.9-.8-1.9-.8-3.1 0-1.1.3-2.1.8-3.1.5-.9 1.2-1.7 2.2-2.2 1-.6 2-.8 3.1-.8zm0 9c.6 0 1.1-.1 1.5-.4.4-.3.8-.6 1-1.1.3-.5.4-1 .4-1.5 0-.6-.1-1.1-.4-1.5-.3-.5-.6-.8-1-1.1-.4-.3-.9-.4-1.5-.4s-1.1.1-1.5.4c-.4.3-.8.6-1 1.1-.3.5-.4 1-.4 1.5 0 .6.1 1.1.4 1.5.3.5.6.8 1 1.1.5.3 1 .4 1.5.4zm19-4.4v7.2h-3.1v-6.6c0-.4-.1-.8-.3-1.1-.2-.3-.4-.6-.7-.8s-.7-.3-1.1-.3c-.4 0-.8.1-1.1.3s-.6.5-.8.8c-.2.3-.3.7-.3 1.1v6.6H42V95.5h3.1v.7c.4-.3.8-.6 1.3-.7.5-.2 1-.3 1.6-.3.9 0 1.7.2 2.3.6.7.4 1.2 1 1.6 1.7.5.7.7 1.5.7 2.4zm4-1.4h-2.3v-3h2.3v-2.4c0-.7.1-1.3.4-1.9.3-.5.7-.9 1.3-1.2.5-.3 1.2-.4 1.9-.4h2.5v3h-2c-.3 0-.6.1-.7.3s-.3.4-.3.8v1.9h3v3h-3v8.6h-3.1v-8.7zm9.8-8.7c.4 0 .7.1 1 .3.3.2.5.4.7.7.2.3.3.6.3 1s-.1.7-.3 1c-.2.3-.4.5-.7.7-.3.2-.6.3-1 .3s-.7-.1-1-.3c-.3-.2-.5-.4-.7-.7-.2-.3-.3-.6-.3-1s.1-.7.3-1c.2-.3.4-.5.7-.7.3-.2.6-.3 1-.3zm1.5 17.3h-3.1V95.5h3.1v11.6zm14.4-17.5v17.5h-3.1v-.8c-.4.3-.9.6-1.4.8-.5.2-1.1.3-1.7.3-1.1 0-2.1-.3-2.9-.8-.9-.5-1.6-1.3-2-2.2-.5-.9-.7-1.9-.7-3s.2-2.2.7-3.1c.5-.9 1.2-1.7 2-2.2.9-.5 1.9-.8 3-.8.6 0 1.2.1 1.7.3.5.2 1 .4 1.4.7v-6.7h3zm-3.1 11.7c0-.6-.1-1.1-.4-1.6s-.6-.8-1-1.1c-.4-.3-1-.4-1.5-.4s-1 .1-1.5.4c-.4.3-.8.6-1 1.1-.2.5-.4 1-.4 1.5 0 .6.1 1.1.4 1.5.2.5.6.8 1 1.1.4.3.9.4 1.5.4s1.1-.1 1.5-.4c.4-.3.8-.6 1-1.1.3-.3.4-.8.4-1.4zm17 0c0 .4 0 .8-.1 1.2h-8.3c.2.6.6 1.1 1.1 1.4.5.3 1.1.5 1.8.5.6 0 1.1-.1 1.5-.4.4-.3.8-.6 1.1-1l2.5 1.5c-.5.9-1.2 1.6-2.1 2.1s-1.9.8-3 .8-2.2-.3-3.1-.8c-.9-.5-1.6-1.3-2.1-2.2-.5-.9-.8-1.9-.8-3.1 0-1.1.2-2.2.7-3.1.5-.9 1.2-1.7 2.1-2.2.9-.5 1.9-.8 3-.8s2.1.3 3 .8c.9.5 1.6 1.2 2.1 2.2.4.9.6 2 .6 3.1zm-8.5-1.2h5.4c-.2-.6-.5-1.1-.9-1.4-.5-.3-1-.5-1.7-.5s-1.3.2-1.8.5-.8.8-1 1.4zm21.4-.2v7.2H106v-6.6c0-.4-.1-.8-.3-1.1-.2-.3-.4-.6-.7-.8s-.7-.3-1.1-.3c-.4 0-.8.1-1.1.3s-.6.5-.8.8c-.2.3-.3.7-.3 1.1v6.6h-3.1V95.5h3.1v.7c.4-.3.8-.6 1.3-.7.5-.2 1-.3 1.6-.3.9 0 1.7.2 2.3.6.7.4 1.2 1 1.6 1.7.4.7.6 1.5.6 2.4zm8.3-4.6c1.1 0 2 .2 2.9.7.9.5 1.6 1.1 2.1 2l-2.5 1.8c-.3-.4-.6-.8-1-1-.4-.2-.9-.4-1.4-.4-.5 0-1 .1-1.5.4s-.8.6-1 1.1c-.2.5-.4 1-.4 1.5s.1 1.1.4 1.5c.2.5.6.8 1 1.1.4.3.9.4 1.5.4.5 0 1-.1 1.4-.4s.8-.6 1-1l2.5 1.8c-.5.8-1.2 1.5-2.1 2-.9.5-1.8.7-2.9.7-1.1 0-2.2-.3-3.1-.8-.9-.5-1.6-1.3-2.1-2.2-.5-.9-.8-1.9-.8-3.1s.3-2.1.8-3.1c.5-.9 1.2-1.7 2.1-2.2.9-.6 2-.8 3.1-.8zm17.8 6c0 .4 0 .8-.1 1.2h-8.3c.2.6.6 1.1 1.1 1.4.5.3 1.1.5 1.8.5.6 0 1.1-.1 1.5-.4.4-.3.8-.6 1.1-1l2.5 1.5c-.5.9-1.2 1.6-2.1 2.1s-1.9.8-3 .8-2.2-.3-3.1-.8c-.9-.5-1.6-1.3-2.1-2.2-.5-.9-.8-1.9-.8-3.1 0-1.1.2-2.2.7-3.1.5-.9 1.2-1.7 2.1-2.2.9-.5 1.9-.8 3-.8s2.1.3 3 .8c.9.5 1.6 1.2 2.1 2.2.4.9.6 2 .6 3.1zm-8.5-1.2h5.4c-.2-.6-.5-1.1-.9-1.4-.5-.3-1-.5-1.7-.5s-1.3.2-1.8.5-.8.8-1 1.4zm12.4 3.2c.4 0 .7.1 1 .3.3.2.5.4.7.7.2.3.3.6.3 1s-.1.7-.3 1c-.2.3-.4.5-.7.7-.3.2-.6.3-1 .3s-.7-.1-1-.3-.5-.4-.7-.7c-.2-.3-.3-.6-.3-1s.1-.7.3-1c.2-.3.4-.5.7-.7.3-.2.7-.3 1-.3z"/></svg>