<svg baseProfile="tiny" xmlns="http://www.w3.org/2000/svg" viewBox="0 0 300 250" overflow="visible"><g fill="#454547"><path d="M15.7 127.8h5.1v1h-3.9v3.1h3.6v1h-3.6v4.3h-1.2v-9.4zM23.5 128.5c0 .4-.3.8-.8.8-.4 0-.7-.3-.7-.8 0-.4.3-.8.8-.8.4 0 .7.4.7.8zm-1.4 8.7v-6.8h1.2v6.8h-1.2zM25.4 132.3c0-.7 0-1.3-.1-1.8h1.1l.1 1.1c.3-.6 1.1-1.3 2.2-1.3.9 0 2.4.6 2.4 2.9v4h-1.2v-3.9c0-1.1-.4-2-1.6-2-.8 0-1.4.6-1.7 1.3-.1.2-.1.4-.1.6v4.1h-1.2v-5zM34.5 128.5c0 .4-.3.8-.8.8-.4 0-.7-.3-.7-.8 0-.4.3-.8.8-.8.4 0 .7.4.7.8zm-1.4 8.7v-6.8h1.2v6.8h-1.2zM36.2 135.9c.4.2 1 .5 1.6.5.9 0 1.3-.4 1.3-1s-.4-.9-1.3-1.2c-1.2-.4-1.8-1.1-1.8-1.9 0-1.1.9-2 2.3-2 .7 0 1.3.2 1.7.4l-.3.9c-.3-.2-.8-.4-1.4-.4-.7 0-1.1.4-1.1.9 0 .6.4.8 1.3 1.1 1.2.4 1.8 1 1.8 2 0 1.2-.9 2-2.5 2-.7 0-1.4-.2-1.9-.5l.3-.8zM42 127.3h1.2v4.2c.2-.4.5-.7.9-.9.4-.2.8-.3 1.3-.3.9 0 2.4.6 2.4 2.9v4h-1.2v-3.9c0-1.1-.4-2-1.6-2-.8 0-1.4.6-1.7 1.2-.1.2-.1.4-.1.6v4.1H42v-9.9zM53.1 130.4l1.5 4c.2.4.3 1 .4 1.4.1-.4.3-.9.4-1.4l1.3-4H58l-1.8 4.8c-.9 2.3-1.5 3.5-2.3 4.2-.6.5-1.2.7-1.5.8l-.3-1c.3-.1.7-.3 1.1-.6.3-.3.8-.7 1-1.4.1-.1.1-.2.1-.3s0-.2-.1-.3l-2.5-6.2h1.4zM65.3 133.8c0 2.5-1.7 3.6-3.4 3.6-1.8 0-3.2-1.3-3.2-3.5 0-2.3 1.5-3.6 3.4-3.6s3.2 1.4 3.2 3.5zm-5.4 0c0 1.5.9 2.6 2.1 2.6 1.2 0 2.1-1.1 2.1-2.6 0-1.1-.6-2.6-2-2.6-1.6 0-2.2 1.3-2.2 2.6zM72.5 135.4c0 .7 0 1.3.1 1.8h-1.1l-.1-1.1c-.3.5-1 1.3-2.2 1.3-1.1 0-2.3-.6-2.3-3v-4H68v3.8c0 1.3.4 2.2 1.5 2.2.8 0 1.4-.6 1.6-1.1.1-.2.1-.4.1-.6v-4.2h1.2v4.9zM74.6 132.5c0-.8 0-1.5-.1-2.1h1.1v1.3h.1c.3-.9 1.1-1.5 1.9-1.5h.4v1.2h-.4c-.9 0-1.5.7-1.7 1.6 0 .2-.1.4-.1.6v3.6h-1.2v-4.7z"/></g><g fill="#454547"><path d="M15.6 148.3c0-.7 0-1.3-.1-1.8h1.1l.1 1.1c.3-.6 1.1-1.3 2.2-1.3.9 0 2.4.6 2.4 2.9v4h-1.2v-3.9c0-1.1-.4-2-1.6-2-.8 0-1.4.6-1.7 1.3-.1.2-.1.4-.1.6v4.1h-1.2v-5zM29.5 149.8c0 2.5-1.7 3.6-3.4 3.6-1.8 0-3.2-1.3-3.2-3.5 0-2.3 1.5-3.6 3.4-3.6s3.2 1.4 3.2 3.5zm-5.3 0c0 1.5.9 2.6 2.1 2.6 1.2 0 2.1-1.1 2.1-2.6 0-1.1-.6-2.6-2-2.6-1.6 0-2.2 1.3-2.2 2.6zM34.2 149v.9h-3.5v-.9h3.5zM40.7 153c-.3.2-1 .4-1.9.4-2 0-3.4-1.4-3.4-3.5s1.4-3.6 3.6-3.6c.7 0 1.4.2 1.7.4l-.3 1c-.3-.2-.8-.3-1.4-.3-1.6 0-2.4 1.1-2.4 2.6 0 1.6 1 2.5 2.4 2.5.7 0 1.2-.2 1.5-.3l.2.8zM48.2 149.8c0 2.5-1.7 3.6-3.4 3.6-1.8 0-3.2-1.3-3.2-3.5 0-2.3 1.5-3.6 3.4-3.6s3.2 1.4 3.2 3.5zm-5.4 0c0 1.5.9 2.6 2.1 2.6 1.2 0 2.1-1.1 2.1-2.6 0-1.1-.6-2.6-2-2.6-1.6 0-2.2 1.3-2.2 2.6zM49.6 151.9c.4.2 1 .5 1.6.5.9 0 1.3-.4 1.3-1s-.4-.9-1.3-1.2c-1.2-.4-1.8-1.1-1.8-1.9 0-1.1.9-2 2.3-2 .7 0 1.3.2 1.7.4l-.3.9c-.3-.2-.8-.4-1.4-.4-.7 0-1.1.4-1.1.9 0 .6.4.8 1.3 1.1 1.2.4 1.8 1 1.8 2 0 1.2-.9 2-2.5 2-.7 0-1.4-.2-1.9-.5l.3-.8zM56.8 144.5v1.9h1.8v.9h-1.8v3.7c0 .8.2 1.3.9 1.3.3 0 .6 0 .7-.1l.1.9c-.2.1-.6.2-1.1.2-.6 0-1-.2-1.3-.5-.4-.4-.5-1-.5-1.8v-3.7h-1.1v-.9h1.1v-1.6l1.2-.3zM62.9 143.8h1.2v8.4h4v1h-5.3v-9.4zM70.9 144.5c0 .4-.3.8-.8.8-.4 0-.7-.3-.7-.8 0-.4.3-.8.8-.8.4 0 .7.4.7.8zm-1.4 8.7v-6.8h1.2v6.8h-1.2zM72.9 153.2v-5.8h-1v-.9h1v-.3c0-1 .2-1.8.8-2.4.5-.4 1.1-.6 1.7-.6.4 0 .8.1 1.1.2l-.2 1c-.2-.1-.4-.2-.8-.2-1.1 0-1.3.9-1.3 2v.4h1.6v.9h-1.6v5.8h-1.3zM77.4 150c0 1.7 1.1 2.4 2.3 2.4.9 0 1.4-.2 1.9-.4l.2.9c-.4.2-1.2.4-2.3.4-2.1 0-3.3-1.4-3.3-3.4s1.2-3.7 3.2-3.7c2.2 0 2.8 1.9 2.8 3.2v.6h-4.8zm3.6-.8c0-.8-.3-2-1.7-2-1.2 0-1.8 1.1-1.9 2H81z"/></g><g fill="#454547"><path d="M16.9 159.8v9.4h-1.2v-9.4h1.2zM19.1 164.3c0-.7 0-1.3-.1-1.8h1.1l.1 1.1c.3-.6 1.1-1.3 2.2-1.3.9 0 2.4.6 2.4 2.9v4h-1.2v-3.9c0-1.1-.4-2-1.6-2-.8 0-1.4.6-1.7 1.3-.1.2-.1.4-.1.6v4.1H19v-5zM26.7 167.9c.4.2 1 .5 1.6.5.9 0 1.3-.4 1.3-1s-.4-.9-1.3-1.2c-1.2-.4-1.8-1.1-1.8-1.9 0-1.1.9-2 2.3-2 .7 0 1.3.2 1.7.4l-.3.9c-.3-.2-.8-.4-1.4-.4-.7 0-1.1.4-1.1.9 0 .6.4.8 1.3 1.1 1.2.4 1.8 1 1.8 2 0 1.2-.9 2-2.5 2-.7 0-1.4-.2-1.9-.5l.3-.8zM38.1 167.4c0 .7 0 1.3.1 1.8h-1.1l-.1-1.1c-.3.5-1 1.3-2.2 1.3-1.1 0-2.3-.6-2.3-3v-4h1.2v3.8c0 1.3.4 2.2 1.5 2.2.8 0 1.4-.6 1.6-1.1.1-.2.1-.4.1-.6v-4.2h1.2v4.9zM40.1 164.5c0-.8 0-1.5-.1-2.1h1.1v1.3h.1c.3-.9 1.1-1.5 1.9-1.5h.4v1.2h-.4c-.9 0-1.5.7-1.7 1.6 0 .2-.1.4-.1.6v3.6h-1.2v-4.7zM48.4 169.2l-.1-.9c-.4.5-1.1 1-2.1 1-1.4 0-2.1-1-2.1-1.9 0-1.6 1.5-2.5 4.1-2.5v-.1c0-.6-.2-1.6-1.5-1.6-.6 0-1.3.2-1.8.5l-.3-.8c.6-.4 1.4-.6 2.2-.6 2.1 0 2.6 1.4 2.6 2.8v2.5c0 .6 0 1.2.1 1.6h-1.1zm-.2-3.5c-1.3 0-2.9.2-2.9 1.5 0 .8.5 1.2 1.2 1.2.9 0 1.4-.6 1.6-1.1 0-.1.1-.3.1-.4v-1.2zM51.4 164.3c0-.7 0-1.3-.1-1.8h1.1l.1 1.1c.3-.6 1.1-1.3 2.2-1.3.9 0 2.4.6 2.4 2.9v4h-1.2v-3.9c0-1.1-.4-2-1.6-2-.8 0-1.4.6-1.7 1.3-.1.2-.1.4-.1.6v4.1h-1.2v-5zM64 169c-.3.2-1 .4-1.9.4-2 0-3.4-1.4-3.4-3.5s1.4-3.6 3.6-3.6c.7 0 1.4.2 1.7.4l-.3 1c-.3-.2-.8-.3-1.4-.3-1.6 0-2.4 1.1-2.4 2.6 0 1.6 1 2.5 2.4 2.5.7 0 1.2-.2 1.5-.3l.2.8zM66.1 166c0 1.7 1.1 2.4 2.3 2.4.9 0 1.4-.2 1.9-.4l.2.9c-.4.2-1.2.4-2.3.4-2.1 0-3.3-1.4-3.3-3.4s1.2-3.7 3.2-3.7c2.2 0 2.8 1.9 2.8 3.2v.6h-4.8zm3.6-.8c0-.8-.3-2-1.7-2-1.2 0-1.8 1.1-1.9 2h3.6zM80 168.2c-.4.7-1.1 1.2-2.2 1.2-1.6 0-2.9-1.4-2.9-3.4 0-2.5 1.6-3.7 3.1-3.7 1.1 0 1.8.5 2.1 1.2v-1h1.2v9.6H80v-3.9zm0-3c0-.2 0-.4-.1-.5-.2-.8-.8-1.4-1.8-1.4-1.3 0-2 1.1-2 2.6 0 1.3.6 2.5 2 2.5.8 0 1.5-.5 1.8-1.3.1-.2.1-.4.1-.6v-1.3zM88.9 167.4c0 .7 0 1.3.1 1.8h-1.1l-.1-1.1c-.3.5-1 1.3-2.2 1.3-1.1 0-2.3-.6-2.3-3v-4h1.2v3.8c0 1.3.4 2.2 1.5 2.2.8 0 1.4-.6 1.6-1.1.1-.2.1-.4.1-.6v-4.2h1.2v4.9zM97.1 165.8c0 2.5-1.7 3.6-3.4 3.6-1.8 0-3.2-1.3-3.2-3.5 0-2.3 1.5-3.6 3.4-3.6s3.2 1.4 3.2 3.5zm-5.4 0c0 1.5.9 2.6 2.1 2.6 1.2 0 2.1-1.1 2.1-2.6 0-1.1-.6-2.6-2-2.6-1.6 0-2.2 1.3-2.2 2.6zM100.1 160.5v1.9h1.8v.9h-1.8v3.7c0 .8.2 1.3.9 1.3.3 0 .6 0 .7-.1l.1.9c-.2.1-.6.2-1.1.2-.6 0-1-.2-1.3-.5-.4-.4-.5-1-.5-1.8v-3.7h-1.1v-.9h1.1v-1.6l1.2-.3zM103.9 166c0 1.7 1.1 2.4 2.3 2.4.9 0 1.4-.2 1.9-.4l.2.9c-.4.2-1.2.4-2.3.4-2.1 0-3.3-1.4-3.3-3.4s1.2-3.7 3.2-3.7c2.2 0 2.8 1.9 2.8 3.2v.6h-4.8zm3.6-.8c0-.8-.3-2-1.7-2-1.2 0-1.8 1.1-1.9 2h3.6zM109.8 168.5c0-.5.4-.9.8-.9s.8.4.8.9-.3.9-.8.9-.8-.4-.8-.9z"/></g></svg>