<svg baseProfile="tiny" xmlns="http://www.w3.org/2000/svg" viewBox="0 0 300 600" overflow="visible"><g fill="#193062"><path d="M23.5 241.1h14.3v3.8H27.4v3.4h5.7v3.8h-5.7v7.3h-3.9v-18.3zM42.1 240.5c1.3 0 2.3 1 2.3 2.3 0 1.3-1 2.3-2.3 2.3s-2.3-1-2.3-2.3c0-1.3 1-2.3 2.3-2.3zm1.9 18.8h-3.7v-12.6H44v12.6zM58.9 251.5v7.9h-3.7v-7.1c0-1.2-.8-2.1-2.1-2.1s-2.1 1-2.1 2.1v7.1h-3.7v-12.6h3.6v.7c.8-.6 1.9-1 3.1-1 2.8 0 4.9 2.1 4.9 5zM74.3 240.3v19h-3.6v-.8c-.8.6-2 1-3.2 1-3.6 0-6.2-2.9-6.2-6.5 0-3.7 2.6-6.6 6.2-6.6 1.2 0 2.3.4 3.1 1v-7.1h3.7zm-3.5 12.8c0-1.7-1.2-3-2.9-3-1.6 0-2.8 1.3-2.8 3 0 1.6 1.2 2.9 2.8 2.9 1.7 0 2.9-1.3 2.9-2.9zM85.1 241.1H89v14.4h10.4v3.8H85.1v-18.2zM103.7 240.5c1.3 0 2.3 1 2.3 2.3 0 1.3-1 2.3-2.3 2.3s-2.3-1-2.3-2.3c0-1.3 1-2.3 2.3-2.3zm1.8 18.8h-3.7v-12.6h3.7v12.6zM110.1 250.3h-2.5v-3.5h2.5v-2.5c0-2.4 1.6-3.9 4-3.9h2.8v3.5h-2.1c-.6 0-1 .3-1 1v1.9h3.2v3.5h-3.2v9.1h-3.7v-9.1zM130.6 254.4h-8.8c.4 1.1 1.5 1.8 2.8 1.8 1.2 0 2.1-.6 2.6-1.4l2.9 1.8c-1.1 1.9-3.1 3.1-5.6 3.1-3.8 0-6.5-2.8-6.5-6.5s2.6-6.6 6.3-6.6c3.7 0 6.3 2.8 6.3 6.5.1.4.1.8 0 1.3zm-8.9-2.7h5.3c-.4-1.2-1.3-1.8-2.6-1.8-1.4-.1-2.4.6-2.7 1.8zM140.6 241.1h3.9v18.2h-3.9v-18.2zM159.7 251.5v7.9H156v-7.1c0-1.2-.8-2.1-2.1-2.1s-2.1 1-2.1 2.1v7.1h-3.7v-12.6h3.6v.7c.8-.6 1.9-1 3.1-1 2.8 0 4.9 2.1 4.9 5zM167.5 256.3c1 0 1.6-.4 1.6-.9 0-.4-.3-.6-1-.7-.6-.1-1.3-.1-2.3-.2-2.4-.4-3.6-1.8-3.6-3.7 0-2.4 2-4.3 5.1-4.3 3 0 5.1 1.8 5.1 4.2h-3.6c0-.6-.6-.9-1.5-.9s-1.5.4-1.5.9c0 .3.3.5.9.6.8.1 1.3.1 2.3.2 2.4.3 3.6 1.8 3.6 3.7 0 2.5-2.1 4.4-5.2 4.4s-5.3-1.8-5.3-4.3h3.6c0 .6.7 1 1.8 1zM186.6 246.7v12.6H183v-.7c-.8.6-1.9 1-3 1-2.8 0-4.9-2.1-4.9-5v-7.9h3.7v7.1c0 1.2.8 2.1 2.1 2.1s2.1-.9 2.1-2.1v-7.1h3.6zM197.9 246.7v3.6H196c-1.4 0-2.4 1.1-2.4 2.5v6.4h-3.7v-12.6h3.6v1.1c.7-.9 1.8-1.1 2.9-1.1h1.5zM210.1 251.4v7.9h-3.6v-.7c-.8.7-1.7.9-3.1.9-2.6 0-4.4-1.6-4.4-3.9 0-2.6 1.9-3.7 4.4-3.9l3.1-.2v-.1c0-.8-.8-1.5-1.8-1.5-.9 0-1.6.5-1.8 1.2h-3.5c.2-2.6 2.3-4.5 5.3-4.5 3.2-.1 5.4 2 5.4 4.8zm-3.6 3.5v-.8l-2.5.2c-.9.1-1.3.5-1.3 1.1 0 .6.6 1.2 1.6 1.2 1.3 0 2.2-.6 2.2-1.7zM225 251.5v7.9h-3.7v-7.1c0-1.2-.8-2.1-2.1-2.1s-2.1 1-2.1 2.1v7.1h-3.7v-12.6h3.6v.7c.8-.6 1.9-1 3.1-1 2.8 0 4.9 2.1 4.9 5zM233.9 246.5c2.4 0 4.4 1.1 5.5 2.9l-3 2.1c-.5-.8-1.4-1.4-2.5-1.4-1.7 0-2.8 1.3-2.8 3s1.2 2.9 2.8 2.9c1.1 0 1.9-.6 2.4-1.4l3 2.1c-1.1 1.8-3.1 2.9-5.5 2.9-3.8 0-6.5-2.9-6.5-6.6 0-3.7 2.8-6.5 6.6-6.5zM253 254.4h-8.8c.4 1.1 1.5 1.8 2.8 1.8 1.2 0 2.1-.6 2.6-1.4l2.9 1.8c-1.1 1.9-3.1 3.1-5.6 3.1-3.8 0-6.5-2.8-6.5-6.5s2.6-6.6 6.3-6.6c3.7 0 6.3 2.8 6.3 6.5.1.4.1.8 0 1.3zm-8.9-2.7h5.3c-.3-1.2-1.3-1.8-2.6-1.8-1.4-.1-2.4.6-2.7 1.8z"/></g><g fill="#193062"><path d="M24.5 289.4H22v-3.5h2.5v-2.5c0-2.4 1.6-3.9 4-3.9h2.8v3.5h-2.1c-.6 0-1 .3-1 1v1.9h3.2v3.5h-3.2v9.1h-3.7v-9.1zM39.1 285.6c3.8 0 6.6 2.9 6.6 6.6 0 3.6-2.8 6.5-6.6 6.5s-6.6-2.9-6.6-6.5c0-3.8 2.8-6.6 6.6-6.6zm0 9.5c1.7 0 2.9-1.3 2.9-2.9 0-1.7-1.2-3-2.9-3s-2.9 1.3-2.9 3c0 1.6 1.2 2.9 2.9 2.9zM56.1 285.8v3.6h-1.9c-1.4 0-2.4 1.1-2.4 2.5v6.4h-3.7v-12.6h3.6v1.1c.7-.9 1.8-1.1 2.9-1.1h1.5zM75.8 285.8l-6.4 17.9h-3.9l2-5.6-4.4-12.3h4l2.4 6.8 2.4-6.8h3.9zM83.1 285.6c3.8 0 6.6 2.9 6.6 6.6 0 3.6-2.8 6.5-6.6 6.5s-6.6-2.9-6.6-6.5c0-3.8 2.8-6.6 6.6-6.6zm0 9.5c1.7 0 2.9-1.3 2.9-2.9 0-1.7-1.2-3-2.9-3s-2.9 1.3-2.9 3c0 1.6 1.2 2.9 2.9 2.9zM103.6 285.8v12.6H100v-.7c-.8.6-1.9 1-3 1-2.8 0-4.9-2.1-4.9-5v-7.9h3.7v7.1c0 1.2.8 2.1 2.1 2.1s2.1-.9 2.1-2.1v-7.1h3.6zM114.9 285.8v3.6H113c-1.4 0-2.4 1.1-2.4 2.5v6.4h-3.7v-12.6h3.6v1.1c.7-.9 1.8-1.1 2.9-1.1h1.5zM125.5 289.4H123v-3.5h2.5v-2.5c0-2.4 1.6-3.9 4-3.9h2.8v3.5h-2.1c-.6 0-1 .3-1 1v1.9h3.2v3.5h-3.2v9.1h-3.7v-9.1zM144.6 290.5v7.9H141v-.7c-.8.7-1.7.9-3.1.9-2.6 0-4.4-1.6-4.4-3.9 0-2.6 1.9-3.7 4.4-3.9l3.1-.2v-.1c0-.8-.8-1.5-1.8-1.5-.9 0-1.6.5-1.8 1.2h-3.5c.2-2.6 2.3-4.5 5.3-4.5 3.2-.1 5.4 2 5.4 4.8zM141 294v-.8l-2.5.2c-.9.1-1.3.5-1.3 1.1 0 .6.6 1.2 1.6 1.2 1.3 0 2.2-.6 2.2-1.7zM166.2 290.2v8.2h-3.7V291c0-1-.7-1.8-1.8-1.8s-1.8.9-1.8 1.8v7.4h-3.7V291c0-1-.7-1.8-1.8-1.8s-1.8.9-1.8 1.8v7.4h-3.7v-12.6h3.6v.6c.8-.5 1.7-.9 2.8-.9 1.3 0 2.5.5 3.3 1.3.9-.8 2.1-1.3 3.5-1.3 3 .1 5.1 2 5.1 4.7zM171.3 279.6c1.3 0 2.3 1 2.3 2.3 0 1.3-1 2.3-2.3 2.3-1.3 0-2.3-1-2.3-2.3 0-1.3 1-2.3 2.3-2.3zm1.8 18.8h-3.7v-12.6h3.7v12.6zM176.5 279.4h3.7v19h-3.7v-19zM194.7 285.8l-6.4 17.9h-3.9l2-5.6-4.4-12.3h4l2.4 6.8 2.4-6.8h3.9zM220.5 285.8l-4.1 12.6h-3.8l-1.6-5.3-1.6 5.3h-3.8l-4.2-12.6h4l2.2 7.1 2.2-7.1h2.4l2.1 6.9 2.3-6.9h3.9zM224.2 279.6c1.3 0 2.3 1 2.3 2.3 0 1.3-1 2.3-2.3 2.3-1.3 0-2.3-1-2.3-2.3 0-1.3 1-2.3 2.3-2.3zm1.9 18.8h-3.7v-12.6h3.7v12.6zM233.5 285.8h3.9v3.5h-3.9v4.2c0 .8.5 1.4 1.4 1.4h2.5v3.5h-3.2c-2.5 0-4.3-1.6-4.3-4.2v-4.9H228v-1.9l3.5-4.3h2v2.7zM251.6 290.6v7.8h-3.7v-7.1c0-1.2-.8-2.2-2.1-2.2s-2.2 1-2.2 2.2v7.1h-3.7v-19h3.7v7.1c.8-.6 1.8-1 3-1 2.9.1 5 2.2 5 5.1z"/></g><g fill="#193062"><path d="M29 324.7c2.4 0 4.4 1.2 5.5 2.9l-3 2.1c-.5-.8-1.4-1.4-2.5-1.4-1.6 0-2.8 1.3-2.8 3s1.2 2.9 2.8 2.9c1.1 0 1.9-.6 2.4-1.4l3 2.1c-1.1 1.8-3.1 3-5.5 3-3.8 0-6.5-2.9-6.5-6.6s2.8-6.6 6.6-6.6zM36.4 318.5h3.7v19h-3.7v-19zM55 332.6h-8.8c.4 1.1 1.5 1.8 2.8 1.8 1.2 0 2.1-.6 2.6-1.4l2.9 1.8c-1.1 1.9-3.1 3.1-5.6 3.1-3.8 0-6.5-2.8-6.5-6.5s2.6-6.6 6.3-6.6c3.7 0 6.3 2.8 6.3 6.5.2.4.1.8 0 1.3zm-8.8-2.7h5.3c-.4-1.2-1.3-1.8-2.6-1.8-1.4-.1-2.4.6-2.7 1.8zM68.1 329.6v7.9h-3.6v-.7c-.8.7-1.7 1-3.1 1-2.6 0-4.4-1.6-4.4-3.9 0-2.6 1.9-3.7 4.4-3.9l3.1-.2v-.2c0-.8-.8-1.5-1.8-1.5-.9 0-1.6.5-1.8 1.2h-3.5c.2-2.6 2.3-4.5 5.3-4.5 3.2-.1 5.4 2 5.4 4.8zm-3.6 3.5v-.8l-2.5.2c-.9.1-1.3.5-1.3 1.1 0 .6.6 1.2 1.6 1.2 1.3 0 2.2-.6 2.2-1.7zM79.3 324.9v3.6h-1.9c-1.4 0-2.4 1.1-2.4 2.5v6.4h-3.7v-12.6h3.6v1.1c.7-.9 1.8-1.1 2.9-1.1h1.5zM90.5 318.7c1.3 0 2.3 1 2.3 2.3 0 1.3-1 2.3-2.3 2.3s-2.3-1-2.3-2.3c0-1.3 1-2.3 2.3-2.3zm1.8 18.8h-3.7v-12.6h3.7v12.6zM107.3 329.7v7.9h-3.7v-7.1c0-1.2-.8-2.1-2.1-2.1s-2.1.9-2.1 2.1v7.1h-3.7V325h3.6v.7c.8-.6 1.9-1 3.1-1 2.8 0 4.9 2.1 4.9 5zM111.6 328.5h-2.5V325h2.5v-2.5c0-2.4 1.6-3.9 4-3.9h2.8v3.5h-2.1c-.6 0-1 .4-1 1v1.9h3.2v3.5h-3.2v9.1h-3.7v-9.1zM126.2 324.7c3.8 0 6.6 2.9 6.6 6.6 0 3.6-2.8 6.5-6.6 6.5s-6.6-3-6.6-6.5c0-3.8 2.8-6.6 6.6-6.6zm0 9.5c1.7 0 2.9-1.3 2.9-2.9 0-1.7-1.2-3-2.9-3s-2.9 1.3-2.9 3c0 1.6 1.2 2.9 2.9 2.9zM143.2 324.9v3.6h-1.9c-1.4 0-2.4 1.1-2.4 2.5v6.4h-3.7v-12.6h3.6v1.1c.7-.9 1.8-1.1 2.9-1.1h1.5zM163.7 329.3v8.2H160v-7.4c0-1-.7-1.8-1.8-1.8s-1.8.8-1.8 1.8v7.4h-3.7v-7.4c0-1-.7-1.8-1.8-1.8s-1.8.8-1.8 1.8v7.4h-3.7v-12.6h3.6v.6c.7-.5 1.7-.9 2.8-.9 1.3 0 2.5.5 3.3 1.3.9-.8 2.1-1.3 3.5-1.3 2.9.1 5.1 2 5.1 4.7zM177.3 329.6v7.9h-3.6v-.7c-.8.7-1.7 1-3.1 1-2.6 0-4.4-1.6-4.4-3.9 0-2.6 1.9-3.7 4.4-3.9l3.1-.2v-.2c0-.8-.8-1.5-1.8-1.5-.9 0-1.6.5-1.8 1.2h-3.5c.2-2.6 2.3-4.5 5.3-4.5 3.2-.1 5.4 2 5.4 4.8zm-3.6 3.5v-.8l-2.5.2c-.9.1-1.3.5-1.3 1.1 0 .6.6 1.2 1.6 1.2 1.4 0 2.2-.6 2.2-1.7zM184.6 324.9h3.9v3.5h-3.9v4.2c0 .8.5 1.3 1.4 1.3h2.5v3.5h-3.2c-2.5 0-4.3-1.6-4.3-4.2v-4.9h-1.8v-1.9l3.5-4.3h2v2.8zM192.8 318.7c1.3 0 2.3 1 2.3 2.3 0 1.3-1 2.3-2.3 2.3-1.3 0-2.3-1-2.3-2.3 0-1.3 1-2.3 2.3-2.3zm1.9 18.8H191v-12.6h3.7v12.6zM203.7 324.7c3.8 0 6.6 2.9 6.6 6.6 0 3.6-2.8 6.5-6.6 6.5s-6.6-3-6.6-6.5c0-3.8 2.8-6.6 6.6-6.6zm0 9.5c1.7 0 2.9-1.3 2.9-2.9 0-1.7-1.2-3-2.9-3s-2.9 1.3-2.9 3c0 1.6 1.2 2.9 2.9 2.9zM224.4 329.7v7.9h-3.7v-7.1c0-1.2-.8-2.1-2.1-2.1s-2.1.9-2.1 2.1v7.1h-3.7V325h3.6v.7c.8-.6 1.9-1 3.1-1 2.8 0 4.9 2.1 4.9 5z"/></g><g fill="#193062"><path d="M24.5 367.6H22V364h2.5v-2.5c0-2.4 1.6-3.9 4-3.9h2.8v3.5h-2.1c-.6 0-1 .4-1 1v1.9h3.2v3.5h-3.2v9.1h-3.7v-9zM41.7 364v3.6h-1.9c-1.4 0-2.4 1.1-2.4 2.5v6.4h-3.7V364h3.6v1.1c.7-.9 1.8-1.1 2.9-1.1h1.5zM49.5 363.8c3.8 0 6.6 2.9 6.6 6.6 0 3.6-2.8 6.5-6.6 6.5s-6.6-3-6.6-6.5c0-3.8 2.8-6.6 6.6-6.6zm0 9.5c1.7 0 2.9-1.3 2.9-2.9 0-1.7-1.2-3-2.9-3s-2.9 1.3-2.9 3c0 1.6 1.2 2.9 2.9 2.9zM76.9 368.4v8.2h-3.7v-7.4c0-1-.7-1.8-1.8-1.8s-1.8.8-1.8 1.8v7.4h-3.7v-7.4c0-1-.7-1.8-1.8-1.8s-1.8.8-1.8 1.8v7.4h-3.7V364h3.6v.6c.7-.5 1.7-.9 2.8-.9 1.3 0 2.5.5 3.3 1.3.9-.8 2.1-1.3 3.5-1.3 2.9.1 5.1 2 5.1 4.7zM91.5 364h3.9v3.5h-3.9v4.2c0 .8.5 1.3 1.4 1.3h2.5v3.5h-3.2c-2.5 0-4.3-1.6-4.3-4.2v-4.9H86v-1.9l3.5-4.3h2v2.8zM109.5 368.8v7.8h-3.7v-7.1c0-1.2-.8-2.2-2.1-2.2s-2.2.9-2.2 2.2v7.1h-3.7v-19h3.7v7.1c.8-.6 1.8-1 3-1 2.9.1 5 2.2 5 5.1zM124.4 371.7h-8.8c.4 1.1 1.5 1.8 2.8 1.8 1.2 0 2.1-.6 2.6-1.4l2.9 1.8c-1.1 1.9-3.1 3.1-5.6 3.1-3.8 0-6.5-2.8-6.5-6.5s2.6-6.6 6.3-6.6c3.7 0 6.3 2.8 6.3 6.5.2.4.1.8 0 1.3zm-8.8-2.7h5.3c-.4-1.2-1.3-1.8-2.6-1.8-1.4-.1-2.4.6-2.7 1.8zM138.7 373.6c1 0 1.6-.4 1.6-.9 0-.4-.3-.6-.9-.7-.6-.1-1.3-.1-2.3-.2-2.4-.4-3.6-1.8-3.6-3.7 0-2.4 2-4.3 5.1-4.3 3 0 5.1 1.8 5.1 4.2h-3.6c0-.6-.6-.9-1.5-.9s-1.5.4-1.5.8.3.5.9.6c.8.1 1.3.1 2.3.2 2.4.3 3.6 1.8 3.6 3.7 0 2.5-2.1 4.4-5.2 4.4s-5.3-1.8-5.3-4.3h3.6c0 .7.7 1.1 1.7 1.1zM150.5 364h3.9v3.5h-3.9v4.2c0 .8.5 1.3 1.4 1.3h2.5v3.5h-3.2c-2.5 0-4.3-1.6-4.3-4.2v-4.9H145v-1.9l3.5-4.3h2v2.8zM167.3 368.7v7.9h-3.6v-.6c-.8.7-1.7 1-3.1 1-2.6 0-4.4-1.6-4.4-3.9 0-2.6 1.9-3.7 4.4-3.9l3.1-.2v-.2c0-.8-.8-1.5-1.8-1.5-.9 0-1.6.5-1.8 1.2h-3.5c.2-2.6 2.3-4.5 5.3-4.5 3.2-.2 5.4 1.9 5.4 4.7zm-3.6 3.5v-.8l-2.5.2c-.9.1-1.3.5-1.3 1.1 0 .6.6 1.2 1.6 1.2 1.3 0 2.2-.6 2.2-1.7zM178.5 364v3.6h-1.9c-1.4 0-2.4 1.1-2.4 2.5v6.4h-3.7V364h3.6v1.1c.7-.9 1.8-1.1 2.9-1.1h1.5zM185.1 364h3.9v3.5h-3.9v4.2c0 .8.5 1.3 1.4 1.3h2.5v3.5h-3.2c-2.5 0-4.3-1.6-4.3-4.2v-4.9h-1.8v-1.9l3.5-4.3h2v2.8zM193.5 372.2c1.3 0 2.3 1 2.3 2.3 0 1.3-1 2.3-2.3 2.3-1.3 0-2.3-1-2.3-2.3 0-1.3.9-2.3 2.3-2.3z"/></g></svg>