<svg baseProfile="tiny" xmlns="http://www.w3.org/2000/svg" viewBox="0 0 160 600" overflow="visible"><path fill="#FAE07E" d="M18.7 512.2h122.8v34.7H18.7z"/><g fill="#193062"><path d="M42.8 529.3v.3c0 1-.2 1.8-.6 2.6-.4.8-1 1.4-1.7 1.8-.8.4-1.6.7-2.6.7s-1.9-.2-2.6-.7c-.8-.4-1.4-1.1-1.8-1.8-.4-.8-.6-1.7-.6-2.7 0-1 .2-1.8.7-2.6.4-.8 1.1-1.4 1.8-1.9.8-.5 1.7-.7 2.7-.7.6 0 1.3.1 1.8.3.6.2 1.1.5 1.5.9.4.4.8.8 1.1 1.3l-1.7 1c-.3-.5-.6-.9-1.1-1.2-.5-.3-1-.4-1.7-.4-.6 0-1.2.1-1.6.4-.5.3-.9.7-1.1 1.2-.3.5-.4 1-.4 1.6 0 .6.1 1.2.4 1.7.3.5.6.9 1.1 1.2.5.3 1 .4 1.7.4s1.2-.1 1.7-.4c.5-.3.8-.7 1.1-1.2h-3.4v-1.8h5.3zM44.4 524.5h7.8v1.9h-5.8v2.1h3.2v1.9h-3.2v2.2h5.8v1.9h-7.8v-10zM56.1 526.4h-2.9v-1.9H61v1.9h-2.9v8.1h-2v-8.1zM71.4 533.1h-3.7l-.5 1.4h-1.9l3.3-10h2l3.3 10h-2l-.5-1.4zm-.7-1.9l-1.2-3.8-1.2 3.8h2.4zM89 532.7v1.8h-.9l-1.3-1c-.4.4-1 .6-1.5.8-.6.2-1.2.3-1.8.3-1 0-1.9-.2-2.7-.7s-1.4-1.1-1.8-1.9c-.4-.8-.7-1.7-.7-2.6s.2-1.8.7-2.6c.4-.8 1.1-1.4 1.8-1.9.8-.5 1.7-.7 2.7-.7s1.9.2 2.7.7c.8.5 1.4 1.1 1.9 1.9.4.8.7 1.7.7 2.6 0 .9-.2 1.7-.6 2.5l.8.8zm-3.8-.4l-1-.7 1.2-1.6 1 .8c.2-.4.2-.8.2-1.3 0-.6-.1-1.2-.4-1.6s-.7-.9-1.1-1.2c-.5-.3-1-.4-1.7-.4-.6 0-1.2.1-1.6.4-.5.3-.9.7-1.1 1.2-.3.5-.4 1-.4 1.6 0 .6.1 1.2.4 1.6.3.5.7.9 1.1 1.2.5.3 1 .4 1.6.4.7.1 1.3-.1 1.8-.4zM98.4 530.8c0 .7-.2 1.4-.5 2-.3.6-.8 1.1-1.4 1.4-.6.3-1.3.5-2 .5-.8 0-1.5-.2-2.1-.5s-1.1-.8-1.4-1.4-.5-1.3-.5-2v-6.3h2v6.2c0 .4.1.7.3 1.1.2.3.4.6.7.7.3.2.7.3 1.1.3.4 0 .7-.1 1.1-.3.3-.2.6-.4.7-.7.2-.3.3-.7.3-1.1v-6.2h1.9v6.3zM105 524.4c1 0 1.9.2 2.7.7.8.5 1.4 1.1 1.9 1.9.4.8.7 1.7.7 2.6s-.2 1.8-.7 2.6c-.4.8-1.1 1.4-1.8 1.9-.8.5-1.7.7-2.7.7-1 0-1.9-.2-2.7-.7s-1.4-1.1-1.8-1.9c-.4-.8-.7-1.7-.7-2.6s.2-1.8.7-2.6c.4-.8 1.1-1.4 1.8-1.9.8-.5 1.7-.7 2.6-.7zm0 8.4c.6 0 1.2-.1 1.7-.4.5-.3.9-.7 1.1-1.2.3-.5.4-1 .4-1.6 0-.6-.1-1.2-.4-1.6-.3-.5-.7-.9-1.1-1.2-.5-.3-1-.4-1.7-.4-.6 0-1.2.1-1.6.4-.5.3-.9.7-1.1 1.2s-.4 1-.4 1.6c0 .6.1 1.2.4 1.6s.7.9 1.1 1.2 1 .4 1.6.4zM113.7 526.4h-2.9v-1.9h7.8v1.9h-2.9v8.1h-2v-8.1zM119.8 524.5h7.8v1.9h-5.8v2.1h3.2v1.9h-3.2v2.2h5.8v1.9h-7.8v-10z"/></g></svg>