<svg baseProfile="tiny" xmlns="http://www.w3.org/2000/svg" viewBox="0 0 320 50" overflow="visible"><g fill="#FFF"><path d="M10.9 42.7c0 .4-.1.8-.3 1.1-.2.3-.4.6-.8.8s-.7.3-1.1.3c-.4 0-.8-.1-1.1-.3-.3-.2-.6-.5-.8-.8s-.2-.8-.2-1.2c0-.4.1-.8.3-1.2.2-.3.5-.6.8-.8s.7-.3 1.1-.3c.4 0 .8.1 1.1.3s.6.4.8.8l-.4.2c-.2-.3-.4-.5-.6-.6-.3-.2-.6-.2-.9-.2-.3 0-.6.1-.9.2-.3.2-.5.4-.6.6s-.2.6-.2.9c0 .3.1.7.2.9s.4.5.6.6.6.2.9.2c.3 0 .5-.1.8-.2s.4-.2.6-.4.3-.4.3-.6H8.6v-.4h2.3zM11.7 40.4h3.2v.4h-2.8v1.5h1.6v.4h-1.6v1.5h2.8v.4h-3.2v-4.2zM19.1 40.4v4.4h-.5l-2.4-3.6v3.6h-.5v-4.4h.5l2.4 3.6v-3.6h.5zM21.3 42.8v.4H20v-.4h1.3zM24.9 43.4c0 .3-.1.5-.2.7s-.3.4-.5.5c-.2.1-.5.2-.7.2-.3 0-.5-.1-.7-.2-.2-.1-.4-.3-.5-.5s-.2-.4-.2-.7h.5c0 .2 0 .3.1.5.1.1.2.3.3.3.1.1.3.1.5.1s.4 0 .5-.1c.1-.1.3-.2.3-.3.1-.1.1-.3.1-.5s0-.3-.1-.5-.2-.3-.3-.3c-.1-.1-.3-.1-.5-.1h-1.2l.3-2.1h2.2v.4H23l-.2 1.2h.7c.3 0 .5.1.7.2s.4.3.5.5.2.5.2.7zM28.7 43.4c0 .3-.1.5-.2.7s-.3.4-.5.5-.5.2-.7.2c-.3 0-.5-.1-.7-.2s-.4-.3-.5-.5-.2-.5-.2-.7c0-.2 0-.3.1-.5s.1-.3.2-.5l1.3-2h.5l-1.1 1.7h.4c.3 0 .5.1.7.2.2.1.4.3.5.5.1.1.2.3.2.6zm-.5 0c0-.2 0-.4-.1-.5s-.2-.3-.4-.3c-.2-.1-.3-.1-.5-.1s-.4 0-.5.1c-.2.1-.3.2-.4.3s-.1.3-.1.5 0 .4.1.5.2.3.4.3.3.1.5.1.4 0 .5-.1.3-.2.4-.3.1-.3.1-.5zM30.4 40.9l-1.2.7v-.5l1.2-.7h.5v4.4h-.5v-3.9zM35.2 42.9v.4h-.8v1.4h-.5v-1.4h-2V43l1.9-2.6h.5V43h.9zm-1.3 0V41l-1.4 1.9h1.4zM38.4 43.6c0 .2-.1.5-.2.6-.1.2-.3.3-.5.5-.2.1-.4.2-.7.2-.3 0-.5-.1-.7-.2s-.4-.3-.5-.5-.2-.4-.2-.6h.5c0 .2 0 .3.1.4l.3.3c.1.1.3.1.5.1s.3 0 .5-.1.2-.2.3-.3.1-.3.1-.4c0-.2 0-.3-.1-.4l-.3-.3c-.1-.1-.3-.1-.4-.1h-.4v-.4h.3c.2 0 .3 0 .4-.1l.3-.3c.1-.1.1-.2.1-.4s0-.3-.1-.4l-.3-.3c-.1-.1-.3-.1-.4-.1-.2 0-.3 0-.4.1l-.3.3c-.1.1-.1.2-.1.4h-.5c0-.2.1-.4.2-.6.1-.2.3-.3.4-.4.2-.1.4-.2.7-.2.2 0 .5.1.7.2.2.1.3.2.4.4s.2.4.2.6c0 .2 0 .4-.1.6s-.2.3-.4.4c.2.1.3.2.4.4s.2.3.2.6zM39.4 41.5c0-.2.1-.4.2-.6s.3-.3.5-.4.4-.2.7-.2.5.1.7.2.4.2.5.4.2.4.2.6v2.1c0 .2-.1.4-.2.6s-.3.3-.5.4-.4.2-.7.2-.5-.1-.7-.2-.4-.2-.5-.4-.2-.4-.2-.6v-1.1c-.1-.3-.1-.7 0-1zm.4 2.1c0 .2.1.3.1.4s.2.2.3.3.3.1.4.1.3 0 .4-.1l.3-.3c.1-.1.1-.3.1-.4v-.4-.6-.6-.4c0-.2-.1-.3-.1-.4s-.2-.2-.3-.3-.3-.1-.4-.1-.3 0-.4.1-.2.1-.2.2-.1.3-.1.4v1.6c0 .1-.1.4-.1.5zM43.1 41.5c0-.2.1-.4.2-.6s.3-.3.5-.4.4-.2.7-.2.5.1.7.2.4.2.5.4.2.4.2.6v2.1c0 .2-.1.4-.2.6s-.3.3-.5.4-.4.2-.7.2-.5-.1-.7-.2-.4-.2-.5-.4-.2-.4-.2-.6v-1.1-1zm.5 2.1c0 .2.1.3.1.4s.2.2.3.3.3.1.4.1.3 0 .4-.1l.3-.3c.1-.1.1-.3.1-.4v-.4-.6-.6-.4c0-.2-.1-.3-.1-.4s-.2-.2-.3-.3-.3-.1-.4-.1-.3 0-.4.1l-.3.3c-.1.1-.1.3-.1.4v2zM47.1 44.1c.1 0 .2 0 .2.1s.1.1.1.2 0 .2-.1.2c-.1.1-.1.1-.2.1s-.2 0-.2-.1c-.1-.1-.1-.1-.1-.2s0-.2.1-.2.1-.1.2-.1zM49.3 40.9l-1.2.7v-.5l1.2-.7h.5v4.4h-.5v-3.9z"/></g></svg>