<svg baseProfile="tiny" xmlns="http://www.w3.org/2000/svg" viewBox="0 0 320 50" overflow="visible"><g fill="#454547"><path d="M82.9 36.8h3.3v.7h-2.5v2H86v.6h-2.3v2.7h-.8v-6zM87.9 37.3c0 .3-.2.5-.5.5s-.5-.2-.5-.5.2-.5.5-.5.5.2.5.5zm-.9 5.5v-4.4h.8v4.4H87zM89.1 39.7v-1.2h.7v.7c.2-.4.7-.8 1.4-.8.6 0 1.5.4 1.5 1.9v2.6H92v-2.5c0-.7-.3-1.3-1-1.3-.5 0-.9.4-1.1.8 0 .1-.1.2-.1.4v2.6H89v-3.2zM95 37.3c0 .3-.2.5-.5.5s-.5-.2-.5-.5.2-.5.5-.5.5.2.5.5zm-.9 5.5v-4.4h.8v4.4h-.8zM96.1 42c.2.2.6.3 1 .3.6 0 .8-.3.8-.6 0-.4-.2-.6-.8-.8-.8-.3-1.2-.7-1.2-1.2 0-.7.6-1.3 1.5-1.3.4 0 .8.1 1.1.3l-.2.6c-.2-.1-.5-.3-.9-.3-.5 0-.7.3-.7.6 0 .4.3.5.8.7.8.3 1.1.7 1.1 1.3 0 .8-.6 1.3-1.6 1.3-.5 0-.9-.1-1.2-.3l.3-.6zM99.8 36.5h.8v2.7c.1-.2.3-.4.6-.6.2-.1.5-.2.8-.2.6 0 1.5.4 1.5 1.9v2.6h-.8v-2.5c0-.7-.3-1.3-1-1.3-.5 0-.9.4-1.1.8 0 .1-.1.2-.1.4v2.6h-.8v-6.4zM107 38.5l1 2.6.3.9.3-.9.9-2.6h.8l-1.2 3.1c-.6 1.5-1 2.3-1.5 2.7-.4.3-.8.5-1 .5l-.2-.7c.2-.1.5-.2.7-.4.2-.2.5-.5.7-.9 0-.1.1-.1.1-.2s0-.1-.1-.2l-1.6-4h.8zM114.8 40.6c0 1.6-1.1 2.3-2.2 2.3-1.2 0-2.1-.9-2.1-2.2 0-1.5 1-2.3 2.2-2.3 1.2 0 2.1.9 2.1 2.2zm-3.5.1c0 1 .5 1.7 1.3 1.7s1.3-.7 1.3-1.7c0-.7-.4-1.7-1.3-1.7s-1.3.9-1.3 1.7zM119.4 41.7v1.2h-.7v-.7c-.2.4-.7.8-1.4.8s-1.5-.4-1.5-1.9v-2.5h.8V41c0 .8.3 1.4 1 1.4.5 0 .9-.4 1-.7 0-.1.1-.3.1-.4v-2.7h.8v3.1zM120.7 39.9v-1.4h.7v.9c.2-.6.7-1 1.2-1h.2v.7h-.3c-.6 0-1 .4-1.1 1V42.8h-.8v-2.9zM125.6 39.7v-1.2h.7v.7c.2-.4.7-.8 1.4-.8.6 0 1.5.4 1.5 1.9v2.6h-.8v-2.5c0-.7-.3-1.3-1-1.3-.5 0-.9.4-1.1.8 0 .1-.1.2-.1.4v2.6h-.8v-3.2zM134.5 40.6c0 1.6-1.1 2.3-2.2 2.3-1.2 0-2.1-.9-2.1-2.2 0-1.5 1-2.3 2.2-2.3 1.3 0 2.1.9 2.1 2.2zm-3.4.1c0 1 .5 1.7 1.3 1.7s1.3-.7 1.3-1.7c0-.7-.4-1.7-1.3-1.7s-1.3.9-1.3 1.7zM137.5 40.1v.6h-2.2v-.6h2.2zM141.7 42.7c-.2.1-.7.3-1.3.3-1.3 0-2.2-.9-2.2-2.2 0-1.3.9-2.3 2.3-2.3.5 0 .9.1 1.1.2l-.2.6c-.2-.1-.5-.2-.9-.2-1 0-1.5.7-1.5 1.6 0 1 .6 1.6 1.5 1.6.5 0 .7-.1 1-.2l.2.6zM146.5 40.6c0 1.6-1.1 2.3-2.2 2.3-1.2 0-2.1-.9-2.1-2.2 0-1.5 1-2.3 2.2-2.3 1.3 0 2.1.9 2.1 2.2zm-3.5.1c0 1 .5 1.7 1.3 1.7s1.3-.7 1.3-1.7c0-.7-.4-1.7-1.3-1.7s-1.3.9-1.3 1.7zM147.4 42c.2.2.6.3 1 .3.6 0 .8-.3.8-.6 0-.4-.2-.6-.8-.8-.8-.3-1.2-.7-1.2-1.2 0-.7.6-1.3 1.5-1.3.4 0 .8.1 1.1.3l-.2.6c-.2-.1-.5-.3-.9-.3-.5 0-.7.3-.7.6 0 .4.3.5.8.7.8.3 1.1.7 1.1 1.3 0 .8-.6 1.3-1.6 1.3-.5 0-.9-.1-1.2-.3l.3-.6zM152 37.2v1.3h1.1v.6H152v2.3c0 .5.2.8.6.8.2 0 .4 0 .5-.1v.6c-.2.1-.4.1-.7.1-.4 0-.7-.1-.9-.3-.2-.2-.3-.6-.3-1.1V39h-.7v-.6h.7v-1l.8-.2zM158.9 42.2c-.3.4-.7.8-1.4.8-1 0-1.8-.9-1.8-2.2 0-1.6 1.1-2.3 2-2.3.7 0 1.1.3 1.3.8v-.7h.7V44.7h-.8v-2.5zm0-1.9V40c-.1-.5-.5-.9-1.1-.9-.8 0-1.3.7-1.3 1.7 0 .9.4 1.6 1.3 1.6.5 0 1-.3 1.1-.9 0-.1.1-.3.1-.4v-.8zM164.7 41.7v1.2h-.7v-.7c-.2.4-.7.8-1.4.8s-1.5-.4-1.5-1.9v-2.5h.8V41c0 .8.3 1.4 1 1.4.5 0 .9-.4 1-.7 0-.1.1-.3.1-.4v-2.7h.8v3.1zM169.9 40.6c0 1.6-1.1 2.3-2.2 2.3-1.2 0-2.1-.9-2.1-2.2 0-1.5 1-2.3 2.2-2.3 1.3 0 2.1.9 2.1 2.2zm-3.4.1c0 1 .5 1.7 1.3 1.7s1.3-.7 1.3-1.7c0-.7-.4-1.7-1.3-1.7s-1.3.9-1.3 1.7zM171.9 37.2v1.3h1.1v.6h-1.1v2.3c0 .5.2.8.6.8.2 0 .4 0 .5-.1v.6c-.2.1-.4.1-.7.1-.4 0-.7-.1-.9-.3-.2-.2-.3-.6-.3-1.1V39h-.7v-.6h.7v-1l.8-.2zM174.3 40.8c0 1.1.7 1.5 1.5 1.5.6 0 .9-.1 1.2-.2l.1.6c-.3.1-.8.3-1.5.3-1.3 0-2.1-.9-2.1-2.2s.8-2.3 2-2.3c1.4 0 1.8 1.3 1.8 2.1v.4h-3zm2.3-.6c0-.5-.2-1.3-1.1-1.3-.8 0-1.2.7-1.2 1.3h2.3zM178.1 42.4c0-.3.2-.6.5-.6s.5.2.5.6c0 .3-.2.6-.5.6-.3-.1-.5-.3-.5-.6z"/></g></svg>