<svg baseProfile="tiny" xmlns="http://www.w3.org/2000/svg" viewBox="0 0 320 50" overflow="visible"><g fill="#454547"><path d="M83.9 37.4h-1.8v-.7h4.5v.7h-1.9v5.4h-.8v-5.4zM86.8 39.8v-1.4h.7v.9c.2-.6.7-1 1.2-1h.2v.7h-.3c-.6 0-1 .4-1.1 1V42.7h-.8v-2.9zM93.4 41.6v1.2h-.7v-.7c-.2.4-.7.8-1.4.8s-1.5-.4-1.5-1.9v-2.5h.8v2.4c0 .8.3 1.4 1 1.4.5 0 .9-.4 1-.7 0-.1.1-.3.1-.4v-2.7h.8v3.1zM94.6 41.9c.4.2.9.4 1.4.4.8 0 1.3-.4 1.3-1s-.3-.9-1.1-1.2c-1-.4-1.6-.9-1.6-1.7 0-.9.8-1.6 2-1.6.6 0 1.1.1 1.3.3l-.2.6c-.2-.1-.6-.3-1.2-.3-.8 0-1.1.5-1.1.9 0 .6.4.8 1.2 1.2 1 .4 1.5.9 1.5 1.8S97.4 43 96 43c-.6 0-1.2-.2-1.5-.4l.1-.7zM100.1 37.2v1.3h1.1v.6h-1.1v2.3c0 .5.2.8.6.8.2 0 .4 0 .5-.1v.6c-.2.1-.4.1-.7.1-.4 0-.7-.1-.9-.3-.2-.2-.3-.6-.3-1.1V39h-.7v-.6h.7v-1l.8-.2zM104.5 42.8l-.1-.5c-.2.3-.7.6-1.3.6-.9 0-1.3-.6-1.3-1.3 0-1.1.9-1.6 2.6-1.6 0-.4-.1-1-1-1-.4 0-.8.1-1.1.3l-.2-.5c.4-.2.9-.4 1.4-.4 1.3 0 1.7.9 1.7 1.8v1.6c0 .4 0 .7.1 1h-.8zm-.1-2.2c-.9 0-1.8.1-1.8 1 0 .5.3.8.7.8.6 0 .9-.4 1.1-.7v-1.1zM110.2 38.5v3.7c0 1-.2 1.6-.6 2-.4.4-1 .5-1.6.5-.5 0-1.1-.1-1.4-.4l.2-.6c.3.2.7.3 1.3.3.8 0 1.4-.4 1.4-1.5V42c-.2.4-.7.7-1.4.7-1.1 0-1.9-.9-1.9-2.1 0-1.5 1-2.3 2-2.3.8 0 1.2.4 1.4.8v-.7h.6zm-.8 1.7v-.4c-.1-.5-.5-.8-1.1-.8-.8 0-1.3.6-1.3 1.6 0 .9.4 1.6 1.3 1.6.5 0 .9-.3 1.1-.8 0-.1.1-.3.1-.4v-.8zM111.9 40.8c0 1.1.7 1.5 1.5 1.5.6 0 .9-.1 1.2-.2l.1.6c-.3.1-.8.3-1.4.3-1.3 0-2.1-.9-2.1-2.2s.8-2.3 2-2.3c1.4 0 1.8 1.3 1.8 2.1v.4h-3.1zm2.3-.6c0-.5-.2-1.3-1.1-1.3-.8 0-1.2.7-1.2 1.3h2.3zM117.6 36.8v.4h-.8v2h-.5v-2h-.8v-.4h2.1zm2.7 2.4l-.1-1.4v-.7c-.1.2-.1.5-.2.7l-.4 1.4h-.6l-.4-1.4c0-.2-.1-.5-.2-.7v.7l-.1 1.4h-.5l.2-2.4h.7l.4 1.2c.1.2.1.4.2.6.1-.2.1-.4.2-.6l.4-1.2h.7l.2 2.4h-.5zM126.6 42.7c-.2.1-.7.3-1.3.3-1.3 0-2.2-.9-2.2-2.2 0-1.3.9-2.3 2.3-2.3.5 0 .9.1 1.1.2l-.2.6c-.2-.1-.5-.2-.9-.2-1 0-1.5.7-1.5 1.6 0 1 .6 1.6 1.5 1.6.5 0 .7-.1 1-.2l.2.6zM131.4 40.6c0 1.6-1.1 2.3-2.2 2.3-1.2 0-2.1-.9-2.1-2.2 0-1.5 1-2.3 2.2-2.3 1.2 0 2.1.9 2.1 2.2zm-3.5.1c0 1 .5 1.7 1.3 1.7s1.3-.7 1.3-1.7c0-.7-.4-1.7-1.3-1.7s-1.3.8-1.3 1.7zM136 41.6v1.2h-.7v-.7c-.2.4-.7.8-1.4.8s-1.5-.4-1.5-1.9v-2.5h.8v2.4c0 .8.3 1.4 1 1.4.5 0 .9-.4 1-.7 0-.1.1-.3.1-.4v-2.7h.8v3.1zM137.3 36.4h.8v6.4h-.8v-6.4zM143.2 36.4v6.4h-.7V42c-.2.5-.8.9-1.5.9-1.1 0-1.9-.9-1.9-2.2 0-1.5.9-2.3 2-2.3.7 0 1.1.3 1.3.7v-2.6h.8zm-.8 3.9V40c-.1-.5-.5-.9-1.1-.9-.8 0-1.3.7-1.3 1.7 0 .9.4 1.6 1.3 1.6.5 0 1-.4 1.2-.9v-1.2zM146.4 36.4h.8v2.7c.1-.2.3-.4.6-.6.2-.1.5-.2.8-.2.6 0 1.5.4 1.5 1.9v2.6h-.8v-2.5c0-.7-.3-1.3-1-1.3-.5 0-.9.4-1.1.8 0 .1-.1.2-.1.4v2.6h-.8v-6.4zM151.9 40.8c0 1.1.7 1.5 1.5 1.5.6 0 .9-.1 1.2-.2l.1.6c-.3.1-.8.3-1.4.3-1.3 0-2.1-.9-2.1-2.2s.8-2.3 2-2.3c1.4 0 1.8 1.3 1.8 2.1v.4h-3.1zm2.3-.6c0-.5-.2-1.3-1.1-1.3-.8 0-1.2.7-1.2 1.3h2.3zM156 36.4h.8v6.4h-.8v-6.4zM158.1 39.9v-1.4h.7v.7c.3-.5.8-.8 1.5-.8 1.1 0 1.8.9 1.8 2.2 0 1.6-1 2.3-2 2.3-.6 0-1.1-.3-1.3-.7v2.4h-.8v-4.7zm.8 1.2v.3c.1.5.6.9 1.2.9.8 0 1.3-.7 1.3-1.7 0-.9-.5-1.6-1.3-1.6-.5 0-1 .4-1.2 1 0 .1-.1.2-.1.3v.8zM165.1 39.7v-1.2h.7v.7c.2-.4.6-.8 1.4-.8.6 0 1 .4 1.2.9.1-.2.3-.4.5-.6.3-.2.5-.3 1-.3.6 0 1.4.4 1.4 1.9v2.6h-.8v-2.5c0-.8-.3-1.3-.9-1.3-.5 0-.8.3-.9.7 0 .1-.1.3-.1.4v2.7h-.8v-2.6c0-.7-.3-1.2-.9-1.2-.5 0-.9.4-1 .8 0 .1-.1.3-.1.4v2.6h-.8v-3.2zM175 42.8l-.1-.5c-.2.3-.7.6-1.3.6-.9 0-1.3-.6-1.3-1.3 0-1.1.9-1.6 2.6-1.6 0-.4-.1-1-1-1-.4 0-.8.1-1.1.3l-.2-.5c.4-.2.9-.4 1.4-.4 1.3 0 1.7.9 1.7 1.8v1.6c0 .4 0 .7.1 1h-.8zm-.1-2.2c-.9 0-1.8.1-1.8 1 0 .5.3.8.7.8.6 0 .9-.4 1.1-.7v-1.1zM177.7 40.5c.1-.2.3-.3.4-.5l1.3-1.5h1l-1.7 1.8 1.9 2.6h-1l-1.5-2.1-.4.5v1.6h-.7v-6.4h.8v4zM181.6 40.8c0 1.1.7 1.5 1.5 1.5.6 0 .9-.1 1.2-.2l.1.6c-.3.1-.8.3-1.5.3-1.3 0-2.1-.9-2.1-2.2s.8-2.3 2-2.3c1.4 0 1.8 1.3 1.8 2.1v.4h-3zm2.3-.6c0-.5-.2-1.3-1.1-1.3-.8 0-1.2.7-1.2 1.3h2.3zM188.5 37.3c0 .3-.2.5-.5.5s-.5-.2-.5-.5.2-.5.5-.5.5.2.5.5zm-.9 5.5v-4.4h.8v4.4h-.8zM190.6 37.2v1.3h1.1v.6h-1.1v2.3c0 .5.2.8.6.8.2 0 .4 0 .5-.1v.6c-.2.1-.4.1-.7.1-.4 0-.7-.1-.9-.3-.2-.2-.3-.6-.3-1.1V39h-.7v-.6h.7v-1l.8-.2zM194.5 42c.2.2.6.3 1 .3.6 0 .8-.3.8-.6 0-.4-.2-.6-.8-.8-.8-.3-1.2-.7-1.2-1.2 0-.7.6-1.3 1.5-1.3.4 0 .8.1 1.1.3l-.2.6c-.2-.1-.5-.3-.9-.3-.5 0-.7.3-.7.6 0 .4.3.5.8.7.8.3 1.1.7 1.1 1.3 0 .8-.6 1.3-1.6 1.3-.5 0-.9-.1-1.2-.3l.3-.6zM199 37.3c0 .3-.2.5-.5.5s-.5-.2-.5-.5.2-.5.5-.5.5.2.5.5zm-.9 5.5v-4.4h.8v4.4h-.8zM200.2 39.7v-1.2h.7v.7c.2-.4.6-.8 1.4-.8.6 0 1 .4 1.2.9.1-.2.3-.4.5-.6.3-.2.5-.3 1-.3.6 0 1.4.4 1.4 1.9v2.6h-.8v-2.5c0-.8-.3-1.3-.9-1.3-.5 0-.8.3-.9.7 0 .1-.1.3-.1.4v2.7h-.7v-2.6c0-.7-.3-1.2-.9-1.2-.5 0-.9.4-1 .8 0 .1-.1.3-.1.4v2.6h-.8v-3.2zM207.8 39.9v-1.4h.7v.7c.3-.5.8-.8 1.5-.8 1.1 0 1.8.9 1.8 2.2 0 1.6-1 2.3-2 2.3-.6 0-1.1-.3-1.3-.7v2.4h-.8v-4.7zm.7 1.2v.3c.1.5.6.9 1.2.9.8 0 1.3-.7 1.3-1.7 0-.9-.5-1.6-1.3-1.6-.5 0-1 .4-1.2 1 0 .1-.1.2-.1.3v.8zM212.9 36.4h.8v6.4h-.8v-6.4zM215.4 40.8c0 1.1.7 1.5 1.5 1.5.6 0 .9-.1 1.2-.2l.1.6c-.3.1-.8.3-1.5.3-1.3 0-2.1-.9-2.1-2.2s.8-2.3 2-2.3c1.4 0 1.8 1.3 1.8 2.1v.4h-3zm2.4-.6c0-.5-.2-1.3-1.1-1.3-.8 0-1.2.7-1.2 1.3h2.3zM219.2 42.4c0-.3.2-.6.5-.6s.5.2.5.6c0 .3-.2.6-.5.6-.3-.1-.5-.3-.5-.6z"/></g></svg>