<svg baseProfile="tiny" xmlns="http://www.w3.org/2000/svg" viewBox="0 0 320 50" overflow="visible"><g fill="#193062"><path d="M87.7 13.7h-3.1l-.4 1.2h-1.8L85.2 6h1.9l2.8 8.8H88l-.3-1.1zm-.6-1.8l-1-3-1 3h2zM97.1 11.8c0 1.8-1.2 3.1-3 3.1-.6 0-1.1-.2-1.5-.5v2.9h-1.8V8.8h1.7v.3c.4-.3.9-.5 1.5-.5 1.9 0 3.1 1.4 3.1 3.2zm-1.7 0c0-.8-.6-1.4-1.4-1.4-.8 0-1.4.6-1.4 1.4 0 .8.6 1.4 1.4 1.4.8 0 1.4-.6 1.4-1.4zM104.6 11.8c0 1.8-1.2 3.1-3 3.1-.6 0-1.1-.2-1.5-.5v2.9h-1.8V8.8h1.7v.3c.4-.3.9-.5 1.5-.5 1.9 0 3.1 1.4 3.1 3.2zm-1.8 0c0-.8-.6-1.4-1.4-1.4-.8 0-1.4.6-1.4 1.4 0 .8.6 1.4 1.4 1.4.9 0 1.4-.6 1.4-1.4zM105.8 5.7h1.8v9.1h-1.8V5.7zM114.5 8.8l-3.1 8.6h-1.9l1-2.7-2.1-5.9h1.9l1.2 3.3 1.2-3.3h1.8zM116.3 5.8c.6 0 1.1.5 1.1 1.1 0 .6-.5 1.1-1.1 1.1s-1.1-.5-1.1-1.1c0-.6.4-1.1 1.1-1.1zm.9 9h-1.8v-6h1.8v6zM124.3 11v3.8h-1.8v-3.4c0-.6-.4-1-1-1s-1 .5-1 1v3.4h-1.8v-6h1.7v.3c.4-.3.9-.5 1.5-.5 1.4 0 2.4 1 2.4 2.4zM131.5 8.8v5.9c0 1.6-1.2 2.9-3 2.9-1.4 0-2.4-.8-2.8-1.9l1.6-.6c.2.5.6.8 1.2.8.7 0 1.2-.5 1.2-1.2v-.4c-.4.3-.9.4-1.4.4-1.6 0-2.8-1.3-2.8-3s1.2-3 2.8-3c.6 0 1.1.2 1.5.5v-.4h1.7zm-1.7 2.8c0-.7-.6-1.3-1.3-1.3-.7 0-1.3.6-1.3 1.3 0 .7.6 1.2 1.3 1.2.8.1 1.3-.5 1.3-1.2zM137.2 10.4H136V8.8h1.2V7.5c0-1.2.8-1.9 1.9-1.9h1.4v1.7h-1c-.3 0-.5.2-.5.5v.9h1.5v1.7H139v4.4h-1.8v-4.4zM144.2 8.6c1.8 0 3.2 1.4 3.2 3.2 0 1.7-1.3 3.1-3.2 3.1-1.8 0-3.2-1.4-3.2-3.1 0-1.8 1.3-3.2 3.2-3.2zm0 4.6c.8 0 1.4-.6 1.4-1.4 0-.8-.6-1.4-1.4-1.4s-1.4.6-1.4 1.4c0 .8.6 1.4 1.4 1.4zM152.3 8.8v1.8h-.9c-.7 0-1.2.5-1.2 1.2v3.1h-1.8v-6h1.7v.5c.3-.4.9-.5 1.4-.5h.8zM156.9 6h1.9v7h5v1.8h-6.9V6zM165.8 5.8c.6 0 1.1.5 1.1 1.1 0 .6-.5 1.1-1.1 1.1s-1.1-.5-1.1-1.1c0-.6.5-1.1 1.1-1.1zm.9 9H165v-6h1.8v6zM168.9 10.4h-1.2V8.8h1.2V7.5c0-1.2.8-1.9 1.9-1.9h1.4v1.7h-1c-.3 0-.5.2-.5.5v.9h1.5v1.7h-1.5v4.4h-1.8v-4.4zM178.7 12.4h-4.2c.2.5.7.9 1.4.9.6 0 1-.3 1.3-.7l1.4.9c-.5.9-1.5 1.5-2.7 1.5-1.8 0-3.1-1.4-3.1-3.1 0-1.8 1.3-3.2 3-3.2 1.8 0 3 1.3 3 3.1 0 .2 0 .4-.1.6zm-4.2-1.3h2.6c-.2-.6-.6-.9-1.3-.9-.7 0-1.2.4-1.3.9zM183.6 6h1.9v8.8h-1.9V6zM192.7 11v3.8H191v-3.4c0-.6-.4-1-1-1s-1 .5-1 1v3.4h-1.8v-6h1.7v.3c.4-.3.9-.5 1.5-.5 1.3 0 2.3 1 2.3 2.4zM196.4 13.3c.5 0 .8-.2.8-.4s-.2-.3-.5-.3-.6 0-1.1-.1c-1.2-.2-1.7-.9-1.7-1.8 0-1.2 1-2.1 2.4-2.1s2.4.8 2.4 2H197c0-.3-.3-.4-.7-.4-.4 0-.7.2-.7.4s.1.3.4.3c.4 0 .6 0 1.1.1 1.2.1 1.7.9 1.7 1.8 0 1.2-1 2.1-2.5 2.1s-2.5-.9-2.5-2.1h1.7c.1.3.4.5.9.5zM205.6 8.8v6h-1.7v-.3c-.4.3-.9.5-1.5.5-1.4 0-2.4-1-2.4-2.4V8.8h1.8v3.4c0 .6.4 1 1 1s1-.5 1-1V8.8h1.8zM211.1 8.8v1.8h-.9c-.7 0-1.2.5-1.2 1.2v3.1h-1.8v-6h1.7v.5c.3-.4.9-.5 1.4-.5h.8zM216.9 11v3.8h-1.7v-.3c-.4.3-.8.5-1.5.5-1.2 0-2.1-.8-2.1-1.9 0-1.2.9-1.8 2.1-1.9l1.5-.1V11c0-.4-.4-.7-.9-.7-.4 0-.8.2-.9.6h-1.7c.1-1.3 1.1-2.2 2.6-2.2 1.5-.1 2.6.9 2.6 2.3zm-1.7 1.7v-.4l-1.2.1c-.4 0-.6.3-.6.5 0 .3.3.6.8.6.6 0 1-.3 1-.8zM224 11v3.8h-1.8v-3.4c0-.6-.4-1-1-1s-1 .5-1 1v3.4h-1.8v-6h1.7v.3c.4-.3.9-.5 1.5-.5 1.4 0 2.4 1 2.4 2.4zM228.3 8.6c1.2 0 2.1.6 2.6 1.4l-1.4 1c-.3-.4-.7-.7-1.2-.7-.8 0-1.4.6-1.4 1.4 0 .8.6 1.4 1.4 1.4.5 0 .9-.3 1.2-.7l1.4 1c-.5.9-1.5 1.4-2.6 1.4-1.8 0-3.1-1.4-3.1-3.2 0-1.6 1.3-3 3.1-3zM237.5 12.4h-4.2c.2.5.7.9 1.4.9.6 0 1-.3 1.3-.7l1.4.9c-.5.9-1.5 1.5-2.7 1.5-1.8 0-3.1-1.4-3.1-3.1 0-1.8 1.3-3.2 3-3.2 1.8 0 3 1.3 3 3.1-.1.2-.1.4-.1.6zm-4.3-1.3h2.6c-.2-.6-.6-.9-1.3-.9-.6 0-1.1.4-1.3.9zM248.1 5.7v9.1h-1.7v-.4c-.4.3-.9.5-1.5.5-1.8 0-3-1.4-3-3.1 0-1.8 1.2-3.2 3-3.2.6 0 1.1.2 1.5.5V5.7h1.7zm-1.8 6.1c0-.8-.6-1.4-1.4-1.4-.8 0-1.4.6-1.4 1.4 0 .8.6 1.4 1.4 1.4.9 0 1.4-.6 1.4-1.4zM252.4 8.6c1.8 0 3.2 1.4 3.2 3.2 0 1.7-1.3 3.1-3.2 3.1s-3.2-1.4-3.2-3.1c0-1.8 1.4-3.2 3.2-3.2zm0 4.6c.8 0 1.4-.6 1.4-1.4 0-.8-.6-1.4-1.4-1.4s-1.4.6-1.4 1.4c0 .8.6 1.4 1.4 1.4zM262.3 12.4h-4.2c.2.5.7.9 1.4.9.6 0 1-.3 1.3-.7l1.4.9c-.5.9-1.5 1.5-2.7 1.5-1.8 0-3.1-1.4-3.1-3.1 0-1.8 1.3-3.2 3-3.2 1.8 0 3 1.3 3 3.1 0 .2 0 .4-.1.6zm-4.2-1.3h2.6c-.2-.6-.6-.9-1.3-.9-.7 0-1.2.4-1.3.9zM265.7 13.3c.5 0 .8-.2.8-.4s-.2-.3-.5-.3-.6 0-1.1-.1c-1.2-.2-1.7-.9-1.7-1.8 0-1.2 1-2.1 2.4-2.1s2.4.8 2.4 2h-1.7c0-.3-.3-.4-.7-.4-.4 0-.7.2-.7.4s.1.3.4.3c.4 0 .6 0 1.1.1 1.2.1 1.7.9 1.7 1.8 0 1.2-1 2.1-2.5 2.1s-2.5-.9-2.5-2.1h1.7c.1.3.4.5.9.5zM275 11v3.8h-1.8v-3.4c0-.6-.4-1-1-1s-1 .5-1 1v3.4h-1.8v-6h1.7v.3c.4-.3.9-.5 1.5-.5 1.4 0 2.4 1 2.4 2.4zM277.9 7c0 .1 0 .3-.1.4l-.7 2h-1l.3-1.4c-.4-.1-.7-.5-.7-1 0-.6.4-1.1 1.1-1.1s1.1.5 1.1 1.1zM281.3 8.8h1.9v1.7h-1.9v2c0 .4.3.6.7.6h1.2v1.7h-1.6c-1.2 0-2.1-.8-2.1-2v-2.3h-.9v-1l1.7-2.1h1v1.4z"/></g><g fill="#193062"><path d="M88.6 26v3.8h-1.8v-3.4c0-.6-.4-1-1-1s-1 .5-1 1v3.4H83v-9.1h1.8v3.4c.4-.3.9-.5 1.5-.5 1.3 0 2.3 1 2.3 2.4zM95.1 26v3.8h-1.7v-.3c-.4.3-.8.5-1.5.5-1.2 0-2.1-.8-2.1-1.9 0-1.2.9-1.8 2.1-1.9l1.5-.1V26c0-.4-.4-.7-.9-.7-.4 0-.8.2-.9.6H90c.1-1.3 1.1-2.2 2.6-2.2 1.5-.1 2.5.9 2.5 2.3zm-1.7 1.7v-.4l-1.2.1c-.4 0-.6.3-.6.5 0 .3.3.6.8.6.6 0 1-.3 1-.8zM101.9 23.8l-2.2 6h-1.8l-2.2-6h1.9l1.2 3.3 1.2-3.3h1.9zM108.2 27.4H104c.2.5.7.9 1.4.9.6 0 1-.3 1.3-.7l1.4.9c-.5.9-1.5 1.5-2.7 1.5-1.8 0-3.1-1.4-3.1-3.1 0-1.8 1.3-3.2 3-3.2 1.8 0 3 1.3 3 3.1 0 .2-.1.4-.1.6zm-4.3-1.3h2.6c-.2-.6-.6-.9-1.3-.9-.6 0-1.1.4-1.3.9zM114.9 23.8h1.9v1.7h-1.9v2c0 .4.3.6.7.6h1.2v1.7h-1.6c-1.2 0-2.1-.8-2.1-2v-2.3h-.9v-.9l1.7-2.1h1v1.3zM120.7 23.6c1.8 0 3.2 1.4 3.2 3.2 0 1.7-1.3 3.1-3.2 3.1-1.8 0-3.2-1.4-3.2-3.1 0-1.8 1.4-3.2 3.2-3.2zm0 4.6c.8 0 1.4-.6 1.4-1.4 0-.8-.6-1.4-1.4-1.4s-1.4.6-1.4 1.4c0 .8.6 1.4 1.4 1.4zM134.8 26.8c0 1.8-1.2 3.1-3 3.1-.6 0-1.1-.2-1.5-.5v.4h-1.7v-9.1h1.8v3.4c.4-.3.9-.5 1.5-.5 1.6 0 2.9 1.4 2.9 3.2zm-1.8 0c0-.8-.6-1.4-1.4-1.4-.8 0-1.4.6-1.4 1.4 0 .8.6 1.4 1.4 1.4.8 0 1.4-.6 1.4-1.4zM141.6 27.4h-4.2c.2.5.7.9 1.4.9.6 0 1-.3 1.3-.7l1.4.9c-.5.9-1.5 1.5-2.7 1.5-1.8 0-3.1-1.4-3.1-3.1 0-1.8 1.3-3.2 3-3.2 1.8 0 3 1.3 3 3.1-.1.2-.1.4-.1.6zm-4.3-1.3h2.6c-.2-.6-.6-.9-1.3-.9-.6 0-1.1.4-1.3.9zM149 23.6c1.2 0 2.1.6 2.6 1.4l-1.4 1c-.3-.4-.7-.7-1.2-.7-.8 0-1.4.6-1.4 1.4 0 .8.6 1.4 1.4 1.4.5 0 .9-.3 1.2-.7l1.4 1c-.5.9-1.5 1.4-2.6 1.4-1.8 0-3.1-1.4-3.1-3.2 0-1.6 1.3-3 3.1-3zM155.3 23.6c1.8 0 3.2 1.4 3.2 3.2 0 1.7-1.3 3.1-3.2 3.1-1.8 0-3.2-1.4-3.2-3.1.1-1.8 1.4-3.2 3.2-3.2zm0 4.6c.8 0 1.4-.6 1.4-1.4 0-.8-.6-1.4-1.4-1.4s-1.4.6-1.4 1.4c0 .8.6 1.4 1.4 1.4zM168.5 25.9v3.9h-1.8v-3.6c0-.5-.3-.9-.9-.9-.5 0-.9.4-.9.9v3.6h-1.8v-3.6c0-.5-.3-.9-.9-.9-.5 0-.9.4-.9.9v3.6h-1.8v-6h1.7v.2c.4-.3.8-.4 1.4-.4.6 0 1.2.2 1.6.6.4-.4 1-.6 1.7-.6 1.5 0 2.6 1 2.6 2.3zM176.3 26.8c0 1.8-1.2 3.1-3 3.1-.6 0-1.1-.2-1.5-.5v2.9H170v-8.6h1.7v.3c.4-.3.9-.5 1.5-.5 1.9.1 3.1 1.5 3.1 3.3zm-1.8 0c0-.8-.6-1.4-1.4-1.4-.8 0-1.4.6-1.4 1.4 0 .8.6 1.4 1.4 1.4.8 0 1.4-.6 1.4-1.4zM177.5 20.7h1.8v9.1h-1.8v-9.1zM181.7 20.8c.6 0 1.1.5 1.1 1.1 0 .6-.5 1.1-1.1 1.1s-1.1-.5-1.1-1.1c0-.6.5-1.1 1.1-1.1zm.9 9h-1.8v-6h1.8v6zM186.9 23.6c1.2 0 2.1.6 2.6 1.4l-1.4 1c-.3-.4-.7-.7-1.2-.7-.8 0-1.4.6-1.4 1.4 0 .8.6 1.4 1.4 1.4.5 0 .9-.3 1.2-.7l1.4 1c-.5.9-1.5 1.4-2.6 1.4-1.8 0-3.1-1.4-3.1-3.2 0-1.6 1.3-3 3.1-3zM195.5 26v3.8h-1.7v-.3c-.4.3-.8.5-1.5.5-1.2 0-2.1-.8-2.1-1.9 0-1.2.9-1.8 2.1-1.9l1.5-.1V26c0-.4-.4-.7-.9-.7-.4 0-.8.2-.9.6h-1.7c.1-1.3 1.1-2.2 2.6-2.2 1.5-.1 2.6.9 2.6 2.3zm-1.8 1.7v-.4l-1.2.1c-.4 0-.6.3-.6.5 0 .3.3.6.8.6.7 0 1-.3 1-.8zM199 23.8h1.9v1.7H199v2c0 .4.3.6.7.6h1.2v1.7h-1.6c-1.2 0-2.1-.8-2.1-2v-2.3h-.9v-.9l1.7-2.1h1v1.3zM207.6 27.4h-4.2c.2.5.7.9 1.4.9.6 0 1-.3 1.3-.7l1.4.9c-.5.9-1.5 1.5-2.7 1.5-1.8 0-3.1-1.4-3.1-3.1 0-1.8 1.3-3.2 3-3.2 1.8 0 3 1.3 3 3.1 0 .2 0 .4-.1.6zm-4.2-1.3h2.6c-.2-.6-.6-.9-1.3-.9-.7 0-1.2.4-1.3.9zM214.7 20.7v9.1H213v-.4c-.4.3-.9.5-1.5.5-1.8 0-3-1.4-3-3.1 0-1.8 1.2-3.2 3-3.2.6 0 1.1.2 1.5.5v-3.4h1.7zm-1.7 6.1c0-.8-.6-1.4-1.4-1.4-.8 0-1.4.6-1.4 1.4 0 .8.6 1.4 1.4 1.4.9 0 1.4-.6 1.4-1.4zM217.3 27.7c.6 0 1.1.5 1.1 1.1 0 .6-.5 1.1-1.1 1.1s-1.1-.5-1.1-1.1c0-.7.5-1.1 1.1-1.1z"/></g></svg>