<?xml version="1.0" encoding="utf-8"?>
<!-- Generator: Adobe Illustrator 27.4.0, SVG Export Plug-In . SVG Version: 6.00 Build 0)  -->
<svg version="1.1" baseProfile="tiny" id="Layer_1" xmlns="http://www.w3.org/2000/svg" xmlns:xlink="http://www.w3.org/1999/xlink"
	 x="0px" y="0px" viewBox="0 0 160 600" overflow="visible" xml:space="preserve">
<rect x="18.7" y="512.2" fill="#FAE07E" width="122.8" height="34.7"/>
<g>
	<path fill="#193062" d="M42.8,529.3v0.3c0,1-0.2,1.8-0.6,2.6c-0.4,0.8-1,1.4-1.7,1.8c-0.8,0.4-1.6,0.7-2.6,0.7
		c-1,0-1.9-0.2-2.6-0.7c-0.8-0.4-1.4-1.1-1.8-1.8c-0.4-0.8-0.6-1.7-0.6-2.7c0-1,0.2-1.8,0.7-2.6c0.4-0.8,1.1-1.4,1.8-1.9
		c0.8-0.5,1.7-0.7,2.7-0.7c0.6,0,1.3,0.1,1.8,0.3c0.6,0.2,1.1,0.5,1.5,0.9c0.4,0.4,0.8,0.8,1.1,1.3l-1.7,1c-0.3-0.5-0.6-0.9-1.1-1.2
		c-0.5-0.3-1-0.4-1.7-0.4c-0.6,0-1.2,0.1-1.6,0.4c-0.5,0.3-0.9,0.7-1.1,1.2c-0.3,0.5-0.4,1-0.4,1.6c0,0.6,0.1,1.2,0.4,1.7
		c0.3,0.5,0.6,0.9,1.1,1.2c0.5,0.3,1,0.4,1.7,0.4c0.7,0,1.2-0.1,1.7-0.4c0.5-0.3,0.8-0.7,1.1-1.2h-3.4v-1.8H42.8z"/>
	<path fill="#193062" d="M44.4,524.5h7.8v1.9h-5.8v2.1h3.2v1.9h-3.2v2.2h5.8v1.9h-7.8V524.5z"/>
	<path fill="#193062" d="M56.1,526.4h-2.9v-1.9H61v1.9h-2.9v8.1h-2V526.4z"/>
	<path fill="#193062" d="M71.4,533.1h-3.7l-0.5,1.4h-1.9l3.3-10h2l3.3,10h-2L71.4,533.1z M70.7,531.2l-1.2-3.8l-1.2,3.8H70.7z"/>
	<path fill="#193062" d="M89,532.7v1.8h-0.9l-1.3-1c-0.4,0.4-1,0.6-1.5,0.8c-0.6,0.2-1.2,0.3-1.8,0.3c-1,0-1.9-0.2-2.7-0.7
		s-1.4-1.1-1.8-1.9c-0.4-0.8-0.7-1.7-0.7-2.6s0.2-1.8,0.7-2.6c0.4-0.8,1.1-1.4,1.8-1.9c0.8-0.5,1.7-0.7,2.7-0.7s1.9,0.2,2.7,0.7
		c0.8,0.5,1.4,1.1,1.9,1.9c0.4,0.8,0.7,1.7,0.7,2.6c0,0.9-0.2,1.7-0.6,2.5L89,532.7z M85.2,532.3l-1-0.7l1.2-1.6l1,0.8
		c0.2-0.4,0.2-0.8,0.2-1.3c0-0.6-0.1-1.2-0.4-1.6s-0.7-0.9-1.1-1.2c-0.5-0.3-1-0.4-1.7-0.4c-0.6,0-1.2,0.1-1.6,0.4
		c-0.5,0.3-0.9,0.7-1.1,1.2c-0.3,0.5-0.4,1-0.4,1.6c0,0.6,0.1,1.2,0.4,1.6c0.3,0.5,0.7,0.9,1.1,1.2c0.5,0.3,1,0.4,1.6,0.4
		C84.1,532.8,84.7,532.6,85.2,532.3z"/>
	<path fill="#193062" d="M98.4,530.8c0,0.7-0.2,1.4-0.5,2c-0.3,0.6-0.8,1.1-1.4,1.4c-0.6,0.3-1.3,0.5-2,0.5c-0.8,0-1.5-0.2-2.1-0.5
		s-1.1-0.8-1.4-1.4s-0.5-1.3-0.5-2v-6.3h2v6.2c0,0.4,0.1,0.7,0.3,1.1c0.2,0.3,0.4,0.6,0.7,0.7c0.3,0.2,0.7,0.3,1.1,0.3
		c0.4,0,0.7-0.1,1.1-0.3c0.3-0.2,0.6-0.4,0.7-0.7c0.2-0.3,0.3-0.7,0.3-1.1v-6.2h1.9V530.8z"/>
	<path fill="#193062" d="M105,524.4c1,0,1.9,0.2,2.7,0.7c0.8,0.5,1.4,1.1,1.9,1.9c0.4,0.8,0.7,1.7,0.7,2.6s-0.2,1.8-0.7,2.6
		c-0.4,0.8-1.1,1.4-1.8,1.9c-0.8,0.5-1.7,0.7-2.7,0.7c-1,0-1.9-0.2-2.7-0.7s-1.4-1.1-1.8-1.9c-0.4-0.8-0.7-1.7-0.7-2.6
		s0.2-1.8,0.7-2.6c0.4-0.8,1.1-1.4,1.8-1.9C103.2,524.6,104.1,524.4,105,524.4z M105,532.8c0.6,0,1.2-0.1,1.7-0.4
		c0.5-0.3,0.9-0.7,1.1-1.2c0.3-0.5,0.4-1,0.4-1.6c0-0.6-0.1-1.2-0.4-1.6c-0.3-0.5-0.7-0.9-1.1-1.2c-0.5-0.3-1-0.4-1.7-0.4
		c-0.6,0-1.2,0.1-1.6,0.4c-0.5,0.3-0.9,0.7-1.1,1.2s-0.4,1-0.4,1.6c0,0.6,0.1,1.2,0.4,1.6s0.7,0.9,1.1,1.2S104.4,532.8,105,532.8z"
		/>
	<path fill="#193062" d="M113.7,526.4h-2.9v-1.9h7.8v1.9h-2.9v8.1h-2V526.4z"/>
	<path fill="#193062" d="M119.8,524.5h7.8v1.9h-5.8v2.1h3.2v1.9h-3.2v2.2h5.8v1.9h-7.8V524.5z"/>
</g>
</svg>
