<svg baseProfile="tiny" xmlns="http://www.w3.org/2000/svg" viewBox="0 0 320 50" overflow="visible"><path fill="#FAE07E" d="M256.8 24.5h57.8v16.3h-57.8z"/><g fill="#193062"><path d="M267.7 32.6v.2c0 .5-.1.9-.3 1.2-.2.4-.5.6-.8.8-.4.2-.8.3-1.2.3-.5 0-.9-.1-1.2-.3-.4-.2-.6-.5-.8-.9-.2-.4-.3-.8-.3-1.3s.1-.9.3-1.2c.2-.4.5-.7.9-.9.4-.2.8-.3 1.3-.3.3 0 .6 0 .9.1s.5.2.7.4c.2.2.4.4.5.6l-.8.5c-.1-.2-.3-.4-.5-.6-.2-.1-.5-.2-.8-.2-.3 0-.5.1-.8.2s-.4.3-.5.5c-.1.2-.2.5-.2.8 0 .3.1.6.2.8.1.2.3.4.5.5.2.1.5.2.8.2.3 0 .6-.1.8-.2.2-.1.4-.3.5-.6h-1.6v-.9h2.4zM268.6 30.3h3.7v.9h-2.7v1h1.5v.9h-1.5v1h2.7v.9h-3.7v-4.7zM274.3 31.3h-1.4v-.9h3.7v.9h-1.4v3.8h-.9v-3.8zM281.5 34.4h-1.7l-.2.7h-.9l1.6-4.7h1l1.5 4.7h-.9l-.4-.7zm-.3-.9l-.6-1.8-.6 1.8h1.2zM289.7 34.2v.9h-.4l-.6-.5c-.2.2-.4.3-.7.4s-.5.1-.8.1c-.5 0-.9-.1-1.3-.3-.4-.2-.7-.5-.9-.9-.2-.4-.3-.8-.3-1.2 0-.5.1-.9.3-1.2.2-.4.5-.7.9-.9.4-.2.8-.3 1.3-.3s.9.1 1.3.3c.4.2.7.5.9.9.2.4.3.8.3 1.2 0 .4-.1.8-.3 1.2l.3.3zM288 34l-.5-.3.6-.7.5.4c.1-.2.1-.4.1-.6 0-.3-.1-.5-.2-.8-.1-.2-.3-.4-.5-.5s-.5-.2-.8-.2c-.3 0-.5.1-.8.2s-.4.3-.5.5c-.1.2-.2.5-.2.8s.1.5.2.8.3.4.5.5.5.2.8.2c.3-.1.5-.1.8-.3zM294.3 33.3c0 .3-.1.7-.2.9s-.4.5-.7.7c-.3.2-.6.2-1 .2s-.7-.1-1-.2c-.3-.2-.5-.4-.7-.7s-.2-.6-.2-.9v-2.9h.9v2.9c0 .2 0 .3.1.5s.2.3.3.4c.1.1.3.1.5.1s.3 0 .5-.1c.1-.1.3-.2.3-.4.1-.1.1-.3.1-.5v-2.9h.9v2.9zM297.6 30.3c.5 0 .9.1 1.3.3.4.2.7.5.9.9.2.4.3.8.3 1.2 0 .5-.1.9-.3 1.2-.2.4-.5.7-.9.9-.4.2-.8.3-1.3.3s-.9-.1-1.3-.3c-.4-.2-.7-.5-.9-.9-.2-.4-.3-.8-.3-1.2 0-.5.1-.9.3-1.2.2-.4.5-.7.9-.9.4-.2.8-.3 1.3-.3zm0 3.9c.3 0 .5-.1.8-.2s.4-.3.5-.5c.1-.2.2-.5.2-.8s-.1-.5-.2-.8c-.1-.2-.3-.4-.5-.5s-.5-.2-.8-.2c-.3 0-.5.1-.8.2s-.4.3-.5.5c-.1.2-.2.5-.2.8s.1.5.2.8.3.4.5.5.5.2.8.2zM301.9 31.3h-1.4v-.9h3.7v.9h-1.4v3.8h-.9v-3.8zM304.9 30.3h3.7v.9h-2.7v1h1.5v.9h-1.5v1h2.7v.9h-3.7v-4.7z"/></g></svg>