<svg baseProfile="tiny" xmlns="http://www.w3.org/2000/svg" viewBox="0 0 320 50" overflow="visible"><path fill="#FAE07E" d="M7.7 18.6H17v2.6H7.7z"/><path fill="#FFF" d="M17.8 18.6h2.3v2.6h-2.3z"/><path fill="#FAE07E" d="M7.7 21.9h7v2.6h-7z"/><path fill="#FFF" d="M15.5 21.9h4.6v2.6h-4.6z"/><path fill="#FAE07E" d="M7.7 25.1h4.6v2.6H7.7z"/><path fill="#FFF" d="M13.1 25.1h7v2.6h-7z"/><path fill="#FAE07E" d="M7.7 28.4H10V31H7.7z"/><path fill="#FFF" d="M10.7 28.4H20V31h-9.3zM27.4 22.3h-2.1v-1.1h5.3v1.1h-2.1v6.1h-1.1z"/><path fill="none" d="M57.2 24.2c-.9 0-1.5.6-1.5 1.5s.6 1.6 1.5 1.6 1.5-.6 1.5-1.6-.6-1.5-1.5-1.5zM63.1 24.2c-.6 0-1.3.4-1.5 1.1h2.8c0-.8-.6-1.1-1.3-1.1zM51.2 24.2c-.9 0-1.5.7-1.5 1.6s.6 1.6 1.5 1.6 1.5-.7 1.5-1.6-.6-1.6-1.5-1.6z"/><path fill="#FFF" d="M30.4 23.3v5.1h1.1v-2.5c0-1 .6-1.6 1.2-1.6.2 0 .4 0 .6.1v-1.1h-.4c-.6 0-1.1.4-1.3 1v-.9h-1.2zM34.1 23.3v3c0 1.3.7 2.1 1.9 2.1.6 0 1.2-.3 1.5-.8v.7h1.1v-5.1h-1.1v2.5c0 1.1-.5 1.7-1.2 1.7-.6 0-1-.5-1-1.3v-2.8h-1.2zM41.9 27.4c-.7 0-1.3-.3-1.7-.9l-.9.7c.4.8 1.4 1.3 2.6 1.3 1.4 0 2.4-.8 2.4-2.1 0-1.1-.6-1.7-1.7-2.1l-.8-.3c-.7-.3-1.1-.5-1.1-1s.5-.8 1.1-.8c.6 0 1 .2 1.4.7l.8-.9c-.5-.6-1.3-1-2.2-1-1.3 0-2.3.8-2.3 2 0 1 .6 1.6 1.7 2l.8.3c.7.3 1 .6 1 1.1 0 .6-.4 1-1.1 1zM53.8 28.4v-5.1h-1.1v.7c-.3-.4-.9-.8-1.6-.8-1.4 0-2.4 1.2-2.4 2.6 0 1.4 1 2.6 2.4 2.6.7 0 1.3-.4 1.6-.8v.7h1.1zm-2.6-.9c-.9 0-1.5-.7-1.5-1.6s.6-1.6 1.5-1.6 1.5.7 1.5 1.6-.6 1.6-1.5 1.6zM57.1 29.6c-.7 0-1.3-.3-1.7-.7l-.7.8c.5.6 1.4.9 2.4.9 1.5 0 2.6-.8 2.6-2.6v-4.7h-1.1v.7c-.3-.4-.9-.8-1.6-.8-1.4 0-2.4 1.1-2.4 2.6 0 1.4 1.1 2.6 2.4 2.6.7 0 1.3-.3 1.6-.8v.4c0 1-.6 1.6-1.5 1.6zm.1-2.3c-.9 0-1.5-.6-1.5-1.6s.6-1.5 1.5-1.5 1.5.6 1.5 1.5-.6 1.6-1.5 1.6zM63.2 23.2c-1.5 0-2.6 1.1-2.6 2.6s1.1 2.6 2.6 2.6c1.1 0 1.8-.5 2.3-1.2l-.8-.6c-.3.4-.7.8-1.4.8-.8 0-1.5-.5-1.6-1.4h4v-.4c-.1-1.5-1.2-2.4-2.5-2.4zm-1.5 2.1c.2-.8.8-1.1 1.5-1.1.6 0 1.2.4 1.4 1.1h-2.9zM45.5 21.9v.6c0 .4-.3.8-.8.8h-.3v1h1v2.4c0 1.1.8 1.7 1.7 1.7.3 0 .6 0 .8-.1v-1c-.2.1-.4.1-.6.1-.6 0-.8-.2-.8-.9v-2.3h1.4v-1h-1.4v-1.4h-1zM65.4 22.8v-.7h.3v-.2h-.8v.2h.3v.7zM66.3 22.4l-.3-.5h-.2v.9h.2v-.5l.3.5.2-.5v.5h.2v-.9h-.2z"/></svg>