<svg baseProfile="tiny" xmlns="http://www.w3.org/2000/svg" viewBox="0 0 300 600" overflow="visible"><g fill="#193062"><path d="M36.4 313.4c-1.8 0-2.9.9-2.9 2.1 0 .8.5 1.3 1.2 1.6 1.3.5 3.1.2 5.1.8 2.6.8 4.2 2.7 4.2 5.4 0 3.8-2.9 6.6-7.3 6.6-4.3 0-7.5-2.6-7.5-6.4h4.2c0 1.4 1.4 2.4 3.3 2.4 2 0 3.1-1 3.1-2.3 0-.9-.6-1.4-1.3-1.7-1.2-.4-3.3-.3-5.1-.8-2.6-.7-4.1-2.7-4.1-5.3 0-3.7 2.9-6.3 7.1-6.3 4.2 0 7.2 2.5 7.2 6.2h-4.2c0-1.4-1.2-2.3-3-2.3zM51.4 315.9h4.2v3.8h-4.2v4.6c0 .9.6 1.5 1.5 1.5h2.7v3.8h-3.5c-2.8 0-4.7-1.8-4.7-4.6v-5.3h-2v-2.1l3.8-4.7h2.2v3zM60.4 309.1c1.4 0 2.5 1.1 2.5 2.5s-1.1 2.5-2.5 2.5-2.5-1.1-2.5-2.5 1-2.5 2.5-2.5zm2 20.5h-4v-13.7h4v13.7zM66 308.8h4v20.7h-4v-20.7zM73.6 308.8h4v20.7h-4v-20.7zM93.9 326.3c1.1 0 1.8-.4 1.8-1 0-.4-.4-.7-1-.7-.7-.1-1.4-.1-2.5-.3-2.7-.4-3.9-2-3.9-4 0-2.7 2.2-4.7 5.6-4.7 3.2 0 5.5 1.9 5.5 4.6h-3.9c0-.6-.7-1-1.7-1s-1.6.4-1.6.9c0 .4.3.6 1 .7.9.1 1.4.1 2.6.2 2.7.3 3.9 2 3.9 4.1 0 2.7-2.3 4.8-5.7 4.8-3.3 0-5.7-2-5.7-4.7h3.9c-.1.6.6 1.1 1.7 1.1zM114.9 324.2h-9.5c.5 1.2 1.6 2 3.1 2 1.3 0 2.3-.7 2.9-1.6l3.2 1.9c-1.2 2.1-3.4 3.4-6.1 3.4-4.1 0-7.1-3.1-7.1-7.1 0-4.1 2.9-7.2 6.9-7.2 4.1 0 6.9 3 6.9 7.1l-.3 1.5zm-9.6-2.9h5.8c-.4-1.3-1.5-2-2.9-2-1.5-.1-2.6.6-2.9 2zM129.1 321v8.6h-3.9v-.7c-.8.7-1.9 1-3.3 1-2.8 0-4.8-1.8-4.8-4.3 0-2.8 2.1-4.1 4.8-4.3l3.3-.3v-.2c0-.9-.9-1.6-2-1.6-1 0-1.8.5-2 1.3h-3.8c.2-2.9 2.6-5 5.8-5 3.5.1 5.9 2.4 5.9 5.5zm-4 3.8v-.8l-2.7.2c-1 .1-1.4.6-1.4 1.2 0 .7.6 1.3 1.7 1.3 1.5-.1 2.4-.8 2.4-1.9zM141.3 315.9v4h-2c-1.6 0-2.6 1.2-2.6 2.7v7h-4v-13.7h3.9v1.2c.8-1 2-1.2 3.2-1.2h1.5zM149.7 315.6c2.6 0 4.8 1.3 6 3.2l-3.2 2.3c-.6-.9-1.5-1.6-2.7-1.6-1.8 0-3.1 1.4-3.1 3.2 0 1.8 1.3 3.2 3.1 3.2 1.2 0 2.1-.6 2.7-1.6l3.3 2.3c-1.2 2-3.3 3.2-6 3.2-4.1 0-7.1-3.1-7.1-7.2-.1-3.9 2.9-7 7-7zM170.5 321v8.5h-4v-7.7c0-1.3-.9-2.4-2.3-2.4s-2.4 1-2.4 2.4v7.7h-4v-20.7h4v7.8c.9-.7 2-1 3.3-1 3.1 0 5.4 2.3 5.4 5.4zM176 309.1c1.4 0 2.5 1.1 2.5 2.5s-1.1 2.5-2.5 2.5-2.5-1.1-2.5-2.5 1.1-2.5 2.5-2.5zm2 20.5h-4v-13.7h4v13.7zM194.3 321v8.6h-4v-7.8c0-1.3-.9-2.3-2.3-2.3s-2.3 1-2.3 2.3v7.8h-4v-13.7h3.9v.8c.9-.7 2-1.1 3.3-1.1 3.1 0 5.4 2.3 5.4 5.4zM210.6 315.9v13.3c0 3.7-2.7 6.5-6.8 6.5-3.1 0-5.5-1.7-6.4-4.4l3.7-1.4c.4 1.2 1.3 1.9 2.7 1.9 1.7 0 2.8-1.1 2.8-2.7v-1c-.9.7-2 1-3.3 1-3.7 0-6.4-3-6.4-6.7 0-3.8 2.7-6.8 6.4-6.8 1.3 0 2.5.4 3.4 1.1v-.8h3.9zm-3.9 6.5c0-1.6-1.3-2.9-2.9-2.9-1.7 0-2.9 1.3-2.9 2.9 0 1.6 1.3 2.8 2.9 2.8 1.7 0 2.9-1.3 2.9-2.8zM223.4 319.7h-2.7v-3.8h2.7v-2.7c0-2.6 1.7-4.3 4.4-4.3h3.1v3.8h-2.3c-.7 0-1.1.4-1.1 1.1v2.1h3.5v3.8h-3.5v9.9h-4v-9.9zM239.2 315.6c4.1 0 7.2 3.1 7.2 7.2 0 3.9-3 7.1-7.2 7.1-4.1 0-7.2-3.2-7.2-7.1.1-4.1 3.1-7.2 7.2-7.2zm0 10.3c1.8 0 3.2-1.4 3.2-3.2 0-1.8-1.3-3.2-3.2-3.2-1.8 0-3.2 1.4-3.2 3.2.1 1.8 1.4 3.2 3.2 3.2zM257.8 315.9v4h-2c-1.6 0-2.6 1.2-2.6 2.7v7h-4v-13.7h3.9v1.2c.8-1 2-1.2 3.2-1.2h1.5z"/></g><g fill="#193062"><path d="M30.1 348.8h4.2v15.7h11.3v4.1H30.1v-19.8zM50.3 348.2c1.4 0 2.5 1.1 2.5 2.5s-1.1 2.5-2.5 2.5-2.5-1.1-2.5-2.5 1.1-2.5 2.5-2.5zm2 20.5h-4V355h4v13.7zM57.2 358.8h-2.7V355h2.7v-2.7c0-2.6 1.7-4.3 4.4-4.3h3.1v3.8h-2.3c-.7 0-1.1.4-1.1 1.1v2.1h3.5v3.8h-3.5v9.9h-4v-9.9zM79.5 363.2H70c.5 1.2 1.6 2 3.1 2 1.3 0 2.3-.7 2.9-1.6l3.2 1.9c-1.2 2.1-3.4 3.4-6.1 3.4-4.1 0-7.1-3.1-7.1-7.1 0-4.1 2.9-7.2 6.9-7.2 4.1 0 6.9 3 6.9 7.1-.1.6-.2 1.1-.3 1.5zm-9.6-2.9h5.8c-.4-1.3-1.5-2-2.9-2-1.5 0-2.5.7-2.9 2zM90.5 348.8h4.2v19.9h-4.2v-19.9zM111.3 360.1v8.6h-4v-7.8c0-1.3-.9-2.3-2.3-2.3s-2.3 1-2.3 2.3v7.8h-4V355h3.9v.8c.9-.7 2-1.1 3.3-1.1 3.1 0 5.4 2.3 5.4 5.4zM119.7 365.3c1.1 0 1.8-.4 1.8-1 0-.4-.4-.7-1-.7-.7-.1-1.4-.1-2.5-.3-2.7-.4-3.9-2-3.9-4 0-2.7 2.2-4.7 5.6-4.7 3.2 0 5.5 1.9 5.5 4.6h-3.9c0-.6-.7-1-1.7-1s-1.6.4-1.6.9c0 .4.3.6 1 .7.9.1 1.4.1 2.6.2 2.7.3 3.9 2 3.9 4.1 0 2.7-2.3 4.8-5.7 4.8-3.3 0-5.7-2-5.7-4.7h3.9c-.2.7.5 1.1 1.7 1.1zM140.5 355v13.7h-3.9v-.8c-.9.7-2 1.1-3.3 1.1-3.1 0-5.4-2.3-5.4-5.4V355h4v7.8c0 1.3.9 2.3 2.3 2.3s2.3-1 2.3-2.3V355h4zM152.8 355v4h-2c-1.6 0-2.6 1.2-2.6 2.7v7h-4V355h3.9v1.2c.8-1 2-1.2 3.2-1.2h1.5zM166.1 360.1v8.6h-3.9v-.7c-.8.7-1.8 1-3.3 1-2.8 0-4.8-1.8-4.8-4.3 0-2.8 2.1-4.1 4.8-4.3l3.3-.3v-.1c0-.9-.9-1.6-2-1.6-1 0-1.8.5-2 1.3h-3.8c.2-2.9 2.6-5 5.8-5 3.4 0 5.9 2.2 5.9 5.4zm-4 3.7v-.8l-2.7.2c-1 .1-1.4.6-1.4 1.2 0 .7.6 1.3 1.7 1.3 1.5 0 2.4-.7 2.4-1.9zM182.2 360.1v8.6h-4v-7.8c0-1.3-.9-2.3-2.3-2.3s-2.3 1-2.3 2.3v7.8h-4V355h3.9v.8c.9-.7 2-1.1 3.3-1.1 3.2 0 5.4 2.3 5.4 5.4zM191.9 354.7c2.6 0 4.8 1.3 6 3.2l-3.2 2.3c-.6-.9-1.5-1.6-2.7-1.6-1.8 0-3.1 1.4-3.1 3.2 0 1.8 1.3 3.2 3.1 3.2 1.2 0 2.1-.6 2.7-1.6l3.3 2.3c-1.2 2-3.3 3.2-6 3.2-4.1 0-7.1-3.1-7.1-7.2-.1-3.9 2.9-7 7-7zM212.7 363.2h-9.5c.5 1.2 1.6 2 3.1 2 1.3 0 2.3-.7 2.9-1.6l3.2 1.9c-1.2 2.1-3.4 3.4-6.1 3.4-4.1 0-7.1-3.1-7.1-7.1 0-4.1 2.9-7.2 6.9-7.2 4.1 0 6.9 3 6.9 7.1-.1.6-.2 1.1-.3 1.5zm-9.6-2.9h5.8c-.4-1.3-1.5-2-2.9-2-1.5 0-2.6.7-2.9 2z"/></g><g fill="#193062"><path d="M34.3 394h4.2v3.8h-4.2v4.6c0 .9.6 1.5 1.5 1.5h2.7v3.8H35c-2.8 0-4.7-1.8-4.7-4.6v-5.3h-2v-2.1l3.8-4.7h2.2v3zM54 399.2v8.5h-4V400c0-1.3-.9-2.4-2.3-2.4s-2.4 1-2.4 2.4v7.7h-4V387h4v7.8c.9-.7 2-1 3.3-1 3.1-.1 5.4 2.2 5.4 5.4zM68.8 399.2v8.6h-3.9v-.8c-.8.7-1.9 1-3.3 1-2.8 0-4.8-1.8-4.8-4.3 0-2.8 2.1-4.1 4.8-4.3l3.3-.3v-.1c0-.9-.9-1.6-2-1.6-1 0-1.8.5-2 1.3H57c.2-2.9 2.6-5 5.8-5 3.6 0 6 2.3 6 5.5zm-3.9 3.7v-.8l-2.7.2c-1 .1-1.4.6-1.4 1.2 0 .7.6 1.3 1.7 1.3 1.5 0 2.4-.7 2.4-1.9zM76.7 394h4.2v3.8h-4.2v4.6c0 .9.6 1.5 1.5 1.5h2.7v3.8h-3.5c-2.8 0-4.7-1.8-4.7-4.6v-5.3h-2v-2.1l3.8-4.7h2.2v3zM92.9 397.9h-2.7V394h2.7v-2.7c0-2.6 1.7-4.3 4.4-4.3h3.1v3.8H98c-.7 0-1.1.4-1.1 1.1v2.1h3.5v3.8h-3.5v9.9h-4v-9.8zm11.9-10.6c1.4 0 2.5 1.1 2.5 2.5s-1.1 2.5-2.5 2.5-2.5-1.1-2.5-2.5 1.1-2.5 2.5-2.5zm2 20.4h-4V394h4v13.7zM114.9 394h4.2v3.8h-4.2v4.6c0 .9.6 1.5 1.5 1.5h2.7v3.8h-3.5c-2.8 0-4.7-1.8-4.7-4.6v-5.3h-2v-2.1l3.8-4.7h2.2v3zM126.8 404.4c1.1 0 1.8-.4 1.8-1 0-.4-.4-.7-1-.7-.7-.1-1.4-.1-2.5-.3-2.7-.4-3.9-2-3.9-4 0-2.7 2.2-4.7 5.6-4.7 3.2 0 5.5 1.9 5.5 4.6h-3.9c0-.6-.7-1-1.7-1s-1.6.4-1.6.9c0 .4.3.6 1 .7.9.1 1.4.1 2.6.2 2.7.3 3.9 2 3.9 4.1 0 2.7-2.3 4.8-5.7 4.8-3.3 0-5.7-2-5.7-4.7h3.9c-.2.7.5 1.1 1.7 1.1zM154.2 394l-7 19.5H143l2.2-6.1-4.8-13.4h4.4l2.6 7.4 2.7-7.4h4.1zM162.1 393.7c4.1 0 7.2 3.1 7.2 7.2 0 3.9-3 7.1-7.2 7.1-4.1 0-7.2-3.2-7.2-7.1 0-4 3-7.2 7.2-7.2zm0 10.4c1.8 0 3.2-1.4 3.2-3.2 0-1.8-1.3-3.2-3.2-3.2-1.8 0-3.2 1.4-3.2 3.2 0 1.8 1.4 3.2 3.2 3.2zM184.4 394v13.7h-3.9v-.7c-.9.7-2 1.1-3.3 1.1-3.1 0-5.4-2.3-5.4-5.4V394h4v7.8c0 1.3.9 2.3 2.3 2.3s2.3-1 2.3-2.3V394h4zM196.7 394v4h-2c-1.6 0-2.6 1.2-2.6 2.7v7h-4V394h3.9v1.2c.8-1 2-1.2 3.2-1.2h1.5z"/></g><g fill="#193062"><path d="M31.1 437h-2.7v-3.8h2.7v-2.7c0-2.6 1.7-4.3 4.4-4.3h3.1v3.8h-2.3c-.7 0-1.1.4-1.1 1.1v2.1h3.5v3.8h-3.5v9.9h-4V437zM52 438.2v8.6h-3.9v-.7c-.8.7-1.9 1-3.3 1-2.8 0-4.8-1.8-4.8-4.3 0-2.8 2.1-4.1 4.8-4.3l3.3-.3v-.2c0-.9-.9-1.6-2-1.6-1 0-1.8.5-2 1.3h-3.8c.2-2.9 2.6-5 5.8-5 3.5.1 5.9 2.4 5.9 5.5zm-3.9 3.8v-.8l-2.7.2c-1 .1-1.4.6-1.4 1.2 0 .7.6 1.3 1.7 1.3 1.5 0 2.4-.7 2.4-1.9zM75.5 437.9v9h-4v-8.1c0-1.1-.7-2-2-2-1.2 0-2 .9-2 2v8.1h-4v-8.1c0-1.1-.7-2-2-2-1.2 0-2 .9-2 2v8.1h-4v-13.7h3.9v.7c.8-.6 1.9-1 3.1-1 1.4 0 2.7.5 3.6 1.4 1-.9 2.3-1.4 3.9-1.4 3.2-.1 5.5 2 5.5 5zM81.1 426.3c1.4 0 2.5 1.1 2.5 2.5s-1.1 2.5-2.5 2.5-2.5-1.1-2.5-2.5 1-2.5 2.5-2.5zm2 20.5h-4v-13.7h4v13.7zM86.7 426.1h4v20.7h-4v-20.7zM106.5 433.1l-7 19.5h-4.2l2.2-6.1-4.8-13.4H97l2.6 7.4 2.7-7.4h4.2zM112.9 429.1c0 .3-.1.6-.2.9l-1.6 4.5h-2.3l.8-3.2c-.9-.3-1.5-1.2-1.5-2.3 0-1.4 1-2.4 2.4-2.4s2.4 1.1 2.4 2.5zM119.7 443.5c1.1 0 1.8-.4 1.8-1 0-.4-.4-.7-1-.7-.7-.1-1.4-.1-2.5-.3-2.7-.4-3.9-2-3.9-4 0-2.7 2.2-4.7 5.6-4.7 3.2 0 5.5 1.9 5.5 4.6h-3.9c0-.6-.7-1-1.7-1s-1.6.4-1.6.9c0 .4.3.6 1 .7.9.1 1.4.1 2.6.2 2.7.3 3.9 2 3.9 4.1 0 2.7-2.3 4.8-5.7 4.8-3.3 0-5.7-2-5.7-4.7h3.9c-.1.7.6 1.1 1.7 1.1zM148.5 438.3v8.6h-4v-7.8c0-1.3-.9-2.3-2.3-2.3s-2.3 1-2.3 2.3v7.8h-4v-13.7h3.9v.8c.9-.7 2-1.1 3.3-1.1 3.2-.1 5.4 2.2 5.4 5.4zM164.8 441.4h-9.5c.5 1.2 1.6 2 3.1 2 1.3 0 2.3-.7 2.9-1.6l3.2 1.9c-1.2 2.1-3.4 3.4-6.1 3.4-4.1 0-7.1-3.1-7.1-7.1 0-4.1 2.9-7.2 6.9-7.2 4.1 0 6.9 3 6.9 7.1-.2.5-.2 1.1-.3 1.5zm-9.7-2.9h5.8c-.4-1.3-1.5-2-2.9-2s-2.5.7-2.9 2zM180.3 441.4h-9.5c.5 1.2 1.6 2 3.1 2 1.3 0 2.3-.7 2.9-1.6l3.2 1.9c-1.2 2.1-3.4 3.4-6.1 3.4-4.1 0-7.1-3.1-7.1-7.1 0-4.1 2.9-7.2 6.9-7.2 4.1 0 6.9 3 6.9 7.1-.2.5-.2 1.1-.3 1.5zm-9.6-2.9h5.8c-.4-1.3-1.5-2-2.9-2-1.5 0-2.6.7-2.9 2zM196.4 426.1v20.7h-3.9v-.8c-.9.7-2.1 1.1-3.5 1.1-4 0-6.8-3.2-6.8-7.1 0-4.1 2.8-7.2 6.8-7.2 1.3 0 2.5.4 3.4 1V426h4zm-3.9 13.9c0-1.8-1.3-3.3-3.2-3.3-1.8 0-3.1 1.4-3.1 3.3 0 1.8 1.3 3.2 3.1 3.2 1.9 0 3.2-1.4 3.2-3.2zM204.9 443.5c1.1 0 1.8-.4 1.8-1 0-.4-.4-.7-1-.7-.7-.1-1.4-.1-2.5-.3-2.7-.4-3.9-2-3.9-4 0-2.7 2.2-4.7 5.5-4.7 3.2 0 5.5 1.9 5.5 4.6h-3.9c0-.6-.7-1-1.7-1s-1.6.4-1.6.9c0 .4.3.6 1 .7.9.1 1.4.1 2.6.2 2.7.3 3.9 2 3.9 4.1 0 2.7-2.3 4.8-5.7 4.8-3.3 0-5.7-2-5.7-4.7h3.9c-.1.7.7 1.1 1.8 1.1zM215.7 440.7v-.1c0-2.4.5-3.5 2.5-5.3 1-.9 1.6-1.6 1.6-2.6 0-1.1-.8-1.9-1.8-1.9-1.1 0-1.9.8-1.9 1.9h-4.2c0-3.5 2.6-6.1 6.1-6.1 3.5 0 6 2.6 6 5.9 0 2.5-1.1 3.8-2.9 5.4-1.2 1.1-1.6 1.7-1.6 2.7v.1h-3.8zm1.9 1.3c1.4 0 2.5 1.1 2.5 2.5s-1.1 2.5-2.5 2.5-2.5-1.1-2.5-2.5 1-2.5 2.5-2.5z"/></g><g fill="#193062"><path d="M34.4 470.2h-5.7v-4.1h15.6v4.1h-5.7v15.7h-4.2v-15.7zM53 472.2v4h-2c-1.6 0-2.6 1.2-2.6 2.7v7h-4v-13.7h3.9v1.2c.8-1 2-1.2 3.2-1.2H53zM67.8 472.2v13.7h-3.9v-.8c-.9.7-2 1.1-3.3 1.1-3.1 0-5.4-2.3-5.4-5.4v-8.6h4v7.8c0 1.3.9 2.3 2.3 2.3s2.3-1 2.3-2.3v-7.8h4zM76.3 482.6c1.1 0 1.8-.4 1.8-1 0-.4-.4-.7-1-.7-.7-.1-1.4-.1-2.5-.3-2.7-.4-3.9-2-3.9-4 0-2.7 2.2-4.7 5.6-4.7 3.2 0 5.5 1.9 5.5 4.6h-3.9c0-.6-.7-1-1.7-1s-1.6.4-1.6.9c0 .4.3.6 1 .7.9.1 1.4.1 2.6.2 2.7.3 3.9 2 3.9 4.1 0 2.7-2.3 4.8-5.7 4.8-3.3 0-5.7-2-5.7-4.7h3.9c-.2.7.5 1.1 1.7 1.1zM89.1 472.2h4.2v3.8h-4.2v4.6c0 .9.6 1.5 1.5 1.5h2.7v3.8h-3.5c-2.8 0-4.7-1.8-4.7-4.6V476h-2v-2l3.8-4.7h2.2v2.9zM107.8 470.2h-5.7v-4.1h15.6v4.1H112v15.7h-4.2v-15.7zM126.5 472.2v4h-2c-1.6 0-2.6 1.2-2.6 2.7v7h-4v-13.7h3.9v1.2c.8-1 2-1.2 3.2-1.2h1.5zM141.3 472.2v13.7h-3.9v-.8c-.9.7-2 1.1-3.3 1.1-3.1 0-5.4-2.3-5.4-5.4v-8.6h4v7.8c0 1.3.9 2.3 2.3 2.3s2.3-1 2.3-2.3v-7.8h4zM151.5 469.8c-1.8 0-2.9.9-2.9 2.1 0 .8.5 1.3 1.2 1.6 1.3.5 3.1.2 5.1.8 2.6.8 4.2 2.7 4.2 5.4 0 3.8-2.9 6.6-7.3 6.6-4.3 0-7.5-2.6-7.5-6.4h4.2c0 1.4 1.4 2.4 3.3 2.4 2 0 3.1-1 3.1-2.3 0-.9-.6-1.4-1.3-1.7-1.2-.4-3.3-.3-5.1-.8-2.6-.7-4.1-2.7-4.1-5.3 0-3.7 2.9-6.3 7.1-6.3 4.2 0 7.2 2.5 7.2 6.2h-4.2c0-1.5-1.2-2.3-3-2.3zM166.5 472.2h4.2v3.8h-4.2v4.6c0 .9.6 1.5 1.5 1.5h2.7v3.8h-3.5c-2.8 0-4.7-1.8-4.7-4.6V476h-2v-2l3.8-4.7h2.2v2.9zM184.7 477.3v8.6h-3.9v-.7c-.8.7-1.8 1-3.3 1-2.8 0-4.8-1.8-4.8-4.3 0-2.8 2.1-4.1 4.8-4.3l3.3-.3v-.2c0-.9-.9-1.6-2-1.6-1 0-1.8.5-2 1.3H173c.2-2.9 2.6-5 5.8-5 3.5.1 5.9 2.4 5.9 5.5zm-3.9 3.8v-.8l-2.7.2c-1 .1-1.4.6-1.4 1.2 0 .7.6 1.3 1.7 1.3 1.5 0 2.4-.7 2.4-1.9zM201 472.2v13.3c0 3.7-2.7 6.5-6.8 6.5-3.1 0-5.5-1.7-6.4-4.4l3.7-1.4c.4 1.2 1.3 1.9 2.7 1.9 1.7 0 2.8-1.1 2.8-2.7v-1c-.9.7-2 1-3.3 1-3.7 0-6.4-3-6.4-6.7 0-3.8 2.7-6.8 6.4-6.8 1.3 0 2.5.4 3.4 1.1v-.8h3.9zm-3.9 6.5c0-1.6-1.3-2.9-2.9-2.9-1.7 0-2.9 1.3-2.9 2.9 0 1.6 1.3 2.8 2.9 2.8 1.7.1 2.9-1.2 2.9-2.8zM217.3 480.5h-9.5c.5 1.2 1.6 2 3.1 2 1.3 0 2.3-.7 2.9-1.6l3.2 1.9c-1.2 2.1-3.4 3.4-6.1 3.4-4.1 0-7.1-3.1-7.1-7.1 0-4.1 2.9-7.2 6.9-7.2 4.1 0 6.9 3 6.9 7.1l-.3 1.5zm-9.6-2.9h5.8c-.4-1.3-1.5-2-2.9-2-1.5 0-2.6.7-2.9 2zM221.5 468.3h-2.2v-2.2h6.7v2.2h-2.2v5.6h-2.3v-5.6zm5.6-2.2h2.3l1.8 3.6 1.7-3.6h2.3v7.8h-2.3v-3.5l-1.7 3.7-1.8-3.6v3.5h-2.2v-7.9z"/></g></svg>