<?xml version="1.0" encoding="utf-8"?>
<!-- Generator: Adobe Illustrator 27.4.0, SVG Export Plug-In . SVG Version: 6.00 Build 0)  -->
<svg version="1.1" baseProfile="tiny" id="Layer_1" xmlns="http://www.w3.org/2000/svg" xmlns:xlink="http://www.w3.org/1999/xlink"
	 x="0px" y="0px" viewBox="0 0 728 90" overflow="visible" xml:space="preserve">
<g>
	<path fill="#373535" d="M13.3,76.6c0,0.6-0.1,1-0.4,1.5s-0.6,0.8-1,1s-0.9,0.4-1.5,0.4c-0.6,0-1.1-0.1-1.5-0.4s-0.8-0.6-1-1.1
		s-0.4-1-0.4-1.5c0-0.6,0.1-1.1,0.4-1.5s0.6-0.8,1.1-1.1s1-0.4,1.5-0.4c0.6,0,1.1,0.1,1.5,0.4s0.8,0.6,1,1l-0.6,0.4
		c-0.2-0.3-0.4-0.6-0.8-0.8s-0.7-0.3-1.1-0.3c-0.4,0-0.8,0.1-1.1,0.3S8.7,75,8.5,75.3S8.2,76,8.2,76.5c0,0.4,0.1,0.8,0.3,1.2
		s0.4,0.6,0.8,0.8s0.7,0.3,1.1,0.3c0.3,0,0.7-0.1,0.9-0.2c0.3-0.1,0.5-0.3,0.7-0.5s0.3-0.5,0.4-0.8h-2.4v-0.7H13.3z"/>
	<path fill="#373535" d="M14.3,73.6h4.4v0.7H15v1.8h2.1v0.7H15v1.8h3.6v0.7h-4.4V73.6z"/>
	<path fill="#373535" d="M24.3,73.6v5.8h-0.8l-3-4.5v4.5h-0.8v-5.8h0.8l3,4.5v-4.5H24.3z"/>
	<path fill="#373535" d="M27.2,76.8v0.7h-1.9v-0.7H27.2z"/>
	<path fill="#373535" d="M31.8,77.8c0,0.3-0.1,0.6-0.2,0.9c-0.2,0.3-0.4,0.5-0.7,0.6s-0.6,0.2-1,0.2c-0.4,0-0.7-0.1-1-0.2
		s-0.5-0.3-0.7-0.6s-0.2-0.5-0.2-0.9h0.8c0,0.2,0.1,0.3,0.2,0.5s0.2,0.3,0.4,0.3s0.3,0.1,0.6,0.1c0.2,0,0.4,0,0.6-0.1
		c0.2-0.1,0.3-0.2,0.4-0.4c0.1-0.2,0.1-0.3,0.1-0.5s0-0.4-0.1-0.5c-0.1-0.1-0.2-0.3-0.4-0.4s-0.3-0.1-0.5-0.1h-0.6V76H30
		c0.2,0,0.4,0,0.5-0.1s0.3-0.2,0.3-0.3c0.1-0.1,0.1-0.3,0.1-0.5c0-0.2,0-0.3-0.1-0.5c-0.1-0.1-0.2-0.2-0.3-0.3
		c-0.1-0.1-0.3-0.1-0.5-0.1c-0.2,0-0.4,0-0.5,0.1s-0.3,0.2-0.3,0.3S29,74.9,29,75.1h-0.8c0-0.3,0.1-0.6,0.2-0.8s0.4-0.4,0.6-0.6
		s0.6-0.2,0.9-0.2c0.3,0,0.6,0.1,0.9,0.2s0.5,0.3,0.6,0.6c0.1,0.2,0.2,0.5,0.2,0.8c0,0.3-0.1,0.5-0.2,0.7c-0.1,0.2-0.3,0.4-0.5,0.5
		c0.2,0.1,0.4,0.3,0.6,0.6C31.7,77.2,31.8,77.5,31.8,77.8z"/>
	<path fill="#373535" d="M36.8,75.4c0,0.2,0,0.5-0.1,0.7s-0.2,0.5-0.3,0.7l-1.7,2.6h-0.9l1.4-2.2c-0.1,0-0.3,0-0.4,0
		c-0.4,0-0.7-0.1-1-0.2s-0.5-0.4-0.7-0.7s-0.3-0.6-0.3-1c0-0.4,0.1-0.7,0.3-1s0.4-0.5,0.7-0.7s0.6-0.2,1-0.2c0.4,0,0.7,0.1,1,0.2
		s0.5,0.4,0.7,0.7S36.8,75,36.8,75.4z M34.8,76.6c0.2,0,0.4,0,0.6-0.1s0.3-0.2,0.4-0.4s0.2-0.4,0.2-0.6c0-0.2-0.1-0.4-0.2-0.6
		s-0.2-0.3-0.4-0.4s-0.4-0.2-0.6-0.2c-0.2,0-0.5,0-0.6,0.2s-0.3,0.2-0.4,0.4s-0.2,0.4-0.2,0.6c0,0.2,0.1,0.4,0.2,0.6
		s0.2,0.3,0.4,0.4S34.6,76.6,34.8,76.6z"/>
	<path fill="#373535" d="M41.4,77.8c0,0.3-0.1,0.6-0.2,0.9c-0.2,0.3-0.4,0.5-0.7,0.6s-0.6,0.2-1,0.2c-0.4,0-0.7-0.1-1-0.2
		s-0.5-0.3-0.7-0.6s-0.2-0.5-0.2-0.9h0.8c0,0.2,0.1,0.3,0.2,0.5s0.2,0.3,0.4,0.3s0.3,0.1,0.6,0.1c0.2,0,0.4,0,0.6-0.1
		c0.2-0.1,0.3-0.2,0.4-0.4c0.1-0.2,0.1-0.3,0.1-0.5s0-0.4-0.1-0.5c-0.1-0.1-0.2-0.3-0.4-0.4s-0.3-0.1-0.5-0.1H39V76h0.6
		c0.2,0,0.4,0,0.5-0.1s0.3-0.2,0.3-0.3c0.1-0.1,0.1-0.3,0.1-0.5c0-0.2,0-0.3-0.1-0.5c-0.1-0.1-0.2-0.2-0.3-0.3
		c-0.1-0.1-0.3-0.1-0.5-0.1c-0.2,0-0.4,0-0.5,0.1s-0.3,0.2-0.3,0.3s-0.1,0.3-0.1,0.5h-0.8c0-0.3,0.1-0.6,0.2-0.8s0.4-0.4,0.6-0.6
		s0.6-0.2,0.9-0.2c0.3,0,0.6,0.1,0.9,0.2s0.5,0.3,0.6,0.6c0.1,0.2,0.2,0.5,0.2,0.8c0,0.3-0.1,0.5-0.2,0.7c-0.1,0.2-0.3,0.4-0.5,0.5
		c0.2,0.1,0.4,0.3,0.6,0.6C41.3,77.2,41.4,77.5,41.4,77.8z"/>
	<path fill="#373535" d="M46.3,77.6c0,0.4-0.1,0.7-0.2,1s-0.4,0.5-0.7,0.7s-0.6,0.2-1,0.2c-0.4,0-0.7-0.1-1-0.2
		c-0.3-0.2-0.5-0.4-0.7-0.7c-0.2-0.3-0.2-0.6-0.2-0.9h0.8c0,0.2,0.1,0.4,0.2,0.6s0.2,0.3,0.4,0.4s0.4,0.1,0.6,0.1
		c0.2,0,0.4,0,0.6-0.1s0.3-0.2,0.4-0.4s0.2-0.4,0.2-0.6c0-0.2-0.1-0.4-0.2-0.6s-0.2-0.3-0.4-0.4s-0.4-0.1-0.6-0.1h-1.7l0.4-2.9h3
		v0.7h-2.4l-0.2,1.4h0.9c0.4,0,0.7,0.1,1,0.2s0.5,0.4,0.7,0.7S46.3,77.2,46.3,77.6z"/>
	<path fill="#373535" d="M48.8,74.4l-1.5,1v-0.8l1.5-0.9h0.8v5.8h-0.8V74.4z"/>
	<path fill="#373535" d="M54.7,78.7v0.7h-3.7v-0.7l2.3-2.4c0.2-0.2,0.3-0.4,0.4-0.6s0.1-0.4,0.1-0.6c0-0.2,0-0.4-0.1-0.5
		s-0.2-0.3-0.4-0.4s-0.3-0.1-0.5-0.1c-0.2,0-0.4,0-0.5,0.1S52,74.5,52,74.7s-0.1,0.3-0.1,0.5h-0.8c0-0.3,0.1-0.6,0.2-0.9
		s0.4-0.5,0.6-0.6s0.6-0.2,0.9-0.2c0.4,0,0.7,0.1,0.9,0.2s0.5,0.4,0.6,0.6s0.2,0.6,0.2,0.9c0,0.3-0.1,0.6-0.2,0.9s-0.3,0.5-0.6,0.8
		l-1.7,1.8H54.7z"/>
	<path fill="#373535" d="M60,76.9v0.7h-1v1.7h-0.8v-1.7h-2.6v-0.6l2.5-3.5H59v3.4H60z M58.2,76.9v-2.4l-1.7,2.4H58.2z"/>
	<path fill="#373535" d="M61.3,78.4c0.2,0,0.3,0,0.4,0.1s0.1,0.2,0.1,0.4s0,0.3-0.1,0.4s-0.2,0.1-0.4,0.1c-0.2,0-0.3,0-0.4-0.1
		s-0.1-0.2-0.1-0.4s0-0.3,0.1-0.4S61.1,78.4,61.3,78.4z"/>
	<path fill="#373535" d="M66.5,78.7v0.7h-3.7v-0.7l2.3-2.4c0.2-0.2,0.3-0.4,0.4-0.6s0.1-0.4,0.1-0.6c0-0.2,0-0.4-0.1-0.5
		s-0.2-0.3-0.4-0.4s-0.3-0.1-0.5-0.1c-0.2,0-0.4,0-0.5,0.1s-0.3,0.2-0.4,0.3s-0.1,0.3-0.1,0.5h-0.8c0-0.3,0.1-0.6,0.2-0.9
		s0.4-0.5,0.6-0.6s0.6-0.2,0.9-0.2c0.4,0,0.7,0.1,0.9,0.2s0.5,0.4,0.6,0.6s0.2,0.6,0.2,0.9c0,0.3-0.1,0.6-0.2,0.9s-0.3,0.5-0.6,0.8
		l-1.7,1.8H66.5z"/>
</g>
</svg>
