<?xml version="1.0" encoding="utf-8"?>
<!-- Generator: Adobe Illustrator 27.4.0, SVG Export Plug-In . SVG Version: 6.00 Build 0)  -->
<svg version="1.1" baseProfile="tiny" id="Layer_1" xmlns="http://www.w3.org/2000/svg" xmlns:xlink="http://www.w3.org/1999/xlink"
	 x="0px" y="0px" viewBox="0 0 728 90" overflow="visible" xml:space="preserve">
<g>
	<path fill="#193062" d="M207.1,19.5v0.6c0,4-2.7,7-6.9,7c-4.2,0-7-3-7-7.1c0-4,3-7.1,7.2-7.1c2.8,0,5,1.4,6.2,3.5l-2.5,1.6
		c-0.7-1.3-2-2.1-3.7-2.1c-2.5,0-4.2,1.8-4.2,4.2c0,2.5,1.6,4.3,4.1,4.3c1.7,0,2.9-0.8,3.5-2h-4.5v-2.7H207.1z"/>
	<path fill="#193062" d="M217.9,23.1h-6.7c0.3,0.8,1.1,1.4,2.2,1.4c0.9,0,1.6-0.5,2-1.1l2.2,1.3c-0.8,1.4-2.4,2.4-4.3,2.4
		c-2.9,0-5-2.2-5-5c0-2.8,2-5,4.8-5c2.8,0,4.8,2.1,4.8,5C218,22.4,218,22.8,217.9,23.1z M211.2,21.1h4.1c-0.3-0.9-1-1.4-2-1.4
		C212.2,19.7,211.4,20.2,211.2,21.1z"/>
	<path fill="#193062" d="M223,17.3h2.9V20H223v3.2c0,0.6,0.4,1,1,1h1.9v2.7h-2.5c-1.9,0-3.3-1.3-3.3-3.2V20h-1.4v-1.4l2.6-3.2h1.5
		V17.3z"/>
	<path fill="#193062" d="M243.3,22.1c0,2.8-2,5-4.7,5c-0.9,0-1.8-0.3-2.5-0.8v0.6h-2.8V12.4h2.8v5.4c0.6-0.5,1.5-0.7,2.4-0.7
		C241.3,17.1,243.3,19.3,243.3,22.1z M240.5,22.1c0-1.3-0.9-2.3-2.2-2.3c-1.3,0-2.2,1-2.2,2.3c0,1.3,0.9,2.2,2.2,2.2
		C239.6,24.4,240.5,23.4,240.5,22.1z"/>
	<path fill="#193062" d="M253.1,20.9v6h-2.8v-0.5c-0.6,0.5-1.3,0.7-2.3,0.7c-2,0-3.3-1.2-3.3-3c0-2,1.5-2.8,3.3-3l2.3-0.2v-0.1
		c0-0.6-0.6-1.1-1.4-1.1c-0.7,0-1.3,0.4-1.4,0.9h-2.7c0.1-2,1.8-3.5,4.1-3.5C251.4,17.1,253.1,18.7,253.1,20.9z M250.3,23.5v-0.6
		l-1.9,0.2c-0.7,0.1-1,0.4-1,0.9c0,0.5,0.4,0.9,1.2,0.9C249.7,24.8,250.3,24.3,250.3,23.5z"/>
	<path fill="#193062" d="M259.8,17.1c1.8,0,3.3,0.9,4.2,2.2l-2.3,1.6c-0.4-0.6-1-1.1-1.9-1.1c-1.3,0-2.2,1-2.2,2.3
		c0,1.3,0.9,2.2,2.2,2.2c0.8,0,1.5-0.4,1.9-1.1l2.3,1.6c-0.8,1.4-2.3,2.2-4.2,2.2c-2.9,0-5-2.2-5-5C254.9,19.3,257,17.1,259.8,17.1z
		"/>
	<path fill="#193062" d="M271.2,21.9l3.6,5h-3.4l-3.2-4.5v4.5h-2.8V12.4h2.8v8.9l3.2-4h3.5L271.2,21.9z"/>
	<path fill="#193062" d="M284.8,17.3h2.9V20h-2.9v3.2c0,0.6,0.4,1,1,1h1.9v2.7h-2.5c-1.9,0-3.3-1.3-3.3-3.2V20h-1.4v-1.4l2.6-3.2
		h1.5V17.3z"/>
	<path fill="#193062" d="M293.9,17.1c2.9,0,5,2.2,5,5c0,2.7-2.1,5-5,5c-2.9,0-5-2.2-5-5C289,19.3,291.1,17.1,293.9,17.1z
		 M293.9,24.3c1.3,0,2.2-1,2.2-2.2c0-1.3-0.9-2.3-2.2-2.3c-1.3,0-2.2,1-2.2,2.3C291.7,23.3,292.7,24.3,293.9,24.3z"/>
	<path fill="#193062" d="M309.5,17.3h2.9V20h-2.9v3.2c0,0.6,0.4,1,1,1h1.9v2.7h-2.5c-1.9,0-3.3-1.3-3.3-3.2V20h-1.4v-1.4l2.6-3.2
		h1.5V17.3z"/>
	<path fill="#193062" d="M323.2,20.9v6h-2.8v-5.4c0-0.9-0.6-1.7-1.6-1.7c-1,0-1.7,0.7-1.7,1.7v5.4h-2.8V12.4h2.8v5.4
		c0.6-0.5,1.4-0.7,2.3-0.7C321.6,17.1,323.2,18.7,323.2,20.9z"/>
	<path fill="#193062" d="M334.5,23.1h-6.7c0.3,0.8,1.1,1.4,2.2,1.4c0.9,0,1.6-0.5,2-1.1l2.2,1.3c-0.8,1.4-2.4,2.4-4.3,2.4
		c-2.9,0-5-2.2-5-5c0-2.8,2-5,4.8-5c2.8,0,4.8,2.1,4.8,5C334.6,22.4,334.6,22.8,334.5,23.1z M327.8,21.1h4.1c-0.3-0.9-1-1.4-2-1.4
		C328.8,19.7,328,20.2,327.8,21.1z"/>
	<path fill="#193062" d="M345.1,17.3h2.9V20h-2.9v3.2c0,0.6,0.4,1,1,1h1.9v2.7h-2.5c-1.9,0-3.3-1.3-3.3-3.2V20h-1.4v-1.4l2.6-3.2
		h1.5V17.3z"/>
	<path fill="#193062" d="M358.8,20.9v6H356v-5.4c0-0.9-0.6-1.7-1.6-1.7c-1,0-1.7,0.7-1.7,1.7v5.4H350V12.4h2.8v5.4
		c0.6-0.5,1.4-0.7,2.3-0.7C357.2,17.1,358.8,18.7,358.8,20.9z"/>
	<path fill="#193062" d="M362.7,12.6c1,0,1.7,0.8,1.7,1.7c0,1-0.7,1.7-1.7,1.7c-1,0-1.7-0.8-1.7-1.7
		C360.9,13.3,361.7,12.6,362.7,12.6z M364.1,26.9h-2.8v-9.6h2.8V26.9z"/>
	<path fill="#193062" d="M375.5,20.9v6h-2.8v-5.4c0-0.9-0.6-1.6-1.6-1.6s-1.6,0.7-1.6,1.6v5.4h-2.8v-9.6h2.8v0.6
		c0.6-0.5,1.4-0.8,2.3-0.8C373.9,17.1,375.5,18.7,375.5,20.9z"/>
	<path fill="#193062" d="M386.8,17.3v9.3c0,2.6-1.9,4.5-4.8,4.5c-2.2,0-3.9-1.2-4.4-3l2.6-1c0.3,0.8,0.9,1.3,1.9,1.3
		c1.2,0,2-0.7,2-1.9v-0.7c-0.6,0.5-1.4,0.7-2.3,0.7c-2.6,0-4.5-2.1-4.5-4.7s1.9-4.7,4.5-4.7c0.9,0,1.7,0.3,2.4,0.8v-0.6H386.8z
		 M384.1,21.9c0-1.1-0.9-2-2-2c-1.2,0-2,0.9-2,2c0,1.1,0.9,2,2,2C383.2,23.8,384.1,22.9,384.1,21.9z"/>
	<path fill="#193062" d="M392.8,24.6c0.8,0,1.2-0.3,1.2-0.7c0-0.3-0.2-0.5-0.7-0.5c-0.5-0.1-1-0.1-1.7-0.2c-1.9-0.3-2.7-1.4-2.7-2.8
		c0-1.9,1.6-3.2,3.9-3.2c2.3,0,3.9,1.3,3.9,3.2h-2.7c0-0.4-0.5-0.7-1.2-0.7c-0.7,0-1.1,0.3-1.1,0.6c0,0.3,0.2,0.4,0.7,0.5
		c0.6,0.1,1,0.1,1.8,0.2c1.9,0.2,2.7,1.4,2.7,2.8c0,1.9-1.6,3.3-4,3.3c-2.3,0-4-1.4-4-3.3h2.7C391.5,24.3,392,24.6,392.8,24.6z"/>
	<path fill="#193062" d="M411.9,17.3L407,30.9h-2.9l1.5-4.2l-3.4-9.4h3l1.8,5.2l1.9-5.2H411.9z"/>
	<path fill="#193062" d="M417.4,17.1c2.9,0,5,2.2,5,5c0,2.7-2.1,5-5,5s-5-2.2-5-5C412.4,19.3,414.5,17.1,417.4,17.1z M417.4,24.3
		c1.3,0,2.2-1,2.2-2.2c0-1.3-0.9-2.3-2.2-2.3c-1.3,0-2.2,1-2.2,2.3C415.2,23.3,416.1,24.3,417.4,24.3z"/>
	<path fill="#193062" d="M433,17.3v9.6h-2.8v-0.5c-0.6,0.5-1.4,0.7-2.3,0.7c-2.1,0-3.7-1.6-3.7-3.8v-6h2.8v5.4
		c0,0.9,0.6,1.6,1.6,1.6s1.6-0.7,1.6-1.6v-5.4H433z"/>
</g>
<g>
	<path fill="#193062" d="M193.6,36.4h2.8v14.5h-2.8V36.4z"/>
	<path fill="#193062" d="M203.2,41.1c2.9,0,5,2.2,5,5c0,2.7-2.1,5-5,5c-2.9,0-5-2.2-5-5C198.2,43.3,200.4,41.1,203.2,41.1z
		 M203.2,48.3c1.3,0,2.2-1,2.2-2.2c0-1.3-0.9-2.3-2.2-2.3c-1.3,0-2.2,1-2.2,2.3C201,47.3,202,48.3,203.2,48.3z"/>
	<path fill="#193062" d="M218.5,41.3l-3.5,9.6h-2.8l-3.5-9.6h3l1.9,5.3l1.8-5.3H218.5z"/>
	<path fill="#193062" d="M228.5,47.1h-6.7c0.3,0.8,1.1,1.4,2.2,1.4c0.9,0,1.6-0.5,2-1.1l2.2,1.3c-0.8,1.4-2.4,2.4-4.3,2.4
		c-2.9,0-5-2.2-5-5c0-2.8,2-5,4.8-5c2.8,0,4.8,2.1,4.8,5C228.6,46.4,228.6,46.8,228.5,47.1z M221.8,45.1h4.1c-0.3-0.9-1-1.4-2-1.4
		C222.8,43.7,222,44.2,221.8,45.1z"/>
	<path fill="#193062" d="M231.9,47.5c1,0,1.7,0.8,1.7,1.7c0,1-0.7,1.7-1.7,1.7s-1.7-0.8-1.7-1.7C230.1,48.3,230.9,47.5,231.9,47.5z"
		/>
	<path fill="#193062" d="M248.8,49.1h-4.9l-0.6,1.8h-2.9l4.5-13.9h3l4.5,13.9h-3L248.8,49.1z M247.9,46.2l-1.6-4.8l-1.6,4.8H247.9z"
		/>
	<path fill="#193062" d="M263.8,46.1c0,2.8-2,5-4.7,5c-0.9,0-1.7-0.3-2.4-0.7v4.5h-2.8V41.3h2.8v0.6c0.6-0.5,1.5-0.8,2.5-0.8
		C261.9,41.1,263.8,43.3,263.8,46.1z M261,46.1c0-1.3-0.9-2.3-2.2-2.3c-1.3,0-2.2,1-2.2,2.3c0,1.3,0.9,2.2,2.2,2.2
		C260.1,48.3,261,47.4,261,46.1z"/>
	<path fill="#193062" d="M275.6,46.1c0,2.8-2,5-4.7,5c-0.9,0-1.7-0.3-2.4-0.7v4.5h-2.8V41.3h2.8v0.6c0.6-0.5,1.5-0.8,2.5-0.8
		C273.7,41.1,275.6,43.3,275.6,46.1z M272.8,46.1c0-1.3-0.9-2.3-2.2-2.3c-1.3,0-2.2,1-2.2,2.3c0,1.3,0.9,2.2,2.2,2.2
		C271.9,48.3,272.8,47.4,272.8,46.1z"/>
	<path fill="#193062" d="M277.5,36.4h2.8v14.5h-2.8V36.4z"/>
	<path fill="#193062" d="M291.3,41.3l-4.9,13.6h-2.9l1.5-4.2l-3.4-9.4h3l1.8,5.2l1.9-5.2H291.3z"/>
	<path fill="#193062" d="M298.5,44h-1.9v-2.7h1.9v-1.9c0-1.8,1.2-3,3.1-3h2.1v2.7h-1.6c-0.5,0-0.8,0.3-0.8,0.8v1.5h2.4V44h-2.4v6.9
		h-2.8V44z"/>
	<path fill="#193062" d="M309.5,41.1c2.9,0,5,2.2,5,5c0,2.7-2.1,5-5,5c-2.9,0-5-2.2-5-5C304.6,43.3,306.7,41.1,309.5,41.1z
		 M309.5,48.3c1.3,0,2.2-1,2.2-2.2c0-1.3-0.9-2.3-2.2-2.3c-1.3,0-2.2,1-2.2,2.3C307.3,47.3,308.3,48.3,309.5,48.3z"/>
	<path fill="#193062" d="M322.5,41.3v2.8h-1.4c-1.1,0-1.8,0.8-1.8,1.9v4.9h-2.8v-9.6h2.8v0.9c0.5-0.7,1.4-0.9,2.2-0.9H322.5z"/>
	<path fill="#193062" d="M329.8,37h3v11h7.9v2.9h-10.9V37z"/>
	<path fill="#193062" d="M343.9,36.6c1,0,1.7,0.8,1.7,1.7c0,1-0.7,1.7-1.7,1.7s-1.7-0.8-1.7-1.7C342.1,37.3,342.9,36.6,343.9,36.6z
		 M345.3,50.9h-2.8v-9.6h2.8V50.9z"/>
	<path fill="#193062" d="M348.7,44h-1.9v-2.7h1.9v-1.9c0-1.8,1.2-3,3.1-3h2.1v2.7h-1.6c-0.5,0-0.8,0.3-0.8,0.8v1.5h2.4V44h-2.4v6.9
		h-2.8V44z"/>
	<path fill="#193062" d="M364.3,47.1h-6.7c0.3,0.8,1.1,1.4,2.2,1.4c0.9,0,1.6-0.5,2-1.1l2.2,1.3c-0.8,1.4-2.4,2.4-4.3,2.4
		c-2.9,0-5-2.2-5-5c0-2.8,2-5,4.8-5c2.8,0,4.8,2.1,4.8,5C364.4,46.4,364.4,46.8,364.3,47.1z M357.6,45.1h4.1c-0.3-0.9-1-1.4-2-1.4
		C358.6,43.7,357.8,44.2,357.6,45.1z"/>
	<path fill="#193062" d="M372,37h3v13.9h-3V37z"/>
	<path fill="#193062" d="M386.5,44.9v6h-2.8v-5.4c0-0.9-0.6-1.6-1.6-1.6s-1.6,0.7-1.6,1.6v5.4h-2.8v-9.6h2.8v0.6
		c0.6-0.5,1.4-0.8,2.3-0.8C384.9,41.1,386.5,42.7,386.5,44.9z"/>
	<path fill="#193062" d="M392.4,48.6c0.8,0,1.2-0.3,1.2-0.7c0-0.3-0.2-0.5-0.7-0.5c-0.5-0.1-1-0.1-1.7-0.2c-1.9-0.3-2.7-1.4-2.7-2.8
		c0-1.9,1.6-3.2,3.9-3.2c2.3,0,3.9,1.3,3.9,3.2h-2.7c0-0.4-0.5-0.7-1.2-0.7c-0.7,0-1.1,0.3-1.1,0.6c0,0.3,0.2,0.4,0.7,0.5
		c0.6,0.1,1,0.1,1.8,0.2c1.9,0.2,2.7,1.4,2.7,2.8c0,1.9-1.6,3.3-4,3.3c-2.3,0-4-1.4-4-3.3h2.7C391.1,48.3,391.6,48.6,392.4,48.6z"/>
	<path fill="#193062" d="M406.9,41.3v9.6h-2.8v-0.5c-0.6,0.5-1.4,0.7-2.3,0.7c-2.1,0-3.7-1.6-3.7-3.8v-6h2.8v5.4
		c0,0.9,0.6,1.6,1.6,1.6s1.6-0.7,1.6-1.6v-5.4H406.9z"/>
	<path fill="#193062" d="M415.5,41.3v2.8h-1.4c-1.1,0-1.8,0.8-1.8,1.9v4.9h-2.8v-9.6h2.8v0.9c0.5-0.7,1.4-0.9,2.2-0.9H415.5z"/>
	<path fill="#193062" d="M424.8,44.9v6H422v-0.5c-0.6,0.5-1.3,0.7-2.3,0.7c-2,0-3.3-1.2-3.3-3c0-2,1.5-2.8,3.3-3l2.3-0.2v-0.1
		c0-0.6-0.6-1.1-1.4-1.1c-0.7,0-1.3,0.4-1.4,0.9h-2.7c0.1-2,1.8-3.5,4.1-3.5C423.1,41.1,424.8,42.7,424.8,44.9z M422,47.5v-0.6
		l-1.9,0.2c-0.7,0.1-1,0.4-1,0.9c0,0.5,0.4,0.9,1.2,0.9C421.4,48.8,422,48.3,422,47.5z"/>
	<path fill="#193062" d="M436.1,44.9v6h-2.8v-5.4c0-0.9-0.6-1.6-1.6-1.6c-1,0-1.6,0.7-1.6,1.6v5.4h-2.8v-9.6h2.8v0.6
		c0.6-0.5,1.4-0.8,2.3-0.8C434.5,41.1,436.1,42.7,436.1,44.9z"/>
	<path fill="#193062" d="M442.8,41.1c1.8,0,3.3,0.9,4.2,2.2l-2.3,1.6c-0.4-0.6-1-1.1-1.9-1.1c-1.3,0-2.2,1-2.2,2.3
		c0,1.3,0.9,2.2,2.2,2.2c0.8,0,1.5-0.4,1.9-1.1l2.3,1.6c-0.8,1.4-2.3,2.2-4.2,2.2c-2.9,0-5-2.2-5-5S440,41.1,442.8,41.1z"/>
	<path fill="#193062" d="M457.3,47.1h-6.7c0.3,0.8,1.1,1.4,2.2,1.4c0.9,0,1.6-0.5,2-1.1l2.2,1.3c-0.8,1.4-2.4,2.4-4.3,2.4
		c-2.9,0-5-2.2-5-5c0-2.8,2-5,4.8-5c2.8,0,4.8,2.1,4.8,5C457.5,46.4,457.4,46.8,457.3,47.1z M450.6,45.1h4.1c-0.3-0.9-1-1.4-2-1.4
		C451.6,43.7,450.9,44.2,450.6,45.1z"/>
</g>
<g>
	<path fill="#193062" d="M195,60.6c1,0,1.7,0.8,1.7,1.7c0,1-0.7,1.7-1.7,1.7s-1.7-0.8-1.7-1.7C193.2,61.3,194,60.6,195,60.6z
		 M196.4,74.9h-2.8v-9.6h2.8V74.9z"/>
	<path fill="#193062" d="M207.7,68.9v6h-2.8v-5.4c0-0.9-0.6-1.6-1.6-1.6s-1.6,0.7-1.6,1.6v5.4h-2.8v-9.6h2.8v0.6
		c0.6-0.5,1.4-0.8,2.3-0.8C206.2,65.1,207.7,66.7,207.7,68.9z"/>
	<path fill="#193062" d="M229.7,68.6v6.2h-2.8v-5.6c0-0.8-0.5-1.4-1.4-1.4c-0.8,0-1.4,0.6-1.4,1.4v5.6h-2.8v-5.6
		c0-0.8-0.5-1.4-1.4-1.4c-0.8,0-1.4,0.6-1.4,1.4v5.6h-2.8v-9.6h2.8v0.5c0.6-0.4,1.3-0.7,2.1-0.7c1,0,1.9,0.4,2.5,1
		c0.7-0.6,1.6-1,2.7-1C228,65.1,229.7,66.6,229.7,68.6z"/>
	<path fill="#193062" d="M233.5,60.6c1,0,1.7,0.8,1.7,1.7c0,1-0.7,1.7-1.7,1.7s-1.7-0.8-1.7-1.7C231.8,61.3,232.5,60.6,233.5,60.6z
		 M234.9,74.9h-2.8v-9.6h2.8V74.9z"/>
	<path fill="#193062" d="M246.3,68.9v6h-2.8v-5.4c0-0.9-0.6-1.6-1.6-1.6s-1.6,0.7-1.6,1.6v5.4h-2.8v-9.6h2.8v0.6
		c0.6-0.5,1.4-0.8,2.3-0.8C244.7,65.1,246.3,66.7,246.3,68.9z"/>
	<path fill="#193062" d="M257.5,65.3v9.6h-2.8v-0.5c-0.6,0.5-1.4,0.7-2.3,0.7c-2.1,0-3.7-1.6-3.7-3.8v-6h2.8v5.4
		c0,0.9,0.6,1.6,1.6,1.6c1,0,1.6-0.7,1.6-1.6v-5.4H257.5z"/>
	<path fill="#193062" d="M263.2,65.3h2.9V68h-2.9v3.2c0,0.6,0.4,1,1,1h1.9v2.7h-2.5c-1.9,0-3.3-1.3-3.3-3.2V68H259v-1.4l2.6-3.2h1.5
		V65.3z"/>
	<path fill="#193062" d="M276.8,71.1h-6.7c0.3,0.8,1.1,1.4,2.2,1.4c0.9,0,1.6-0.5,2-1.1l2.2,1.3c-0.8,1.4-2.4,2.4-4.3,2.4
		c-2.9,0-5-2.2-5-5c0-2.8,2-5,4.8-5c2.8,0,4.8,2.1,4.8,5C277,70.4,276.9,70.8,276.8,71.1z M270.1,69.1h4.1c-0.3-0.9-1-1.4-2-1.4
		C271.1,67.7,270.4,68.1,270.1,69.1z"/>
	<path fill="#193062" d="M282.2,72.6c0.8,0,1.2-0.3,1.2-0.7c0-0.3-0.2-0.5-0.7-0.5c-0.5-0.1-1-0.1-1.7-0.2c-1.9-0.3-2.7-1.4-2.7-2.8
		c0-1.9,1.6-3.2,3.9-3.2c2.3,0,3.9,1.3,3.9,3.2h-2.7c0-0.4-0.5-0.7-1.2-0.7c-0.7,0-1.1,0.3-1.1,0.6c0,0.3,0.2,0.4,0.7,0.5
		c0.6,0.1,1,0.1,1.8,0.2c1.9,0.2,2.7,1.4,2.7,2.8c0,1.9-1.6,3.3-4,3.3c-2.3,0-4-1.4-4-3.3h2.7C280.9,72.3,281.4,72.6,282.2,72.6z"/>
	<path fill="#193062" d="M289.5,71.5c1,0,1.7,0.8,1.7,1.7c0,1-0.7,1.7-1.7,1.7s-1.7-0.8-1.7-1.7C287.8,72.3,288.5,71.5,289.5,71.5z"
		/>
</g>
</svg>
