<svg baseProfile="tiny" xmlns="http://www.w3.org/2000/svg" viewBox="0 0 300 50" overflow="visible"><g fill="#FFF"><path d="M11.4 42.3c0 .4-.1.8-.3 1.1-.2.3-.4.6-.8.8s-.7.3-1.1.3c-.4 0-.8-.1-1.1-.3-.3-.2-.6-.5-.8-.8s-.3-.8-.3-1.2c0-.4.1-.8.3-1.2.2-.3.5-.6.8-.8s.7-.3 1.1-.3c.4 0 .8.1 1.1.3s.6.4.8.8l-.4.2c-.2-.3-.4-.5-.6-.6-.3-.2-.6-.2-.9-.2-.3 0-.6.1-.9.2-.3.2-.5.4-.6.6s-.2.6-.2.9c0 .3.1.7.2.9s.4.5.6.6.6.4.9.4c.3 0 .5-.1.8-.2s.4-.2.6-.4.3-.4.3-.6H9v-.4h2.4zM12.1 40h3.2v.4h-2.8v1.5h1.6v.4h-1.6v1.5h2.8v.4h-3.2V40zM19.5 40v4.4H19l-2.4-3.6v3.6h-.5V40h.5l2.4 3.6V40h.5zM21.8 42.4v.4h-1.4v-.4h1.4zM25.4 43c0 .3-.1.5-.2.7s-.3.4-.5.5c-.2.1-.5.2-.7.2-.3 0-.5-.1-.7-.2-.2-.1-.4-.3-.5-.5s-.2-.4-.2-.7h.4c0 .2 0 .3.1.5.1.1.2.3.3.3.1.1.3.1.5.1s.4 0 .5-.1c.1-.1.3-.2.3-.3.1-.1.1-.3.1-.5s0-.3-.1-.5-.2-.3-.3-.3c-.1-.1-.3-.1-.5-.1h-1.2L23 40h2.2v.4h-1.8l-.2 1.2h.8c.3 0 .5.1.7.2s.4.3.5.5.2.5.2.7zM29.1 43c0 .3-.1.5-.2.7s-.3.4-.5.5-.5.2-.7.2c-.3 0-.5-.1-.7-.2s-.4-.3-.5-.5-.2-.5-.2-.7c0-.2 0-.3.1-.5s.1-.3.2-.5l1.3-2h.5l-1.1 1.7h.4c.3 0 .5.1.7.2.2.1.4.3.5.5.2.1.2.3.2.6zm-.4 0c0-.2 0-.4-.1-.5s-.2-.3-.4-.3c-.2-.1-.3-.2-.5-.2s-.4 0-.5.1c-.2.1-.3.2-.4.3s-.1.3-.1.5 0 .4.1.5.2.3.4.3.3.1.5.1.4 0 .5-.1.3-.2.4-.3.1-.2.1-.4zM30.8 40.5l-1.2.7v-.5l1.2-.7h.5v4.4h-.5v-3.9zM35.6 42.5v.5h-.8v1.4h-.5V43h-2v-.4l1.9-2.6h.5v2.6h.9zm-1.3 0v-1.9l-1.4 1.9h1.4zM38.9 43.9v.4h-2.7V44l1.8-1.9c.1-.2.2-.3.3-.4s.1-.3.1-.4c0-.2 0-.3-.1-.4l-.3-.3c-.1-.1-.3-.1-.5-.1s-.3 0-.4.1l-.3.3c-.1.1-.1.3-.1.4h-.5c0-.2.1-.5.2-.7s.3-.3.5-.5.4-.2.7-.2c.3 0 .5.1.7.2s.4.3.5.5.2.4.2.7c0 .2 0 .4-.1.6s-.2.4-.4.6L37.1 44h1.8zM42.6 41.3c0 .2 0 .3-.1.5s-.1.3-.2.5l-1.3 2h-.5l1.1-1.7h-.4c-.3 0-.5-.1-.7-.2-.2-.1-.4-.3-.5-.5-.1-.2-.2-.4-.2-.7 0-.3.1-.5.2-.7s.3-.4.5-.5.5-.2.7-.2c.3 0 .5.1.7.2s.4.3.5.5.2.6.2.8zm-1.5 1c.2 0 .4 0 .5-.1.2-.1.3-.2.4-.3s.1-.3.1-.5 0-.4-.1-.5-.2-.3-.4-.3-.3-.1-.5-.1-.4 0-.5.1-.3.2-.4.3-.1.3-.1.5 0 .4.1.5.2.3.4.3c.2.1.4.1.5.1zM43.3 40h2.8v.4l-1.7 4h-.5l1.7-3.9h-2.3V40zM47.2 43.7c.1 0 .2 0 .2.1s.1.1.1.2 0 .2-.1.2c-.1.1-.1.1-.2.1s-.2 0-.2-.1c-.1-.1-.1-.1-.1-.2s0-.2.1-.2.1-.1.2-.1zM49.4 40.5l-1.2.7v-.5l1.2-.7h.5v4.4h-.5v-3.9z"/></g></svg>