<svg baseProfile="tiny" xmlns="http://www.w3.org/2000/svg" viewBox="0 0 300 50" overflow="visible"><g fill="#454547"><path d="M80.9 28.8h-1.8v-.7h4.5v.7h-1.9v5.4h-.8v-5.4zM83.8 31.2v-1.4h.7v.9c.2-.6.7-1 1.2-1h.2v.7h-.3c-.6 0-1 .4-1.1 1V34.1h-.8v-2.9zM90.4 33v1.2h-.7v-.7c-.2.4-.7.8-1.4.8s-1.5-.4-1.5-1.9v-2.5h.8v2.4c0 .8.3 1.4 1 1.4.5 0 .9-.4 1-.7 0-.1.1-.3.1-.4v-2.7h.8V33zM91.6 33.2c.4.2.9.4 1.4.4.8 0 1.3-.4 1.3-1s-.3-.9-1.1-1.2c-1-.4-1.6-.9-1.6-1.7 0-.9.8-1.6 2-1.6.6 0 1.1.1 1.3.3l-.3.6c-.2-.1-.6-.3-1.2-.3-.8 0-1.1.5-1.1.9 0 .6.4.8 1.2 1.2 1 .4 1.5.9 1.5 1.8s-.7 1.7-2.1 1.7c-.6 0-1.2-.2-1.5-.4l.2-.7zM97.1 28.6v1.3h1.1v.6h-1.1v2.3c0 .5.2.8.6.8.2 0 .4 0 .5-.1v.6c-.2.1-.4.1-.7.1-.4 0-.7-.1-.9-.3-.2-.2-.3-.6-.3-1.1v-2.4h-.7v-.6h.7v-1l.8-.2zM101.5 34.2l-.1-.5c-.2.3-.7.6-1.3.6-.9 0-1.3-.6-1.3-1.3 0-1.1.9-1.6 2.6-1.6v-.1c0-.4-.1-1-1-1-.4 0-.8.1-1.1.3l-.2-.5c.4-.2.9-.4 1.4-.4 1.3 0 1.7.9 1.7 1.8v1.6c0 .4 0 .7.1 1h-.8zm-.1-2.2c-.9 0-1.8.1-1.8 1 0 .5.3.8.7.8.6 0 .9-.4 1.1-.7V32zM107.2 29.8v3.7c0 1-.2 1.6-.6 2-.4.4-1 .5-1.6.5-.5 0-1.1-.1-1.4-.4l.2-.6c.3.2.7.3 1.3.3.8 0 1.4-.4 1.4-1.5v-.5c-.2.4-.7.7-1.4.7-1.1 0-1.9-.9-1.9-2.1 0-1.5 1-2.3 2-2.3.8 0 1.2.4 1.4.8v-.7h.6zm-.8 1.8v-.4c-.1-.5-.5-.8-1.1-.8-.8 0-1.3.6-1.3 1.6 0 .9.4 1.6 1.3 1.6.5 0 .9-.3 1.1-.8 0-.1.1-.3.1-.4v-.8zM108.9 32.2c0 1.1.7 1.5 1.5 1.5.6 0 .9-.1 1.2-.2l.1.6c-.3.1-.8.3-1.4.3-1.3 0-2.1-.9-2.1-2.2s.8-2.4 2-2.4c1.4 0 1.8 1.3 1.8 2.1v.4h-3.1zm2.3-.6c0-.5-.2-1.3-1.1-1.3-.8 0-1.2.7-1.2 1.3h2.3zM114.6 28.1v.4h-.8v2h-.5v-2h-.8v-.4h2.1zm2.7 2.5l-.1-1.4v-.7c-.1.2-.1.5-.2.7l-.4 1.4h-.6l-.4-1.4c0-.2-.1-.5-.2-.7v.7l-.1 1.4h-.5l.2-2.4h.7l.4 1.2c.1.2.1.4.2.6.1-.2.1-.4.2-.6l.4-1.2h.7l.2 2.4h-.5zM121.3 28.6c0 .3-.2.5-.5.5s-.5-.2-.5-.5.2-.5.5-.5c.4 0 .5.2.5.5zm-.8 5.6v-4.4h.8v4.4h-.8zM122.5 33.4c.2.2.6.3 1 .3.6 0 .8-.3.8-.6 0-.4-.2-.6-.8-.8-.8-.3-1.2-.7-1.2-1.2 0-.7.6-1.3 1.5-1.3.4 0 .8.1 1.1.3l-.2.6c-.2-.1-.5-.3-.9-.3-.5 0-.7.3-.7.6 0 .4.3.5.8.7.8.3 1.1.7 1.1 1.3 0 .8-.6 1.3-1.6 1.3-.5 0-.9-.1-1.2-.3l.3-.6zM131.8 27.8v6.4h-.7v-.8c-.2.5-.8.9-1.5.9-1.1 0-1.9-.9-1.9-2.2 0-1.4.9-2.3 2-2.3.7 0 1.1.3 1.3.7v-2.6h.8zm-.8 3.8v-.3c-.1-.5-.5-.9-1.1-.9-.8 0-1.3.7-1.3 1.7 0 .9.4 1.6 1.3 1.6.5 0 1-.4 1.2-.9v-1.2zM133.6 32.2c0 1.1.7 1.5 1.5 1.5.6 0 .9-.1 1.2-.2l.1.6c-.3.1-.8.3-1.4.3-1.3 0-2.1-.9-2.1-2.2s.8-2.4 2-2.4c1.4 0 1.8 1.3 1.8 2.1v.4h-3.1zm2.3-.6c0-.5-.2-1.3-1.1-1.3-.8 0-1.2.7-1.2 1.3h2.3zM137.5 33.4c.2.2.6.3 1 .3.6 0 .8-.3.8-.6 0-.4-.2-.6-.8-.8-.8-.3-1.2-.7-1.2-1.2 0-.7.6-1.3 1.5-1.3.4 0 .8.1 1.1.3l-.2.6c-.2-.1-.5-.3-.9-.3-.5 0-.7.3-.7.6 0 .4.3.5.8.7.8.3 1.1.7 1.1 1.3 0 .8-.6 1.3-1.6 1.3-.5 0-.9-.1-1.2-.3l.3-.6zM142.1 28.6c0 .3-.2.5-.5.5s-.5-.2-.5-.5.2-.5.5-.5.5.2.5.5zm-.9 5.6v-4.4h.8v4.4h-.8zM147 29.8v3.7c0 1-.2 1.6-.6 2-.4.4-1 .5-1.6.5-.5 0-1.1-.1-1.4-.4l.2-.6c.3.2.7.3 1.3.3.8 0 1.4-.4 1.4-1.5v-.5c-.2.4-.7.7-1.4.7-1.1 0-1.9-.9-1.9-2.1 0-1.5 1-2.3 2-2.3.8 0 1.2.4 1.4.8v-.7h.6zm-.8 1.8v-.4c-.1-.5-.5-.8-1.1-.8-.8 0-1.3.6-1.3 1.6 0 .9.4 1.6 1.3 1.6.5 0 .9-.3 1.1-.8 0-.1.1-.3.1-.4v-.8zM148.3 31v-1.2h.7v.7c.2-.4.7-.8 1.4-.8.6 0 1.5.4 1.5 1.9v2.6h-.8v-2.5c0-.7-.3-1.3-1-1.3-.5 0-.9.4-1.1.8 0 .1-.1.2-.1.4v2.6h-.8V31zM153.7 32.2c0 1.1.7 1.5 1.5 1.5.6 0 .9-.1 1.2-.2l.1.6c-.3.1-.8.3-1.5.3-1.3 0-2.1-.9-2.1-2.2s.8-2.4 2-2.4c1.4 0 1.8 1.3 1.8 2.1v.4h-3zm2.3-.6c0-.5-.2-1.3-1.1-1.3-.8 0-1.2.7-1.2 1.3h2.3zM161.5 27.8v6.4h-.7v-.8c-.2.5-.8.9-1.5.9-1.1 0-1.9-.9-1.9-2.2 0-1.4.9-2.3 2-2.3.7 0 1.1.3 1.3.7v-2.6h.8zm-.8 3.8v-.3c-.1-.5-.5-.9-1.1-.9-.8 0-1.3.7-1.3 1.7 0 .9.4 1.6 1.3 1.6.5 0 1-.4 1.2-.9v-1.2zM165.1 29.8l.6 2.2c.1.5.2.9.3 1.4.1-.4.2-.9.4-1.4l.7-2.2h.7l.7 2.2c.2.5.3 1 .4 1.4.1-.4.2-.9.3-1.4l.6-2.2h.8l-1.4 4.4h-.7l-.7-2.1c-.2-.5-.3-.9-.4-1.4-.1.5-.2 1-.4 1.4l-.7 2.1h-.7l-1.3-4.4h.8zM172.3 28.6c0 .3-.2.5-.5.5s-.5-.2-.5-.5.2-.5.5-.5.5.2.5.5zm-.9 5.6v-4.4h.8v4.4h-.8zM174.4 28.6v1.3h1.1v.6h-1.1v2.3c0 .5.2.8.6.8.2 0 .4 0 .5-.1v.6c-.2.1-.4.1-.7.1-.4 0-.7-.1-.9-.3-.2-.2-.3-.6-.3-1.1v-2.4h-.6v-.6h.7v-1l.7-.2zM176.5 27.8h.8v2.7c.1-.2.3-.4.6-.6.2-.1.5-.2.8-.2.6 0 1.5.4 1.5 1.9v2.6h-.8v-2.5c0-.7-.3-1.3-1-1.3-.5 0-.9.4-1.1.8 0 .1-.1.2-.1.4v2.6h-.8v-6.4zM183.7 29.8l1 2.6.3.9.3-.9.9-2.6h.8l-1.2 3.1c-.6 1.5-1 2.3-1.5 2.7-.4.3-.8.5-1 .5l-.2-.7c.2-.1.5-.2.7-.4.2-.2.5-.5.7-.9 0-.1.1-.1.1-.2 0 0 0-.1-.1-.2l-1.6-4h.8zM191.5 32c0 1.6-1.1 2.3-2.2 2.3-1.2 0-2.1-.9-2.1-2.2 0-1.5 1-2.3 2.2-2.3 1.2-.1 2.1.9 2.1 2.2zm-3.5 0c0 1 .5 1.7 1.3 1.7s1.3-.7 1.3-1.7c0-.7-.4-1.7-1.3-1.7s-1.3.9-1.3 1.7zM196.1 33v1.2h-.7v-.7c-.2.4-.7.8-1.4.8s-1.5-.4-1.5-1.9v-2.5h.8v2.4c0 .8.3 1.4 1 1.4.5 0 .9-.4 1-.7 0-.1.1-.3.1-.4v-2.7h.8V33zM200.2 28.6c0 .3-.2.5-.5.5s-.5-.2-.5-.5.2-.5.5-.5.5.2.5.5zm-.9 5.6v-4.4h.8v4.4h-.8zM201.4 31v-1.2h.7v.7c.2-.4.7-.8 1.4-.8.6 0 1.5.4 1.5 1.9v2.6h-.8v-2.5c0-.7-.3-1.3-1-1.3-.5 0-.9.4-1.1.8 0 .1-.1.2-.1.4v2.6h-.8V31z"/></g><g fill="#454547"><path d="M79.7 40v-1.2h.7v.7c.2-.4.6-.8 1.4-.8.6 0 1 .4 1.2.9.1-.2.3-.4.5-.6.3-.2.5-.3 1-.3.6 0 1.4.4 1.4 1.9v2.6h-.8v-2.5c0-.8-.3-1.3-.9-1.3-.5 0-.8.3-.9.7 0 .1-.1.3-.1.4v2.7h-.8v-2.6c0-.7-.3-1.2-.9-1.2-.5 0-.9.4-1 .8 0 .1-.1.3-.1.4v2.6h-.8V40zM88.1 37.6c0 .3-.2.5-.5.5s-.5-.2-.5-.5.2-.5.5-.5.5.2.5.5zm-.9 5.6v-4.4h.8v4.4h-.8zM89.3 40v-1.2h.7v.7c.2-.4.7-.8 1.4-.8.6 0 1.5.4 1.5 1.9v2.6h-.8v-2.5c0-.7-.3-1.3-1-1.3-.5 0-.9.4-1.1.8 0 .1-.1.2-.1.4v2.6h-.8V40zM98.1 36.8v6.4h-.7v-.8c-.2.5-.8.9-1.5.9-1.1 0-1.9-.9-1.9-2.2 0-1.5.9-2.3 2-2.3.7 0 1.1.3 1.3.7v-2.6h.8zm-.8 3.8v-.3c-.1-.5-.5-.9-1.1-.9-.8 0-1.3.7-1.3 1.7 0 .9.4 1.6 1.3 1.6.5 0 1-.4 1.2-.9v-1.2zM99.1 42.7c0-.3.2-.6.5-.6s.5.2.5.6c0 .3-.2.6-.5.6-.2 0-.5-.2-.5-.6z"/></g></svg>