<svg baseProfile="tiny" xmlns="http://www.w3.org/2000/svg" viewBox="0 0 300 50" overflow="visible"><g fill="#193062"><path d="M89.5 13.5v.5c0 3-2 5.1-5.1 5.1-3.1 0-5.2-2.2-5.2-5.3 0-3 2.2-5.3 5.3-5.3 2 0 3.7 1 4.6 2.5l-1.8 1.2c-.5-.9-1.5-1.6-2.7-1.6-1.8 0-3.1 1.4-3.1 3.1 0 1.9 1.2 3.2 3 3.2 1.2 0 2.1-.6 2.6-1.5h-3.3v-2h5.7zM94.2 11.7c2.1 0 3.7 1.6 3.7 3.7 0 2-1.6 3.7-3.7 3.7s-3.7-1.7-3.7-3.7 1.5-3.7 3.7-3.7zm0 5.4c.9 0 1.6-.7 1.6-1.6 0-.9-.7-1.7-1.6-1.7s-1.6.7-1.6 1.7c-.1.8.6 1.6 1.6 1.6zM103.9 13.9h-1.4v-2h1.4v-1.4c0-1.4.9-2.2 2.3-2.2h1.6v2h-1.2c-.4 0-.6.2-.6.6V12h1.8v2H106v5h-2.1v-5.1zM112.1 11.7c2.1 0 3.7 1.6 3.7 3.7 0 2-1.6 3.7-3.7 3.7s-3.7-1.7-3.7-3.7 1.6-3.7 3.7-3.7zm0 5.4c.9 0 1.6-.7 1.6-1.6 0-.9-.7-1.7-1.6-1.7s-1.6.7-1.6 1.7c0 .8.7 1.6 1.6 1.6zM121.6 11.9v2h-1.1c-.8 0-1.4.6-1.4 1.4V19H117v-7.1h2v.6c.4-.5 1-.6 1.6-.6h1zM132.7 11.9l-2.3 7.1h-2.1l-.9-3-.9 3h-2.1l-2.3-7.1h2.2l1.2 4 1.2-4h1.3l1.2 3.9 1.3-3.9h2.2zM139.3 14.5V19h-2v-.4c-.4.4-1 .5-1.7.5-1.5 0-2.5-.9-2.5-2.2 0-1.5 1.1-2.1 2.5-2.2l1.7-.1v-.1c0-.5-.5-.8-1-.8s-.9.3-1 .7h-2c.1-1.5 1.3-2.5 3-2.5 1.8-.2 3 1 3 2.6zm-2 2V16l-1.4.1c-.5 0-.7.3-.7.6 0 .4.3.7.9.7.7 0 1.2-.3 1.2-.9zM145.6 11.9v2h-1.1c-.8 0-1.4.6-1.4 1.4V19H141v-7.1h2v.6c.4-.5 1-.6 1.6-.6h1zM153.6 8.3V19h-2v-.4c-.5.4-1.1.6-1.8.6-2 0-3.5-1.6-3.5-3.7s1.4-3.7 3.5-3.7c.7 0 1.3.2 1.8.5v-4h2zm-2 7.1c0-1-.7-1.7-1.7-1.7-.9 0-1.6.7-1.6 1.7 0 .9.7 1.7 1.6 1.7 1 0 1.7-.7 1.7-1.7zM169.4 11.9l-2.3 7.1H165l-.9-3-.9 3H161l-2.3-7.1h2.2l1.2 4 1.2-4h1.3l1.2 3.9 1.3-3.9h2.3zM171.5 8.4c.7 0 1.3.6 1.3 1.3 0 .7-.5 1.3-1.3 1.3s-1.3-.6-1.3-1.3c0-.7.5-1.3 1.3-1.3zm1 10.6h-2.1v-7.1h2.1V19zM176.7 11.9h2.2v2h-2.2v2.4c0 .5.3.8.8.8h1.4v2H177c-1.4 0-2.4-.9-2.4-2.4V14h-1v-1.1l1.9-2.4h1.1v1.4zM186.8 14.6V19h-2.1v-4c0-.7-.4-1.2-1.2-1.2-.7 0-1.2.5-1.2 1.2v4h-2.1V8.3h2.1v4c.5-.3 1-.5 1.7-.5 1.6-.1 2.8 1.1 2.8 2.8zM195.8 11.7c1.3 0 2.5.6 3.1 1.7l-1.7 1.2c-.3-.5-.8-.8-1.4-.8-.9 0-1.6.7-1.6 1.7s.7 1.7 1.6 1.7c.6 0 1.1-.3 1.4-.8l1.7 1.2c-.6 1-1.7 1.7-3.1 1.7-2.1 0-3.7-1.6-3.7-3.7s1.6-3.9 3.7-3.9zM203.2 11.7c2.1 0 3.7 1.6 3.7 3.7 0 2-1.6 3.7-3.7 3.7s-3.7-1.7-3.7-3.7 1.6-3.7 3.7-3.7zm0 5.4c.9 0 1.6-.7 1.6-1.6 0-.9-.7-1.7-1.6-1.7s-1.6.7-1.6 1.7c0 .8.6 1.6 1.6 1.6zM214.8 14.5V19h-2.1v-4c0-.7-.4-1.2-1.2-1.2s-1.2.5-1.2 1.2v4h-2.1v-7.1h2v.4c.5-.4 1-.6 1.7-.6 1.7 0 2.9 1.2 2.9 2.8zM217.2 13.9h-1.4v-2h1.4v-1.4c0-1.4.9-2.2 2.3-2.2h1.6v2h-1.2c-.3 0-.6.2-.6.6V12h1.8v2h-1.8v5h-2.1v-5.1zm6.2-5.5c.7 0 1.3.6 1.3 1.3 0 .7-.5 1.3-1.3 1.3s-1.3-.6-1.3-1.3c0-.7.5-1.3 1.3-1.3zm1 10.6h-2.1v-7.1h2.1V19zM233.1 8.3V19h-2v-.4c-.5.4-1.1.6-1.8.6-2 0-3.5-1.6-3.5-3.7s1.4-3.7 3.5-3.7c.7 0 1.3.2 1.8.5v-4h2zm-2 7.1c0-1-.7-1.7-1.7-1.7-.9 0-1.6.7-1.6 1.7 0 .9.7 1.7 1.6 1.7 1 0 1.7-.7 1.7-1.7zM241.5 16.2h-4.9c.2.6.8 1 1.6 1 .7 0 1.2-.3 1.5-.8l1.7 1c-.6 1.1-1.8 1.7-3.2 1.7-2.1 0-3.7-1.6-3.7-3.7s1.5-3.7 3.6-3.7 3.5 1.6 3.5 3.7c0 .3-.1.5-.1.8zm-5-1.5h3c-.2-.7-.8-1-1.5-1-.7-.1-1.3.3-1.5 1zM249.5 14.5V19h-2.1v-4c0-.7-.4-1.2-1.2-1.2s-1.2.5-1.2 1.2v4h-2.1v-7.1h2v.4c.5-.4 1-.6 1.7-.6 1.7 0 2.9 1.2 2.9 2.8zM254.4 11.7c1.3 0 2.5.6 3.1 1.7l-1.7 1.2c-.3-.5-.8-.8-1.4-.8-.9 0-1.6.7-1.6 1.7s.7 1.7 1.6 1.7c.6 0 1.1-.3 1.4-.8l1.7 1.2c-.6 1-1.7 1.7-3.1 1.7-2.1 0-3.7-1.6-3.7-3.7s1.6-3.9 3.7-3.9zM265.1 16.2h-4.9c.2.6.8 1 1.6 1 .7 0 1.2-.3 1.5-.8l1.7 1c-.6 1.1-1.8 1.7-3.2 1.7-2.1 0-3.7-1.6-3.7-3.7s1.5-3.7 3.6-3.7 3.5 1.6 3.5 3.7c0 .3 0 .5-.1.8zm-4.9-1.5h3c-.2-.7-.8-1-1.5-1-.8-.1-1.3.3-1.5 1zM267.6 16.5c.7 0 1.3.6 1.3 1.3 0 .7-.5 1.3-1.3 1.3s-1.3-.6-1.3-1.3c0-.8.6-1.3 1.3-1.3z"/></g></svg>