<svg baseProfile="tiny" xmlns="http://www.w3.org/2000/svg" viewBox="0 0 300 50" overflow="visible"><path fill="#193062" d="M.2-.3h53.7v50.5H.2z"/><path fill="#F9DF7E" d="M5.4 21.5h7v1.9h-7z"/><path fill="#FFF" d="M13 21.5h1.7v1.9H13z"/><path fill="#F9DF7E" d="M5.4 23.9h5.2v1.9H5.4z"/><path fill="#FFF" d="M11.2 23.9h3.4v1.9h-3.4z"/><path fill="#F9DF7E" d="M5.4 26.4h3.4v1.9H5.4z"/><path fill="#FFF" d="M9.4 26.4h5.2v1.9H9.4z"/><path fill="#F9DF7E" d="M5.4 28.8h1.7v1.9H5.4z"/><path fill="#FFF" d="M7.7 28.8h7v1.9h-7zM20.1 24.3h-1.6v-.9h4v.9H21v4.5h-.9z"/><path fill="none" d="M37.9 25.7c-.7 0-1.1.5-1.1 1.2s.5 1.2 1.1 1.2c.7 0 1.1-.5 1.1-1.2s-.5-1.2-1.1-1.2zM42.3 25.7c-.6 0-1.1.5-1.1 1.2s.5 1.2 1.1 1.2c.6 0 1.1-.5 1.1-1.2s-.4-1.2-1.1-1.2zM46.7 25.7c-.5 0-1 .3-1.1.8h2.1c-.1-.6-.5-.8-1-.8z"/><path fill="#FFF" d="M22.3 25v3.8h.8V27c0-.8.4-1.2.9-1.2.2 0 .3 0 .4.1V25h-.3c-.4 0-.9.3-1 .7V25h-.8zM25.1 25v2.3c0 1 .5 1.6 1.4 1.6.5 0 .9-.2 1.1-.6v.5h.8V25h-.8v1.9c0 .8-.4 1.2-.9 1.2s-.8-.4-.8-1V25h-.8zM30.9 28.1c-.5 0-1-.3-1.2-.7l-.7.5c.3.6 1 1 1.9 1 1 0 1.8-.6 1.8-1.5 0-.8-.5-1.3-1.3-1.6l-.5-.2c-.5-.2-.8-.4-.8-.8s.4-.6.8-.6.7.2 1 .5l.6-.6c-.4-.5-1-.7-1.6-.7-1 0-1.7.6-1.7 1.5 0 .7.4 1.2 1.3 1.5l.6.2c.5.2.8.4.8.8-.1.4-.5.7-1 .7zM39.7 28.8V25h-.8v.5c-.2-.3-.7-.6-1.2-.6-1 0-1.8.9-1.8 2s.8 2 1.8 2c.5 0 1-.3 1.2-.6v.5h.8zm-1.8-.7c-.7 0-1.1-.5-1.1-1.2s.5-1.2 1.1-1.2c.7 0 1.1.5 1.1 1.2s-.5 1.2-1.1 1.2zM42.2 29.7c-.5 0-.9-.2-1.2-.6l-.5.6c.4.4 1 .7 1.8.7 1.1 0 2-.6 2-1.9V25h-.8v.5c-.2-.3-.7-.6-1.2-.6-1 0-1.8.8-1.8 1.9 0 1.1.8 1.9 1.8 1.9.5 0 1-.3 1.2-.6v.3c-.1.9-.6 1.3-1.3 1.3zm.1-1.7c-.6 0-1.1-.5-1.1-1.2s.5-1.2 1.1-1.2c.6 0 1.1.5 1.1 1.2S43 28 42.3 28zM46.7 25c-1.1 0-2 .9-2 2s.8 2 2 2c.8 0 1.4-.3 1.7-.9l-.6-.5c-.2.3-.5.6-1.1.6-.6 0-1.1-.4-1.2-1h3v-.3c.1-1.3-.8-1.9-1.8-1.9zm-1.1 1.5c.1-.6.6-.8 1.1-.8.5 0 .9.3 1 .8h-2.1zM33.6 24v.5c0 .3-.3.6-.6.6h-.2v.7h.8v1.8c0 .9.6 1.3 1.3 1.3.3 0 .5 0 .6-.1V28c-.1 0-.3.1-.4.1-.4 0-.6-.2-.6-.6v-1.7h1.1V25h-1.1v-1h-.9zM49.1 24.4l-.2-.4h-.2v.6h.2v-.4l.2.4.2-.4v.4h.1V24h-.1zM48.4 24.6v-.5h.2V24h-.5v.1h.2v.5z"/></svg>