<?xml version="1.0" encoding="utf-8"?>
<!-- Generator: Adobe Illustrator 27.4.0, SVG Export Plug-In . SVG Version: 6.00 Build 0)  -->
<svg version="1.1" baseProfile="tiny" id="Layer_1" xmlns="http://www.w3.org/2000/svg" xmlns:xlink="http://www.w3.org/1999/xlink"
	 x="0px" y="0px" viewBox="0 0 728 90" overflow="visible" xml:space="preserve">
<g>
	<path fill="#193062" d="M193.7,13h10.9v2.9h-7.9v2.6h4.3v2.9h-4.3v5.5h-3V13z"/>
	<path fill="#193062" d="M207.8,12.6c1,0,1.7,0.8,1.7,1.7c0,1-0.7,1.7-1.7,1.7s-1.7-0.8-1.7-1.7C206.1,13.3,206.8,12.6,207.8,12.6z
		 M209.2,26.9h-2.8v-9.6h2.8V26.9z"/>
	<path fill="#193062" d="M220.6,20.9v6h-2.8v-5.4c0-0.9-0.6-1.6-1.6-1.6s-1.6,0.7-1.6,1.6v5.4h-2.8v-9.6h2.8v0.6
		c0.6-0.5,1.4-0.8,2.3-0.8C219,17.1,220.6,18.7,220.6,20.9z"/>
	<path fill="#193062" d="M232.3,12.4v14.5h-2.8v-0.6c-0.6,0.5-1.5,0.8-2.5,0.8c-2.8,0-4.7-2.2-4.7-5c0-2.8,2-5,4.7-5
		c0.9,0,1.7,0.3,2.4,0.7v-5.4H232.3z M229.6,22.1c0-1.3-0.9-2.3-2.2-2.3c-1.3,0-2.2,1-2.2,2.3c0,1.3,0.9,2.2,2.2,2.2
		C228.7,24.4,229.6,23.4,229.6,22.1z"/>
	<path fill="#193062" d="M240.5,13h3v11h7.9v2.9h-10.9V13z"/>
	<path fill="#193062" d="M254.6,12.6c1,0,1.7,0.8,1.7,1.7c0,1-0.7,1.7-1.7,1.7s-1.7-0.8-1.7-1.7C252.9,13.3,253.6,12.6,254.6,12.6z
		 M256.1,26.9h-2.8v-9.6h2.8V26.9z"/>
	<path fill="#193062" d="M259.5,20h-1.9v-2.7h1.9v-1.9c0-1.8,1.2-3,3.1-3h2.1v2.7h-1.6c-0.5,0-0.8,0.3-0.8,0.8v1.5h2.4V20h-2.4v6.9
		h-2.8V20z"/>
	<path fill="#193062" d="M275.1,23.1h-6.7c0.3,0.8,1.1,1.4,2.2,1.4c0.9,0,1.6-0.5,2-1.1l2.2,1.3c-0.8,1.4-2.4,2.4-4.3,2.4
		c-2.9,0-5-2.2-5-5c0-2.8,2-5,4.8-5c2.8,0,4.8,2.1,4.8,5C275.2,22.4,275.1,22.8,275.1,23.1z M268.3,21.1h4.1c-0.3-0.9-1-1.4-2-1.4
		C269.4,19.7,268.6,20.2,268.3,21.1z"/>
	<path fill="#193062" d="M282.7,13h3v13.9h-3V13z"/>
	<path fill="#193062" d="M297.2,20.9v6h-2.8v-5.4c0-0.9-0.6-1.6-1.6-1.6s-1.6,0.7-1.6,1.6v5.4h-2.8v-9.6h2.8v0.6
		c0.6-0.5,1.4-0.8,2.3-0.8C295.6,17.1,297.2,18.7,297.2,20.9z"/>
	<path fill="#193062" d="M303.1,24.6c0.8,0,1.2-0.3,1.2-0.7c0-0.3-0.2-0.5-0.7-0.5c-0.5-0.1-1-0.1-1.7-0.2c-1.9-0.3-2.7-1.4-2.7-2.8
		c0-1.9,1.6-3.2,3.9-3.2c2.3,0,3.9,1.3,3.9,3.2h-2.7c0-0.4-0.5-0.7-1.2-0.7c-0.7,0-1.1,0.3-1.1,0.6c0,0.3,0.2,0.4,0.7,0.5
		c0.6,0.1,1,0.1,1.8,0.2c1.9,0.2,2.7,1.4,2.7,2.8c0,1.9-1.6,3.3-4,3.3c-2.3,0-4-1.4-4-3.3h2.7C301.8,24.3,302.3,24.6,303.1,24.6z"/>
	<path fill="#193062" d="M317.7,17.3v9.6h-2.8v-0.5c-0.6,0.5-1.4,0.7-2.3,0.7c-2.1,0-3.7-1.6-3.7-3.8v-6h2.8v5.4
		c0,0.9,0.6,1.6,1.6,1.6c1,0,1.6-0.7,1.6-1.6v-5.4H317.7z"/>
	<path fill="#193062" d="M326.2,17.3v2.8h-1.4c-1.1,0-1.8,0.8-1.8,1.9v4.9h-2.8v-9.6h2.8v0.9c0.5-0.7,1.4-0.9,2.2-0.9H326.2z"/>
	<path fill="#193062" d="M335.5,20.9v6h-2.8v-0.5c-0.6,0.5-1.3,0.7-2.3,0.7c-2,0-3.3-1.2-3.3-3c0-2,1.5-2.8,3.3-3l2.3-0.2v-0.1
		c0-0.6-0.6-1.1-1.4-1.1c-0.7,0-1.3,0.4-1.4,0.9h-2.7c0.1-2,1.8-3.5,4.1-3.5C333.8,17.1,335.5,18.7,335.5,20.9z M332.8,23.5v-0.6
		l-1.9,0.2c-0.7,0.1-1,0.4-1,0.9c0,0.5,0.4,0.9,1.2,0.9C332.1,24.8,332.8,24.3,332.8,23.5z"/>
	<path fill="#193062" d="M346.8,20.9v6H344v-5.4c0-0.9-0.6-1.6-1.6-1.6s-1.6,0.7-1.6,1.6v5.4H338v-9.6h2.8v0.6
		c0.6-0.5,1.4-0.8,2.3-0.8C345.2,17.1,346.8,18.7,346.8,20.9z"/>
	<path fill="#193062" d="M353.6,17.1c1.8,0,3.3,0.9,4.2,2.2l-2.3,1.6c-0.4-0.6-1-1.1-1.9-1.1c-1.3,0-2.2,1-2.2,2.3
		c0,1.3,0.9,2.2,2.2,2.2c0.8,0,1.5-0.4,1.9-1.1l2.3,1.6c-0.8,1.4-2.3,2.2-4.2,2.2c-2.9,0-5-2.2-5-5
		C348.6,19.3,350.7,17.1,353.6,17.1z"/>
	<path fill="#193062" d="M368.1,23.1h-6.7c0.3,0.8,1.1,1.4,2.2,1.4c0.9,0,1.6-0.5,2-1.1l2.2,1.3c-0.8,1.4-2.4,2.4-4.3,2.4
		c-2.9,0-5-2.2-5-5c0-2.8,2-5,4.8-5c2.8,0,4.8,2.1,4.8,5C368.2,22.4,368.2,22.8,368.1,23.1z M361.4,21.1h4.1c-0.3-0.9-1-1.4-2-1.4
		C362.4,19.7,361.6,20.2,361.4,21.1z"/>
	<path fill="#193062" d="M376.5,20h-1.9v-2.7h1.9v-1.9c0-1.8,1.2-3,3.1-3h2.1v2.7h-1.6c-0.5,0-0.8,0.3-0.8,0.8v1.5h2.4V20h-2.4v6.9
		h-2.8V20z"/>
	<path fill="#193062" d="M387.6,17.1c2.9,0,5,2.2,5,5c0,2.7-2.1,5-5,5s-5-2.2-5-5C382.6,19.3,384.7,17.1,387.6,17.1z M387.6,24.3
		c1.3,0,2.2-1,2.2-2.2c0-1.3-0.9-2.3-2.2-2.3c-1.3,0-2.2,1-2.2,2.3C385.3,23.3,386.3,24.3,387.6,24.3z"/>
	<path fill="#193062" d="M400.5,17.3v2.8h-1.4c-1.1,0-1.8,0.8-1.8,1.9v4.9h-2.8v-9.6h2.8v0.9c0.5-0.7,1.4-0.9,2.2-0.9H400.5z"/>
	<path fill="#193062" d="M415.5,17.3l-4.9,13.6h-2.9l1.5-4.2l-3.4-9.4h3l1.8,5.2l1.9-5.2H415.5z"/>
	<path fill="#193062" d="M421,17.1c2.9,0,5,2.2,5,5c0,2.7-2.1,5-5,5s-5-2.2-5-5C416,19.3,418.1,17.1,421,17.1z M421,24.3
		c1.3,0,2.2-1,2.2-2.2c0-1.3-0.9-2.3-2.2-2.3c-1.3,0-2.2,1-2.2,2.3C418.8,23.3,419.7,24.3,421,24.3z"/>
	<path fill="#193062" d="M436.6,17.3v9.6h-2.8v-0.5c-0.6,0.5-1.4,0.7-2.3,0.7c-2.1,0-3.7-1.6-3.7-3.8v-6h2.8v5.4
		c0,0.9,0.6,1.6,1.6,1.6s1.6-0.7,1.6-1.6v-5.4H436.6z"/>
	<path fill="#193062" d="M445.2,17.3v2.8h-1.4c-1.1,0-1.8,0.8-1.8,1.9v4.9h-2.8v-9.6h2.8v0.9c0.5-0.7,1.4-0.9,2.2-0.9H445.2z"/>
</g>
<g>
	<path fill="#193062" d="M194.5,44h-1.9v-2.7h1.9v-1.9c0-1.8,1.2-3,3.1-3h2.1v2.7H198c-0.5,0-0.8,0.3-0.8,0.8v1.5h2.4V44h-2.4v6.9
		h-2.8V44z"/>
	<path fill="#193062" d="M209,44.9v6h-2.8v-0.5c-0.6,0.5-1.3,0.7-2.3,0.7c-2,0-3.3-1.2-3.3-3c0-2,1.5-2.8,3.3-3l2.3-0.2v-0.1
		c0-0.6-0.6-1.1-1.4-1.1c-0.7,0-1.3,0.4-1.4,0.9h-2.7c0.1-2,1.8-3.5,4.1-3.5C207.3,41.1,209,42.7,209,44.9z M206.3,47.5v-0.6
		l-1.9,0.2c-0.7,0.1-1,0.4-1,0.9c0,0.5,0.4,0.9,1.2,0.9C205.6,48.8,206.3,48.3,206.3,47.5z"/>
	<path fill="#193062" d="M225.5,44.6v6.2h-2.8v-5.6c0-0.8-0.5-1.4-1.4-1.4c-0.8,0-1.4,0.6-1.4,1.4v5.6h-2.8v-5.6
		c0-0.8-0.5-1.4-1.4-1.4c-0.8,0-1.4,0.6-1.4,1.4v5.6h-2.8v-9.6h2.8v0.5c0.6-0.4,1.3-0.7,2.1-0.7c1,0,1.9,0.4,2.5,1
		c0.7-0.6,1.6-1,2.7-1C223.8,41.1,225.5,42.6,225.5,44.6z"/>
	<path fill="#193062" d="M229.3,36.6c1,0,1.7,0.8,1.7,1.7c0,1-0.7,1.7-1.7,1.7s-1.7-0.8-1.7-1.7C227.6,37.3,228.3,36.6,229.3,36.6z
		 M230.7,50.9h-2.8v-9.6h2.8V50.9z"/>
	<path fill="#193062" d="M233.2,36.4h2.8v14.5h-2.8V36.4z"/>
	<path fill="#193062" d="M247.1,41.3l-4.9,13.6h-2.9l1.5-4.2l-3.4-9.4h3l1.8,5.2l1.9-5.2H247.1z"/>
	<path fill="#193062" d="M266.7,41.3l-3.2,9.6h-2.9l-1.2-4l-1.2,4h-2.9l-3.2-9.6h3l1.7,5.4l1.7-5.4h1.8l1.6,5.2l1.7-5.2H266.7z"/>
	<path fill="#193062" d="M269.6,36.6c1,0,1.7,0.8,1.7,1.7c0,1-0.7,1.7-1.7,1.7s-1.7-0.8-1.7-1.7C267.8,37.3,268.6,36.6,269.6,36.6z
		 M271,50.9h-2.8v-9.6h2.8V50.9z"/>
	<path fill="#193062" d="M276.6,41.3h2.9V44h-2.9v3.2c0,0.6,0.4,1,1,1h1.9v2.7h-2.5c-1.9,0-3.3-1.3-3.3-3.2V44h-1.4v-1.4l2.6-3.2
		h1.5V41.3z"/>
	<path fill="#193062" d="M290.3,44.9v6h-2.8v-5.4c0-0.9-0.6-1.7-1.6-1.7c-1,0-1.7,0.7-1.7,1.7v5.4h-2.8V36.4h2.8v5.4
		c0.6-0.5,1.4-0.7,2.3-0.7C288.8,41.1,290.3,42.7,290.3,44.9z"/>
	<path fill="#193062" d="M302.6,41.1c1.8,0,3.3,0.9,4.2,2.2l-2.3,1.6c-0.4-0.6-1-1.1-1.9-1.1c-1.3,0-2.2,1-2.2,2.3
		c0,1.3,0.9,2.2,2.2,2.2c0.8,0,1.5-0.4,1.9-1.1l2.3,1.6c-0.8,1.4-2.3,2.2-4.2,2.2c-2.9,0-5-2.2-5-5S299.7,41.1,302.6,41.1z"/>
	<path fill="#193062" d="M308.2,36.4h2.8v14.5h-2.8V36.4z"/>
	<path fill="#193062" d="M322.4,47.1h-6.7c0.3,0.8,1.1,1.4,2.2,1.4c0.9,0,1.6-0.5,2-1.1l2.2,1.3c-0.8,1.4-2.4,2.4-4.3,2.4
		c-2.9,0-5-2.2-5-5c0-2.8,2-5,4.8-5c2.8,0,4.8,2.1,4.8,5C322.6,46.4,322.5,46.8,322.4,47.1z M315.7,45.1h4.1c-0.3-0.9-1-1.4-2-1.4
		C316.7,43.7,316,44.2,315.7,45.1z"/>
	<path fill="#193062" d="M332.3,44.9v6h-2.8v-0.5c-0.6,0.5-1.3,0.7-2.3,0.7c-2,0-3.3-1.2-3.3-3c0-2,1.5-2.8,3.3-3l2.3-0.2v-0.1
		c0-0.6-0.6-1.1-1.4-1.1c-0.7,0-1.3,0.4-1.4,0.9h-2.7c0.1-2,1.8-3.5,4.1-3.5C330.6,41.1,332.3,42.7,332.3,44.9z M329.6,47.5v-0.6
		l-1.9,0.2c-0.7,0.1-1,0.4-1,0.9c0,0.5,0.4,0.9,1.2,0.9C329,48.8,329.6,48.3,329.6,47.5z"/>
	<path fill="#193062" d="M340.9,41.3v2.8h-1.4c-1.1,0-1.8,0.8-1.8,1.9v4.9h-2.8v-9.6h2.8v0.9c0.5-0.7,1.4-0.9,2.2-0.9H340.9z"/>
	<path fill="#193062" d="M349.4,36.6c1,0,1.7,0.8,1.7,1.7c0,1-0.7,1.7-1.7,1.7s-1.7-0.8-1.7-1.7C347.6,37.3,348.4,36.6,349.4,36.6z
		 M350.8,50.9H348v-9.6h2.8V50.9z"/>
	<path fill="#193062" d="M362.1,44.9v6h-2.8v-5.4c0-0.9-0.6-1.6-1.6-1.6s-1.6,0.7-1.6,1.6v5.4h-2.8v-9.6h2.8v0.6
		c0.6-0.5,1.4-0.8,2.3-0.8C360.5,41.1,362.1,42.7,362.1,44.9z"/>
	<path fill="#193062" d="M365.4,44h-1.9v-2.7h1.9v-1.9c0-1.8,1.2-3,3.1-3h2.1v2.7H369c-0.5,0-0.8,0.3-0.8,0.8v1.5h2.4V44h-2.4v6.9
		h-2.8V44z"/>
	<path fill="#193062" d="M376.5,41.1c2.9,0,5,2.2,5,5c0,2.7-2.1,5-5,5s-5-2.2-5-5C371.5,43.3,373.6,41.1,376.5,41.1z M376.5,48.3
		c1.3,0,2.2-1,2.2-2.2c0-1.3-0.9-2.3-2.2-2.3c-1.3,0-2.2,1-2.2,2.3C374.3,47.3,375.2,48.3,376.5,48.3z"/>
	<path fill="#193062" d="M389.4,41.3v2.8H388c-1.1,0-1.8,0.8-1.8,1.9v4.9h-2.8v-9.6h2.8v0.9c0.5-0.7,1.4-0.9,2.2-0.9H389.4z"/>
	<path fill="#193062" d="M405,44.6v6.2h-2.8v-5.6c0-0.8-0.5-1.4-1.4-1.4c-0.8,0-1.4,0.6-1.4,1.4v5.6h-2.8v-5.6
		c0-0.8-0.5-1.4-1.4-1.4c-0.8,0-1.4,0.6-1.4,1.4v5.6H391v-9.6h2.8v0.5c0.6-0.4,1.3-0.7,2.1-0.7c1,0,1.9,0.4,2.5,1
		c0.7-0.6,1.6-1,2.7-1C403.4,41.1,405,42.6,405,44.6z"/>
	<path fill="#193062" d="M415.4,44.9v6h-2.8v-0.5c-0.6,0.5-1.3,0.7-2.3,0.7c-2,0-3.3-1.2-3.3-3c0-2,1.5-2.8,3.3-3l2.3-0.2v-0.1
		c0-0.6-0.6-1.1-1.4-1.1c-0.7,0-1.3,0.4-1.4,0.9h-2.7c0.1-2,1.8-3.5,4.1-3.5C413.7,41.1,415.4,42.7,415.4,44.9z M412.6,47.5v-0.6
		l-1.9,0.2c-0.7,0.1-1,0.4-1,0.9c0,0.5,0.4,0.9,1.2,0.9C412,48.8,412.6,48.3,412.6,47.5z"/>
	<path fill="#193062" d="M420.9,41.3h2.9V44h-2.9v3.2c0,0.6,0.4,1,1,1h1.9v2.7h-2.5c-1.9,0-3.3-1.3-3.3-3.2V44h-1.4v-1.4l2.6-3.2
		h1.5V41.3z"/>
	<path fill="#193062" d="M427.2,36.6c1,0,1.7,0.8,1.7,1.7c0,1-0.7,1.7-1.7,1.7s-1.7-0.8-1.7-1.7C425.4,37.3,426.2,36.6,427.2,36.6z
		 M428.6,50.9h-2.8v-9.6h2.8V50.9z"/>
	<path fill="#193062" d="M435.4,41.1c2.9,0,5,2.2,5,5c0,2.7-2.1,5-5,5s-5-2.2-5-5C430.4,43.3,432.5,41.1,435.4,41.1z M435.4,48.3
		c1.3,0,2.2-1,2.2-2.2c0-1.3-0.9-2.3-2.2-2.3c-1.3,0-2.2,1-2.2,2.3C433.2,47.3,434.2,48.3,435.4,48.3z"/>
	<path fill="#193062" d="M451.1,44.9v6h-2.8v-5.4c0-0.9-0.6-1.6-1.6-1.6s-1.6,0.7-1.6,1.6v5.4h-2.8v-9.6h2.8v0.6
		c0.6-0.5,1.4-0.8,2.3-0.8C449.5,41.1,451.1,42.7,451.1,44.9z"/>
</g>
<g>
	<path fill="#193062" d="M194.5,68h-1.9v-2.7h1.9v-1.9c0-1.8,1.2-3,3.1-3h2.1v2.7H198c-0.5,0-0.8,0.3-0.8,0.8v1.5h2.4V68h-2.4v6.9
		h-2.8V68z"/>
	<path fill="#193062" d="M207.5,65.3v2.8h-1.4c-1.1,0-1.8,0.8-1.8,1.9v4.9h-2.8v-9.6h2.8v0.9c0.5-0.7,1.4-0.9,2.2-0.9H207.5z"/>
	<path fill="#193062" d="M213.4,65.1c2.9,0,5,2.2,5,5c0,2.7-2.1,5-5,5c-2.9,0-5-2.2-5-5C208.4,67.3,210.5,65.1,213.4,65.1z
		 M213.4,72.3c1.3,0,2.2-1,2.2-2.2c0-1.3-0.9-2.3-2.2-2.3c-1.3,0-2.2,1-2.2,2.3C211.2,71.3,212.1,72.3,213.4,72.3z"/>
	<path fill="#193062" d="M234.3,68.6v6.2h-2.8v-5.6c0-0.8-0.5-1.4-1.4-1.4c-0.8,0-1.4,0.6-1.4,1.4v5.6h-2.8v-5.6
		c0-0.8-0.5-1.4-1.4-1.4c-0.8,0-1.4,0.6-1.4,1.4v5.6h-2.8v-9.6h2.8v0.5c0.6-0.4,1.3-0.7,2.1-0.7c1,0,1.9,0.4,2.5,1
		c0.7-0.6,1.6-1,2.7-1C232.6,65.1,234.3,66.6,234.3,68.6z"/>
	<path fill="#193062" d="M245.4,65.3h2.9V68h-2.9v3.2c0,0.6,0.4,1,1,1h1.9v2.7h-2.5c-1.9,0-3.3-1.3-3.3-3.2V68h-1.4v-1.4l2.6-3.2
		h1.5V65.3z"/>
	<path fill="#193062" d="M259.1,68.9v6h-2.8v-5.4c0-0.9-0.6-1.7-1.6-1.7c-1,0-1.7,0.7-1.7,1.7v5.4h-2.8V60.4h2.8v5.4
		c0.6-0.5,1.4-0.7,2.3-0.7C257.5,65.1,259.1,66.7,259.1,68.9z"/>
	<path fill="#193062" d="M270.4,71.1h-6.7c0.3,0.8,1.1,1.4,2.2,1.4c0.9,0,1.6-0.5,2-1.1l2.2,1.3c-0.8,1.4-2.4,2.4-4.3,2.4
		c-2.9,0-5-2.2-5-5c0-2.8,2-5,4.8-5c2.8,0,4.8,2.1,4.8,5C270.5,70.4,270.5,70.8,270.4,71.1z M263.7,69.1h4.1c-0.3-0.9-1-1.4-2-1.4
		C264.7,67.7,263.9,68.1,263.7,69.1z"/>
	<path fill="#193062" d="M281.3,72.6c0.8,0,1.2-0.3,1.2-0.7c0-0.3-0.2-0.5-0.7-0.5c-0.5-0.1-1-0.1-1.7-0.2c-1.9-0.3-2.7-1.4-2.7-2.8
		c0-1.9,1.6-3.2,3.9-3.2c2.3,0,3.9,1.3,3.9,3.2h-2.7c0-0.4-0.5-0.7-1.2-0.7c-0.7,0-1.1,0.3-1.1,0.6c0,0.3,0.2,0.4,0.7,0.5
		c0.6,0.1,1,0.1,1.8,0.2c1.9,0.2,2.7,1.4,2.7,2.8c0,1.9-1.6,3.3-4,3.3c-2.3,0-4-1.4-4-3.3h2.7C280,72.3,280.5,72.6,281.3,72.6z"/>
	<path fill="#193062" d="M290.2,65.3h2.9V68h-2.9v3.2c0,0.6,0.4,1,1,1h1.9v2.7h-2.5c-1.9,0-3.3-1.3-3.3-3.2V68H286v-1.4l2.6-3.2h1.5
		V65.3z"/>
	<path fill="#193062" d="M303,68.9v6h-2.8v-0.5c-0.6,0.5-1.3,0.7-2.3,0.7c-2,0-3.3-1.2-3.3-3c0-2,1.5-2.8,3.3-3l2.3-0.2v-0.1
		c0-0.6-0.6-1.1-1.4-1.1c-0.7,0-1.3,0.4-1.4,0.9h-2.7c0.1-2,1.8-3.5,4.1-3.5C301.3,65.1,303,66.7,303,68.9z M300.2,71.5v-0.6
		l-1.9,0.2c-0.7,0.1-1,0.4-1,0.9c0,0.5,0.4,0.9,1.2,0.9C299.6,72.8,300.2,72.3,300.2,71.5z"/>
	<path fill="#193062" d="M311.5,65.3v2.8h-1.4c-1.1,0-1.8,0.8-1.8,1.9v4.9h-2.8v-9.6h2.8v0.9c0.5-0.7,1.4-0.9,2.2-0.9H311.5z"/>
	<path fill="#193062" d="M316.5,65.3h2.9V68h-2.9v3.2c0,0.6,0.4,1,1,1h1.9v2.7H317c-1.9,0-3.3-1.3-3.3-3.2V68h-1.4v-1.4l2.6-3.2h1.5
		V65.3z"/>
	<path fill="#193062" d="M322.9,71.5c1,0,1.7,0.8,1.7,1.7c0,1-0.7,1.7-1.7,1.7s-1.7-0.8-1.7-1.7C321.1,72.3,321.9,71.5,322.9,71.5z"
		/>
</g>
</svg>
