<?xml version="1.0" encoding="utf-8"?>
<!-- Generator: Adobe Illustrator 27.4.0, SVG Export Plug-In . SVG Version: 6.00 Build 0)  -->
<svg version="1.1" baseProfile="tiny" id="Layer_1" xmlns="http://www.w3.org/2000/svg" xmlns:xlink="http://www.w3.org/1999/xlink"
	 x="0px" y="0px" viewBox="0 0 728 90" overflow="visible" xml:space="preserve">
<rect x="590.1" y="0.2" fill="#193062" width="137.8" height="89.5"/>
<rect x="605.1" y="32.1" fill="#FAE07E" width="16.7" height="4.6"/>
<rect x="623.2" y="32.1" fill="#FFFFFF" width="4" height="4.6"/>
<rect x="605.1" y="38" fill="#FAE07E" width="12.5" height="4.6"/>
<rect x="619" y="38" fill="#FFFFFF" width="8.2" height="4.6"/>
<rect x="605.1" y="43.8" fill="#FAE07E" width="8.2" height="4.6"/>
<rect x="614.8" y="43.8" fill="#FFFFFF" width="12.5" height="4.6"/>
<rect x="605.1" y="49.6" fill="#FAE07E" width="4" height="4.6"/>
<rect x="610.6" y="49.6" fill="#FFFFFF" width="16.7" height="4.6"/>
<polygon fill="#FFFFFF" points="640.2,38.8 636.5,38.8 636.5,36.8 646.1,36.8 646.1,38.8 642.3,38.8 642.3,49.6 640.2,49.6 "/>
<g>
	<path fill="none" d="M682.8,42.2c-1.6,0-2.7,1.3-2.7,2.9c0,1.6,1.1,2.9,2.7,2.9c1.6,0,2.7-1.3,2.7-2.9
		C685.5,43.5,684.4,42.2,682.8,42.2z"/>
	<path fill="none" d="M693.5,42.2c-1.5,0-2.7,1.2-2.7,2.8c0,1.6,1.2,2.8,2.7,2.8c1.5,0,2.7-1.2,2.7-2.8
		C696.2,43.4,695,42.2,693.5,42.2z"/>
	<path fill="none" d="M704,42.1c-1.2,0-2.3,0.7-2.6,2h5C706.2,42.8,705.2,42.1,704,42.1z"/>
	<path fill="#FFFFFF" d="M645.6,40.6v9h2v-4.4c0-1.8,1-2.8,2.2-2.8c0.4,0,0.6,0.1,1,0.2v-2c-0.3-0.1-0.5-0.1-0.8-0.1
		c-1,0-2,0.7-2.4,1.7v-1.6H645.6z"/>
	<path fill="#FFFFFF" d="M652.2,40.6V46c0,2.3,1.3,3.8,3.4,3.8c1.2,0,2.1-0.5,2.6-1.4v1.2h2v-9h-2V45c0,1.9-0.9,3-2.2,3
		c-1.2,0-1.8-0.9-1.8-2.3v-5.1H652.2z"/>
	<path fill="#FFFFFF" d="M666.1,47.8c-1.2,0-2.3-0.6-3-1.6l-1.7,1.3c0.8,1.4,2.5,2.3,4.6,2.3c2.5,0,4.3-1.5,4.3-3.7
		c0-1.9-1.1-3.1-3-3.8l-1.3-0.5c-1.3-0.5-1.9-0.9-1.9-1.8c0-0.9,0.9-1.5,2-1.5c1,0,1.8,0.4,2.4,1.2l1.5-1.4
		c-0.9-1.1-2.3-1.8-3.9-1.8c-2.4,0-4.2,1.4-4.2,3.6c0,1.8,1,2.9,3,3.6l1.4,0.5c1.2,0.5,1.8,1,1.8,2
		C668.2,47.2,667.3,47.8,666.1,47.8z"/>
	<path fill="#FFFFFF" d="M687.3,49.6v-9h-2v1.2c-0.5-0.7-1.6-1.4-2.9-1.4c-2.5,0-4.3,2.1-4.3,4.7c0,2.6,1.9,4.7,4.3,4.7
		c1.3,0,2.4-0.7,2.9-1.4v1.2H687.3z M682.8,48c-1.6,0-2.7-1.3-2.7-2.9c0-1.6,1.1-2.9,2.7-2.9c1.6,0,2.7,1.3,2.7,2.9
		C685.5,46.7,684.4,48,682.8,48z"/>
	<path fill="#FFFFFF" d="M693.3,51.8c-1.2,0-2.2-0.5-3-1.3l-1.2,1.4c0.9,1,2.5,1.7,4.2,1.7c2.7,0,4.7-1.4,4.7-4.6v-8.4h-2v1.2
		c-0.5-0.8-1.6-1.4-2.9-1.4c-2.4,0-4.3,2-4.3,4.6c0,2.6,1.9,4.6,4.3,4.6c1.2,0,2.3-0.6,2.9-1.4V49C696,50.8,694.8,51.8,693.3,51.8z
		 M693.5,47.7c-1.5,0-2.7-1.2-2.7-2.8c0-1.6,1.2-2.8,2.7-2.8c1.5,0,2.7,1.2,2.7,2.8C696.2,46.6,695,47.7,693.5,47.7z"/>
	<path fill="#FFFFFF" d="M704.1,40.4c-2.7,0-4.7,2-4.7,4.7c0,2.7,2,4.7,4.7,4.7c1.9,0,3.3-0.8,4.1-2.1l-1.5-1.1
		c-0.5,0.8-1.3,1.4-2.6,1.4c-1.5,0-2.7-1-2.8-2.5h7.1c0-0.3,0-0.5,0-0.7C708.4,42,706.4,40.4,704.1,40.4z M701.4,44.1
		c0.3-1.3,1.4-2,2.6-2c1.2,0,2.2,0.7,2.4,2H701.4z"/>
	<path fill="#FFFFFF" d="M672.6,38.1l0,1.1c0,0.8-0.6,1.4-1.4,1.4l-0.5,0v1.8h1.9v4.4c0,2,1.4,3,3.1,3c0.6,0,1.1-0.1,1.5-0.2v-1.8
		c-0.3,0.1-0.7,0.2-1.1,0.2c-1,0-1.5-0.4-1.5-1.5v-4h2.6v-1.8h-2.6v-2.5H672.6z"/>
	<polygon fill="#FFFFFF" points="709.6,39 709.2,38.1 708.9,38.1 708.9,39.6 709.2,39.6 709.2,38.7 709.6,39.7 710.1,38.7 
		710.1,39.6 710.4,39.6 710.4,38.1 710.1,38.1 	"/>
	<polygon fill="#FFFFFF" points="708.1,39.7 708.1,38.4 708.6,38.4 708.6,38.1 707.3,38.1 707.3,38.4 707.8,38.4 707.8,39.7 	"/>
</g>
</svg>
