<svg baseProfile="tiny" xmlns="http://www.w3.org/2000/svg" viewBox="0 0 300 50" overflow="visible"><g fill="#FFF"><path d="M10.7 42c0 .3-.1.6-.2.9-.2.3-.4.5-.6.6s-.6.2-.9.2c-.4 0-.7-.1-1-.2s-.5-.4-.7-.7c-.2-.3-.2-.6-.2-1s.1-.7.2-1c.2-.3.4-.5.7-.7.3 0 .6-.1 1-.1.3 0 .7.1.9.2.3.2.5.4.6.6l-.3.2c-.1-.2-.3-.4-.5-.5s-.5-.1-.7-.1c-.3 0-.5.1-.8.2-.2.1-.4.3-.5.5-.1.2-.2.5-.2.8 0 .3.1.6.2.8.1.2.3.4.5.5.2.1.5.2.8.2.2 0 .4 0 .6-.1.2-.1.3-.2.5-.4.1-.2.2-.3.3-.5H8.8V42h1.9zM11.4 40h2.7v.4h-2.3v1.3h1.4v.4h-1.4v1.3h2.3v.4h-2.7V40zM17.5 40v3.7h-.4l-2-3v3h-.4V40h.4l2 3v-3h.4zM19.4 42.1v.4h-1.1v-.4h1.1zM22.6 42.2v.4h-.7v1.1h-.4v-1.1h-1.6v-.3l1.6-2.2h.4v2.1h.7zm-1.1 0v-1.6l-1.2 1.6h1.2zM22.9 40h2.3v.4l-1.4 3.3h-.4l1.4-3.3h-1.9V40zM28.1 42.7c0 .2 0 .4-.1.5-.1.2-.2.3-.4.4s-.4.1-.6.1-.4 0-.6-.1c-.2-.1-.3-.2-.4-.4-.1-.2-.1-.3-.1-.5s0-.4.1-.5c.1-.2.2-.3.4-.4l-.3-.3c-.1-.1-.1-.3-.1-.5s0-.4.1-.5.2-.3.4-.4.3-.1.5-.1.4 0 .6.1c.2.1.3.2.4.4s0 .3 0 .5 0 .3-.1.5c-.1.1-.2.3-.3.3.2.1.3.2.4.4 0 .1.1.3.1.5zm-.4 0c0-.1 0-.3-.1-.4s-.1-.2-.3-.2c-.1-.1-.2-.1-.3-.1s-.3 0-.4.1-.2.1-.3.2c-.1.1-.1.2-.1.4s0 .3.1.4.1.2.3.3c.1.1.2.1.4.1.1 0 .3 0 .4-.1.1-.1.2-.1.3-.3s0-.3 0-.4zM26.3 41c0 .1 0 .2.1.3.1.1.1.2.2.2.1.1.2.1.4.1s.3 0 .4-.1c.1-.1.2-.1.2-.2.1-.1.1-.2.1-.3s0-.2-.1-.3c-.1-.1-.1-.2-.2-.2s-.2-.1-.4-.1-.3 0-.4.1c-.1.1-.2.1-.2.2-.1.1-.1.2-.1.3zM31 42.7c0 .2 0 .4-.1.5-.1.2-.2.3-.4.4s-.4.1-.6.1c-.2 0-.4 0-.6-.1-.2-.1-.3-.2-.4-.4-.1-.2-.1-.3-.1-.5h.4c0 .1 0 .2.1.3.1.1.2.2.3.2s.2.1.4.1c.1 0 .3 0 .4-.1.1-.1.2-.1.3-.2.1-.1.1-.2.1-.4 0-.1 0-.3-.1-.4-.1-.1-.1-.2-.3-.2h-.9v-.4h.4c.1 0 .2 0 .3-.1s.2-.1.2-.2.1-.2.1-.3c0-.1 0-.2-.1-.3s-.1-.2-.2-.2-.2-.1-.3-.1c-.1 0-.2 0-.3.1s-.2.1-.2.2c-.1.1-.1.2-.1.3h-.4c0-.2 0-.4.1-.5.1-.2.2-.3.4-.4.2-.1.3-.1.5-.1s.4 0 .5.1c.2.1.3.2.4.4.1.2.1.3.1.5s0 .3-.1.5c-.1.1-.2.3-.3.3.2.1.3.2.4.4.1.1.1.3.1.5zM32.6 40.5l-1 .6v-.4l1-.6h.4v3.7h-.4v-3.3zM33.9 40h2.3v.4l-1.4 3.3h-.4l1.4-3.3h-1.9V40zM39.1 42.2v.4h-.7v1.1H38v-1.1h-1.6v-.3L38 40h.4v2.1h.7zm-1 0v-1.6l-1.2 1.6h1.2zM39.9 43.2c.1 0 .2 0 .2.1.1.1.1.1.1.2s0 .2-.1.2c-.1.1-.1.1-.2.1s-.2 0-.2-.1c-.1-.1-.1-.1-.1-.2s0-.2.1-.2c0-.1.1-.1.2-.1zM43.1 43.3v.4h-2.2v-.3l1.5-1.6c.1-.1.2-.2.3-.4.1-.1.1-.2.1-.4 0-.1 0-.3-.1-.4-.1-.1-.1-.2-.3-.3-.1-.1-.2-.1-.4-.1-.1 0-.3 0-.4.1-.1.1-.2.1-.3.2s-.1.2-.1.4h-.4c0-.2 0-.4.1-.5.1-.2.2-.3.4-.4h.7c.2 0 .4 0 .6.1.2.1.3.2.4.4.1.2.1.3.1.6 0 .2 0 .4-.1.5-.1.2-.2.3-.4.5l-1.2 1.3h1.7z"/></g></svg>