<svg baseProfile="tiny" xmlns="http://www.w3.org/2000/svg" viewBox="0 0 300 50" overflow="visible"><path fill="#FAE07E" d="M8.1 17h9.1v2.5H8.1z"/><path fill="#FFF" d="M18 17h2.2v2.5H18z"/><path fill="#FAE07E" d="M8.1 20.2h6.8v2.5H8.1z"/><path fill="#FFF" d="M15.7 20.2h4.5v2.5h-4.5z"/><path fill="#FAE07E" d="M8.1 23.4h4.5v2.5H8.1z"/><path fill="#FFF" d="M13.4 23.4h6.8v2.5h-6.8z"/><path fill="#FAE07E" d="M8.1 26.6h2.2v2.5H8.1z"/><path fill="#FFF" d="M11.1 26.6h9.1v2.5h-9.1zM27.2 20.7h-2v-1.1h5.2v1.1h-2v5.9h-1.2z"/><path fill="none" d="M61.9 22.5c-.6 0-1.3.4-1.4 1.1h2.7c-.1-.8-.7-1.1-1.3-1.1z"/><ellipse fill="none" cx="56.2" cy="24" rx="1.5" ry="1.5"/><path fill="none" d="M50.4 22.5c-.9 0-1.5.7-1.5 1.6s.6 1.6 1.5 1.6 1.5-.7 1.5-1.6-.6-1.6-1.5-1.6z"/><path fill="#FFF" d="M30.1 21.6v4.9h1.1v-2.4c0-1 .6-1.5 1.2-1.5.2 0 .4 0 .5.1v-1.1h-.4c-.6 0-1.1.4-1.3.9v-.9h-1.1zM33.7 21.6v2.9c0 1.3.7 2.1 1.8 2.1.6 0 1.1-.3 1.4-.8v.7H38v-4.9h-1V24c0 1.1-.5 1.6-1.2 1.6-.6 0-1-.5-1-1.3v-2.8h-1.1zM41.3 25.6c-.7 0-1.3-.3-1.6-.9l-.9.7c.4.7 1.4 1.3 2.5 1.3 1.4 0 2.3-.8 2.3-2 0-1-.6-1.7-1.6-2l-.7-.3c-.7-.3-1.1-.5-1.1-1s.5-.8 1.1-.8c.5 0 1 .2 1.3.6l.8-.8c-.5-.6-1.2-1-2.1-1-1.3 0-2.3.7-2.3 2 0 1 .5 1.6 1.6 2l.8.3c.7.2 1 .6 1 1.1 0 .4-.4.8-1.1.8zM52.8 26.6v-4.9h-1.1v.7c-.3-.4-.9-.8-1.6-.8-1.3 0-2.4 1.2-2.4 2.6 0 1.4 1 2.6 2.4 2.6.7 0 1.3-.4 1.6-.8v.7h1.1zm-2.4-.9c-.9 0-1.5-.7-1.5-1.6s.6-1.6 1.5-1.6 1.5.7 1.5 1.6-.6 1.6-1.5 1.6zM56.1 27.7c-.7 0-1.2-.3-1.6-.7l-.7.8c.5.5 1.3.9 2.3.9 1.5 0 2.5-.8 2.5-2.5v-4.6h-1.1v.7c-.3-.4-.9-.8-1.6-.8-1.3 0-2.4 1.1-2.4 2.5s1 2.5 2.4 2.5c.7 0 1.3-.3 1.6-.8v.5c.1 1-.6 1.5-1.4 1.5zm.1-2.2c-.8 0-1.5-.6-1.5-1.5s.6-1.5 1.5-1.5c.8 0 1.5.6 1.5 1.5s-.7 1.5-1.5 1.5zM62 21.5c-1.5 0-2.6 1.1-2.6 2.6s1.1 2.6 2.6 2.6c1 0 1.8-.4 2.2-1.1l-.8-.6c-.3.4-.7.7-1.4.7-.8 0-1.5-.5-1.5-1.3h3.9V24c-.1-1.6-1.2-2.5-2.4-2.5zm-1.5 2c.1-.7.8-1.1 1.4-1.1.6 0 1.2.4 1.3 1.1h-2.7zM44.8 20.3v.6c0 .4-.3.7-.7.7h-.3v1h1V25c0 1.1.7 1.6 1.7 1.6.3 0 .6 0 .8-.1v-1c-.2.1-.4.1-.6.1-.6 0-.8-.2-.8-.8v-2.2h1.4v-1h-1.4v-1.4h-1.1zM65 20.8l-.3-.5h-.1v.8h.1v-.5l.3.5.2-.5v.5h.2v-.8h-.2zM64.1 21.1v-.7h.3v-.1h-.7v.1h.3v.7z"/></svg>