<?xml version="1.0" encoding="utf-8"?>
<!-- Generator: Adobe Illustrator 27.4.0, SVG Export Plug-In . SVG Version: 6.00 Build 0)  -->
<svg version="1.1" baseProfile="tiny" id="Layer_1" xmlns="http://www.w3.org/2000/svg" xmlns:xlink="http://www.w3.org/1999/xlink"
	 x="0px" y="0px" viewBox="0 0 728 90" overflow="visible" xml:space="preserve">
<g>
	<path fill="#FFFFFF" d="M13.5,77.6c0,0.6-0.1,1-0.4,1.5c-0.2,0.4-0.6,0.8-1,1s-0.9,0.4-1.5,0.4c-0.6,0-1.1-0.1-1.5-0.4
		c-0.4-0.3-0.8-0.6-1-1.1s-0.4-1-0.4-1.5c0-0.6,0.1-1.1,0.4-1.5c0.3-0.5,0.6-0.8,1.1-1.1c0.5-0.3,1-0.4,1.5-0.4
		c0.6,0,1.1,0.1,1.5,0.4c0.4,0.3,0.8,0.6,1,1l-0.6,0.4c-0.2-0.3-0.4-0.6-0.8-0.8c-0.3-0.2-0.7-0.3-1.1-0.3c-0.4,0-0.8,0.1-1.1,0.3
		C9.2,75.7,9,76,8.8,76.3S8.5,77,8.5,77.5c0,0.4,0.1,0.8,0.3,1.2C9,79,9.2,79.3,9.5,79.5s0.7,0.3,1.1,0.3c0.3,0,0.7-0.1,0.9-0.2
		c0.3-0.1,0.5-0.3,0.7-0.5c0.2-0.2,0.3-0.5,0.4-0.8h-2.4v-0.7H13.5z"/>
	<path fill="#FFFFFF" d="M14.5,74.6h4.4v0.7h-3.6v1.8h2.1v0.7h-2.1v1.8h3.6v0.7h-4.4V74.6z"/>
	<path fill="#FFFFFF" d="M24.5,74.6v5.8h-0.8l-3-4.5v4.5H20v-5.8h0.8l3,4.5v-4.5H24.5z"/>
	<path fill="#FFFFFF" d="M27.5,77.8v0.7h-1.9v-0.7H27.5z"/>
	<path fill="#FFFFFF" d="M32.3,78.6c0,0.4-0.1,0.7-0.2,1s-0.4,0.5-0.7,0.7c-0.3,0.2-0.6,0.2-1,0.2c-0.4,0-0.7-0.1-1-0.2
		c-0.3-0.2-0.5-0.4-0.7-0.7c-0.2-0.3-0.2-0.6-0.2-0.9h0.8c0,0.2,0.1,0.4,0.2,0.6s0.2,0.3,0.4,0.4s0.4,0.1,0.6,0.1
		c0.2,0,0.4,0,0.6-0.1s0.3-0.2,0.4-0.4c0.1-0.2,0.2-0.4,0.2-0.6c0-0.2-0.1-0.4-0.2-0.6c-0.1-0.2-0.2-0.3-0.4-0.4
		c-0.2-0.1-0.4-0.1-0.6-0.1h-1.7l0.4-2.9h3v0.7h-2.4l-0.2,1.4h0.9c0.4,0,0.7,0.1,1,0.2c0.3,0.2,0.5,0.4,0.7,0.7
		C32.3,77.9,32.3,78.2,32.3,78.6z"/>
	<path fill="#FFFFFF" d="M37.3,78.6c0,0.4-0.1,0.7-0.3,1s-0.4,0.5-0.7,0.7s-0.6,0.2-1,0.2c-0.4,0-0.7-0.1-1-0.2
		c-0.3-0.2-0.5-0.4-0.7-0.7c-0.2-0.3-0.3-0.6-0.3-1c0-0.2,0-0.5,0.1-0.7s0.2-0.5,0.3-0.7l1.7-2.6h0.9L35,76.7c0.1,0,0.3,0,0.4,0
		c0.4,0,0.7,0.1,1,0.2c0.3,0.2,0.5,0.4,0.7,0.7S37.3,78.2,37.3,78.6z M36.6,78.6c0-0.2-0.1-0.4-0.2-0.6c-0.1-0.2-0.2-0.3-0.4-0.4
		c-0.2-0.1-0.4-0.1-0.6-0.1c-0.2,0-0.4,0-0.6,0.1c-0.2,0.1-0.3,0.2-0.4,0.4c-0.1,0.2-0.2,0.4-0.2,0.6c0,0.2,0.1,0.4,0.2,0.6
		c0.1,0.2,0.2,0.3,0.4,0.4c0.2,0.1,0.4,0.2,0.6,0.2c0.2,0,0.5,0,0.6-0.2c0.2-0.1,0.3-0.2,0.4-0.4C36.5,79,36.6,78.8,36.6,78.6z"/>
	<path fill="#FFFFFF" d="M39.6,75.4l-1.5,1v-0.8l1.5-0.9h0.8v5.8h-0.8V75.4z"/>
	<path fill="#FFFFFF" d="M46,77.9v0.7h-1v1.7h-0.8v-1.7h-2.6v-0.6l2.5-3.5H45v3.4H46z M44.3,77.9v-2.4l-1.7,2.4H44.3z"/>
	<path fill="#FFFFFF" d="M50.4,78.8c0,0.3-0.1,0.6-0.2,0.9c-0.2,0.3-0.4,0.5-0.7,0.6c-0.3,0.1-0.6,0.2-1,0.2c-0.4,0-0.7-0.1-1-0.2
		c-0.3-0.1-0.5-0.3-0.7-0.6c-0.2-0.3-0.2-0.5-0.2-0.9h0.8c0,0.2,0.1,0.3,0.2,0.5c0.1,0.1,0.2,0.3,0.4,0.3c0.2,0.1,0.3,0.1,0.6,0.1
		c0.2,0,0.4,0,0.6-0.1c0.2-0.1,0.3-0.2,0.4-0.4c0.1-0.2,0.1-0.3,0.1-0.5s0-0.4-0.1-0.5c-0.1-0.1-0.2-0.3-0.4-0.4s-0.3-0.1-0.5-0.1
		H48V77h0.6c0.2,0,0.4,0,0.5-0.1s0.3-0.2,0.3-0.3c0.1-0.1,0.1-0.3,0.1-0.5c0-0.2,0-0.3-0.1-0.5c-0.1-0.1-0.2-0.2-0.3-0.3
		c-0.1-0.1-0.3-0.1-0.5-0.1c-0.2,0-0.3,0-0.5,0.1c-0.1,0.1-0.3,0.2-0.3,0.3s-0.1,0.3-0.1,0.5h-0.8c0-0.3,0.1-0.6,0.2-0.8
		c0.1-0.2,0.4-0.4,0.6-0.6c0.3-0.1,0.6-0.2,0.9-0.2c0.3,0,0.6,0.1,0.9,0.2c0.3,0.1,0.5,0.3,0.6,0.6c0.1,0.2,0.2,0.5,0.2,0.8
		c0,0.3-0.1,0.5-0.2,0.7c-0.1,0.2-0.3,0.4-0.5,0.5c0.2,0.1,0.4,0.3,0.6,0.6C50.3,78.2,50.4,78.5,50.4,78.8z"/>
	<path fill="#FFFFFF" d="M51.6,76.1c0-0.3,0.1-0.6,0.3-0.8s0.4-0.5,0.7-0.6s0.6-0.2,0.9-0.2c0.3,0,0.6,0.1,0.9,0.2
		c0.3,0.1,0.5,0.3,0.7,0.6c0.2,0.3,0.3,0.5,0.3,0.8c0,0.3,0,0.8,0,1.3c0,0.6,0,1,0,1.3c0,0.3-0.1,0.6-0.3,0.8
		c-0.2,0.3-0.4,0.5-0.7,0.6c-0.3,0.1-0.6,0.2-0.9,0.2c-0.3,0-0.6-0.1-0.9-0.2s-0.5-0.3-0.7-0.6s-0.3-0.5-0.3-0.8c0-0.3,0-0.8,0-1.3
		C51.6,76.9,51.6,76.4,51.6,76.1z M52.4,78.8c0,0.2,0.1,0.4,0.2,0.5c0.1,0.1,0.2,0.3,0.4,0.3c0.2,0.1,0.3,0.1,0.5,0.1
		c0.2,0,0.4,0,0.5-0.1s0.3-0.2,0.4-0.3c0.1-0.1,0.2-0.3,0.2-0.5c0-0.2,0-0.7,0-1.3c0-0.6,0-1,0-1.3c0-0.2-0.1-0.4-0.2-0.5
		c-0.1-0.1-0.2-0.3-0.4-0.3s-0.3-0.1-0.5-0.1c-0.2,0-0.4,0-0.5,0.1c-0.2,0.1-0.3,0.2-0.4,0.3c-0.1,0.1-0.2,0.3-0.2,0.5
		c0,0.3,0,0.7,0,1.3S52.4,78.5,52.4,78.8z"/>
	<path fill="#FFFFFF" d="M56.7,76.1c0-0.3,0.1-0.6,0.3-0.8s0.4-0.5,0.7-0.6s0.6-0.2,0.9-0.2c0.3,0,0.6,0.1,0.9,0.2
		c0.3,0.1,0.5,0.3,0.7,0.6c0.2,0.3,0.3,0.5,0.3,0.8c0,0.3,0,0.8,0,1.3c0,0.6,0,1,0,1.3c0,0.3-0.1,0.6-0.3,0.8
		c-0.2,0.3-0.4,0.5-0.7,0.6c-0.3,0.1-0.6,0.2-0.9,0.2c-0.3,0-0.6-0.1-0.9-0.2s-0.5-0.3-0.7-0.6s-0.3-0.5-0.3-0.8c0-0.3,0-0.8,0-1.3
		C56.7,76.9,56.7,76.4,56.7,76.1z M57.5,78.8c0,0.2,0.1,0.4,0.2,0.5c0.1,0.1,0.2,0.3,0.4,0.3c0.2,0.1,0.3,0.1,0.5,0.1
		c0.2,0,0.4,0,0.5-0.1s0.3-0.2,0.4-0.3c0.1-0.1,0.2-0.3,0.2-0.5c0-0.2,0-0.7,0-1.3c0-0.6,0-1,0-1.3c0-0.2-0.1-0.4-0.2-0.5
		c-0.1-0.1-0.2-0.3-0.4-0.3s-0.3-0.1-0.5-0.1c-0.2,0-0.4,0-0.5,0.1c-0.2,0.1-0.3,0.2-0.4,0.3c-0.1,0.1-0.2,0.3-0.2,0.5
		c0,0.3,0,0.7,0,1.3S57.4,78.5,57.5,78.8z"/>
	<path fill="#FFFFFF" d="M62.1,79.4c0.2,0,0.3,0,0.4,0.1c0.1,0.1,0.1,0.2,0.1,0.4s0,0.3-0.1,0.4c-0.1,0.1-0.2,0.1-0.4,0.1
		c-0.2,0-0.3,0-0.4-0.1s-0.1-0.2-0.1-0.4s0-0.3,0.1-0.4S62,79.4,62.1,79.4z"/>
	<path fill="#FFFFFF" d="M65.1,75.4l-1.5,1v-0.8l1.5-0.9h0.8v5.8h-0.8V75.4z"/>
</g>
</svg>
