<?xml version="1.0" encoding="utf-8"?>
<!-- Generator: Adobe Illustrator 27.4.0, SVG Export Plug-In . SVG Version: 6.00 Build 0)  -->
<svg version="1.1" baseProfile="tiny" id="Layer_1" xmlns="http://www.w3.org/2000/svg" xmlns:xlink="http://www.w3.org/1999/xlink"
	 x="0px" y="0px" viewBox="0 0 728 90" overflow="visible" xml:space="preserve">
<g>
	<path fill="#193062" d="M182.6,24h-4.7l-0.6,1.7h-2.8l4.3-13.1h2.9l4.2,13.1h-2.8L182.6,24z M181.7,21.3l-1.5-4.6l-1.5,4.6H181.7z"
		/>
	<path fill="#193062" d="M196.8,21.2c0,2.6-1.9,4.7-4.5,4.7c-0.9,0-1.7-0.3-2.3-0.7v4.3h-2.7V16.7h2.6v0.5c0.6-0.4,1.4-0.7,2.3-0.7
		C195,16.5,196.8,18.5,196.8,21.2z M194.2,21.2c0-1.2-0.9-2.2-2.1-2.2c-1.3,0-2.1,0.9-2.1,2.2c0,1.2,0.9,2.1,2.1,2.1
		C193.3,23.3,194.2,22.4,194.2,21.2z"/>
	<path fill="#193062" d="M208,21.2c0,2.6-1.9,4.7-4.5,4.7c-0.9,0-1.7-0.3-2.3-0.7v4.3h-2.7V16.7h2.6v0.5c0.6-0.4,1.4-0.7,2.3-0.7
		C206.1,16.5,208,18.5,208,21.2z M205.3,21.2c0-1.2-0.9-2.2-2.1-2.2c-1.3,0-2.1,0.9-2.1,2.2c0,1.2,0.9,2.1,2.1,2.1
		C204.5,23.3,205.3,22.4,205.3,21.2z"/>
	<path fill="#193062" d="M209.8,12h2.7v13.7h-2.7V12z"/>
	<path fill="#193062" d="M222.9,16.7l-4.6,12.9h-2.8l1.4-4l-3.2-8.9h2.9l1.7,4.9l1.8-4.9H222.9z"/>
	<path fill="#193062" d="M225.5,12.2c1,0,1.7,0.7,1.7,1.7c0,0.9-0.7,1.7-1.7,1.7s-1.7-0.7-1.7-1.7C223.8,12.9,224.6,12.2,225.5,12.2
		z M226.8,25.7h-2.7v-9.1h2.7V25.7z"/>
	<path fill="#193062" d="M237.6,20.1v5.7h-2.7v-5.1c0-0.9-0.6-1.5-1.5-1.5c-0.9,0-1.5,0.7-1.5,1.5v5.1h-2.7v-9.1h2.6v0.5
		c0.6-0.4,1.3-0.7,2.2-0.7C236.1,16.5,237.6,18,237.6,20.1z"/>
	<path fill="#193062" d="M248.4,16.7v8.8c0,2.4-1.8,4.3-4.5,4.3c-2.1,0-3.7-1.2-4.2-2.9l2.4-0.9c0.3,0.8,0.9,1.2,1.8,1.2
		c1.1,0,1.9-0.7,1.9-1.8v-0.7c-0.6,0.4-1.3,0.7-2.2,0.7c-2.4,0-4.2-2-4.2-4.5c0-2.5,1.8-4.5,4.2-4.5c0.9,0,1.6,0.3,2.2,0.7v-0.5
		H248.4z M245.8,21c0-1.1-0.8-1.9-1.9-1.9c-1.1,0-1.9,0.8-1.9,1.9c0,1,0.8,1.9,1.9,1.9C245,22.9,245.8,22,245.8,21z"/>
	<path fill="#193062" d="M256.8,19.2H255v-2.5h1.8v-1.8c0-1.7,1.2-2.8,2.9-2.8h2v2.5h-1.5c-0.5,0-0.7,0.3-0.7,0.7v1.4h2.3v2.5h-2.3
		v6.5h-2.7V19.2z"/>
	<path fill="#193062" d="M267.3,16.5c2.7,0,4.7,2.1,4.7,4.8c0,2.6-2,4.7-4.7,4.7c-2.7,0-4.7-2.1-4.7-4.7
		C262.6,18.5,264.6,16.5,267.3,16.5z M267.3,23.3c1.2,0,2.1-0.9,2.1-2.1c0-1.2-0.9-2.1-2.1-2.1c-1.2,0-2.1,0.9-2.1,2.1
		C265.2,22.4,266.1,23.3,267.3,23.3z"/>
	<path fill="#193062" d="M279.6,16.7v2.6h-1.4c-1,0-1.7,0.8-1.7,1.8v4.6h-2.7v-9.1h2.6v0.8c0.5-0.6,1.3-0.8,2.1-0.8H279.6z"/>
	<path fill="#193062" d="M286.5,12.6h2.8V23h7.5v2.7h-10.3V12.6z"/>
	<path fill="#193062" d="M299.8,12.2c1,0,1.7,0.7,1.7,1.7c0,0.9-0.7,1.7-1.7,1.7c-1,0-1.7-0.7-1.7-1.7
		C298.2,12.9,298.9,12.2,299.8,12.2z M301.2,25.7h-2.7v-9.1h2.7V25.7z"/>
	<path fill="#193062" d="M304.4,19.2h-1.8v-2.5h1.8v-1.8c0-1.7,1.2-2.8,2.9-2.8h2v2.5h-1.5c-0.5,0-0.7,0.3-0.7,0.7v1.4h2.3v2.5h-2.3
		v6.5h-2.7V19.2z"/>
	<path fill="#193062" d="M319.2,22.2h-6.3c0.3,0.8,1.1,1.3,2.1,1.3c0.9,0,1.5-0.4,1.9-1l2.1,1.3c-0.8,1.4-2.3,2.2-4.1,2.2
		c-2.7,0-4.7-2.1-4.7-4.7c0-2.7,1.9-4.8,4.6-4.8c2.7,0,4.6,2,4.6,4.7C319.3,21.5,319.3,21.8,319.2,22.2z M312.8,20.2h3.9
		c-0.3-0.9-1-1.3-1.9-1.3C313.8,18.9,313.1,19.4,312.8,20.2z"/>
	<path fill="#193062" d="M326.4,12.6h2.8v13.1h-2.8V12.6z"/>
	<path fill="#193062" d="M340.2,20.1v5.7h-2.7v-5.1c0-0.9-0.6-1.5-1.5-1.5s-1.5,0.7-1.5,1.5v5.1h-2.7v-9.1h2.6v0.5
		c0.6-0.4,1.4-0.7,2.2-0.7C338.7,16.5,340.2,18,340.2,20.1z"/>
	<path fill="#193062" d="M345.8,23.5c0.7,0,1.2-0.3,1.2-0.7c0-0.3-0.2-0.4-0.7-0.5c-0.5-0.1-1-0.1-1.6-0.2c-1.8-0.3-2.6-1.3-2.6-2.7
		c0-1.8,1.5-3.1,3.7-3.1c2.1,0,3.7,1.3,3.7,3.1h-2.6c0-0.4-0.4-0.7-1.1-0.7c-0.7,0-1.1,0.3-1.1,0.6c0,0.3,0.2,0.4,0.6,0.5
		c0.6,0.1,1,0.1,1.7,0.2c1.8,0.2,2.6,1.3,2.6,2.7c0,1.8-1.5,3.2-3.8,3.2c-2.2,0-3.8-1.3-3.8-3.1h2.6C344.5,23.3,345,23.5,345.8,23.5
		z"/>
	<path fill="#193062" d="M359.5,16.7v9.1h-2.6v-0.5c-0.6,0.5-1.4,0.7-2.2,0.7c-2,0-3.5-1.5-3.5-3.6v-5.7h2.7v5.1
		c0,0.8,0.6,1.5,1.5,1.5c0.9,0,1.5-0.7,1.5-1.5v-5.1H359.5z"/>
	<path fill="#193062" d="M367.7,16.7v2.6h-1.4c-1,0-1.7,0.8-1.7,1.8v4.6h-2.7v-9.1h2.6v0.8c0.5-0.6,1.3-0.8,2.1-0.8H367.7z"/>
	<path fill="#193062" d="M376.4,20v5.7h-2.6v-0.5c-0.6,0.5-1.2,0.7-2.2,0.7c-1.9,0-3.2-1.2-3.2-2.8c0-1.9,1.4-2.7,3.2-2.8l2.2-0.2
		V20c0-0.6-0.6-1.1-1.3-1.1c-0.7,0-1.2,0.3-1.3,0.8h-2.5c0.1-1.9,1.7-3.3,3.9-3.3C374.8,16.5,376.4,18,376.4,20z M373.8,22.6V22
		l-1.8,0.1c-0.7,0.1-1,0.4-1,0.8c0,0.5,0.4,0.8,1.2,0.8C373.2,23.8,373.8,23.3,373.8,22.6z"/>
	<path fill="#193062" d="M387.1,20.1v5.7h-2.7v-5.1c0-0.9-0.6-1.5-1.5-1.5s-1.5,0.7-1.5,1.5v5.1h-2.7v-9.1h2.6v0.5
		c0.6-0.4,1.4-0.7,2.2-0.7C385.6,16.5,387.1,18,387.1,20.1z"/>
	<path fill="#193062" d="M393.6,16.5c1.7,0,3.2,0.8,3.9,2.1l-2.1,1.5c-0.4-0.6-1-1-1.8-1c-1.2,0-2.1,0.9-2.1,2.1
		c0,1.2,0.9,2.1,2.1,2.1c0.8,0,1.4-0.4,1.8-1l2.2,1.5c-0.8,1.3-2.2,2.1-3.9,2.1c-2.7,0-4.7-2.1-4.7-4.7
		C388.9,18.5,390.8,16.5,393.6,16.5z"/>
	<path fill="#193062" d="M407.3,22.2H401c0.3,0.8,1.1,1.3,2.1,1.3c0.9,0,1.5-0.4,1.9-1l2.1,1.3c-0.8,1.4-2.3,2.2-4.1,2.2
		c-2.7,0-4.7-2.1-4.7-4.7c0-2.7,1.9-4.8,4.6-4.8c2.7,0,4.6,2,4.6,4.7C407.4,21.5,407.4,21.8,407.3,22.2z M400.9,20.2h3.9
		c-0.3-0.9-1-1.3-1.9-1.3C401.9,18.9,401.2,19.4,400.9,20.2z"/>
</g>
<g>
	<path fill="#193062" d="M184.4,35v13.7h-2.6v-0.5c-0.6,0.5-1.4,0.7-2.3,0.7c-2.6,0-4.5-2.1-4.5-4.7c0-2.7,1.9-4.8,4.5-4.8
		c0.9,0,1.7,0.3,2.3,0.7V35H184.4z M181.8,44.2c0-1.2-0.9-2.2-2.1-2.2c-1.2,0-2.1,0.9-2.1,2.2c0,1.2,0.9,2.1,2.1,2.1
		C180.9,46.3,181.8,45.4,181.8,44.2z"/>
	<path fill="#193062" d="M190.9,39.5c2.7,0,4.7,2.1,4.7,4.8c0,2.6-2,4.7-4.7,4.7c-2.7,0-4.7-2.1-4.7-4.7
		C186.1,41.5,188.1,39.5,190.9,39.5z M190.9,46.3c1.2,0,2.1-0.9,2.1-2.1c0-1.2-0.9-2.1-2.1-2.1s-2.1,0.9-2.1,2.1
		C188.8,45.4,189.7,46.3,190.9,46.3z"/>
	<path fill="#193062" d="M205.8,45.2h-6.3c0.3,0.8,1.1,1.3,2.1,1.3c0.9,0,1.5-0.4,1.9-1l2.1,1.3c-0.8,1.4-2.3,2.2-4.1,2.2
		c-2.7,0-4.7-2.1-4.7-4.7c0-2.7,1.9-4.8,4.6-4.8c2.7,0,4.6,2,4.6,4.7C205.9,44.5,205.9,44.9,205.8,45.2z M199.4,43.2h3.9
		c-0.3-0.9-1-1.3-1.9-1.3C200.4,41.9,199.7,42.4,199.4,43.2z"/>
	<path fill="#193062" d="M210.9,46.5c0.7,0,1.2-0.3,1.2-0.7c0-0.3-0.2-0.4-0.7-0.5c-0.5-0.1-1-0.1-1.6-0.2c-1.8-0.3-2.6-1.3-2.6-2.7
		c0-1.8,1.5-3.1,3.7-3.1c2.1,0,3.7,1.3,3.7,3.1H212c0-0.4-0.4-0.7-1.1-0.7c-0.7,0-1.1,0.3-1.1,0.6c0,0.3,0.2,0.4,0.6,0.4
		c0.6,0.1,1,0.1,1.7,0.2c1.8,0.2,2.6,1.3,2.6,2.7c0,1.8-1.5,3.2-3.8,3.2c-2.2,0-3.8-1.3-3.8-3.1h2.6
		C209.7,46.3,210.2,46.5,210.9,46.5z"/>
	<path fill="#193062" d="M224.8,43.1v5.7h-2.7v-5.1c0-0.9-0.6-1.5-1.5-1.5s-1.5,0.7-1.5,1.5v5.1h-2.7v-9.1h2.6v0.5
		c0.6-0.5,1.4-0.7,2.2-0.7C223.3,39.5,224.8,41,224.8,43.1z"/>
	<path fill="#193062" d="M229.2,37c0,0.2,0,0.4-0.1,0.6l-1.1,3h-1.5l0.5-2.1c-0.6-0.2-1-0.8-1-1.5c0-0.9,0.6-1.6,1.6-1.6
		S229.2,36.1,229.2,37z"/>
	<path fill="#193062" d="M234.2,39.7h2.8v2.5h-2.8v3c0,0.6,0.4,1,1,1h1.8v2.5h-2.3c-1.8,0-3.1-1.2-3.1-3v-3.5h-1.3v-1.4l2.5-3.1h1.5
		V39.7z"/>
	<path fill="#193062" d="M252.4,43.1v5.7h-2.7v-5.1c0-0.9-0.6-1.6-1.5-1.6c-1,0-1.6,0.7-1.6,1.6v5.1H244V35h2.7v5.1
		c0.6-0.4,1.3-0.7,2.2-0.7C250.9,39.5,252.4,41,252.4,43.1z"/>
	<path fill="#193062" d="M262.3,43.1v5.7h-2.6v-0.5c-0.6,0.5-1.2,0.7-2.2,0.7c-1.9,0-3.2-1.2-3.2-2.8c0-1.9,1.4-2.7,3.2-2.8l2.2-0.2
		V43c0-0.6-0.6-1.1-1.3-1.1c-0.7,0-1.2,0.3-1.3,0.8h-2.5c0.1-1.9,1.7-3.3,3.9-3.3C260.7,39.5,262.3,41,262.3,43.1z M259.7,45.6V45
		l-1.8,0.1c-0.7,0.1-1,0.4-1,0.8c0,0.5,0.4,0.8,1.2,0.8C259.1,46.8,259.7,46.3,259.7,45.6z"/>
	<path fill="#193062" d="M272.3,39.7l-3.3,9.1h-2.7l-3.3-9.1h2.9l1.8,5l1.7-5H272.3z"/>
	<path fill="#193062" d="M281.8,45.2h-6.3c0.3,0.8,1.1,1.3,2.1,1.3c0.9,0,1.5-0.4,1.9-1l2.1,1.3c-0.8,1.4-2.3,2.2-4.1,2.2
		c-2.7,0-4.7-2.1-4.7-4.7c0-2.7,1.9-4.8,4.6-4.8c2.7,0,4.6,2,4.6,4.7C281.9,44.5,281.9,44.9,281.8,45.2z M275.4,43.2h3.9
		c-0.3-0.9-1-1.3-1.9-1.3C276.4,41.9,275.7,42.4,275.4,43.2z"/>
	<path fill="#193062" d="M291.9,39.7h2.8v2.5h-2.8v3c0,0.6,0.4,1,1,1h1.8v2.5h-2.3c-1.8,0-3.1-1.2-3.1-3v-3.5h-1.3v-1.4l2.5-3.1h1.5
		V39.7z"/>
	<path fill="#193062" d="M300.6,39.5c2.7,0,4.7,2.1,4.7,4.8c0,2.6-2,4.7-4.7,4.7c-2.7,0-4.7-2.1-4.7-4.7
		C295.8,41.5,297.8,39.5,300.6,39.5z M300.6,46.3c1.2,0,2.1-0.9,2.1-2.1c0-1.2-0.9-2.1-2.1-2.1s-2.1,0.9-2.1,2.1
		C298.5,45.4,299.4,46.3,300.6,46.3z"/>
	<path fill="#193062" d="M321.7,44.2c0,2.6-1.9,4.7-4.5,4.7c-0.9,0-1.7-0.3-2.3-0.7v0.5h-2.6V35h2.7v5.1c0.6-0.4,1.4-0.7,2.3-0.7
		C319.8,39.5,321.7,41.5,321.7,44.2z M319,44.2c0-1.2-0.9-2.2-2.1-2.2c-1.3,0-2.1,0.9-2.1,2.2c0,1.2,0.9,2.1,2.1,2.1
		C318.2,46.3,319,45.4,319,44.2z"/>
	<path fill="#193062" d="M331.9,45.2h-6.3c0.3,0.8,1.1,1.3,2.1,1.3c0.9,0,1.5-0.4,1.9-1l2.1,1.3c-0.8,1.4-2.3,2.2-4.1,2.2
		c-2.7,0-4.7-2.1-4.7-4.7c0-2.7,1.9-4.8,4.6-4.8c2.7,0,4.6,2,4.6,4.7C332,44.5,332,44.9,331.9,45.2z M325.5,43.2h3.9
		c-0.3-0.9-1-1.3-1.9-1.3C326.5,41.9,325.7,42.4,325.5,43.2z"/>
	<path fill="#193062" d="M343,39.5c1.7,0,3.2,0.8,3.9,2.1l-2.1,1.5c-0.4-0.6-1-1-1.8-1c-1.2,0-2.1,0.9-2.1,2.1
		c0,1.2,0.9,2.1,2.1,2.1c0.8,0,1.4-0.4,1.8-1l2.2,1.5c-0.8,1.3-2.2,2.1-3.9,2.1c-2.7,0-4.7-2.1-4.7-4.7
		C338.3,41.5,340.3,39.5,343,39.5z"/>
	<path fill="#193062" d="M352.5,39.5c2.7,0,4.7,2.1,4.7,4.8c0,2.6-2,4.7-4.7,4.7c-2.7,0-4.7-2.1-4.7-4.7
		C347.8,41.5,349.8,39.5,352.5,39.5z M352.5,46.3c1.2,0,2.1-0.9,2.1-2.1c0-1.2-0.9-2.1-2.1-2.1c-1.2,0-2.1,0.9-2.1,2.1
		C350.4,45.4,351.3,46.3,352.5,46.3z"/>
	<path fill="#193062" d="M372.3,42.8v5.9h-2.7v-5.3c0-0.7-0.5-1.3-1.3-1.3c-0.8,0-1.3,0.6-1.3,1.3v5.3h-2.7v-5.3
		c0-0.7-0.5-1.3-1.3-1.3c-0.8,0-1.3,0.6-1.3,1.3v5.3H359v-9.1h2.6v0.4c0.5-0.4,1.2-0.6,2-0.6c1,0,1.8,0.3,2.4,0.9
		c0.6-0.6,1.5-0.9,2.6-0.9C370.7,39.5,372.3,40.9,372.3,42.8z"/>
	<path fill="#193062" d="M384,44.2c0,2.6-1.9,4.7-4.5,4.7c-0.9,0-1.7-0.3-2.3-0.7v4.3h-2.7V39.7h2.6v0.5c0.6-0.5,1.4-0.7,2.3-0.7
		C382.1,39.5,384,41.5,384,44.2z M381.3,44.2c0-1.2-0.9-2.2-2.1-2.2c-1.3,0-2.1,0.9-2.1,2.2c0,1.2,0.9,2.1,2.1,2.1
		C380.5,46.3,381.3,45.4,381.3,44.2z"/>
	<path fill="#193062" d="M385.8,35h2.7v13.7h-2.7V35z"/>
	<path fill="#193062" d="M392.1,35.2c1,0,1.7,0.7,1.7,1.7c0,0.9-0.7,1.7-1.7,1.7s-1.7-0.7-1.7-1.7C390.5,35.9,391.2,35.2,392.1,35.2
		z M393.5,48.7h-2.7v-9.1h2.7V48.7z"/>
	<path fill="#193062" d="M399.9,39.5c1.7,0,3.2,0.8,3.9,2.1l-2.1,1.5c-0.4-0.6-1-1-1.8-1c-1.2,0-2.1,0.9-2.1,2.1
		c0,1.2,0.9,2.1,2.1,2.1c0.8,0,1.4-0.4,1.8-1l2.2,1.5c-0.8,1.3-2.2,2.1-3.9,2.1c-2.7,0-4.7-2.1-4.7-4.7
		C395.2,41.5,397.2,39.5,399.9,39.5z"/>
	<path fill="#193062" d="M412.8,43.1v5.7h-2.6v-0.5c-0.6,0.5-1.2,0.7-2.2,0.7c-1.9,0-3.2-1.2-3.2-2.8c0-1.9,1.4-2.7,3.2-2.8l2.2-0.2
		V43c0-0.6-0.6-1.1-1.3-1.1c-0.7,0-1.2,0.3-1.3,0.8H405c0.1-1.9,1.7-3.3,3.9-3.3C411.2,39.5,412.8,41,412.8,43.1z M410.2,45.6V45
		l-1.8,0.1c-0.7,0.1-1,0.4-1,0.8c0,0.5,0.4,0.8,1.2,0.8C409.6,46.8,410.2,46.3,410.2,45.6z"/>
	<path fill="#193062" d="M418,39.7h2.8v2.5H418v3c0,0.6,0.4,1,1,1h1.8v2.5h-2.3c-1.8,0-3.1-1.2-3.1-3v-3.5H414v-1.4l2.5-3.1h1.5
		V39.7z"/>
	<path fill="#193062" d="M431,45.2h-6.3c0.3,0.8,1.1,1.3,2.1,1.3c0.9,0,1.5-0.4,1.9-1l2.1,1.3c-0.8,1.4-2.3,2.2-4.1,2.2
		c-2.7,0-4.7-2.1-4.7-4.7c0-2.7,1.9-4.8,4.6-4.8c2.7,0,4.6,2,4.6,4.7C431.1,44.5,431,44.9,431,45.2z M424.6,43.2h3.9
		c-0.3-0.9-1-1.3-1.9-1.3C425.6,41.9,424.8,42.4,424.6,43.2z"/>
	<path fill="#193062" d="M441.6,35v13.7H439v-0.5c-0.6,0.5-1.4,0.7-2.3,0.7c-2.6,0-4.5-2.1-4.5-4.7c0-2.7,1.9-4.8,4.5-4.8
		c0.9,0,1.7,0.3,2.3,0.7V35H441.6z M439.1,44.2c0-1.2-0.9-2.2-2.1-2.2c-1.2,0-2.1,0.9-2.1,2.2c0,1.2,0.9,2.1,2.1,2.1
		C438.2,46.3,439.1,45.4,439.1,44.2z"/>
	<path fill="#193062" d="M445.5,45.5c1,0,1.7,0.7,1.7,1.7c0,0.9-0.7,1.7-1.7,1.7s-1.7-0.7-1.7-1.7C443.8,46.3,444.5,45.5,445.5,45.5
		z"/>
</g>
</svg>
