<?xml version="1.0" encoding="utf-8"?>
<!-- Generator: Adobe Illustrator 27.4.0, SVG Export Plug-In . SVG Version: 6.00 Build 0)  -->
<svg version="1.1" baseProfile="tiny" id="Layer_1" xmlns="http://www.w3.org/2000/svg" xmlns:xlink="http://www.w3.org/1999/xlink"
	 x="0px" y="0px" viewBox="0 0 728 90" overflow="visible" xml:space="preserve">
<g>
	<path fill="#454547" d="M177.6,64.5h-2.9v-1h7v1h-2.9v8.4h-1.2V64.5z"/>
	<path fill="#454547" d="M182.1,68.2c0-0.8,0-1.5-0.1-2.1h1.1l0,1.3h0.1c0.3-0.9,1.1-1.5,1.9-1.5c0.1,0,0.2,0,0.4,0v1.2
		c-0.1,0-0.3,0-0.4,0c-0.9,0-1.5,0.7-1.7,1.6c0,0.2-0.1,0.4-0.1,0.6v3.6h-1.2V68.2z"/>
	<path fill="#454547" d="M192.4,71.1c0,0.7,0,1.3,0.1,1.8h-1.1l-0.1-1.1h0c-0.3,0.5-1,1.3-2.2,1.3c-1.1,0-2.3-0.6-2.3-3v-4h1.2v3.8
		c0,1.3,0.4,2.2,1.5,2.2c0.8,0,1.4-0.6,1.6-1.1c0.1-0.2,0.1-0.4,0.1-0.6v-4.2h1.2V71.1z"/>
	<path fill="#454547" d="M194.3,71.4c0.5,0.3,1.3,0.6,2.2,0.6c1.2,0,2-0.7,2-1.6c0-0.9-0.5-1.4-1.8-1.9c-1.5-0.5-2.5-1.3-2.5-2.7
		c0-1.5,1.2-2.6,3.1-2.6c1,0,1.7,0.2,2.1,0.5l-0.3,1c-0.3-0.2-0.9-0.4-1.8-0.4c-1.3,0-1.8,0.8-1.8,1.4c0,0.9,0.6,1.3,1.9,1.8
		c1.6,0.6,2.4,1.4,2.4,2.8c0,1.5-1.1,2.7-3.3,2.7c-0.9,0-1.9-0.3-2.4-0.6L194.3,71.4z"/>
	<path fill="#454547" d="M202.8,64.2v1.9h1.8v0.9h-1.8v3.7c0,0.8,0.2,1.3,0.9,1.3c0.3,0,0.6,0,0.7-0.1l0.1,0.9
		c-0.2,0.1-0.6,0.2-1.1,0.2c-0.6,0-1-0.2-1.3-0.5c-0.4-0.4-0.5-1-0.5-1.8v-3.7h-1.1v-0.9h1.1v-1.6L202.8,64.2z"/>
	<path fill="#454547" d="M209.7,72.9l-0.1-0.9h0c-0.4,0.5-1.1,1-2.1,1c-1.4,0-2.1-1-2.1-1.9c0-1.6,1.5-2.5,4.1-2.5v-0.1
		c0-0.6-0.2-1.6-1.5-1.6c-0.6,0-1.3,0.2-1.8,0.5l-0.3-0.8c0.6-0.4,1.4-0.6,2.2-0.6c2.1,0,2.6,1.4,2.6,2.8v2.5c0,0.6,0,1.2,0.1,1.6
		H209.7z M209.5,69.5c-1.3,0-2.9,0.2-2.9,1.5c0,0.8,0.5,1.2,1.2,1.2c0.9,0,1.4-0.6,1.6-1.1c0-0.1,0.1-0.3,0.1-0.4V69.5z"/>
	<path fill="#454547" d="M218.5,66.1c0,0.5-0.1,1-0.1,1.9v3.9c0,1.6-0.3,2.5-1,3.1c-0.7,0.6-1.6,0.8-2.5,0.8c-0.8,0-1.7-0.2-2.3-0.6
		l0.3-0.9c0.4,0.3,1.1,0.5,2,0.5c1.3,0,2.2-0.7,2.2-2.4v-0.8h0c-0.4,0.6-1.1,1.1-2.2,1.1c-1.7,0-2.9-1.4-2.9-3.3
		c0-2.3,1.5-3.6,3.1-3.6c1.2,0,1.8,0.6,2.1,1.2h0l0.1-1H218.5z M217.2,68.8c0-0.2,0-0.4-0.1-0.6c-0.2-0.7-0.8-1.3-1.7-1.3
		c-1.2,0-2,1-2,2.6c0,1.3,0.7,2.4,2,2.4c0.8,0,1.4-0.5,1.7-1.3c0.1-0.2,0.1-0.4,0.1-0.7V68.8z"/>
	<path fill="#454547" d="M221.2,69.7c0,1.7,1.1,2.4,2.3,2.4c0.9,0,1.4-0.2,1.9-0.4l0.2,0.9c-0.4,0.2-1.2,0.4-2.3,0.4
		c-2.1,0-3.3-1.4-3.3-3.4c0-2,1.2-3.7,3.2-3.7c2.2,0,2.8,1.9,2.8,3.2c0,0.3,0,0.4,0,0.6H221.2z M224.8,68.9c0-0.8-0.3-2-1.7-2
		c-1.2,0-1.8,1.1-1.9,2H224.8z"/>
	<path fill="#454547" d="M230.1,63.5v0.6h-1.2v3.2h-0.8v-3.2h-1.2v-0.6H230.1z M234.2,67.3l-0.1-2.2c0-0.3,0-0.7,0-1.1h0
		c-0.1,0.3-0.2,0.8-0.3,1.1l-0.7,2.1h-0.8l-0.7-2.2c-0.1-0.3-0.2-0.7-0.3-1.1h0c0,0.3,0,0.7,0,1.1l-0.1,2.2h-0.7l0.3-3.8h1.1
		l0.7,1.9c0.1,0.3,0.2,0.6,0.3,1h0c0.1-0.4,0.2-0.7,0.3-1l0.7-1.9h1.1l0.3,3.8H234.2z"/>
	<path fill="#454547" d="M244,72.7c-0.3,0.2-1,0.4-1.9,0.4c-2,0-3.4-1.4-3.4-3.5c0-2.1,1.4-3.6,3.6-3.6c0.7,0,1.4,0.2,1.7,0.4
		l-0.3,1c-0.3-0.2-0.8-0.3-1.4-0.3c-1.6,0-2.4,1.1-2.4,2.6c0,1.6,1,2.5,2.4,2.5c0.7,0,1.2-0.2,1.5-0.3L244,72.7z"/>
	<path fill="#454547" d="M251.5,69.5c0,2.5-1.7,3.6-3.4,3.6c-1.8,0-3.2-1.3-3.2-3.5c0-2.3,1.5-3.6,3.4-3.6
		C250.1,66,251.5,67.4,251.5,69.5z M246.1,69.5c0,1.5,0.9,2.6,2.1,2.6c1.2,0,2.1-1.1,2.1-2.6c0-1.1-0.6-2.6-2-2.6
		C246.7,66.9,246.1,68.2,246.1,69.5z"/>
	<path fill="#454547" d="M258.7,71.1c0,0.7,0,1.3,0.1,1.8h-1.1l-0.1-1.1h0c-0.3,0.5-1,1.3-2.2,1.3c-1.1,0-2.3-0.6-2.3-3v-4h1.2v3.8
		c0,1.3,0.4,2.2,1.5,2.2c0.8,0,1.4-0.6,1.6-1.1c0.1-0.2,0.1-0.4,0.1-0.6v-4.2h1.2V71.1z"/>
	<path fill="#454547" d="M260.7,63h1.2v9.9h-1.2V63z"/>
	<path fill="#454547" d="M269.9,63v8.2c0,0.6,0,1.3,0.1,1.8h-1.1l-0.1-1.2h0c-0.4,0.8-1.2,1.3-2.3,1.3c-1.6,0-2.9-1.4-2.9-3.4
		c0-2.3,1.4-3.6,3-3.6c1,0,1.7,0.5,2,1h0v-4H269.9z M268.6,68.9c0-0.2,0-0.4-0.1-0.5c-0.2-0.8-0.9-1.4-1.8-1.4c-1.3,0-2,1.1-2,2.6
		c0,1.4,0.7,2.5,2,2.5c0.8,0,1.6-0.5,1.8-1.5c0-0.2,0.1-0.3,0.1-0.5V68.9z"/>
	<path fill="#454547" d="M274.9,63h1.2v4.2h0c0.2-0.4,0.5-0.7,0.9-0.9c0.4-0.2,0.8-0.3,1.3-0.3c0.9,0,2.4,0.6,2.4,2.9v4h-1.2V69
		c0-1.1-0.4-2-1.6-2c-0.8,0-1.4,0.6-1.7,1.2c-0.1,0.2-0.1,0.4-0.1,0.6v4.1h-1.2V63z"/>
	<path fill="#454547" d="M283.3,69.7c0,1.7,1.1,2.4,2.3,2.4c0.9,0,1.4-0.2,1.9-0.4l0.2,0.9c-0.4,0.2-1.2,0.4-2.3,0.4
		c-2.1,0-3.3-1.4-3.3-3.4c0-2,1.2-3.7,3.2-3.7c2.2,0,2.8,1.9,2.8,3.2c0,0.3,0,0.4,0,0.6H283.3z M287,68.9c0-0.8-0.3-2-1.7-2
		c-1.2,0-1.8,1.1-1.9,2H287z"/>
	<path fill="#454547" d="M289.7,63h1.2v9.9h-1.2V63z"/>
	<path fill="#454547" d="M293,68.3c0-0.9,0-1.6-0.1-2.2h1.1l0.1,1.2h0c0.5-0.8,1.3-1.3,2.4-1.3c1.6,0,2.9,1.4,2.9,3.4
		c0,2.4-1.5,3.6-3.1,3.6c-0.9,0-1.7-0.4-2.1-1.1h0v3.7H293V68.3z M294.2,70.2c0,0.2,0,0.4,0.1,0.5c0.2,0.9,1,1.4,1.8,1.4
		c1.3,0,2.1-1.1,2.1-2.6c0-1.4-0.7-2.5-2-2.5c-0.8,0-1.6,0.6-1.9,1.5c0,0.2-0.1,0.3-0.1,0.5V70.2z"/>
	<path fill="#454547" d="M303.9,68c0-0.7,0-1.3-0.1-1.8h1.1l0.1,1.1h0c0.4-0.6,1-1.2,2.1-1.2c0.9,0,1.6,0.6,1.9,1.4h0
		c0.2-0.4,0.5-0.7,0.8-0.9c0.4-0.3,0.9-0.5,1.5-0.5c0.9,0,2.2,0.6,2.2,2.9v4h-1.2v-3.8c0-1.3-0.5-2.1-1.5-2.1
		c-0.7,0-1.2,0.5-1.5,1.1c-0.1,0.2-0.1,0.4-0.1,0.6v4.2h-1.2v-4.1c0-1.1-0.5-1.9-1.4-1.9c-0.8,0-1.3,0.6-1.5,1.2
		c-0.1,0.2-0.1,0.4-0.1,0.6v4.1h-1.2V68z"/>
	<path fill="#454547" d="M319.3,72.9l-0.1-0.9h0c-0.4,0.5-1.1,1-2.1,1c-1.4,0-2.1-1-2.1-1.9c0-1.6,1.5-2.5,4.1-2.5v-0.1
		c0-0.6-0.2-1.6-1.5-1.6c-0.6,0-1.3,0.2-1.8,0.5l-0.3-0.8c0.6-0.4,1.4-0.6,2.2-0.6c2.1,0,2.6,1.4,2.6,2.8v2.5c0,0.6,0,1.2,0.1,1.6
		H319.3z M319.2,69.5c-1.3,0-2.9,0.2-2.9,1.5c0,0.8,0.5,1.2,1.2,1.2c0.9,0,1.4-0.6,1.6-1.1c0-0.1,0.1-0.3,0.1-0.4V69.5z"/>
	<path fill="#454547" d="M323.6,69.2L323.6,69.2c0.2-0.2,0.4-0.5,0.6-0.8l2-2.3h1.5l-2.6,2.8l3,4h-1.5l-2.3-3.2l-0.6,0.7v2.5h-1.2
		V63h1.2V69.2z"/>
	<path fill="#454547" d="M329.6,69.7c0,1.7,1.1,2.4,2.3,2.4c0.9,0,1.4-0.2,1.9-0.4l0.2,0.9c-0.4,0.2-1.2,0.4-2.3,0.4
		c-2.1,0-3.3-1.4-3.3-3.4c0-2,1.2-3.7,3.2-3.7c2.2,0,2.8,1.9,2.8,3.2c0,0.3,0,0.4,0,0.6H329.6z M333.2,68.9c0-0.8-0.3-2-1.7-2
		c-1.2,0-1.8,1.1-1.9,2H333.2z"/>
	<path fill="#454547" d="M340.3,64.2c0,0.4-0.3,0.8-0.8,0.8c-0.4,0-0.7-0.3-0.7-0.8c0-0.4,0.3-0.8,0.8-0.8
		C340,63.5,340.3,63.8,340.3,64.2z M338.9,72.9v-6.8h1.2v6.8H338.9z"/>
	<path fill="#454547" d="M343.6,64.2v1.9h1.8v0.9h-1.8v3.7c0,0.8,0.2,1.3,0.9,1.3c0.3,0,0.6,0,0.7-0.1l0.1,0.9
		c-0.2,0.1-0.6,0.2-1.1,0.2c-0.6,0-1-0.2-1.3-0.5c-0.4-0.4-0.5-1-0.5-1.8v-3.7h-1.1v-0.9h1.1v-1.6L343.6,64.2z"/>
	<path fill="#454547" d="M349.6,71.7c0.4,0.2,1,0.5,1.6,0.5c0.9,0,1.3-0.4,1.3-1c0-0.6-0.4-0.9-1.3-1.2c-1.2-0.4-1.8-1.1-1.8-1.9
		c0-1.1,0.9-2,2.3-2c0.7,0,1.3,0.2,1.7,0.4l-0.3,0.9c-0.3-0.2-0.8-0.4-1.4-0.4c-0.7,0-1.1,0.4-1.1,0.9c0,0.6,0.4,0.8,1.3,1.1
		c1.2,0.4,1.8,1,1.8,2c0,1.2-0.9,2-2.5,2c-0.7,0-1.4-0.2-1.9-0.5L349.6,71.7z"/>
	<path fill="#454547" d="M356.7,64.2c0,0.4-0.3,0.8-0.8,0.8c-0.4,0-0.7-0.3-0.7-0.8c0-0.4,0.3-0.8,0.8-0.8
		C356.4,63.5,356.7,63.8,356.7,64.2z M355.3,72.9v-6.8h1.2v6.8H355.3z"/>
	<path fill="#454547" d="M358.6,68c0-0.7,0-1.3-0.1-1.8h1.1l0.1,1.1h0c0.4-0.6,1-1.2,2.1-1.2c0.9,0,1.6,0.6,1.9,1.4h0
		c0.2-0.4,0.5-0.7,0.8-0.9c0.4-0.3,0.9-0.5,1.5-0.5c0.9,0,2.2,0.6,2.2,2.9v4h-1.2v-3.8c0-1.3-0.5-2.1-1.5-2.1
		c-0.7,0-1.2,0.5-1.5,1.1c-0.1,0.2-0.1,0.4-0.1,0.6v4.2h-1.2v-4.1c0-1.1-0.5-1.9-1.4-1.9c-0.8,0-1.3,0.6-1.5,1.2
		c-0.1,0.2-0.1,0.4-0.1,0.6v4.1h-1.2V68z"/>
	<path fill="#454547" d="M370.3,68.3c0-0.9,0-1.6-0.1-2.2h1.1l0.1,1.2h0c0.5-0.8,1.3-1.3,2.4-1.3c1.6,0,2.9,1.4,2.9,3.4
		c0,2.4-1.5,3.6-3.1,3.6c-0.9,0-1.7-0.4-2.1-1.1h0v3.7h-1.2V68.3z M371.5,70.2c0,0.2,0,0.4,0.1,0.5c0.2,0.9,1,1.4,1.8,1.4
		c1.3,0,2.1-1.1,2.1-2.6c0-1.4-0.7-2.5-2-2.5c-0.8,0-1.6,0.6-1.9,1.5c0,0.2-0.1,0.3-0.1,0.5V70.2z"/>
	<path fill="#454547" d="M378.2,63h1.2v9.9h-1.2V63z"/>
	<path fill="#454547" d="M382.2,69.7c0,1.7,1.1,2.4,2.3,2.4c0.9,0,1.4-0.2,1.9-0.4l0.2,0.9c-0.4,0.2-1.2,0.4-2.3,0.4
		c-2.1,0-3.3-1.4-3.3-3.4c0-2,1.2-3.7,3.2-3.7c2.2,0,2.8,1.9,2.8,3.2c0,0.3,0,0.4,0,0.6H382.2z M385.8,68.9c0-0.8-0.3-2-1.7-2
		c-1.2,0-1.8,1.1-1.9,2H385.8z"/>
	<path fill="#454547" d="M388.1,72.2c0-0.5,0.3-0.9,0.8-0.9c0.5,0,0.8,0.4,0.8,0.9c0,0.5-0.3,0.9-0.8,0.9
		C388.4,73.1,388.1,72.7,388.1,72.2z"/>
</g>
</svg>
