<svg baseProfile="tiny" xmlns="http://www.w3.org/2000/svg" viewBox="0 0 300 50" overflow="visible"><g fill="#193062"><path d="M68.7 12v.3c0 2.1-1.4 3.7-3.6 3.7s-3.7-1.6-3.7-3.8c0-2.1 1.6-3.8 3.8-3.8 1.4 0 2.6.7 3.3 1.8l-1.3.8c-.5-.5-1.2-1-2.1-1-1.3 0-2.2 1-2.2 2.2 0 1.3.8 2.3 2.2 2.3.9 0 1.5-.4 1.9-1h-2.3V12h4zM74.4 13.9h-3.5c.2.4.6.7 1.1.7.5 0 .8-.2 1-.6l1.2.7c-.4.8-1.2 1.3-2.2 1.3-1.5 0-2.6-1.1-2.6-2.6s1-2.6 2.5-2.6 2.5 1.1 2.5 2.6c.1.1 0 .3 0 .5zm-3.5-1.1H73c-.1-.5-.5-.7-1.1-.7-.5 0-.9.3-1 .7zM77.1 10.9h1.5v1.4h-1.5V14c0 .3.2.5.5.5h1v1.4h-1.3c-1 0-1.7-.7-1.7-1.7v-1.9h-.7v-.8l1.4-1.7h.8v1.1zM87.8 13.4c0 1.5-1 2.6-2.5 2.6-.5 0-.9-.1-1.3-.4v.3h-1.4V8.3H84v2.8c.3-.2.8-.4 1.3-.4 1.4 0 2.5 1.2 2.5 2.7zm-1.5 0c0-.7-.5-1.2-1.1-1.2-.7 0-1.2.5-1.2 1.2s.5 1.2 1.2 1.2c.6 0 1.1-.6 1.1-1.2zM92.9 12.7v3.2h-1.4v-.3c-.3.3-.7.4-1.2.4-1 0-1.8-.6-1.8-1.6s.8-1.5 1.8-1.6l1.2-.1v-.1c0-.3-.3-.6-.7-.6-.4 0-.7.2-.7.5h-1.4c.1-1 .9-1.8 2.1-1.8 1.2 0 2.1.9 2.1 2zm-1.4 1.4v-.3l-1 .1c-.4 0-.5.2-.5.4 0 .3.2.5.6.5.5 0 .9-.2.9-.7zM96.5 10.7c1 0 1.7.5 2.2 1.2l-1.2.8c-.2-.3-.5-.6-1-.6-.7 0-1.1.5-1.1 1.2s.5 1.2 1.1 1.2c.4 0 .8-.2 1-.6l1.2.8c-.4.7-1.2 1.2-2.2 1.2-1.5 0-2.6-1.1-2.6-2.6s1.1-2.6 2.6-2.6zM102.5 13.3l1.9 2.6h-1.8l-1.7-2.4v2.4h-1.5V8.3h1.5V13l1.7-2.1h1.8l-1.9 2.4zM109.6 10.9h1.5v1.4h-1.5V14c0 .3.2.5.5.5h1v1.4h-1.3c-1 0-1.7-.7-1.7-1.7v-1.9h-.7v-.8l1.4-1.7h.8v1.1zM114.4 10.7c1.5 0 2.6 1.1 2.6 2.6 0 1.4-1.1 2.6-2.6 2.6s-2.6-1.2-2.6-2.6c0-1.4 1.1-2.6 2.6-2.6zm0 3.9c.7 0 1.2-.5 1.2-1.2s-.5-1.2-1.2-1.2-1.2.5-1.2 1.2c.1.6.5 1.2 1.2 1.2zM122.6 10.9h1.5v1.4h-1.5V14c0 .3.2.5.5.5h1v1.4h-1.3c-1 0-1.7-.7-1.7-1.7v-1.9h-.7v-.8l1.4-1.7h.8v1.1zM129.8 12.8v3.1h-1.5v-2.8c0-.5-.3-.9-.8-.9s-.9.4-.9.9v2.8h-1.5V8.3h1.5v2.8c.3-.2.7-.4 1.2-.4 1.2 0 2 .9 2 2.1zM135.8 13.9h-3.5c.2.4.6.7 1.1.7.5 0 .8-.2 1-.6l1.2.7c-.4.8-1.3 1.2-2.2 1.2-1.5 0-2.6-1.1-2.6-2.6s1-2.6 2.5-2.6 2.5 1.1 2.5 2.6v.6zm-3.6-1.1h2.1c-.1-.5-.5-.7-1.1-.7-.5 0-.9.3-1 .7zM141.3 10.9h1.5v1.4h-1.5V14c0 .3.2.5.5.5h1v1.4h-1.3c-1 0-1.7-.7-1.7-1.7v-1.9h-.7v-.8l1.4-1.7h.8v1.1zM148.6 12.8v3.1h-1.5v-2.8c0-.5-.3-.9-.8-.9s-.9.4-.9.9v2.8h-1.5V8.3h1.5v2.8c.3-.2.7-.4 1.2-.4 1.1 0 2 .9 2 2.1zM150.6 8.4c.5 0 .9.4.9.9s-.4.9-.9.9-.9-.4-.9-.9.4-.9.9-.9zm.7 7.5h-1.5v-5h1.5v5zM157.3 12.7v3.1h-1.5V13c0-.5-.3-.9-.8-.9s-.9.4-.9.9v2.8h-1.5v-5h1.4v.3c.3-.2.8-.4 1.2-.4 1.3 0 2.1.9 2.1 2zM163.3 10.9v4.9c0 1.4-1 2.4-2.5 2.4-1.1 0-2-.6-2.3-1.6l1.3-.5c.1.4.5.7 1 .7.6 0 1-.4 1-1v-.4c-.3.2-.7.4-1.2.4-1.4 0-2.4-1.1-2.4-2.5s1-2.5 2.3-2.5c.5 0 .9.1 1.2.4v-.3h1.6zm-1.4 2.4c0-.6-.5-1.1-1.1-1.1-.6 0-1.1.5-1.1 1.1 0 .6.5 1 1.1 1 .6 0 1.1-.5 1.1-1zM166.4 14.7c.4 0 .6-.2.6-.4 0-.1-.1-.2-.4-.3-.2 0-.5 0-.9-.1-1-.1-1.4-.7-1.4-1.5 0-1 .8-1.7 2-1.7s2 .7 2 1.7H167c0-.2-.2-.4-.6-.4-.4 0-.6.1-.6.3 0 .1.1.2.3.2.3 0 .5 0 .9.1 1 .1 1.4.7 1.4 1.5 0 1-.8 1.8-2.1 1.8-1.2 0-2.1-.7-2.1-1.7h1.4c.1.3.4.5.8.5zM176.5 10.9l-2.6 7.2h-1.5l.8-2.2-1.8-4.9h1.6l1 2.7 1-2.7h1.5zM179.4 10.7c1.5 0 2.6 1.1 2.6 2.6 0 1.4-1.1 2.6-2.6 2.6s-2.6-1.2-2.6-2.6c0-1.4 1.1-2.6 2.6-2.6zm0 3.9c.7 0 1.2-.5 1.2-1.2s-.5-1.2-1.2-1.2-1.2.5-1.2 1.2c0 .6.5 1.2 1.2 1.2zM187.6 10.9v5h-1.4v-.3c-.3.2-.8.4-1.2.4-1.1 0-2-.8-2-2v-3.2h1.5v2.9c0 .5.3.8.8.8s.8-.4.8-.8v-2.9h1.5zM191.8 8.3h1.5v7.6h-1.5V8.3zM196.9 10.7c1.5 0 2.6 1.1 2.6 2.6 0 1.4-1.1 2.6-2.6 2.6s-2.6-1.2-2.6-2.6c0-1.4 1.1-2.6 2.6-2.6zm0 3.9c.7 0 1.2-.5 1.2-1.2s-.5-1.2-1.2-1.2-1.2.5-1.2 1.2c.1.6.6 1.2 1.2 1.2zM204.9 10.9l-1.8 5h-1.5l-1.8-5h1.6l1 2.8 1-2.8h1.5zM210.2 13.9h-3.5c.2.4.6.7 1.1.7.5 0 .8-.2 1-.6l1.2.7c-.4.8-1.3 1.2-2.2 1.2-1.5 0-2.6-1.1-2.6-2.6s1-2.6 2.5-2.6 2.5 1.1 2.5 2.6c.1.2 0 .4 0 .6zm-3.5-1.1h2.1c-.1-.5-.5-.7-1.1-.7-.5 0-.9.3-1 .7zM212 14.1c.5 0 .9.4.9.9s-.4.9-.9.9-.9-.4-.9-.9.4-.9.9-.9z"/></g><g fill="#193062"><path d="M65.5 27.9h-2.6l-.3 1h-1.5l2.4-7.3H65l2.4 7.3h-1.6l-.3-1zm-.5-1.5l-.8-2.5-.8 2.5H65zM73.4 26.4c0 1.5-1 2.6-2.5 2.6-.5 0-.9-.1-1.3-.4V31h-1.5v-7.2h1.4v.3c.3-.2.8-.4 1.3-.4 1.6.1 2.6 1.2 2.6 2.7zm-1.5 0c0-.7-.5-1.2-1.1-1.2-.7 0-1.2.5-1.2 1.2s.5 1.2 1.2 1.2c.6 0 1.1-.6 1.1-1.2zM79.6 26.4c0 1.5-1 2.6-2.5 2.6-.5 0-.9-.1-1.3-.4V31h-1.5v-7.2h1.4v.3c.3-.2.8-.4 1.3-.4 1.6.1 2.6 1.2 2.6 2.7zm-1.5 0c0-.7-.5-1.2-1.1-1.2-.7 0-1.2.5-1.2 1.2s.5 1.2 1.2 1.2c.6 0 1.1-.6 1.1-1.2zM80.6 21.3h1.5v7.6h-1.5v-7.6zM87.9 23.9L85.3 31h-1.5l.8-2.2-1.8-4.9h1.6l1 2.7 1-2.7h1.5zM91.6 25.3h-1v-1.4h1v-1c0-1 .6-1.6 1.6-1.6h1.1v1.4h-.9c-.2 0-.4.1-.4.4v.8h1.3v1.4H93v3.6h-1.5v-3.6zM97.5 23.8c1.5 0 2.6 1.1 2.6 2.6 0 1.4-1.1 2.6-2.6 2.6s-2.6-1.2-2.6-2.6c-.1-1.5 1-2.6 2.6-2.6zm0 3.8c.7 0 1.2-.5 1.2-1.2s-.5-1.2-1.2-1.2-1.2.5-1.2 1.2c0 .6.5 1.2 1.2 1.2zM104.3 23.9v1.5h-.7c-.6 0-1 .4-1 1V29h-1.5v-5h1.4v.4c.3-.4.7-.4 1.2-.4h.6zM108.1 21.6h1.6v5.8h4.2v1.5h-5.7v-7.3zM115.5 21.4c.5 0 .9.4.9.9s-.4.9-.9.9-.9-.4-.9-.9.4-.9.9-.9zm.8 7.5h-1.5v-5h1.5v5zM118.1 25.3h-1v-1.4h1v-1c0-1 .6-1.6 1.6-1.6h1.1v1.4h-.8c-.2 0-.4.1-.4.4v.8h1.3v1.4h-1.3v3.6h-1.5v-3.6zM126.3 26.9h-3.5c.2.4.6.7 1.1.7.5 0 .8-.2 1-.6l1.2.7c-.4.8-1.3 1.2-2.2 1.2-1.5 0-2.6-1.1-2.6-2.6s1-2.6 2.5-2.6 2.5 1.1 2.5 2.6v.6zm-3.6-1.1h2.1c-.1-.5-.5-.7-1.1-.7-.4 0-.8.3-1 .7zM130.3 21.6h1.6v7.3h-1.6v-7.3zM138 25.7v3.1h-1.5V26c0-.5-.3-.9-.8-.9s-.9.4-.9.9v2.8h-1.5v-5h1.4v.3c.3-.2.7-.4 1.2-.4 1.2.1 2.1.9 2.1 2zM141 27.7c.4 0 .6-.2.6-.4 0-.1-.1-.2-.4-.3s-.5 0-.9-.1c-1-.2-1.4-.7-1.4-1.5 0-1 .8-1.7 2-1.7s2 .7 2 1.7h-1.4c0-.2-.2-.4-.6-.4-.4 0-.6.1-.6.3 0 .1.1.2.4.2.3 0 .5 0 .9.1 1 .1 1.4.7 1.4 1.5 0 1-.8 1.8-2.1 1.8-1.2 0-2.1-.7-2.1-1.7h1.4c.2.3.4.5.8.5zM148.7 23.9v5h-1.4v-.3c-.3.2-.7.4-1.2.4-1.1 0-2-.8-2-2v-3.2h1.5v2.9c0 .5.3.8.8.8s.8-.4.8-.8v-2.9h1.5zM153.2 23.9v1.5h-.7c-.6 0-1 .4-1 1V29H150v-5h1.4v.4c.3-.4.7-.4 1.2-.4h.6zM158.1 25.7v3.2h-1.4v-.3c-.3.3-.7.4-1.2.4-1 0-1.8-.7-1.8-1.6 0-1 .8-1.5 1.8-1.6l1.2-.1v-.1c0-.3-.3-.6-.7-.6-.4 0-.7.2-.7.5h-1.4c.1-1 .9-1.8 2.1-1.8 1.2.1 2.1.9 2.1 2zm-1.5 1.4v-.3l-1 .1c-.4 0-.5.2-.5.4 0 .3.2.5.6.5.6 0 .9-.2.9-.7zM164 25.7v3.1h-1.5V26c0-.5-.3-.9-.8-.9s-.9.4-.9.9v2.8h-1.5v-5h1.4v.3c.3-.2.8-.4 1.2-.4 1.3.1 2.1.9 2.1 2zM167.6 23.8c1 0 1.7.5 2.2 1.2l-1.2.8c-.2-.3-.5-.6-1-.6-.7 0-1.1.5-1.1 1.2s.5 1.2 1.1 1.2c.4 0 .8-.2 1-.6l1.2.8c-.4.7-1.2 1.2-2.2 1.2-1.5 0-2.6-1.1-2.6-2.6s1.1-2.6 2.6-2.6zM175.2 26.9h-3.5c.2.4.6.7 1.1.7.5 0 .8-.2 1-.6l1.2.7c-.4.8-1.3 1.2-2.2 1.2-1.5 0-2.6-1.1-2.6-2.6s1-2.6 2.5-2.6 2.5 1.1 2.5 2.6c.1.2.1.4 0 .6zm-3.5-1.1h2.1c-.1-.5-.5-.7-1.1-.7-.5 0-.9.3-1 .7zM179.9 21.4c.5 0 .9.4.9.9s-.4.9-.9.9-.9-.4-.9-.9.4-.9.9-.9zm.8 7.5h-1.5v-5h1.5v5zM186.6 25.7v3.1h-1.5V26c0-.5-.3-.9-.8-.9s-.9.4-.9.9v2.8H182v-5h1.4v.3c.3-.2.8-.4 1.2-.4 1.2.1 2 .9 2 2zM198.2 25.6v3.3h-1.5v-3c0-.4-.3-.7-.7-.7-.4 0-.7.3-.7.7v3h-1.5v-3c0-.4-.3-.7-.7-.7-.4 0-.7.3-.7.7v3h-1.5v-5h1.4v.2c.3-.2.7-.3 1.1-.3.5 0 1 .2 1.3.5.3-.3.8-.5 1.4-.5 1.2 0 2.1.7 2.1 1.8zM200.2 21.4c.5 0 .9.4.9.9s-.4.9-.9.9-.9-.4-.9-.9.4-.9.9-.9zm.7 7.5h-1.5v-5h1.5v5zM206.9 25.7v3.1h-1.5V26c0-.5-.3-.9-.8-.9s-.9.4-.9.9v2.8h-1.5v-5h1.4v.3c.3-.2.8-.4 1.2-.4 1.3.1 2.1.9 2.1 2zM212.8 23.9v5h-1.4v-.3c-.3.2-.8.4-1.2.4-1.1 0-2-.8-2-2v-3.2h1.5v2.9c0 .5.3.8.8.8s.8-.4.8-.8v-2.9h1.5zM215.8 23.9h1.5v1.4h-1.5V27c0 .3.2.5.5.5h1v1.4H216c-1 0-1.7-.7-1.7-1.7v-1.9h-.7v-.8l1.4-1.7h.8v1.1zM223 26.9h-3.5c.2.4.6.7 1.1.7.5 0 .8-.2 1-.6l1.2.7c-.4.8-1.3 1.2-2.2 1.2-1.5 0-2.6-1.1-2.6-2.6s1-2.6 2.5-2.6 2.5 1.1 2.5 2.6c.1.2 0 .4 0 .6zm-3.5-1.1h2.1c-.1-.5-.5-.7-1.1-.7-.5 0-.9.3-1 .7zM225.8 27.7c.4 0 .6-.2.6-.4 0-.1-.1-.2-.4-.3s-.5 0-.9-.1c-1-.2-1.4-.7-1.4-1.5 0-1 .8-1.7 2-1.7s2 .7 2 1.7h-1.4c0-.2-.2-.4-.6-.4-.4 0-.6.1-.6.3 0 .1.1.2.3.2.3 0 .5 0 .9.1 1 .1 1.4.7 1.4 1.5 0 1-.8 1.8-2.1 1.8-1.2 0-2.1-.7-2.1-1.7h1.4c.3.3.5.5.9.5zM229.7 27.1c.5 0 .9.4.9.9s-.4.9-.9.9-.9-.4-.9-.9.4-.9.9-.9z"/></g></svg>