<svg baseProfile="tiny" xmlns="http://www.w3.org/2000/svg" viewBox="0 0 300 600" overflow="visible"><path fill="#FAE07E" d="M28 515.5h129.2V552H28z"/><g fill="#193062"><path d="M46 528.5h2v8.5h6.1v2H46v-10.5zM55.4 528.5h8.2v2h-6.1v2.2h3.4v2h-3.4v2.3h6.1v2h-8.2v-10.5zM67.8 530.5h-3.1v-2h8.2v2h-3.1v8.5h-2.1v-8.5zM86.6 535.1c0 .8-.2 1.5-.6 2.1-.4.6-.9 1.1-1.5 1.5-.6.4-1.4.5-2.1.5-.8 0-1.5-.2-2.2-.5s-1.2-.9-1.5-1.5c-.4-.6-.5-1.3-.5-2.1v-6.6h2.1v6.5c0 .4.1.8.3 1.1.2.3.4.6.8.8.3.2.7.3 1.1.3.4 0 .8-.1 1.1-.3.3-.2.6-.5.8-.8.2-.3.3-.7.3-1.1v-6.5h2v6.6zM92.1 530.3c-.3 0-.6.1-.9.2-.3.1-.4.3-.6.5-.1.2-.2.4-.2.6 0 .2.1.4.2.6.1.2.3.3.5.4.1.1.3.1.5.1s.4 0 .7.1c.3 0 .6.1.8.1.2 0 .5.1.7.2.7.2 1.2.6 1.6 1s.6 1.1.6 1.8-.2 1.3-.5 1.8-.8.9-1.4 1.2c-.6.3-1.3.4-2 .4s-1.4-.1-2-.4-1.1-.7-1.4-1.2c-.3-.5-.5-1.1-.5-1.8h2.1c0 .3.1.5.2.7.2.2.4.4.7.5.3.1.6.2 1 .2s.7-.1.9-.2c.3-.1.5-.3.6-.5s.2-.4.2-.7c0-.2-.1-.5-.2-.6-.1-.2-.3-.3-.5-.4-.2-.1-.3-.1-.5-.1s-.5-.1-.8-.1c-.3 0-.6-.1-.8-.1-.2 0-.4-.1-.6-.1-.7-.2-1.2-.5-1.6-1-.4-.5-.6-1.1-.6-1.8 0-.6.2-1.2.5-1.7s.8-.9 1.3-1.2c.6-.3 1.2-.4 1.9-.4s1.4.1 1.9.4c.6.3 1 .7 1.3 1.1.3.5.5 1.1.5 1.7h-2.1c0-.2-.1-.5-.2-.7-.1-.2-.4-.3-.6-.4-.1-.1-.4-.2-.7-.2zM101.6 528.5h2.1v4.2h4.3v-4.2h2.1V539H108v-4.3h-4.3v4.3h-2.1v-10.5zM112.3 528.5h8.2v2h-6.1v2.2h3.4v2h-3.4v2.3h6.1v2h-8.2v-10.5zM122.3 528.5h2.1v8.5h6.1v2h-8.2v-10.5zM140.2 532.3c0 .7-.2 1.4-.5 2s-.8 1-1.4 1.4c-.6.3-1.3.5-2 .5h-2.4v3h-2.1v-10.5h4.5c.8 0 1.4.2 2 .5.6.3 1 .8 1.4 1.3.3.4.5 1.1.5 1.8zm-2.1 0c0-.3-.1-.6-.2-.9-.2-.3-.4-.5-.6-.6-.3-.2-.6-.2-.9-.2h-2.5v3.5h2.5c.3 0 .7-.1.9-.2s.5-.4.6-.6c.1-.4.2-.7.2-1z"/></g></svg>