<?xml version="1.0" encoding="utf-8"?>
<!-- Generator: Adobe Illustrator 27.4.0, SVG Export Plug-In . SVG Version: 6.00 Build 0)  -->
<svg version="1.1" baseProfile="tiny" id="Layer_1" xmlns="http://www.w3.org/2000/svg" xmlns:xlink="http://www.w3.org/1999/xlink"
	 x="0px" y="0px" viewBox="0 0 300 50" overflow="visible" xml:space="preserve">
<g>
	<path fill="#373535" d="M66.6,44c0,0.4-0.1,0.8-0.3,1.1c-0.2,0.3-0.4,0.6-0.8,0.8s-0.7,0.3-1.1,0.3c-0.4,0-0.8-0.1-1.1-0.3
		c-0.3-0.2-0.6-0.5-0.8-0.8s-0.3-0.7-0.3-1.2c0-0.4,0.1-0.8,0.3-1.2c0.2-0.3,0.5-0.6,0.8-0.8s0.7-0.3,1.1-0.3c0.4,0,0.8,0.1,1.1,0.3
		s0.6,0.4,0.8,0.8L66,42.8c-0.2-0.3-0.4-0.5-0.6-0.6c-0.3-0.2-0.6-0.2-0.9-0.2c-0.3,0-0.6,0.1-0.9,0.2c-0.3,0.2-0.5,0.4-0.6,0.6
		s-0.2,0.6-0.2,0.9c0,0.3,0.1,0.7,0.2,0.9s0.4,0.5,0.6,0.6s0.6,0.2,0.9,0.2c0.3,0,0.5-0.1,0.8-0.2s0.4-0.2,0.6-0.4s0.3-0.4,0.3-0.6
		h-1.9V44H66.6z"/>
	<path fill="#373535" d="M67.3,41.6h3.2v0.4h-2.8v1.5h1.6V44h-1.6v1.5h2.8V46h-3.2V41.6z"/>
	<path fill="#373535" d="M74.8,41.6V46h-0.5l-2.4-3.6V46h-0.5v-4.4h0.5l2.4,3.6v-3.6H74.8z"/>
	<path fill="#373535" d="M77,44.1v0.4h-1.4v-0.4H77z"/>
	<path fill="#373535" d="M80.4,44.8c0,0.2-0.1,0.5-0.2,0.6c-0.1,0.2-0.3,0.3-0.5,0.5c-0.2,0.1-0.4,0.2-0.7,0.2
		c-0.3,0-0.5-0.1-0.7-0.2s-0.4-0.3-0.5-0.5s-0.2-0.4-0.2-0.6h0.5c0,0.2,0,0.3,0.1,0.4s0.2,0.2,0.3,0.3c0.1,0.1,0.3,0.1,0.5,0.1
		c0.2,0,0.3,0,0.5-0.1s0.2-0.2,0.3-0.3s0.1-0.3,0.1-0.4c0-0.2,0-0.3-0.1-0.4c-0.1-0.1-0.2-0.2-0.3-0.3S79.2,44,79,44h-0.4v-0.4H79
		c0.2,0,0.3,0,0.4-0.1s0.2-0.2,0.3-0.3s0.1-0.2,0.1-0.4c0-0.2,0-0.3-0.1-0.4s-0.2-0.2-0.3-0.3S79.2,42,79,42c-0.2,0-0.3,0-0.4,0.1
		s-0.2,0.2-0.3,0.3c-0.1,0.1-0.1,0.2-0.1,0.4h-0.5c0-0.2,0.1-0.4,0.2-0.6c0.1-0.2,0.3-0.3,0.4-0.4c0.2-0.1,0.4-0.2,0.7-0.2
		c0.2,0,0.5,0.1,0.7,0.2c0.2,0.1,0.3,0.2,0.4,0.4s0.2,0.4,0.2,0.6c0,0.2,0,0.4-0.1,0.6s-0.2,0.3-0.4,0.4c0.2,0.1,0.3,0.2,0.4,0.4
		S80.4,44.6,80.4,44.8z"/>
	<path fill="#373535" d="M84.1,43c0,0.2,0,0.3-0.1,0.5s-0.1,0.3-0.2,0.5l-1.3,2h-0.5l1.1-1.7c-0.1,0-0.3,0-0.4,0
		c-0.3,0-0.5-0.1-0.7-0.2c-0.2-0.1-0.4-0.3-0.5-0.5c-0.1-0.2-0.2-0.4-0.2-0.7c0-0.3,0.1-0.5,0.2-0.7s0.3-0.4,0.5-0.5
		s0.5-0.2,0.7-0.2c0.3,0,0.5,0.1,0.7,0.2s0.4,0.3,0.5,0.5S84.1,42.7,84.1,43z M82.6,43.9c0.2,0,0.4,0,0.5-0.1
		c0.2-0.1,0.3-0.2,0.4-0.3s0.1-0.3,0.1-0.5c0-0.2,0-0.4-0.1-0.5s-0.2-0.3-0.4-0.3S82.8,42,82.6,42s-0.4,0-0.5,0.1s-0.3,0.2-0.4,0.3
		s-0.1,0.3-0.1,0.5c0,0.2,0,0.4,0.1,0.5s0.2,0.3,0.4,0.3C82.3,43.9,82.5,43.9,82.6,43.9z"/>
	<path fill="#373535" d="M87.6,44.8c0,0.2-0.1,0.5-0.2,0.6c-0.1,0.2-0.3,0.3-0.5,0.5c-0.2,0.1-0.4,0.2-0.7,0.2
		c-0.3,0-0.5-0.1-0.7-0.2s-0.4-0.3-0.5-0.5s-0.2-0.4-0.2-0.6h0.5c0,0.2,0,0.3,0.1,0.4s0.2,0.2,0.3,0.3c0.1,0.1,0.3,0.1,0.5,0.1
		c0.2,0,0.3,0,0.5-0.1s0.2-0.2,0.3-0.3s0.1-0.3,0.1-0.4c0-0.2,0-0.3-0.1-0.4c-0.1-0.1-0.2-0.2-0.3-0.3S86.4,44,86.2,44h-0.4v-0.4
		h0.4c0.2,0,0.3,0,0.4-0.1s0.2-0.2,0.3-0.3s0.1-0.2,0.1-0.4c0-0.2,0-0.3-0.1-0.4s-0.2-0.2-0.3-0.3S86.4,42,86.2,42
		c-0.2,0-0.3,0-0.4,0.1s-0.2,0.2-0.3,0.3c-0.1,0.1-0.1,0.2-0.1,0.4H85c0-0.2,0.1-0.4,0.2-0.6c0.1-0.2,0.3-0.3,0.4-0.4
		c0.2-0.1,0.4-0.2,0.7-0.2c0.2,0,0.5,0.1,0.7,0.2c0.2,0.1,0.3,0.2,0.4,0.4s0.2,0.4,0.2,0.6c0,0.2,0,0.4-0.1,0.6s-0.2,0.3-0.4,0.4
		c0.2,0.1,0.3,0.2,0.4,0.4S87.6,44.6,87.6,44.8z"/>
	<path fill="#373535" d="M91.3,44.7c0,0.3-0.1,0.5-0.2,0.7s-0.3,0.4-0.5,0.5c-0.2,0.1-0.5,0.2-0.7,0.2c-0.3,0-0.5-0.1-0.7-0.2
		c-0.2-0.1-0.4-0.3-0.5-0.5s-0.2-0.4-0.2-0.7h0.5c0,0.2,0,0.3,0.1,0.5c0.1,0.1,0.2,0.3,0.3,0.3c0.1,0.1,0.3,0.1,0.5,0.1
		c0.2,0,0.4,0,0.5-0.1c0.1-0.1,0.3-0.2,0.3-0.3c0.1-0.1,0.1-0.3,0.1-0.5s0-0.3-0.1-0.5s-0.2-0.3-0.3-0.3c-0.1-0.1-0.3-0.1-0.5-0.1
		h-1.2l0.3-2.1h2.2v0.4h-1.8l-0.2,1.2h0.7c0.3,0,0.5,0.1,0.7,0.2s0.4,0.3,0.5,0.5S91.3,44.4,91.3,44.7z"/>
	<path fill="#373535" d="M93.2,42.1L92,42.8v-0.5l1.2-0.7h0.5V46h-0.5V42.1z"/>
	<path fill="#373535" d="M97.5,45.5V46h-2.7v-0.4l1.8-1.9c0.1-0.2,0.2-0.3,0.3-0.4S97,43,97,42.8c0-0.2,0-0.3-0.1-0.4
		s-0.2-0.2-0.3-0.3S96.3,42,96.1,42c-0.2,0-0.3,0-0.4,0.1s-0.2,0.2-0.3,0.3s-0.1,0.3-0.1,0.4h-0.5c0-0.2,0.1-0.5,0.2-0.7
		s0.3-0.3,0.5-0.5s0.4-0.2,0.7-0.2c0.3,0,0.5,0.1,0.7,0.2s0.4,0.3,0.5,0.5s0.2,0.4,0.2,0.7c0,0.2,0,0.4-0.1,0.6s-0.2,0.4-0.4,0.6
		l-1.4,1.5H97.5z"/>
	<path fill="#373535" d="M101.5,44.2v0.4h-0.8V46h-0.5v-1.4h-2v-0.4l1.9-2.6h0.5v2.6H101.5z M100.2,44.2v-1.9l-1.4,1.9H100.2z"/>
	<path fill="#373535" d="M102.4,45.3c0.1,0,0.2,0,0.2,0.1s0.1,0.1,0.1,0.2s0,0.2-0.1,0.2c-0.1,0.1-0.1,0.1-0.2,0.1s-0.2,0-0.2-0.1
		c-0.1-0.1-0.1-0.1-0.1-0.2s0-0.2,0.1-0.2S102.3,45.3,102.4,45.3z"/>
	<path fill="#373535" d="M106.3,45.5V46h-2.7v-0.4l1.8-1.9c0.1-0.2,0.2-0.3,0.3-0.4s0.1-0.3,0.1-0.4c0-0.2,0-0.3-0.1-0.4
		s-0.2-0.2-0.3-0.3s-0.3-0.1-0.5-0.1c-0.2,0-0.3,0-0.4,0.1s-0.2,0.2-0.3,0.3s-0.1,0.3-0.1,0.4h-0.5c0-0.2,0.1-0.5,0.2-0.7
		s0.3-0.3,0.5-0.5s0.4-0.2,0.7-0.2c0.3,0,0.5,0.1,0.7,0.2s0.4,0.3,0.5,0.5s0.2,0.4,0.2,0.7c0,0.2,0,0.4-0.1,0.6s-0.2,0.4-0.4,0.6
		l-1.4,1.5H106.3z"/>
</g>
</svg>
