<?xml version="1.0" encoding="utf-8"?>
<!-- Generator: Adobe Illustrator 27.4.0, SVG Export Plug-In . SVG Version: 6.00 Build 0)  -->
<svg version="1.1" baseProfile="tiny" id="Layer_1" xmlns="http://www.w3.org/2000/svg" xmlns:xlink="http://www.w3.org/1999/xlink"
	 x="0px" y="0px" viewBox="0 0 300 50" overflow="visible" xml:space="preserve">
<g>
	<path fill="#193062" d="M68.7,12v0.3c0,2.1-1.4,3.7-3.6,3.7c-2.2,0-3.7-1.6-3.7-3.8c0-2.1,1.6-3.8,3.8-3.8c1.4,0,2.6,0.7,3.3,1.8
		l-1.3,0.8C66.7,10.5,66,10,65.1,10c-1.3,0-2.2,1-2.2,2.2c0,1.3,0.8,2.3,2.2,2.3c0.9,0,1.5-0.4,1.9-1h-2.3V12H68.7z"/>
	<path fill="#193062" d="M74.4,13.9h-3.5c0.2,0.4,0.6,0.7,1.1,0.7c0.5,0,0.8-0.2,1-0.6l1.2,0.7C73.8,15.5,73,16,72,16
		c-1.5,0-2.6-1.1-2.6-2.6c0-1.5,1-2.6,2.5-2.6c1.5,0,2.5,1.1,2.5,2.6C74.5,13.5,74.4,13.7,74.4,13.9z M70.9,12.8H73
		c-0.1-0.5-0.5-0.7-1.1-0.7C71.4,12.1,71,12.4,70.9,12.8z"/>
	<path fill="#193062" d="M77.1,10.9h1.5v1.4h-1.5v1.7c0,0.3,0.2,0.5,0.5,0.5h1v1.4h-1.3c-1,0-1.7-0.7-1.7-1.7v-1.9h-0.7v-0.8
		l1.4-1.7h0.8V10.9z"/>
	<path fill="#193062" d="M87.8,13.4c0,1.5-1,2.6-2.5,2.6c-0.5,0-0.9-0.1-1.3-0.4v0.3h-1.4V8.3H84v2.8c0.3-0.2,0.8-0.4,1.3-0.4
		C86.7,10.7,87.8,11.9,87.8,13.4z M86.3,13.4c0-0.7-0.5-1.2-1.1-1.2c-0.7,0-1.2,0.5-1.2,1.2c0,0.7,0.5,1.2,1.2,1.2
		C85.8,14.6,86.3,14,86.3,13.4z"/>
	<path fill="#193062" d="M92.9,12.7v3.2h-1.4v-0.3c-0.3,0.3-0.7,0.4-1.2,0.4c-1,0-1.8-0.6-1.8-1.6c0-1,0.8-1.5,1.8-1.6l1.2-0.1v-0.1
		c0-0.3-0.3-0.6-0.7-0.6c-0.4,0-0.7,0.2-0.7,0.5h-1.4c0.1-1,0.9-1.8,2.1-1.8C92,10.7,92.9,11.6,92.9,12.7z M91.5,14.1v-0.3l-1,0.1
		c-0.4,0-0.5,0.2-0.5,0.4c0,0.3,0.2,0.5,0.6,0.5C91.1,14.8,91.5,14.6,91.5,14.1z"/>
	<path fill="#193062" d="M96.5,10.7c1,0,1.7,0.5,2.2,1.2l-1.2,0.8c-0.2-0.3-0.5-0.6-1-0.6c-0.7,0-1.1,0.5-1.1,1.2
		c0,0.7,0.5,1.2,1.1,1.2c0.4,0,0.8-0.2,1-0.6l1.2,0.8c-0.4,0.7-1.2,1.2-2.2,1.2c-1.5,0-2.6-1.1-2.6-2.6S95,10.7,96.5,10.7z"/>
	<path fill="#193062" d="M102.5,13.3l1.9,2.6h-1.8l-1.7-2.4v2.4h-1.5V8.3h1.5v4.7l1.7-2.1h1.8L102.5,13.3z"/>
	<path fill="#193062" d="M109.6,10.9h1.5v1.4h-1.5v1.7c0,0.3,0.2,0.5,0.5,0.5h1v1.4h-1.3c-1,0-1.7-0.7-1.7-1.7v-1.9h-0.7v-0.8
		l1.4-1.7h0.8V10.9z"/>
	<path fill="#193062" d="M114.4,10.7c1.5,0,2.6,1.1,2.6,2.6c0,1.4-1.1,2.6-2.6,2.6c-1.5,0-2.6-1.2-2.6-2.6
		C111.8,11.9,112.9,10.7,114.4,10.7z M114.4,14.6c0.7,0,1.2-0.5,1.2-1.2c0-0.7-0.5-1.2-1.2-1.2c-0.7,0-1.2,0.5-1.2,1.2
		C113.3,14,113.7,14.6,114.4,14.6z"/>
	<path fill="#193062" d="M122.6,10.9h1.5v1.4h-1.5v1.7c0,0.3,0.2,0.5,0.5,0.5h1v1.4h-1.3c-1,0-1.7-0.7-1.7-1.7v-1.9h-0.7v-0.8
		l1.4-1.7h0.8V10.9z"/>
	<path fill="#193062" d="M129.8,12.8v3.1h-1.5v-2.8c0-0.5-0.3-0.9-0.8-0.9c-0.5,0-0.9,0.4-0.9,0.9v2.8h-1.5V8.3h1.5v2.8
		c0.3-0.2,0.7-0.4,1.2-0.4C129,10.7,129.8,11.6,129.8,12.8z"/>
	<path fill="#193062" d="M135.8,13.9h-3.5c0.2,0.4,0.6,0.7,1.1,0.7c0.5,0,0.8-0.2,1-0.6l1.2,0.7c-0.4,0.8-1.3,1.2-2.2,1.2
		c-1.5,0-2.6-1.1-2.6-2.6c0-1.5,1-2.6,2.5-2.6c1.5,0,2.5,1.1,2.5,2.6C135.8,13.5,135.8,13.7,135.8,13.9z M132.2,12.8h2.1
		c-0.1-0.5-0.5-0.7-1.1-0.7C132.7,12.1,132.3,12.4,132.2,12.8z"/>
	<path fill="#193062" d="M141.3,10.9h1.5v1.4h-1.5v1.7c0,0.3,0.2,0.5,0.5,0.5h1v1.4h-1.3c-1,0-1.7-0.7-1.7-1.7v-1.9h-0.7v-0.8
		l1.4-1.7h0.8V10.9z"/>
	<path fill="#193062" d="M148.6,12.8v3.1h-1.5v-2.8c0-0.5-0.3-0.9-0.8-0.9c-0.5,0-0.9,0.4-0.9,0.9v2.8h-1.5V8.3h1.5v2.8
		c0.3-0.2,0.7-0.4,1.2-0.4C147.7,10.7,148.6,11.6,148.6,12.8z"/>
	<path fill="#193062" d="M150.6,8.4c0.5,0,0.9,0.4,0.9,0.9c0,0.5-0.4,0.9-0.9,0.9c-0.5,0-0.9-0.4-0.9-0.9
		C149.7,8.8,150.1,8.4,150.6,8.4z M151.3,15.9h-1.5v-5h1.5V15.9z"/>
	<path fill="#193062" d="M157.3,12.7v3.1h-1.5V13c0-0.5-0.3-0.9-0.8-0.9s-0.9,0.4-0.9,0.9v2.8h-1.5v-5h1.4v0.3
		c0.3-0.2,0.8-0.4,1.2-0.4C156.5,10.7,157.3,11.6,157.3,12.7z"/>
	<path fill="#193062" d="M163.3,10.9v4.9c0,1.4-1,2.4-2.5,2.4c-1.1,0-2-0.6-2.3-1.6l1.3-0.5c0.1,0.4,0.5,0.7,1,0.7c0.6,0,1-0.4,1-1
		v-0.4c-0.3,0.2-0.7,0.4-1.2,0.4c-1.4,0-2.4-1.1-2.4-2.5s1-2.5,2.3-2.5c0.5,0,0.9,0.1,1.2,0.4v-0.3H163.3z M161.9,13.3
		c0-0.6-0.5-1.1-1.1-1.1c-0.6,0-1.1,0.5-1.1,1.1c0,0.6,0.5,1,1.1,1C161.4,14.3,161.9,13.8,161.9,13.3z"/>
	<path fill="#193062" d="M166.4,14.7c0.4,0,0.6-0.2,0.6-0.4c0-0.1-0.1-0.2-0.4-0.3c-0.2,0-0.5,0-0.9-0.1c-1-0.1-1.4-0.7-1.4-1.5
		c0-1,0.8-1.7,2-1.7c1.2,0,2,0.7,2,1.7H167c0-0.2-0.2-0.4-0.6-0.4c-0.4,0-0.6,0.1-0.6,0.3c0,0.1,0.1,0.2,0.3,0.2
		c0.3,0,0.5,0,0.9,0.1c1,0.1,1.4,0.7,1.4,1.5c0,1-0.8,1.8-2.1,1.8c-1.2,0-2.1-0.7-2.1-1.7h1.4C165.7,14.5,166,14.7,166.4,14.7z"/>
	<path fill="#193062" d="M176.5,10.9l-2.6,7.2h-1.5l0.8-2.2l-1.8-4.9h1.6l1,2.7l1-2.7H176.5z"/>
	<path fill="#193062" d="M179.4,10.7c1.5,0,2.6,1.1,2.6,2.6c0,1.4-1.1,2.6-2.6,2.6c-1.5,0-2.6-1.2-2.6-2.6
		C176.8,11.9,177.9,10.7,179.4,10.7z M179.4,14.6c0.7,0,1.2-0.5,1.2-1.2c0-0.7-0.5-1.2-1.2-1.2s-1.2,0.5-1.2,1.2
		C178.2,14,178.7,14.6,179.4,14.6z"/>
	<path fill="#193062" d="M187.6,10.9v5h-1.4v-0.3c-0.3,0.2-0.8,0.4-1.2,0.4c-1.1,0-2-0.8-2-2v-3.2h1.5v2.9c0,0.5,0.3,0.8,0.8,0.8
		s0.8-0.4,0.8-0.8v-2.9H187.6z"/>
	<path fill="#193062" d="M191.8,8.3h1.5v7.6h-1.5V8.3z"/>
	<path fill="#193062" d="M196.9,10.7c1.5,0,2.6,1.1,2.6,2.6c0,1.4-1.1,2.6-2.6,2.6c-1.5,0-2.6-1.2-2.6-2.6
		C194.3,11.9,195.4,10.7,196.9,10.7z M196.9,14.6c0.7,0,1.2-0.5,1.2-1.2c0-0.7-0.5-1.2-1.2-1.2s-1.2,0.5-1.2,1.2
		C195.8,14,196.3,14.6,196.9,14.6z"/>
	<path fill="#193062" d="M204.9,10.9l-1.8,5h-1.5l-1.8-5h1.6l1,2.8l1-2.8H204.9z"/>
	<path fill="#193062" d="M210.2,13.9h-3.5c0.2,0.4,0.6,0.7,1.1,0.7c0.5,0,0.8-0.2,1-0.6l1.2,0.7c-0.4,0.8-1.3,1.2-2.2,1.2
		c-1.5,0-2.6-1.1-2.6-2.6c0-1.5,1-2.6,2.5-2.6c1.5,0,2.5,1.1,2.5,2.6C210.3,13.5,210.2,13.7,210.2,13.9z M206.7,12.8h2.1
		c-0.1-0.5-0.5-0.7-1.1-0.7C207.2,12.1,206.8,12.4,206.7,12.8z"/>
	<path fill="#193062" d="M212,14.1c0.5,0,0.9,0.4,0.9,0.9c0,0.5-0.4,0.9-0.9,0.9c-0.5,0-0.9-0.4-0.9-0.9
		C211.1,14.5,211.5,14.1,212,14.1z"/>
</g>
<g>
	<path fill="#193062" d="M65.5,27.9h-2.6l-0.3,1h-1.5l2.4-7.3H65l2.4,7.3h-1.6L65.5,27.9z M65,26.4l-0.8-2.5l-0.8,2.5H65z"/>
	<path fill="#193062" d="M73.4,26.4c0,1.5-1,2.6-2.5,2.6c-0.5,0-0.9-0.1-1.3-0.4V31h-1.5v-7.2h1.4v0.3c0.3-0.2,0.8-0.4,1.3-0.4
		C72.4,23.8,73.4,24.9,73.4,26.4z M71.9,26.4c0-0.7-0.5-1.2-1.1-1.2c-0.7,0-1.2,0.5-1.2,1.2c0,0.7,0.5,1.2,1.2,1.2
		C71.4,27.6,71.9,27,71.9,26.4z"/>
	<path fill="#193062" d="M79.6,26.4c0,1.5-1,2.6-2.5,2.6c-0.5,0-0.9-0.1-1.3-0.4V31h-1.5v-7.2h1.4v0.3c0.3-0.2,0.8-0.4,1.3-0.4
		C78.6,23.8,79.6,24.9,79.6,26.4z M78.1,26.4c0-0.7-0.5-1.2-1.1-1.2c-0.7,0-1.2,0.5-1.2,1.2c0,0.7,0.5,1.2,1.2,1.2
		C77.6,27.6,78.1,27,78.1,26.4z"/>
	<path fill="#193062" d="M80.6,21.3h1.5v7.6h-1.5V21.3z"/>
	<path fill="#193062" d="M87.9,23.9L85.3,31h-1.5l0.8-2.2l-1.8-4.9h1.6l1,2.7l1-2.7H87.9z"/>
	<path fill="#193062" d="M91.6,25.3h-1v-1.4h1v-1c0-1,0.6-1.6,1.6-1.6h1.1v1.4h-0.9c-0.2,0-0.4,0.1-0.4,0.4v0.8h1.3v1.4h-1.3v3.6
		h-1.5V25.3z"/>
	<path fill="#193062" d="M97.5,23.8c1.5,0,2.6,1.1,2.6,2.6c0,1.4-1.1,2.6-2.6,2.6c-1.5,0-2.6-1.2-2.6-2.6
		C94.8,24.9,95.9,23.8,97.5,23.8z M97.5,27.6c0.7,0,1.2-0.5,1.2-1.2c0-0.7-0.5-1.2-1.2-1.2c-0.7,0-1.2,0.5-1.2,1.2
		C96.3,27,96.8,27.6,97.5,27.6z"/>
	<path fill="#193062" d="M104.3,23.9v1.5h-0.7c-0.6,0-1,0.4-1,1v2.6h-1.5v-5h1.4v0.4c0.3-0.4,0.7-0.4,1.2-0.4H104.3z"/>
	<path fill="#193062" d="M108.1,21.6h1.6v5.8h4.2v1.5h-5.7V21.6z"/>
	<path fill="#193062" d="M115.5,21.4c0.5,0,0.9,0.4,0.9,0.9c0,0.5-0.4,0.9-0.9,0.9c-0.5,0-0.9-0.4-0.9-0.9
		C114.6,21.8,115,21.4,115.5,21.4z M116.3,28.9h-1.5v-5h1.5V28.9z"/>
	<path fill="#193062" d="M118.1,25.3h-1v-1.4h1v-1c0-1,0.6-1.6,1.6-1.6h1.1v1.4H120c-0.2,0-0.4,0.1-0.4,0.4v0.8h1.3v1.4h-1.3v3.6
		h-1.5V25.3z"/>
	<path fill="#193062" d="M126.3,26.9h-3.5c0.2,0.4,0.6,0.7,1.1,0.7c0.5,0,0.8-0.2,1-0.6l1.2,0.7c-0.4,0.8-1.3,1.2-2.2,1.2
		c-1.5,0-2.6-1.1-2.6-2.6c0-1.5,1-2.6,2.5-2.6c1.5,0,2.5,1.1,2.5,2.6C126.3,26.5,126.3,26.7,126.3,26.9z M122.7,25.8h2.1
		c-0.1-0.5-0.5-0.7-1.1-0.7C123.3,25.1,122.9,25.4,122.7,25.8z"/>
	<path fill="#193062" d="M130.3,21.6h1.6v7.3h-1.6V21.6z"/>
	<path fill="#193062" d="M138,25.7v3.1h-1.5V26c0-0.5-0.3-0.9-0.8-0.9c-0.5,0-0.9,0.4-0.9,0.9v2.8h-1.5v-5h1.4v0.3
		c0.3-0.2,0.7-0.4,1.2-0.4C137.1,23.8,138,24.6,138,25.7z"/>
	<path fill="#193062" d="M141,27.7c0.4,0,0.6-0.2,0.6-0.4c0-0.1-0.1-0.2-0.4-0.3s-0.5,0-0.9-0.1c-1-0.2-1.4-0.7-1.4-1.5
		c0-1,0.8-1.7,2-1.7c1.2,0,2,0.7,2,1.7h-1.4c0-0.2-0.2-0.4-0.6-0.4c-0.4,0-0.6,0.1-0.6,0.3c0,0.1,0.1,0.2,0.4,0.2
		c0.3,0,0.5,0,0.9,0.1c1,0.1,1.4,0.7,1.4,1.5c0,1-0.8,1.8-2.1,1.8c-1.2,0-2.1-0.7-2.1-1.7h1.4C140.4,27.5,140.6,27.7,141,27.7z"/>
	<path fill="#193062" d="M148.7,23.9v5h-1.4v-0.3c-0.3,0.2-0.7,0.4-1.2,0.4c-1.1,0-2-0.8-2-2v-3.2h1.5v2.9c0,0.5,0.3,0.8,0.8,0.8
		s0.8-0.4,0.8-0.8v-2.9H148.7z"/>
	<path fill="#193062" d="M153.2,23.9v1.5h-0.7c-0.6,0-1,0.4-1,1v2.6H150v-5h1.4v0.4c0.3-0.4,0.7-0.4,1.2-0.4H153.2z"/>
	<path fill="#193062" d="M158.1,25.7v3.2h-1.4v-0.3c-0.3,0.3-0.7,0.4-1.2,0.4c-1,0-1.8-0.7-1.8-1.6c0-1,0.8-1.5,1.8-1.6l1.2-0.1
		v-0.1c0-0.3-0.3-0.6-0.7-0.6c-0.4,0-0.7,0.2-0.7,0.5h-1.4c0.1-1,0.9-1.8,2.1-1.8C157.2,23.8,158.1,24.6,158.1,25.7z M156.6,27.1
		v-0.3l-1,0.1c-0.4,0-0.5,0.2-0.5,0.4c0,0.3,0.2,0.5,0.6,0.5C156.3,27.8,156.6,27.6,156.6,27.1z"/>
	<path fill="#193062" d="M164,25.7v3.1h-1.5V26c0-0.5-0.3-0.9-0.8-0.9s-0.9,0.4-0.9,0.9v2.8h-1.5v-5h1.4v0.3
		c0.3-0.2,0.8-0.4,1.2-0.4C163.2,23.8,164,24.6,164,25.7z"/>
	<path fill="#193062" d="M167.6,23.8c1,0,1.7,0.5,2.2,1.2l-1.2,0.8c-0.2-0.3-0.5-0.6-1-0.6c-0.7,0-1.1,0.5-1.1,1.2
		c0,0.7,0.5,1.2,1.1,1.2c0.4,0,0.8-0.2,1-0.6l1.2,0.8c-0.4,0.7-1.2,1.2-2.2,1.2c-1.5,0-2.6-1.1-2.6-2.6
		C165,24.9,166.1,23.8,167.6,23.8z"/>
	<path fill="#193062" d="M175.2,26.9h-3.5c0.2,0.4,0.6,0.7,1.1,0.7c0.5,0,0.8-0.2,1-0.6l1.2,0.7c-0.4,0.8-1.3,1.2-2.2,1.2
		c-1.5,0-2.6-1.1-2.6-2.6c0-1.5,1-2.6,2.5-2.6c1.5,0,2.5,1.1,2.5,2.6C175.3,26.5,175.3,26.7,175.2,26.9z M171.7,25.8h2.1
		c-0.1-0.5-0.5-0.7-1.1-0.7C172.2,25.1,171.8,25.4,171.7,25.8z"/>
	<path fill="#193062" d="M179.9,21.4c0.5,0,0.9,0.4,0.9,0.9c0,0.5-0.4,0.9-0.9,0.9c-0.5,0-0.9-0.4-0.9-0.9
		C179,21.8,179.4,21.4,179.9,21.4z M180.7,28.9h-1.5v-5h1.5V28.9z"/>
	<path fill="#193062" d="M186.6,25.7v3.1h-1.5V26c0-0.5-0.3-0.9-0.8-0.9c-0.5,0-0.9,0.4-0.9,0.9v2.8H182v-5h1.4v0.3
		c0.3-0.2,0.8-0.4,1.2-0.4C185.8,23.8,186.6,24.6,186.6,25.7z"/>
	<path fill="#193062" d="M198.2,25.6v3.3h-1.5v-3c0-0.4-0.3-0.7-0.7-0.7c-0.4,0-0.7,0.3-0.7,0.7v3h-1.5v-3c0-0.4-0.3-0.7-0.7-0.7
		c-0.4,0-0.7,0.3-0.7,0.7v3h-1.5v-5h1.4v0.2c0.3-0.2,0.7-0.3,1.1-0.3c0.5,0,1,0.2,1.3,0.5c0.3-0.3,0.8-0.5,1.4-0.5
		C197.3,23.8,198.2,24.5,198.2,25.6z"/>
	<path fill="#193062" d="M200.2,21.4c0.5,0,0.9,0.4,0.9,0.9c0,0.5-0.4,0.9-0.9,0.9c-0.5,0-0.9-0.4-0.9-0.9
		C199.3,21.8,199.7,21.4,200.2,21.4z M200.9,28.9h-1.5v-5h1.5V28.9z"/>
	<path fill="#193062" d="M206.9,25.7v3.1h-1.5V26c0-0.5-0.3-0.9-0.8-0.9s-0.9,0.4-0.9,0.9v2.8h-1.5v-5h1.4v0.3
		c0.3-0.2,0.8-0.4,1.2-0.4C206.1,23.8,206.9,24.6,206.9,25.7z"/>
	<path fill="#193062" d="M212.8,23.9v5h-1.4v-0.3c-0.3,0.2-0.8,0.4-1.2,0.4c-1.1,0-2-0.8-2-2v-3.2h1.5v2.9c0,0.5,0.3,0.8,0.8,0.8
		s0.8-0.4,0.8-0.8v-2.9H212.8z"/>
	<path fill="#193062" d="M215.8,23.9h1.5v1.4h-1.5v1.7c0,0.3,0.2,0.5,0.5,0.5h1v1.4h-1.3c-1,0-1.7-0.7-1.7-1.7v-1.9h-0.7v-0.8
		l1.4-1.7h0.8V23.9z"/>
	<path fill="#193062" d="M223,26.9h-3.5c0.2,0.4,0.6,0.7,1.1,0.7c0.5,0,0.8-0.2,1-0.6l1.2,0.7c-0.4,0.8-1.3,1.2-2.2,1.2
		c-1.5,0-2.6-1.1-2.6-2.6c0-1.5,1-2.6,2.5-2.6c1.5,0,2.5,1.1,2.5,2.6C223.1,26.5,223,26.7,223,26.9z M219.5,25.8h2.1
		c-0.1-0.5-0.5-0.7-1.1-0.7C220,25.1,219.6,25.4,219.5,25.8z"/>
	<path fill="#193062" d="M225.8,27.7c0.4,0,0.6-0.2,0.6-0.4c0-0.1-0.1-0.2-0.4-0.3s-0.5,0-0.9-0.1c-1-0.2-1.4-0.7-1.4-1.5
		c0-1,0.8-1.7,2-1.7c1.2,0,2,0.7,2,1.7h-1.4c0-0.2-0.2-0.4-0.6-0.4c-0.4,0-0.6,0.1-0.6,0.3c0,0.1,0.1,0.2,0.3,0.2
		c0.3,0,0.5,0,0.9,0.1c1,0.1,1.4,0.7,1.4,1.5c0,1-0.8,1.8-2.1,1.8c-1.2,0-2.1-0.7-2.1-1.7h1.4C225.2,27.5,225.4,27.7,225.8,27.7z"/>
	<path fill="#193062" d="M229.7,27.1c0.5,0,0.9,0.4,0.9,0.9c0,0.5-0.4,0.9-0.9,0.9c-0.5,0-0.9-0.4-0.9-0.9
		C228.8,27.5,229.2,27.1,229.7,27.1z"/>
</g>
</svg>
