<?xml version="1.0" encoding="utf-8"?>
<!-- Generator: Adobe Illustrator 27.4.0, SVG Export Plug-In . SVG Version: 6.00 Build 0)  -->
<svg version="1.1" baseProfile="tiny" id="Layer_1" xmlns="http://www.w3.org/2000/svg" xmlns:xlink="http://www.w3.org/1999/xlink"
	 x="0px" y="0px" viewBox="0 0 300 50" overflow="visible" xml:space="preserve">
<rect x="0.2" y="-0.3" fill="#193062" width="53.7" height="50.5"/>
<rect x="5.4" y="21.5" fill="#F9DF7E" width="7" height="1.9"/>
<rect x="13" y="21.5" fill="#FFFFFF" width="1.7" height="1.9"/>
<rect x="5.4" y="23.9" fill="#F9DF7E" width="5.2" height="1.9"/>
<rect x="11.2" y="23.9" fill="#FFFFFF" width="3.4" height="1.9"/>
<rect x="5.4" y="26.4" fill="#F9DF7E" width="3.4" height="1.9"/>
<rect x="9.4" y="26.4" fill="#FFFFFF" width="5.2" height="1.9"/>
<rect x="5.4" y="28.8" fill="#F9DF7E" width="1.7" height="1.9"/>
<rect x="7.7" y="28.8" fill="#FFFFFF" width="7" height="1.9"/>
<polygon fill="#FFFFFF" points="20.1,24.3 18.5,24.3 18.5,23.4 22.5,23.4 22.5,24.3 21,24.3 21,28.8 20.1,28.8 "/>
<g>
	<path fill="none" d="M37.9,25.7c-0.7,0-1.1,0.5-1.1,1.2c0,0.7,0.5,1.2,1.1,1.2c0.7,0,1.1-0.5,1.1-1.2C39,26.2,38.5,25.7,37.9,25.7z
		"/>
	<path fill="none" d="M42.3,25.7c-0.6,0-1.1,0.5-1.1,1.2s0.5,1.2,1.1,1.2c0.6,0,1.1-0.5,1.1-1.2S43,25.7,42.3,25.7z"/>
	<path fill="none" d="M46.7,25.7c-0.5,0-1,0.3-1.1,0.8h2.1C47.6,25.9,47.2,25.7,46.7,25.7z"/>
	<path fill="#FFFFFF" d="M22.3,25v3.8h0.8V27c0-0.8,0.4-1.2,0.9-1.2c0.2,0,0.3,0,0.4,0.1V25c-0.1,0-0.2,0-0.3,0
		c-0.4,0-0.9,0.3-1,0.7V25H22.3z"/>
	<path fill="#FFFFFF" d="M25.1,25v2.3c0,1,0.5,1.6,1.4,1.6c0.5,0,0.9-0.2,1.1-0.6v0.5h0.8V25h-0.8v1.9c0,0.8-0.4,1.2-0.9,1.2
		c-0.5,0-0.8-0.4-0.8-1V25H25.1z"/>
	<path fill="#FFFFFF" d="M30.9,28.1c-0.5,0-1-0.3-1.2-0.7L29,27.9c0.3,0.6,1,1,1.9,1c1,0,1.8-0.6,1.8-1.5c0-0.8-0.5-1.3-1.3-1.6
		l-0.5-0.2c-0.5-0.2-0.8-0.4-0.8-0.8c0-0.4,0.4-0.6,0.8-0.6c0.4,0,0.7,0.2,1,0.5l0.6-0.6c-0.4-0.5-1-0.7-1.6-0.7
		c-1,0-1.7,0.6-1.7,1.5c0,0.7,0.4,1.2,1.3,1.5l0.6,0.2c0.5,0.2,0.8,0.4,0.8,0.8C31.8,27.8,31.4,28.1,30.9,28.1z"/>
	<path fill="#FFFFFF" d="M39.7,28.8V25h-0.8v0.5c-0.2-0.3-0.7-0.6-1.2-0.6c-1,0-1.8,0.9-1.8,2c0,1.1,0.8,2,1.8,2
		c0.5,0,1-0.3,1.2-0.6v0.5H39.7z M37.9,28.1c-0.7,0-1.1-0.5-1.1-1.2c0-0.7,0.5-1.2,1.1-1.2c0.7,0,1.1,0.5,1.1,1.2
		C39,27.6,38.5,28.1,37.9,28.1z"/>
	<path fill="#FFFFFF" d="M42.2,29.7c-0.5,0-0.9-0.2-1.2-0.6l-0.5,0.6c0.4,0.4,1,0.7,1.8,0.7c1.1,0,2-0.6,2-1.9V25h-0.8v0.5
		c-0.2-0.3-0.7-0.6-1.2-0.6c-1,0-1.8,0.8-1.8,1.9c0,1.1,0.8,1.9,1.8,1.9c0.5,0,1-0.3,1.2-0.6v0.3C43.4,29.3,42.9,29.7,42.2,29.7z
		 M42.3,28c-0.6,0-1.1-0.5-1.1-1.2s0.5-1.2,1.1-1.2c0.6,0,1.1,0.5,1.1,1.2S43,28,42.3,28z"/>
	<path fill="#FFFFFF" d="M46.7,25c-1.1,0-2,0.9-2,2c0,1.1,0.8,2,2,2c0.8,0,1.4-0.3,1.7-0.9l-0.6-0.5c-0.2,0.3-0.5,0.6-1.1,0.6
		c-0.6,0-1.1-0.4-1.2-1h3c0-0.1,0-0.2,0-0.3C48.6,25.6,47.7,25,46.7,25z M45.6,26.5c0.1-0.6,0.6-0.8,1.1-0.8c0.5,0,0.9,0.3,1,0.8
		H45.6z"/>
	<path fill="#FFFFFF" d="M33.6,24l0,0.5c0,0.3-0.3,0.6-0.6,0.6l-0.2,0v0.7h0.8v1.8c0,0.9,0.6,1.3,1.3,1.3c0.3,0,0.5,0,0.6-0.1V28
		c-0.1,0-0.3,0.1-0.4,0.1c-0.4,0-0.6-0.2-0.6-0.6v-1.7h1.1V25h-1.1v-1H33.6z"/>
	<polygon fill="#FFFFFF" points="49.1,24.4 48.9,24 48.7,24 48.7,24.6 48.9,24.6 48.9,24.2 49.1,24.6 49.3,24.2 49.3,24.6 
		49.4,24.6 49.4,24 49.3,24 	"/>
	<polygon fill="#FFFFFF" points="48.4,24.6 48.4,24.1 48.6,24.1 48.6,24 48.1,24 48.1,24.1 48.3,24.1 48.3,24.6 	"/>
</g>
</svg>
