<?xml version="1.0" encoding="utf-8"?>
<!-- Generator: Adobe Illustrator 27.4.0, SVG Export Plug-In . SVG Version: 6.00 Build 0)  -->
<svg version="1.1" baseProfile="tiny" id="Layer_1" xmlns="http://www.w3.org/2000/svg" xmlns:xlink="http://www.w3.org/1999/xlink"
	 x="0px" y="0px" viewBox="0 0 160 600" overflow="visible" xml:space="preserve">
<g>
	<path fill="#193062" d="M14.4,255.5h10.8v2.9h-7.9v2.6h4.3v2.9h-4.3v5.5h-2.9V255.5z"/>
	<path fill="#193062" d="M28.5,255c1,0,1.7,0.8,1.7,1.7c0,1-0.7,1.7-1.7,1.7s-1.7-0.8-1.7-1.7C26.7,255.8,27.5,255,28.5,255z
		 M29.9,269.3h-2.8v-9.5h2.8V269.3z"/>
	<path fill="#193062" d="M41.2,263.3v6h-2.8v-5.4c0-0.9-0.6-1.6-1.6-1.6c-1,0-1.6,0.7-1.6,1.6v5.4h-2.8v-9.5h2.7v0.5
		c0.6-0.5,1.4-0.8,2.3-0.8C39.6,259.5,41.2,261.1,41.2,263.3z"/>
	<path fill="#193062" d="M52.9,254.9v14.4h-2.7v-0.6c-0.6,0.5-1.5,0.8-2.4,0.8c-2.8,0-4.7-2.2-4.7-5c0-2.8,1.9-5,4.7-5
		c0.9,0,1.7,0.3,2.4,0.7v-5.4H52.9z M50.2,264.5c0-1.3-0.9-2.3-2.2-2.3c-1.2,0-2.2,1-2.2,2.3c0,1.2,0.9,2.2,2.2,2.2
		C49.3,266.8,50.2,265.8,50.2,264.5z"/>
	<path fill="#193062" d="M61,255.5H64v10.9h7.9v2.9H61V255.5z"/>
	<path fill="#193062" d="M75.1,255c1,0,1.7,0.8,1.7,1.7c0,1-0.7,1.7-1.7,1.7s-1.7-0.8-1.7-1.7C73.3,255.8,74.1,255,75.1,255z
		 M76.5,269.3h-2.8v-9.5h2.8V269.3z"/>
	<path fill="#193062" d="M79.9,262.4H78v-2.7h1.9v-1.9c0-1.8,1.2-3,3.1-3h2.1v2.7h-1.6c-0.5,0-0.8,0.3-0.8,0.8v1.5h2.4v2.7h-2.4v6.9
		h-2.8V262.4z"/>
	<path fill="#193062" d="M95.4,265.5h-6.6c0.3,0.8,1.1,1.4,2.2,1.4c0.9,0,1.6-0.5,2-1.1l2.2,1.3c-0.8,1.4-2.4,2.3-4.3,2.3
		c-2.9,0-5-2.2-5-5c0-2.8,2-5,4.8-5c2.8,0,4.8,2.1,4.8,5C95.5,264.8,95.4,265.2,95.4,265.5z M88.7,263.5h4c-0.3-0.9-1-1.4-2-1.4
		C89.7,262.1,88.9,262.6,88.7,263.5z"/>
</g>
<g>
	<path fill="#193062" d="M14.4,281.5h2.9v13.8h-2.9V281.5z"/>
	<path fill="#193062" d="M28.9,289.3v6h-2.8v-5.4c0-0.9-0.6-1.6-1.6-1.6c-1,0-1.6,0.7-1.6,1.6v5.4h-2.8v-9.5h2.7v0.5
		c0.6-0.5,1.4-0.8,2.3-0.8C27.3,285.5,28.9,287.1,28.9,289.3z"/>
	<path fill="#193062" d="M34.7,292.9c0.8,0,1.2-0.3,1.2-0.7c0-0.3-0.2-0.5-0.7-0.5s-1-0.1-1.7-0.2c-1.9-0.3-2.7-1.4-2.7-2.8
		c0-1.9,1.6-3.2,3.9-3.2c2.2,0,3.8,1.3,3.9,3.2h-2.7c0-0.4-0.5-0.7-1.2-0.7c-0.7,0-1.1,0.3-1.1,0.6c0,0.3,0.2,0.4,0.7,0.5
		c0.6,0.1,1,0.1,1.8,0.2c1.9,0.2,2.7,1.4,2.7,2.8c0,1.9-1.6,3.3-4,3.3c-2.3,0-4-1.4-4-3.3h2.7C33.4,292.6,33.9,292.9,34.7,292.9z"/>
	<path fill="#193062" d="M49.2,285.7v9.5h-2.7v-0.5c-0.6,0.5-1.4,0.7-2.3,0.7c-2.1,0-3.7-1.6-3.7-3.8v-6h2.8v5.4
		c0,0.9,0.6,1.6,1.6,1.6c1,0,1.6-0.7,1.6-1.6v-5.4H49.2z"/>
	<path fill="#193062" d="M57.7,285.7v2.8h-1.4c-1.1,0-1.8,0.8-1.8,1.9v4.9h-2.8v-9.5h2.7v0.9c0.5-0.7,1.4-0.9,2.2-0.9H57.7z"/>
	<path fill="#193062" d="M66.9,289.3v6h-2.7v-0.5c-0.6,0.5-1.3,0.7-2.3,0.7c-2,0-3.3-1.2-3.3-3c0-2,1.5-2.8,3.3-3l2.3-0.2v-0.1
		c0-0.6-0.6-1.1-1.4-1.1c-0.7,0-1.2,0.4-1.4,0.9h-2.7c0.1-2,1.8-3.4,4-3.4C65.3,285.5,66.9,287.1,66.9,289.3z M64.2,291.9v-0.6
		l-1.9,0.2c-0.7,0.1-1,0.4-1,0.9c0,0.5,0.4,0.9,1.2,0.9C63.6,293.2,64.2,292.7,64.2,291.9z"/>
	<path fill="#193062" d="M78.2,289.3v6h-2.8v-5.4c0-0.9-0.6-1.6-1.6-1.6c-1,0-1.6,0.7-1.6,1.6v5.4h-2.8v-9.5h2.7v0.5
		c0.6-0.5,1.4-0.8,2.3-0.8C76.6,285.5,78.2,287.1,78.2,289.3z"/>
	<path fill="#193062" d="M84.9,285.5c1.8,0,3.3,0.9,4.1,2.2l-2.2,1.6c-0.4-0.6-1-1.1-1.9-1.1c-1.2,0-2.2,1-2.2,2.2s0.9,2.2,2.2,2.2
		c0.8,0,1.5-0.4,1.9-1.1l2.3,1.6c-0.8,1.4-2.3,2.2-4.1,2.2c-2.9,0-4.9-2.2-4.9-5C80,287.7,82.1,285.5,84.9,285.5z"/>
	<path fill="#193062" d="M99.4,291.5h-6.6c0.3,0.8,1.1,1.4,2.2,1.4c0.9,0,1.6-0.5,2-1.1l2.2,1.3c-0.8,1.4-2.4,2.3-4.3,2.3
		c-2.9,0-5-2.2-5-5c0-2.8,2-5,4.8-5c2.8,0,4.8,2.1,4.8,5C99.5,290.8,99.4,291.2,99.4,291.5z M92.7,289.5h4c-0.3-0.9-1-1.4-2-1.4
		C93.7,288.1,92.9,288.6,92.7,289.5z"/>
	<path fill="#193062" d="M107.7,288.4h-1.9v-2.7h1.9v-1.9c0-1.8,1.2-3,3.1-3h2.1v2.7h-1.6c-0.5,0-0.8,0.3-0.8,0.8v1.5h2.4v2.7h-2.4
		v6.9h-2.8V288.4z"/>
	<path fill="#193062" d="M118.7,285.5c2.9,0,5,2.2,5,5c0,2.7-2.1,5-5,5s-5-2.2-5-5C113.7,287.7,115.8,285.5,118.7,285.5z
		 M118.7,292.7c1.3,0,2.2-1,2.2-2.2c0-1.3-0.9-2.2-2.2-2.2s-2.2,1-2.2,2.2C116.5,291.7,117.4,292.7,118.7,292.7z"/>
	<path fill="#193062" d="M131.6,285.7v2.8h-1.4c-1.1,0-1.8,0.8-1.8,1.9v4.9h-2.8v-9.5h2.7v0.9c0.5-0.7,1.4-0.9,2.2-0.9H131.6z"/>
</g>
<g>
	<path fill="#193062" d="M22.8,311.7l-4.9,13.5H15l1.5-4.2l-3.4-9.3h3l1.8,5.2l1.9-5.2H22.8z"/>
	<path fill="#193062" d="M28.2,311.5c2.9,0,5,2.2,5,5c0,2.7-2.1,5-5,5s-5-2.2-5-5C23.2,313.7,25.3,311.5,28.2,311.5z M28.2,318.7
		c1.3,0,2.2-1,2.2-2.2c0-1.3-0.9-2.2-2.2-2.2s-2.2,1-2.2,2.2C26,317.7,26.9,318.7,28.2,318.7z"/>
	<path fill="#193062" d="M43.7,311.7v9.5H41v-0.5c-0.6,0.5-1.4,0.7-2.3,0.7c-2.1,0-3.7-1.6-3.7-3.8v-6h2.8v5.4
		c0,0.9,0.6,1.6,1.6,1.6c1,0,1.6-0.7,1.6-1.6v-5.4H43.7z"/>
	<path fill="#193062" d="M52.3,311.7v2.8h-1.4c-1.1,0-1.8,0.8-1.8,1.9v4.9h-2.8v-9.5H49v0.9c0.5-0.7,1.4-0.9,2.2-0.9H52.3z"/>
	<path fill="#193062" d="M60.3,314.4h-1.9v-2.7h1.9v-1.9c0-1.8,1.2-3,3.1-3h2.1v2.7h-1.6c-0.5,0-0.8,0.3-0.8,0.8v1.5h2.4v2.7h-2.4
		v6.9h-2.8V314.4z"/>
	<path fill="#193062" d="M74.8,315.3v6H72v-0.5c-0.6,0.5-1.3,0.7-2.3,0.7c-2,0-3.3-1.2-3.3-3c0-2,1.5-2.8,3.3-3l2.3-0.2v-0.1
		c0-0.6-0.6-1.1-1.4-1.1c-0.7,0-1.2,0.4-1.4,0.9h-2.7c0.1-2,1.8-3.4,4-3.4C73.1,311.5,74.8,313.1,74.8,315.3z M72,317.9v-0.6
		l-1.9,0.2c-0.7,0.1-1,0.4-1,0.9c0,0.5,0.4,0.9,1.2,0.9C71.4,319.2,72,318.7,72,317.9z"/>
	<path fill="#193062" d="M91.1,315v6.2h-2.8v-5.6c0-0.8-0.5-1.4-1.4-1.4c-0.8,0-1.4,0.6-1.4,1.4v5.6h-2.8v-5.6
		c0-0.8-0.5-1.4-1.4-1.4c-0.8,0-1.4,0.6-1.4,1.4v5.6h-2.8v-9.5h2.7v0.5c0.6-0.4,1.3-0.7,2.1-0.7c1,0,1.9,0.4,2.5,1
		c0.7-0.6,1.6-1,2.7-1C89.5,311.5,91.1,313,91.1,315z"/>
	<path fill="#193062" d="M94.9,307c1,0,1.7,0.8,1.7,1.7c0,1-0.7,1.7-1.7,1.7s-1.7-0.8-1.7-1.7C93.2,307.8,93.9,307,94.9,307z
		 M96.3,321.2h-2.8v-9.5h2.8V321.2z"/>
	<path fill="#193062" d="M98.8,306.8h2.8v14.4h-2.8V306.8z"/>
	<path fill="#193062" d="M112.6,311.7l-4.9,13.5h-2.9l1.5-4.2l-3.4-9.3h3l1.8,5.2l1.9-5.2H112.6z"/>
</g>
<g>
	<path fill="#193062" d="M27.6,337.7l-3.1,9.5h-2.9l-1.2-4l-1.2,4h-2.9l-3.2-9.5h3l1.7,5.4l1.7-5.4h1.8l1.6,5.2l1.7-5.2H27.6z"/>
	<path fill="#193062" d="M30.4,333c1,0,1.7,0.8,1.7,1.7c0,1-0.7,1.7-1.7,1.7s-1.7-0.8-1.7-1.7C28.7,333.8,29.4,333,30.4,333z
		 M31.8,347.2H29v-9.5h2.8V347.2z"/>
	<path fill="#193062" d="M37.4,337.7h2.9v2.7h-2.9v3.2c0,0.6,0.4,1,1,1h1.9v2.7h-2.5c-1.9,0-3.3-1.2-3.3-3.2v-3.7h-1.4v-1.4l2.6-3.2
		h1.5V337.7z"/>
	<path fill="#193062" d="M51.1,341.3v5.9h-2.8v-5.4c0-0.9-0.6-1.6-1.6-1.6c-1,0-1.6,0.7-1.6,1.6v5.4h-2.8v-14.4h2.8v5.4
		c0.6-0.5,1.4-0.7,2.3-0.7C49.5,337.5,51.1,339.1,51.1,341.3z"/>
	<path fill="#193062" d="M63.3,337.5c1.8,0,3.3,0.9,4.1,2.2l-2.2,1.6c-0.4-0.6-1-1.1-1.9-1.1c-1.2,0-2.2,1-2.2,2.2
		c0,1.3,0.9,2.2,2.2,2.2c0.8,0,1.5-0.4,1.9-1.1l2.3,1.6c-0.8,1.4-2.3,2.2-4.1,2.2c-2.9,0-4.9-2.2-4.9-5
		C58.3,339.7,60.4,337.5,63.3,337.5z"/>
	<path fill="#193062" d="M68.9,332.8h2.8v14.4h-2.8V332.8z"/>
	<path fill="#193062" d="M83,343.5h-6.6c0.3,0.8,1.1,1.4,2.2,1.4c0.9,0,1.6-0.5,2-1.1l2.2,1.3c-0.8,1.4-2.4,2.3-4.3,2.3
		c-2.9,0-5-2.2-5-5c0-2.8,2-5,4.8-5c2.8,0,4.8,2.1,4.8,5C83.1,342.8,83.1,343.1,83,343.5z M76.3,341.4h4c-0.3-0.9-1-1.4-2-1.4
		C77.3,340,76.6,340.5,76.3,341.4z"/>
	<path fill="#193062" d="M92.9,341.3v6h-2.7v-0.5c-0.6,0.5-1.3,0.7-2.3,0.7c-2,0-3.3-1.2-3.3-3c0-2,1.5-2.8,3.3-3l2.3-0.2v-0.1
		c0-0.6-0.6-1.1-1.4-1.1c-0.7,0-1.2,0.4-1.4,0.9h-2.7c0.1-2,1.8-3.4,4-3.4C91.2,337.5,92.9,339.1,92.9,341.3z M90.1,343.9v-0.6
		l-1.9,0.2c-0.7,0.1-1,0.4-1,0.9c0,0.5,0.4,0.9,1.2,0.9C89.5,345.2,90.1,344.7,90.1,343.9z"/>
	<path fill="#193062" d="M101.3,337.7v2.8h-1.4c-1.1,0-1.8,0.8-1.8,1.9v4.9h-2.8v-9.5H98v0.9c0.5-0.7,1.4-0.9,2.2-0.9H101.3z"/>
</g>
<g>
	<path fill="#193062" d="M15.7,359c1,0,1.7,0.8,1.7,1.7c0,1-0.7,1.7-1.7,1.7s-1.7-0.8-1.7-1.7C13.9,359.7,14.7,359,15.7,359z
		 M17.1,373.2h-2.8v-9.5h2.8V373.2z"/>
	<path fill="#193062" d="M28.4,367.3v6h-2.8v-5.4c0-0.9-0.6-1.6-1.6-1.6c-1,0-1.6,0.7-1.6,1.6v5.4h-2.8v-9.5h2.7v0.5
		c0.6-0.5,1.4-0.8,2.3-0.8C26.8,363.5,28.4,365.1,28.4,367.3z"/>
	<path fill="#193062" d="M31.6,366.4h-1.9v-2.7h1.9v-1.9c0-1.8,1.2-3,3.1-3h2.1v2.7h-1.6c-0.5,0-0.8,0.3-0.8,0.8v1.5h2.4v2.7h-2.4
		v6.9h-2.8V366.4z"/>
	<path fill="#193062" d="M42.6,363.5c2.9,0,5,2.2,5,5c0,2.7-2.1,5-5,5s-5-2.2-5-5C37.7,365.7,39.8,363.5,42.6,363.5z M42.6,370.7
		c1.3,0,2.2-1,2.2-2.2c0-1.3-0.9-2.2-2.2-2.2s-2.2,1-2.2,2.2C40.4,369.7,41.4,370.7,42.6,370.7z"/>
	<path fill="#193062" d="M55.5,363.7v2.8h-1.4c-1.1,0-1.8,0.8-1.8,1.9v4.9h-2.8v-9.5h2.7v0.9c0.5-0.7,1.4-0.9,2.2-0.9H55.5z"/>
	<path fill="#193062" d="M71,367v6.2h-2.8v-5.6c0-0.8-0.5-1.4-1.4-1.4c-0.8,0-1.4,0.6-1.4,1.4v5.6h-2.8v-5.6c0-0.8-0.5-1.4-1.4-1.4
		c-0.8,0-1.4,0.6-1.4,1.4v5.6h-2.8v-9.5h2.7v0.5c0.6-0.4,1.3-0.7,2.1-0.7c1,0,1.9,0.4,2.5,1c0.7-0.6,1.6-1,2.7-1
		C69.4,363.5,71,365,71,367z"/>
	<path fill="#193062" d="M81.3,367.2v6h-2.7v-0.5c-0.6,0.5-1.3,0.7-2.3,0.7c-2,0-3.3-1.2-3.3-3c0-2,1.5-2.8,3.3-3l2.3-0.2v-0.1
		c0-0.6-0.6-1.1-1.4-1.1c-0.7,0-1.2,0.4-1.4,0.9h-2.7c0.1-2,1.8-3.4,4-3.4C79.6,363.5,81.3,365.1,81.3,367.2z M78.6,369.9v-0.6
		l-1.9,0.2c-0.7,0.1-1,0.4-1,0.9c0,0.5,0.4,0.9,1.2,0.9C78,371.2,78.6,370.7,78.6,369.9z"/>
	<path fill="#193062" d="M86.8,363.7h2.9v2.7h-2.9v3.2c0,0.6,0.4,1,1,1h1.9v2.7h-2.5c-1.9,0-3.3-1.2-3.3-3.2v-3.7h-1.4v-1.4l2.6-3.2
		h1.5V363.7z"/>
	<path fill="#193062" d="M93,359c1,0,1.7,0.8,1.7,1.7c0,1-0.7,1.7-1.7,1.7s-1.7-0.8-1.7-1.7C91.3,359.7,92,359,93,359z M94.4,373.2
		h-2.8v-9.5h2.8V373.2z"/>
	<path fill="#193062" d="M101.3,363.5c2.9,0,5,2.2,5,5c0,2.7-2.1,5-5,5s-5-2.2-5-5C96.3,365.7,98.4,363.5,101.3,363.5z M101.3,370.7
		c1.3,0,2.2-1,2.2-2.2c0-1.3-0.9-2.2-2.2-2.2s-2.2,1-2.2,2.2C99.1,369.7,100,370.7,101.3,370.7z"/>
	<path fill="#193062" d="M116.9,367.3v6h-2.8v-5.4c0-0.9-0.6-1.6-1.6-1.6s-1.6,0.7-1.6,1.6v5.4h-2.8v-9.5h2.7v0.5
		c0.6-0.5,1.4-0.8,2.3-0.8C115.3,363.5,116.9,365.1,116.9,367.3z"/>
</g>
<g>
	<path fill="#193062" d="M15.2,392.3h-1.9v-2.7h1.9v-1.9c0-1.8,1.2-3,3.1-3h2.1v2.7h-1.6c-0.5,0-0.8,0.3-0.8,0.8v1.5h2.4v2.7H18v6.9
		h-2.8V392.3z"/>
	<path fill="#193062" d="M28.1,389.7v2.8h-1.4c-1.1,0-1.8,0.8-1.8,1.9v4.9h-2.8v-9.5h2.7v0.9c0.5-0.7,1.4-0.9,2.2-0.9H28.1z"/>
	<path fill="#193062" d="M34,389.5c2.9,0,5,2.2,5,5c0,2.7-2.1,5-5,5s-5-2.2-5-5C29.1,391.6,31.2,389.5,34,389.5z M34,396.7
		c1.3,0,2.2-1,2.2-2.2c0-1.3-0.9-2.2-2.2-2.2s-2.2,1-2.2,2.2C31.8,395.7,32.8,396.7,34,396.7z"/>
	<path fill="#193062" d="M54.8,393v6.2H52v-5.6c0-0.8-0.5-1.4-1.4-1.4c-0.8,0-1.4,0.6-1.4,1.4v5.6h-2.8v-5.6c0-0.8-0.5-1.4-1.4-1.4
		c-0.8,0-1.4,0.6-1.4,1.4v5.6h-2.8v-9.5h2.7v0.5c0.6-0.4,1.3-0.7,2.1-0.7c1,0,1.9,0.4,2.5,1c0.7-0.6,1.6-1,2.7-1
		C53.2,389.5,54.8,390.9,54.8,393z"/>
	<path fill="#193062" d="M65.8,389.7h2.9v2.7h-2.9v3.2c0,0.6,0.4,1,1,1h1.9v2.7h-2.5c-1.9,0-3.3-1.2-3.3-3.2v-3.7h-1.4v-1.4l2.6-3.2
		h1.5V389.7z"/>
	<path fill="#193062" d="M79.5,393.3v5.9h-2.8v-5.4c0-0.9-0.6-1.6-1.6-1.6c-1,0-1.6,0.7-1.6,1.6v5.4h-2.8v-14.4h2.8v5.4
		c0.6-0.5,1.4-0.7,2.3-0.7C77.9,389.5,79.5,391.1,79.5,393.3z"/>
	<path fill="#193062" d="M90.7,395.4h-6.6c0.3,0.8,1.1,1.4,2.2,1.4c0.9,0,1.6-0.5,2-1.1l2.2,1.3c-0.8,1.4-2.4,2.3-4.3,2.3
		c-2.9,0-5-2.2-5-5c0-2.8,2-5,4.8-5c2.8,0,4.8,2.1,4.8,5C90.8,394.8,90.8,395.1,90.7,395.4z M84,393.4h4c-0.3-0.9-1-1.4-2-1.4
		C85,392,84.3,392.5,84,393.4z"/>
	<path fill="#193062" d="M101.6,396.9c0.8,0,1.2-0.3,1.2-0.7c0-0.3-0.2-0.5-0.7-0.5s-1-0.1-1.7-0.2c-1.9-0.3-2.7-1.4-2.7-2.8
		c0-1.9,1.5-3.2,3.9-3.2c2.2,0,3.8,1.3,3.9,3.2h-2.7c0-0.4-0.5-0.7-1.2-0.7c-0.7,0-1.1,0.3-1.1,0.6c0,0.3,0.2,0.4,0.7,0.5
		c0.6,0.1,1,0.1,1.8,0.2c1.9,0.2,2.7,1.4,2.7,2.8c0,1.9-1.6,3.3-4,3.3c-2.3,0-4-1.4-4-3.3h2.7C100.2,396.6,100.8,396.9,101.6,396.9z
		"/>
	<path fill="#193062" d="M110.4,389.7h2.9v2.7h-2.9v3.2c0,0.6,0.4,1,1,1h1.9v2.7h-2.5c-1.9,0-3.3-1.2-3.3-3.2v-3.7h-1.4v-1.4
		l2.6-3.2h1.5V389.7z"/>
	<path fill="#193062" d="M123.1,393.2v6h-2.7v-0.5c-0.6,0.5-1.3,0.7-2.3,0.7c-2,0-3.3-1.2-3.3-3c0-2,1.5-2.8,3.3-3l2.3-0.2v-0.1
		c0-0.6-0.6-1.1-1.4-1.1c-0.7,0-1.2,0.4-1.4,0.9H115c0.1-2,1.8-3.4,4-3.4C121.5,389.5,123.1,391.1,123.1,393.2z M120.4,395.9v-0.6
		l-1.9,0.2c-0.7,0.1-1,0.4-1,0.9c0,0.5,0.4,0.9,1.2,0.9C119.8,397.2,120.4,396.7,120.4,395.9z"/>
	<path fill="#193062" d="M131.6,389.7v2.8h-1.4c-1.1,0-1.8,0.8-1.8,1.9v4.9h-2.8v-9.5h2.7v0.9c0.5-0.7,1.4-0.9,2.2-0.9H131.6z"/>
	<path fill="#193062" d="M136.6,389.7h2.9v2.7h-2.9v3.2c0,0.6,0.4,1,1,1h1.9v2.7h-2.5c-1.9,0-3.3-1.2-3.3-3.2v-3.7h-1.4v-1.4
		l2.6-3.2h1.5V389.7z"/>
	<path fill="#193062" d="M142.9,395.8c1,0,1.7,0.8,1.7,1.7c0,1-0.7,1.7-1.7,1.7c-1,0-1.7-0.8-1.7-1.7
		C141.2,396.6,141.9,395.8,142.9,395.8z"/>
</g>
</svg>
