<svg baseProfile="tiny" xmlns="http://www.w3.org/2000/svg" viewBox="0 0 160 600" overflow="visible"><path fill="#FAE07E" d="M31.1 21.5h15.2v4.2H31.1z"/><path fill="#FFF" d="M47.5 21.5h3.7v4.2h-3.7z"/><path fill="#FAE07E" d="M31.1 26.8h11.3V31H31.1z"/><path fill="#FFF" d="M43.7 26.8h7.5V31h-7.5z"/><path fill="#FAE07E" d="M31.1 32.1h7.5v4.2h-7.5z"/><path fill="#FFF" d="M39.8 32.1h11.3v4.2H39.8z"/><path fill="#FAE07E" d="M31.1 37.4h3.7v4.2h-3.7z"/><path fill="#FFF" d="M36 37.4h15.2v4.2H36zM63 27.6h-3.4v-1.9h8.7v1.9h-3.4v9.8H63z"/><path fill="none" d="M101.8 30.7c-1.5 0-2.4 1.2-2.4 2.6s1 2.6 2.4 2.6 2.4-1.2 2.4-2.6-.9-2.6-2.4-2.6zM121.1 30.5c-1 0-2.1.6-2.4 1.8h4.6c-.2-1.1-1.2-1.8-2.2-1.8zM111.5 30.7c-1.4 0-2.4 1.1-2.4 2.5 0 1.5 1 2.5 2.4 2.5s2.4-1.1 2.4-2.5c.1-1.5-1-2.5-2.4-2.5z"/><path fill="#FFF" d="M67.9 29.2v8.2h1.8v-4c0-1.6.9-2.5 2-2.5.3 0 .6 0 .9.1v-1.9c-.2 0-.5-.1-.7-.1-.9 0-1.9.6-2.2 1.5V29h-1.8zM74 29.2v4.9c0 2.1 1.2 3.5 3.1 3.5 1 0 1.9-.5 2.4-1.3v1.1h1.8v-8.2h-1.8v4.1c0 1.8-.8 2.7-2 2.7-1 0-1.6-.8-1.6-2.1v-4.6H74zM86.6 35.8c-1.1 0-2.1-.6-2.7-1.5l-1.5 1.2c.7 1.3 2.3 2.1 4.2 2.1 2.3 0 3.9-1.3 3.9-3.4 0-1.7-1-2.8-2.7-3.4l-1.2-.4c-1.2-.4-1.8-.8-1.8-1.7 0-.8.9-1.3 1.8-1.3s1.6.4 2.2 1.1l1.3-1.3c-.9-1-2.1-1.6-3.5-1.6-2.2 0-3.8 1.3-3.8 3.3 0 1.6.9 2.6 2.8 3.3l1.3.5c1.1.4 1.7 1 1.7 1.8-.1.7-.9 1.3-2 1.3zM105.9 37.4v-8.2h-1.8v1.1c-.5-.7-1.4-1.3-2.6-1.3-2.2 0-4 1.9-4 4.3s1.7 4.3 4 4.3c1.2 0 2.2-.6 2.6-1.3v1.1h1.8zm-4.1-1.5c-1.5 0-2.4-1.2-2.4-2.6s1-2.6 2.4-2.6 2.4 1.2 2.4 2.6-.9 2.6-2.4 2.6zM111.3 39.4c-1.1 0-2-.4-2.7-1.2l-1.1 1.3c.8.9 2.2 1.5 3.8 1.5 2.4 0 4.3-1.3 4.3-4.2v-7.7h-1.8v1.1c-.5-.7-1.5-1.3-2.6-1.3-2.2 0-3.9 1.8-3.9 4.2 0 2.3 1.7 4.2 3.9 4.2 1.1 0 2.1-.6 2.6-1.3v.8c0 1.7-1.1 2.6-2.5 2.6zm.2-3.7c-1.4 0-2.4-1.1-2.4-2.5 0-1.5 1-2.5 2.4-2.5s2.4 1.1 2.4 2.5c.1 1.4-1 2.5-2.4 2.5zM121.2 29c-2.5 0-4.3 1.9-4.3 4.3 0 2.5 1.8 4.3 4.3 4.3 1.7 0 3-.7 3.7-1.9l-1.4-1c-.4.7-1.2 1.3-2.3 1.3-1.4 0-2.4-.9-2.5-2.2h6.5v-.6c-.1-2.8-1.9-4.2-4-4.2zm-2.5 3.4c.2-1.2 1.3-1.8 2.4-1.8 1.1 0 2 .6 2.2 1.8h-4.6zM92.5 26.9v1c0 .7-.6 1.3-1.2 1.3h-.5v1.6h1.7v4c0 1.9 1.2 2.7 2.8 2.7.6 0 1-.1 1.3-.2v-1.6c-.3.1-.6.2-1 .2-.9 0-1.4-.4-1.4-1.4v-3.7h2.3v-1.6h-2.3v-2.3h-1.7zM126.2 27.8l-.4-.9h-.3v1.4h.3v-.8l.4.9.4-.9v.8h.3v-1.4h-.3zM124.8 28.3v-1.1h.5v-.3h-1.2v.3h.4v1.1z"/></svg>