<?xml version="1.0" encoding="utf-8"?>
<!-- Generator: Adobe Illustrator 27.4.0, SVG Export Plug-In . SVG Version: 6.00 Build 0)  -->
<svg version="1.1" baseProfile="tiny" id="Layer_1" xmlns="http://www.w3.org/2000/svg" xmlns:xlink="http://www.w3.org/1999/xlink"
	 x="0px" y="0px" viewBox="0 0 160 600" overflow="visible" xml:space="preserve">
<g>
	<path fill="#193062" d="M27.5,262v0.6c0,4-2.7,7-6.9,7c-4.2,0-7-3-7-7.1c0-4,3-7.1,7.2-7.1c2.8,0,5,1.4,6.2,3.5l-2.5,1.6
		c-0.7-1.3-2-2.1-3.7-2.1c-2.5,0-4.2,1.8-4.2,4.2c0,2.5,1.6,4.3,4.1,4.3c1.7,0,2.9-0.8,3.5-2h-4.5V262H27.5z"/>
	<path fill="#193062" d="M38.4,265.6h-6.7c0.3,0.8,1.1,1.4,2.2,1.4c0.9,0,1.6-0.5,2-1.1l2.2,1.3c-0.8,1.4-2.4,2.4-4.3,2.4
		c-2.9,0-5-2.2-5-5c0-2.8,2-5,4.8-5c2.8,0,4.8,2.1,4.8,5C38.5,264.9,38.5,265.3,38.4,265.6z M31.7,263.6h4.1c-0.3-0.9-1-1.4-2-1.4
		C32.7,262.1,31.9,262.6,31.7,263.6z"/>
	<path fill="#193062" d="M43.5,259.8h2.9v2.7h-2.9v3.2c0,0.6,0.4,1,1,1h1.9v2.7H44c-1.9,0-3.3-1.3-3.3-3.2v-3.7h-1.4V261l2.6-3.2
		h1.5V259.8z"/>
	<path fill="#193062" d="M63.8,264.6c0,2.8-2,5-4.7,5c-0.9,0-1.8-0.3-2.5-0.8v0.6h-2.8v-14.5h2.8v5.4c0.6-0.5,1.5-0.7,2.4-0.7
		C61.8,259.6,63.8,261.8,63.8,264.6z M61,264.6c0-1.3-0.9-2.3-2.2-2.3c-1.3,0-2.2,1-2.2,2.3c0,1.3,0.9,2.2,2.2,2.2
		C60,266.8,61,265.8,61,264.6z"/>
	<path fill="#193062" d="M73.5,263.4v6h-2.8v-0.5c-0.6,0.5-1.3,0.7-2.3,0.7c-2,0-3.3-1.2-3.3-3c0-2,1.5-2.8,3.3-3l2.3-0.2v-0.1
		c0-0.6-0.6-1.1-1.4-1.1c-0.7,0-1.3,0.4-1.4,0.9h-2.7c0.1-2,1.8-3.5,4.1-3.5C71.9,259.6,73.5,261.2,73.5,263.4z M70.8,266v-0.6
		l-1.9,0.2c-0.7,0.1-1,0.4-1,0.9c0,0.5,0.4,0.9,1.2,0.9C70.2,267.3,70.8,266.8,70.8,266z"/>
	<path fill="#193062" d="M80.3,259.6c1.8,0,3.3,0.9,4.2,2.2l-2.3,1.6c-0.4-0.6-1-1.1-1.9-1.1c-1.3,0-2.2,1-2.2,2.3
		c0,1.3,0.9,2.2,2.2,2.2c0.8,0,1.5-0.4,1.9-1.1l2.3,1.6c-0.8,1.4-2.3,2.2-4.2,2.2c-2.9,0-5-2.2-5-5
		C75.4,261.8,77.4,259.6,80.3,259.6z"/>
	<path fill="#193062" d="M91.7,264.3l3.6,5h-3.4l-3.2-4.5v4.5H86v-14.5h2.8v8.9l3.2-4h3.5L91.7,264.3z"/>
	<path fill="#193062" d="M105.3,259.8h2.9v2.7h-2.9v3.2c0,0.6,0.4,1,1,1h1.9v2.7h-2.5c-1.9,0-3.3-1.3-3.3-3.2v-3.7h-1.4V261l2.6-3.2
		h1.5V259.8z"/>
	<path fill="#193062" d="M114.4,259.6c2.9,0,5,2.2,5,5c0,2.7-2.1,5-5,5s-5-2.2-5-5C109.4,261.8,111.5,259.6,114.4,259.6z
		 M114.4,266.8c1.3,0,2.2-1,2.2-2.2c0-1.3-0.9-2.3-2.2-2.3c-1.3,0-2.2,1-2.2,2.3C112.2,265.8,113.1,266.8,114.4,266.8z"/>
</g>
<g>
	<path fill="#193062" d="M17.2,288.8h2.9v2.7h-2.9v3.2c0,0.6,0.4,1,1,1h1.9v2.7h-2.5c-1.9,0-3.3-1.3-3.3-3.2v-3.7H13V290l2.6-3.2
		h1.5V288.8z"/>
	<path fill="#193062" d="M30.9,292.4v6h-2.8V293c0-0.9-0.6-1.7-1.6-1.7c-1,0-1.7,0.7-1.7,1.7v5.4H22v-14.5h2.8v5.4
		c0.6-0.5,1.4-0.7,2.3-0.7C29.3,288.6,30.9,290.2,30.9,292.4z"/>
	<path fill="#193062" d="M42.2,294.6h-6.7c0.3,0.8,1.1,1.4,2.2,1.4c0.9,0,1.6-0.5,2-1.1l2.2,1.3c-0.8,1.4-2.4,2.4-4.3,2.4
		c-2.9,0-5-2.2-5-5c0-2.8,2-5,4.8-5c2.8,0,4.8,2.1,4.8,5C42.4,293.9,42.3,294.3,42.2,294.6z M35.5,292.5h4.1c-0.3-0.9-1-1.4-2-1.4
		C36.5,291.1,35.8,291.6,35.5,292.5z"/>
	<path fill="#193062" d="M52.9,288.8h2.9v2.7h-2.9v3.2c0,0.6,0.4,1,1,1h1.9v2.7h-2.5c-1.9,0-3.3-1.3-3.3-3.2v-3.7h-1.4V290l2.6-3.2
		h1.5V288.8z"/>
	<path fill="#193062" d="M66.6,292.4v6h-2.8V293c0-0.9-0.6-1.7-1.6-1.7c-1,0-1.7,0.7-1.7,1.7v5.4h-2.8v-14.5h2.8v5.4
		c0.6-0.5,1.4-0.7,2.3-0.7C65,288.6,66.6,290.2,66.6,292.4z"/>
	<path fill="#193062" d="M70.4,284.1c1,0,1.7,0.8,1.7,1.7c0,1-0.7,1.7-1.7,1.7s-1.7-0.8-1.7-1.7C68.7,284.8,69.4,284.1,70.4,284.1z
		 M71.8,298.4H69v-9.6h2.8V298.4z"/>
	<path fill="#193062" d="M83.2,292.4v6h-2.8v-5.4c0-0.9-0.6-1.6-1.6-1.6c-1,0-1.6,0.7-1.6,1.6v5.4h-2.8v-9.6h2.8v0.6
		c0.6-0.5,1.4-0.8,2.3-0.8C81.6,288.6,83.2,290.2,83.2,292.4z"/>
	<path fill="#193062" d="M94.6,288.8v9.3c0,2.6-1.9,4.5-4.8,4.5c-2.2,0-3.9-1.2-4.4-3l2.6-1c0.3,0.8,0.9,1.3,1.9,1.3
		c1.2,0,2-0.7,2-1.9v-0.7c-0.6,0.5-1.4,0.7-2.3,0.7c-2.6,0-4.5-2.1-4.5-4.7s1.9-4.7,4.5-4.7c0.9,0,1.7,0.3,2.4,0.8v-0.6H94.6z
		 M91.9,293.3c0-1.1-0.9-2-2-2c-1.2,0-2,0.9-2,2c0,1.1,0.9,2,2,2C91,295.3,91.9,294.4,91.9,293.3z"/>
	<path fill="#193062" d="M100.5,296c0.8,0,1.2-0.3,1.2-0.7c0-0.3-0.2-0.5-0.7-0.5c-0.5-0.1-1-0.1-1.7-0.2c-1.9-0.3-2.7-1.4-2.7-2.8
		c0-1.9,1.6-3.2,3.9-3.2c2.3,0,3.9,1.3,3.9,3.2h-2.7c0-0.4-0.5-0.7-1.2-0.7c-0.7,0-1.1,0.3-1.1,0.6c0,0.3,0.2,0.4,0.7,0.5
		c0.6,0.1,1,0.1,1.8,0.2c1.9,0.2,2.7,1.4,2.7,2.8c0,1.9-1.6,3.3-4,3.3c-2.3,0-4-1.4-4-3.3h2.7C99.2,295.7,99.7,296,100.5,296z"/>
	<path fill="#193062" d="M119.7,288.8l-4.9,13.6h-2.9l1.5-4.2l-3.4-9.4h3l1.8,5.2l1.9-5.2H119.7z"/>
	<path fill="#193062" d="M125.2,288.6c2.9,0,5,2.2,5,5c0,2.7-2.1,5-5,5s-5-2.2-5-5C120.2,290.8,122.3,288.6,125.2,288.6z
		 M125.2,295.8c1.3,0,2.2-1,2.2-2.2c0-1.3-0.9-2.3-2.2-2.3c-1.3,0-2.2,1-2.2,2.3C123,294.8,123.9,295.8,125.2,295.8z"/>
	<path fill="#193062" d="M140.8,288.8v9.6H138v-0.5c-0.6,0.5-1.4,0.7-2.3,0.7c-2.1,0-3.7-1.6-3.7-3.8v-6h2.8v5.4
		c0,0.9,0.6,1.6,1.6,1.6s1.6-0.7,1.6-1.6v-5.4H140.8z"/>
</g>
<g>
	<path fill="#193062" d="M14,312.9h2.8v14.5H14V312.9z"/>
	<path fill="#193062" d="M23.7,317.6c2.9,0,5,2.2,5,5c0,2.7-2.1,5-5,5c-2.9,0-5-2.2-5-5C18.7,319.8,20.8,317.6,23.7,317.6z
		 M23.7,324.8c1.3,0,2.2-1,2.2-2.2c0-1.3-0.9-2.3-2.2-2.3c-1.3,0-2.2,1-2.2,2.3C21.5,323.8,22.4,324.8,23.7,324.8z"/>
	<path fill="#193062" d="M38.9,317.8l-3.5,9.6h-2.8l-3.5-9.6h3l1.9,5.3l1.8-5.3H38.9z"/>
	<path fill="#193062" d="M48.9,323.6h-6.7c0.3,0.8,1.1,1.4,2.2,1.4c0.9,0,1.6-0.5,2-1.1l2.2,1.3c-0.8,1.4-2.4,2.4-4.3,2.4
		c-2.9,0-5-2.2-5-5c0-2.8,2-5,4.8-5c2.8,0,4.8,2.1,4.8,5C49,322.9,49,323.2,48.9,323.6z M42.2,321.5h4.1c-0.3-0.9-1-1.4-2-1.4
		C43.2,320.1,42.4,320.6,42.2,321.5z"/>
	<path fill="#193062" d="M52.3,324c1,0,1.7,0.8,1.7,1.7c0,1-0.7,1.7-1.7,1.7s-1.7-0.8-1.7-1.7C50.6,324.7,51.3,324,52.3,324z"/>
	<path fill="#193062" d="M69.3,325.5h-4.9l-0.6,1.8h-2.9l4.5-13.9h3l4.5,13.9h-3L69.3,325.5z M68.4,322.7l-1.6-4.8l-1.6,4.8H68.4z"
		/>
	<path fill="#193062" d="M84.3,322.6c0,2.8-2,5-4.7,5c-0.9,0-1.7-0.3-2.4-0.7v4.5h-2.8v-13.6h2.8v0.6c0.6-0.5,1.5-0.8,2.5-0.8
		C82.3,317.6,84.3,319.8,84.3,322.6z M81.5,322.6c0-1.3-0.9-2.3-2.2-2.3c-1.3,0-2.2,1-2.2,2.3c0,1.3,0.9,2.2,2.2,2.2
		C80.5,324.8,81.5,323.8,81.5,322.6z"/>
	<path fill="#193062" d="M96.1,322.6c0,2.8-2,5-4.7,5c-0.9,0-1.7-0.3-2.4-0.7v4.5h-2.8v-13.6h2.8v0.6c0.6-0.5,1.5-0.8,2.5-0.8
		C94.1,317.6,96.1,319.8,96.1,322.6z M93.3,322.6c0-1.3-0.9-2.3-2.2-2.3c-1.3,0-2.2,1-2.2,2.3c0,1.3,0.9,2.2,2.2,2.2
		C92.3,324.8,93.3,323.8,93.3,322.6z"/>
	<path fill="#193062" d="M97.9,312.9h2.8v14.5h-2.8V312.9z"/>
	<path fill="#193062" d="M111.8,317.8l-4.9,13.6H104l1.5-4.2l-3.4-9.4h3l1.8,5.2l1.9-5.2H111.8z"/>
	<path fill="#193062" d="M118.9,320.5H117v-2.7h1.9v-1.9c0-1.8,1.2-3,3.1-3h2.1v2.7h-1.6c-0.5,0-0.8,0.3-0.8,0.8v1.5h2.4v2.7h-2.4
		v6.9h-2.8V320.5z"/>
	<path fill="#193062" d="M130,317.6c2.9,0,5,2.2,5,5c0,2.7-2.1,5-5,5s-5-2.2-5-5C125,319.8,127.1,317.6,130,317.6z M130,324.8
		c1.3,0,2.2-1,2.2-2.2c0-1.3-0.9-2.3-2.2-2.3c-1.3,0-2.2,1-2.2,2.3C127.8,323.8,128.7,324.8,130,324.8z"/>
	<path fill="#193062" d="M142.9,317.8v2.8h-1.4c-1.1,0-1.8,0.8-1.8,1.9v4.9h-2.8v-9.6h2.8v0.9c0.5-0.7,1.4-0.9,2.2-0.9H142.9z"/>
</g>
<g>
	<path fill="#193062" d="M14.2,342.5h3v11h7.9v2.9H14.2V342.5z"/>
	<path fill="#193062" d="M28.4,342c1,0,1.7,0.8,1.7,1.7c0,1-0.7,1.7-1.7,1.7s-1.7-0.8-1.7-1.7C26.6,342.8,27.3,342,28.4,342z
		 M29.8,356.3h-2.8v-9.6h2.8V356.3z"/>
	<path fill="#193062" d="M33.2,349.5h-1.9v-2.7h1.9v-1.9c0-1.8,1.2-3,3.1-3h2.1v2.7h-1.6c-0.5,0-0.8,0.3-0.8,0.8v1.5h2.4v2.7H36v6.9
		h-2.8V349.5z"/>
	<path fill="#193062" d="M48.8,352.6h-6.7c0.3,0.8,1.1,1.4,2.2,1.4c0.9,0,1.6-0.5,2-1.1l2.2,1.3c-0.8,1.4-2.4,2.4-4.3,2.4
		c-2.9,0-5-2.2-5-5c0-2.8,2-5,4.8-5c2.8,0,4.8,2.1,4.8,5C48.9,351.9,48.9,352.2,48.8,352.6z M42.1,350.5h4.1c-0.3-0.9-1-1.4-2-1.4
		C43.1,349.1,42.3,349.6,42.1,350.5z"/>
	<path fill="#193062" d="M56.5,342.5h3v13.9h-3V342.5z"/>
	<path fill="#193062" d="M71,350.4v6h-2.8v-5.4c0-0.9-0.6-1.6-1.6-1.6s-1.6,0.7-1.6,1.6v5.4h-2.8v-9.6h2.8v0.6
		c0.6-0.5,1.4-0.8,2.3-0.8C69.4,346.6,71,348.2,71,350.4z"/>
	<path fill="#193062" d="M76.8,354c0.8,0,1.2-0.3,1.2-0.7c0-0.3-0.2-0.5-0.7-0.5c-0.5-0.1-1-0.1-1.7-0.2c-1.9-0.3-2.7-1.4-2.7-2.8
		c0-1.9,1.6-3.2,3.9-3.2c2.3,0,3.9,1.3,3.9,3.2h-2.7c0-0.4-0.5-0.7-1.2-0.7c-0.7,0-1.1,0.3-1.1,0.6c0,0.3,0.2,0.4,0.7,0.5
		c0.6,0.1,1,0.1,1.8,0.2c1.9,0.2,2.7,1.4,2.7,2.8c0,1.9-1.6,3.3-4,3.3c-2.3,0-4-1.4-4-3.3h2.7C75.5,353.7,76,354,76.8,354z"/>
	<path fill="#193062" d="M91.4,346.8v9.6h-2.8v-0.5c-0.6,0.5-1.4,0.7-2.3,0.7c-2.1,0-3.7-1.6-3.7-3.8v-6h2.8v5.4
		c0,0.9,0.6,1.6,1.6,1.6s1.6-0.7,1.6-1.6v-5.4H91.4z"/>
	<path fill="#193062" d="M100,346.8v2.8h-1.4c-1.1,0-1.8,0.8-1.8,1.9v4.9h-2.8v-9.6h2.8v0.9c0.5-0.7,1.4-0.9,2.2-0.9H100z"/>
	<path fill="#193062" d="M109.2,350.3v6h-2.8v-0.5c-0.6,0.5-1.3,0.7-2.3,0.7c-2,0-3.3-1.2-3.3-3c0-2,1.5-2.8,3.3-3l2.3-0.2v-0.1
		c0-0.6-0.6-1.1-1.4-1.1c-0.7,0-1.3,0.4-1.4,0.9H101c0.1-2,1.8-3.5,4.1-3.5C107.5,346.6,109.2,348.2,109.2,350.3z M106.5,353v-0.6
		l-1.9,0.2c-0.7,0.1-1,0.4-1,0.9c0,0.5,0.4,0.9,1.2,0.9C105.8,354.3,106.5,353.8,106.5,353z"/>
	<path fill="#193062" d="M120.5,350.4v6h-2.8v-5.4c0-0.9-0.6-1.6-1.6-1.6c-1,0-1.6,0.7-1.6,1.6v5.4h-2.8v-9.6h2.8v0.6
		c0.6-0.5,1.4-0.8,2.3-0.8C118.9,346.6,120.5,348.2,120.5,350.4z"/>
	<path fill="#193062" d="M127.3,346.6c1.8,0,3.3,0.9,4.2,2.2l-2.3,1.6c-0.4-0.6-1-1.1-1.9-1.1c-1.3,0-2.2,1-2.2,2.3
		c0,1.3,0.9,2.2,2.2,2.2c0.8,0,1.5-0.4,1.9-1.1l2.3,1.6c-0.8,1.4-2.3,2.2-4.2,2.2c-2.9,0-5-2.2-5-5S124.4,346.6,127.3,346.6z"/>
	<path fill="#193062" d="M141.8,352.6h-6.7c0.3,0.8,1.1,1.4,2.2,1.4c0.9,0,1.6-0.5,2-1.1l2.2,1.3c-0.8,1.4-2.4,2.4-4.3,2.4
		c-2.9,0-5-2.2-5-5c0-2.8,2-5,4.8-5c2.8,0,4.8,2.1,4.8,5C141.9,351.9,141.9,352.2,141.8,352.6z M135.1,350.5h4.1
		c-0.3-0.9-1-1.4-2-1.4C136.1,349.1,135.3,349.6,135.1,350.5z"/>
</g>
<g>
	<path fill="#193062" d="M15.4,371c1,0,1.7,0.8,1.7,1.7c0,1-0.7,1.7-1.7,1.7s-1.7-0.8-1.7-1.7C13.7,371.8,14.4,371,15.4,371z
		 M16.9,385.3H14v-9.6h2.8V385.3z"/>
	<path fill="#193062" d="M28.2,379.4v6h-2.8v-5.4c0-0.9-0.6-1.6-1.6-1.6s-1.6,0.7-1.6,1.6v5.4h-2.8v-9.6h2.8v0.6
		c0.6-0.5,1.4-0.8,2.3-0.8C26.6,375.6,28.2,377.2,28.2,379.4z"/>
	<path fill="#193062" d="M50.1,379.1v6.2h-2.8v-5.6c0-0.8-0.5-1.4-1.4-1.4c-0.8,0-1.4,0.6-1.4,1.4v5.6h-2.8v-5.6
		c0-0.8-0.5-1.4-1.4-1.4c-0.8,0-1.4,0.6-1.4,1.4v5.6h-2.8v-9.6h2.8v0.5c0.6-0.4,1.3-0.7,2.1-0.7c1,0,1.9,0.4,2.5,1
		c0.7-0.6,1.6-1,2.7-1C48.5,375.6,50.1,377,50.1,379.1z"/>
	<path fill="#193062" d="M54,371c1,0,1.7,0.8,1.7,1.7c0,1-0.7,1.7-1.7,1.7s-1.7-0.8-1.7-1.7C52.3,371.8,53,371,54,371z M55.4,385.3
		h-2.8v-9.6h2.8V385.3z"/>
	<path fill="#193062" d="M66.8,379.4v6H64v-5.4c0-0.9-0.6-1.6-1.6-1.6s-1.6,0.7-1.6,1.6v5.4h-2.8v-9.6h2.8v0.6
		c0.6-0.5,1.4-0.8,2.3-0.8C65.2,375.6,66.8,377.2,66.8,379.4z"/>
	<path fill="#193062" d="M78,375.8v9.6h-2.8v-0.5c-0.6,0.5-1.4,0.7-2.3,0.7c-2.1,0-3.7-1.6-3.7-3.8v-6H72v5.4c0,0.9,0.6,1.6,1.6,1.6
		c1,0,1.6-0.7,1.6-1.6v-5.4H78z"/>
	<path fill="#193062" d="M83.6,375.8h2.9v2.7h-2.9v3.2c0,0.6,0.4,1,1,1h1.9v2.7h-2.5c-1.9,0-3.3-1.3-3.3-3.2v-3.7h-1.4V377l2.6-3.2
		h1.5V375.8z"/>
	<path fill="#193062" d="M97.3,381.6h-6.7c0.3,0.8,1.1,1.4,2.2,1.4c0.9,0,1.6-0.5,2-1.1l2.2,1.3c-0.8,1.4-2.4,2.4-4.3,2.4
		c-2.9,0-5-2.2-5-5c0-2.8,2-5,4.8-5c2.8,0,4.8,2.1,4.8,5C97.4,380.9,97.4,381.2,97.3,381.6z M90.6,379.5h4.1c-0.3-0.9-1-1.4-2-1.4
		C91.6,378.1,90.8,378.6,90.6,379.5z"/>
	<path fill="#193062" d="M102.7,383c0.8,0,1.2-0.3,1.2-0.7c0-0.3-0.2-0.5-0.7-0.5c-0.5-0.1-1-0.1-1.7-0.2c-1.9-0.3-2.7-1.4-2.7-2.8
		c0-1.9,1.6-3.2,3.9-3.2c2.3,0,3.9,1.3,3.9,3.2h-2.7c0-0.4-0.5-0.7-1.2-0.7c-0.7,0-1.1,0.3-1.1,0.6c0,0.3,0.2,0.4,0.7,0.5
		c0.6,0.1,1,0.1,1.8,0.2c1.9,0.2,2.7,1.4,2.7,2.8c0,1.9-1.6,3.3-4,3.3c-2.3,0-4-1.4-4-3.3h2.7C101.4,382.7,101.9,383,102.7,383z"/>
	<path fill="#193062" d="M110,382c1,0,1.7,0.8,1.7,1.7c0,1-0.7,1.7-1.7,1.7s-1.7-0.8-1.7-1.7C108.3,382.7,109,382,110,382z"/>
</g>
</svg>
