<?xml version="1.0" encoding="utf-8"?>
<!-- Generator: Adobe Illustrator 27.4.0, SVG Export Plug-In . SVG Version: 6.00 Build 0)  -->
<svg version="1.1" baseProfile="tiny" id="Layer_1" xmlns="http://www.w3.org/2000/svg" xmlns:xlink="http://www.w3.org/1999/xlink"
	 x="0px" y="0px" viewBox="0 0 160 600" overflow="visible" xml:space="preserve">
<rect x="-0.5" y="539.4" fill="#193062" width="160.5" height="60.9"/>
<rect x="30.7" y="560.3" fill="#FAE07E" width="15.2" height="4.2"/>
<rect x="47.2" y="560.3" fill="#FFFFFF" width="3.7" height="4.2"/>
<rect x="30.7" y="565.6" fill="#FAE07E" width="11.3" height="4.2"/>
<rect x="43.4" y="565.6" fill="#FFFFFF" width="7.5" height="4.2"/>
<rect x="30.7" y="570.9" fill="#FAE07E" width="7.5" height="4.2"/>
<rect x="39.5" y="570.9" fill="#FFFFFF" width="11.3" height="4.2"/>
<rect x="30.7" y="576.2" fill="#FAE07E" width="3.7" height="4.2"/>
<rect x="35.7" y="576.2" fill="#FFFFFF" width="15.2" height="4.2"/>
<polygon fill="#FFFFFF" points="62.7,566.4 59.3,566.4 59.3,564.5 68,564.5 68,566.4 64.6,566.4 64.6,576.2 62.7,576.2 "/>
<g>
	<path fill="none" d="M120.8,569.3c-1,0-2.1,0.6-2.4,1.8h4.6C122.8,570,121.8,569.3,120.8,569.3z"/>
	<path fill="none" d="M111.2,569.4c-1.4,0-2.4,1.1-2.4,2.5c0,1.5,1,2.5,2.4,2.5c1.4,0,2.4-1.1,2.4-2.5
		C113.7,570.5,112.6,569.4,111.2,569.4z"/>
	<path fill="none" d="M101.5,569.4c-1.5,0-2.4,1.2-2.4,2.6s1,2.6,2.4,2.6s2.4-1.2,2.4-2.6S103,569.4,101.5,569.4z"/>
	<path fill="#FFFFFF" d="M67.6,568v8.2h1.8v-4c0-1.6,0.9-2.5,2-2.5c0.3,0,0.6,0,0.9,0.1V568c-0.2,0-0.5-0.1-0.7-0.1
		c-0.9,0-1.9,0.6-2.2,1.5V568H67.6z"/>
	<path fill="#FFFFFF" d="M73.6,568v4.9c0,2.1,1.2,3.5,3.1,3.5c1,0,1.9-0.5,2.4-1.3v1.1h1.8V568h-1.8v4.1c0,1.8-0.8,2.7-2,2.7
		c-1,0-1.6-0.8-1.6-2.1V568H73.6z"/>
	<path fill="#FFFFFF" d="M86.3,574.6c-1.1,0-2.1-0.6-2.7-1.5l-1.5,1.2c0.7,1.3,2.3,2.1,4.2,2.1c2.3,0,3.9-1.3,3.9-3.4
		c0-1.7-1-2.8-2.7-3.4l-1.2-0.4c-1.2-0.4-1.8-0.8-1.8-1.7c0-0.8,0.9-1.3,1.8-1.3c0.9,0,1.6,0.4,2.2,1.1l1.3-1.3
		c-0.9-1-2.1-1.6-3.5-1.6c-2.2,0-3.8,1.3-3.8,3.3c0,1.6,0.9,2.6,2.8,3.3l1.3,0.5c1.1,0.4,1.7,1,1.7,1.8
		C88.2,574,87.4,574.6,86.3,574.6z"/>
	<path fill="#FFFFFF" d="M105.6,576.2V568h-1.8v1.1c-0.5-0.7-1.4-1.3-2.6-1.3c-2.2,0-4,1.9-4,4.3c0,2.4,1.7,4.3,4,4.3
		c1.2,0,2.2-0.6,2.6-1.3v1.1H105.6z M101.5,574.7c-1.5,0-2.4-1.2-2.4-2.6s1-2.6,2.4-2.6s2.4,1.2,2.4,2.6S103,574.7,101.5,574.7z"/>
	<path fill="#FFFFFF" d="M111,578.2c-1.1,0-2-0.4-2.7-1.2l-1.1,1.3c0.8,0.9,2.2,1.5,3.8,1.5c2.4,0,4.3-1.3,4.3-4.2V568h-1.8v1.1
		c-0.5-0.7-1.5-1.3-2.6-1.3c-2.2,0-3.9,1.8-3.9,4.2c0,2.3,1.7,4.2,3.9,4.2c1.1,0,2.1-0.6,2.6-1.3v0.8
		C113.5,577.3,112.4,578.2,111,578.2z M111.2,574.5c-1.4,0-2.4-1.1-2.4-2.5c0-1.5,1-2.5,2.4-2.5c1.4,0,2.4,1.1,2.4,2.5
		C113.7,573.4,112.6,574.5,111.2,574.5z"/>
	<path fill="#FFFFFF" d="M120.9,567.8c-2.5,0-4.3,1.9-4.3,4.3c0,2.5,1.8,4.3,4.3,4.3c1.7,0,3-0.7,3.7-1.9l-1.4-1
		c-0.4,0.7-1.2,1.3-2.3,1.3c-1.4,0-2.4-0.9-2.5-2.2h6.5c0-0.3,0-0.4,0-0.6C124.8,569.2,123,567.8,120.9,567.8z M118.4,571.2
		c0.2-1.2,1.3-1.8,2.4-1.8c1.1,0,2,0.6,2.2,1.8H118.4z"/>
	<path fill="#FFFFFF" d="M92.2,565.7l0,1c0,0.7-0.6,1.3-1.2,1.3l-0.5,0v1.6h1.7v4c0,1.9,1.2,2.7,2.8,2.7c0.6,0,1-0.1,1.3-0.2v-1.6
		c-0.3,0.1-0.6,0.2-1,0.2c-0.9,0-1.4-0.4-1.4-1.4v-3.7h2.3V568H94v-2.3H92.2z"/>
	<polygon fill="#FFFFFF" points="125.9,566.6 125.5,565.7 125.2,565.7 125.2,567.1 125.5,567.1 125.5,566.2 125.9,567.1 
		126.3,566.3 126.3,567.1 126.6,567.1 126.6,565.7 126.3,565.7 	"/>
	<polygon fill="#FFFFFF" points="124.5,567.1 124.5,566 125,566 125,565.7 123.8,565.7 123.8,566 124.2,566 124.2,567.1 	"/>
</g>
</svg>
