<svg baseProfile="tiny" xmlns="http://www.w3.org/2000/svg" viewBox="0 0 300 250" overflow="visible"><path fill="#FAE07E" d="M9.6 196.8h98.3v27.8H9.6z"/><g fill="#193062"><path d="M28.8 210.5v.3c0 .8-.2 1.5-.5 2.1-.3.6-.8 1.1-1.4 1.4s-1.3.5-2.1.5-1.5-.2-2.1-.5c-.6-.4-1.1-.8-1.4-1.5-.3-.6-.5-1.3-.5-2.1s.2-1.5.5-2.1c.4-.6.8-1.1 1.5-1.5s1.3-.5 2.1-.5c.5 0 1 .1 1.5.2.5.2.9.4 1.2.7s.7.7.9 1.1l-1.3.8c-.2-.4-.5-.7-.9-.9s-.8-.3-1.3-.3-.9.1-1.3.3c-.4.2-.7.5-.9.9-.2.4-.3.8-.3 1.3s.1 1 .3 1.4.5.7.9.9c.4.2.8.3 1.3.3s1-.1 1.4-.3c.4-.2.7-.6.8-1h-2.7v-1.5h4.3zM30 206.6h6.2v1.5h-4.7v1.7h2.6v1.5h-2.6v1.7h4.7v1.5H30v-7.9zM39.5 208.2h-2.3v-1.5h6.2v1.5H41v6.5h-1.6v-6.5zM51.7 213.5h-3l-.4 1.1h-1.6l2.6-8H51l2.6 8H52l-.3-1.1zm-.5-1.5l-1-3-1 3h2zM65.8 213.2v1.5h-.7l-1-.8c-.4.3-.8.5-1.2.7-.5.2-.9.2-1.4.2-.8 0-1.5-.2-2.1-.5s-1.1-.9-1.5-1.5-.5-1.3-.5-2.1.2-1.5.5-2.1c.4-.6.8-1.1 1.5-1.5s1.3-.5 2.1-.5 1.5.2 2.1.5c.6.4 1.1.9 1.5 1.5.4.6.5 1.3.5 2.1 0 .7-.2 1.4-.5 2l.7.5zm-3.1-.3l-.8-.6 1-1.3.8.6c.1-.3.2-.7.2-1 0-.5-.1-.9-.3-1.3-.2-.4-.5-.7-.9-.9-.4-.2-.8-.3-1.3-.3s-.9.1-1.3.3c-.4.2-.7.5-.9.9-.2.4-.3.8-.3 1.3s.1.9.3 1.3c.2.4.5.7.9.9.4.2.8.3 1.3.3.5.1.9 0 1.3-.2zM73.3 211.6c0 .6-.1 1.1-.4 1.6s-.7.9-1.2 1.1c-.5.3-1 .4-1.6.4-.6 0-1.2-.1-1.7-.4-.5-.3-.9-.7-1.2-1.1-.3-.5-.4-1-.4-1.6v-5h1.6v4.9c0 .3.1.6.2.8.1.3.3.5.6.6.3.1.5.2.9.2.3 0 .6-.1.8-.2.3-.1.4-.3.6-.6s.2-.5.2-.8v-4.9h1.6v5zM78.7 206.5c.8 0 1.5.2 2.1.5.6.4 1.1.9 1.5 1.5.4.6.5 1.3.5 2.1s-.2 1.5-.5 2.1c-.4.6-.8 1.1-1.5 1.5s-1.3.5-2.1.5-1.5-.2-2.1-.5-1.1-.9-1.5-1.5-.5-1.3-.5-2.1.2-1.5.5-2.1c.4-.6.8-1.1 1.5-1.5s1.3-.5 2.1-.5zm0 6.7c.5 0 .9-.1 1.3-.3.4-.2.7-.5.9-.9s.3-.8.3-1.3-.1-.9-.3-1.3c-.2-.4-.5-.7-.9-.9-.4-.2-.8-.3-1.3-.3s-.9.1-1.3.3c-.4.2-.7.5-.9.9-.2.4-.3.8-.3 1.3s.1.9.3 1.3c.2.4.5.7.9.9.4.2.8.3 1.3.3zM85.7 208.2h-2.3v-1.5h6.2v1.5h-2.3v6.5h-1.6v-6.5zM90.6 206.6h6.2v1.5h-4.7v1.7h2.6v1.5h-2.6v1.7h4.7v1.5h-6.2v-7.9z"/></g></svg>