<svg baseProfile="tiny" xmlns="http://www.w3.org/2000/svg" viewBox="0 0 300 250" overflow="visible"><path fill="#FAE07E" d="M24.1 17h17.2v4.8H24.1z"/><path fill="#FFF" d="M42.7 17h4.1v4.8h-4.1z"/><path fill="#FAE07E" d="M24.1 23h12.8v4.7H24.1z"/><path fill="#FFF" d="M38.4 23h8.5v4.7h-8.5z"/><path fill="#FAE07E" d="M24.1 29h8.5v4.7h-8.5z"/><path fill="#FFF" d="M34 29h12.8v4.7H34z"/><path fill="#FAE07E" d="M24.1 35h4.1v4.7h-4.1z"/><path fill="#FFF" d="M29.7 35h17.2v4.7H29.7zM60.2 23.9h-3.8v-2.1h9.8v2.1h-3.8V35h-2.2z"/><path fill="none" d="M104.1 27.4c-1.7 0-2.8 1.3-2.8 3s1.1 3 2.8 3c1.7 0 2.8-1.3 2.8-3s-1.1-3-2.8-3zM115.1 27.4c-1.6 0-2.8 1.2-2.8 2.9s1.2 2.8 2.8 2.8 2.8-1.2 2.8-2.8-1.2-2.9-2.8-2.9zM125.9 27.2c-1.2 0-2.4.7-2.7 2.1h5.2c-.2-1.4-1.3-2.1-2.5-2.1z"/><path fill="#FFF" d="M65.7 25.7V35h2v-4.5c0-1.9 1.1-2.9 2.2-2.9.4 0 .7.1 1 .2v-2.1c-.3-.1-.5-.1-.8-.1-1.1 0-2.1.7-2.5 1.8v-1.7h-1.9zM72.6 25.7v5.6c0 2.4 1.3 3.9 3.5 3.9 1.2 0 2.2-.5 2.7-1.5V35h2v-9.3h-2v4.6c0 2-.9 3.1-2.3 3.1-1.2 0-1.9-.9-1.9-2.4v-5.2h-2zM86.9 33.2c-1.3 0-2.4-.6-3.1-1.7l-1.7 1.4c.8 1.4 2.6 2.4 4.7 2.4 2.6 0 4.4-1.5 4.4-3.8 0-2-1.2-3.1-3.1-3.9l-1.3-.6c-1.4-.5-2-.9-2-1.9 0-1 1-1.5 2.1-1.5 1 0 1.8.4 2.5 1.2l1.5-1.5c-1-1.2-2.4-1.8-4-1.8-2.5 0-4.3 1.4-4.3 3.7 0 1.8 1 3 3.1 3.7l1.4.5c1.3.5 1.9 1.1 1.9 2 0 1.1-.9 1.8-2.1 1.8zM108.8 35v-9.3h-2v1.2c-.5-.7-1.6-1.4-3-1.4-2.5 0-4.5 2.2-4.5 4.8s1.9 4.8 4.5 4.8c1.3 0 2.5-.7 3-1.4V35h2zm-4.7-1.7c-1.7 0-2.8-1.3-2.8-3s1.1-3 2.8-3c1.7 0 2.8 1.3 2.8 3s-1.1 3-2.8 3zM114.9 37.2c-1.2 0-2.3-.5-3.1-1.4l-1.2 1.5c.9 1 2.5 1.7 4.3 1.7 2.7 0 4.8-1.5 4.8-4.7v-8.7h-2v1.2c-.6-.8-1.7-1.4-3-1.4-2.5 0-4.5 2.1-4.5 4.7s2 4.7 4.5 4.7c1.3 0 2.4-.6 3-1.5v.9c0 2-1.3 3-2.8 3zm.2-4.1c-1.6 0-2.8-1.2-2.8-2.8s1.2-2.9 2.8-2.9 2.8 1.2 2.8 2.9-1.2 2.8-2.8 2.8zM126 25.5c-2.8 0-4.8 2.1-4.8 4.8 0 2.8 2 4.8 4.8 4.8 2 0 3.4-.8 4.2-2.2l-1.6-1.1c-.5.8-1.4 1.4-2.7 1.4-1.5 0-2.8-1-2.9-2.5h7.3V30c.2-2.9-1.8-4.5-4.3-4.5zm-2.7 3.8c.3-1.4 1.5-2.1 2.7-2.1 1.2 0 2.3.7 2.5 2.1h-5.2zM93.6 23.1v1.2c0 .8-.6 1.4-1.4 1.4h-.5v1.8h1.9V32c0 2.1 1.4 3.1 3.2 3.1.6 0 1.1-.1 1.5-.2v-1.8c-.3.1-.7.2-1.1.2-1.1 0-1.6-.4-1.6-1.6v-4.2h2.7v-1.8h-2.7v-2.6h-2zM131.7 24.1l-.4-1h-.3v1.6h.3v-1l.4 1 .5-1v1h.3v-1.6h-.3zM130.1 24.7v-1.3h.6v-.3h-1.4v.3h.5v1.3z"/></svg>