<svg baseProfile="tiny" xmlns="http://www.w3.org/2000/svg" viewBox="0 0 728 90" overflow="visible"><g fill="#FFF"><path d="M13.5 77.6c0 .6-.1 1-.4 1.5-.2.4-.6.8-1 1s-.9.4-1.5.4-1.1-.1-1.5-.4c-.4-.3-.8-.6-1-1.1s-.4-1-.4-1.5c0-.6.1-1.1.4-1.5.3-.5.6-.8 1.1-1.1.5-.3 1-.4 1.5-.4.6 0 1.1.1 1.5.4.4.3.8.6 1 1l-.6.4c-.2-.3-.4-.6-.8-.8-.3-.2-.7-.3-1.1-.3-.4 0-.8.1-1.1.3-.4.2-.6.5-.8.8s-.3.7-.3 1.2c0 .4.1.8.3 1.2.2.3.4.6.7.8s.7.3 1.1.3c.3 0 .7-.1.9-.2.3-.1.5-.3.7-.5.2-.2.3-.5.4-.8h-2.4v-.7h3.3zM14.5 74.6h4.4v.7h-3.6v1.8h2.1v.7h-2.1v1.8h3.6v.7h-4.4v-5.7zM24.5 74.6v5.8h-.8l-3-4.5v4.5H20v-5.8h.8l3 4.5v-4.5h.7zM27.5 77.8v.7h-1.9v-.7h1.9zM32.3 78.6c0 .4-.1.7-.2 1s-.4.5-.7.7c-.3.2-.6.2-1 .2s-.7-.1-1-.2c-.3-.2-.5-.4-.7-.7-.2-.3-.2-.6-.2-.9h.8c0 .2.1.4.2.6s.2.3.4.4.4.1.6.1c.2 0 .4 0 .6-.1s.3-.2.4-.4c.1-.2.2-.4.2-.6 0-.2-.1-.4-.2-.6-.1-.2-.2-.3-.4-.4-.2-.1-.4-.1-.6-.1h-1.7l.4-2.9h3v.7h-2.4l-.2 1.4h.9c.4 0 .7.1 1 .2.3.2.5.4.7.7.1.2.1.5.1.9zM37.3 78.6c0 .4-.1.7-.3 1s-.4.5-.7.7-.6.2-1 .2-.7-.1-1-.2c-.3-.2-.5-.4-.7-.7-.2-.3-.3-.6-.3-1 0-.2 0-.5.1-.7s.2-.5.3-.7l1.7-2.6h.9L35 76.7h.4c.4 0 .7.1 1 .2.3.2.5.4.7.7s.2.6.2 1zm-.7 0c0-.2-.1-.4-.2-.6-.1-.2-.2-.3-.4-.4-.2-.1-.4-.1-.6-.1-.2 0-.4 0-.6.1-.2.1-.3.2-.4.4-.1.2-.2.4-.2.6 0 .2.1.4.2.6.1.2.2.3.4.4.2.1.4.2.6.2.2 0 .5 0 .6-.2.2-.1.3-.2.4-.4.1-.2.2-.4.2-.6zM39.6 75.4l-1.5 1v-.8l1.5-.9h.8v5.8h-.8v-5.1zM46 77.9v.7h-1v1.7h-.8v-1.7h-2.6V78l2.5-3.5h.9v3.4h1zm-1.7 0v-2.4l-1.7 2.4h1.7zM50.4 78.8c0 .3-.1.6-.2.9-.2.3-.4.5-.7.6-.3.1-.6.2-1 .2s-.7-.1-1-.2c-.3-.1-.5-.3-.7-.6-.2-.3-.2-.5-.2-.9h.8c0 .2.1.3.2.5.1.1.2.3.4.3.2.1.3.1.6.1.2 0 .4 0 .6-.1.2-.1.3-.2.4-.4.1-.2.1-.3.1-.5s0-.4-.1-.5c-.1-.1-.2-.3-.4-.4s-.3-.1-.5-.1H48V77h.6c.2 0 .4 0 .5-.1s.3-.2.3-.3c.1-.1.1-.3.1-.5s0-.3-.1-.5l-.3-.3c-.1-.1-.3-.1-.5-.1s-.3 0-.5.1c-.1.1-.3.2-.3.3s-.1.3-.1.5h-.8c0-.3.1-.6.2-.8.1-.2.4-.4.6-.6.3-.1.6-.2.9-.2.3 0 .6.1.9.2.3.1.5.3.6.6.1.2.2.5.2.8 0 .3-.1.5-.2.7-.1.2-.3.4-.5.5.2.1.4.3.6.6.1.3.2.6.2.9zM51.6 76.1c0-.3.1-.6.3-.8s.4-.5.7-.6.6-.2.9-.2c.3 0 .6.1.9.2.3.1.5.3.7.6.2.3.3.5.3.8v2.6c0 .3-.1.6-.3.8-.2.3-.4.5-.7.6-.3.1-.6.2-.9.2-.3 0-.6-.1-.9-.2s-.5-.3-.7-.6-.3-.5-.3-.8v-1.3-1.3zm.8 2.7c0 .2.1.4.2.5.1.1.2.3.4.3.2.1.3.1.5.1s.4 0 .5-.1.3-.2.4-.3c.1-.1.2-.3.2-.5v-1.3-1.3c0-.2-.1-.4-.2-.5-.1-.1-.2-.3-.4-.3s-.3-.1-.5-.1-.4 0-.5.1c-.2.1-.3.2-.4.3-.1.1-.2.3-.2.5v2.6zM56.7 76.1c0-.3.1-.6.3-.8s.4-.5.7-.6.6-.2.9-.2c.3 0 .6.1.9.2.3.1.5.3.7.6.2.3.3.5.3.8v2.6c0 .3-.1.6-.3.8-.2.3-.4.5-.7.6-.3.1-.6.2-.9.2-.3 0-.6-.1-.9-.2s-.5-.3-.7-.6-.3-.5-.3-.8v-1.3-1.3zm.8 2.7c0 .2.1.4.2.5.1.1.2.3.4.3.2.1.3.1.5.1s.4 0 .5-.1.3-.2.4-.3c.1-.1.2-.3.2-.5v-1.3-1.3c0-.2-.1-.4-.2-.5-.1-.1-.2-.3-.4-.3s-.3-.1-.5-.1-.4 0-.5.1c-.2.1-.3.2-.4.3-.1.1-.2.3-.2.5v1.3c0 .6-.1 1 0 1.3zM62.1 79.4c.2 0 .3 0 .4.1.1.1.1.2.1.4s0 .3-.1.4c-.1.1-.2.1-.4.1s-.3 0-.4-.1-.1-.2-.1-.4 0-.3.1-.4.3-.1.4-.1zM65.1 75.4l-1.5 1v-.8l1.5-.9h.8v5.8h-.8v-5.1z"/></g></svg>