<svg baseProfile="tiny" xmlns="http://www.w3.org/2000/svg" viewBox="0 0 728 90" overflow="visible"><g fill="#454547"><path d="M177.6 64.5h-2.9v-1h7v1h-2.9v8.4h-1.2v-8.4zM182.1 68.2c0-.8 0-1.5-.1-2.1h1.1v1.3h.1c.3-.9 1.1-1.5 1.9-1.5h.4v1.2h-.4c-.9 0-1.5.7-1.7 1.6 0 .2-.1.4-.1.6v3.6h-1.2v-4.7zM192.4 71.1c0 .7 0 1.3.1 1.8h-1.1l-.1-1.1c-.3.5-1 1.3-2.2 1.3-1.1 0-2.3-.6-2.3-3v-4h1.2v3.8c0 1.3.4 2.2 1.5 2.2.8 0 1.4-.6 1.6-1.1.1-.2.1-.4.1-.6v-4.2h1.2v4.9zM194.3 71.4c.5.3 1.3.6 2.2.6 1.2 0 2-.7 2-1.6 0-.9-.5-1.4-1.8-1.9-1.5-.5-2.5-1.3-2.5-2.7 0-1.5 1.2-2.6 3.1-2.6 1 0 1.7.2 2.1.5l-.3 1c-.3-.2-.9-.4-1.8-.4-1.3 0-1.8.8-1.8 1.4 0 .9.6 1.3 1.9 1.8 1.6.6 2.4 1.4 2.4 2.8 0 1.5-1.1 2.7-3.3 2.7-.9 0-1.9-.3-2.4-.6l.2-1zM202.8 64.2v1.9h1.8v.9h-1.8v3.7c0 .8.2 1.3.9 1.3.3 0 .6 0 .7-.1l.1.9c-.2.1-.6.2-1.1.2-.6 0-1-.2-1.3-.5-.4-.4-.5-1-.5-1.8V67h-1.1v-.9h1.1v-1.6l1.2-.3zM209.7 72.9l-.1-.9c-.4.5-1.1 1-2.1 1-1.4 0-2.1-1-2.1-1.9 0-1.6 1.5-2.5 4.1-2.5v-.1c0-.6-.2-1.6-1.5-1.6-.6 0-1.3.2-1.8.5l-.3-.8c.6-.4 1.4-.6 2.2-.6 2.1 0 2.6 1.4 2.6 2.8v2.5c0 .6 0 1.2.1 1.6h-1.1zm-.2-3.4c-1.3 0-2.9.2-2.9 1.5 0 .8.5 1.2 1.2 1.2.9 0 1.4-.6 1.6-1.1 0-.1.1-.3.1-.4v-1.2zM218.5 66.1c0 .5-.1 1-.1 1.9v3.9c0 1.6-.3 2.5-1 3.1-.7.6-1.6.8-2.5.8-.8 0-1.7-.2-2.3-.6l.3-.9c.4.3 1.1.5 2 .5 1.3 0 2.2-.7 2.2-2.4v-.8c-.4.6-1.1 1.1-2.2 1.1-1.7 0-2.9-1.4-2.9-3.3 0-2.3 1.5-3.6 3.1-3.6 1.2 0 1.8.6 2.1 1.2l.1-1h1.2zm-1.3 2.7c0-.2 0-.4-.1-.6-.2-.7-.8-1.3-1.7-1.3-1.2 0-2 1-2 2.6 0 1.3.7 2.4 2 2.4.8 0 1.4-.5 1.7-1.3.1-.2.1-.4.1-.7v-1.1zM221.2 69.7c0 1.7 1.1 2.4 2.3 2.4.9 0 1.4-.2 1.9-.4l.2.9c-.4.2-1.2.4-2.3.4-2.1 0-3.3-1.4-3.3-3.4s1.2-3.7 3.2-3.7c2.2 0 2.8 1.9 2.8 3.2v.6h-4.8zm3.6-.8c0-.8-.3-2-1.7-2-1.2 0-1.8 1.1-1.9 2h3.6zM230.1 63.5v.6h-1.2v3.2h-.8v-3.2h-1.2v-.6h3.2zm4.1 3.8l-.1-2.2V64c-.1.3-.2.8-.3 1.1l-.7 2.1h-.8l-.7-2.2c-.1-.3-.2-.7-.3-1.1V65l-.1 2.2h-.7l.3-3.8h1.1l.7 1.9c.1.3.2.6.3 1 .1-.4.2-.7.3-1l.7-1.9h1.1l.3 3.8h-1.1zM244 72.7c-.3.2-1 .4-1.9.4-2 0-3.4-1.4-3.4-3.5s1.4-3.6 3.6-3.6c.7 0 1.4.2 1.7.4l-.3 1c-.3-.2-.8-.3-1.4-.3-1.6 0-2.4 1.1-2.4 2.6 0 1.6 1 2.5 2.4 2.5.7 0 1.2-.2 1.5-.3l.2.8zM251.5 69.5c0 2.5-1.7 3.6-3.4 3.6-1.8 0-3.2-1.3-3.2-3.5 0-2.3 1.5-3.6 3.4-3.6 1.8 0 3.2 1.4 3.2 3.5zm-5.4 0c0 1.5.9 2.6 2.1 2.6 1.2 0 2.1-1.1 2.1-2.6 0-1.1-.6-2.6-2-2.6-1.6 0-2.2 1.3-2.2 2.6zM258.7 71.1c0 .7 0 1.3.1 1.8h-1.1l-.1-1.1c-.3.5-1 1.3-2.2 1.3-1.1 0-2.3-.6-2.3-3v-4h1.2v3.8c0 1.3.4 2.2 1.5 2.2.8 0 1.4-.6 1.6-1.1.1-.2.1-.4.1-.6v-4.2h1.2v4.9zM260.7 63h1.2v9.9h-1.2V63zM269.9 63v8.2c0 .6 0 1.3.1 1.8h-1.1l-.1-1.2c-.4.8-1.2 1.3-2.3 1.3-1.6 0-2.9-1.4-2.9-3.4 0-2.3 1.4-3.6 3-3.6 1 0 1.7.5 2 1v-4h1.3zm-1.3 5.9c0-.2 0-.4-.1-.5-.2-.8-.9-1.4-1.8-1.4-1.3 0-2 1.1-2 2.6 0 1.4.7 2.5 2 2.5.8 0 1.6-.5 1.8-1.5 0-.2.1-.3.1-.5v-1.2zM274.9 63h1.2v4.2c.2-.4.5-.7.9-.9.4-.2.8-.3 1.3-.3.9 0 2.4.6 2.4 2.9v4h-1.2V69c0-1.1-.4-2-1.6-2-.8 0-1.4.6-1.7 1.2-.1.2-.1.4-.1.6v4.1h-1.2V63zM283.3 69.7c0 1.7 1.1 2.4 2.3 2.4.9 0 1.4-.2 1.9-.4l.2.9c-.4.2-1.2.4-2.3.4-2.1 0-3.3-1.4-3.3-3.4s1.2-3.7 3.2-3.7c2.2 0 2.8 1.9 2.8 3.2v.6h-4.8zm3.7-.8c0-.8-.3-2-1.7-2-1.2 0-1.8 1.1-1.9 2h3.6zM289.7 63h1.2v9.9h-1.2V63zM293 68.3c0-.9 0-1.6-.1-2.2h1.1l.1 1.2c.5-.8 1.3-1.3 2.4-1.3 1.6 0 2.9 1.4 2.9 3.4 0 2.4-1.5 3.6-3.1 3.6-.9 0-1.7-.4-2.1-1.1v3.7H293v-7.3zm1.2 1.9c0 .2 0 .4.1.5.2.9 1 1.4 1.8 1.4 1.3 0 2.1-1.1 2.1-2.6 0-1.4-.7-2.5-2-2.5-.8 0-1.6.6-1.9 1.5 0 .2-.1.3-.1.5v1.2zM303.9 68c0-.7 0-1.3-.1-1.8h1.1l.1 1.1c.4-.6 1-1.2 2.1-1.2.9 0 1.6.6 1.9 1.4.2-.4.5-.7.8-.9.4-.3.9-.5 1.5-.5.9 0 2.2.6 2.2 2.9v4h-1.2v-3.8c0-1.3-.5-2.1-1.5-2.1-.7 0-1.2.5-1.5 1.1-.1.2-.1.4-.1.6V73H308v-4.1c0-1.1-.5-1.9-1.4-1.9-.8 0-1.3.6-1.5 1.2-.1.2-.1.4-.1.6v4.1h-1.2V68zM319.3 72.9l-.1-.9c-.4.5-1.1 1-2.1 1-1.4 0-2.1-1-2.1-1.9 0-1.6 1.5-2.5 4.1-2.5v-.1c0-.6-.2-1.6-1.5-1.6-.6 0-1.3.2-1.8.5l-.3-.8c.6-.4 1.4-.6 2.2-.6 2.1 0 2.6 1.4 2.6 2.8v2.5c0 .6 0 1.2.1 1.6h-1.1zm-.1-3.4c-1.3 0-2.9.2-2.9 1.5 0 .8.5 1.2 1.2 1.2.9 0 1.4-.6 1.6-1.1 0-.1.1-.3.1-.4v-1.2zM323.6 69.2c.2-.2.4-.5.6-.8l2-2.3h1.5l-2.6 2.8 3 4h-1.5l-2.3-3.2-.6.7v2.5h-1.2V63h1.2v6.2zM329.6 69.7c0 1.7 1.1 2.4 2.3 2.4.9 0 1.4-.2 1.9-.4l.2.9c-.4.2-1.2.4-2.3.4-2.1 0-3.3-1.4-3.3-3.4s1.2-3.7 3.2-3.7c2.2 0 2.8 1.9 2.8 3.2v.6h-4.8zm3.6-.8c0-.8-.3-2-1.7-2-1.2 0-1.8 1.1-1.9 2h3.6zM340.3 64.2c0 .4-.3.8-.8.8-.4 0-.7-.3-.7-.8 0-.4.3-.8.8-.8.4.1.7.4.7.8zm-1.4 8.7v-6.8h1.2v6.8h-1.2zM343.6 64.2v1.9h1.8v.9h-1.8v3.7c0 .8.2 1.3.9 1.3.3 0 .6 0 .7-.1l.1.9c-.2.1-.6.2-1.1.2-.6 0-1-.2-1.3-.5-.4-.4-.5-1-.5-1.8V67h-1.1v-.9h1.1v-1.6l1.2-.3zM349.6 71.7c.4.2 1 .5 1.6.5.9 0 1.3-.4 1.3-1s-.4-.9-1.3-1.2c-1.2-.4-1.8-1.1-1.8-1.9 0-1.1.9-2 2.3-2 .7 0 1.3.2 1.7.4l-.3.9c-.3-.2-.8-.4-1.4-.4-.7 0-1.1.4-1.1.9 0 .6.4.8 1.3 1.1 1.2.4 1.8 1 1.8 2 0 1.2-.9 2-2.5 2-.7 0-1.4-.2-1.9-.5l.3-.8zM356.7 64.2c0 .4-.3.8-.8.8-.4 0-.7-.3-.7-.8 0-.4.3-.8.8-.8.4.1.7.4.7.8zm-1.4 8.7v-6.8h1.2v6.8h-1.2zM358.6 68c0-.7 0-1.3-.1-1.8h1.1l.1 1.1c.4-.6 1-1.2 2.1-1.2.9 0 1.6.6 1.9 1.4.2-.4.5-.7.8-.9.4-.3.9-.5 1.5-.5.9 0 2.2.6 2.2 2.9v4H367v-3.8c0-1.3-.5-2.1-1.5-2.1-.7 0-1.2.5-1.5 1.1-.1.2-.1.4-.1.6V73h-1.2v-4.1c0-1.1-.5-1.9-1.4-1.9-.8 0-1.3.6-1.5 1.2-.1.2-.1.4-.1.6v4.1h-1.2V68zM370.3 68.3c0-.9 0-1.6-.1-2.2h1.1l.1 1.2c.5-.8 1.3-1.3 2.4-1.3 1.6 0 2.9 1.4 2.9 3.4 0 2.4-1.5 3.6-3.1 3.6-.9 0-1.7-.4-2.1-1.1v3.7h-1.2v-7.3zm1.2 1.9c0 .2 0 .4.1.5.2.9 1 1.4 1.8 1.4 1.3 0 2.1-1.1 2.1-2.6 0-1.4-.7-2.5-2-2.5-.8 0-1.6.6-1.9 1.5 0 .2-.1.3-.1.5v1.2zM378.2 63h1.2v9.9h-1.2V63zM382.2 69.7c0 1.7 1.1 2.4 2.3 2.4.9 0 1.4-.2 1.9-.4l.2.9c-.4.2-1.2.4-2.3.4-2.1 0-3.3-1.4-3.3-3.4s1.2-3.7 3.2-3.7c2.2 0 2.8 1.9 2.8 3.2v.6h-4.8zm3.6-.8c0-.8-.3-2-1.7-2-1.2 0-1.8 1.1-1.9 2h3.6zM388.1 72.2c0-.5.3-.9.8-.9s.8.4.8.9-.3.9-.8.9-.8-.4-.8-.9z"/></g></svg>