<svg baseProfile="tiny" xmlns="http://www.w3.org/2000/svg" viewBox="0 0 728 90" overflow="visible"><g fill="#193062"><path d="M182.6 24h-4.7l-.6 1.7h-2.8l4.3-13.1h2.9l4.2 13.1h-2.8l-.5-1.7zm-.9-2.7l-1.5-4.6-1.5 4.6h3zM196.8 21.2c0 2.6-1.9 4.7-4.5 4.7-.9 0-1.7-.3-2.3-.7v4.3h-2.7V16.7h2.6v.5c.6-.4 1.4-.7 2.3-.7 2.8 0 4.6 2 4.6 4.7zm-2.6 0c0-1.2-.9-2.2-2.1-2.2-1.3 0-2.1.9-2.1 2.2 0 1.2.9 2.1 2.1 2.1 1.2 0 2.1-.9 2.1-2.1zM208 21.2c0 2.6-1.9 4.7-4.5 4.7-.9 0-1.7-.3-2.3-.7v4.3h-2.7V16.7h2.6v.5c.6-.4 1.4-.7 2.3-.7 2.7 0 4.6 2 4.6 4.7zm-2.7 0c0-1.2-.9-2.2-2.1-2.2-1.3 0-2.1.9-2.1 2.2 0 1.2.9 2.1 2.1 2.1 1.3 0 2.1-.9 2.1-2.1zM209.8 12h2.7v13.7h-2.7V12zM222.9 16.7l-4.6 12.9h-2.8l1.4-4-3.2-8.9h2.9l1.7 4.9 1.8-4.9h2.8zM225.5 12.2c1 0 1.7.7 1.7 1.7 0 .9-.7 1.7-1.7 1.7s-1.7-.7-1.7-1.7.8-1.7 1.7-1.7zm1.3 13.5h-2.7v-9.1h2.7v9.1zM237.6 20.1v5.7h-2.7v-5.1c0-.9-.6-1.5-1.5-1.5s-1.5.7-1.5 1.5v5.1h-2.7v-9.1h2.6v.5c.6-.4 1.3-.7 2.2-.7 2.1 0 3.6 1.5 3.6 3.6zM248.4 16.7v8.8c0 2.4-1.8 4.3-4.5 4.3-2.1 0-3.7-1.2-4.2-2.9l2.4-.9c.3.8.9 1.2 1.8 1.2 1.1 0 1.9-.7 1.9-1.8v-.7c-.6.4-1.3.7-2.2.7-2.4 0-4.2-2-4.2-4.5s1.8-4.5 4.2-4.5c.9 0 1.6.3 2.2.7v-.5h2.6zm-2.6 4.3c0-1.1-.8-1.9-1.9-1.9-1.1 0-1.9.8-1.9 1.9 0 1 .8 1.9 1.9 1.9 1.1 0 1.9-.9 1.9-1.9zM256.8 19.2H255v-2.5h1.8v-1.8c0-1.7 1.2-2.8 2.9-2.8h2v2.5h-1.5c-.5 0-.7.3-.7.7v1.4h2.3v2.5h-2.3v6.5h-2.7v-6.5zM267.3 16.5c2.7 0 4.7 2.1 4.7 4.8 0 2.6-2 4.7-4.7 4.7s-4.7-2.1-4.7-4.7c0-2.8 2-4.8 4.7-4.8zm0 6.8c1.2 0 2.1-.9 2.1-2.1 0-1.2-.9-2.1-2.1-2.1-1.2 0-2.1.9-2.1 2.1 0 1.2.9 2.1 2.1 2.1zM279.6 16.7v2.6h-1.4c-1 0-1.7.8-1.7 1.8v4.6h-2.7v-9.1h2.6v.8c.5-.6 1.3-.8 2.1-.8h1.1zM286.5 12.6h2.8V23h7.5v2.7h-10.3V12.6zM299.8 12.2c1 0 1.7.7 1.7 1.7 0 .9-.7 1.7-1.7 1.7s-1.7-.7-1.7-1.7c.1-1 .8-1.7 1.7-1.7zm1.4 13.5h-2.7v-9.1h2.7v9.1zM304.4 19.2h-1.8v-2.5h1.8v-1.8c0-1.7 1.2-2.8 2.9-2.8h2v2.5h-1.5c-.5 0-.7.3-.7.7v1.4h2.3v2.5h-2.3v6.5h-2.7v-6.5zM319.2 22.2h-6.3c.3.8 1.1 1.3 2.1 1.3.9 0 1.5-.4 1.9-1l2.1 1.3c-.8 1.4-2.3 2.2-4.1 2.2-2.7 0-4.7-2.1-4.7-4.7 0-2.7 1.9-4.8 4.6-4.8 2.7 0 4.6 2 4.6 4.7-.1.3-.1.6-.2 1zm-6.4-2h3.9c-.3-.9-1-1.3-1.9-1.3-1 0-1.7.5-2 1.3zM326.4 12.6h2.8v13.1h-2.8V12.6zM340.2 20.1v5.7h-2.7v-5.1c0-.9-.6-1.5-1.5-1.5s-1.5.7-1.5 1.5v5.1h-2.7v-9.1h2.6v.5c.6-.4 1.4-.7 2.2-.7 2.1 0 3.6 1.5 3.6 3.6zM345.8 23.5c.7 0 1.2-.3 1.2-.7 0-.3-.2-.4-.7-.5-.5-.1-1-.1-1.6-.2-1.8-.3-2.6-1.3-2.6-2.7 0-1.8 1.5-3.1 3.7-3.1 2.1 0 3.7 1.3 3.7 3.1h-2.6c0-.4-.4-.7-1.1-.7-.7 0-1.1.3-1.1.6s.2.4.6.5c.6.1 1 .1 1.7.2 1.8.2 2.6 1.3 2.6 2.7 0 1.8-1.5 3.2-3.8 3.2-2.2 0-3.8-1.3-3.8-3.1h2.6c-.1.5.4.7 1.2.7zM359.5 16.7v9.1h-2.6v-.5c-.6.5-1.4.7-2.2.7-2 0-3.5-1.5-3.5-3.6v-5.7h2.7v5.1c0 .8.6 1.5 1.5 1.5s1.5-.7 1.5-1.5v-5.1h2.6zM367.7 16.7v2.6h-1.4c-1 0-1.7.8-1.7 1.8v4.6h-2.7v-9.1h2.6v.8c.5-.6 1.3-.8 2.1-.8h1.1zM376.4 20v5.7h-2.6v-.5c-.6.5-1.2.7-2.2.7-1.9 0-3.2-1.2-3.2-2.8 0-1.9 1.4-2.7 3.2-2.8l2.2-.2V20c0-.6-.6-1.1-1.3-1.1-.7 0-1.2.3-1.3.8h-2.5c.1-1.9 1.7-3.3 3.9-3.3 2.2.1 3.8 1.6 3.8 3.6zm-2.6 2.6V22l-1.8.1c-.7.1-1 .4-1 .8 0 .5.4.8 1.2.8 1 .1 1.6-.4 1.6-1.1zM387.1 20.1v5.7h-2.7v-5.1c0-.9-.6-1.5-1.5-1.5s-1.5.7-1.5 1.5v5.1h-2.7v-9.1h2.6v.5c.6-.4 1.4-.7 2.2-.7 2.1 0 3.6 1.5 3.6 3.6zM393.6 16.5c1.7 0 3.2.8 3.9 2.1l-2.1 1.5c-.4-.6-1-1-1.8-1-1.2 0-2.1.9-2.1 2.1 0 1.2.9 2.1 2.1 2.1.8 0 1.4-.4 1.8-1l2.2 1.5c-.8 1.3-2.2 2.1-3.9 2.1-2.7 0-4.7-2.1-4.7-4.7-.1-2.7 1.8-4.7 4.6-4.7zM407.3 22.2H401c.3.8 1.1 1.3 2.1 1.3.9 0 1.5-.4 1.9-1l2.1 1.3c-.8 1.4-2.3 2.2-4.1 2.2-2.7 0-4.7-2.1-4.7-4.7 0-2.7 1.9-4.8 4.6-4.8 2.7 0 4.6 2 4.6 4.7-.1.3-.1.6-.2 1zm-6.4-2h3.9c-.3-.9-1-1.3-1.9-1.3-1 0-1.7.5-2 1.3z"/></g><g fill="#193062"><path d="M184.4 35v13.7h-2.6v-.5c-.6.5-1.4.7-2.3.7-2.6 0-4.5-2.1-4.5-4.7 0-2.7 1.9-4.8 4.5-4.8.9 0 1.7.3 2.3.7V35h2.6zm-2.6 9.2c0-1.2-.9-2.2-2.1-2.2-1.2 0-2.1.9-2.1 2.2 0 1.2.9 2.1 2.1 2.1 1.2 0 2.1-.9 2.1-2.1zM190.9 39.5c2.7 0 4.7 2.1 4.7 4.8 0 2.6-2 4.7-4.7 4.7s-4.7-2.1-4.7-4.7c-.1-2.8 1.9-4.8 4.7-4.8zm0 6.8c1.2 0 2.1-.9 2.1-2.1 0-1.2-.9-2.1-2.1-2.1s-2.1.9-2.1 2.1c0 1.2.9 2.1 2.1 2.1zM205.8 45.2h-6.3c.3.8 1.1 1.3 2.1 1.3.9 0 1.5-.4 1.9-1l2.1 1.3c-.8 1.4-2.3 2.2-4.1 2.2-2.7 0-4.7-2.1-4.7-4.7 0-2.7 1.9-4.8 4.6-4.8 2.7 0 4.6 2 4.6 4.7-.1.3-.1.7-.2 1zm-6.4-2h3.9c-.3-.9-1-1.3-1.9-1.3-1 0-1.7.5-2 1.3zM210.9 46.5c.7 0 1.2-.3 1.2-.7 0-.3-.2-.4-.7-.5-.5-.1-1-.1-1.6-.2-1.8-.3-2.6-1.3-2.6-2.7 0-1.8 1.5-3.1 3.7-3.1 2.1 0 3.7 1.3 3.7 3.1H212c0-.4-.4-.7-1.1-.7-.7 0-1.1.3-1.1.6s.2.4.6.4c.6.1 1 .1 1.7.2 1.8.2 2.6 1.3 2.6 2.7 0 1.8-1.5 3.2-3.8 3.2-2.2 0-3.8-1.3-3.8-3.1h2.6c0 .6.5.8 1.2.8zM224.8 43.1v5.7h-2.7v-5.1c0-.9-.6-1.5-1.5-1.5s-1.5.7-1.5 1.5v5.1h-2.7v-9.1h2.6v.5c.6-.5 1.4-.7 2.2-.7 2.1 0 3.6 1.5 3.6 3.6zM229.2 37c0 .2 0 .4-.1.6l-1.1 3h-1.5l.5-2.1c-.6-.2-1-.8-1-1.5 0-.9.6-1.6 1.6-1.6s1.6.7 1.6 1.6zM234.2 39.7h2.8v2.5h-2.8v3c0 .6.4 1 1 1h1.8v2.5h-2.3c-1.8 0-3.1-1.2-3.1-3v-3.5h-1.3v-1.4l2.5-3.1h1.5v2zM252.4 43.1v5.7h-2.7v-5.1c0-.9-.6-1.6-1.5-1.6-1 0-1.6.7-1.6 1.6v5.1H244V35h2.7v5.1c.6-.4 1.3-.7 2.2-.7 2 .1 3.5 1.6 3.5 3.7zM262.3 43.1v5.7h-2.6v-.5c-.6.5-1.2.7-2.2.7-1.9 0-3.2-1.2-3.2-2.8 0-1.9 1.4-2.7 3.2-2.8l2.2-.2V43c0-.6-.6-1.1-1.3-1.1-.7 0-1.2.3-1.3.8h-2.5c.1-1.9 1.7-3.3 3.9-3.3 2.2.1 3.8 1.6 3.8 3.7zm-2.6 2.5V45l-1.8.1c-.7.1-1 .4-1 .8 0 .5.4.8 1.2.8 1 .1 1.6-.4 1.6-1.1zM272.3 39.7l-3.3 9.1h-2.7l-3.3-9.1h2.9l1.8 5 1.7-5h2.9zM281.8 45.2h-6.3c.3.8 1.1 1.3 2.1 1.3.9 0 1.5-.4 1.9-1l2.1 1.3c-.8 1.4-2.3 2.2-4.1 2.2-2.7 0-4.7-2.1-4.7-4.7 0-2.7 1.9-4.8 4.6-4.8 2.7 0 4.6 2 4.6 4.7-.1.3-.1.7-.2 1zm-6.4-2h3.9c-.3-.9-1-1.3-1.9-1.3-1 0-1.7.5-2 1.3zM291.9 39.7h2.8v2.5h-2.8v3c0 .6.4 1 1 1h1.8v2.5h-2.3c-1.8 0-3.1-1.2-3.1-3v-3.5H288v-1.4l2.5-3.1h1.5v2zM300.6 39.5c2.7 0 4.7 2.1 4.7 4.8 0 2.6-2 4.7-4.7 4.7s-4.7-2.1-4.7-4.7c-.1-2.8 1.9-4.8 4.7-4.8zm0 6.8c1.2 0 2.1-.9 2.1-2.1 0-1.2-.9-2.1-2.1-2.1s-2.1.9-2.1 2.1c0 1.2.9 2.1 2.1 2.1zM321.7 44.2c0 2.6-1.9 4.7-4.5 4.7-.9 0-1.7-.3-2.3-.7v.5h-2.6V35h2.7v5.1c.6-.4 1.4-.7 2.3-.7 2.5.1 4.4 2.1 4.4 4.8zm-2.7 0c0-1.2-.9-2.2-2.1-2.2-1.3 0-2.1.9-2.1 2.2 0 1.2.9 2.1 2.1 2.1 1.3 0 2.1-.9 2.1-2.1zM331.9 45.2h-6.3c.3.8 1.1 1.3 2.1 1.3.9 0 1.5-.4 1.9-1l2.1 1.3c-.8 1.4-2.3 2.2-4.1 2.2-2.7 0-4.7-2.1-4.7-4.7 0-2.7 1.9-4.8 4.6-4.8 2.7 0 4.6 2 4.6 4.7-.1.3-.1.7-.2 1zm-6.4-2h3.9c-.3-.9-1-1.3-1.9-1.3-1 0-1.8.5-2 1.3zM343 39.5c1.7 0 3.2.8 3.9 2.1l-2.1 1.5c-.4-.6-1-1-1.8-1-1.2 0-2.1.9-2.1 2.1 0 1.2.9 2.1 2.1 2.1.8 0 1.4-.4 1.8-1l2.2 1.5c-.8 1.3-2.2 2.1-3.9 2.1-2.7 0-4.7-2.1-4.7-4.7-.1-2.7 1.9-4.7 4.6-4.7zM352.5 39.5c2.7 0 4.7 2.1 4.7 4.8 0 2.6-2 4.7-4.7 4.7s-4.7-2.1-4.7-4.7c0-2.8 2-4.8 4.7-4.8zm0 6.8c1.2 0 2.1-.9 2.1-2.1 0-1.2-.9-2.1-2.1-2.1-1.2 0-2.1.9-2.1 2.1 0 1.2.9 2.1 2.1 2.1zM372.3 42.8v5.9h-2.7v-5.3c0-.7-.5-1.3-1.3-1.3s-1.3.6-1.3 1.3v5.3h-2.7v-5.3c0-.7-.5-1.3-1.3-1.3s-1.3.6-1.3 1.3v5.3H359v-9.1h2.6v.4c.5-.4 1.2-.6 2-.6 1 0 1.8.3 2.4.9.6-.6 1.5-.9 2.6-.9 2.1.1 3.7 1.5 3.7 3.4zM384 44.2c0 2.6-1.9 4.7-4.5 4.7-.9 0-1.7-.3-2.3-.7v4.3h-2.7V39.7h2.6v.5c.6-.5 1.4-.7 2.3-.7 2.7 0 4.6 2 4.6 4.7zm-2.7 0c0-1.2-.9-2.2-2.1-2.2-1.3 0-2.1.9-2.1 2.2 0 1.2.9 2.1 2.1 2.1 1.3 0 2.1-.9 2.1-2.1zM385.8 35h2.7v13.7h-2.7V35zM392.1 35.2c1 0 1.7.7 1.7 1.7 0 .9-.7 1.7-1.7 1.7s-1.7-.7-1.7-1.7c.1-1 .8-1.7 1.7-1.7zm1.4 13.5h-2.7v-9.1h2.7v9.1zM399.9 39.5c1.7 0 3.2.8 3.9 2.1l-2.1 1.5c-.4-.6-1-1-1.8-1-1.2 0-2.1.9-2.1 2.1 0 1.2.9 2.1 2.1 2.1.8 0 1.4-.4 1.8-1l2.2 1.5c-.8 1.3-2.2 2.1-3.9 2.1-2.7 0-4.7-2.1-4.7-4.7-.1-2.7 1.9-4.7 4.6-4.7zM412.8 43.1v5.7h-2.6v-.5c-.6.5-1.2.7-2.2.7-1.9 0-3.2-1.2-3.2-2.8 0-1.9 1.4-2.7 3.2-2.8l2.2-.2V43c0-.6-.6-1.1-1.3-1.1-.7 0-1.2.3-1.3.8H405c.1-1.9 1.7-3.3 3.9-3.3 2.3.1 3.9 1.6 3.9 3.7zm-2.6 2.5V45l-1.8.1c-.7.1-1 .4-1 .8 0 .5.4.8 1.2.8 1 .1 1.6-.4 1.6-1.1zM418 39.7h2.8v2.5H418v3c0 .6.4 1 1 1h1.8v2.5h-2.3c-1.8 0-3.1-1.2-3.1-3v-3.5H414v-1.4l2.5-3.1h1.5v2zM431 45.2h-6.3c.3.8 1.1 1.3 2.1 1.3.9 0 1.5-.4 1.9-1l2.1 1.3c-.8 1.4-2.3 2.2-4.1 2.2-2.7 0-4.7-2.1-4.7-4.7 0-2.7 1.9-4.8 4.6-4.8 2.7 0 4.6 2 4.6 4.7-.1.3-.2.7-.2 1zm-6.4-2h3.9c-.3-.9-1-1.3-1.9-1.3-1 0-1.8.5-2 1.3zM441.6 35v13.7H439v-.5c-.6.5-1.4.7-2.3.7-2.6 0-4.5-2.1-4.5-4.7 0-2.7 1.9-4.8 4.5-4.8.9 0 1.7.3 2.3.7V35h2.6zm-2.5 9.2c0-1.2-.9-2.2-2.1-2.2-1.2 0-2.1.9-2.1 2.2 0 1.2.9 2.1 2.1 2.1 1.2 0 2.1-.9 2.1-2.1zM445.5 45.5c1 0 1.7.7 1.7 1.7 0 .9-.7 1.7-1.7 1.7s-1.7-.7-1.7-1.7c0-.9.7-1.7 1.7-1.7z"/></g></svg>