<?xml version="1.0" encoding="utf-8"?>
<!-- Generator: Adobe Illustrator 27.4.0, SVG Export Plug-In . SVG Version: 6.00 Build 0)  -->
<svg version="1.1" baseProfile="tiny" id="Layer_1" xmlns="http://www.w3.org/2000/svg" xmlns:xlink="http://www.w3.org/1999/xlink"
	 x="0px" y="0px" viewBox="0 0 320 50" overflow="visible" xml:space="preserve">
<g>
	<path fill="#193062" d="M71.2,9.1h6v1.6h-4.4v1.4h2.4v1.6h-2.4v3.1h-1.6V9.1z"/>
	<path fill="#193062" d="M79,8.9c0.6,0,1,0.4,1,1c0,0.5-0.4,1-1,1s-1-0.4-1-1C78,9.3,78.4,8.9,79,8.9z M79.8,16.8h-1.6v-5.3h1.6
		V16.8z"/>
	<path fill="#193062" d="M86,13.5v3.3h-1.6v-3c0-0.5-0.3-0.9-0.9-0.9s-0.9,0.4-0.9,0.9v3h-1.6v-5.3h1.5v0.3c0.3-0.3,0.8-0.4,1.3-0.4
		C85.1,11.4,86,12.3,86,13.5z"/>
	<path fill="#193062" d="M92.5,8.8v8H91v-0.3c-0.4,0.3-0.8,0.4-1.4,0.4c-1.5,0-2.6-1.2-2.6-2.8c0-1.6,1.1-2.8,2.6-2.8
		c0.5,0,1,0.1,1.3,0.4v-3H92.5z M91,14.1c0-0.7-0.5-1.3-1.2-1.3c-0.7,0-1.2,0.5-1.2,1.3c0,0.7,0.5,1.2,1.2,1.2
		C90.5,15.4,91,14.8,91,14.1z"/>
	<path fill="#193062" d="M97,9.1h1.6v6.1h4.4v1.6h-6V9.1z"/>
	<path fill="#193062" d="M104.8,8.9c0.6,0,1,0.4,1,1c0,0.5-0.4,1-1,1s-1-0.4-1-1C103.9,9.3,104.3,8.9,104.8,8.9z M105.6,16.8h-1.6
		v-5.3h1.6V16.8z"/>
	<path fill="#193062" d="M107.5,13h-1v-1.5h1v-1.1c0-1,0.7-1.6,1.7-1.6h1.2v1.5h-0.9c-0.3,0-0.4,0.1-0.4,0.4v0.8h1.3V13h-1.3v3.8
		h-1.6V13z"/>
	<path fill="#193062" d="M116.1,14.7h-3.7c0.2,0.5,0.6,0.8,1.2,0.8c0.5,0,0.9-0.3,1.1-0.6l1.2,0.7c-0.5,0.8-1.3,1.3-2.4,1.3
		c-1.6,0-2.8-1.2-2.8-2.8c0-1.6,1.1-2.8,2.7-2.8c1.6,0,2.7,1.2,2.7,2.8C116.2,14.3,116.2,14.5,116.1,14.7z M112.4,13.6h2.2
		c-0.1-0.5-0.6-0.8-1.1-0.8C113,12.8,112.6,13.1,112.4,13.6z"/>
	<path fill="#193062" d="M120.4,9.1h1.6v7.7h-1.6V9.1z"/>
	<path fill="#193062" d="M128.4,13.5v3.3h-1.6v-3c0-0.5-0.3-0.9-0.9-0.9s-0.9,0.4-0.9,0.9v3h-1.6v-5.3h1.5v0.3
		c0.3-0.3,0.8-0.4,1.3-0.4C127.5,11.4,128.4,12.3,128.4,13.5z"/>
	<path fill="#193062" d="M131.6,15.5c0.4,0,0.7-0.2,0.7-0.4c0-0.2-0.1-0.3-0.4-0.3c-0.3,0-0.6,0-1-0.1c-1-0.2-1.5-0.8-1.5-1.6
		c0-1,0.9-1.8,2.1-1.8c1.2,0,2.1,0.7,2.1,1.8h-1.5c0-0.2-0.3-0.4-0.7-0.4c-0.4,0-0.6,0.2-0.6,0.4c0,0.1,0.1,0.2,0.4,0.3
		c0.3,0,0.6,0,1,0.1c1,0.1,1.5,0.8,1.5,1.6c0,1.1-0.9,1.8-2.2,1.8c-1.3,0-2.2-0.8-2.2-1.8h1.5C130.9,15.3,131.2,15.5,131.6,15.5z"/>
	<path fill="#193062" d="M139.7,11.5v5.3h-1.5v-0.3c-0.3,0.3-0.8,0.4-1.3,0.4c-1.2,0-2.1-0.9-2.1-2.1v-3.3h1.6v3
		c0,0.5,0.3,0.9,0.9,0.9s0.9-0.4,0.9-0.9v-3H139.7z"/>
	<path fill="#193062" d="M144.4,11.5V13h-0.8c-0.6,0-1,0.5-1,1v2.7h-1.6v-5.3h1.5V12c0.3-0.4,0.8-0.5,1.2-0.5H144.4z"/>
	<path fill="#193062" d="M149.5,13.5v3.3H148v-0.3c-0.3,0.3-0.7,0.4-1.3,0.4c-1.1,0-1.8-0.7-1.8-1.7c0-1.1,0.8-1.6,1.8-1.6l1.3-0.1
		v-0.1c0-0.4-0.3-0.6-0.8-0.6c-0.4,0-0.7,0.2-0.8,0.5H145c0.1-1.1,1-1.9,2.2-1.9C148.6,11.4,149.5,12.3,149.5,13.5z M148,14.9v-0.3
		l-1,0.1c-0.4,0-0.6,0.2-0.6,0.5c0,0.3,0.2,0.5,0.7,0.5C147.7,15.7,148,15.4,148,14.9z"/>
	<path fill="#193062" d="M155.8,13.5v3.3h-1.6v-3c0-0.5-0.3-0.9-0.9-0.9s-0.9,0.4-0.9,0.9v3h-1.6v-5.3h1.5v0.3
		c0.3-0.3,0.8-0.4,1.3-0.4C154.9,11.4,155.8,12.3,155.8,13.5z"/>
	<path fill="#193062" d="M159.5,11.4c1,0,1.8,0.5,2.3,1.2l-1.3,0.9c-0.2-0.4-0.6-0.6-1-0.6c-0.7,0-1.2,0.5-1.2,1.2s0.5,1.2,1.2,1.2
		c0.5,0,0.8-0.2,1-0.6l1.3,0.9c-0.5,0.8-1.3,1.2-2.3,1.2c-1.6,0-2.7-1.2-2.7-2.8S157.9,11.4,159.5,11.4z"/>
	<path fill="#193062" d="M167.6,14.7h-3.7c0.2,0.5,0.6,0.8,1.2,0.8c0.5,0,0.9-0.3,1.1-0.6l1.2,0.7c-0.5,0.8-1.3,1.3-2.4,1.3
		c-1.6,0-2.8-1.2-2.8-2.8c0-1.6,1.1-2.8,2.7-2.8c1.6,0,2.7,1.2,2.7,2.8C167.6,14.3,167.6,14.5,167.6,14.7z M163.8,13.6h2.2
		c-0.1-0.5-0.6-0.8-1.1-0.8C164.4,12.8,164,13.1,163.8,13.6z"/>
	<path fill="#193062" d="M172.2,13h-1v-1.5h1v-1.1c0-1,0.7-1.6,1.7-1.6h1.2v1.5h-0.9c-0.3,0-0.4,0.1-0.4,0.4v0.8h1.3V13h-1.3v3.8
		h-1.6V13z"/>
	<path fill="#193062" d="M178.3,11.4c1.6,0,2.8,1.2,2.8,2.8c0,1.5-1.2,2.8-2.8,2.8s-2.8-1.2-2.8-2.8
		C175.5,12.6,176.7,11.4,178.3,11.4z M178.3,15.4c0.7,0,1.2-0.5,1.2-1.2c0-0.7-0.5-1.2-1.2-1.2c-0.7,0-1.2,0.5-1.2,1.2
		C177.1,14.8,177.6,15.4,178.3,15.4z"/>
	<path fill="#193062" d="M185.5,11.5V13h-0.8c-0.6,0-1,0.5-1,1v2.7h-1.6v-5.3h1.5V12c0.3-0.4,0.8-0.5,1.2-0.5H185.5z"/>
	<path fill="#193062" d="M193.7,11.5L191,19h-1.6l0.8-2.3l-1.9-5.2h1.7l1,2.9l1-2.9H193.7z"/>
	<path fill="#193062" d="M196.8,11.4c1.6,0,2.8,1.2,2.8,2.8c0,1.5-1.2,2.8-2.8,2.8s-2.8-1.2-2.8-2.8C194,12.6,195.2,11.4,196.8,11.4
		z M196.8,15.4c0.7,0,1.2-0.5,1.2-1.2c0-0.7-0.5-1.2-1.2-1.2s-1.2,0.5-1.2,1.2C195.6,14.8,196.1,15.4,196.8,15.4z"/>
	<path fill="#193062" d="M205.4,11.5v5.3h-1.5v-0.3c-0.3,0.3-0.8,0.4-1.3,0.4c-1.2,0-2.1-0.9-2.1-2.1v-3.3h1.6v3
		c0,0.5,0.3,0.9,0.9,0.9c0.5,0,0.9-0.4,0.9-0.9v-3H205.4z"/>
	<path fill="#193062" d="M210.2,11.5V13h-0.8c-0.6,0-1,0.5-1,1v2.7h-1.6v-5.3h1.5V12c0.3-0.4,0.8-0.5,1.2-0.5H210.2z"/>
	<path fill="#193062" d="M214.6,13h-1v-1.5h1v-1.1c0-1,0.7-1.6,1.7-1.6h1.2v1.5h-0.9c-0.3,0-0.4,0.1-0.4,0.4v0.8h1.3V13h-1.3v3.8
		h-1.6V13z"/>
	<path fill="#193062" d="M222.6,13.5v3.3h-1.5v-0.3c-0.3,0.3-0.7,0.4-1.3,0.4c-1.1,0-1.8-0.7-1.8-1.7c0-1.1,0.8-1.6,1.8-1.6l1.3-0.1
		v-0.1c0-0.4-0.3-0.6-0.8-0.6c-0.4,0-0.7,0.2-0.8,0.5h-1.5c0.1-1.1,1-1.9,2.2-1.9C221.7,11.4,222.6,12.3,222.6,13.5z M221.1,14.9
		v-0.3l-1,0.1c-0.4,0-0.6,0.2-0.6,0.5c0,0.3,0.2,0.5,0.7,0.5C220.8,15.7,221.1,15.4,221.1,14.9z"/>
	<path fill="#193062" d="M231.7,13.3v3.5h-1.6v-3.1c0-0.4-0.3-0.8-0.8-0.8c-0.5,0-0.8,0.4-0.8,0.8v3.1h-1.6v-3.1
		c0-0.4-0.3-0.8-0.8-0.8c-0.5,0-0.8,0.4-0.8,0.8v3.1H224v-5.3h1.5v0.3c0.3-0.2,0.7-0.4,1.2-0.4c0.6,0,1,0.2,1.4,0.5
		c0.4-0.3,0.9-0.5,1.5-0.5C230.8,11.4,231.7,12.2,231.7,13.3z"/>
	<path fill="#193062" d="M233.8,8.9c0.6,0,1,0.4,1,1c0,0.5-0.4,1-1,1s-1-0.4-1-1C232.9,9.3,233.3,8.9,233.8,8.9z M234.6,16.8h-1.6
		v-5.3h1.6V16.8z"/>
	<path fill="#193062" d="M236,8.8h1.6v8H236V8.8z"/>
	<path fill="#193062" d="M243.7,11.5L241,19h-1.6l0.8-2.3l-1.9-5.2h1.7l1,2.9l1-2.9H243.7z"/>
</g>
<g>
	<path fill="#193062" d="M78.5,24.5l-1.7,5.3h-1.6l-0.7-2.2l-0.7,2.2h-1.6l-1.8-5.3h1.7l0.9,3l0.9-3h1l0.9,2.9l1-2.9H78.5z"/>
	<path fill="#193062" d="M80,21.9c0.6,0,1,0.4,1,1c0,0.5-0.4,1-1,1s-1-0.4-1-1C79.1,22.3,79.5,21.9,80,21.9z M80.8,29.8h-1.6v-5.3
		h1.6V29.8z"/>
	<path fill="#193062" d="M84,24.5h1.6V26H84v1.8c0,0.3,0.2,0.6,0.6,0.6h1v1.5h-1.4c-1.1,0-1.8-0.7-1.8-1.8v-2h-0.8v-0.8l1.5-1.8H84
		V24.5z"/>
	<path fill="#193062" d="M91.5,26.5v3.3H90v-3c0-0.5-0.3-0.9-0.9-0.9c-0.6,0-0.9,0.4-0.9,0.9v3h-1.6v-8h1.6v3
		c0.3-0.3,0.8-0.4,1.3-0.4C90.6,24.4,91.5,25.3,91.5,26.5z"/>
	<path fill="#193062" d="M98.3,24.4c1,0,1.8,0.5,2.3,1.2l-1.2,0.9c-0.2-0.4-0.6-0.6-1-0.6c-0.7,0-1.2,0.5-1.2,1.2s0.5,1.2,1.2,1.2
		c0.5,0,0.8-0.2,1-0.6l1.3,0.9c-0.5,0.8-1.3,1.2-2.3,1.2c-1.6,0-2.7-1.2-2.7-2.8C95.6,25.6,96.7,24.4,98.3,24.4z"/>
	<path fill="#193062" d="M101.4,21.8h1.6v8h-1.6V21.8z"/>
	<path fill="#193062" d="M109.3,27.7h-3.7c0.2,0.5,0.6,0.8,1.2,0.8c0.5,0,0.9-0.3,1.1-0.6l1.2,0.7c-0.5,0.8-1.3,1.3-2.4,1.3
		c-1.6,0-2.8-1.2-2.8-2.8c0-1.6,1.1-2.8,2.7-2.8c1.6,0,2.7,1.2,2.7,2.8C109.3,27.3,109.3,27.5,109.3,27.7z M105.6,26.6h2.2
		c-0.1-0.5-0.6-0.8-1.1-0.8C106.1,25.8,105.7,26.1,105.6,26.6z"/>
	<path fill="#193062" d="M114.7,26.5v3.3h-1.5v-0.3c-0.3,0.3-0.7,0.4-1.3,0.4c-1.1,0-1.8-0.7-1.8-1.7c0-1.1,0.8-1.6,1.8-1.6l1.3-0.1
		v-0.1c0-0.4-0.3-0.6-0.8-0.6c-0.4,0-0.7,0.2-0.8,0.5h-1.5c0.1-1.1,1-1.9,2.2-1.9C113.8,24.4,114.7,25.3,114.7,26.5z M113.2,27.9
		v-0.3l-1,0.1c-0.4,0-0.6,0.2-0.6,0.5c0,0.3,0.2,0.5,0.7,0.5C112.9,28.7,113.2,28.4,113.2,27.9z"/>
	<path fill="#193062" d="M119.5,24.5V26h-0.8c-0.6,0-1,0.5-1,1v2.7h-1.6v-5.3h1.5V25c0.3-0.4,0.8-0.5,1.2-0.5H119.5z"/>
	<path fill="#193062" d="M124.1,21.9c0.6,0,1,0.4,1,1c0,0.5-0.4,1-1,1s-1-0.4-1-1C123.2,22.3,123.6,21.9,124.1,21.9z M124.9,29.8
		h-1.6v-5.3h1.6V29.8z"/>
	<path fill="#193062" d="M131.2,26.5v3.3h-1.6v-3c0-0.5-0.3-0.9-0.9-0.9s-0.9,0.4-0.9,0.9v3h-1.6v-5.3h1.5v0.3
		c0.3-0.3,0.8-0.4,1.3-0.4C130.3,24.4,131.2,25.3,131.2,26.5z"/>
	<path fill="#193062" d="M133,26h-1v-1.5h1v-1.1c0-1,0.7-1.6,1.7-1.6h1.2v1.5H135c-0.3,0-0.4,0.1-0.4,0.4v0.8h1.3V26h-1.3v3.8H133
		V26z"/>
	<path fill="#193062" d="M139.1,24.4c1.6,0,2.8,1.2,2.8,2.8c0,1.5-1.2,2.8-2.8,2.8s-2.8-1.2-2.8-2.8
		C136.4,25.6,137.6,24.4,139.1,24.4z M139.1,28.4c0.7,0,1.2-0.5,1.2-1.2c0-0.7-0.5-1.2-1.2-1.2c-0.7,0-1.2,0.5-1.2,1.2
		C137.9,27.8,138.4,28.4,139.1,28.4z"/>
	<path fill="#193062" d="M146.3,24.5V26h-0.8c-0.6,0-1,0.5-1,1v2.7h-1.6v-5.3h1.5V25c0.3-0.4,0.8-0.5,1.2-0.5H146.3z"/>
	<path fill="#193062" d="M154.9,26.3v3.5h-1.6v-3.1c0-0.4-0.3-0.8-0.8-0.8c-0.5,0-0.8,0.4-0.8,0.8v3.1h-1.6v-3.1
		c0-0.4-0.3-0.8-0.8-0.8c-0.5,0-0.8,0.4-0.8,0.8v3.1h-1.6v-5.3h1.5v0.3c0.3-0.2,0.7-0.4,1.2-0.4c0.6,0,1,0.2,1.4,0.5
		c0.4-0.3,0.9-0.5,1.5-0.5C154,24.4,154.9,25.2,154.9,26.3z"/>
	<path fill="#193062" d="M160.6,26.5v3.3h-1.5v-0.3c-0.3,0.3-0.7,0.4-1.3,0.4c-1.1,0-1.8-0.7-1.8-1.7c0-1.1,0.8-1.6,1.8-1.6l1.3-0.1
		v-0.1c0-0.4-0.3-0.6-0.8-0.6c-0.4,0-0.7,0.2-0.8,0.5h-1.5c0.1-1.1,1-1.9,2.2-1.9C159.7,24.4,160.6,25.3,160.6,26.5z M159.1,27.9
		v-0.3l-1,0.1c-0.4,0-0.6,0.2-0.6,0.5c0,0.3,0.2,0.5,0.7,0.5C158.8,28.7,159.1,28.4,159.1,27.9z"/>
	<path fill="#193062" d="M163.7,24.5h1.6V26h-1.6v1.8c0,0.3,0.2,0.6,0.6,0.6h1v1.5H164c-1.1,0-1.8-0.7-1.8-1.8v-2h-0.8v-0.8l1.5-1.8
		h0.9V24.5z"/>
	<path fill="#193062" d="M167.2,21.9c0.6,0,1,0.4,1,1c0,0.5-0.4,1-1,1s-1-0.4-1-1C166.2,22.3,166.6,21.9,167.2,21.9z M167.9,29.8
		h-1.6v-5.3h1.6V29.8z"/>
	<path fill="#193062" d="M171.7,24.4c1.6,0,2.8,1.2,2.8,2.8c0,1.5-1.2,2.8-2.8,2.8s-2.8-1.2-2.8-2.8C169,25.6,170.1,24.4,171.7,24.4
		z M171.7,28.4c0.7,0,1.2-0.5,1.2-1.2c0-0.7-0.5-1.2-1.2-1.2s-1.2,0.5-1.2,1.2C170.5,27.8,171,28.4,171.7,28.4z"/>
	<path fill="#193062" d="M180.4,26.5v3.3h-1.6v-3c0-0.5-0.3-0.9-0.9-0.9s-0.9,0.4-0.9,0.9v3h-1.6v-5.3h1.5v0.3
		c0.3-0.3,0.8-0.4,1.3-0.4C179.5,24.4,180.4,25.3,180.4,26.5z"/>
	<path fill="#193062" d="M185.3,26h-1v-1.5h1v-1.1c0-1,0.7-1.6,1.7-1.6h1.2v1.5h-0.9c-0.3,0-0.4,0.1-0.4,0.4v0.8h1.3V26h-1.3v3.8
		h-1.6V26z"/>
	<path fill="#193062" d="M192.5,24.5V26h-0.8c-0.6,0-1,0.5-1,1v2.7h-1.6v-5.3h1.5V25c0.3-0.4,0.8-0.5,1.2-0.5H192.5z"/>
	<path fill="#193062" d="M195.8,24.4c1.6,0,2.8,1.2,2.8,2.8c0,1.5-1.2,2.8-2.8,2.8s-2.8-1.2-2.8-2.8C193,25.6,194.2,24.4,195.8,24.4
		z M195.8,28.4c0.7,0,1.2-0.5,1.2-1.2c0-0.7-0.5-1.2-1.2-1.2c-0.7,0-1.2,0.5-1.2,1.2C194.6,27.8,195.1,28.4,195.8,28.4z"/>
	<path fill="#193062" d="M207.3,26.3v3.5h-1.6v-3.1c0-0.4-0.3-0.8-0.8-0.8c-0.5,0-0.8,0.4-0.8,0.8v3.1h-1.6v-3.1
		c0-0.4-0.3-0.8-0.8-0.8c-0.5,0-0.8,0.4-0.8,0.8v3.1h-1.6v-5.3h1.5v0.3c0.3-0.2,0.7-0.4,1.2-0.4c0.6,0,1,0.2,1.4,0.5
		c0.4-0.3,0.9-0.5,1.5-0.5C206.4,24.4,207.3,25.2,207.3,26.3z"/>
	<path fill="#193062" d="M213.4,24.5h1.6V26h-1.6v1.8c0,0.3,0.2,0.6,0.6,0.6h1v1.5h-1.4c-1.1,0-1.8-0.7-1.8-1.8v-2h-0.8v-0.8
		l1.5-1.8h0.9V24.5z"/>
	<path fill="#193062" d="M221,26.5v3.3h-1.6v-3c0-0.5-0.3-0.9-0.9-0.9c-0.6,0-0.9,0.4-0.9,0.9v3h-1.6v-8h1.6v3
		c0.3-0.3,0.8-0.4,1.3-0.4C220.1,24.4,221,25.3,221,26.5z"/>
	<path fill="#193062" d="M227.3,27.7h-3.7c0.2,0.5,0.6,0.8,1.2,0.8c0.5,0,0.9-0.3,1.1-0.6l1.2,0.7c-0.5,0.8-1.3,1.3-2.4,1.3
		c-1.6,0-2.8-1.2-2.8-2.8c0-1.6,1.1-2.8,2.7-2.8c1.6,0,2.7,1.2,2.7,2.8C227.3,27.3,227.3,27.5,227.3,27.7z M223.6,26.6h2.2
		c-0.1-0.5-0.6-0.8-1.1-0.8C224.1,25.8,223.7,26.1,223.6,26.6z"/>
	<path fill="#193062" d="M233.3,28.5c0.4,0,0.7-0.2,0.7-0.4c0-0.2-0.1-0.3-0.4-0.3c-0.3,0-0.6,0-1-0.1c-1-0.2-1.5-0.8-1.5-1.6
		c0-1,0.9-1.8,2.1-1.8c1.2,0,2.1,0.7,2.1,1.8h-1.5c0-0.2-0.3-0.4-0.7-0.4c-0.4,0-0.6,0.2-0.6,0.4c0,0.1,0.1,0.2,0.4,0.3
		c0.3,0,0.6,0,1,0.1c1,0.1,1.5,0.8,1.5,1.6c0,1.1-0.9,1.8-2.2,1.8c-1.3,0-2.2-0.8-2.2-1.8h1.5C232.6,28.3,232.9,28.5,233.3,28.5z"/>
	<path fill="#193062" d="M238.2,24.5h1.6V26h-1.6v1.8c0,0.3,0.2,0.6,0.6,0.6h1v1.5h-1.4c-1.1,0-1.8-0.7-1.8-1.8v-2h-0.8v-0.8
		l1.5-1.8h0.9V24.5z"/>
	<path fill="#193062" d="M245.3,26.5v3.3h-1.5v-0.3c-0.3,0.3-0.7,0.4-1.3,0.4c-1.1,0-1.8-0.7-1.8-1.7c0-1.1,0.8-1.6,1.8-1.6l1.3-0.1
		v-0.1c0-0.4-0.3-0.6-0.8-0.6c-0.4,0-0.7,0.2-0.8,0.5h-1.5c0.1-1.1,1-1.9,2.2-1.9C244.3,24.4,245.3,25.3,245.3,26.5z M243.8,27.9
		v-0.3l-1,0.1c-0.4,0-0.6,0.2-0.6,0.5c0,0.3,0.2,0.5,0.7,0.5C243.4,28.7,243.8,28.4,243.8,27.9z"/>
	<path fill="#193062" d="M250,24.5V26h-0.8c-0.6,0-1,0.5-1,1v2.7h-1.6v-5.3h1.5V25c0.3-0.4,0.8-0.5,1.2-0.5H250z"/>
	<path fill="#193062" d="M252.8,24.5h1.6V26h-1.6v1.8c0,0.3,0.2,0.6,0.6,0.6h1v1.5H253c-1.1,0-1.8-0.7-1.8-1.8v-2h-0.8v-0.8l1.5-1.8
		h0.9V24.5z"/>
	<path fill="#193062" d="M256.3,27.9c0.6,0,1,0.4,1,1c0,0.5-0.4,1-1,1c-0.6,0-1-0.4-1-1C255.3,28.3,255.7,27.9,256.3,27.9z"/>
</g>
</svg>
