<?xml version="1.0" encoding="utf-8"?>
<!-- Generator: Adobe Illustrator 27.4.0, SVG Export Plug-In . SVG Version: 6.00 Build 0)  -->
<svg version="1.1" baseProfile="tiny" id="Layer_1" xmlns="http://www.w3.org/2000/svg" xmlns:xlink="http://www.w3.org/1999/xlink"
	 x="0px" y="0px" viewBox="0 0 300 50" overflow="visible" xml:space="preserve">
<g>
	<path fill="#FFFFFF" d="M10.7,42.6c0,0.3-0.1,0.6-0.2,0.9c-0.2,0.3-0.4,0.5-0.6,0.6s-0.6,0.2-0.9,0.2c-0.4,0-0.7-0.1-1-0.2
		s-0.5-0.4-0.7-0.7c-0.2-0.3-0.2-0.6-0.2-1c0-0.4,0.1-0.7,0.2-1C7.5,41.2,7.7,41,8,40.8c0.3-0.2,0.6-0.2,1-0.2
		c0.3,0,0.7,0.1,0.9,0.2c0.3,0.2,0.5,0.4,0.6,0.6l-0.3,0.2c-0.1-0.2-0.3-0.4-0.5-0.5S9.2,41,9,41c-0.3,0-0.5,0.1-0.8,0.2
		c-0.2,0.1-0.4,0.3-0.5,0.5c-0.1,0.2-0.2,0.5-0.2,0.8c0,0.3,0.1,0.6,0.2,0.8c0.1,0.2,0.3,0.4,0.5,0.5C8.4,43.9,8.7,44,8.9,44
		c0.2,0,0.4,0,0.6-0.1c0.2-0.1,0.3-0.2,0.5-0.4c0.1-0.2,0.2-0.3,0.3-0.5H8.8v-0.4H10.7z"/>
	<path fill="#FFFFFF" d="M11.4,40.7h2.7V41h-2.3v1.3h1.4v0.4h-1.4v1.3h2.3v0.4h-2.7V40.7z"/>
	<path fill="#FFFFFF" d="M17.5,40.7v3.7h-0.4l-2-3v3h-0.4v-3.7h0.4l2,3v-3H17.5z"/>
	<path fill="#FFFFFF" d="M19.4,42.7v0.4h-1.1v-0.4H19.4z"/>
	<path fill="#FFFFFF" d="M22.6,42.8v0.4h-0.7v1.1h-0.4v-1.1h-1.6v-0.3l1.6-2.2h0.4v2.1H22.6z M21.5,42.8v-1.6l-1.2,1.6H21.5z"/>
	<path fill="#FFFFFF" d="M22.9,40.7h2.3V41l-1.4,3.3h-0.4l1.4-3.3h-1.9V40.7z"/>
	<path fill="#FFFFFF" d="M28.1,43.3c0,0.2,0,0.4-0.1,0.5c-0.1,0.2-0.2,0.3-0.4,0.4s-0.4,0.1-0.6,0.1c-0.2,0-0.4,0-0.6-0.1
		c-0.2-0.1-0.3-0.2-0.4-0.4c-0.1-0.2-0.1-0.3-0.1-0.5h0.4c0,0.1,0,0.2,0.1,0.3c0.1,0.1,0.2,0.2,0.3,0.2s0.2,0.1,0.4,0.1
		c0.1,0,0.3,0,0.4-0.1c0.1-0.1,0.2-0.1,0.3-0.2c0.1-0.1,0.1-0.2,0.1-0.4c0-0.1,0-0.3-0.1-0.4c-0.1-0.1-0.1-0.2-0.3-0.2
		s-0.2-0.1-0.4-0.1h-0.4v-0.4H27c0.1,0,0.2,0,0.3-0.1s0.2-0.1,0.2-0.2s0.1-0.2,0.1-0.3c0-0.1,0-0.2-0.1-0.3s-0.1-0.2-0.2-0.2
		S27.1,41,27,41c-0.1,0-0.2,0-0.3,0.1s-0.2,0.1-0.2,0.2c-0.1,0.1-0.1,0.2-0.1,0.3h-0.4c0-0.2,0-0.4,0.1-0.5c0.1-0.2,0.2-0.3,0.4-0.4
		c0.2-0.1,0.3-0.1,0.5-0.1c0.2,0,0.4,0,0.5,0.1c0.2,0.1,0.3,0.2,0.4,0.4c0.1,0.2,0.1,0.3,0.1,0.5c0,0.2,0,0.3-0.1,0.5
		c-0.1,0.1-0.2,0.3-0.3,0.3c0.2,0.1,0.3,0.2,0.4,0.4C28,42.9,28.1,43.1,28.1,43.3z"/>
	<path fill="#FFFFFF" d="M31.2,43.2c0,0.2-0.1,0.4-0.2,0.6c-0.1,0.2-0.2,0.3-0.4,0.4s-0.4,0.2-0.6,0.2c-0.2,0-0.4-0.1-0.6-0.2
		S29,44,28.9,43.8c-0.1-0.2-0.2-0.4-0.2-0.6c0-0.1,0-0.3,0.1-0.4c0-0.1,0.1-0.3,0.2-0.4l1.1-1.7h0.4l-0.9,1.4c0.1,0,0.2,0,0.3,0
		c0.2,0,0.4,0,0.6,0.2c0.2,0.1,0.3,0.2,0.4,0.4C31.1,42.8,31.2,43,31.2,43.2z M30.8,43.2c0-0.2,0-0.3-0.1-0.4
		c-0.1-0.1-0.2-0.2-0.3-0.3s-0.3-0.1-0.4-0.1c-0.2,0-0.3,0-0.4,0.1c-0.1,0.1-0.2,0.2-0.3,0.3c-0.1,0.1-0.1,0.3-0.1,0.4
		c0,0.2,0,0.3,0.1,0.4s0.2,0.2,0.3,0.3C29.7,44,29.8,44,30,44s0.3,0,0.4-0.1s0.2-0.2,0.3-0.3C30.8,43.5,30.8,43.3,30.8,43.2z"/>
	<path fill="#FFFFFF" d="M34.3,43.2c0,0.2-0.1,0.4-0.2,0.6c-0.1,0.2-0.2,0.3-0.4,0.4s-0.4,0.2-0.6,0.2c-0.2,0-0.4-0.1-0.6-0.2
		S32.1,44,32,43.8c-0.1-0.2-0.2-0.4-0.2-0.6c0-0.1,0-0.3,0.1-0.4c0-0.1,0.1-0.3,0.2-0.4l1.1-1.7h0.4l-0.9,1.4c0.1,0,0.2,0,0.3,0
		c0.2,0,0.4,0,0.6,0.2c0.2,0.1,0.3,0.2,0.4,0.4C34.2,42.8,34.3,43,34.3,43.2z M33.9,43.2c0-0.2,0-0.3-0.1-0.4
		c-0.1-0.1-0.2-0.2-0.3-0.3s-0.3-0.1-0.4-0.1c-0.2,0-0.3,0-0.4,0.1c-0.1,0.1-0.2,0.2-0.3,0.3c-0.1,0.1-0.1,0.3-0.1,0.4
		c0,0.2,0,0.3,0.1,0.4s0.2,0.2,0.3,0.3c0.1,0.1,0.3,0.1,0.4,0.1s0.3,0,0.4-0.1s0.2-0.2,0.3-0.3C33.9,43.5,33.9,43.3,33.9,43.2z"/>
	<path fill="#FFFFFF" d="M37.4,43.2c0,0.2-0.1,0.4-0.2,0.6c-0.1,0.2-0.2,0.3-0.4,0.4s-0.4,0.2-0.6,0.2c-0.2,0-0.4-0.1-0.6-0.2
		s-0.3-0.2-0.4-0.4c-0.1-0.2-0.2-0.4-0.2-0.6c0-0.1,0-0.3,0.1-0.4c0-0.1,0.1-0.3,0.2-0.4l1.1-1.7h0.4l-0.9,1.4c0.1,0,0.2,0,0.3,0
		c0.2,0,0.4,0,0.6,0.2c0.2,0.1,0.3,0.2,0.4,0.4C37.3,42.8,37.4,43,37.4,43.2z M37,43.2c0-0.2,0-0.3-0.1-0.4
		c-0.1-0.1-0.2-0.2-0.3-0.3s-0.3-0.1-0.4-0.1c-0.2,0-0.3,0-0.4,0.1c-0.1,0.1-0.2,0.2-0.3,0.3c-0.1,0.1-0.1,0.3-0.1,0.4
		c0,0.2,0,0.3,0.1,0.4s0.2,0.2,0.3,0.3C35.9,44,36,44,36.2,44s0.3,0,0.4-0.1s0.2-0.2,0.3-0.3C37,43.5,37,43.3,37,43.2z"/>
	<path fill="#FFFFFF" d="M40.5,43.2c0,0.2-0.1,0.4-0.2,0.6c-0.1,0.2-0.2,0.3-0.4,0.4s-0.4,0.2-0.6,0.2c-0.2,0-0.4-0.1-0.6-0.2
		s-0.3-0.2-0.4-0.4c-0.1-0.2-0.2-0.4-0.2-0.6c0-0.1,0-0.3,0.1-0.4c0-0.1,0.1-0.3,0.2-0.4l1.1-1.7h0.4l-0.9,1.4c0.1,0,0.2,0,0.3,0
		c0.2,0,0.4,0,0.6,0.2c0.2,0.1,0.3,0.2,0.4,0.4C40.4,42.8,40.5,43,40.5,43.2z M40.1,43.2c0-0.2,0-0.3-0.1-0.4
		c-0.1-0.1-0.2-0.2-0.3-0.3s-0.3-0.1-0.4-0.1c-0.2,0-0.3,0-0.4,0.1c-0.1,0.1-0.2,0.2-0.3,0.3c-0.1,0.1-0.1,0.3-0.1,0.4
		c0,0.2,0,0.3,0.1,0.4s0.2,0.2,0.3,0.3c0.1,0.1,0.3,0.1,0.4,0.1s0.3,0,0.4-0.1s0.2-0.2,0.3-0.3C40,43.5,40.1,43.3,40.1,43.2z"/>
	<path fill="#FFFFFF" d="M41.4,43.8c0.1,0,0.2,0,0.2,0.1c0.1,0.1,0.1,0.1,0.1,0.2s0,0.2-0.1,0.2c-0.1,0.1-0.1,0.1-0.2,0.1
		s-0.2,0-0.2-0.1c-0.1-0.1-0.1-0.1-0.1-0.2s0-0.2,0.1-0.2C41.3,43.8,41.3,43.8,41.4,43.8z"/>
	<path fill="#FFFFFF" d="M44.7,43.9v0.4h-2.2V44l1.5-1.6c0.1-0.1,0.2-0.2,0.3-0.4c0.1-0.1,0.1-0.2,0.1-0.4c0-0.1,0-0.3-0.1-0.4
		c-0.1-0.1-0.1-0.2-0.3-0.3C43.8,41,43.6,41,43.5,41c-0.1,0-0.3,0-0.4,0.1c-0.1,0.1-0.2,0.1-0.3,0.2s-0.1,0.2-0.1,0.4h-0.4
		c0-0.2,0-0.4,0.1-0.5c0.1-0.2,0.2-0.3,0.4-0.4c0.2-0.1,0.4-0.1,0.6-0.1c0.2,0,0.4,0,0.6,0.1c0.2,0.1,0.3,0.2,0.4,0.4
		c0.1,0.2,0.1,0.3,0.1,0.6c0,0.2,0,0.4-0.1,0.5c-0.1,0.2-0.2,0.3-0.4,0.5l-1.2,1.3H44.7z"/>
</g>
</svg>
