<?xml version="1.0" encoding="utf-8"?>
<!-- Generator: Adobe Illustrator 27.4.0, SVG Export Plug-In . SVG Version: 6.00 Build 0)  -->
<svg version="1.1" baseProfile="tiny" id="Layer_1" xmlns="http://www.w3.org/2000/svg" xmlns:xlink="http://www.w3.org/1999/xlink"
	 x="0px" y="0px" viewBox="0 0 320 50" overflow="visible" xml:space="preserve">
<g>
	<path fill="#193062" d="M87.9,7.9h1.7V11h3.1V7.9h1.7v8h-1.7v-3.2h-3.1v3.2h-1.7V7.9z"/>
	<path fill="#193062" d="M101.1,13.7h-3.9c0.2,0.5,0.7,0.8,1.3,0.8c0.5,0,0.9-0.3,1.2-0.6l1.3,0.8c-0.5,0.8-1.4,1.4-2.5,1.4
		c-1.7,0-2.9-1.3-2.9-2.9c0-1.7,1.2-2.9,2.8-2.9c1.7,0,2.8,1.2,2.8,2.9C101.2,13.3,101.2,13.5,101.1,13.7z M97.2,12.5h2.4
		c-0.2-0.5-0.6-0.8-1.2-0.8C97.8,11.7,97.4,12,97.2,12.5z"/>
	<path fill="#193062" d="M102.3,7.5h1.6v8.4h-1.6V7.5z"/>
	<path fill="#193062" d="M111.1,13.1c0,1.6-1.1,2.9-2.7,2.9c-0.5,0-1-0.2-1.4-0.4v2.6h-1.6v-7.9h1.6v0.3c0.4-0.3,0.9-0.4,1.4-0.4
		C110,10.2,111.1,11.5,111.1,13.1z M109.5,13.1c0-0.7-0.5-1.3-1.3-1.3c-0.8,0-1.3,0.6-1.3,1.3c0,0.7,0.5,1.3,1.3,1.3
		C108.9,14.4,109.5,13.9,109.5,13.1z"/>
	<path fill="#193062" d="M113,7.6c0.6,0,1,0.4,1,1c0,0.6-0.4,1-1,1c-0.6,0-1-0.5-1-1C112,8.1,112.4,7.6,113,7.6z M113.8,15.9h-1.6
		v-5.5h1.6V15.9z"/>
	<path fill="#193062" d="M120.4,12.4v3.5h-1.6v-3.1c0-0.5-0.4-0.9-0.9-0.9c-0.6,0-0.9,0.4-0.9,0.9v3.1h-1.6v-5.5h1.6v0.3
		c0.4-0.3,0.8-0.4,1.4-0.4C119.5,10.2,120.4,11.2,120.4,12.4z"/>
	<path fill="#193062" d="M127,10.4v5.4c0,1.5-1.1,2.6-2.8,2.6c-1.3,0-2.2-0.7-2.6-1.8l1.5-0.6c0.2,0.5,0.5,0.8,1.1,0.8
		c0.7,0,1.1-0.4,1.1-1.1v-0.4c-0.4,0.3-0.8,0.4-1.3,0.4c-1.5,0-2.6-1.2-2.6-2.7s1.1-2.7,2.6-2.7c0.5,0,1,0.2,1.4,0.5v-0.3H127z
		 M125.4,13c0-0.7-0.5-1.2-1.2-1.2c-0.7,0-1.2,0.5-1.2,1.2c0,0.6,0.5,1.1,1.2,1.1C124.9,14.1,125.4,13.6,125.4,13z"/>
	<path fill="#193062" d="M137.4,13.1c0,1.6-1.1,2.9-2.7,2.9c-0.5,0-1-0.2-1.4-0.4v2.6h-1.6v-7.9h1.6v0.3c0.4-0.3,0.9-0.4,1.4-0.4
		C136.2,10.2,137.4,11.5,137.4,13.1z M135.7,13.1c0-0.7-0.5-1.3-1.3-1.3c-0.8,0-1.3,0.6-1.3,1.3c0,0.7,0.5,1.3,1.3,1.3
		C135.2,14.4,135.7,13.9,135.7,13.1z"/>
	<path fill="#193062" d="M141.9,10.4V12h-0.8c-0.6,0-1.1,0.5-1.1,1.1v2.8h-1.6v-5.5h1.6v0.5c0.3-0.4,0.8-0.5,1.3-0.5H141.9z"/>
	<path fill="#193062" d="M145.4,10.2c1.7,0,2.9,1.3,2.9,2.9c0,1.6-1.2,2.9-2.9,2.9c-1.7,0-2.9-1.3-2.9-2.9
		C142.5,11.5,143.7,10.2,145.4,10.2z M145.4,14.4c0.7,0,1.3-0.6,1.3-1.3c0-0.7-0.5-1.3-1.3-1.3c-0.7,0-1.3,0.6-1.3,1.3
		C144.1,13.9,144.6,14.4,145.4,14.4z"/>
	<path fill="#193062" d="M151.2,10.4h1.7v1.6h-1.7v1.8c0,0.4,0.2,0.6,0.6,0.6h1.1v1.6h-1.4c-1.1,0-1.9-0.7-1.9-1.8v-2.1h-0.8v-0.8
		l1.5-1.9h0.9V10.4z"/>
	<path fill="#193062" d="M159.1,13.7h-3.9c0.2,0.5,0.7,0.8,1.3,0.8c0.5,0,0.9-0.3,1.2-0.6l1.3,0.8c-0.5,0.8-1.4,1.4-2.5,1.4
		c-1.7,0-2.9-1.3-2.9-2.9c0-1.7,1.2-2.9,2.8-2.9c1.7,0,2.8,1.2,2.8,2.9C159.2,13.3,159.1,13.5,159.1,13.7z M155.2,12.5h2.4
		c-0.2-0.5-0.6-0.8-1.2-0.8C155.8,11.7,155.3,12,155.2,12.5z"/>
	<path fill="#193062" d="M162.7,10.2c1.1,0,1.9,0.5,2.4,1.3l-1.3,0.9c-0.2-0.4-0.6-0.6-1.1-0.6c-0.7,0-1.3,0.6-1.3,1.3
		c0,0.7,0.5,1.3,1.3,1.3c0.5,0,0.8-0.3,1.1-0.6l1.3,0.9c-0.5,0.8-1.4,1.3-2.4,1.3c-1.7,0-2.9-1.3-2.9-2.9S161.1,10.2,162.7,10.2z"/>
	<path fill="#193062" d="M167.9,10.4h1.7v1.6h-1.7v1.8c0,0.4,0.2,0.6,0.6,0.6h1.1v1.6h-1.4c-1.1,0-1.9-0.7-1.9-1.8v-2.1h-0.8v-0.8
		l1.5-1.9h0.9V10.4z"/>
	<path fill="#193062" d="M178.5,10.4l-2.8,7.9h-1.7l0.9-2.5l-2-5.4h1.8l1.1,3l1.1-3H178.5z"/>
	<path fill="#193062" d="M181.6,10.2c1.7,0,2.9,1.3,2.9,2.9c0,1.6-1.2,2.9-2.9,2.9c-1.7,0-2.9-1.3-2.9-2.9
		C178.7,11.5,180,10.2,181.6,10.2z M181.6,14.4c0.7,0,1.3-0.6,1.3-1.3c0-0.7-0.5-1.3-1.3-1.3c-0.7,0-1.3,0.6-1.3,1.3
		C180.4,13.9,180.9,14.4,181.6,14.4z"/>
	<path fill="#193062" d="M190.7,10.4v5.5h-1.6v-0.3c-0.4,0.3-0.8,0.4-1.3,0.4c-1.2,0-2.2-0.9-2.2-2.2v-3.5h1.6v3.1
		c0,0.5,0.4,0.9,0.9,0.9c0.6,0,0.9-0.4,0.9-0.9v-3.1H190.7z"/>
	<path fill="#193062" d="M195.7,10.4V12h-0.8c-0.6,0-1.1,0.5-1.1,1.1v2.8h-1.6v-5.5h1.6v0.5c0.3-0.4,0.8-0.5,1.3-0.5H195.7z"/>
	<path fill="#193062" d="M200.3,11.9h-1.1v-1.6h1.1V9.3c0-1.1,0.7-1.7,1.8-1.7h1.2v1.6h-0.9c-0.3,0-0.5,0.2-0.5,0.4v0.8h1.4v1.6
		h-1.4v4h-1.6V11.9z"/>
	<path fill="#193062" d="M208.7,12.4v3.5h-1.6v-0.3c-0.3,0.3-0.7,0.4-1.4,0.4c-1.1,0-1.9-0.7-1.9-1.7c0-1.1,0.9-1.6,1.9-1.7l1.4-0.1
		v-0.1c0-0.4-0.4-0.7-0.8-0.7c-0.4,0-0.7,0.2-0.8,0.5H204c0.1-1.2,1-2,2.4-2C207.7,10.2,208.7,11.2,208.7,12.4z M207.1,14v-0.3
		l-1.1,0.1c-0.4,0-0.6,0.2-0.6,0.5c0,0.3,0.3,0.5,0.7,0.5C206.8,14.7,207.1,14.4,207.1,14z"/>
	<path fill="#193062" d="M218.2,12.3v3.6h-1.6v-3.3c0-0.4-0.3-0.8-0.8-0.8c-0.5,0-0.8,0.4-0.8,0.8v3.3h-1.6v-3.3
		c0-0.4-0.3-0.8-0.8-0.8c-0.5,0-0.8,0.4-0.8,0.8v3.3h-1.6v-5.5h1.6v0.3c0.3-0.2,0.8-0.4,1.2-0.4c0.6,0,1.1,0.2,1.4,0.6
		c0.4-0.4,0.9-0.6,1.6-0.6C217.3,10.2,218.2,11.1,218.2,12.3z"/>
	<path fill="#193062" d="M220.5,7.6c0.6,0,1,0.4,1,1c0,0.6-0.4,1-1,1s-1-0.5-1-1C219.5,8.1,219.9,7.6,220.5,7.6z M221.3,15.9h-1.6
		v-5.5h1.6V15.9z"/>
	<path fill="#193062" d="M222.7,7.5h1.6v8.4h-1.6V7.5z"/>
	<path fill="#193062" d="M230.8,10.4l-2.8,7.9h-1.7l0.9-2.5l-2-5.4h1.8l1.1,3l1.1-3H230.8z"/>
	<path fill="#193062" d="M233.3,8.7c0,0.1,0,0.3-0.1,0.4l-0.6,1.8h-0.9l0.3-1.3c-0.4-0.1-0.6-0.5-0.6-0.9c0-0.6,0.4-1,1-1
		S233.3,8.2,233.3,8.7z"/>
	<path fill="#193062" d="M236.1,14.6c0.4,0,0.7-0.2,0.7-0.4c0-0.2-0.1-0.3-0.4-0.3c-0.3,0-0.6,0-1-0.1c-1.1-0.2-1.6-0.8-1.6-1.6
		c0-1.1,0.9-1.9,2.2-1.9c1.3,0,2.2,0.8,2.2,1.9h-1.6c0-0.3-0.3-0.4-0.7-0.4c-0.4,0-0.7,0.2-0.7,0.4c0,0.2,0.1,0.2,0.4,0.3
		c0.4,0,0.6,0,1,0.1c1.1,0.1,1.6,0.8,1.6,1.6c0,1.1-0.9,1.9-2.3,1.9c-1.4,0-2.3-0.8-2.3-1.9h1.6C235.3,14.4,235.6,14.6,236.1,14.6z"
		/>
</g>
<g>
	<path fill="#193062" d="M88.3,24.9h-1.1v-1.6h1.1v-1.1c0-1.1,0.7-1.7,1.8-1.7h1.2v1.6h-0.9c-0.3,0-0.5,0.2-0.5,0.4v0.8h1.4v1.6H90
		v4h-1.6V24.9z"/>
	<path fill="#193062" d="M97.4,23.4v5.5h-1.6v-0.3C95.5,28.9,95,29,94.5,29c-1.2,0-2.2-0.9-2.2-2.2v-3.5H94v3.1
		c0,0.5,0.4,0.9,0.9,0.9s0.9-0.4,0.9-0.9v-3.1H97.4z"/>
	<path fill="#193062" d="M100.7,23.4h1.7v1.6h-1.7v1.8c0,0.4,0.2,0.6,0.6,0.6h1.1v1.6H101c-1.1,0-1.9-0.7-1.9-1.8v-2.1h-0.8v-0.8
		l1.5-1.9h0.9V23.4z"/>
	<path fill="#193062" d="M108.6,23.4v5.5H107v-0.3c-0.4,0.3-0.8,0.4-1.3,0.4c-1.2,0-2.2-0.9-2.2-2.2v-3.5h1.6v3.1
		c0,0.5,0.4,0.9,0.9,0.9s0.9-0.4,0.9-0.9v-3.1H108.6z"/>
	<path fill="#193062" d="M113.6,23.4V25h-0.8c-0.6,0-1.1,0.5-1.1,1.1v2.8H110v-5.5h1.6v0.5c0.3-0.4,0.8-0.5,1.3-0.5H113.6z"/>
	<path fill="#193062" d="M119.6,26.7h-3.9c0.2,0.5,0.7,0.8,1.3,0.8c0.5,0,0.9-0.3,1.2-0.6l1.3,0.8c-0.5,0.8-1.4,1.4-2.5,1.4
		c-1.7,0-2.9-1.3-2.9-2.9c0-1.7,1.2-2.9,2.8-2.9c1.7,0,2.8,1.2,2.8,2.9C119.7,26.3,119.7,26.5,119.6,26.7z M115.7,25.5h2.4
		c-0.2-0.5-0.6-0.8-1.2-0.8C116.3,24.7,115.9,25,115.7,25.5z"/>
	<path fill="#193062" d="M126.4,23.2c1.1,0,1.9,0.5,2.4,1.3l-1.3,0.9c-0.2-0.4-0.6-0.6-1.1-0.6c-0.7,0-1.3,0.6-1.3,1.3
		c0,0.7,0.5,1.3,1.3,1.3c0.5,0,0.8-0.3,1.1-0.6l1.3,0.9c-0.5,0.8-1.4,1.3-2.4,1.3c-1.7,0-2.9-1.3-2.9-2.9
		C123.6,24.5,124.8,23.2,126.4,23.2z"/>
	<path fill="#193062" d="M132.2,23.2c1.7,0,2.9,1.3,2.9,2.9c0,1.6-1.2,2.9-2.9,2.9c-1.7,0-2.9-1.3-2.9-2.9
		C129.3,24.5,130.5,23.2,132.2,23.2z M132.2,27.4c0.7,0,1.3-0.6,1.3-1.3c0-0.7-0.5-1.3-1.3-1.3c-0.7,0-1.3,0.6-1.3,1.3
		C130.9,26.9,131.5,27.4,132.2,27.4z"/>
	<path fill="#193062" d="M141.3,23.4v5.5h-1.6v-0.3c-0.4,0.3-0.8,0.4-1.3,0.4c-1.2,0-2.2-0.9-2.2-2.2v-3.5h1.6v3.1
		c0,0.5,0.4,0.9,0.9,0.9s0.9-0.4,0.9-0.9v-3.1H141.3z"/>
	<path fill="#193062" d="M142.7,20.5h1.6v8.4h-1.6V20.5z"/>
	<path fill="#193062" d="M151.2,20.5v8.4h-1.6v-0.3c-0.4,0.3-0.9,0.5-1.4,0.5c-1.6,0-2.7-1.3-2.7-2.9c0-1.6,1.1-2.9,2.7-2.9
		c0.5,0,1,0.2,1.4,0.4v-3.1H151.2z M149.6,26.1c0-0.7-0.5-1.3-1.3-1.3c-0.7,0-1.3,0.6-1.3,1.3c0,0.7,0.5,1.3,1.3,1.3
		C149.1,27.4,149.6,26.9,149.6,26.1z"/>
	<path fill="#193062" d="M157.8,27.6c0.4,0,0.7-0.2,0.7-0.4c0-0.2-0.1-0.3-0.4-0.3c-0.3,0-0.6,0-1-0.1c-1.1-0.2-1.6-0.8-1.6-1.6
		c0-1.1,0.9-1.9,2.2-1.9c1.3,0,2.2,0.8,2.2,1.9h-1.6c0-0.3-0.3-0.4-0.7-0.4c-0.4,0-0.7,0.2-0.7,0.4c0,0.2,0.1,0.2,0.4,0.3
		c0.4,0,0.6,0,1,0.1c1.1,0.1,1.6,0.8,1.6,1.6c0,1.1-0.9,1.9-2.3,1.9c-1.4,0-2.3-0.8-2.3-1.9h1.6C157,27.4,157.3,27.6,157.8,27.6z"/>
	<path fill="#193062" d="M162.9,23.4h1.7v1.6h-1.7v1.8c0,0.4,0.2,0.6,0.6,0.6h1.1v1.6h-1.4c-1.1,0-1.9-0.7-1.9-1.8v-2.1h-0.8v-0.8
		l1.5-1.9h0.9V23.4z"/>
	<path fill="#193062" d="M170.3,25.4v3.5h-1.6v-0.3c-0.3,0.3-0.7,0.4-1.4,0.4c-1.1,0-1.9-0.7-1.9-1.7c0-1.1,0.9-1.6,1.9-1.7l1.4-0.1
		v-0.1c0-0.4-0.4-0.7-0.8-0.7c-0.4,0-0.7,0.2-0.8,0.5h-1.6c0.1-1.2,1-2,2.4-2C169.4,23.2,170.3,24.2,170.3,25.4z M168.7,27v-0.3
		l-1.1,0.1c-0.4,0-0.6,0.2-0.6,0.5c0,0.3,0.3,0.5,0.7,0.5C168.4,27.7,168.7,27.4,168.7,27z"/>
	<path fill="#193062" d="M175.3,23.4V25h-0.8c-0.6,0-1.1,0.5-1.1,1.1v2.8h-1.6v-5.5h1.6v0.5c0.3-0.4,0.8-0.5,1.3-0.5H175.3z"/>
	<path fill="#193062" d="M178.2,23.4h1.7v1.6h-1.7v1.8c0,0.4,0.2,0.6,0.6,0.6h1.1v1.6h-1.4c-1.1,0-1.9-0.7-1.9-1.8v-2.1h-0.8v-0.8
		l1.5-1.9h0.9V23.4z"/>
	<path fill="#193062" d="M191.9,23.4l-1.8,5.5h-1.7l-0.7-2.3l-0.7,2.3h-1.7l-1.8-5.5h1.8l1,3.1l1-3.1h1.1l0.9,3l1-3H191.9z"/>
	<path fill="#193062" d="M193.6,20.6c0.6,0,1,0.4,1,1c0,0.6-0.4,1-1,1s-1-0.5-1-1C192.5,21.1,193,20.6,193.6,20.6z M194.4,28.9h-1.6
		v-5.5h1.6V28.9z"/>
	<path fill="#193062" d="M197.7,23.4h1.7v1.6h-1.7v1.8c0,0.4,0.2,0.6,0.6,0.6h1.1v1.6h-1.4c-1.1,0-1.9-0.7-1.9-1.8v-2.1h-0.8v-0.8
		l1.5-1.9h0.9V23.4z"/>
	<path fill="#193062" d="M205.6,25.5v3.5H204v-3.1c0-0.5-0.4-1-0.9-1c-0.6,0-1,0.4-1,1v3.1h-1.6v-8.4h1.6v3.1
		c0.4-0.3,0.8-0.4,1.3-0.4C204.7,23.2,205.6,24.2,205.6,25.5z"/>
</g>
<g>
	<path fill="#193062" d="M89.6,35.6h-2.3v-1.7h6.3v1.7h-2.3v6.4h-1.7V35.6z"/>
	<path fill="#193062" d="M97.2,36.4V38h-0.8c-0.6,0-1.1,0.5-1.1,1.1v2.8h-1.6v-5.5h1.6v0.5c0.3-0.4,0.8-0.5,1.3-0.5H97.2z"/>
	<path fill="#193062" d="M103.2,36.4v5.5h-1.6v-0.3c-0.4,0.3-0.8,0.4-1.3,0.4c-1.2,0-2.2-0.9-2.2-2.2v-3.5h1.6v3.1
		c0,0.5,0.4,0.9,0.9,0.9s0.9-0.4,0.9-0.9v-3.1H103.2z"/>
	<path fill="#193062" d="M107.3,35.4c-0.7,0-1.2,0.4-1.2,0.8c0,0.3,0.2,0.5,0.5,0.6c0.5,0.2,1.3,0.1,2,0.3c1,0.3,1.7,1.1,1.7,2.2
		c0,1.5-1.2,2.7-3,2.7c-1.7,0-3-1.1-3-2.6h1.7c0,0.6,0.6,1,1.3,1c0.8,0,1.3-0.4,1.3-0.9c0-0.4-0.2-0.6-0.5-0.7
		c-0.5-0.2-1.3-0.1-2.1-0.3c-1.1-0.3-1.6-1.1-1.6-2.2c0-1.5,1.2-2.6,2.9-2.6c1.7,0,2.9,1,2.9,2.5h-1.7
		C108.5,35.7,108,35.4,107.3,35.4z"/>
	<path fill="#193062" d="M113.4,36.4h1.7v1.6h-1.7v1.8c0,0.4,0.2,0.6,0.6,0.6h1.1v1.6h-1.4c-1.1,0-1.9-0.7-1.9-1.8v-2.1h-0.8v-0.8
		l1.5-1.9h0.9V36.4z"/>
	<path fill="#193062" d="M120.8,38.4v3.5h-1.6v-0.3c-0.3,0.3-0.7,0.4-1.4,0.4c-1.1,0-1.9-0.7-1.9-1.7c0-1.1,0.9-1.6,1.9-1.7l1.4-0.1
		v-0.1c0-0.4-0.4-0.7-0.8-0.7c-0.4,0-0.7,0.2-0.8,0.5H116c0.1-1.2,1-2,2.4-2C119.8,36.2,120.8,37.2,120.8,38.4z M119.2,40v-0.3
		l-1.1,0.1c-0.4,0-0.6,0.2-0.6,0.5c0,0.3,0.3,0.5,0.7,0.5C118.8,40.7,119.2,40.4,119.2,40z"/>
	<path fill="#193062" d="M127.3,36.4v5.4c0,1.5-1.1,2.6-2.8,2.6c-1.3,0-2.2-0.7-2.6-1.8l1.5-0.6c0.2,0.5,0.5,0.8,1.1,0.8
		c0.7,0,1.1-0.4,1.1-1.1v-0.4c-0.4,0.3-0.8,0.4-1.3,0.4c-1.5,0-2.6-1.2-2.6-2.7s1.1-2.7,2.6-2.7c0.5,0,1,0.2,1.4,0.5v-0.3H127.3z
		 M125.8,39c0-0.7-0.5-1.2-1.2-1.2c-0.7,0-1.2,0.5-1.2,1.2c0,0.6,0.5,1.1,1.2,1.1C125.3,40.1,125.8,39.6,125.8,39z"/>
	<path fill="#193062" d="M133.9,39.7h-3.9c0.2,0.5,0.7,0.8,1.3,0.8c0.5,0,0.9-0.3,1.2-0.6l1.3,0.8c-0.5,0.8-1.4,1.4-2.5,1.4
		c-1.7,0-2.9-1.3-2.9-2.9c0-1.7,1.2-2.9,2.8-2.9c1.7,0,2.8,1.2,2.8,2.9C134,39.3,134,39.5,133.9,39.7z M130,38.5h2.4
		c-0.2-0.5-0.6-0.8-1.2-0.8C130.6,37.7,130.2,38,130,38.5z"/>
	<path fill="#193062" d="M135.6,34.8h-0.9v-0.9h2.7v0.9h-0.9V37h-0.9V34.8z M137.9,33.9h0.9l0.7,1.5l0.7-1.5h0.9V37h-0.9v-1.4
		l-0.7,1.5l-0.7-1.5V37h-0.9V33.9z"/>
	<path fill="#193062" d="M145.3,33.9h1.7v6.4h4.6v1.7h-6.3V33.9z"/>
	<path fill="#193062" d="M153.5,33.6c0.6,0,1,0.4,1,1c0,0.6-0.4,1-1,1c-0.6,0-1-0.5-1-1C152.5,34.1,152.9,33.6,153.5,33.6z
		 M154.3,41.9h-1.6v-5.5h1.6V41.9z"/>
	<path fill="#193062" d="M156.3,37.9h-1.1v-1.6h1.1v-1.1c0-1.1,0.7-1.7,1.8-1.7h1.2v1.6h-0.9c-0.3,0-0.5,0.2-0.5,0.4v0.8h1.4v1.6
		h-1.4v4h-1.6V37.9z"/>
	<path fill="#193062" d="M165.3,39.7h-3.9c0.2,0.5,0.7,0.8,1.3,0.8c0.5,0,0.9-0.3,1.2-0.6l1.3,0.8c-0.5,0.8-1.4,1.4-2.5,1.4
		c-1.7,0-2.9-1.3-2.9-2.9c0-1.7,1.2-2.9,2.8-2.9c1.7,0,2.8,1.2,2.8,2.9C165.4,39.3,165.3,39.5,165.3,39.7z M161.4,38.5h2.4
		c-0.2-0.5-0.6-0.8-1.2-0.8C162,37.7,161.5,38,161.4,38.5z"/>
	<path fill="#193062" d="M169.7,33.9h1.7v8h-1.7V33.9z"/>
	<path fill="#193062" d="M178.1,38.4v3.5h-1.6v-3.1c0-0.5-0.4-0.9-0.9-0.9c-0.6,0-0.9,0.4-0.9,0.9v3.1H173v-5.5h1.6v0.3
		c0.4-0.3,0.8-0.4,1.4-0.4C177.2,36.2,178.1,37.2,178.1,38.4z"/>
	<path fill="#193062" d="M181.5,40.6c0.4,0,0.7-0.2,0.7-0.4c0-0.2-0.1-0.3-0.4-0.3c-0.3,0-0.6,0-1-0.1c-1.1-0.2-1.6-0.8-1.6-1.6
		c0-1.1,0.9-1.9,2.2-1.9c1.3,0,2.2,0.8,2.2,1.9h-1.6c0-0.3-0.3-0.4-0.7-0.4c-0.4,0-0.7,0.2-0.7,0.4c0,0.2,0.1,0.2,0.4,0.3
		c0.4,0,0.6,0,1,0.1c1.1,0.1,1.6,0.8,1.6,1.6c0,1.1-0.9,1.9-2.3,1.9c-1.4,0-2.3-0.8-2.3-1.9h1.6C180.8,40.4,181.1,40.6,181.5,40.6z"
		/>
	<path fill="#193062" d="M190,36.4v5.5h-1.6v-0.3c-0.4,0.3-0.8,0.4-1.3,0.4c-1.2,0-2.2-0.9-2.2-2.2v-3.5h1.6v3.1
		c0,0.5,0.4,0.9,0.9,0.9c0.6,0,0.9-0.4,0.9-0.9v-3.1H190z"/>
	<path fill="#193062" d="M194.9,36.4V38h-0.8c-0.6,0-1.1,0.5-1.1,1.1v2.8h-1.6v-5.5h1.6v0.5c0.3-0.4,0.8-0.5,1.3-0.5H194.9z"/>
	<path fill="#193062" d="M200.3,38.4v3.5h-1.6v-0.3c-0.3,0.3-0.7,0.4-1.4,0.4c-1.1,0-1.9-0.7-1.9-1.7c0-1.1,0.9-1.6,1.9-1.7l1.4-0.1
		v-0.1c0-0.4-0.4-0.7-0.8-0.7c-0.4,0-0.7,0.2-0.8,0.5h-1.6c0.1-1.2,1-2,2.4-2C199.3,36.2,200.3,37.2,200.3,38.4z M198.7,40v-0.3
		l-1.1,0.1c-0.4,0-0.6,0.2-0.6,0.5c0,0.3,0.3,0.5,0.7,0.5C198.3,40.7,198.7,40.4,198.7,40z"/>
	<path fill="#193062" d="M206.8,38.4v3.5h-1.6v-3.1c0-0.5-0.4-0.9-0.9-0.9s-0.9,0.4-0.9,0.9v3.1h-1.6v-5.5h1.6v0.3
		c0.4-0.3,0.8-0.4,1.4-0.4C205.9,36.2,206.8,37.2,206.8,38.4z"/>
	<path fill="#193062" d="M210.8,36.2c1.1,0,1.9,0.5,2.4,1.3l-1.3,0.9c-0.2-0.4-0.6-0.6-1.1-0.6c-0.7,0-1.3,0.6-1.3,1.3
		s0.5,1.3,1.3,1.3c0.5,0,0.8-0.3,1.1-0.6l1.3,0.9c-0.5,0.8-1.4,1.3-2.4,1.3c-1.7,0-2.9-1.3-2.9-2.9S209.1,36.2,210.8,36.2z"/>
	<path fill="#193062" d="M219.2,39.7h-3.9c0.2,0.5,0.7,0.8,1.3,0.8c0.5,0,0.9-0.3,1.2-0.6l1.3,0.8c-0.5,0.8-1.4,1.4-2.5,1.4
		c-1.7,0-2.9-1.3-2.9-2.9c0-1.7,1.2-2.9,2.8-2.9c1.7,0,2.8,1.2,2.8,2.9C219.2,39.3,219.2,39.5,219.2,39.7z M215.3,38.5h2.4
		c-0.2-0.5-0.6-0.8-1.2-0.8C215.8,37.7,215.4,38,215.3,38.5z"/>
	<path fill="#193062" d="M221.1,40c0.6,0,1,0.4,1,1c0,0.6-0.4,1-1,1s-1-0.5-1-1C220.1,40.4,220.5,40,221.1,40z"/>
</g>
</svg>
