<?xml version="1.0" encoding="utf-8"?>
<!-- Generator: Adobe Illustrator 27.4.0, SVG Export Plug-In . SVG Version: 6.00 Build 0)  -->
<svg version="1.1" baseProfile="tiny" id="Layer_1" xmlns="http://www.w3.org/2000/svg" xmlns:xlink="http://www.w3.org/1999/xlink"
	 x="0px" y="0px" viewBox="0 0 320 50" overflow="visible" xml:space="preserve">
<rect x="256.8" y="24.5" fill="#FAE07E" width="57.8" height="16.3"/>
<g>
	<path fill="#193062" d="M267.7,32.6v0.2c0,0.5-0.1,0.9-0.3,1.2c-0.2,0.4-0.5,0.6-0.8,0.8c-0.4,0.2-0.8,0.3-1.2,0.3
		c-0.5,0-0.9-0.1-1.2-0.3c-0.4-0.2-0.6-0.5-0.8-0.9c-0.2-0.4-0.3-0.8-0.3-1.3c0-0.5,0.1-0.9,0.3-1.2c0.2-0.4,0.5-0.7,0.9-0.9
		c0.4-0.2,0.8-0.3,1.3-0.3c0.3,0,0.6,0,0.9,0.1s0.5,0.2,0.7,0.4c0.2,0.2,0.4,0.4,0.5,0.6l-0.8,0.5c-0.1-0.2-0.3-0.4-0.5-0.6
		c-0.2-0.1-0.5-0.2-0.8-0.2c-0.3,0-0.5,0.1-0.8,0.2s-0.4,0.3-0.5,0.5c-0.1,0.2-0.2,0.5-0.2,0.8c0,0.3,0.1,0.6,0.2,0.8
		c0.1,0.2,0.3,0.4,0.5,0.5c0.2,0.1,0.5,0.2,0.8,0.2c0.3,0,0.6-0.1,0.8-0.2c0.2-0.1,0.4-0.3,0.5-0.6h-1.6v-0.9H267.7z"/>
	<path fill="#193062" d="M268.6,30.3h3.7v0.9h-2.7v1h1.5v0.9h-1.5v1h2.7v0.9h-3.7V30.3z"/>
	<path fill="#193062" d="M274.3,31.3h-1.4v-0.9h3.7v0.9h-1.4v3.8h-0.9V31.3z"/>
	<path fill="#193062" d="M281.5,34.4h-1.7l-0.2,0.7h-0.9l1.6-4.7h1l1.5,4.7h-0.9L281.5,34.4z M281.2,33.5l-0.6-1.8l-0.6,1.8H281.2z"
		/>
	<path fill="#193062" d="M289.7,34.2v0.9h-0.4l-0.6-0.5c-0.2,0.2-0.4,0.3-0.7,0.4s-0.5,0.1-0.8,0.1c-0.5,0-0.9-0.1-1.3-0.3
		c-0.4-0.2-0.7-0.5-0.9-0.9c-0.2-0.4-0.3-0.8-0.3-1.2c0-0.5,0.1-0.9,0.3-1.2c0.2-0.4,0.5-0.7,0.9-0.9c0.4-0.2,0.8-0.3,1.3-0.3
		s0.9,0.1,1.3,0.3c0.4,0.2,0.7,0.5,0.9,0.9c0.2,0.4,0.3,0.8,0.3,1.2c0,0.4-0.1,0.8-0.3,1.2L289.7,34.2z M288,34l-0.5-0.3l0.6-0.7
		l0.5,0.4c0.1-0.2,0.1-0.4,0.1-0.6c0-0.3-0.1-0.5-0.2-0.8c-0.1-0.2-0.3-0.4-0.5-0.5s-0.5-0.2-0.8-0.2c-0.3,0-0.5,0.1-0.8,0.2
		s-0.4,0.3-0.5,0.5c-0.1,0.2-0.2,0.5-0.2,0.8s0.1,0.5,0.2,0.8s0.3,0.4,0.5,0.5s0.5,0.2,0.8,0.2C287.5,34.2,287.7,34.2,288,34z"/>
	<path fill="#193062" d="M294.3,33.3c0,0.3-0.1,0.7-0.2,0.9s-0.4,0.5-0.7,0.7c-0.3,0.2-0.6,0.2-1,0.2c-0.4,0-0.7-0.1-1-0.2
		c-0.3-0.2-0.5-0.4-0.7-0.7s-0.2-0.6-0.2-0.9v-2.9h0.9v2.9c0,0.2,0,0.3,0.1,0.5s0.2,0.3,0.3,0.4c0.1,0.1,0.3,0.1,0.5,0.1
		c0.2,0,0.3,0,0.5-0.1c0.1-0.1,0.3-0.2,0.3-0.4c0.1-0.1,0.1-0.3,0.1-0.5v-2.9h0.9V33.3z"/>
	<path fill="#193062" d="M297.6,30.3c0.5,0,0.9,0.1,1.3,0.3c0.4,0.2,0.7,0.5,0.9,0.9c0.2,0.4,0.3,0.8,0.3,1.2c0,0.5-0.1,0.9-0.3,1.2
		c-0.2,0.4-0.5,0.7-0.9,0.9c-0.4,0.2-0.8,0.3-1.3,0.3c-0.5,0-0.9-0.1-1.3-0.3c-0.4-0.2-0.7-0.5-0.9-0.9c-0.2-0.4-0.3-0.8-0.3-1.2
		c0-0.5,0.1-0.9,0.3-1.2c0.2-0.4,0.5-0.7,0.9-0.9C296.7,30.4,297.1,30.3,297.6,30.3z M297.6,34.2c0.3,0,0.5-0.1,0.8-0.2
		s0.4-0.3,0.5-0.5c0.1-0.2,0.2-0.5,0.2-0.8s-0.1-0.5-0.2-0.8c-0.1-0.2-0.3-0.4-0.5-0.5s-0.5-0.2-0.8-0.2c-0.3,0-0.5,0.1-0.8,0.2
		s-0.4,0.3-0.5,0.5c-0.1,0.2-0.2,0.5-0.2,0.8s0.1,0.5,0.2,0.8s0.3,0.4,0.5,0.5S297.3,34.2,297.6,34.2z"/>
	<path fill="#193062" d="M301.9,31.3h-1.4v-0.9h3.7v0.9h-1.4v3.8h-0.9V31.3z"/>
	<path fill="#193062" d="M304.9,30.3h3.7v0.9h-2.7v1h1.5v0.9h-1.5v1h2.7v0.9h-3.7V30.3z"/>
</g>
</svg>
