<?xml version="1.0" encoding="utf-8"?>
<!-- Generator: Adobe Illustrator 27.4.0, SVG Export Plug-In . SVG Version: 6.00 Build 0)  -->
<svg version="1.1" baseProfile="tiny" id="Layer_1" xmlns="http://www.w3.org/2000/svg" xmlns:xlink="http://www.w3.org/1999/xlink"
	 x="0px" y="0px" viewBox="0 0 320 50" overflow="visible" xml:space="preserve">
<g>
	<path fill="#FFFFFF" d="M10.9,42.7c0,0.4-0.1,0.8-0.3,1.1c-0.2,0.3-0.4,0.6-0.8,0.8s-0.7,0.3-1.1,0.3c-0.4,0-0.8-0.1-1.1-0.3
		c-0.3-0.2-0.6-0.5-0.8-0.8S6.6,43,6.6,42.6c0-0.4,0.1-0.8,0.3-1.2c0.2-0.3,0.5-0.6,0.8-0.8s0.7-0.3,1.1-0.3c0.4,0,0.8,0.1,1.1,0.3
		s0.6,0.4,0.8,0.8l-0.4,0.2c-0.2-0.3-0.4-0.5-0.6-0.6c-0.3-0.2-0.6-0.2-0.9-0.2c-0.3,0-0.6,0.1-0.9,0.2c-0.3,0.2-0.5,0.4-0.6,0.6
		s-0.2,0.6-0.2,0.9c0,0.3,0.1,0.7,0.2,0.9s0.4,0.5,0.6,0.6s0.6,0.2,0.9,0.2c0.3,0,0.5-0.1,0.8-0.2s0.4-0.2,0.6-0.4s0.3-0.4,0.3-0.6
		H8.6v-0.4H10.9z"/>
	<path fill="#FFFFFF" d="M11.7,40.4h3.2v0.4h-2.8v1.5h1.6v0.4h-1.6v1.5h2.8v0.4h-3.2V40.4z"/>
	<path fill="#FFFFFF" d="M19.1,40.4v4.4h-0.5l-2.4-3.6v3.6h-0.5v-4.4h0.5l2.4,3.6v-3.6H19.1z"/>
	<path fill="#FFFFFF" d="M21.3,42.8v0.4H20v-0.4H21.3z"/>
	<path fill="#FFFFFF" d="M24.9,43.4c0,0.3-0.1,0.5-0.2,0.7s-0.3,0.4-0.5,0.5c-0.2,0.1-0.5,0.2-0.7,0.2c-0.3,0-0.5-0.1-0.7-0.2
		c-0.2-0.1-0.4-0.3-0.5-0.5s-0.2-0.4-0.2-0.7h0.5c0,0.2,0,0.3,0.1,0.5c0.1,0.1,0.2,0.3,0.3,0.3c0.1,0.1,0.3,0.1,0.5,0.1
		c0.2,0,0.4,0,0.5-0.1c0.1-0.1,0.3-0.2,0.3-0.3c0.1-0.1,0.1-0.3,0.1-0.5s0-0.3-0.1-0.5s-0.2-0.3-0.3-0.3c-0.1-0.1-0.3-0.1-0.5-0.1
		h-1.2l0.3-2.1h2.2v0.4H23L22.8,42h0.7c0.3,0,0.5,0.1,0.7,0.2s0.4,0.3,0.5,0.5S24.9,43.2,24.9,43.4z"/>
	<path fill="#FFFFFF" d="M28.7,43.4c0,0.3-0.1,0.5-0.2,0.7s-0.3,0.4-0.5,0.5s-0.5,0.2-0.7,0.2c-0.3,0-0.5-0.1-0.7-0.2
		s-0.4-0.3-0.5-0.5s-0.2-0.5-0.2-0.7c0-0.2,0-0.3,0.1-0.5s0.1-0.3,0.2-0.5l1.3-2H28l-1.1,1.7c0.1,0,0.3,0,0.4,0
		c0.3,0,0.5,0.1,0.7,0.2c0.2,0.1,0.4,0.3,0.5,0.5C28.6,42.9,28.7,43.1,28.7,43.4z M28.2,43.4c0-0.2,0-0.4-0.1-0.5s-0.2-0.3-0.4-0.3
		c-0.2-0.1-0.3-0.1-0.5-0.1c-0.2,0-0.4,0-0.5,0.1c-0.2,0.1-0.3,0.2-0.4,0.3s-0.1,0.3-0.1,0.5c0,0.2,0,0.4,0.1,0.5s0.2,0.3,0.4,0.3
		s0.3,0.1,0.5,0.1s0.4,0,0.5-0.1s0.3-0.2,0.4-0.3S28.2,43.6,28.2,43.4z"/>
	<path fill="#FFFFFF" d="M30.4,40.9l-1.2,0.7v-0.5l1.2-0.7h0.5v4.4h-0.5V40.9z"/>
	<path fill="#FFFFFF" d="M35.2,42.9v0.4h-0.8v1.4h-0.5v-1.4h-2V43l1.9-2.6h0.5v2.6H35.2z M33.9,42.9V41l-1.4,1.9H33.9z"/>
	<path fill="#FFFFFF" d="M38.4,43.6c0,0.2-0.1,0.5-0.2,0.6c-0.1,0.2-0.3,0.3-0.5,0.5c-0.2,0.1-0.4,0.2-0.7,0.2
		c-0.3,0-0.5-0.1-0.7-0.2s-0.4-0.3-0.5-0.5s-0.2-0.4-0.2-0.6h0.5c0,0.2,0,0.3,0.1,0.4s0.2,0.2,0.3,0.3c0.1,0.1,0.3,0.1,0.5,0.1
		c0.2,0,0.3,0,0.5-0.1s0.2-0.2,0.3-0.3s0.1-0.3,0.1-0.4c0-0.2,0-0.3-0.1-0.4c-0.1-0.1-0.2-0.2-0.3-0.3s-0.3-0.1-0.4-0.1h-0.4v-0.4
		H37c0.2,0,0.3,0,0.4-0.1s0.2-0.2,0.3-0.3s0.1-0.2,0.1-0.4c0-0.2,0-0.3-0.1-0.4s-0.2-0.2-0.3-0.3s-0.3-0.1-0.4-0.1
		c-0.2,0-0.3,0-0.4,0.1s-0.2,0.2-0.3,0.3c-0.1,0.1-0.1,0.2-0.1,0.4h-0.5c0-0.2,0.1-0.4,0.2-0.6c0.1-0.2,0.3-0.3,0.4-0.4
		c0.2-0.1,0.4-0.2,0.7-0.2c0.2,0,0.5,0.1,0.7,0.2c0.2,0.1,0.3,0.2,0.4,0.4s0.2,0.4,0.2,0.6c0,0.2,0,0.4-0.1,0.6s-0.2,0.3-0.4,0.4
		c0.2,0.1,0.3,0.2,0.4,0.4S38.4,43.3,38.4,43.6z"/>
	<path fill="#FFFFFF" d="M39.4,41.5c0-0.2,0.1-0.4,0.2-0.6s0.3-0.3,0.5-0.4s0.4-0.2,0.7-0.2s0.5,0.1,0.7,0.2s0.4,0.2,0.5,0.4
		s0.2,0.4,0.2,0.6c0,0.3,0,0.6,0,1c0,0.4,0,0.8,0,1.1c0,0.2-0.1,0.4-0.2,0.6s-0.3,0.3-0.5,0.4s-0.4,0.2-0.7,0.2s-0.5-0.1-0.7-0.2
		s-0.4-0.2-0.5-0.4s-0.2-0.4-0.2-0.6c0-0.3,0-0.6,0-1.1C39.3,42.2,39.3,41.8,39.4,41.5z M39.8,43.6c0,0.2,0.1,0.3,0.1,0.4
		s0.2,0.2,0.3,0.3s0.3,0.1,0.4,0.1s0.3,0,0.4-0.1s0.2-0.2,0.3-0.3s0.1-0.3,0.1-0.4c0-0.1,0-0.2,0-0.4s0-0.4,0-0.6s0-0.5,0-0.6
		s0-0.3,0-0.4c0-0.2-0.1-0.3-0.1-0.4s-0.2-0.2-0.3-0.3s-0.3-0.1-0.4-0.1s-0.3,0-0.4,0.1S40,41,40,41.1s-0.1,0.3-0.1,0.4
		c0,0.1,0,0.2,0,0.4s0,0.4,0,0.6s0,0.5,0,0.6S39.8,43.5,39.8,43.6z"/>
	<path fill="#FFFFFF" d="M43.1,41.5c0-0.2,0.1-0.4,0.2-0.6s0.3-0.3,0.5-0.4s0.4-0.2,0.7-0.2s0.5,0.1,0.7,0.2s0.4,0.2,0.5,0.4
		s0.2,0.4,0.2,0.6c0,0.3,0,0.6,0,1c0,0.4,0,0.8,0,1.1c0,0.2-0.1,0.4-0.2,0.6s-0.3,0.3-0.5,0.4s-0.4,0.2-0.7,0.2s-0.5-0.1-0.7-0.2
		s-0.4-0.2-0.5-0.4s-0.2-0.4-0.2-0.6c0-0.3,0-0.6,0-1.1C43.1,42.2,43.1,41.8,43.1,41.5z M43.6,43.6c0,0.2,0.1,0.3,0.1,0.4
		s0.2,0.2,0.3,0.3s0.3,0.1,0.4,0.1s0.3,0,0.4-0.1s0.2-0.2,0.3-0.3s0.1-0.3,0.1-0.4c0-0.1,0-0.2,0-0.4s0-0.4,0-0.6s0-0.5,0-0.6
		s0-0.3,0-0.4c0-0.2-0.1-0.3-0.1-0.4s-0.2-0.2-0.3-0.3s-0.3-0.1-0.4-0.1s-0.3,0-0.4,0.1s-0.2,0.2-0.3,0.3s-0.1,0.3-0.1,0.4
		c0,0.1,0,0.2,0,0.4s0,0.4,0,0.6s0,0.5,0,0.6S43.6,43.5,43.6,43.6z"/>
	<path fill="#FFFFFF" d="M47.1,44.1c0.1,0,0.2,0,0.2,0.1s0.1,0.1,0.1,0.2s0,0.2-0.1,0.2c-0.1,0.1-0.1,0.1-0.2,0.1s-0.2,0-0.2-0.1
		c-0.1-0.1-0.1-0.1-0.1-0.2s0-0.2,0.1-0.2S47,44.1,47.1,44.1z"/>
	<path fill="#FFFFFF" d="M49.3,40.9l-1.2,0.7v-0.5l1.2-0.7h0.5v4.4h-0.5V40.9z"/>
</g>
</svg>
