<?xml version="1.0" encoding="utf-8"?>
<!-- Generator: Adobe Illustrator 27.4.0, SVG Export Plug-In . SVG Version: 6.00 Build 0)  -->
<svg version="1.1" baseProfile="tiny" id="Layer_1" xmlns="http://www.w3.org/2000/svg" xmlns:xlink="http://www.w3.org/1999/xlink"
	 x="0px" y="0px" viewBox="0 0 320 50" overflow="visible" xml:space="preserve">
<g>
	<path fill="#193062" d="M87.7,13.7h-3.1l-0.4,1.2h-1.8L85.2,6h1.9l2.8,8.8h-1.9L87.7,13.7z M87.1,11.9l-1-3l-1,3H87.1z"/>
	<path fill="#193062" d="M97.1,11.8c0,1.8-1.2,3.1-3,3.1c-0.6,0-1.1-0.2-1.5-0.5v2.9h-1.8V8.8h1.7v0.3c0.4-0.3,0.9-0.5,1.5-0.5
		C95.9,8.6,97.1,10,97.1,11.8z M95.4,11.8c0-0.8-0.6-1.4-1.4-1.4c-0.8,0-1.4,0.6-1.4,1.4c0,0.8,0.6,1.4,1.4,1.4
		C94.8,13.2,95.4,12.6,95.4,11.8z"/>
	<path fill="#193062" d="M104.6,11.8c0,1.8-1.2,3.1-3,3.1c-0.6,0-1.1-0.2-1.5-0.5v2.9h-1.8V8.8h1.7v0.3c0.4-0.3,0.9-0.5,1.5-0.5
		C103.4,8.6,104.6,10,104.6,11.8z M102.8,11.8c0-0.8-0.6-1.4-1.4-1.4c-0.8,0-1.4,0.6-1.4,1.4c0,0.8,0.6,1.4,1.4,1.4
		C102.3,13.2,102.8,12.6,102.8,11.8z"/>
	<path fill="#193062" d="M105.8,5.7h1.8v9.1h-1.8V5.7z"/>
	<path fill="#193062" d="M114.5,8.8l-3.1,8.6h-1.9l1-2.7l-2.1-5.9h1.9l1.2,3.3l1.2-3.3H114.5z"/>
	<path fill="#193062" d="M116.3,5.8c0.6,0,1.1,0.5,1.1,1.1c0,0.6-0.5,1.1-1.1,1.1s-1.1-0.5-1.1-1.1C115.2,6.3,115.6,5.8,116.3,5.8z
		 M117.2,14.8h-1.8v-6h1.8V14.8z"/>
	<path fill="#193062" d="M124.3,11v3.8h-1.8v-3.4c0-0.6-0.4-1-1-1s-1,0.5-1,1v3.4h-1.8v-6h1.7v0.3c0.4-0.3,0.9-0.5,1.5-0.5
		C123.3,8.6,124.3,9.6,124.3,11z"/>
	<path fill="#193062" d="M131.5,8.8v5.9c0,1.6-1.2,2.9-3,2.9c-1.4,0-2.4-0.8-2.8-1.9l1.6-0.6c0.2,0.5,0.6,0.8,1.2,0.8
		c0.7,0,1.2-0.5,1.2-1.2v-0.4c-0.4,0.3-0.9,0.4-1.4,0.4c-1.6,0-2.8-1.3-2.8-3c0-1.7,1.2-3,2.8-3c0.6,0,1.1,0.2,1.5,0.5V8.8H131.5z
		 M129.8,11.6c0-0.7-0.6-1.3-1.3-1.3c-0.7,0-1.3,0.6-1.3,1.3c0,0.7,0.6,1.2,1.3,1.2C129.3,12.9,129.8,12.3,129.8,11.6z"/>
	<path fill="#193062" d="M137.2,10.4H136V8.8h1.2V7.5c0-1.2,0.8-1.9,1.9-1.9h1.4v1.7h-1c-0.3,0-0.5,0.2-0.5,0.5v0.9h1.5v1.7h-1.5
		v4.4h-1.8V10.4z"/>
	<path fill="#193062" d="M144.2,8.6c1.8,0,3.2,1.4,3.2,3.2c0,1.7-1.3,3.1-3.2,3.1c-1.8,0-3.2-1.4-3.2-3.1
		C141,10,142.3,8.6,144.2,8.6z M144.2,13.2c0.8,0,1.4-0.6,1.4-1.4c0-0.8-0.6-1.4-1.4-1.4s-1.4,0.6-1.4,1.4
		C142.8,12.6,143.4,13.2,144.2,13.2z"/>
	<path fill="#193062" d="M152.3,8.8v1.8h-0.9c-0.7,0-1.2,0.5-1.2,1.2v3.1h-1.8v-6h1.7v0.5c0.3-0.4,0.9-0.5,1.4-0.5H152.3z"/>
	<path fill="#193062" d="M156.9,6h1.9V13h5v1.8h-6.9V6z"/>
	<path fill="#193062" d="M165.8,5.8c0.6,0,1.1,0.5,1.1,1.1c0,0.6-0.5,1.1-1.1,1.1s-1.1-0.5-1.1-1.1C164.7,6.3,165.2,5.8,165.8,5.8z
		 M166.7,14.8H165v-6h1.8V14.8z"/>
	<path fill="#193062" d="M168.9,10.4h-1.2V8.8h1.2V7.5c0-1.2,0.8-1.9,1.9-1.9h1.4v1.7h-1c-0.3,0-0.5,0.2-0.5,0.5v0.9h1.5v1.7h-1.5
		v4.4h-1.8V10.4z"/>
	<path fill="#193062" d="M178.7,12.4h-4.2c0.2,0.5,0.7,0.9,1.4,0.9c0.6,0,1-0.3,1.3-0.7l1.4,0.9c-0.5,0.9-1.5,1.5-2.7,1.5
		c-1.8,0-3.1-1.4-3.1-3.1c0-1.8,1.3-3.2,3-3.2c1.8,0,3,1.3,3,3.1C178.8,12,178.8,12.2,178.7,12.4z M174.5,11.1h2.6
		c-0.2-0.6-0.6-0.9-1.3-0.9C175.1,10.2,174.6,10.6,174.5,11.1z"/>
	<path fill="#193062" d="M183.6,6h1.9v8.8h-1.9V6z"/>
	<path fill="#193062" d="M192.7,11v3.8H191v-3.4c0-0.6-0.4-1-1-1c-0.6,0-1,0.5-1,1v3.4h-1.8v-6h1.7v0.3c0.4-0.3,0.9-0.5,1.5-0.5
		C191.7,8.6,192.7,9.6,192.7,11z"/>
	<path fill="#193062" d="M196.4,13.3c0.5,0,0.8-0.2,0.8-0.4c0-0.2-0.2-0.3-0.5-0.3c-0.3,0-0.6,0-1.1-0.1c-1.2-0.2-1.7-0.9-1.7-1.8
		c0-1.2,1-2.1,2.4-2.1c1.4,0,2.4,0.8,2.4,2h-1.7c0-0.3-0.3-0.4-0.7-0.4c-0.4,0-0.7,0.2-0.7,0.4c0,0.2,0.1,0.3,0.4,0.3
		c0.4,0,0.6,0,1.1,0.1c1.2,0.1,1.7,0.9,1.7,1.8c0,1.2-1,2.1-2.5,2.1c-1.5,0-2.5-0.9-2.5-2.1h1.7C195.6,13.1,195.9,13.3,196.4,13.3z"
		/>
	<path fill="#193062" d="M205.6,8.8v6h-1.7v-0.3c-0.4,0.3-0.9,0.5-1.5,0.5c-1.4,0-2.4-1-2.4-2.4V8.8h1.8v3.4c0,0.6,0.4,1,1,1
		c0.6,0,1-0.5,1-1V8.8H205.6z"/>
	<path fill="#193062" d="M211.1,8.8v1.8h-0.9c-0.7,0-1.2,0.5-1.2,1.2v3.1h-1.8v-6h1.7v0.5c0.3-0.4,0.9-0.5,1.4-0.5H211.1z"/>
	<path fill="#193062" d="M216.9,11v3.8h-1.7v-0.3c-0.4,0.3-0.8,0.5-1.5,0.5c-1.2,0-2.1-0.8-2.1-1.9c0-1.2,0.9-1.8,2.1-1.9l1.5-0.1
		V11c0-0.4-0.4-0.7-0.9-0.7c-0.4,0-0.8,0.2-0.9,0.6h-1.7c0.1-1.3,1.1-2.2,2.6-2.2C215.8,8.6,216.9,9.6,216.9,11z M215.2,12.7v-0.4
		l-1.2,0.1c-0.4,0-0.6,0.3-0.6,0.5c0,0.3,0.3,0.6,0.8,0.6C214.8,13.5,215.2,13.2,215.2,12.7z"/>
	<path fill="#193062" d="M224,11v3.8h-1.8v-3.4c0-0.6-0.4-1-1-1c-0.6,0-1,0.5-1,1v3.4h-1.8v-6h1.7v0.3c0.4-0.3,0.9-0.5,1.5-0.5
		C223,8.6,224,9.6,224,11z"/>
	<path fill="#193062" d="M228.3,8.6c1.2,0,2.1,0.6,2.6,1.4l-1.4,1c-0.3-0.4-0.7-0.7-1.2-0.7c-0.8,0-1.4,0.6-1.4,1.4
		c0,0.8,0.6,1.4,1.4,1.4c0.5,0,0.9-0.3,1.2-0.7l1.4,1c-0.5,0.9-1.5,1.4-2.6,1.4c-1.8,0-3.1-1.4-3.1-3.2
		C225.2,10,226.5,8.6,228.3,8.6z"/>
	<path fill="#193062" d="M237.5,12.4h-4.2c0.2,0.5,0.7,0.9,1.4,0.9c0.6,0,1-0.3,1.3-0.7l1.4,0.9c-0.5,0.9-1.5,1.5-2.7,1.5
		c-1.8,0-3.1-1.4-3.1-3.1c0-1.8,1.3-3.2,3-3.2c1.8,0,3,1.3,3,3.1C237.5,12,237.5,12.2,237.5,12.4z M233.2,11.1h2.6
		c-0.2-0.6-0.6-0.9-1.3-0.9C233.9,10.2,233.4,10.6,233.2,11.1z"/>
	<path fill="#193062" d="M248.1,5.7v9.1h-1.7v-0.4c-0.4,0.3-0.9,0.5-1.5,0.5c-1.8,0-3-1.4-3-3.1c0-1.8,1.2-3.2,3-3.2
		c0.6,0,1.1,0.2,1.5,0.5V5.7H248.1z M246.3,11.8c0-0.8-0.6-1.4-1.4-1.4c-0.8,0-1.4,0.6-1.4,1.4c0,0.8,0.6,1.4,1.4,1.4
		C245.8,13.2,246.3,12.6,246.3,11.8z"/>
	<path fill="#193062" d="M252.4,8.6c1.8,0,3.2,1.4,3.2,3.2c0,1.7-1.3,3.1-3.2,3.1s-3.2-1.4-3.2-3.1C249.2,10,250.6,8.6,252.4,8.6z
		 M252.4,13.2c0.8,0,1.4-0.6,1.4-1.4c0-0.8-0.6-1.4-1.4-1.4S251,11,251,11.8C251,12.6,251.6,13.2,252.4,13.2z"/>
	<path fill="#193062" d="M262.3,12.4h-4.2c0.2,0.5,0.7,0.9,1.4,0.9c0.6,0,1-0.3,1.3-0.7l1.4,0.9c-0.5,0.9-1.5,1.5-2.7,1.5
		c-1.8,0-3.1-1.4-3.1-3.1c0-1.8,1.3-3.2,3-3.2c1.8,0,3,1.3,3,3.1C262.4,12,262.4,12.2,262.3,12.4z M258.1,11.1h2.6
		c-0.2-0.6-0.6-0.9-1.3-0.9C258.7,10.2,258.2,10.6,258.1,11.1z"/>
	<path fill="#193062" d="M265.7,13.3c0.5,0,0.8-0.2,0.8-0.4c0-0.2-0.2-0.3-0.5-0.3c-0.3,0-0.6,0-1.1-0.1c-1.2-0.2-1.7-0.9-1.7-1.8
		c0-1.2,1-2.1,2.4-2.1c1.4,0,2.4,0.8,2.4,2h-1.7c0-0.3-0.3-0.4-0.7-0.4c-0.4,0-0.7,0.2-0.7,0.4c0,0.2,0.1,0.3,0.4,0.3
		c0.4,0,0.6,0,1.1,0.1c1.2,0.1,1.7,0.9,1.7,1.8c0,1.2-1,2.1-2.5,2.1c-1.5,0-2.5-0.9-2.5-2.1h1.7C264.9,13.1,265.2,13.3,265.7,13.3z"
		/>
	<path fill="#193062" d="M275,11v3.8h-1.8v-3.4c0-0.6-0.4-1-1-1c-0.6,0-1,0.5-1,1v3.4h-1.8v-6h1.7v0.3c0.4-0.3,0.9-0.5,1.5-0.5
		C274,8.6,275,9.6,275,11z"/>
	<path fill="#193062" d="M277.9,7c0,0.1,0,0.3-0.1,0.4l-0.7,2h-1l0.3-1.4c-0.4-0.1-0.7-0.5-0.7-1c0-0.6,0.4-1.1,1.1-1.1
		S277.9,6.4,277.9,7z"/>
	<path fill="#193062" d="M281.3,8.8h1.9v1.7h-1.9v2c0,0.4,0.3,0.6,0.7,0.6h1.2v1.7h-1.6c-1.2,0-2.1-0.8-2.1-2v-2.3h-0.9V9.5l1.7-2.1
		h1V8.8z"/>
</g>
<g>
	<path fill="#193062" d="M88.6,26v3.8h-1.8v-3.4c0-0.6-0.4-1-1-1c-0.6,0-1,0.5-1,1v3.4H83v-9.1h1.8v3.4c0.4-0.3,0.9-0.5,1.5-0.5
		C87.6,23.6,88.6,24.6,88.6,26z"/>
	<path fill="#193062" d="M95.1,26v3.8h-1.7v-0.3c-0.4,0.3-0.8,0.5-1.5,0.5c-1.2,0-2.1-0.8-2.1-1.9c0-1.2,0.9-1.8,2.1-1.9l1.5-0.1V26
		c0-0.4-0.4-0.7-0.9-0.7c-0.4,0-0.8,0.2-0.9,0.6H90c0.1-1.3,1.1-2.2,2.6-2.2C94.1,23.6,95.1,24.6,95.1,26z M93.4,27.7v-0.4l-1.2,0.1
		c-0.4,0-0.6,0.3-0.6,0.5c0,0.3,0.3,0.6,0.8,0.6C93,28.5,93.4,28.2,93.4,27.7z"/>
	<path fill="#193062" d="M101.9,23.8l-2.2,6h-1.8l-2.2-6h1.9l1.2,3.3l1.2-3.3H101.9z"/>
	<path fill="#193062" d="M108.2,27.4H104c0.2,0.5,0.7,0.9,1.4,0.9c0.6,0,1-0.3,1.3-0.7l1.4,0.9c-0.5,0.9-1.5,1.5-2.7,1.5
		c-1.8,0-3.1-1.4-3.1-3.1c0-1.8,1.3-3.2,3-3.2c1.8,0,3,1.3,3,3.1C108.3,27,108.2,27.2,108.2,27.4z M103.9,26.1h2.6
		c-0.2-0.6-0.6-0.9-1.3-0.9C104.6,25.2,104.1,25.6,103.9,26.1z"/>
	<path fill="#193062" d="M114.9,23.8h1.9v1.7h-1.9v2c0,0.4,0.3,0.6,0.7,0.6h1.2v1.7h-1.6c-1.2,0-2.1-0.8-2.1-2v-2.3h-0.9v-0.9
		l1.7-2.1h1V23.8z"/>
	<path fill="#193062" d="M120.7,23.6c1.8,0,3.2,1.4,3.2,3.2c0,1.7-1.3,3.1-3.2,3.1c-1.8,0-3.2-1.4-3.2-3.1
		C117.5,25,118.9,23.6,120.7,23.6z M120.7,28.2c0.8,0,1.4-0.6,1.4-1.4c0-0.8-0.6-1.4-1.4-1.4s-1.4,0.6-1.4,1.4
		C119.3,27.6,119.9,28.2,120.7,28.2z"/>
	<path fill="#193062" d="M134.8,26.8c0,1.8-1.2,3.1-3,3.1c-0.6,0-1.1-0.2-1.5-0.5v0.4h-1.7v-9.1h1.8v3.4c0.4-0.3,0.9-0.5,1.5-0.5
		C133.5,23.6,134.8,25,134.8,26.8z M133,26.8c0-0.8-0.6-1.4-1.4-1.4c-0.8,0-1.4,0.6-1.4,1.4c0,0.8,0.6,1.4,1.4,1.4
		C132.4,28.2,133,27.6,133,26.8z"/>
	<path fill="#193062" d="M141.6,27.4h-4.2c0.2,0.5,0.7,0.9,1.4,0.9c0.6,0,1-0.3,1.3-0.7l1.4,0.9c-0.5,0.9-1.5,1.5-2.7,1.5
		c-1.8,0-3.1-1.4-3.1-3.1c0-1.8,1.3-3.2,3-3.2c1.8,0,3,1.3,3,3.1C141.6,27,141.6,27.2,141.6,27.4z M137.3,26.1h2.6
		c-0.2-0.6-0.6-0.9-1.3-0.9C138,25.2,137.5,25.6,137.3,26.1z"/>
	<path fill="#193062" d="M149,23.6c1.2,0,2.1,0.6,2.6,1.4l-1.4,1c-0.3-0.4-0.7-0.7-1.2-0.7c-0.8,0-1.4,0.6-1.4,1.4
		c0,0.8,0.6,1.4,1.4,1.4c0.5,0,0.9-0.3,1.2-0.7l1.4,1c-0.5,0.9-1.5,1.4-2.6,1.4c-1.8,0-3.1-1.4-3.1-3.2
		C145.9,25,147.2,23.6,149,23.6z"/>
	<path fill="#193062" d="M155.3,23.6c1.8,0,3.2,1.4,3.2,3.2c0,1.7-1.3,3.1-3.2,3.1c-1.8,0-3.2-1.4-3.2-3.1
		C152.2,25,153.5,23.6,155.3,23.6z M155.3,28.2c0.8,0,1.4-0.6,1.4-1.4c0-0.8-0.6-1.4-1.4-1.4s-1.4,0.6-1.4,1.4
		C153.9,27.6,154.5,28.2,155.3,28.2z"/>
	<path fill="#193062" d="M168.5,25.9v3.9h-1.8v-3.6c0-0.5-0.3-0.9-0.9-0.9c-0.5,0-0.9,0.4-0.9,0.9v3.6h-1.8v-3.6
		c0-0.5-0.3-0.9-0.9-0.9c-0.5,0-0.9,0.4-0.9,0.9v3.6h-1.8v-6h1.7V24c0.4-0.3,0.8-0.4,1.4-0.4c0.6,0,1.2,0.2,1.6,0.6
		c0.4-0.4,1-0.6,1.7-0.6C167.4,23.6,168.5,24.6,168.5,25.9z"/>
	<path fill="#193062" d="M176.3,26.8c0,1.8-1.2,3.1-3,3.1c-0.6,0-1.1-0.2-1.5-0.5v2.9H170v-8.6h1.7v0.3c0.4-0.3,0.9-0.5,1.5-0.5
		C175.1,23.6,176.3,25,176.3,26.8z M174.5,26.8c0-0.8-0.6-1.4-1.4-1.4c-0.8,0-1.4,0.6-1.4,1.4c0,0.8,0.6,1.4,1.4,1.4
		C173.9,28.2,174.5,27.6,174.5,26.8z"/>
	<path fill="#193062" d="M177.5,20.7h1.8v9.1h-1.8V20.7z"/>
	<path fill="#193062" d="M181.7,20.8c0.6,0,1.1,0.5,1.1,1.1c0,0.6-0.5,1.1-1.1,1.1s-1.1-0.5-1.1-1.1
		C180.6,21.3,181.1,20.8,181.7,20.8z M182.6,29.8h-1.8v-6h1.8V29.8z"/>
	<path fill="#193062" d="M186.9,23.6c1.2,0,2.1,0.6,2.6,1.4l-1.4,1c-0.3-0.4-0.7-0.7-1.2-0.7c-0.8,0-1.4,0.6-1.4,1.4
		c0,0.8,0.6,1.4,1.4,1.4c0.5,0,0.9-0.3,1.2-0.7l1.4,1c-0.5,0.9-1.5,1.4-2.6,1.4c-1.8,0-3.1-1.4-3.1-3.2
		C183.8,25,185.1,23.6,186.9,23.6z"/>
	<path fill="#193062" d="M195.5,26v3.8h-1.7v-0.3c-0.4,0.3-0.8,0.5-1.5,0.5c-1.2,0-2.1-0.8-2.1-1.9c0-1.2,0.9-1.8,2.1-1.9l1.5-0.1
		V26c0-0.4-0.4-0.7-0.9-0.7c-0.4,0-0.8,0.2-0.9,0.6h-1.7c0.1-1.3,1.1-2.2,2.6-2.2C194.4,23.6,195.5,24.6,195.5,26z M193.7,27.7v-0.4
		l-1.2,0.1c-0.4,0-0.6,0.3-0.6,0.5c0,0.3,0.3,0.6,0.8,0.6C193.4,28.5,193.7,28.2,193.7,27.7z"/>
	<path fill="#193062" d="M199,23.8h1.9v1.7H199v2c0,0.4,0.3,0.6,0.7,0.6h1.2v1.7h-1.6c-1.2,0-2.1-0.8-2.1-2v-2.3h-0.9v-0.9l1.7-2.1
		h1V23.8z"/>
	<path fill="#193062" d="M207.6,27.4h-4.2c0.2,0.5,0.7,0.9,1.4,0.9c0.6,0,1-0.3,1.3-0.7l1.4,0.9c-0.5,0.9-1.5,1.5-2.7,1.5
		c-1.8,0-3.1-1.4-3.1-3.1c0-1.8,1.3-3.2,3-3.2c1.8,0,3,1.3,3,3.1C207.7,27,207.7,27.2,207.6,27.4z M203.4,26.1h2.6
		c-0.2-0.6-0.6-0.9-1.3-0.9C204,25.2,203.5,25.6,203.4,26.1z"/>
	<path fill="#193062" d="M214.7,20.7v9.1H213v-0.4c-0.4,0.3-0.9,0.5-1.5,0.5c-1.8,0-3-1.4-3-3.1c0-1.8,1.2-3.2,3-3.2
		c0.6,0,1.1,0.2,1.5,0.5v-3.4H214.7z M213,26.8c0-0.8-0.6-1.4-1.4-1.4c-0.8,0-1.4,0.6-1.4,1.4c0,0.8,0.6,1.4,1.4,1.4
		C212.5,28.2,213,27.6,213,26.8z"/>
	<path fill="#193062" d="M217.3,27.7c0.6,0,1.1,0.5,1.1,1.1c0,0.6-0.5,1.1-1.1,1.1s-1.1-0.5-1.1-1.1
		C216.2,28.1,216.7,27.7,217.3,27.7z"/>
</g>
</svg>
