<?xml version="1.0" encoding="utf-8"?>
<!-- Generator: Adobe Illustrator 27.4.0, SVG Export Plug-In . SVG Version: 6.00 Build 0)  -->
<svg version="1.1" baseProfile="tiny" id="Layer_1" xmlns="http://www.w3.org/2000/svg" xmlns:xlink="http://www.w3.org/1999/xlink"
	 x="0px" y="0px" viewBox="0 0 300 50" overflow="visible" xml:space="preserve">
<g>
	<path fill="#193062" d="M83.9,8c-0.7,0-1.2,0.4-1.2,0.8c0,0.3,0.2,0.5,0.5,0.6c0.5,0.2,1.3,0.1,2,0.3c1,0.3,1.7,1.1,1.7,2.2
		c0,1.5-1.2,2.7-3,2.7c-1.7,0-3-1.1-3-2.6h1.7c0,0.6,0.6,1,1.3,1c0.8,0,1.3-0.4,1.3-0.9c0-0.4-0.2-0.6-0.5-0.7
		c-0.5-0.2-1.3-0.1-2.1-0.3c-1.1-0.3-1.6-1.1-1.6-2.2c0-1.5,1.2-2.6,2.9-2.6c1.7,0,2.9,1,2.9,2.5h-1.7C85.1,8.4,84.6,8,83.9,8z"/>
	<path fill="#193062" d="M90,9h1.7v1.6H90v1.8c0,0.4,0.2,0.6,0.6,0.6h1.1v1.6h-1.4c-1.1,0-1.9-0.7-1.9-1.8v-2.1h-0.8V9.7l1.5-1.9H90
		V9z"/>
	<path fill="#193062" d="M93.6,6.3c0.6,0,1,0.4,1,1c0,0.6-0.4,1-1,1c-0.6,0-1-0.5-1-1C92.6,6.7,93,6.3,93.6,6.3z M94.4,14.6h-1.6V9
		h1.6V14.6z"/>
	<path fill="#193062" d="M95.8,6.2h1.6v8.4h-1.6V6.2z"/>
	<path fill="#193062" d="M98.9,6.2h1.6v8.4h-1.6V6.2z"/>
	<path fill="#193062" d="M107.2,13.2c0.4,0,0.7-0.2,0.7-0.4c0-0.2-0.1-0.3-0.4-0.3c-0.3,0-0.6,0-1-0.1c-1.1-0.2-1.6-0.8-1.6-1.6
		c0-1.1,0.9-1.9,2.2-1.9c1.3,0,2.2,0.8,2.2,1.9h-1.6c0-0.3-0.3-0.4-0.7-0.4c-0.4,0-0.7,0.2-0.7,0.4c0,0.2,0.1,0.2,0.4,0.3
		c0.4,0,0.6,0,1,0.1c1.1,0.1,1.6,0.8,1.6,1.6c0,1.1-0.9,1.9-2.3,1.9c-1.4,0-2.3-0.8-2.3-1.9h1.6C106.4,13,106.7,13.2,107.2,13.2z"/>
	<path fill="#193062" d="M115.6,12.4h-3.9c0.2,0.5,0.7,0.8,1.3,0.8c0.5,0,0.9-0.3,1.2-0.6l1.3,0.8c-0.5,0.8-1.4,1.4-2.5,1.4
		c-1.7,0-2.9-1.3-2.9-2.9c0-1.7,1.2-2.9,2.8-2.9c1.7,0,2.8,1.2,2.8,2.9C115.7,12,115.7,12.2,115.6,12.4z M111.8,11.2h2.4
		c-0.2-0.5-0.6-0.8-1.2-0.8C112.3,10.4,111.9,10.7,111.8,11.2z"/>
	<path fill="#193062" d="M121.4,11.1v3.5h-1.6v-0.3c-0.3,0.3-0.7,0.4-1.4,0.4c-1.1,0-1.9-0.7-1.9-1.7c0-1.1,0.9-1.6,1.9-1.7l1.4-0.1
		V11c0-0.4-0.4-0.7-0.8-0.7c-0.4,0-0.7,0.2-0.8,0.5h-1.6c0.1-1.2,1-2,2.4-2C120.4,8.9,121.4,9.8,121.4,11.1z M119.8,12.6v-0.3
		l-1.1,0.1c-0.4,0-0.6,0.2-0.6,0.5c0,0.3,0.3,0.5,0.7,0.5C119.4,13.4,119.8,13.1,119.8,12.6z"/>
	<path fill="#193062" d="M126.3,9v1.6h-0.8c-0.6,0-1.1,0.5-1.1,1.1v2.8h-1.6V9h1.6v0.5c0.3-0.4,0.8-0.5,1.3-0.5H126.3z"/>
	<path fill="#193062" d="M129.7,8.9c1.1,0,1.9,0.5,2.4,1.3l-1.3,0.9c-0.2-0.4-0.6-0.6-1.1-0.6c-0.7,0-1.3,0.6-1.3,1.3
		c0,0.7,0.5,1.3,1.3,1.3c0.5,0,0.8-0.3,1.1-0.6l1.3,0.9c-0.5,0.8-1.4,1.3-2.4,1.3c-1.7,0-2.9-1.3-2.9-2.9
		C126.8,10.2,128.1,8.9,129.7,8.9z"/>
	<path fill="#193062" d="M138.1,11.1v3.5h-1.6v-3.1c0-0.5-0.4-1-0.9-1c-0.6,0-1,0.4-1,1v3.1H133V6.2h1.6v3.1
		c0.4-0.3,0.8-0.4,1.3-0.4C137.2,8.9,138.1,9.8,138.1,11.1z"/>
	<path fill="#193062" d="M140.4,6.3c0.6,0,1,0.4,1,1c0,0.6-0.4,1-1,1c-0.6,0-1-0.5-1-1C139.3,6.7,139.8,6.3,140.4,6.3z M141.2,14.6
		h-1.6V9h1.6V14.6z"/>
	<path fill="#193062" d="M147.7,11.1v3.5h-1.6v-3.1c0-0.5-0.4-0.9-0.9-0.9c-0.6,0-0.9,0.4-0.9,0.9v3.1h-1.6V9h1.6v0.3
		c0.4-0.3,0.8-0.4,1.4-0.4C146.8,8.9,147.7,9.8,147.7,11.1z"/>
	<path fill="#193062" d="M154.3,9v5.4c0,1.5-1.1,2.6-2.8,2.6c-1.3,0-2.2-0.7-2.6-1.8l1.5-0.6c0.2,0.5,0.5,0.8,1.1,0.8
		c0.7,0,1.1-0.4,1.1-1.1V14c-0.4,0.3-0.8,0.4-1.3,0.4c-1.5,0-2.6-1.2-2.6-2.7s1.1-2.7,2.6-2.7c0.5,0,1,0.2,1.4,0.5V9H154.3z
		 M152.8,11.7c0-0.7-0.5-1.2-1.2-1.2c-0.7,0-1.2,0.5-1.2,1.2c0,0.6,0.5,1.1,1.2,1.1C152.3,12.8,152.8,12.3,152.8,11.7z"/>
	<path fill="#193062" d="M159.5,10.6h-1.1V9h1.1V7.9c0-1.1,0.7-1.7,1.8-1.7h1.2v1.6h-0.9c-0.3,0-0.5,0.2-0.5,0.4V9h1.4v1.6h-1.4v4
		h-1.6V10.6z"/>
	<path fill="#193062" d="M165.9,8.9c1.7,0,2.9,1.3,2.9,2.9c0,1.6-1.2,2.9-2.9,2.9c-1.7,0-2.9-1.3-2.9-2.9
		C163,10.2,164.2,8.9,165.9,8.9z M165.9,13.1c0.7,0,1.3-0.6,1.3-1.3c0-0.7-0.5-1.3-1.3-1.3c-0.7,0-1.3,0.6-1.3,1.3
		C164.6,12.5,165.2,13.1,165.9,13.1z"/>
	<path fill="#193062" d="M173.4,9v1.6h-0.8c-0.6,0-1.1,0.5-1.1,1.1v2.8h-1.6V9h1.6v0.5c0.3-0.4,0.8-0.5,1.3-0.5H173.4z"/>
	<path fill="#193062" d="M177.6,6.5h1.7v6.4h4.6v1.7h-6.3V6.5z"/>
	<path fill="#193062" d="M185.8,6.3c0.6,0,1,0.4,1,1c0,0.6-0.4,1-1,1s-1-0.5-1-1C184.8,6.7,185.2,6.3,185.8,6.3z M186.6,14.6H185V9
		h1.6V14.6z"/>
	<path fill="#193062" d="M188.6,10.6h-1.1V9h1.1V7.9c0-1.1,0.7-1.7,1.8-1.7h1.2v1.6h-0.9c-0.3,0-0.5,0.2-0.5,0.4V9h1.4v1.6h-1.4v4
		h-1.6V10.6z"/>
	<path fill="#193062" d="M197.6,12.4h-3.9c0.2,0.5,0.7,0.8,1.3,0.8c0.5,0,0.9-0.3,1.2-0.6l1.3,0.8c-0.5,0.8-1.4,1.4-2.5,1.4
		c-1.7,0-2.9-1.3-2.9-2.9c0-1.7,1.2-2.9,2.8-2.9c1.7,0,2.8,1.2,2.8,2.9C197.7,12,197.7,12.2,197.6,12.4z M193.7,11.2h2.4
		c-0.2-0.5-0.6-0.8-1.2-0.8C194.3,10.4,193.9,10.7,193.7,11.2z"/>
	<path fill="#193062" d="M202,6.5h1.7v8H202V6.5z"/>
	<path fill="#193062" d="M210.5,11.1v3.5h-1.6v-3.1c0-0.5-0.4-0.9-0.9-0.9c-0.6,0-0.9,0.4-0.9,0.9v3.1h-1.6V9h1.6v0.3
		c0.4-0.3,0.8-0.4,1.4-0.4C209.5,8.9,210.5,9.8,210.5,11.1z"/>
	<path fill="#193062" d="M213.9,13.2c0.4,0,0.7-0.2,0.7-0.4c0-0.2-0.1-0.3-0.4-0.3c-0.3,0-0.6,0-1-0.1c-1.1-0.2-1.6-0.8-1.6-1.6
		c0-1.1,0.9-1.9,2.2-1.9c1.3,0,2.2,0.8,2.2,1.9h-1.6c0-0.3-0.3-0.4-0.7-0.4c-0.4,0-0.7,0.2-0.7,0.4c0,0.2,0.1,0.2,0.4,0.3
		c0.4,0,0.6,0,1,0.1c1.1,0.1,1.6,0.8,1.6,1.6c0,1.1-0.9,1.9-2.3,1.9c-1.4,0-2.3-0.8-2.3-1.9h1.6C213.1,13,213.4,13.2,213.9,13.2z"/>
	<path fill="#193062" d="M222.3,9v5.5h-1.6v-0.3c-0.4,0.3-0.8,0.4-1.3,0.4c-1.2,0-2.2-0.9-2.2-2.2V9h1.6v3.1c0,0.5,0.4,0.9,0.9,0.9
		c0.6,0,0.9-0.4,0.9-0.9V9H222.3z"/>
	<path fill="#193062" d="M227.2,9v1.6h-0.8c-0.6,0-1.1,0.5-1.1,1.1v2.8h-1.6V9h1.6v0.5c0.3-0.4,0.8-0.5,1.3-0.5H227.2z"/>
	<path fill="#193062" d="M232.6,11.1v3.5H231v-0.3c-0.3,0.3-0.7,0.4-1.4,0.4c-1.1,0-1.9-0.7-1.9-1.7c0-1.1,0.9-1.6,1.9-1.7l1.4-0.1
		V11c0-0.4-0.4-0.7-0.8-0.7c-0.4,0-0.7,0.2-0.8,0.5h-1.6c0.1-1.2,1-2,2.4-2C231.6,8.9,232.6,9.8,232.6,11.1z M231,12.6v-0.3
		l-1.1,0.1c-0.4,0-0.6,0.2-0.6,0.5c0,0.3,0.3,0.5,0.7,0.5C230.6,13.4,231,13.1,231,12.6z"/>
	<path fill="#193062" d="M239.1,11.1v3.5h-1.6v-3.1c0-0.5-0.4-0.9-0.9-0.9c-0.6,0-0.9,0.4-0.9,0.9v3.1H234V9h1.6v0.3
		c0.4-0.3,0.8-0.4,1.4-0.4C238.2,8.9,239.1,9.8,239.1,11.1z"/>
	<path fill="#193062" d="M243.1,8.9c1.1,0,1.9,0.5,2.4,1.3l-1.3,0.9c-0.2-0.4-0.6-0.6-1.1-0.6c-0.7,0-1.3,0.6-1.3,1.3
		c0,0.7,0.5,1.3,1.3,1.3c0.5,0,0.8-0.3,1.1-0.6l1.3,0.9c-0.5,0.8-1.4,1.3-2.4,1.3c-1.7,0-2.9-1.3-2.9-2.9
		C240.2,10.2,241.4,8.9,243.1,8.9z"/>
	<path fill="#193062" d="M251.5,12.4h-3.9c0.2,0.5,0.7,0.8,1.3,0.8c0.5,0,0.9-0.3,1.2-0.6l1.3,0.8c-0.5,0.8-1.4,1.4-2.5,1.4
		c-1.7,0-2.9-1.3-2.9-2.9c0-1.7,1.2-2.9,2.8-2.9c1.7,0,2.8,1.2,2.8,2.9C251.5,12,251.5,12.2,251.5,12.4z M247.6,11.2h2.4
		c-0.2-0.5-0.6-0.8-1.2-0.8C248.1,10.4,247.7,10.7,247.6,11.2z"/>
</g>
<g>
	<path fill="#193062" d="M83.1,22h1.7v1.6h-1.7v1.8c0,0.4,0.2,0.6,0.6,0.6h1.1v1.6h-1.4c-1.1,0-1.9-0.7-1.9-1.8v-2.1h-0.8v-0.8
		l1.5-1.9h0.9V22z"/>
	<path fill="#193062" d="M91,24.1v3.5h-1.6v-3.1c0-0.5-0.4-1-0.9-1c-0.6,0-1,0.4-1,1v3.1h-1.6v-8.4h1.6v3.1c0.4-0.3,0.8-0.4,1.3-0.4
		C90.1,21.9,91,22.8,91,24.1z"/>
	<path fill="#193062" d="M97,24.1v3.5h-1.6v-0.3c-0.3,0.3-0.7,0.4-1.4,0.4c-1.1,0-1.9-0.7-1.9-1.7c0-1.1,0.9-1.6,1.9-1.7l1.4-0.1V24
		c0-0.4-0.4-0.7-0.8-0.7c-0.4,0-0.7,0.2-0.8,0.5h-1.6c0.1-1.2,1-2,2.4-2C96,21.9,97,22.8,97,24.1z M95.4,25.6v-0.3l-1.1,0.1
		c-0.4,0-0.6,0.2-0.6,0.5c0,0.3,0.3,0.5,0.7,0.5C95,26.4,95.4,26.1,95.4,25.6z"/>
	<path fill="#193062" d="M100.2,22h1.7v1.6h-1.7v1.8c0,0.4,0.2,0.6,0.6,0.6h1.1v1.6h-1.4c-1.1,0-1.9-0.7-1.9-1.8v-2.1h-0.8v-0.8
		l1.5-1.9h0.9V22z"/>
	<path fill="#193062" d="M106.7,23.6h-1.1V22h1.1v-1.1c0-1.1,0.7-1.7,1.8-1.7h1.2v1.6h-0.9c-0.3,0-0.5,0.2-0.5,0.4V22h1.4v1.6h-1.4
		v4h-1.6V23.6z M111.6,19.3c0.6,0,1,0.4,1,1c0,0.6-0.4,1-1,1s-1-0.5-1-1C110.6,19.7,111,19.3,111.6,19.3z M112.4,27.6h-1.6V22h1.6
		V27.6z"/>
	<path fill="#193062" d="M115.7,22h1.7v1.6h-1.7v1.8c0,0.4,0.2,0.6,0.6,0.6h1.1v1.6h-1.4c-1.1,0-1.9-0.7-1.9-1.8v-2.1h-0.8v-0.8
		l1.5-1.9h0.9V22z"/>
	<path fill="#193062" d="M120.2,20.4c0,0.1,0,0.3-0.1,0.4l-0.6,1.8h-0.9l0.3-1.3c-0.4-0.1-0.6-0.5-0.6-0.9c0-0.6,0.4-1,1-1
		S120.2,19.8,120.2,20.4z"/>
	<path fill="#193062" d="M123,26.2c0.4,0,0.7-0.2,0.7-0.4c0-0.2-0.1-0.3-0.4-0.3c-0.3,0-0.6,0-1-0.1c-1.1-0.2-1.6-0.8-1.6-1.6
		c0-1.1,0.9-1.9,2.2-1.9c1.3,0,2.2,0.8,2.2,1.9h-1.6c0-0.3-0.3-0.4-0.7-0.4c-0.4,0-0.7,0.2-0.7,0.4c0,0.2,0.1,0.2,0.4,0.3
		c0.4,0,0.6,0,1,0.1c1.1,0.1,1.6,0.8,1.6,1.6c0,1.1-0.9,1.9-2.3,1.9c-1.4,0-2.3-0.8-2.3-1.9h1.6C122.3,26,122.6,26.2,123,26.2z"/>
	<path fill="#193062" d="M134.1,22l-2.8,7.9h-1.7l0.9-2.5l-2-5.4h1.8l1.1,3l1.1-3H134.1z"/>
	<path fill="#193062" d="M137.3,21.9c1.7,0,2.9,1.3,2.9,2.9c0,1.6-1.2,2.9-2.9,2.9c-1.7,0-2.9-1.3-2.9-2.9
		C134.4,23.2,135.6,21.9,137.3,21.9z M137.3,26.1c0.7,0,1.3-0.6,1.3-1.3c0-0.7-0.5-1.3-1.3-1.3c-0.7,0-1.3,0.6-1.3,1.3
		C136,25.5,136.5,26.1,137.3,26.1z"/>
	<path fill="#193062" d="M146.3,22v5.5h-1.6v-0.3c-0.4,0.3-0.8,0.4-1.3,0.4c-1.2,0-2.2-0.9-2.2-2.2V22h1.6v3.1
		c0,0.5,0.4,0.9,0.9,0.9s0.9-0.4,0.9-0.9V22H146.3z"/>
	<path fill="#193062" d="M151.3,22v1.6h-0.8c-0.6,0-1.1,0.5-1.1,1.1v2.8h-1.6V22h1.6v0.5c0.3-0.4,0.8-0.5,1.3-0.5H151.3z"/>
	<path fill="#193062" d="M155.9,23.6h-1.1V22h1.1v-1.1c0-1.1,0.7-1.7,1.8-1.7h1.2v1.6H158c-0.3,0-0.5,0.2-0.5,0.4V22h1.4v1.6h-1.4v4
		h-1.6V23.6z"/>
	<path fill="#193062" d="M164.4,24.1v3.5h-1.6v-0.3c-0.3,0.3-0.7,0.4-1.4,0.4c-1.1,0-1.9-0.7-1.9-1.7c0-1.1,0.9-1.6,1.9-1.7l1.4-0.1
		V24c0-0.4-0.4-0.7-0.8-0.7c-0.4,0-0.7,0.2-0.8,0.5h-1.6c0.1-1.2,1-2,2.4-2C163.4,21.9,164.4,22.8,164.4,24.1z M162.8,25.6v-0.3
		l-1.1,0.1c-0.4,0-0.6,0.2-0.6,0.5c0,0.3,0.3,0.5,0.7,0.5C162.4,26.4,162.8,26.1,162.8,25.6z"/>
	<path fill="#193062" d="M173.9,23.9v3.6h-1.6v-3.3c0-0.4-0.3-0.8-0.8-0.8c-0.5,0-0.8,0.4-0.8,0.8v3.3H169v-3.3
		c0-0.4-0.3-0.8-0.8-0.8c-0.5,0-0.8,0.4-0.8,0.8v3.3h-1.6V22h1.6v0.3c0.3-0.2,0.8-0.4,1.2-0.4c0.6,0,1.1,0.2,1.4,0.6
		c0.4-0.4,0.9-0.6,1.6-0.6C172.9,21.9,173.9,22.8,173.9,23.9z"/>
	<path fill="#193062" d="M176.1,19.3c0.6,0,1,0.4,1,1c0,0.6-0.4,1-1,1s-1-0.5-1-1C175.1,19.7,175.5,19.3,176.1,19.3z M176.9,27.6
		h-1.6V22h1.6V27.6z"/>
	<path fill="#193062" d="M178.4,19.2h1.6v8.4h-1.6V19.2z"/>
	<path fill="#193062" d="M186.4,22l-2.8,7.9h-1.7l0.9-2.5l-2-5.4h1.8l1.1,3l1.1-3H186.4z"/>
	<path fill="#193062" d="M189,20.4c0,0.1,0,0.3-0.1,0.4l-0.6,1.8h-0.9l0.3-1.3c-0.4-0.1-0.6-0.5-0.6-0.9c0-0.6,0.4-1,1-1
		S189,19.8,189,20.4z"/>
	<path fill="#193062" d="M191.8,26.2c0.4,0,0.7-0.2,0.7-0.4c0-0.2-0.1-0.3-0.4-0.3c-0.3,0-0.6,0-1-0.1c-1.1-0.2-1.6-0.8-1.6-1.6
		c0-1.1,0.9-1.9,2.2-1.9c1.3,0,2.2,0.8,2.2,1.9h-1.6c0-0.3-0.3-0.4-0.7-0.4c-0.4,0-0.7,0.2-0.7,0.4c0,0.2,0.1,0.2,0.4,0.3
		c0.4,0,0.6,0,1,0.1c1.1,0.1,1.6,0.8,1.6,1.6c0,1.1-0.9,1.9-2.3,1.9c-1.4,0-2.3-0.8-2.3-1.9h1.6C191,26,191.3,26.2,191.8,26.2z"/>
	<path fill="#193062" d="M203.4,24.1v3.5h-1.6v-3.1c0-0.5-0.4-0.9-0.9-0.9c-0.6,0-0.9,0.4-0.9,0.9v3.1h-1.6V22h1.6v0.3
		c0.4-0.3,0.8-0.4,1.4-0.4C202.5,21.9,203.4,22.8,203.4,24.1z"/>
	<path fill="#193062" d="M210,25.4h-3.9c0.2,0.5,0.7,0.8,1.3,0.8c0.5,0,0.9-0.3,1.2-0.6l1.3,0.8c-0.5,0.8-1.4,1.4-2.5,1.4
		c-1.7,0-2.9-1.3-2.9-2.9c0-1.7,1.2-2.9,2.8-2.9c1.7,0,2.8,1.2,2.8,2.9C210,25,210,25.2,210,25.4z M206.1,24.2h2.4
		c-0.2-0.5-0.6-0.8-1.2-0.8C206.6,23.4,206.2,23.7,206.1,24.2z"/>
	<path fill="#193062" d="M216.2,25.4h-3.9c0.2,0.5,0.7,0.8,1.3,0.8c0.5,0,0.9-0.3,1.2-0.6l1.3,0.8c-0.5,0.8-1.4,1.4-2.5,1.4
		c-1.7,0-2.9-1.3-2.9-2.9c0-1.7,1.2-2.9,2.8-2.9c1.7,0,2.8,1.2,2.8,2.9C216.3,25,216.3,25.2,216.2,25.4z M212.3,24.2h2.4
		c-0.2-0.5-0.6-0.8-1.2-0.8C212.9,23.4,212.5,23.7,212.3,24.2z"/>
	<path fill="#193062" d="M222.8,19.2v8.4h-1.6v-0.3c-0.4,0.3-0.9,0.5-1.4,0.5c-1.6,0-2.7-1.3-2.7-2.9c0-1.6,1.1-2.9,2.7-2.9
		c0.5,0,1,0.2,1.4,0.4v-3.1H222.8z M221.2,24.8c0-0.7-0.5-1.3-1.3-1.3c-0.7,0-1.3,0.6-1.3,1.3c0,0.7,0.5,1.3,1.3,1.3
		C220.7,26.1,221.2,25.5,221.2,24.8z"/>
	<path fill="#193062" d="M226.2,26.2c0.4,0,0.7-0.2,0.7-0.4c0-0.2-0.1-0.3-0.4-0.3c-0.3,0-0.6,0-1-0.1c-1.1-0.2-1.6-0.8-1.6-1.6
		c0-1.1,0.9-1.9,2.2-1.9c1.3,0,2.2,0.8,2.2,1.9h-1.6c0-0.3-0.3-0.4-0.7-0.4c-0.4,0-0.7,0.2-0.7,0.4c0,0.2,0.1,0.2,0.4,0.3
		c0.4,0,0.6,0,1,0.1c1.1,0.1,1.6,0.8,1.6,1.6c0,1.1-0.9,1.9-2.3,1.9c-1.4,0-2.3-0.8-2.3-1.9h1.6C225.4,26,225.7,26.2,226.2,26.2z"/>
	<path fill="#193062" d="M230.5,25.1L230.5,25.1c0-1,0.2-1.5,1-2.2c0.4-0.4,0.6-0.6,0.6-1.1c0-0.5-0.3-0.8-0.7-0.8
		c-0.4,0-0.7,0.3-0.7,0.8H229c0-1.4,1.1-2.5,2.5-2.5c1.4,0,2.4,1.1,2.4,2.4c0,1-0.5,1.5-1.2,2.2c-0.5,0.4-0.6,0.7-0.6,1.1v0H230.5z
		 M231.3,25.6c0.6,0,1,0.4,1,1c0,0.6-0.4,1-1,1s-1-0.5-1-1C230.3,26,230.7,25.6,231.3,25.6z"/>
</g>
<g>
	<path fill="#193062" d="M83.1,34.2h-2.3v-1.7h6.3v1.7h-2.3v6.4h-1.7V34.2z"/>
	<path fill="#193062" d="M90.6,35v1.6h-0.8c-0.6,0-1.1,0.5-1.1,1.1v2.8h-1.6V35h1.6v0.5C89,35.1,89.5,35,90,35H90.6z"/>
	<path fill="#193062" d="M96.6,35v5.5H95v-0.3c-0.4,0.3-0.8,0.4-1.3,0.4c-1.2,0-2.2-0.9-2.2-2.2V35h1.6v3.1c0,0.5,0.4,0.9,0.9,0.9
		s0.9-0.4,0.9-0.9V35H96.6z"/>
	<path fill="#193062" d="M100,39.2c0.4,0,0.7-0.2,0.7-0.4c0-0.2-0.1-0.3-0.4-0.3c-0.3,0-0.6,0-1-0.1c-1.1-0.2-1.6-0.8-1.6-1.6
		c0-1.1,0.9-1.9,2.2-1.9c1.3,0,2.2,0.8,2.2,1.9h-1.6c0-0.3-0.3-0.4-0.7-0.4c-0.4,0-0.7,0.2-0.7,0.4c0,0.2,0.1,0.2,0.4,0.3
		c0.4,0,0.6,0,1,0.1c1.1,0.1,1.6,0.8,1.6,1.6c0,1.1-0.9,1.9-2.3,1.9c-1.4,0-2.3-0.8-2.3-1.9h1.6C99.3,39.1,99.6,39.2,100,39.2z"/>
	<path fill="#193062" d="M105.2,35h1.7v1.6h-1.7v1.8c0,0.4,0.2,0.6,0.6,0.6h1.1v1.6h-1.4c-1.1,0-1.9-0.7-1.9-1.8v-2.1h-0.8v-0.8
		l1.5-1.9h0.9V35z"/>
	<path fill="#193062" d="M112.8,34.2h-2.3v-1.7h6.3v1.7h-2.3v6.4h-1.7V34.2z"/>
	<path fill="#193062" d="M120.3,35v1.6h-0.8c-0.6,0-1.1,0.5-1.1,1.1v2.8h-1.6V35h1.6v0.5c0.3-0.4,0.8-0.5,1.3-0.5H120.3z"/>
	<path fill="#193062" d="M126.3,35v5.5h-1.6v-0.3c-0.4,0.3-0.8,0.4-1.3,0.4c-1.2,0-2.2-0.9-2.2-2.2V35h1.6v3.1
		c0,0.5,0.4,0.9,0.9,0.9s0.9-0.4,0.9-0.9V35H126.3z"/>
	<path fill="#193062" d="M130.5,34c-0.7,0-1.2,0.4-1.2,0.8c0,0.3,0.2,0.5,0.5,0.6c0.5,0.2,1.3,0.1,2,0.3c1,0.3,1.7,1.1,1.7,2.2
		c0,1.5-1.2,2.7-3,2.7c-1.7,0-3-1.1-3-2.6h1.7c0,0.6,0.6,1,1.3,1c0.8,0,1.3-0.4,1.3-0.9c0-0.4-0.2-0.6-0.5-0.7
		c-0.5-0.2-1.3-0.1-2.1-0.3c-1.1-0.3-1.6-1.1-1.6-2.2c0-1.5,1.2-2.6,2.9-2.6c1.7,0,2.9,1,2.9,2.5h-1.7C131.7,34.4,131.2,34,130.5,34
		z"/>
	<path fill="#193062" d="M136.5,35h1.7v1.6h-1.7v1.8c0,0.4,0.2,0.6,0.6,0.6h1.1v1.6h-1.4c-1.1,0-1.9-0.7-1.9-1.8v-2.1h-0.8v-0.8
		l1.5-1.9h0.9V35z"/>
	<path fill="#193062" d="M143.9,37.1v3.5h-1.6v-0.3c-0.3,0.3-0.7,0.4-1.4,0.4c-1.1,0-1.9-0.7-1.9-1.7c0-1.1,0.9-1.6,1.9-1.7l1.4-0.1
		V37c0-0.4-0.4-0.7-0.8-0.7c-0.4,0-0.7,0.2-0.8,0.5h-1.6c0.1-1.2,1-2,2.4-2C142.9,34.9,143.9,35.8,143.9,37.1z M142.3,38.6v-0.3
		l-1.1,0.1c-0.4,0-0.6,0.2-0.6,0.5c0,0.3,0.3,0.5,0.7,0.5C141.9,39.4,142.3,39.1,142.3,38.6z"/>
	<path fill="#193062" d="M150.5,35v5.4c0,1.5-1.1,2.6-2.8,2.6c-1.3,0-2.2-0.7-2.6-1.8l1.5-0.6c0.2,0.5,0.5,0.8,1.1,0.8
		c0.7,0,1.1-0.4,1.1-1.1V40c-0.4,0.3-0.8,0.4-1.3,0.4c-1.5,0-2.6-1.2-2.6-2.7s1.1-2.7,2.6-2.7c0.5,0,1,0.2,1.4,0.5V35H150.5z
		 M148.9,37.7c0-0.7-0.5-1.2-1.2-1.2c-0.7,0-1.2,0.5-1.2,1.2c0,0.6,0.5,1.1,1.2,1.1C148.4,38.8,148.9,38.3,148.9,37.7z"/>
	<path fill="#193062" d="M157.1,38.4h-3.9c0.2,0.5,0.7,0.8,1.3,0.8c0.5,0,0.9-0.3,1.2-0.6l1.3,0.8c-0.5,0.8-1.4,1.4-2.5,1.4
		c-1.7,0-2.9-1.3-2.9-2.9c0-1.7,1.2-2.9,2.8-2.9c1.7,0,2.8,1.2,2.8,2.9C157.1,38,157.1,38.2,157.1,38.4z M153.2,37.2h2.4
		c-0.2-0.5-0.6-0.8-1.2-0.8C153.8,36.4,153.3,36.7,153.2,37.2z"/>
	<path fill="#193062" d="M158.7,33.4h-0.9v-0.9h2.7v0.9h-0.9v2.3h-0.9V33.4z M161,32.5h0.9l0.7,1.5l0.7-1.5h0.9v3.2h-0.9v-1.4
		l-0.7,1.5l-0.7-1.5v1.4H161V32.5z"/>
</g>
</svg>
