<?xml version="1.0" encoding="utf-8"?>
<!-- Generator: Adobe Illustrator 27.4.0, SVG Export Plug-In . SVG Version: 6.00 Build 0)  -->
<svg version="1.1" baseProfile="tiny" id="Layer_1" xmlns="http://www.w3.org/2000/svg" xmlns:xlink="http://www.w3.org/1999/xlink"
	 x="0px" y="0px" viewBox="0 0 300 50" overflow="visible" xml:space="preserve">
<rect x="238.7" y="29.3" fill="#FAE07E" width="52.6" height="14.9"/>
<g>
	<path fill="#193062" d="M245.5,34.5h0.8V38h2.5v0.8h-3.3V34.5z"/>
	<path fill="#193062" d="M249.5,34.5h3.3v0.8h-2.5v0.9h1.4v0.8h-1.4V38h2.5v0.8h-3.3V34.5z"/>
	<path fill="#193062" d="M254.7,35.4h-1.2v-0.8h3.3v0.8h-1.2v3.5h-0.8V35.4z"/>
	<path fill="#193062" d="M262.4,37.2c0,0.3-0.1,0.6-0.2,0.9c-0.1,0.3-0.4,0.5-0.6,0.6c-0.3,0.1-0.6,0.2-0.9,0.2
		c-0.3,0-0.6-0.1-0.9-0.2c-0.3-0.1-0.5-0.3-0.6-0.6s-0.2-0.5-0.2-0.9v-2.7h0.8v2.6c0,0.2,0,0.3,0.1,0.5c0.1,0.1,0.2,0.2,0.3,0.3
		c0.1,0.1,0.3,0.1,0.5,0.1c0.2,0,0.3,0,0.5-0.1c0.1-0.1,0.2-0.2,0.3-0.3c0.1-0.1,0.1-0.3,0.1-0.5v-2.6h0.8V37.2z"/>
	<path fill="#193062" d="M264.7,35.3c-0.1,0-0.3,0-0.4,0.1s-0.2,0.1-0.2,0.2c-0.1,0.1-0.1,0.2-0.1,0.3c0,0.1,0,0.2,0.1,0.2
		s0.1,0.1,0.2,0.1c0.1,0,0.1,0,0.2,0c0.1,0,0.2,0,0.3,0c0.1,0,0.3,0,0.3,0c0.1,0,0.2,0,0.3,0.1c0.3,0.1,0.5,0.2,0.6,0.4
		c0.2,0.2,0.2,0.4,0.2,0.7c0,0.3-0.1,0.5-0.2,0.7c-0.1,0.2-0.3,0.4-0.6,0.5c-0.2,0.1-0.5,0.2-0.8,0.2c-0.3,0-0.6-0.1-0.8-0.2
		c-0.2-0.1-0.4-0.3-0.6-0.5c-0.1-0.2-0.2-0.4-0.2-0.7h0.8c0,0.1,0,0.2,0.1,0.3c0.1,0.1,0.2,0.2,0.3,0.2c0.1,0,0.2,0.1,0.4,0.1
		c0.1,0,0.3,0,0.4-0.1c0.1,0,0.2-0.1,0.2-0.2s0.1-0.2,0.1-0.3c0-0.1,0-0.2-0.1-0.3c-0.1-0.1-0.1-0.1-0.2-0.2c-0.1,0-0.1,0-0.2-0.1
		c-0.1,0-0.2,0-0.3,0c-0.1,0-0.2,0-0.3,0c-0.1,0-0.2,0-0.3-0.1c-0.3-0.1-0.5-0.2-0.6-0.4s-0.2-0.4-0.2-0.7c0-0.3,0.1-0.5,0.2-0.7
		c0.1-0.2,0.3-0.4,0.5-0.5c0.2-0.1,0.5-0.2,0.8-0.2c0.3,0,0.6,0.1,0.8,0.2c0.2,0.1,0.4,0.3,0.5,0.5s0.2,0.4,0.2,0.7h-0.8
		c0-0.1,0-0.2-0.1-0.3s-0.1-0.1-0.2-0.2S264.9,35.3,264.7,35.3z"/>
	<path fill="#193062" d="M268.6,34.5h0.8v1.7h1.8v-1.7h0.8v4.3h-0.8v-1.7h-1.8v1.7h-0.8V34.5z"/>
	<path fill="#193062" d="M273.1,34.5h3.3v0.8H274v0.9h1.4v0.8H274V38h2.5v0.8h-3.3V34.5z"/>
	<path fill="#193062" d="M277.3,34.5h0.8V38h2.5v0.8h-3.3V34.5z"/>
	<path fill="#193062" d="M284.8,36.1c0,0.3-0.1,0.6-0.2,0.8s-0.3,0.4-0.6,0.5s-0.5,0.2-0.8,0.2h-1v1.2h-0.8v-4.3h1.8
		c0.3,0,0.6,0.1,0.8,0.2c0.2,0.1,0.4,0.3,0.6,0.5S284.8,35.8,284.8,36.1z M283.9,36.1c0-0.1,0-0.3-0.1-0.4s-0.1-0.2-0.3-0.3
		c-0.1-0.1-0.2-0.1-0.4-0.1h-1v1.4h1c0.1,0,0.3,0,0.4-0.1c0.1-0.1,0.2-0.1,0.3-0.3C283.9,36.3,283.9,36.2,283.9,36.1z"/>
</g>
</svg>
