<?xml version="1.0" encoding="utf-8"?>
<!-- Generator: Adobe Illustrator 27.4.0, SVG Export Plug-In . SVG Version: 6.00 Build 0)  -->
<svg version="1.1" baseProfile="tiny" id="Layer_1" xmlns="http://www.w3.org/2000/svg" xmlns:xlink="http://www.w3.org/1999/xlink"
	 x="0px" y="0px" viewBox="0 0 300 50" overflow="visible" xml:space="preserve">
<rect x="8.1" y="17" fill="#FAE07E" width="9.1" height="2.5"/>
<rect x="18" y="17" fill="#FFFFFF" width="2.2" height="2.5"/>
<rect x="8.1" y="20.2" fill="#FAE07E" width="6.8" height="2.5"/>
<rect x="15.7" y="20.2" fill="#FFFFFF" width="4.5" height="2.5"/>
<rect x="8.1" y="23.4" fill="#FAE07E" width="4.5" height="2.5"/>
<rect x="13.4" y="23.4" fill="#FFFFFF" width="6.8" height="2.5"/>
<rect x="8.1" y="26.6" fill="#FAE07E" width="2.2" height="2.5"/>
<rect x="11.1" y="26.6" fill="#FFFFFF" width="9.1" height="2.5"/>
<polygon fill="#FFFFFF" points="27.2,20.7 25.2,20.7 25.2,19.6 30.4,19.6 30.4,20.7 28.4,20.7 28.4,26.6 27.2,26.6 "/>
<g>
	<path fill="none" d="M61.9,22.5c-0.6,0-1.3,0.4-1.4,1.1h2.7C63.1,22.8,62.5,22.5,61.9,22.5z"/>
	<ellipse fill="none" cx="56.2" cy="24" rx="1.5" ry="1.5"/>
	<path fill="none" d="M50.4,22.5c-0.9,0-1.5,0.7-1.5,1.6s0.6,1.6,1.5,1.6c0.9,0,1.5-0.7,1.5-1.6S51.3,22.5,50.4,22.5z"/>
	<path fill="#FFFFFF" d="M30.1,21.6v4.9h1.1v-2.4c0-1,0.6-1.5,1.2-1.5c0.2,0,0.4,0,0.5,0.1v-1.1c-0.1,0-0.3,0-0.4,0
		c-0.6,0-1.1,0.4-1.3,0.9v-0.9H30.1z"/>
	<path fill="#FFFFFF" d="M33.7,21.6v2.9c0,1.3,0.7,2.1,1.8,2.1c0.6,0,1.1-0.3,1.4-0.8v0.7h1.1v-4.9H37v2.4c0,1.1-0.5,1.6-1.2,1.6
		c-0.6,0-1-0.5-1-1.3v-2.8H33.7z"/>
	<path fill="#FFFFFF" d="M41.3,25.6c-0.7,0-1.3-0.3-1.6-0.9l-0.9,0.7c0.4,0.7,1.4,1.3,2.5,1.3c1.4,0,2.3-0.8,2.3-2
		c0-1-0.6-1.7-1.6-2l-0.7-0.3c-0.7-0.3-1.1-0.5-1.1-1c0-0.5,0.5-0.8,1.1-0.8c0.5,0,1,0.2,1.3,0.6l0.8-0.8c-0.5-0.6-1.2-1-2.1-1
		c-1.3,0-2.3,0.7-2.3,2c0,1,0.5,1.6,1.6,2l0.8,0.3c0.7,0.2,1,0.6,1,1.1C42.4,25.2,42,25.6,41.3,25.6z"/>
	<path fill="#FFFFFF" d="M52.8,26.6v-4.9h-1.1v0.7c-0.3-0.4-0.9-0.8-1.6-0.8c-1.3,0-2.4,1.2-2.4,2.6c0,1.4,1,2.6,2.4,2.6
		c0.7,0,1.3-0.4,1.6-0.8v0.7H52.8z M50.4,25.7c-0.9,0-1.5-0.7-1.5-1.6s0.6-1.6,1.5-1.6c0.9,0,1.5,0.7,1.5,1.6S51.3,25.7,50.4,25.7z"
		/>
	<path fill="#FFFFFF" d="M56.1,27.7c-0.7,0-1.2-0.3-1.6-0.7l-0.7,0.8c0.5,0.5,1.3,0.9,2.3,0.9c1.5,0,2.5-0.8,2.5-2.5v-4.6h-1.1v0.7
		c-0.3-0.4-0.9-0.8-1.6-0.8c-1.3,0-2.4,1.1-2.4,2.5c0,1.4,1,2.5,2.4,2.5c0.7,0,1.3-0.3,1.6-0.8v0.5C57.6,27.2,56.9,27.7,56.1,27.7z
		 M56.2,25.5c-0.8,0-1.5-0.6-1.5-1.5s0.6-1.5,1.5-1.5c0.8,0,1.5,0.6,1.5,1.5S57,25.5,56.2,25.5z"/>
	<path fill="#FFFFFF" d="M62,21.5c-1.5,0-2.6,1.1-2.6,2.6c0,1.5,1.1,2.6,2.6,2.6c1,0,1.8-0.4,2.2-1.1l-0.8-0.6
		c-0.3,0.4-0.7,0.7-1.4,0.7c-0.8,0-1.5-0.5-1.5-1.3h3.9c0-0.2,0-0.2,0-0.4C64.3,22.4,63.2,21.5,62,21.5z M60.5,23.5
		c0.1-0.7,0.8-1.1,1.4-1.1c0.6,0,1.2,0.4,1.3,1.1H60.5z"/>
	<path fill="#FFFFFF" d="M44.8,20.3l0,0.6c0,0.4-0.3,0.7-0.7,0.7l-0.3,0v1h1V25c0,1.1,0.7,1.6,1.7,1.6c0.3,0,0.6,0,0.8-0.1v-1
		c-0.2,0.1-0.4,0.1-0.6,0.1c-0.6,0-0.8-0.2-0.8-0.8v-2.2h1.4v-1h-1.4v-1.4H44.8z"/>
	<polygon fill="#FFFFFF" points="65,20.8 64.7,20.3 64.6,20.3 64.6,21.1 64.7,21.1 64.7,20.6 65,21.1 65.2,20.6 65.2,21.1 
		65.4,21.1 65.4,20.3 65.2,20.3 	"/>
	<polygon fill="#FFFFFF" points="64.1,21.1 64.1,20.4 64.4,20.4 64.4,20.3 63.7,20.3 63.7,20.4 64,20.4 64,21.1 	"/>
</g>
</svg>
