<svg baseProfile="tiny" xmlns="http://www.w3.org/2000/svg" viewBox="0 0 320 50" overflow="visible"><g fill="#193062"><path d="M93.1 14v.4c0 3-2 5.1-5.1 5.1-3.1 0-5.2-2.2-5.2-5.3 0-3 2.2-5.3 5.3-5.3 2 0 3.7 1 4.6 2.5l-1.8 1.2c-.5-.9-1.5-1.6-2.7-1.6-1.8 0-3.1 1.4-3.1 3.1 0 1.9 1.2 3.2 3 3.2 1.2 0 2.1-.6 2.6-1.5h-3.3v-2h5.7zM97.7 12.2c2.1 0 3.7 1.6 3.7 3.7 0 2-1.6 3.7-3.7 3.7S94 17.9 94 15.9s1.6-3.7 3.7-3.7zm0 5.4c.9 0 1.6-.7 1.6-1.6 0-.9-.7-1.7-1.6-1.7s-1.6.7-1.6 1.7c0 .8.7 1.6 1.6 1.6zM107.5 14.4h-1.4v-2h1.4V11c0-1.4.9-2.2 2.3-2.2h1.6v2h-1.2c-.4 0-.6.2-.6.6v1.1h1.8v2h-1.8v5.1h-2.1v-5.2zM115.7 12.2c2.1 0 3.7 1.6 3.7 3.7 0 2-1.6 3.7-3.7 3.7s-3.7-1.7-3.7-3.7 1.5-3.7 3.7-3.7zm0 5.4c.9 0 1.6-.7 1.6-1.6 0-.9-.7-1.7-1.6-1.7s-1.6.7-1.6 1.7c0 .8.6 1.6 1.6 1.6zM125.2 12.4v2h-1.1c-.8 0-1.4.6-1.4 1.4v3.6h-2.1v-7.1h2v.7c.4-.5 1-.6 1.6-.6h1zM136.3 12.4l-2.3 7.1h-2.1l-.9-3-.9 3H128l-2.3-7.1h2.2l1.2 4 1.2-4h1.3l1.2 3.9 1.3-3.9h2.2zM142.9 15v4.4h-2V19c-.4.4-1 .5-1.7.5-1.5 0-2.5-.9-2.5-2.2 0-1.5 1.1-2.1 2.5-2.2l1.7-.1c0-.5-.5-.8-1-.8s-.9.3-1 .7h-2c.1-1.5 1.3-2.5 3-2.5 1.8-.2 3 1 3 2.6zm-2 2v-.4l-1.4.1c-.5 0-.7.3-.7.6 0 .4.3.7.9.7.7-.1 1.2-.4 1.2-1zM149.2 12.4v2h-1.1c-.8 0-1.4.6-1.4 1.4v3.6h-2.1v-7.1h2v.7c.4-.5 1-.6 1.6-.6h1zM157.2 8.8v10.7h-2V19c-.5.4-1.1.6-1.8.6-2 0-3.5-1.6-3.5-3.7s1.4-3.7 3.5-3.7c.7 0 1.3.2 1.8.5v-4h2zm-2 7.1c0-1-.7-1.7-1.7-1.7-.9 0-1.6.7-1.6 1.7 0 .9.7 1.7 1.6 1.7 1 0 1.7-.7 1.7-1.7zM173 12.4l-2.3 7.1h-2.1l-.9-3-.9 3h-2.1l-2.3-7.1h2.2l1.2 4 1.2-4h1.3l1.2 3.9 1.3-3.9h2.2zM175 8.9c.7 0 1.3.6 1.3 1.3 0 .7-.5 1.3-1.3 1.3s-1.3-.6-1.3-1.3c.1-.7.6-1.3 1.3-1.3zm1.1 10.6H174v-7.1h2.1v7.1zM180.3 12.4h2.2v2h-2.2v2.4c0 .5.3.8.8.8h1.4v2h-1.8c-1.4 0-2.4-.9-2.4-2.4v-2.7h-1v-1.1l1.9-2.4h1.1v1.4zM190.4 15.1v4.4h-2.1v-4c0-.7-.4-1.2-1.2-1.2-.7 0-1.2.5-1.2 1.2v4h-2.1V8.8h2.1v4c.5-.3 1-.5 1.7-.5 1.6-.1 2.8 1.1 2.8 2.8zM199.4 12.2c1.3 0 2.5.6 3.1 1.7l-1.7 1.2c-.3-.5-.8-.8-1.4-.8-.9 0-1.6.7-1.6 1.7s.7 1.7 1.6 1.7c.6 0 1.1-.3 1.4-.8l1.7 1.2c-.6 1-1.7 1.7-3.1 1.7-2.1 0-3.7-1.6-3.7-3.7s1.6-3.9 3.7-3.9zM206.8 12.2c2.1 0 3.7 1.6 3.7 3.7 0 2-1.6 3.7-3.7 3.7s-3.7-1.7-3.7-3.7 1.5-3.7 3.7-3.7zm0 5.4c.9 0 1.6-.7 1.6-1.6 0-.9-.7-1.7-1.6-1.7s-1.6.7-1.6 1.7c-.1.8.6 1.6 1.6 1.6zM218.3 15v4.4h-2.1v-4c0-.7-.4-1.2-1.2-1.2s-1.2.5-1.2 1.2v4h-2.1v-7.1h2v.4c.5-.4 1-.6 1.7-.6 1.8.1 2.9 1.3 2.9 2.9zM220.8 14.4h-1.4v-2h1.4V11c0-1.4.9-2.2 2.3-2.2h1.6v2h-1.2c-.3 0-.6.2-.6.6v1.1h1.8v2h-1.8v5.1h-2.1v-5.2zm6.1-5.5c.7 0 1.3.6 1.3 1.3 0 .7-.5 1.3-1.3 1.3s-1.3-.6-1.3-1.3c0-.7.6-1.3 1.3-1.3zm1.1 10.6h-2.1v-7.1h2.1v7.1zM236.7 8.8v10.7h-2V19c-.5.4-1.1.6-1.8.6-2 0-3.5-1.6-3.5-3.7s1.4-3.7 3.5-3.7c.7 0 1.3.2 1.8.5v-4h2zm-2 7.1c0-1-.7-1.7-1.7-1.7-.9 0-1.6.7-1.6 1.7 0 .9.7 1.7 1.6 1.7 1 0 1.7-.7 1.7-1.7zM245.1 16.7h-4.9c.2.6.8 1 1.6 1 .7 0 1.2-.3 1.5-.8l1.7 1c-.6 1.1-1.8 1.7-3.2 1.7-2.1 0-3.7-1.6-3.7-3.7s1.5-3.7 3.6-3.7 3.5 1.6 3.5 3.7c-.1.3-.1.5-.1.8zm-5-1.5h3c-.2-.7-.8-1-1.5-1-.8-.1-1.3.3-1.5 1zM253 15v4.4h-2v-4c0-.7-.4-1.2-1.2-1.2s-1.2.5-1.2 1.2v4h-2.1v-7.1h2v.4c.5-.4 1-.6 1.7-.6 1.7.1 2.8 1.3 2.8 2.9zM258 12.2c1.3 0 2.5.6 3.1 1.7l-1.7 1.2c-.3-.5-.8-.8-1.4-.8-.9 0-1.6.7-1.6 1.7s.7 1.7 1.6 1.7c.6 0 1.1-.3 1.4-.8l1.7 1.2c-.6 1-1.7 1.7-3.1 1.7-2.1 0-3.7-1.6-3.7-3.7s1.6-3.9 3.7-3.9zM268.7 16.7h-4.9c.2.6.8 1 1.6 1 .7 0 1.2-.3 1.5-.8l1.7 1c-.6 1.1-1.8 1.7-3.2 1.7-2.1 0-3.7-1.6-3.7-3.7s1.5-3.7 3.6-3.7 3.5 1.6 3.5 3.7c0 .3 0 .5-.1.8zm-4.9-1.5h3c-.2-.7-.8-1-1.5-1-.8-.1-1.4.3-1.5 1zM271.2 17c.7 0 1.3.6 1.3 1.3 0 .7-.5 1.3-1.3 1.3s-1.3-.6-1.3-1.3c0-.8.6-1.3 1.3-1.3z"/></g></svg>