<svg baseProfile="tiny" xmlns="http://www.w3.org/2000/svg" viewBox="0 0 320 50" overflow="visible"><g fill="#454547"><path d="M85.3 28.7h-1.8V28H88v.7h-1.9v5.4h-.8v-5.4zM88.2 31.1v-1.4h.7v.9c.2-.6.7-1 1.2-1h.2v.7H90c-.6 0-1 .4-1.1 1V34h-.8v-2.9zM94.8 32.9v1.2h-.7v-.7c-.2.4-.7.8-1.4.8s-1.5-.4-1.5-1.9v-2.5h.8v2.4c0 .8.3 1.4 1 1.4.5 0 .9-.4 1-.7 0-.1.1-.3.1-.4v-2.7h.8v3.1zM96 33.1c.4.2.9.4 1.4.4.8 0 1.3-.4 1.3-1s-.3-.9-1.1-1.2c-1-.4-1.6-.9-1.6-1.7 0-.9.8-1.6 2-1.6.6 0 1.1.1 1.3.3l-.3.5c-.2-.1-.6-.3-1.2-.3-.8 0-1.1.5-1.1.9 0 .6.4.8 1.2 1.2 1 .4 1.5.9 1.5 1.8s-.7 1.7-2.1 1.7c-.6 0-1.2-.2-1.5-.4l.2-.6zM101.4 28.5v1.3h1.1v.6h-1.1v2.3c0 .5.2.8.6.8.2 0 .4 0 .5-.1v.6c-.2.1-.4.1-.7.1-.4 0-.7-.1-.9-.3-.2-.2-.3-.6-.3-1.1v-2.4h-.6v-.6h.7v-1l.7-.2zM105.9 34.1l-.1-.5c-.2.3-.7.6-1.3.6-.9 0-1.3-.6-1.3-1.3 0-1.1.9-1.6 2.6-1.6v-.1c0-.4-.1-1-1-1-.4 0-.8.1-1.1.3l-.2-.5c.4-.2.9-.4 1.4-.4 1.3 0 1.7.9 1.7 1.8V33c0 .4 0 .7.1 1h-.8zm-.1-2.3c-.9 0-1.8.1-1.8 1 0 .5.3.8.7.8.6 0 .9-.4 1.1-.7v-1.1zM111.6 29.7v3.7c0 1-.2 1.6-.6 2-.4.4-1 .5-1.6.5-.5 0-1.1-.1-1.4-.4l.2-.6c.3.2.7.3 1.3.3.8 0 1.4-.4 1.4-1.5v-.5c-.2.4-.7.7-1.4.7-1.1 0-1.9-.9-1.9-2.1 0-1.5 1-2.3 2-2.3.8 0 1.2.4 1.4.8v-.7h.6zm-.9 1.7V31c-.1-.5-.5-.8-1.1-.8-.8 0-1.3.6-1.3 1.6 0 .9.4 1.6 1.3 1.6.5 0 .9-.3 1.1-.8 0-.1.1-.3.1-.4v-.8zM113.3 32c0 1.1.7 1.5 1.5 1.5.6 0 .9-.1 1.2-.2l.1.6c-.3.1-.8.3-1.4.3-1.3 0-2.1-.9-2.1-2.2s.8-2.4 2-2.4c1.4 0 1.8 1.3 1.8 2.1v.4h-3.1zm2.3-.5c0-.5-.2-1.3-1.1-1.3-.8 0-1.2.7-1.2 1.3h2.3zM119 28v.4h-.8v2h-.5v-2h-.7V28h2zm2.7 2.4l-.1-1.4v-.7c-.1.2-.1.5-.2.7l-.4 1.4h-.5l-.4-1.4c0-.2-.1-.5-.2-.7v.7l-.1 1.4h-.5l.2-2.4h.7l.4 1.2c.1.2.1.4.2.6.1-.2.1-.4.2-.6l.4-1.2h.7l.2 2.4h-.6zM125.7 28.5c0 .3-.2.5-.5.5s-.5-.2-.5-.5.2-.5.5-.5.5.2.5.5zm-.9 5.6v-4.4h.8v4.4h-.8zM126.8 33.3c.2.2.6.3 1 .3.6 0 .8-.3.8-.6 0-.4-.2-.6-.8-.8-.8-.3-1.2-.7-1.2-1.2 0-.7.6-1.3 1.5-1.3.4 0 .8.1 1.1.3l-.2.6c-.2-.1-.5-.3-.9-.3-.5 0-.7.3-.7.6 0 .4.3.5.8.7.8.3 1.1.7 1.1 1.3 0 .8-.6 1.3-1.6 1.3-.5 0-.9-.1-1.2-.3l.3-.6zM136.2 27.7v6.4h-.7v-.8c-.2.5-.8.9-1.5.9-1.1 0-1.9-.9-1.9-2.2 0-1.4.9-2.3 2-2.3.7 0 1.1.3 1.3.7v-2.6h.8zm-.8 3.8v-.3c-.1-.5-.5-.9-1.1-.9-.8 0-1.3.7-1.3 1.7 0 .9.4 1.6 1.3 1.6.5 0 1-.4 1.2-.9v-1.2zM137.9 32c0 1.1.7 1.5 1.5 1.5.6 0 .9-.1 1.2-.2l.1.6c-.3.1-.8.3-1.4.3-1.3 0-2.1-.9-2.1-2.2s.8-2.4 2-2.4c1.4 0 1.8 1.3 1.8 2.1v.4h-3.1zm2.3-.5c0-.5-.2-1.3-1.1-1.3-.8 0-1.2.7-1.2 1.3h2.3zM141.9 33.3c.2.2.6.3 1 .3.6 0 .8-.3.8-.6 0-.4-.2-.6-.8-.8-.8-.3-1.2-.7-1.2-1.2 0-.7.6-1.3 1.5-1.3.4 0 .8.1 1.1.3l-.2.6c-.2-.1-.5-.3-.9-.3-.5 0-.7.3-.7.6 0 .4.3.5.8.7.8.3 1.1.7 1.1 1.3 0 .8-.6 1.3-1.6 1.3-.5 0-.9-.1-1.2-.3l.3-.6zM146.4 28.5c0 .3-.2.5-.5.5s-.5-.2-.5-.5.2-.5.5-.5.5.2.5.5zm-.8 5.6v-4.4h.8v4.4h-.8zM151.4 29.7v3.7c0 1-.2 1.6-.6 2-.4.4-1 .5-1.6.5-.5 0-1.1-.1-1.4-.4l.2-.6c.3.2.7.3 1.3.3.8 0 1.4-.4 1.4-1.5v-.5c-.2.4-.7.7-1.4.7-1.1 0-1.9-.9-1.9-2.1 0-1.5 1-2.3 2-2.3.8 0 1.2.4 1.4.8v-.7h.6zm-.8 1.7V31c-.1-.5-.5-.8-1.1-.8-.8 0-1.3.6-1.3 1.6 0 .9.4 1.6 1.3 1.6.5 0 .9-.3 1.1-.8 0-.1.1-.3.1-.4v-.8zM152.6 30.9v-1.2h.7v.7c.2-.4.7-.8 1.4-.8.6 0 1.5.4 1.5 1.9v2.6h-.8v-2.5c0-.7-.3-1.3-1-1.3-.5 0-.9.4-1.1.8 0 .1-.1.2-.1.4v2.6h-.8v-3.2zM158.1 32c0 1.1.7 1.5 1.5 1.5.6 0 .9-.1 1.2-.2l.1.6c-.3.1-.8.3-1.4.3-1.3 0-2.1-.9-2.1-2.2s.8-2.4 2-2.4c1.4 0 1.8 1.3 1.8 2.1v.4h-3.1zm2.3-.5c0-.5-.2-1.3-1.1-1.3-.8 0-1.2.7-1.2 1.3h2.3zM165.9 27.7v6.4h-.7v-.8c-.2.5-.8.9-1.5.9-1.1 0-1.9-.9-1.9-2.2 0-1.4.9-2.3 2-2.3.7 0 1.1.3 1.3.7v-2.6h.8zm-.8 3.8v-.3c-.1-.5-.5-.9-1.1-.9-.8 0-1.3.7-1.3 1.7 0 .9.4 1.6 1.3 1.6.5 0 1-.4 1.2-.9v-1.2zM169.4 29.7l.6 2.2c.1.5.2.9.3 1.4.1-.4.2-.9.4-1.4l.7-2.2h.7l.7 2.2c.2.5.3 1 .4 1.4.1-.4.2-.9.3-1.4l.6-2.2h.8l-1.4 4.4h-.7l-.7-2.1c-.2-.5-.3-.9-.4-1.4-.1.5-.2 1-.4 1.4l-.7 2.1h-.7l-1.3-4.4h.8zM176.6 28.5c0 .3-.2.5-.5.5s-.5-.2-.5-.5.2-.5.5-.5.5.2.5.5zm-.9 5.6v-4.4h.8v4.4h-.8zM178.8 28.5v1.3h1.1v.6h-1.1v2.3c0 .5.2.8.6.8.2 0 .4 0 .5-.1v.6c-.2.1-.4.1-.7.1-.4 0-.7-.1-.9-.3-.2-.2-.3-.6-.3-1.1v-2.4h-.7v-.6h.7v-1l.8-.2zM180.8 27.7h.8v2.7c.1-.2.3-.4.6-.6.2-.1.5-.2.8-.2.6 0 1.5.4 1.5 1.9v2.6h-.8v-2.5c0-.7-.3-1.3-1-1.3-.5 0-.9.4-1.1.8 0 .1-.1.2-.1.4v2.6h-.8v-6.4zM188 29.7l1 2.6.3.9.3-.9.9-2.6h.8l-1.2 3.1c-.6 1.5-1 2.3-1.5 2.7-.4.3-.8.5-1 .5l-.2-.7c.2-.1.5-.2.7-.4.2-.2.5-.5.7-.9 0-.1.1-.1.1-.2 0 0 0-.1-.1-.2l-1.6-4h.8zM195.8 31.9c0 1.6-1.1 2.3-2.2 2.3-1.2 0-2.1-.9-2.1-2.2 0-1.5 1-2.3 2.2-2.3 1.3-.1 2.1.8 2.1 2.2zm-3.4 0c0 1 .5 1.7 1.3 1.7s1.3-.7 1.3-1.7c0-.7-.4-1.7-1.3-1.7s-1.3.9-1.3 1.7zM200.5 32.9v1.2h-.7v-.7c-.2.4-.7.8-1.4.8s-1.5-.4-1.5-1.9v-2.5h.8v2.4c0 .8.3 1.4 1 1.4.5 0 .9-.4 1-.7 0-.1.1-.3.1-.4v-2.7h.8v3.1zM204.6 28.5c0 .3-.2.5-.5.5s-.5-.2-.5-.5.2-.5.5-.5.5.2.5.5zm-.9 5.6v-4.4h.8v4.4h-.8zM205.8 30.9v-1.2h.7v.7c.2-.4.7-.8 1.4-.8.6 0 1.5.4 1.5 1.9v2.6h-.8v-2.5c0-.7-.3-1.3-1-1.3-.5 0-.9.4-1.1.8 0 .1-.1.2-.1.4v2.6h-.8v-3.2z"/></g><g fill="#454547"><path d="M84.1 39.9v-1.2h.7v.7c.2-.4.6-.8 1.4-.8.6 0 1 .4 1.2.9.1-.2.3-.4.5-.6.3-.2.5-.3 1-.3.6 0 1.4.4 1.4 1.9v2.6h-.8v-2.5c0-.8-.3-1.3-.9-1.3-.5 0-.8.3-.9.7 0 .1-.1.3-.1.4v2.7h-.8v-2.6c0-.7-.3-1.2-.9-1.2-.5 0-.9.4-1 .8 0 .1-.1.3-.1.4v2.6H84v-3.2zM92.5 37.5c0 .3-.2.5-.5.5s-.5-.2-.5-.5.2-.5.5-.5.5.2.5.5zm-.9 5.6v-4.4h.8v4.4h-.8zM93.7 39.9v-1.2h.7v.7c.2-.4.7-.8 1.4-.8.6 0 1.5.4 1.5 1.9v2.6h-.8v-2.5c0-.7-.3-1.3-1-1.3-.5 0-.9.4-1.1.8 0 .1-.1.2-.1.4v2.6h-.8v-3.2zM102.5 36.7v6.4h-.7v-.8c-.2.5-.8.9-1.5.9-1.1 0-1.9-.9-1.9-2.2 0-1.5.9-2.3 2-2.3.7 0 1.1.3 1.3.7v-2.6h.8zm-.8 3.8v-.3c-.1-.5-.5-.9-1.1-.9-.8 0-1.3.7-1.3 1.7 0 .9.4 1.6 1.3 1.6.5 0 1-.4 1.2-.9v-1.2zM103.5 42.6c0-.3.2-.6.5-.6s.5.2.5.6c0 .3-.2.6-.5.6s-.5-.3-.5-.6z"/></g></svg>