<?xml version="1.0" encoding="utf-8"?>
<!-- Generator: Adobe Illustrator 27.4.0, SVG Export Plug-In . SVG Version: 6.00 Build 0)  -->
<svg version="1.1" baseProfile="tiny" id="Layer_1" xmlns="http://www.w3.org/2000/svg" xmlns:xlink="http://www.w3.org/1999/xlink"
	 x="0px" y="0px" viewBox="0 0 728 90" overflow="visible" xml:space="preserve">
<rect x="568" y="24.7" fill="#FAE07E" width="131.4" height="37.2"/>
<g>
	<path fill="#193062" d="M593.1,43.2v0.4c0,1.1-0.2,2-0.7,2.8c-0.5,0.8-1.1,1.5-1.9,2s-1.8,0.7-2.8,0.7c-1.1,0-2-0.2-2.9-0.7
		c-0.8-0.5-1.5-1.2-2-2c-0.5-0.9-0.7-1.8-0.7-2.9c0-1,0.2-2,0.7-2.9c0.5-0.9,1.2-1.5,2-2c0.9-0.5,1.8-0.7,2.9-0.7
		c0.7,0,1.4,0.1,2,0.3c0.6,0.2,1.2,0.5,1.7,0.9s0.9,0.9,1.2,1.5l-1.8,1.1c-0.3-0.5-0.7-1-1.2-1.3s-1.1-0.5-1.8-0.5
		c-0.7,0-1.3,0.2-1.8,0.5c-0.5,0.3-0.9,0.7-1.2,1.3c-0.3,0.5-0.5,1.1-0.5,1.8c0,0.7,0.1,1.3,0.4,1.9s0.7,1,1.2,1.3
		c0.5,0.3,1.1,0.5,1.8,0.5c0.7,0,1.3-0.2,1.9-0.5s0.9-0.8,1.2-1.3H587v-2H593.1z"/>
	<path fill="#193062" d="M594.8,38h8.5v2.1h-6.4v2.3h3.5v2.1h-3.5v2.4h6.4v2.1h-8.5V38z"/>
	<path fill="#193062" d="M607.6,40.1h-3.2V38h8.5v2.1h-3.2v8.8h-2.1V40.1z"/>
	<path fill="#193062" d="M624.3,47.3h-4.1l-0.5,1.6h-2.1l3.6-10.9h2.2l3.6,10.9h-2.2L624.3,47.3z M623.6,45.3l-1.4-4.1l-1.4,4.1
		H623.6z"/>
	<path fill="#193062" d="M643.5,46.9v2h-1l-1.4-1.1c-0.5,0.4-1,0.7-1.7,0.9c-0.6,0.2-1.3,0.3-2,0.3c-1.1,0-2-0.2-2.9-0.7
		c-0.9-0.5-1.5-1.2-2-2c-0.5-0.9-0.7-1.8-0.7-2.9s0.2-2,0.7-2.9c0.5-0.9,1.2-1.5,2-2c0.9-0.5,1.8-0.7,2.9-0.7s2,0.2,2.9,0.7
		c0.9,0.5,1.5,1.2,2,2c0.5,0.9,0.7,1.8,0.7,2.9c0,1-0.2,1.9-0.7,2.7L643.5,46.9z M639.3,46.5l-1.1-0.8l1.3-1.7l1.1,0.9
		c0.2-0.4,0.3-0.9,0.3-1.4c0-0.7-0.1-1.3-0.4-1.8s-0.7-1-1.2-1.3c-0.5-0.3-1.1-0.5-1.8-0.5c-0.7,0-1.3,0.2-1.8,0.5
		c-0.5,0.3-0.9,0.7-1.2,1.3c-0.3,0.5-0.5,1.1-0.5,1.8s0.1,1.3,0.5,1.8c0.3,0.5,0.7,1,1.2,1.3c0.5,0.3,1.1,0.5,1.8,0.5
		C638.2,47,638.8,46.8,639.3,46.5z"/>
	<path fill="#193062" d="M653.7,44.8c0,0.8-0.2,1.5-0.6,2.2s-0.9,1.2-1.6,1.5c-0.7,0.4-1.4,0.6-2.2,0.6c-0.8,0-1.6-0.2-2.3-0.6
		c-0.7-0.4-1.2-0.9-1.6-1.5c-0.4-0.7-0.6-1.4-0.6-2.2V38h2.1v6.7c0,0.4,0.1,0.8,0.3,1.2c0.2,0.3,0.5,0.6,0.8,0.8
		c0.3,0.2,0.7,0.3,1.2,0.3c0.4,0,0.8-0.1,1.2-0.3c0.3-0.2,0.6-0.5,0.8-0.8c0.2-0.3,0.3-0.7,0.3-1.2V38h2.1V44.8z"/>
	<path fill="#193062" d="M661,37.8c1.1,0,2,0.2,2.9,0.7c0.9,0.5,1.5,1.2,2,2c0.5,0.9,0.7,1.8,0.7,2.9s-0.2,2-0.7,2.9
		c-0.5,0.9-1.2,1.5-2,2c-0.9,0.5-1.8,0.7-2.9,0.7c-1.1,0-2-0.2-2.9-0.7c-0.9-0.5-1.5-1.2-2-2c-0.5-0.9-0.7-1.8-0.7-2.9
		s0.2-2,0.7-2.9c0.5-0.9,1.2-1.5,2-2C658.9,38,659.9,37.8,661,37.8z M661,47c0.7,0,1.3-0.2,1.8-0.5c0.5-0.3,0.9-0.7,1.2-1.3
		c0.3-0.5,0.4-1.1,0.4-1.8s-0.1-1.3-0.4-1.8s-0.7-1-1.2-1.3c-0.5-0.3-1.1-0.5-1.8-0.5c-0.7,0-1.3,0.2-1.8,0.5
		c-0.5,0.3-0.9,0.7-1.2,1.3c-0.3,0.5-0.5,1.1-0.5,1.8s0.1,1.3,0.5,1.8c0.3,0.5,0.7,1,1.2,1.3C659.7,46.8,660.3,47,661,47z"/>
	<path fill="#193062" d="M670.4,40.1h-3.2V38h8.5v2.1h-3.2v8.8h-2.1V40.1z"/>
	<path fill="#193062" d="M677,38h8.5v2.1h-6.4v2.3h3.5v2.1h-3.5v2.4h6.4v2.1H677V38z"/>
</g>
</svg>
