<svg baseProfile="tiny" xmlns="http://www.w3.org/2000/svg" viewBox="0 0 300 50" overflow="visible"><g fill="#193062"><path d="M85.5 14.3h-3.1l-.4 1.1h-1.8L83 6.7h2l2.8 8.8h-1.9l-.4-1.2zm-.5-1.8l-1-3-1 3h2zM95 12.4c0 1.8-1.2 3.1-3 3.1-.6 0-1.1-.2-1.5-.5v3h-1.8V9.4h1.7v.3c.4-.3.9-.5 1.5-.5 1.9.1 3.1 1.4 3.1 3.2zm-1.8 0c0-.8-.6-1.4-1.4-1.4-.8 0-1.4.6-1.4 1.4 0 .8.6 1.4 1.4 1.4.8 0 1.4-.6 1.4-1.4zM102.4 12.4c0 1.8-1.2 3.1-3 3.1-.6 0-1.1-.2-1.5-.5v3h-1.8V9.4h1.7v.3c.4-.3.9-.5 1.5-.5 1.9.1 3.1 1.4 3.1 3.2zm-1.7 0c0-.8-.6-1.4-1.4-1.4-.8 0-1.4.6-1.4 1.4 0 .8.6 1.4 1.4 1.4.8 0 1.4-.6 1.4-1.4zM103.6 6.3h1.8v9.1h-1.8V6.3zM112.4 9.4l-3.1 8.6h-1.9l1-2.7-2.1-5.9h1.9l1.2 3.3 1.2-3.3h1.8zM114.1 6.4c.6 0 1.1.5 1.1 1.1 0 .6-.5 1.1-1.1 1.1s-1.1-.5-1.1-1.1c0-.6.5-1.1 1.1-1.1zm.9 9h-1.8v-6h1.8v6zM122.2 11.7v3.8h-1.8V12c0-.6-.4-1-1-1s-1 .5-1 1v3.4h-1.8v-6h1.7v.3c.4-.3.9-.5 1.5-.5 1.4.1 2.4 1.1 2.4 2.5zM129.4 9.4v5.9c0 1.6-1.2 2.9-3 2.9-1.4 0-2.4-.8-2.8-1.9l1.6-.6c.2.5.6.8 1.2.8.7 0 1.2-.5 1.2-1.2v-.4c-.4.3-.9.4-1.4.4-1.6 0-2.8-1.3-2.8-3s1.2-3 2.8-3c.6 0 1.1.2 1.5.5v-.4h1.7zm-1.7 2.9c0-.7-.6-1.3-1.3-1.3-.7 0-1.3.6-1.3 1.3 0 .7.6 1.2 1.3 1.2.7 0 1.3-.5 1.3-1.2zM135 11.1h-1.2V9.4h1.2V8.2c0-1.2.8-1.9 1.9-1.9h1.4V8h-1c-.3 0-.5.2-.5.5v.9h1.5v1.7h-1.5v4.4H135v-4.4zM142 9.3c1.8 0 3.2 1.4 3.2 3.2 0 1.7-1.3 3.1-3.2 3.1-1.8 0-3.2-1.4-3.2-3.1 0-1.9 1.4-3.2 3.2-3.2zm0 4.5c.8 0 1.4-.6 1.4-1.4 0-.8-.6-1.4-1.4-1.4s-1.4.6-1.4 1.4c0 .8.6 1.4 1.4 1.4zM150.2 9.4v1.8h-.9c-.7 0-1.2.5-1.2 1.2v3.1h-1.8v-6h1.7v.5c.3-.4.9-.5 1.4-.5h.8zM154.8 6.7h1.9v6.9h5v1.8h-6.9V6.7zM163.7 6.4c.6 0 1.1.5 1.1 1.1 0 .6-.5 1.1-1.1 1.1s-1.1-.5-1.1-1.1c0-.6.4-1.1 1.1-1.1zm.9 9h-1.8v-6h1.8v6zM166.7 11.1h-1.2V9.4h1.2V8.2c0-1.2.8-1.9 1.9-1.9h1.4V8h-1c-.3 0-.5.2-.5.5v.9h1.5v1.7h-1.5v4.4h-1.8v-4.4zM176.6 13.1h-4.2c.2.5.7.9 1.4.9.6 0 1-.3 1.3-.7l1.4.9c-.5.9-1.5 1.5-2.7 1.5-1.8 0-3.1-1.4-3.1-3.1 0-1.8 1.3-3.2 3-3.2 1.8 0 3 1.3 3 3.1 0 .1-.1.4-.1.6zm-4.3-1.3h2.6c-.2-.6-.6-.9-1.3-.9-.6 0-1.1.3-1.3.9zM181.4 6.7h1.9v8.8h-1.9V6.7zM190.6 11.7v3.8h-1.8V12c0-.6-.4-1-1-1s-1 .5-1 1v3.4H185v-6h1.7v.3c.4-.3.9-.5 1.5-.5 1.4.1 2.4 1.1 2.4 2.5zM194.3 14c.5 0 .8-.2.8-.4s-.2-.3-.5-.3-.6 0-1.1-.1c-1.2-.2-1.7-.9-1.7-1.8 0-1.2 1-2.1 2.4-2.1s2.4.8 2.4 2H195c0-.3-.3-.4-.7-.4-.4 0-.7.2-.7.4s.1.3.4.3c.4 0 .6 0 1.1.1 1.2.1 1.7.9 1.7 1.8 0 1.2-1 2.1-2.5 2.1s-2.5-.9-2.5-2.1h1.7c0 .3.3.5.8.5zM203.5 9.4v6h-1.7v-.3c-.4.3-.9.5-1.5.5-1.4 0-2.4-1-2.4-2.4V9.4h1.8v3.4c0 .6.4 1 1 1s1-.5 1-1V9.4h1.8zM208.9 9.4v1.8h-.9c-.7 0-1.2.5-1.2 1.2v3.1H205v-6h1.7v.5c.3-.4.9-.5 1.4-.5h.8zM214.8 11.7v3.8H213v-.3c-.4.3-.8.5-1.5.5-1.2 0-2.1-.8-2.1-1.9 0-1.2.9-1.8 2.1-1.9l1.5-.1v-.1c0-.4-.4-.7-.9-.7-.4 0-.8.2-.9.6h-1.7c.1-1.3 1.1-2.2 2.6-2.2 1.6-.1 2.7.9 2.7 2.3zm-1.8 1.6v-.4l-1.2.1c-.4 0-.6.3-.6.5 0 .3.3.6.8.6.6 0 1-.3 1-.8zM221.9 11.7v3.8h-1.8V12c0-.6-.4-1-1-1s-1 .5-1 1v3.4h-1.8v-6h1.7v.3c.4-.3.9-.5 1.5-.5 1.4.1 2.4 1.1 2.4 2.5zM226.2 9.3c1.2 0 2.1.6 2.6 1.4l-1.4 1c-.3-.4-.7-.7-1.2-.7-.8 0-1.4.6-1.4 1.4 0 .8.6 1.4 1.4 1.4.5 0 .9-.3 1.2-.7l1.4 1c-.5.9-1.5 1.4-2.6 1.4-1.8 0-3.1-1.4-3.1-3.2s1.3-3 3.1-3zM235.3 13.1h-4.2c.2.5.7.9 1.4.9.6 0 1-.3 1.3-.7l1.4.9c-.5.9-1.5 1.5-2.7 1.5-1.8 0-3.1-1.4-3.1-3.1 0-1.8 1.3-3.2 3-3.2 1.8 0 3 1.3 3 3.1 0 .1 0 .4-.1.6zm-4.2-1.3h2.6c-.2-.6-.6-.9-1.3-.9-.7 0-1.2.3-1.3.9zM245.9 6.3v9.1h-1.7V15c-.4.3-.9.5-1.5.5-1.8 0-3-1.4-3-3.1 0-1.8 1.2-3.2 3-3.2.6 0 1.1.2 1.5.5V6.3h1.7zm-1.7 6.1c0-.8-.6-1.4-1.4-1.4-.8 0-1.4.6-1.4 1.4 0 .8.6 1.4 1.4 1.4.8 0 1.4-.6 1.4-1.4zM250.2 9.3c1.8 0 3.2 1.4 3.2 3.2 0 1.7-1.3 3.1-3.2 3.1s-3.2-1.4-3.2-3.1c.1-1.9 1.4-3.2 3.2-3.2zm0 4.5c.8 0 1.4-.6 1.4-1.4 0-.8-.6-1.4-1.4-1.4s-1.4.6-1.4 1.4c.1.8.6 1.4 1.4 1.4zM260.2 13.1H256c.2.5.7.9 1.4.9.6 0 1-.3 1.3-.7l1.4.9c-.5.9-1.5 1.5-2.7 1.5-1.8 0-3.1-1.4-3.1-3.1 0-1.8 1.3-3.2 3-3.2 1.8 0 3 1.3 3 3.1 0 .1 0 .4-.1.6zm-4.2-1.3h2.6c-.2-.6-.6-.9-1.3-.9-.7 0-1.2.3-1.3.9zM263.6 14c.5 0 .8-.2.8-.4s-.2-.3-.5-.3-.6 0-1.1-.1c-1.2-.2-1.7-.9-1.7-1.8 0-1.2 1-2.1 2.4-2.1s2.4.8 2.4 2h-1.7c0-.3-.3-.4-.7-.4-.4 0-.7.2-.7.4s.1.3.4.3c.4 0 .6 0 1.1.1 1.2.1 1.7.9 1.7 1.8 0 1.2-1 2.1-2.5 2.1s-2.5-.9-2.5-2.1h1.7c.1.3.4.5.9.5zM272.9 11.7v3.8h-1.8V12c0-.6-.4-1-1-1s-1 .5-1 1v3.4h-1.8v-6h1.7v.3c.4-.3.9-.5 1.5-.5 1.3.1 2.4 1.1 2.4 2.5zM275.8 7.6c0 .1 0 .3-.1.4l-.7 2h-1l.3-1.4c-.4-.1-.7-.5-.7-1 0-.6.4-1.1 1.1-1.1s1.1.5 1.1 1.1zM279.2 9.4h1.9v1.7h-1.9v2c0 .4.3.6.7.6h1.2v1.7h-1.6c-1.2 0-2.1-.8-2.1-2v-2.3h-.9v-.9l1.7-2.1h1v1.3z"/></g><g fill="#193062"><path d="M86.4 26.7v3.8h-1.8V27c0-.6-.4-1-1-1s-1 .5-1 1v3.4h-1.8v-9.1h1.8v3.4c.4-.3.9-.5 1.5-.5 1.3.1 2.3 1.1 2.3 2.5zM93 26.7v3.8h-1.7v-.3c-.4.3-.8.5-1.5.5-1.2 0-2.1-.8-2.1-1.9 0-1.2.9-1.8 2.1-1.9l1.5-.1v-.1c0-.4-.4-.7-.9-.7-.4 0-.8.2-.9.6h-1.7c.1-1.3 1.1-2.2 2.6-2.2 1.5-.1 2.6.9 2.6 2.3zm-1.7 1.6v-.4l-1.2.1c-.4 0-.6.3-.6.5 0 .3.3.6.8.6.6 0 1-.3 1-.8zM99.7 24.4l-2.2 6h-1.8l-2.2-6h1.9l1.2 3.3 1.2-3.3h1.9zM106 28.1h-4.2c.2.5.7.9 1.4.9.6 0 1-.3 1.3-.7l1.4.9c-.5.9-1.5 1.5-2.7 1.5-1.8 0-3.1-1.4-3.1-3.1 0-1.8 1.3-3.2 3-3.2 1.8 0 3 1.3 3 3.1 0 .1 0 .4-.1.6zm-4.2-1.3h2.6c-.2-.6-.6-.9-1.3-.9-.7 0-1.2.3-1.3.9zM112.7 24.4h1.9v1.7h-1.9v2c0 .4.3.6.7.6h1.2v1.7H113c-1.2 0-2.1-.8-2.1-2v-2.3h-.9v-.9l1.7-2.1h1v1.3zM118.5 24.3c1.8 0 3.2 1.4 3.2 3.2 0 1.7-1.3 3.1-3.2 3.1-1.8 0-3.2-1.4-3.2-3.1.1-1.9 1.4-3.2 3.2-3.2zm0 4.5c.8 0 1.4-.6 1.4-1.4 0-.8-.6-1.4-1.4-1.4s-1.4.6-1.4 1.4c0 .8.6 1.4 1.4 1.4zM132.6 27.4c0 1.8-1.2 3.1-3 3.1-.6 0-1.1-.2-1.5-.5v.4h-1.7v-9.1h1.8v3.4c.4-.3.9-.5 1.5-.5 1.7.1 2.9 1.4 2.9 3.2zm-1.8 0c0-.8-.6-1.4-1.4-1.4-.8 0-1.4.6-1.4 1.4 0 .8.6 1.4 1.4 1.4.9 0 1.4-.6 1.4-1.4zM139.4 28.1h-4.2c.2.5.7.9 1.4.9.6 0 1-.3 1.3-.7l1.4.9c-.5.9-1.5 1.5-2.7 1.5-1.8 0-3.1-1.4-3.1-3.1 0-1.8 1.3-3.2 3-3.2 1.8 0 3 1.3 3 3.1 0 .1 0 .4-.1.6zm-4.2-1.3h2.6c-.2-.6-.6-.9-1.3-.9-.7 0-1.2.3-1.3.9zM146.8 24.3c1.2 0 2.1.6 2.6 1.4l-1.4 1c-.3-.4-.7-.7-1.2-.7-.8 0-1.4.6-1.4 1.4 0 .8.6 1.4 1.4 1.4.5 0 .9-.3 1.2-.7l1.4 1c-.5.9-1.5 1.4-2.6 1.4-1.8 0-3.1-1.4-3.1-3.2 0-1.7 1.3-3 3.1-3zM153.2 24.3c1.8 0 3.2 1.4 3.2 3.2 0 1.7-1.3 3.1-3.2 3.1s-3.2-1.4-3.2-3.1c0-1.9 1.3-3.2 3.2-3.2zm0 4.5c.8 0 1.4-.6 1.4-1.4 0-.8-.6-1.4-1.4-1.4s-1.4.6-1.4 1.4c0 .8.6 1.4 1.4 1.4zM166.3 26.5v3.9h-1.8v-3.6c0-.5-.3-.9-.9-.9-.5 0-.9.4-.9.9v3.6H161v-3.6c0-.5-.3-.9-.9-.9-.5 0-.9.4-.9.9v3.6h-1.8v-6h1.7v.3c.4-.3.8-.4 1.4-.4.6 0 1.2.2 1.6.6.4-.4 1-.6 1.7-.6 1.5 0 2.5.9 2.5 2.2zM174.1 27.4c0 1.8-1.2 3.1-3 3.1-.6 0-1.1-.2-1.5-.5v3h-1.8v-8.6h1.7v.3c.4-.3.9-.5 1.5-.5 1.9.1 3.1 1.4 3.1 3.2zm-1.7 0c0-.8-.6-1.4-1.4-1.4-.8 0-1.4.6-1.4 1.4 0 .8.6 1.4 1.4 1.4.8 0 1.4-.6 1.4-1.4zM175.3 21.3h1.8v9.1h-1.8v-9.1zM179.6 21.4c.6 0 1.1.5 1.1 1.1 0 .6-.5 1.1-1.1 1.1s-1.1-.5-1.1-1.1c0-.6.4-1.1 1.1-1.1zm.9 9h-1.8v-6h1.8v6zM184.8 24.3c1.2 0 2.1.6 2.6 1.4l-1.4 1c-.3-.4-.7-.7-1.2-.7-.8 0-1.4.6-1.4 1.4 0 .8.6 1.4 1.4 1.4.5 0 .9-.3 1.2-.7l1.4 1c-.5.9-1.5 1.4-2.6 1.4-1.8 0-3.1-1.4-3.1-3.2-.1-1.7 1.3-3 3.1-3zM193.3 26.7v3.8h-1.7v-.3c-.4.3-.8.5-1.5.5-1.2 0-2.1-.8-2.1-1.9 0-1.2.9-1.8 2.1-1.9l1.5-.1v-.1c0-.4-.4-.7-.9-.7-.4 0-.8.2-.9.6h-1.7c.1-1.3 1.1-2.2 2.6-2.2 1.6-.1 2.6.9 2.6 2.3zm-1.7 1.6v-.4l-1.2.1c-.4 0-.6.3-.6.5 0 .3.3.6.8.6.6 0 1-.3 1-.8zM196.8 24.4h1.9v1.7h-1.9v2c0 .4.3.6.7.6h1.2v1.7h-1.6c-1.2 0-2.1-.8-2.1-2v-2.3h-.9v-.9l1.7-2.1h1v1.3zM205.5 28.1h-4.2c.2.5.7.9 1.4.9.6 0 1-.3 1.3-.7l1.4.9c-.5.9-1.5 1.5-2.7 1.5-1.8 0-3.1-1.4-3.1-3.1 0-1.8 1.3-3.2 3-3.2 1.8 0 3 1.3 3 3.1-.1.1-.1.4-.1.6zm-4.3-1.3h2.6c-.2-.6-.6-.9-1.3-.9-.6 0-1.1.3-1.3.9zM212.6 21.3v9.1h-1.7V30c-.4.3-.9.5-1.5.5-1.8 0-3-1.4-3-3.1 0-1.8 1.2-3.2 3-3.2.6 0 1.1.2 1.5.5v-3.4h1.7zm-1.7 6.1c0-.8-.6-1.4-1.4-1.4-.8 0-1.4.6-1.4 1.4 0 .8.6 1.4 1.4 1.4.8 0 1.4-.6 1.4-1.4zM215.1 28.3c.6 0 1.1.5 1.1 1.1 0 .6-.5 1.1-1.1 1.1s-1.1-.5-1.1-1.1c0-.6.5-1.1 1.1-1.1z"/></g></svg>