<svg baseProfile="tiny" xmlns="http://www.w3.org/2000/svg" viewBox="0 0 300 50" overflow="visible"><g fill="#454547"><path d="M80.3 36.6h3.1v.6H81v1.9h2.2v.6H81v2.6h-.7v-5.7zM85 37c0 .3-.2.5-.5.5s-.5-.2-.5-.5.2-.5.5-.5c.3.1.5.3.5.5zm-.8 5.3v-4.1h.7v4.1h-.7zM86.1 39.3v-1.1h.7v.7c.2-.4.7-.8 1.4-.8.6 0 1.5.3 1.5 1.8v2.5H89V40c0-.7-.2-1.2-1-1.2-.5 0-.9.3-1 .8 0 .1-.1.2-.1.3v2.5h-.7v-3.1zM91.7 37c0 .3-.2.5-.5.5s-.5-.2-.5-.5.2-.5.5-.5c.3.1.5.3.5.5zm-.8 5.3v-4.1h.7v4.1h-.7zM92.7 41.5c.2.1.6.3 1 .3.5 0 .8-.3.8-.6 0-.4-.2-.6-.8-.8-.7-.3-1.1-.7-1.1-1.2 0-.7.5-1.2 1.4-1.2.4 0 .8.1 1 .3l-.2.5c-.2-.1-.5-.2-.8-.2-.4 0-.7.3-.7.6s.2.5.8.7c.7.3 1.1.6 1.1 1.2 0 .7-.6 1.2-1.5 1.2-.5 0-.9-.1-1.2-.3l.2-.5zM96.2 36.3h.8v2.6c.1-.2.3-.4.5-.5.2-.1.5-.2.8-.2.6 0 1.4.3 1.4 1.8v2.4H99V40c0-.7-.2-1.2-1-1.2-.5 0-.9.3-1 .7 0 .1-.1.2-.1.4v2.5h-.7v-6.1zM103 38.2l.9 2.4c.1.3.2.6.3.8.1-.2.2-.6.3-.9l.8-2.4h.8L105 41c-.5 1.4-.9 2.1-1.4 2.6-.4.3-.7.5-.9.5l-.2-.6c.2-.1.4-.2.7-.4.2-.2.5-.5.6-.8 0-.1.1-.1.1-.2 0 0 0-.1-.1-.2l-1.5-3.8h.7zM110.4 40.2c0 1.5-1.1 2.2-2 2.2-1.1 0-2-.8-2-2.1 0-1.4.9-2.2 2-2.2 1.2 0 2 .8 2 2.1zm-3.3 0c0 .9.5 1.6 1.2 1.6s1.2-.7 1.2-1.6c0-.7-.3-1.6-1.2-1.6s-1.2.9-1.2 1.6zM114.8 41.2v1.1h-.7v-.7c-.2.3-.6.8-1.4.8-.6 0-1.4-.4-1.4-1.8v-2.4h.7v2.3c0 .8.2 1.3.9 1.3.5 0 .9-.3 1-.7 0-.1.1-.2.1-.4v-2.5h.7v3zM116 39.5v-1.3h.7v.8c.2-.6.6-.9 1.1-.9h.2v.7h-.3c-.5 0-.9.4-1 1v2.5h-.7v-2.8zM120.6 39.3v-1.1h.7v.7c.2-.4.7-.8 1.4-.8.6 0 1.5.3 1.5 1.8v2.5h-.7V40c0-.7-.2-1.2-1-1.2-.5 0-.9.3-1 .8 0 .1-.1.2-.1.3v2.5h-.7v-3.1zM129 40.2c0 1.5-1.1 2.2-2 2.2-1.1 0-2-.8-2-2.1 0-1.4.9-2.2 2-2.2 1.2 0 2 .8 2 2.1zm-3.2 0c0 .9.5 1.6 1.2 1.6s1.2-.7 1.2-1.6c0-.7-.3-1.6-1.2-1.6s-1.2.9-1.2 1.6zM131.8 39.7v.6h-2.1v-.6h2.1zM135.8 42.1c-.2.1-.6.2-1.2.2-1.2 0-2-.8-2-2.1s.9-2.2 2.2-2.2c.4 0 .8.1 1 .2l-.2.6c-.2-.1-.5-.2-.9-.2-.9 0-1.5.7-1.5 1.6 0 1 .6 1.5 1.4 1.5.4 0 .7-.1.9-.2l.3.6zM140.3 40.2c0 1.5-1.1 2.2-2 2.2-1.1 0-2-.8-2-2.1 0-1.4.9-2.2 2-2.2 1.2 0 2 .8 2 2.1zm-3.2 0c0 .9.5 1.6 1.2 1.6s1.2-.7 1.2-1.6c0-.7-.3-1.6-1.2-1.6s-1.2.9-1.2 1.6zM141.2 41.5c.2.1.6.3 1 .3.5 0 .8-.3.8-.6 0-.4-.2-.6-.8-.8-.7-.3-1.1-.7-1.1-1.2 0-.7.5-1.2 1.4-1.2.4 0 .8.1 1 .3l-.2.5c-.2-.1-.5-.2-.8-.2-.4 0-.7.3-.7.6s.2.5.8.7c.7.3 1.1.6 1.1 1.2 0 .7-.6 1.2-1.5 1.2-.5 0-.9-.1-1.2-.3l.2-.5zM145.6 37v1.2h1.1v.6h-1.1V41c0 .5.1.8.6.8.2 0 .3 0 .4-.1v.6c-.1.1-.4.1-.7.1-.3 0-.6-.1-.8-.3-.2-.2-.3-.6-.3-1.1v-2.2h-.6v-.6h.6v-1l.8-.2zM152.1 41.7c-.2.4-.7.7-1.4.7-1 0-1.7-.8-1.7-2.1 0-1.5 1-2.2 1.9-2.2.6 0 1.1.3 1.3.7v-.6h.7V44h-.7v-2.3zm0-1.9v-.3c-.1-.5-.5-.8-1.1-.8-.8 0-1.2.7-1.2 1.6 0 .8.4 1.5 1.2 1.5.5 0 .9-.3 1.1-.8 0-.1.1-.2.1-.4v-.8zM157.5 41.2v1.1h-.7v-.7c-.2.3-.6.8-1.4.8-.6 0-1.4-.4-1.4-1.8v-2.4h.7v2.3c0 .8.2 1.3.9 1.3.5 0 .8-.3 1-.7 0-.1.1-.2.1-.4v-2.5h.7v3zM162.5 40.2c0 1.5-1.1 2.2-2 2.2-1.1 0-2-.8-2-2.1 0-1.4.9-2.2 2-2.2 1.2 0 2 .8 2 2.1zm-3.3 0c0 .9.5 1.6 1.2 1.6s1.2-.7 1.2-1.6c0-.7-.3-1.6-1.2-1.6s-1.2.9-1.2 1.6zM164.3 37v1.2h1.1v.6h-1.1V41c0 .5.1.8.6.8.2 0 .3 0 .4-.1v.6c-.1.1-.4.1-.7.1-.3 0-.6-.1-.8-.3-.2-.2-.3-.6-.3-1.1v-2.2h-.6v-.6h.6v-1l.8-.2zM166.6 40.4c0 1 .7 1.4 1.4 1.4.5 0 .9-.1 1.1-.2l.1.5c-.3.1-.7.3-1.4.3-1.3 0-2-.8-2-2.1 0-1.2.7-2.2 1.9-2.2 1.3 0 1.7 1.2 1.7 1.9v.3h-2.8zm2.2-.6c0-.5-.2-1.2-1-1.2s-1.1.7-1.1 1.2h2.1zM170.2 41.9c0-.3.2-.5.5-.5s.5.2.5.5-.2.5-.5.5-.5-.2-.5-.5z"/></g></svg>