<svg baseProfile="tiny" xmlns="http://www.w3.org/2000/svg" viewBox="0 0 300 50" overflow="visible"><g fill="#454547"><path d="M81 37.4h-1.7v-.6h4.2v.6h-1.8v5.1H81v-5.1zM83.7 39.7v-1.3h.7v.8c.2-.6.6-.9 1.1-.9h.2v.7h-.3c-.5 0-.9.4-1 1v2.5h-.7v-2.8zM89.9 41.4v1.1h-.7v-.7c-.2.3-.6.8-1.4.8-.6 0-1.4-.4-1.4-1.8v-2.4h.7v2.3c0 .8.2 1.3.9 1.3.5 0 .9-.3 1-.7 0-.1.1-.2.1-.4v-2.5h.7v3zM91.1 41.6c.3.2.8.4 1.3.4.8 0 1.2-.4 1.2-1 0-.5-.3-.8-1.1-1.1-.9-.3-1.5-.8-1.5-1.6 0-.9.7-1.6 1.9-1.6.6 0 1 .1 1.3.3l-.2.6c-.2-.1-.6-.3-1.1-.3-.8 0-1.1.5-1.1.9 0 .5.3.8 1.1 1.1 1 .4 1.5.8 1.5 1.7 0 .9-.7 1.6-2 1.6-.6 0-1.2-.2-1.5-.4l.2-.6zM96.2 37.2v1.2h1.1v.6h-1.1v2.2c0 .5.1.8.6.8.2 0 .3 0 .4-.1v.6c-.1.1-.4.1-.7.1-.3 0-.6-.1-.8-.3-.2-.2-.3-.6-.3-1.1V39h-.6v-.6h.6v-1l.8-.2zM100.4 42.5l-.1-.5c-.2.3-.7.6-1.3.6-.8 0-1.3-.6-1.3-1.2 0-1 .9-1.5 2.5-1.5v-.1c0-.3-.1-1-.9-1-.4 0-.8.1-1.1.3l-.2-.5c.3-.2.8-.4 1.4-.4 1.3 0 1.6.9 1.6 1.7v1.5c0 .4 0 .7.1 1h-.7zm-.1-2.1c-.8 0-1.7.1-1.7.9 0 .5.3.7.7.7.5 0 .9-.3 1-.7V40.4zM105.8 38.4v3.5c0 .9-.2 1.5-.6 1.9-.4.4-1 .5-1.5.5s-1-.1-1.4-.3l.2-.6c.3.2.7.3 1.2.3.8 0 1.3-.4 1.3-1.4v-.5c-.2.4-.7.7-1.3.7-1 0-1.8-.9-1.8-2 0-1.4.9-2.2 1.9-2.2.7 0 1.1.4 1.3.7v-.6h.7zM105 40v-.3c-.1-.4-.5-.8-1-.8-.7 0-1.2.6-1.2 1.6 0 .8.4 1.5 1.2 1.5.5 0 .9-.3 1-.8 0-.1.1-.3.1-.4V40zM107.4 40.6c0 1 .7 1.4 1.4 1.4.5 0 .9-.1 1.1-.2l.1.5c-.3.1-.7.3-1.4.3-1.3 0-2-.8-2-2.1 0-1.2.7-2.2 1.9-2.2 1.3 0 1.7 1.2 1.7 1.9v.3h-2.8zm2.2-.5c0-.5-.2-1.2-1-1.2s-1.1.7-1.1 1.2h2.1zM112.8 36.8v.4h-.7v1.9h-.5v-1.9h-.7v-.4h1.9zm2.5 2.3l-.1-1.4v-.6c-.1.2-.1.5-.2.7l-.4 1.3h-.5l-.4-1.3c0-.2-.1-.5-.2-.7v.6l-.1 1.4h-.4l.2-2.3h.7l.4 1.1c.1.2.1.3.2.6.1-.2.1-.4.2-.6l.4-1.1h.7l.2 2.3h-.7zM121.2 42.4c-.2.1-.6.2-1.2.2-1.2 0-2-.8-2-2.1s.9-2.2 2.2-2.2c.4 0 .8.1 1 .2l-.2.6c-.2-.1-.5-.2-.9-.2-.9 0-1.5.7-1.5 1.6 0 1 .6 1.5 1.4 1.5.4 0 .7-.1.9-.2l.3.6zM125.8 40.4c0 1.5-1.1 2.2-2 2.2-1.1 0-2-.8-2-2.1 0-1.4.9-2.2 2-2.2 1.2 0 2 .9 2 2.1zm-3.3.1c0 .9.5 1.6 1.2 1.6s1.2-.7 1.2-1.6c0-.7-.3-1.6-1.2-1.6s-1.2.8-1.2 1.6zM130.2 41.4v1.1h-.7v-.7c-.2.3-.6.8-1.4.8-.6 0-1.4-.4-1.4-1.8v-2.4h.7v2.3c0 .8.2 1.3.9 1.3.5 0 .9-.3 1-.7 0-.1.1-.2.1-.4v-2.5h.7v3zM131.4 36.5h.7v6h-.7v-6zM137 36.5v6.1h-.7v-.7c-.2.5-.7.8-1.4.8-1 0-1.8-.8-1.8-2.1 0-1.4.8-2.2 1.8-2.2.6 0 1.1.3 1.2.6v-2.5h.9zm-.8 3.6v-.3c-.1-.5-.5-.9-1.1-.9-.8 0-1.2.7-1.2 1.6 0 .8.4 1.5 1.2 1.5.5 0 1-.3 1.1-.9v-1zM140 36.5h.7v2.6c.1-.2.3-.4.5-.5.2-.1.5-.2.8-.2.6 0 1.4.3 1.4 1.8v2.4h-.7v-2.4c0-.7-.2-1.2-1-1.2-.5 0-.9.3-1 .7 0 .1-.1.2-.1.4v2.5h-.6v-6.1zM145.2 40.6c0 1 .7 1.4 1.4 1.4.5 0 .9-.1 1.1-.2l.1.5c-.3.1-.7.3-1.4.3-1.3 0-2-.8-2-2.1 0-1.2.7-2.2 1.9-2.2 1.3 0 1.7 1.2 1.7 1.9v.3h-2.8zm2.1-.5c0-.5-.2-1.2-1-1.2s-1.1.7-1.1 1.2h2.1zM149 36.5h.7v6h-.7v-6zM151 39.8v-1.3h.7v.7c.3-.5.8-.8 1.5-.8 1 0 1.7.8 1.7 2.1 0 1.5-.9 2.2-1.9 2.2-.5 0-1-.2-1.3-.6v2.2h-.7v-4.5zm.7 1.1v.3c.1.5.6.9 1.1.9.8 0 1.2-.6 1.2-1.6 0-.8-.4-1.5-1.2-1.5-.5 0-1 .4-1.1.9 0 .1-.1.2-.1.3v.7zM157.6 39.5v-1.1h.7v.7c.2-.4.6-.8 1.3-.8.6 0 1 .3 1.2.8.1-.2.3-.4.5-.5.2-.2.5-.3.9-.3.5 0 1.4.4 1.4 1.8v2.4h-.7v-2.3c0-.8-.3-1.3-.9-1.3-.4 0-.8.3-.9.7 0 .1-.1.2-.1.4v2.5h-.7V40c0-.7-.3-1.1-.9-1.1-.5 0-.8.4-.9.7 0 .1-.1.2-.1.4v2.5h-.7v-3zM167 42.5l-.1-.5c-.2.3-.7.6-1.3.6-.8 0-1.3-.6-1.3-1.2 0-1 .9-1.5 2.5-1.5v-.1c0-.3-.1-1-.9-1-.4 0-.8.1-1.1.3l-.2-.5c.3-.2.8-.4 1.4-.4 1.3 0 1.6.9 1.6 1.7v1.5c0 .4 0 .7.1 1h-.7zm-.1-2.1c-.8 0-1.7.1-1.7.9 0 .5.3.7.7.7.5 0 .9-.3 1-.7V40.4zM169.6 40.3c.1-.1.3-.3.4-.5l1.2-1.4h.9l-1.6 1.7 1.8 2.4h-.9l-1.4-2-.4.4v1.5h-.7v-6h.7v3.9zM173.2 40.6c0 1 .7 1.4 1.4 1.4.5 0 .9-.1 1.1-.2l.1.5c-.3.1-.7.3-1.4.3-1.3 0-2-.8-2-2.1 0-1.2.7-2.2 1.9-2.2 1.3 0 1.7 1.2 1.7 1.9v.3h-2.8zm2.2-.5c0-.5-.2-1.2-1-1.2s-1.1.7-1.1 1.2h2.1zM179.7 37.3c0 .3-.2.5-.5.5s-.5-.2-.5-.5.2-.5.5-.5.5.2.5.5zm-.8 5.2v-4.1h.7v4.1h-.7zM181.8 37.2v1.2h1.1v.6h-1.1v2.2c0 .5.1.8.6.8.2 0 .3 0 .4-.1v.6c-.1.1-.4.1-.7.1-.3 0-.6-.1-.8-.3-.2-.2-.3-.6-.3-1.1V39h-.6v-.6h.6v-1l.8-.2zM185.4 41.8c.2.1.6.3 1 .3.5 0 .8-.3.8-.6 0-.4-.2-.6-.8-.8-.7-.3-1.1-.7-1.1-1.2 0-.7.5-1.2 1.4-1.2.4 0 .8.1 1 .3l-.2.5c-.2-.1-.5-.2-.8-.2-.4 0-.7.3-.7.6s.2.5.8.7c.7.3 1.1.6 1.1 1.2 0 .7-.6 1.2-1.5 1.2-.5 0-.9-.1-1.2-.3l.2-.5zM189.7 37.3c0 .3-.2.5-.5.5s-.5-.2-.5-.5.2-.5.5-.5.5.2.5.5zm-.9 5.2v-4.1h.7v4.1h-.7zM190.8 39.5v-1.1h.7v.7c.2-.4.6-.8 1.3-.8.6 0 1 .3 1.2.8.1-.2.3-.4.5-.5.2-.2.5-.3.9-.3.5 0 1.4.4 1.4 1.8v2.4h-.8v-2.3c0-.8-.3-1.3-.9-1.3-.4 0-.8.3-.9.7 0 .1-.1.2-.1.4v2.5h-.7V40c0-.7-.3-1.1-.9-1.1-.5 0-.8.4-.9.7 0 .1-.1.2-.1.4v2.5h-.7v-3zM197.9 39.8v-1.3h.7v.7c.3-.5.8-.8 1.5-.8 1 0 1.7.8 1.7 2.1 0 1.5-.9 2.2-1.9 2.2-.5 0-1-.2-1.3-.6v2.2h-.7v-4.5zm.8 1.1v.3c.1.5.6.9 1.1.9.8 0 1.2-.6 1.2-1.6 0-.8-.4-1.5-1.2-1.5-.5 0-1 .4-1.1.9 0 .1-.1.2-.1.3v.7zM202.8 36.5h.7v6h-.7v-6zM205.2 40.6c0 1 .7 1.4 1.4 1.4.5 0 .9-.1 1.1-.2l.1.5c-.3.1-.7.3-1.4.3-1.3 0-2-.8-2-2.1 0-1.2.7-2.2 1.9-2.2 1.3 0 1.7 1.2 1.7 1.9v.3h-2.8zm2.2-.5c0-.5-.2-1.2-1-1.2s-1.1.7-1.1 1.2h2.1zM208.8 42.1c0-.3.2-.5.5-.5s.5.2.5.5-.2.5-.5.5-.5-.2-.5-.5z"/></g></svg>