<svg baseProfile="tiny" xmlns="http://www.w3.org/2000/svg" viewBox="0 0 300 50" overflow="visible"><path fill="#193062" d="M.2-.5h71.6V50H.2z"/><path fill="#FAE07E" d="M8.2 16.5h9.1V19H8.2z"/><path fill="#FFF" d="M18.1 16.5h2.2V19h-2.2z"/><path fill="#FAE07E" d="M8.2 19.7H15v2.5H8.2z"/><path fill="#FFF" d="M15.8 19.7h4.5v2.5h-4.5z"/><path fill="#FAE07E" d="M8.2 22.9h4.5v2.5H8.2z"/><path fill="#FFF" d="M13.5 22.9h6.8v2.5h-6.8z"/><path fill="#FAE07E" d="M8.2 26.1h2.2v2.5H8.2z"/><path fill="#FFF" d="M11.2 26.1h9.1v2.5h-9.1zM27.3 20.2h-2v-1.1h5.2v1.1h-2V26h-1.2z"/><path fill="none" d="M62 21.9c-.6 0-1.3.4-1.4 1.1h2.7c-.1-.7-.7-1.1-1.3-1.1zM50.5 22c-.9 0-1.5.7-1.5 1.6 0 .9.6 1.6 1.5 1.6s1.5-.7 1.5-1.6c-.1-.9-.6-1.6-1.5-1.6z"/><ellipse fill="none" cx="56.3" cy="23.5" rx="1.5" ry="1.5"/><path fill="#FFF" d="M30.2 21.1V26h1.1v-2.4c0-1 .6-1.5 1.2-1.5.2 0 .4 0 .5.1v-1.1h-.4c-.6 0-1.1.4-1.3.9v-.9h-1.1zM33.8 21.1V24c0 1.3.7 2.1 1.8 2.1.6 0 1.1-.3 1.4-.8v.7h1.1v-4.9H37v2.4c0 1.1-.5 1.6-1.2 1.6-.6 0-1-.5-1-1.3V21h-1zM41.4 25.1c-.7 0-1.3-.3-1.6-.9l-.9.7c.4.7 1.4 1.3 2.5 1.3 1.4 0 2.3-.8 2.3-2 0-1-.6-1.7-1.6-2l-.7-.3c-.7-.3-1.1-.5-1.1-1s.5-.8 1.1-.8c.5 0 1 .2 1.3.6l.8-.8c-.5-.6-1.2-1-2.1-1-1.3 0-2.3.7-2.3 2 0 1 .5 1.6 1.6 2l.8.3c.7.2 1 .6 1 1.1 0 .4-.4.8-1.1.8zM52.9 26v-4.9h-1.1v.7c-.2-.4-.8-.8-1.5-.8-1.3 0-2.4 1.2-2.4 2.6 0 1.4 1 2.6 2.4 2.6.7 0 1.3-.4 1.6-.8v.6h1zm-2.4-.8c-.9 0-1.5-.7-1.5-1.6 0-.9.6-1.6 1.5-1.6s1.5.7 1.5 1.6c-.1.9-.6 1.6-1.5 1.6zM56.2 27.2c-.7 0-1.2-.3-1.6-.7l-.7.8c.5.5 1.3.9 2.3.9 1.5 0 2.5-.8 2.5-2.5v-4.6h-1.1v.7c-.3-.4-.9-.8-1.6-.8-1.3 0-2.4 1.1-2.4 2.5s1 2.5 2.4 2.5c.7 0 1.3-.3 1.6-.8v.5c.1 1-.6 1.5-1.4 1.5zm.1-2.2c-.8 0-1.5-.6-1.5-1.5s.6-1.5 1.5-1.5 1.5.6 1.5 1.5-.7 1.5-1.5 1.5zM62.1 21c-1.5 0-2.6 1.1-2.6 2.6s1.1 2.6 2.6 2.6c1 0 1.8-.4 2.2-1.1l-.8-.6c-.3.4-.7.7-1.4.7-.8 0-1.5-.5-1.5-1.3h3.9v-.4c-.1-1.6-1.2-2.5-2.4-2.5zm-1.5 2c.1-.7.8-1.1 1.4-1.1.6 0 1.2.4 1.3 1.1h-2.7zM44.9 19.8v.6c0 .4-.3.7-.7.7h-.3v1h1v2.4c0 1.1.7 1.6 1.7 1.6.3 0 .6 0 .8-.1v-1c-.2.1-.4.1-.6.1-.6 0-.8-.2-.8-.8v-2.2h1.4v-1H46v-1.4h-1.1zM65.1 20.3l-.3-.5h-.1v.8h.1v-.5l.3.5.2-.5v.5h.2v-.8h-.2zM64.2 20.6v-.7h.3v-.1h-.7v.1h.3v.7z"/></svg>