<?xml version="1.0" encoding="utf-8"?>
<!-- Generator: Adobe Illustrator 27.4.0, SVG Export Plug-In . SVG Version: 6.00 Build 0)  -->
<svg version="1.1" baseProfile="tiny" id="Layer_1" xmlns="http://www.w3.org/2000/svg" xmlns:xlink="http://www.w3.org/1999/xlink"
	 x="0px" y="0px" viewBox="0 0 300 250" overflow="visible" xml:space="preserve">
<g>
	<path fill="#373535" d="M18.5,183.9c0,0.5-0.1,1-0.4,1.4s-0.6,0.8-1,1s-0.9,0.4-1.5,0.4c-0.6,0-1.1-0.1-1.5-0.4s-0.8-0.6-1-1.1
		s-0.4-1-0.4-1.5c0-0.6,0.1-1.1,0.4-1.5s0.6-0.8,1.1-1.1s1-0.4,1.5-0.4c0.5,0,1,0.1,1.5,0.4s0.8,0.6,1,1l-0.5,0.3
		c-0.2-0.3-0.5-0.6-0.8-0.8s-0.7-0.3-1.2-0.3c-0.5,0-0.9,0.1-1.2,0.3s-0.6,0.5-0.8,0.9s-0.3,0.8-0.3,1.2c0,0.5,0.1,0.9,0.3,1.2
		s0.5,0.7,0.8,0.9s0.8,0.3,1.2,0.3c0.4,0,0.7-0.1,1-0.2s0.6-0.3,0.8-0.6s0.3-0.5,0.4-0.9h-2.5v-0.6H18.5z"/>
	<path fill="#373535" d="M19.5,180.8h4.3v0.6h-3.7v2h2.2v0.6h-2.2v2h3.7v0.6h-4.3V180.8z"/>
	<path fill="#373535" d="M29.4,180.8v5.8h-0.6l-3.2-4.8v4.8H25v-5.8h0.6l3.2,4.8v-4.8H29.4z"/>
	<path fill="#373535" d="M32.4,184.1v0.6h-1.8v-0.6H32.4z"/>
	<path fill="#373535" d="M36.9,185c0,0.3-0.1,0.6-0.2,0.9s-0.4,0.5-0.6,0.6s-0.6,0.2-0.9,0.2c-0.3,0-0.7-0.1-0.9-0.2
		s-0.5-0.3-0.6-0.6s-0.2-0.5-0.2-0.9h0.6c0,0.2,0.1,0.4,0.2,0.6s0.2,0.3,0.4,0.4s0.4,0.1,0.6,0.1c0.2,0,0.4,0,0.6-0.1
		s0.3-0.2,0.4-0.4s0.1-0.4,0.1-0.6c0-0.2,0-0.4-0.1-0.6s-0.2-0.3-0.4-0.4s-0.4-0.1-0.6-0.1h-0.6v-0.6h0.6c0.2,0,0.4,0,0.6-0.1
		s0.3-0.2,0.4-0.4s0.1-0.3,0.1-0.5c0-0.2,0-0.4-0.1-0.5s-0.2-0.3-0.4-0.4s-0.4-0.1-0.6-0.1c-0.2,0-0.4,0-0.6,0.1s-0.3,0.2-0.4,0.3
		s-0.1,0.3-0.1,0.5h-0.6c0-0.3,0.1-0.6,0.2-0.8s0.3-0.4,0.6-0.6s0.5-0.2,0.9-0.2c0.3,0,0.6,0.1,0.9,0.2s0.5,0.3,0.6,0.6
		s0.2,0.5,0.2,0.8c0,0.3-0.1,0.5-0.2,0.8s-0.3,0.4-0.5,0.6c0.2,0.1,0.4,0.3,0.6,0.6S36.9,184.7,36.9,185z"/>
	<path fill="#373535" d="M41.9,182.6c0,0.2,0,0.5-0.1,0.7s-0.2,0.4-0.3,0.6l-1.8,2.7H39l1.5-2.2c-0.2,0-0.3,0.1-0.5,0.1
		c-0.4,0-0.7-0.1-1-0.2s-0.5-0.4-0.7-0.7s-0.2-0.6-0.2-1c0-0.4,0.1-0.7,0.2-1s0.4-0.5,0.7-0.7s0.6-0.2,1-0.2c0.4,0,0.7,0.1,1,0.2
		s0.5,0.4,0.7,0.7S41.9,182.2,41.9,182.6z M39.9,183.9c0.3,0,0.5-0.1,0.7-0.2s0.4-0.3,0.5-0.5s0.2-0.4,0.2-0.7
		c0-0.2-0.1-0.5-0.2-0.7s-0.3-0.4-0.5-0.5s-0.4-0.2-0.7-0.2s-0.5,0.1-0.7,0.2s-0.4,0.3-0.5,0.5s-0.2,0.4-0.2,0.7
		c0,0.3,0.1,0.5,0.2,0.7s0.3,0.4,0.5,0.5S39.7,183.9,39.9,183.9z"/>
	<path fill="#373535" d="M46.5,185c0,0.3-0.1,0.6-0.2,0.9s-0.4,0.5-0.6,0.6s-0.6,0.2-0.9,0.2c-0.3,0-0.7-0.1-0.9-0.2
		s-0.5-0.3-0.6-0.6s-0.2-0.5-0.2-0.9h0.6c0,0.2,0.1,0.4,0.2,0.6s0.2,0.3,0.4,0.4s0.4,0.1,0.6,0.1c0.2,0,0.4,0,0.6-0.1
		s0.3-0.2,0.4-0.4s0.1-0.4,0.1-0.6c0-0.2,0-0.4-0.1-0.6s-0.2-0.3-0.4-0.4s-0.4-0.1-0.6-0.1h-0.6v-0.6h0.6c0.2,0,0.4,0,0.6-0.1
		s0.3-0.2,0.4-0.4s0.1-0.3,0.1-0.5c0-0.2,0-0.4-0.1-0.5s-0.2-0.3-0.4-0.4s-0.4-0.1-0.6-0.1c-0.2,0-0.4,0-0.6,0.1s-0.3,0.2-0.4,0.3
		s-0.1,0.3-0.1,0.5H43c0-0.3,0.1-0.6,0.2-0.8s0.3-0.4,0.6-0.6s0.5-0.2,0.9-0.2c0.3,0,0.6,0.1,0.9,0.2s0.5,0.3,0.6,0.6
		s0.2,0.5,0.2,0.8c0,0.3-0.1,0.5-0.2,0.8s-0.3,0.4-0.5,0.6c0.2,0.1,0.4,0.3,0.6,0.6S46.5,184.7,46.5,185z"/>
	<path fill="#373535" d="M51.4,184.9c0,0.4-0.1,0.7-0.2,1s-0.4,0.5-0.7,0.7s-0.6,0.2-1,0.2c-0.4,0-0.7-0.1-1-0.2s-0.5-0.4-0.7-0.7
		s-0.2-0.6-0.2-0.9h0.6c0,0.2,0.1,0.5,0.2,0.6s0.3,0.3,0.5,0.4s0.4,0.2,0.7,0.2c0.3,0,0.5-0.1,0.7-0.2s0.4-0.3,0.5-0.4
		s0.2-0.4,0.2-0.7s-0.1-0.5-0.2-0.7s-0.3-0.3-0.5-0.5s-0.4-0.2-0.7-0.2h-1.6l0.4-2.8h2.9v0.6h-2.4l-0.2,1.6h1c0.4,0,0.7,0.1,0.9,0.2
		s0.5,0.4,0.7,0.7S51.4,184.5,51.4,184.9z"/>
	<path fill="#373535" d="M54,181.5l-1.6,1v-0.6l1.6-1h0.6v5.8H54V181.5z"/>
	<path fill="#373535" d="M59.8,186.1v0.6h-3.6v-0.5l2.4-2.5c0.2-0.2,0.3-0.4,0.4-0.6s0.1-0.4,0.1-0.6c0-0.2,0-0.4-0.1-0.6
		s-0.2-0.3-0.4-0.4s-0.4-0.1-0.6-0.1c-0.2,0-0.4,0-0.6,0.1s-0.3,0.2-0.4,0.4s-0.1,0.4-0.2,0.6h-0.6c0-0.3,0.1-0.6,0.2-0.9
		s0.4-0.5,0.6-0.6s0.6-0.2,0.9-0.2c0.3,0,0.6,0.1,0.9,0.2s0.5,0.4,0.6,0.6s0.2,0.6,0.2,0.9c0,0.3-0.1,0.6-0.2,0.8s-0.3,0.5-0.6,0.8
		l-1.9,2H59.8z"/>
	<path fill="#373535" d="M65,184.2v0.6h-1.1v1.8h-0.6v-1.8h-2.6v-0.5l2.6-3.5h0.7v3.4H65z M63.3,184.2v-2.5l-1.9,2.5H63.3z"/>
	<path fill="#373535" d="M66.3,185.8c0.1,0,0.2,0,0.3,0.1s0.1,0.2,0.1,0.3s0,0.2-0.1,0.3s-0.2,0.1-0.3,0.1s-0.2,0-0.3-0.1
		s-0.1-0.2-0.1-0.3s0-0.2,0.1-0.3S66.1,185.8,66.3,185.8z"/>
	<path fill="#373535" d="M71.4,186.1v0.6h-3.6v-0.5l2.4-2.5c0.2-0.2,0.3-0.4,0.4-0.6s0.1-0.4,0.1-0.6c0-0.2,0-0.4-0.1-0.6
		s-0.2-0.3-0.4-0.4s-0.4-0.1-0.6-0.1c-0.2,0-0.4,0-0.6,0.1s-0.3,0.2-0.4,0.4s-0.1,0.4-0.2,0.6h-0.6c0-0.3,0.1-0.6,0.2-0.9
		s0.4-0.5,0.6-0.6s0.6-0.2,0.9-0.2c0.3,0,0.6,0.1,0.9,0.2s0.5,0.4,0.6,0.6s0.2,0.6,0.2,0.9c0,0.3-0.1,0.6-0.2,0.8s-0.3,0.5-0.6,0.8
		l-1.9,2H71.4z"/>
</g>
</svg>
