<?xml version="1.0" encoding="utf-8"?>
<!-- Generator: Adobe Illustrator 27.4.0, SVG Export Plug-In . SVG Version: 6.00 Build 0)  -->
<svg version="1.1" baseProfile="tiny" id="Layer_1" xmlns="http://www.w3.org/2000/svg" xmlns:xlink="http://www.w3.org/1999/xlink"
	 x="0px" y="0px" viewBox="0 0 300 250" overflow="visible" xml:space="preserve">
<g>
	<path fill="#193062" d="M13.4,21.6h9.7v2.6h-7.1v2.3h3.9v2.6h-3.9V34h-2.7V21.6z"/>
	<path fill="#193062" d="M26,21.2c0.9,0,1.6,0.7,1.6,1.6c0,0.9-0.7,1.6-1.6,1.6s-1.6-0.7-1.6-1.6C24.5,21.9,25.1,21.2,26,21.2z
		 M27.3,34h-2.5v-8.6h2.5V34z"/>
	<path fill="#193062" d="M37.5,28.7V34H35v-4.8c0-0.8-0.5-1.5-1.4-1.5c-0.9,0-1.5,0.6-1.5,1.5V34h-2.5v-8.6H32v0.5
		c0.6-0.4,1.3-0.7,2.1-0.7C36,25.3,37.5,26.7,37.5,28.7z"/>
	<path fill="#193062" d="M48,21.1v13h-2.5v-0.5c-0.6,0.4-1.3,0.7-2.2,0.7c-2.5,0-4.2-2-4.2-4.5c0-2.5,1.8-4.5,4.2-4.5
		c0.8,0,1.6,0.2,2.1,0.6v-4.8H48z M45.5,29.7c0-1.2-0.8-2-2-2c-1.1,0-1.9,0.9-1.9,2c0,1.1,0.8,2,1.9,2
		C44.7,31.7,45.5,30.9,45.5,29.7z"/>
	<path fill="#193062" d="M55.3,21.6H58v9.8H65V34h-9.7V21.6z"/>
	<path fill="#193062" d="M67.9,21.2c0.9,0,1.6,0.7,1.6,1.6c0,0.9-0.7,1.6-1.6,1.6s-1.6-0.7-1.6-1.6C66.4,21.9,67,21.2,67.9,21.2z
		 M69.2,34h-2.5v-8.6h2.5V34z"/>
	<path fill="#193062" d="M72.3,27.8h-1.7v-2.4h1.7v-1.7c0-1.6,1.1-2.7,2.8-2.7h1.9v2.4h-1.5c-0.4,0-0.7,0.2-0.7,0.7v1.3h2.2v2.4
		h-2.2V34h-2.5V27.8z"/>
	<path fill="#193062" d="M86.2,30.6h-6c0.3,0.7,1,1.2,1.9,1.2c0.8,0,1.4-0.4,1.8-1l2,1.2c-0.7,1.3-2.1,2.1-3.8,2.1
		c-2.6,0-4.5-1.9-4.5-4.5c0-2.5,1.8-4.5,4.3-4.5c2.5,0,4.3,1.9,4.3,4.5C86.3,30,86.3,30.3,86.2,30.6z M80.2,28.8h3.6
		c-0.2-0.8-0.9-1.3-1.8-1.3C81.1,27.5,80.4,28,80.2,28.8z"/>
</g>
<g>
	<path fill="#193062" d="M13.4,45.6h2.7V58h-2.7V45.6z"/>
	<path fill="#193062" d="M26.4,52.7V58h-2.5v-4.8c0-0.8-0.5-1.5-1.4-1.5S21,52.4,21,53.2V58h-2.5v-8.6h2.5v0.5
		c0.6-0.4,1.3-0.7,2.1-0.7C25,49.3,26.4,50.7,26.4,52.7z"/>
	<path fill="#193062" d="M31.7,55.9c0.7,0,1.1-0.3,1.1-0.6c0-0.3-0.2-0.4-0.6-0.5c-0.4-0.1-0.9-0.1-1.5-0.2
		c-1.7-0.3-2.4-1.3-2.4-2.5c0-1.7,1.4-2.9,3.5-2.9c2,0,3.5,1.2,3.5,2.9h-2.4c0-0.4-0.4-0.6-1.1-0.6c-0.6,0-1,0.3-1,0.6
		c0,0.2,0.2,0.4,0.6,0.4c0.5,0.1,0.9,0.1,1.6,0.2c1.7,0.2,2.4,1.2,2.4,2.5c0,1.7-1.4,3-3.6,3c-2.1,0-3.6-1.2-3.6-3h2.4
		C30.5,55.7,30.9,55.9,31.7,55.9z"/>
	<path fill="#193062" d="M44.7,49.4V58h-2.5v-0.5c-0.6,0.4-1.3,0.7-2.1,0.7c-1.9,0-3.3-1.4-3.3-3.4v-5.4h2.5v4.9
		c0,0.8,0.5,1.4,1.4,1.4c0.9,0,1.4-0.6,1.4-1.4v-4.9H44.7z"/>
	<path fill="#193062" d="M52.3,49.4v2.5h-1.3c-1,0-1.6,0.7-1.6,1.7V58h-2.5v-8.6h2.5v0.8c0.5-0.6,1.3-0.8,2-0.8H52.3z"/>
	<path fill="#193062" d="M60.6,52.6V58h-2.5v-0.5c-0.5,0.5-1.2,0.6-2.1,0.6c-1.8,0-3-1.1-3-2.7c0-1.8,1.3-2.5,3-2.7l2.1-0.2v-0.1
		c0-0.6-0.6-1-1.3-1c-0.6,0-1.1,0.3-1.2,0.8h-2.4c0.1-1.8,1.6-3.1,3.6-3.1C59.1,49.3,60.6,50.7,60.6,52.6z M58.2,55v-0.5l-1.7,0.1
		c-0.6,0.1-0.9,0.4-0.9,0.8c0,0.4,0.4,0.8,1.1,0.8C57.6,56.2,58.2,55.7,58.2,55z"/>
	<path fill="#193062" d="M70.8,52.7V58h-2.5v-4.8c0-0.8-0.5-1.5-1.4-1.5c-0.9,0-1.5,0.6-1.5,1.5V58h-2.5v-8.6h2.5v0.5
		c0.6-0.4,1.3-0.7,2.1-0.7C69.3,49.3,70.8,50.7,70.8,52.7z"/>
	<path fill="#193062" d="M76.8,49.3c1.6,0,3,0.8,3.7,2l-2,1.4c-0.4-0.6-0.9-1-1.7-1c-1.1,0-1.9,0.9-1.9,2c0,1.1,0.8,2,1.9,2
		c0.7,0,1.3-0.4,1.7-1l2,1.4c-0.7,1.2-2.1,2-3.7,2c-2.6,0-4.4-2-4.4-4.5S74.2,49.3,76.8,49.3z"/>
	<path fill="#193062" d="M89.8,54.6h-6c0.3,0.7,1,1.2,1.9,1.2c0.8,0,1.4-0.4,1.8-1l2,1.2c-0.7,1.3-2.1,2.1-3.8,2.1
		c-2.6,0-4.5-1.9-4.5-4.5c0-2.5,1.8-4.5,4.3-4.5c2.5,0,4.3,1.9,4.3,4.5C89.9,54,89.9,54.3,89.8,54.6z M83.8,52.8h3.6
		c-0.2-0.8-0.9-1.3-1.8-1.3C84.7,51.6,84,52,83.8,52.8z"/>
	<path fill="#193062" d="M97.3,51.8h-1.7v-2.4h1.7v-1.7c0-1.6,1.1-2.7,2.8-2.7h1.9v2.4h-1.5c-0.4,0-0.7,0.2-0.7,0.7v1.3h2.2v2.4
		h-2.2V58h-2.5V51.8z"/>
	<path fill="#193062" d="M107.2,49.3c2.6,0,4.5,2,4.5,4.5c0,2.4-1.9,4.5-4.5,4.5c-2.6,0-4.5-2-4.5-4.5
		C102.7,51.2,104.6,49.3,107.2,49.3z M107.2,55.7c1.1,0,2-0.9,2-2c0-1.1-0.8-2-2-2c-1.1,0-2,0.9-2,2
		C105.2,54.9,106.1,55.7,107.2,55.7z"/>
	<path fill="#193062" d="M118.8,49.4v2.5h-1.3c-1,0-1.6,0.7-1.6,1.7V58h-2.5v-8.6h2.5v0.8c0.5-0.6,1.3-0.8,2-0.8H118.8z"/>
</g>
<g>
	<path fill="#193062" d="M20.9,73.4l-4.4,12.2h-2.6l1.4-3.8l-3-8.4h2.7l1.6,4.6l1.7-4.6H20.9z"/>
	<path fill="#193062" d="M25.8,73.3c2.6,0,4.5,2,4.5,4.5c0,2.4-1.9,4.5-4.5,4.5c-2.6,0-4.5-2-4.5-4.5C21.3,75.2,23.2,73.3,25.8,73.3
		z M25.8,79.7c1.1,0,2-0.9,2-2c0-1.1-0.8-2-2-2c-1.1,0-2,0.9-2,2C23.8,78.9,24.7,79.7,25.8,79.7z"/>
	<path fill="#193062" d="M39.8,73.4V82h-2.5v-0.5c-0.6,0.4-1.3,0.7-2.1,0.7c-1.9,0-3.3-1.4-3.3-3.4v-5.4h2.5v4.9
		c0,0.8,0.5,1.4,1.4,1.4c0.9,0,1.4-0.6,1.4-1.4v-4.9H39.8z"/>
	<path fill="#193062" d="M47.5,73.4v2.5h-1.3c-1,0-1.6,0.7-1.6,1.7V82H42v-8.6h2.5v0.8c0.5-0.6,1.3-0.8,2-0.8H47.5z"/>
	<path fill="#193062" d="M54.6,75.8h-1.7v-2.4h1.7v-1.7c0-1.6,1.1-2.7,2.8-2.7h1.9v2.4h-1.5c-0.4,0-0.7,0.2-0.7,0.7v1.3h2.2v2.4
		h-2.2V82h-2.5V75.8z"/>
	<path fill="#193062" d="M67.7,76.6V82h-2.5v-0.5c-0.5,0.5-1.2,0.6-2.1,0.6c-1.8,0-3-1.1-3-2.7c0-1.8,1.3-2.5,3-2.7l2.1-0.2v-0.1
		c0-0.6-0.6-1-1.3-1c-0.6,0-1.1,0.3-1.2,0.8h-2.4c0.1-1.8,1.6-3.1,3.6-3.1C66.2,73.3,67.7,74.7,67.7,76.6z M65.2,79v-0.5l-1.7,0.1
		c-0.6,0.1-0.9,0.4-0.9,0.8c0,0.4,0.4,0.8,1.1,0.8C64.6,80.2,65.2,79.7,65.2,79z"/>
	<path fill="#193062" d="M82.4,76.4V82h-2.5v-5c0-0.7-0.5-1.3-1.3-1.3c-0.7,0-1.2,0.6-1.2,1.3v5h-2.5v-5c0-0.7-0.5-1.3-1.2-1.3
		c-0.7,0-1.2,0.6-1.2,1.3v5h-2.5v-8.6h2.5v0.4c0.5-0.4,1.2-0.6,1.9-0.6c0.9,0,1.7,0.3,2.2,0.9c0.6-0.5,1.4-0.9,2.4-0.9
		C80.9,73.3,82.4,74.6,82.4,76.4z"/>
	<path fill="#193062" d="M85.8,69.2c0.9,0,1.6,0.7,1.6,1.6c0,0.9-0.7,1.6-1.6,1.6s-1.6-0.7-1.6-1.6C84.3,69.9,84.9,69.2,85.8,69.2z
		 M87.1,82h-2.5v-8.6h2.5V82z"/>
	<path fill="#193062" d="M89.3,69.1h2.5v13h-2.5V69.1z"/>
	<path fill="#193062" d="M101.7,73.4l-4.4,12.2h-2.6l1.4-3.8l-3-8.4h2.7l1.6,4.6l1.7-4.6H101.7z"/>
</g>
<g>
	<path fill="#193062" d="M25.2,97.5l-2.8,8.6h-2.6l-1.1-3.6l-1.1,3.6h-2.6l-2.8-8.6H15l1.5,4.9l1.5-4.9h1.6l1.4,4.7l1.5-4.7H25.2z"
		/>
	<path fill="#193062" d="M27.8,93.2c0.9,0,1.6,0.7,1.6,1.6c0,0.9-0.7,1.6-1.6,1.6s-1.6-0.7-1.6-1.6C26.2,93.9,26.9,93.2,27.8,93.2z
		 M29,106h-2.5v-8.6H29V106z"/>
	<path fill="#193062" d="M34.1,97.5h2.6v2.4h-2.6v2.9c0,0.6,0.4,0.9,0.9,0.9h1.7v2.4h-2.2c-1.7,0-2.9-1.1-2.9-2.9v-3.3h-1.2v-1.3
		l2.4-2.9h1.4V97.5z"/>
	<path fill="#193062" d="M46.4,100.7v5.3h-2.5v-4.8c0-0.8-0.5-1.5-1.4-1.5c-0.9,0-1.5,0.6-1.5,1.5v4.8h-2.5v-13H41v4.8
		c0.6-0.4,1.3-0.6,2.1-0.6C45,97.3,46.4,98.7,46.4,100.7z"/>
	<path fill="#193062" d="M57.3,97.3c1.6,0,3,0.8,3.7,2l-2,1.4c-0.4-0.6-0.9-1-1.7-1c-1.1,0-1.9,0.9-1.9,2c0,1.1,0.8,2,1.9,2
		c0.7,0,1.3-0.4,1.7-1l2,1.4c-0.7,1.2-2.1,2-3.7,2c-2.6,0-4.4-2-4.4-4.5S54.8,97.3,57.3,97.3z"/>
	<path fill="#193062" d="M62.4,93.1h2.5v13h-2.5V93.1z"/>
	<path fill="#193062" d="M75.1,102.6h-6c0.3,0.7,1,1.2,1.9,1.2c0.8,0,1.4-0.4,1.8-1l2,1.2c-0.7,1.3-2.1,2.1-3.8,2.1
		c-2.6,0-4.5-1.9-4.5-4.5c0-2.5,1.8-4.5,4.3-4.5c2.5,0,4.3,1.9,4.3,4.5C75.2,102,75.2,102.3,75.1,102.6z M69.1,100.8h3.6
		c-0.2-0.8-0.9-1.3-1.8-1.3C70,99.6,69.3,100,69.1,100.8z"/>
	<path fill="#193062" d="M83.9,100.6v5.4h-2.5v-0.5c-0.5,0.5-1.2,0.6-2.1,0.6c-1.8,0-3-1.1-3-2.7c0-1.8,1.3-2.5,3-2.7l2.1-0.2v-0.1
		c0-0.6-0.6-1-1.3-1c-0.6,0-1.1,0.3-1.2,0.8h-2.4c0.1-1.8,1.6-3.1,3.6-3.1C82.4,97.3,83.9,98.7,83.9,100.6z M81.5,103v-0.5l-1.7,0.1
		c-0.6,0.1-0.9,0.4-0.9,0.8c0,0.4,0.4,0.8,1.1,0.8C80.9,104.2,81.5,103.7,81.5,103z"/>
	<path fill="#193062" d="M91.6,97.5v2.5h-1.3c-1,0-1.6,0.7-1.6,1.7v4.4h-2.5v-8.6h2.5v0.8c0.5-0.6,1.3-0.8,2-0.8H91.6z"/>
</g>
<g>
	<path fill="#193062" d="M14.5,117.2c0.9,0,1.6,0.7,1.6,1.6c0,0.9-0.7,1.6-1.6,1.6s-1.6-0.7-1.6-1.6
		C12.9,117.9,13.6,117.2,14.5,117.2z M15.8,130h-2.5v-8.6h2.5V130z"/>
	<path fill="#193062" d="M25.9,124.7v5.4h-2.5v-4.8c0-0.8-0.5-1.5-1.4-1.5c-0.9,0-1.5,0.6-1.5,1.5v4.8H18v-8.6h2.5v0.5
		c0.6-0.4,1.3-0.7,2.1-0.7C24.5,121.3,25.9,122.7,25.9,124.7z"/>
	<path fill="#193062" d="M28.9,123.9h-1.7v-2.4h1.7v-1.7c0-1.6,1.1-2.7,2.8-2.7h1.9v2.4h-1.5c-0.4,0-0.7,0.2-0.7,0.7v1.3h2.2v2.4
		h-2.2v6.2h-2.5V123.9z"/>
	<path fill="#193062" d="M38.8,121.3c2.6,0,4.5,2,4.5,4.5c0,2.4-1.9,4.5-4.5,4.5c-2.6,0-4.5-2-4.5-4.5
		C34.3,123.2,36.2,121.3,38.8,121.3z M38.8,127.7c1.1,0,2-0.9,2-2c0-1.1-0.8-2-2-2c-1.1,0-2,0.9-2,2
		C36.8,126.9,37.6,127.7,38.8,127.7z"/>
	<path fill="#193062" d="M50.4,121.5v2.5h-1.3c-1,0-1.6,0.7-1.6,1.7v4.4h-2.5v-8.6h2.5v0.8c0.5-0.6,1.3-0.8,2-0.8H50.4z"/>
	<path fill="#193062" d="M64.3,124.4v5.6h-2.5v-5c0-0.7-0.5-1.3-1.3-1.3c-0.7,0-1.2,0.6-1.2,1.3v5h-2.5v-5c0-0.7-0.5-1.3-1.2-1.3
		c-0.7,0-1.2,0.6-1.2,1.3v5h-2.5v-8.6h2.5v0.4c0.5-0.4,1.2-0.6,1.9-0.6c0.9,0,1.7,0.3,2.2,0.9c0.6-0.5,1.4-0.9,2.4-0.9
		C62.8,121.3,64.3,122.6,64.3,124.4z"/>
	<path fill="#193062" d="M73.6,124.7v5.4h-2.5v-0.5c-0.5,0.5-1.2,0.6-2.1,0.6c-1.8,0-3-1.1-3-2.7c0-1.8,1.3-2.5,3-2.7l2.1-0.2v-0.1
		c0-0.6-0.6-1-1.3-1c-0.6,0-1.1,0.3-1.2,0.8h-2.4c0.1-1.8,1.6-3.1,3.6-3.1C72.1,121.3,73.6,122.7,73.6,124.7z M71.1,127v-0.5
		l-1.7,0.1c-0.6,0.1-0.9,0.4-0.9,0.8c0,0.4,0.4,0.8,1.1,0.8C70.6,128.2,71.1,127.7,71.1,127z"/>
	<path fill="#193062" d="M78.5,121.5h2.6v2.4h-2.6v2.9c0,0.6,0.4,0.9,0.9,0.9h1.7v2.4H79c-1.7,0-2.9-1.1-2.9-2.9v-3.3h-1.2v-1.3
		l2.4-2.9h1.4V121.5z"/>
	<path fill="#193062" d="M84.1,117.2c0.9,0,1.6,0.7,1.6,1.6c0,0.9-0.7,1.6-1.6,1.6s-1.6-0.7-1.6-1.6
		C82.6,117.9,83.2,117.2,84.1,117.2z M85.4,130h-2.5v-8.6h2.5V130z"/>
	<path fill="#193062" d="M91.5,121.3c2.6,0,4.5,2,4.5,4.5c0,2.4-1.9,4.5-4.5,4.5c-2.6,0-4.5-2-4.5-4.5
		C87,123.2,88.9,121.3,91.5,121.3z M91.5,127.7c1.1,0,2-0.9,2-2c0-1.1-0.8-2-2-2c-1.1,0-2,0.9-2,2C89.5,126.9,90.4,127.7,91.5,127.7
		z"/>
	<path fill="#193062" d="M105.6,124.7v5.4h-2.5v-4.8c0-0.8-0.5-1.5-1.4-1.5s-1.5,0.6-1.5,1.5v4.8h-2.5v-8.6h2.5v0.5
		c0.6-0.4,1.3-0.7,2.1-0.7C104.1,121.3,105.6,122.7,105.6,124.7z"/>
</g>
<g>
	<path fill="#193062" d="M14.1,147.9h-1.7v-2.4h1.7v-1.7c0-1.6,1.1-2.7,2.8-2.7h1.9v2.4h-1.5c-0.4,0-0.7,0.2-0.7,0.7v1.3h2.2v2.4
		h-2.2v6.2h-2.5V147.9z"/>
	<path fill="#193062" d="M25.7,145.5v2.5h-1.3c-1,0-1.6,0.7-1.6,1.7v4.4h-2.5v-8.6h2.5v0.8c0.5-0.6,1.3-0.8,2-0.8H25.7z"/>
	<path fill="#193062" d="M31,145.3c2.6,0,4.5,2,4.5,4.5c0,2.4-1.9,4.5-4.5,4.5c-2.6,0-4.5-2-4.5-4.5C26.6,147.2,28.5,145.3,31,145.3
		z M31,151.8c1.1,0,2-0.9,2-2c0-1.1-0.8-2-2-2c-1.1,0-2,0.9-2,2C29.1,150.9,29.9,151.8,31,151.8z"/>
	<path fill="#193062" d="M49.7,148.4v5.6h-2.5v-5c0-0.7-0.5-1.3-1.3-1.3c-0.7,0-1.2,0.6-1.2,1.3v5h-2.5v-5c0-0.7-0.5-1.3-1.2-1.3
		c-0.7,0-1.2,0.6-1.2,1.3v5h-2.5v-8.6h2.5v0.4c0.5-0.4,1.2-0.6,1.9-0.6c0.9,0,1.7,0.3,2.2,0.9c0.6-0.5,1.4-0.9,2.4-0.9
		C48.2,145.3,49.7,146.6,49.7,148.4z"/>
	<path fill="#193062" d="M59.6,145.5h2.6v2.4h-2.6v2.9c0,0.6,0.4,0.9,0.9,0.9h1.7v2.4H60c-1.7,0-2.9-1.1-2.9-2.9v-3.3h-1.2v-1.3
		l2.4-2.9h1.4V145.5z"/>
	<path fill="#193062" d="M71.9,148.7v5.3h-2.5v-4.8c0-0.8-0.5-1.5-1.4-1.5c-0.9,0-1.5,0.6-1.5,1.5v4.8H64v-13h2.5v4.8
		c0.6-0.4,1.3-0.6,2.1-0.6C70.5,145.3,71.9,146.7,71.9,148.7z"/>
	<path fill="#193062" d="M82,150.6h-6c0.3,0.7,1,1.2,1.9,1.2c0.8,0,1.4-0.4,1.8-1l2,1.2c-0.7,1.3-2.1,2.1-3.8,2.1
		c-2.6,0-4.5-1.9-4.5-4.5c0-2.5,1.8-4.5,4.3-4.5c2.5,0,4.3,1.9,4.3,4.5C82.1,150,82.1,150.4,82,150.6z M76,148.8h3.6
		c-0.2-0.8-0.9-1.3-1.8-1.3C76.9,147.6,76.2,148,76,148.8z"/>
	<path fill="#193062" d="M91.8,152c0.7,0,1.1-0.3,1.1-0.6c0-0.3-0.2-0.4-0.6-0.5c-0.4-0.1-0.9-0.1-1.5-0.2c-1.7-0.3-2.4-1.3-2.4-2.5
		c0-1.7,1.4-2.9,3.5-2.9c2,0,3.5,1.2,3.5,2.9h-2.4c0-0.4-0.4-0.6-1.1-0.6c-0.6,0-1,0.3-1,0.6c0,0.2,0.2,0.4,0.6,0.4
		c0.5,0.1,0.9,0.1,1.6,0.2c1.7,0.2,2.4,1.2,2.4,2.5c0,1.7-1.4,3-3.6,3c-2.1,0-3.6-1.2-3.6-3h2.4C90.6,151.7,91.1,152,91.8,152z"/>
	<path fill="#193062" d="M99.8,145.5h2.6v2.4h-2.6v2.9c0,0.6,0.4,0.9,0.9,0.9h1.7v2.4h-2.2c-1.7,0-2.9-1.1-2.9-2.9v-3.3H96v-1.3
		l2.4-2.9h1.4V145.5z"/>
	<path fill="#193062" d="M111.2,148.7v5.4h-2.5v-0.5c-0.5,0.5-1.2,0.6-2.1,0.6c-1.8,0-3-1.1-3-2.7c0-1.8,1.3-2.5,3-2.7l2.1-0.2v-0.1
		c0-0.6-0.6-1-1.3-1c-0.6,0-1.1,0.3-1.2,0.8h-2.4c0.1-1.8,1.6-3.1,3.6-3.1C109.7,145.3,111.2,146.7,111.2,148.7z M108.7,151v-0.5
		l-1.7,0.1c-0.6,0.1-0.9,0.4-0.9,0.8c0,0.4,0.4,0.8,1.1,0.8C108.2,152.2,108.7,151.8,108.7,151z"/>
	<path fill="#193062" d="M118.8,145.5v2.5h-1.3c-1,0-1.6,0.7-1.6,1.7v4.4h-2.5v-8.6h2.5v0.8c0.5-0.6,1.3-0.8,2-0.8H118.8z"/>
	<path fill="#193062" d="M123.3,145.5h2.6v2.4h-2.6v2.9c0,0.6,0.4,0.9,0.9,0.9h1.7v2.4h-2.2c-1.7,0-2.9-1.1-2.9-2.9v-3.3h-1.2v-1.3
		l2.4-2.9h1.4V145.5z"/>
	<path fill="#193062" d="M129,151c0.9,0,1.6,0.7,1.6,1.6c0,0.9-0.7,1.6-1.6,1.6s-1.6-0.7-1.6-1.6C127.4,151.7,128.1,151,129,151z"/>
</g>
</svg>
