<?xml version="1.0" encoding="utf-8"?>
<!-- Generator: Adobe Illustrator 27.4.0, SVG Export Plug-In . SVG Version: 6.00 Build 0)  -->
<svg version="1.1" baseProfile="tiny" id="Layer_1" xmlns="http://www.w3.org/2000/svg" xmlns:xlink="http://www.w3.org/1999/xlink"
	 x="0px" y="0px" viewBox="0 0 300 250" overflow="visible" xml:space="preserve">
<rect x="-1" y="191.5" fill="#193062" width="302" height="59"/>
<rect x="164.9" y="207.5" fill="#FAE07E" width="19.1" height="5.3"/>
<rect x="185.6" y="207.5" fill="#FFFFFF" width="4.6" height="5.3"/>
<rect x="164.9" y="214.1" fill="#FAE07E" width="14.3" height="5.3"/>
<rect x="180.7" y="214.1" fill="#FFFFFF" width="9.4" height="5.3"/>
<rect x="164.9" y="220.8" fill="#FAE07E" width="9.4" height="5.3"/>
<rect x="175.9" y="220.8" fill="#FFFFFF" width="14.3" height="5.3"/>
<rect x="164.9" y="227.5" fill="#FAE07E" width="4.6" height="5.3"/>
<rect x="171.1" y="227.5" fill="#FFFFFF" width="19.1" height="5.3"/>
<polygon fill="#FFFFFF" points="205,215.1 200.8,215.1 200.8,212.8 211.7,212.8 211.7,215.1 207.4,215.1 207.4,227.5 205,227.5 "/>
<g>
	<path fill="none" d="M278.1,218.8c-1.3,0-2.7,0.8-3,2.3h5.7C280.6,219.6,279.4,218.8,278.1,218.8z"/>
	<path fill="none" d="M253.8,219c-1.8,0-3.1,1.4-3.1,3.3c0,1.9,1.2,3.3,3.1,3.3s3.1-1.4,3.1-3.3C256.9,220.4,255.6,219,253.8,219z"
		/>
	<path fill="none" d="M266,219c-1.8,0-3.1,1.3-3.1,3.2s1.3,3.2,3.1,3.2c1.8,0,3.1-1.3,3.1-3.2S267.8,219,266,219z"/>
	<path fill="#FFFFFF" d="M211.2,217.1v10.3h2.3v-5.1c0-2.1,1.2-3.2,2.5-3.2c0.4,0,0.7,0.1,1.1,0.2v-2.3c-0.3-0.1-0.6-0.1-0.9-0.1
		c-1.2,0-2.3,0.8-2.7,1.9v-1.8H211.2z"/>
	<path fill="#FFFFFF" d="M218.8,217.1v6.2c0,2.6,1.5,4.4,3.8,4.4c1.3,0,2.4-0.6,3-1.6v1.4h2.3v-10.3h-2.3v5.1c0,2.2-1.1,3.4-2.5,3.4
		c-1.3,0-2.1-1-2.1-2.7v-5.8H218.8z"/>
	<path fill="#FFFFFF" d="M234.7,225.4c-1.4,0-2.6-0.7-3.4-1.9l-1.9,1.5c0.9,1.6,2.8,2.6,5.2,2.6c2.9,0,4.9-1.7,4.9-4.2
		c0-2.2-1.3-3.5-3.4-4.3l-1.5-0.6c-1.5-0.6-2.2-1-2.2-2.1c0-1.1,1.1-1.7,2.3-1.7c1.1,0,2,0.5,2.8,1.4l1.7-1.6c-1.1-1.3-2.6-2-4.4-2
		c-2.7,0-4.8,1.6-4.8,4.1c0,2,1.1,3.3,3.5,4.1l1.6,0.6c1.4,0.5,2.1,1.2,2.1,2.2C237.1,224.7,236.1,225.4,234.7,225.4z"/>
	<path fill="#FFFFFF" d="M259,227.5v-10.4h-2.3v1.4c-0.6-0.8-1.8-1.6-3.3-1.6c-2.8,0-5,2.4-5,5.4c0,3,2.1,5.4,5,5.4
		c1.5,0,2.7-0.8,3.3-1.6v1.4H259z M253.8,225.6c-1.8,0-3.1-1.4-3.1-3.3c0-1.9,1.2-3.3,3.1-3.3s3.1,1.4,3.1,3.3
		C256.9,224.2,255.6,225.6,253.8,225.6z"/>
	<path fill="#FFFFFF" d="M265.8,230c-1.4,0-2.6-0.6-3.4-1.5l-1.4,1.6c1,1.1,2.8,1.9,4.8,1.9c3.1,0,5.4-1.6,5.4-5.2v-9.6h-2.3v1.4
		c-0.6-0.9-1.9-1.6-3.3-1.6c-2.8,0-5,2.3-5,5.2c0,2.9,2.2,5.3,5,5.3c1.4,0,2.7-0.7,3.3-1.6v1C268.9,228.8,267.5,230,265.8,230z
		 M266,225.3c-1.8,0-3.1-1.3-3.1-3.2s1.3-3.2,3.1-3.2c1.8,0,3.1,1.3,3.1,3.2S267.8,225.3,266,225.3z"/>
	<path fill="#FFFFFF" d="M278.1,216.9c-3.1,0-5.4,2.3-5.4,5.4c0,3.1,2.2,5.4,5.4,5.4c2.2,0,3.8-0.9,4.7-2.4l-1.7-1.2
		c-0.5,0.9-1.5,1.6-3,1.6c-1.7,0-3.1-1.1-3.2-2.8h8.1c0-0.3,0-0.5,0-0.7C283.1,218.7,280.9,216.9,278.1,216.9z M275.1,221.1
		c0.3-1.5,1.6-2.3,3-2.3c1.3,0,2.5,0.8,2.8,2.3H275.1z"/>
	<path fill="#FFFFFF" d="M242.1,214.2l0,1.3c0,0.9-0.7,1.6-1.6,1.6l-0.6,0v2h2.1v5c0,2.3,1.5,3.4,3.5,3.4c0.7,0,1.2-0.1,1.7-0.2v-2
		c-0.3,0.1-0.8,0.2-1.2,0.2c-1.2,0-1.7-0.5-1.7-1.8v-4.6h3v-2h-3v-2.9H242.1z"/>
	<polygon fill="#FFFFFF" points="284.5,215.4 284,214.2 283.6,214.2 283.6,216.1 284,216.1 284,215 284.5,216.1 285,215 285,216.1 
		285.4,216.1 285.4,214.2 285,214.2 	"/>
	<polygon fill="#FFFFFF" points="282.7,216.1 282.7,214.6 283.3,214.6 283.3,214.2 281.8,214.2 281.8,214.6 282.4,214.6 
		282.4,216.1 	"/>
</g>
</svg>
