<svg baseProfile="tiny" xmlns="http://www.w3.org/2000/svg" viewBox="0 0 300 50" overflow="visible"><g fill="#193062"><path d="M85.3 7.1H87v3.2h3.1V7.1h1.7v8h-1.7V12H87v3.2h-1.7V7.1zM98.5 13h-3.9c.2.5.7.8 1.3.8.5 0 .9-.3 1.2-.6l1.3.8c-.5.8-1.4 1.4-2.5 1.4-1.7 0-2.9-1.3-2.9-2.9 0-1.7 1.2-2.9 2.8-2.9 1.7 0 2.8 1.2 2.8 2.9 0 .1 0 .3-.1.5zm-3.9-1.2H97c-.2-.5-.6-.8-1.2-.8s-1 .3-1.2.8zM99.7 6.8h1.6v8.4h-1.6V6.8zM108.5 12.4c0 1.6-1.1 2.9-2.7 2.9-.5 0-1-.2-1.4-.4v2.6h-1.6V9.6h1.6v.3c.4-.3.9-.4 1.4-.4 1.6 0 2.7 1.3 2.7 2.9zm-1.6 0c0-.7-.5-1.3-1.3-1.3s-1.3.6-1.3 1.3c0 .7.5 1.3 1.3 1.3s1.3-.6 1.3-1.3zM110.4 6.9c.6 0 1 .4 1 1s-.4 1-1 1-1-.5-1-1c0-.6.4-1 1-1zm.8 8.3h-1.6V9.6h1.6v5.6zM117.8 11.7v3.5h-1.6V12c0-.5-.4-.9-.9-.9-.6 0-.9.4-.9.9v3.1h-1.6V9.6h1.6v.3c.4-.3.8-.4 1.4-.4 1.1 0 2 .9 2 2.2zM124.4 9.6V15c0 1.5-1.1 2.6-2.8 2.6-1.3 0-2.2-.7-2.6-1.8l1.5-.6c.2.5.5.8 1.1.8.7 0 1.1-.4 1.1-1.1v-.4c-.4.3-.8.4-1.3.4-1.5 0-2.6-1.2-2.6-2.7s1.1-2.7 2.6-2.7c.5 0 1 .2 1.4.5v-.4h1.6zm-1.6 2.7c0-.7-.5-1.2-1.2-1.2s-1.2.5-1.2 1.2c0 .6.5 1.1 1.2 1.1s1.2-.5 1.2-1.1zM134.8 12.4c0 1.6-1.1 2.9-2.7 2.9-.5 0-1-.2-1.4-.4v2.6H129V9.6h1.6v.3c.4-.3.9-.4 1.4-.4 1.6 0 2.8 1.3 2.8 2.9zm-1.7 0c0-.7-.5-1.3-1.3-1.3s-1.3.6-1.3 1.3c0 .7.5 1.3 1.3 1.3s1.3-.6 1.3-1.3zM139.4 9.6v1.6h-.8c-.6 0-1.1.5-1.1 1.1v2.8h-1.6V9.6h1.6v.5c.3-.4.8-.5 1.3-.5h.6zM142.8 9.5c1.7 0 2.9 1.3 2.9 2.9 0 1.6-1.2 2.9-2.9 2.9s-2.9-1.3-2.9-2.9c0-1.6 1.2-2.9 2.9-2.9zm0 4.2c.7 0 1.3-.6 1.3-1.3 0-.7-.5-1.3-1.3-1.3-.7 0-1.3.6-1.3 1.3 0 .7.6 1.3 1.3 1.3zM148.6 9.6h1.7v1.6h-1.7V13c0 .4.2.6.6.6h1.1v1.6h-1.4c-1.1 0-1.9-.7-1.9-1.8v-2.1h-.8v-.8l1.5-1.9h.9v1zM156.5 13h-3.9c.2.5.7.8 1.3.8.5 0 .9-.3 1.2-.6l1.3.8c-.5.8-1.4 1.4-2.5 1.4-1.7 0-2.9-1.3-2.9-2.9 0-1.7 1.2-2.9 2.8-2.9 1.7 0 2.8 1.2 2.8 2.9 0 .1 0 .3-.1.5zm-3.9-1.2h2.4c-.2-.5-.6-.8-1.2-.8s-1 .3-1.2.8zM160.1 9.5c1.1 0 1.9.5 2.4 1.3l-1.3.9c-.2-.4-.6-.6-1.1-.6-.7 0-1.3.6-1.3 1.3 0 .7.5 1.3 1.3 1.3.5 0 .8-.3 1.1-.6l1.3.9c-.5.8-1.4 1.3-2.4 1.3-1.7 0-2.9-1.3-2.9-2.9.1-1.6 1.3-2.9 2.9-2.9zM165.3 9.6h1.7v1.6h-1.7V13c0 .4.2.6.6.6h1.1v1.6h-1.4c-1.1 0-1.9-.7-1.9-1.8v-2.1h-.8v-.8l1.5-1.9h.9v1zM175.9 9.6l-2.8 7.9h-1.7l.9-2.5-2-5.4h1.8l1.1 3 1.1-3h1.6zM179.1 9.5c1.7 0 2.9 1.3 2.9 2.9 0 1.6-1.2 2.9-2.9 2.9s-2.9-1.3-2.9-2.9c0-1.6 1.2-2.9 2.9-2.9zm0 4.2c.7 0 1.3-.6 1.3-1.3 0-.7-.5-1.3-1.3-1.3-.7 0-1.3.6-1.3 1.3 0 .7.5 1.3 1.3 1.3zM188.1 9.6v5.5h-1.6v-.3c-.4.3-.8.4-1.3.4-1.2 0-2.2-.9-2.2-2.2V9.6h1.6v3.1c0 .5.4.9.9.9.6 0 .9-.4.9-.9V9.6h1.7zM193.1 9.6v1.6h-.8c-.6 0-1.1.5-1.1 1.1v2.8h-1.6V9.6h1.6v.5c.3-.4.8-.5 1.3-.5h.6zM197.7 11.2h-1.1V9.6h1.1V8.5c0-1.1.7-1.7 1.8-1.7h1.2v1.6h-.9c-.3 0-.5.2-.5.4v.8h1.4v1.6h-1.4v4h-1.6v-4zM206.1 11.7v3.5h-1.6v-.3c-.3.3-.7.4-1.4.4-1.1 0-1.9-.7-1.9-1.7 0-1.1.9-1.6 1.9-1.7l1.4-.1v-.1c0-.4-.4-.7-.8-.7s-.7.2-.8.5h-1.6c.1-1.2 1-2 2.4-2 1.5 0 2.4.9 2.4 2.2zm-1.6 1.5v-.3l-1.1.1c-.4 0-.6.2-.6.5s.3.5.7.5c.7 0 1-.3 1-.8zM215.7 11.6v3.6H214v-3.3c0-.4-.3-.8-.8-.8s-.8.4-.8.8v3.3h-1.6v-3.3c0-.4-.3-.8-.8-.8s-.8.4-.8.8v3.3h-1.6V9.6h1.6v.3c.3-.2.8-.4 1.2-.4.6 0 1.1.2 1.4.6.4-.4.9-.6 1.6-.6 1.3 0 2.3.9 2.3 2.1zM217.9 6.9c.6 0 1 .4 1 1s-.4 1-1 1-1-.5-1-1c0-.6.4-1 1-1zm.8 8.3h-1.6V9.6h1.6v5.6zM220.2 6.8h1.6v8.4h-1.6V6.8zM228.2 9.6l-2.8 7.9h-1.7l.9-2.5-2-5.4h1.8l1.1 3 1.1-3h1.6zM230.7 8c0 .1 0 .3-.1.4l-.6 1.8h-.9l.3-1.3c-.4-.1-.6-.5-.6-.9 0-.6.4-1 1-1s.9.4.9 1zM233.5 13.8c.4 0 .7-.2.7-.4s-.1-.3-.4-.3c-.3 0-.6 0-1-.1-1.1-.2-1.6-.8-1.6-1.6 0-1.1.9-1.9 2.2-1.9 1.3 0 2.2.8 2.2 1.9H234c0-.3-.3-.4-.7-.4-.4 0-.7.2-.7.4s.1.2.4.3c.4 0 .6 0 1 .1 1.1.1 1.6.8 1.6 1.6 0 1.1-.9 1.9-2.3 1.9s-2.3-.8-2.3-1.9h1.6c.2.3.5.4.9.4z"/></g><g fill="#193062"><path d="M85.8 24.2h-1.1v-1.6h1.1v-1.1c0-1.1.7-1.7 1.8-1.7h1.2v1.6h-.9c-.3 0-.5.2-.5.4v.8h1.4v1.6h-1.4v4h-1.6v-4zM94.9 22.6v5.5h-1.6v-.3c-.4.3-.8.4-1.3.4-1.2 0-2.2-.9-2.2-2.2v-3.5h1.6v3.1c0 .5.4.9.9.9s.9-.4.9-.9v-3.1h1.7zM98.1 22.6h1.7v1.6h-1.7V26c0 .4.2.6.6.6h1.1v1.6h-1.4c-1.1 0-1.9-.7-1.9-1.8v-2.1h-.8v-.8l1.5-1.9h.9v1zM106 22.6v5.5h-1.6v-.3c-.4.3-.8.4-1.3.4-1.2 0-2.2-.9-2.2-2.2v-3.5h1.6v3.1c0 .5.4.9.9.9s.9-.4.9-.9v-3.1h1.7zM111 22.6v1.6h-.8c-.6 0-1.1.5-1.1 1.1v2.8h-1.6v-5.5h1.6v.5c.3-.4.8-.5 1.3-.5h.6zM117 26h-3.9c.2.5.7.8 1.3.8.5 0 .9-.3 1.2-.6l1.3.8c-.5.8-1.4 1.4-2.5 1.4-1.7 0-2.9-1.3-2.9-2.9 0-1.7 1.2-2.9 2.8-2.9 1.7 0 2.8 1.2 2.8 2.9 0 .1 0 .3-.1.5zm-3.9-1.2h2.4c-.2-.5-.6-.8-1.2-.8s-1 .3-1.2.8zM123.8 22.5c1.1 0 1.9.5 2.4 1.3l-1.3.9c-.2-.4-.6-.6-1.1-.6-.7 0-1.3.6-1.3 1.3 0 .7.5 1.3 1.3 1.3.5 0 .8-.3 1.1-.6l1.3.9c-.5.8-1.4 1.3-2.4 1.3-1.7 0-2.9-1.3-2.9-2.9.1-1.6 1.3-2.9 2.9-2.9zM129.6 22.5c1.7 0 2.9 1.3 2.9 2.9 0 1.6-1.2 2.9-2.9 2.9s-2.9-1.3-2.9-2.9c0-1.6 1.3-2.9 2.9-2.9zm0 4.2c.7 0 1.3-.6 1.3-1.3 0-.7-.5-1.3-1.3-1.3-.7 0-1.3.6-1.3 1.3.1.7.6 1.3 1.3 1.3zM138.7 22.6v5.5h-1.6v-.3c-.4.3-.8.4-1.3.4-1.2 0-2.2-.9-2.2-2.2v-3.5h1.6v3.1c0 .5.4.9.9.9s.9-.4.9-.9v-3.1h1.7zM140.1 19.8h1.6v8.4h-1.6v-8.4zM148.6 19.8v8.4H147v-.3c-.4.3-.9.5-1.4.5-1.6 0-2.7-1.3-2.7-2.9 0-1.6 1.1-2.9 2.7-2.9.5 0 1 .2 1.4.4v-3.1h1.6zm-1.6 5.6c0-.7-.5-1.3-1.3-1.3-.7 0-1.3.6-1.3 1.3 0 .7.5 1.3 1.3 1.3s1.3-.6 1.3-1.3zM155.2 26.8c.4 0 .7-.2.7-.4s-.1-.3-.4-.3c-.3 0-.6 0-1-.1-1.1-.2-1.6-.8-1.6-1.6 0-1.1.9-1.9 2.2-1.9 1.3 0 2.2.8 2.2 1.9h-1.6c0-.3-.3-.4-.7-.4-.4 0-.7.2-.7.4s.1.2.4.3c.4 0 .6 0 1 .1 1.1.1 1.6.8 1.6 1.6 0 1.1-.9 1.9-2.3 1.9s-2.3-.8-2.3-1.9h1.6c.1.3.4.4.9.4zM160.4 22.6h1.7v1.6h-1.7V26c0 .4.2.6.6.6h1.1v1.6h-1.4c-1.1 0-1.9-.7-1.9-1.8v-2.1h-.8v-.8l1.5-1.9h.9v1zM167.8 24.7v3.5h-1.6v-.3c-.3.3-.7.4-1.4.4-1.1 0-1.9-.7-1.9-1.7 0-1.1.9-1.6 1.9-1.7l1.4-.1v-.1c0-.4-.4-.7-.8-.7s-.7.2-.8.5H163c.1-1.2 1-2 2.4-2s2.4.9 2.4 2.2zm-1.6 1.5v-.3l-1.1.1c-.4 0-.6.2-.6.5s.3.5.7.5c.6 0 1-.3 1-.8zM172.7 22.6v1.6h-.8c-.6 0-1.1.5-1.1 1.1v2.8h-1.6v-5.5h1.6v.5c.3-.4.8-.5 1.3-.5h.6zM175.6 22.6h1.7v1.6h-1.7V26c0 .4.2.6.6.6h1.1v1.6h-1.4c-1.1 0-1.9-.7-1.9-1.8v-2.1h-.8v-.8l1.5-1.9h.9v1zM189.3 22.6l-1.8 5.5h-1.7l-.7-2.3-.7 2.3h-1.7l-1.8-5.5h1.8l1 3.1 1-3.1h1.1l.9 3 1-3h1.6zM191 19.9c.6 0 1 .4 1 1s-.4 1-1 1-1-.5-1-1c0-.6.4-1 1-1zm.8 8.3h-1.6v-5.5h1.6v5.5zM195.1 22.6h1.7v1.6h-1.7V26c0 .4.2.6.6.6h1.1v1.6h-1.4c-1.1 0-1.9-.7-1.9-1.8v-2.1h-.8v-.8l1.5-1.9h.9v1zM203 24.7v3.5h-1.6V25c0-.5-.4-1-.9-1-.6 0-1 .4-1 1v3.1h-1.6v-8.4h1.6v3.1c.4-.3.8-.4 1.3-.4 1.3.1 2.2 1 2.2 2.3z"/></g><g fill="#193062"><path d="M87.1 34.8h-2.3v-1.7h6.3v1.7h-2.3v6.4h-1.7v-6.4zM94.6 35.6v1.6h-.8c-.6 0-1.1.5-1.1 1.1v2.8h-1.6v-5.5h1.6v.5c.3-.4.8-.5 1.3-.5h.6zM100.6 35.6v5.5H99v-.3c-.4.3-.8.4-1.3.4-1.2 0-2.2-.9-2.2-2.2v-3.5h1.6v3.1c0 .5.4.9.9.9s.9-.4.9-.9v-3.1h1.7zM104.7 34.7c-.7 0-1.2.4-1.2.8 0 .3.2.5.5.6.5.2 1.3.1 2 .3 1 .3 1.7 1.1 1.7 2.2 0 1.5-1.2 2.7-3 2.7-1.7 0-3-1.1-3-2.6h1.7c0 .6.6 1 1.3 1 .8 0 1.3-.4 1.3-.9 0-.4-.2-.6-.5-.7-.5-.2-1.3-.1-2.1-.3-1.1-.3-1.6-1.1-1.6-2.2 0-1.5 1.2-2.6 2.9-2.6s2.9 1 2.9 2.5H106c-.1-.5-.6-.8-1.3-.8zM110.8 35.6h1.7v1.6h-1.7V39c0 .4.2.6.6.6h1.1v1.6h-1.4c-1.1 0-1.9-.7-1.9-1.8v-2.1h-.8v-.8l1.5-1.9h.9v1zM118.2 37.7v3.5h-1.6v-.3c-.3.3-.7.4-1.4.4-1.1 0-1.9-.7-1.9-1.7 0-1.1.9-1.6 1.9-1.7l1.4-.1v-.1c0-.4-.4-.7-.8-.7s-.7.2-.8.5h-1.6c.1-1.2 1-2 2.4-2s2.4.9 2.4 2.2zm-1.6 1.5v-.3l-1.1.1c-.4 0-.6.2-.6.5s.3.5.7.5c.6 0 1-.3 1-.8zM124.8 35.6V41c0 1.5-1.1 2.6-2.8 2.6-1.3 0-2.2-.7-2.6-1.8l1.5-.6c.2.5.5.8 1.1.8.7 0 1.1-.4 1.1-1.1v-.4c-.4.3-.8.4-1.3.4-1.5 0-2.6-1.2-2.6-2.7s1.1-2.7 2.6-2.7c.5 0 1 .2 1.4.5v-.3h1.6zm-1.6 2.7c0-.7-.5-1.2-1.2-1.2s-1.2.5-1.2 1.2c0 .6.5 1.1 1.2 1.1s1.2-.5 1.2-1.1zM131.4 39h-3.9c.2.5.7.8 1.3.8.5 0 .9-.3 1.2-.6l1.3.8c-.5.8-1.4 1.4-2.5 1.4-1.7 0-2.9-1.3-2.9-2.9 0-1.7 1.2-2.9 2.8-2.9 1.7 0 2.8 1.2 2.8 2.9-.1.1-.1.3-.1.5zm-3.9-1.2h2.4c-.2-.5-.6-.8-1.2-.8-.7 0-1.1.3-1.2.8zM133 34h-.9v-.9h2.7v.9h-.8v2.3h-1V34zm2.3-.9h.9l.7 1.5.7-1.5h.9v3.2h-.9v-1.4l-.7 1.5-.7-1.5v1.4h-.9v-3.2zM142.7 33.1h1.7v6.4h4.6v1.7h-6.3v-8.1zM150.9 32.9c.6 0 1 .4 1 1s-.4 1-1 1-1-.5-1-1c0-.6.4-1 1-1zm.8 8.3h-1.6v-5.5h1.6v5.5zM153.7 37.2h-1.1v-1.6h1.1v-1.1c0-1.1.7-1.7 1.8-1.7h1.2v1.6h-.9c-.3 0-.5.2-.5.4v.8h1.4v1.6h-1.4v4h-1.6v-4zM162.7 39h-3.9c.2.5.7.8 1.3.8.5 0 .9-.3 1.2-.6l1.3.8c-.5.8-1.4 1.4-2.5 1.4-1.7 0-2.9-1.3-2.9-2.9 0-1.7 1.2-2.9 2.8-2.9 1.7 0 2.8 1.2 2.8 2.9 0 .1 0 .3-.1.5zm-3.9-1.2h2.4c-.2-.5-.6-.8-1.2-.8s-1 .3-1.2.8zM167.2 33.1h1.7v8h-1.7v-8zM175.6 37.7v3.5H174V38c0-.5-.4-.9-.9-.9s-.9.4-.9.9v3.1h-1.6v-5.5h1.6v.3c.4-.3.8-.4 1.4-.4 1 0 2 .9 2 2.2zM179 39.8c.4 0 .7-.2.7-.4s-.1-.3-.4-.3c-.3 0-.6 0-1-.1-1.1-.2-1.6-.8-1.6-1.6 0-1.1.9-1.9 2.2-1.9 1.3 0 2.2.8 2.2 1.9h-1.6c0-.3-.3-.4-.7-.4-.4 0-.7.2-.7.4s.1.2.4.3c.4 0 .6 0 1 .1 1.1.1 1.6.8 1.6 1.6 0 1.1-.9 1.9-2.3 1.9s-2.3-.8-2.3-1.9h1.6c.1.3.4.4.9.4zM187.4 35.6v5.5h-1.6v-.3c-.4.3-.8.4-1.3.4-1.2 0-2.2-.9-2.2-2.2v-3.5h1.6v3.1c0 .5.4.9.9.9.6 0 .9-.4.9-.9v-3.1h1.7zM192.4 35.6v1.6h-.8c-.6 0-1.1.5-1.1 1.1v2.8h-1.6v-5.5h1.6v.5c.3-.4.8-.5 1.3-.5h.6zM197.7 37.7v3.5h-1.6v-.3c-.3.3-.7.4-1.4.4-1.1 0-1.9-.7-1.9-1.7 0-1.1.9-1.6 1.9-1.7l1.4-.1v-.1c0-.4-.4-.7-.8-.7s-.7.2-.8.5H193c.1-1.2 1-2 2.4-2 1.3 0 2.3.9 2.3 2.2zm-1.6 1.5v-.3l-1.1.1c-.4 0-.6.2-.6.5s.3.5.7.5c.7 0 1-.3 1-.8zM204.3 37.7v3.5h-1.6V38c0-.5-.4-.9-.9-.9-.6 0-.9.4-.9.9v3.1h-1.6v-5.5h1.6v.3c.4-.3.8-.4 1.4-.4 1 0 2 .9 2 2.2zM208.2 35.5c1.1 0 1.9.5 2.4 1.3l-1.3.9c-.2-.4-.6-.6-1.1-.6-.7 0-1.3.6-1.3 1.3s.5 1.3 1.3 1.3c.5 0 .8-.3 1.1-.6l1.3.9c-.5.8-1.4 1.3-2.4 1.3-1.7 0-2.9-1.3-2.9-2.9s1.2-2.9 2.9-2.9zM216.6 39h-3.9c.2.5.7.8 1.3.8.5 0 .9-.3 1.2-.6l1.3.8c-.5.8-1.4 1.4-2.5 1.4-1.7 0-2.9-1.3-2.9-2.9 0-1.7 1.2-2.9 2.8-2.9 1.7 0 2.8 1.2 2.8 2.9 0 .1-.1.3-.1.5zm-3.9-1.2h2.4c-.2-.5-.6-.8-1.2-.8s-1.1.3-1.2.8zM218.5 39.2c.6 0 1 .4 1 1s-.4 1-1 1-1-.5-1-1 .5-1 1-1z"/></g></svg>