<svg baseProfile="tiny" xmlns="http://www.w3.org/2000/svg" viewBox="0 0 300 50" overflow="visible"><path fill="#FAE07E" d="M238.7 29.9h52.6v14.9h-52.6z"/><g fill="#193062"><path d="M248.5 37.2v.1c0 .4-.1.8-.3 1.1s-.4.6-.7.8c-.3.2-.7.3-1.1.3-.4 0-.8-.1-1.1-.3s-.6-.5-.8-.8-.3-.7-.3-1.1c0-.4.1-.8.3-1.1s.5-.6.8-.8.7-.3 1.1-.3c.3 0 .5 0 .8.1.2.1.5.2.7.4.2.2.3.4.5.6l-.7.4c-.1-.2-.3-.4-.5-.5-.2-.1-.4-.2-.7-.2-.3 0-.5.1-.7.2-.2.1-.4.3-.5.5-.1.2-.2.4-.2.7 0 .3.1.5.2.7.1.2.3.4.5.5.2.1.4.2.7.2.3 0 .5-.1.7-.2.2-.1.4-.3.5-.5h-1.5v-.8h2.3zM249.4 35.1h3.3v.9h-2.5v.9h1.4v.8h-1.4v.9h2.5v.8h-3.3v-4.3zM254.5 36h-1.2v-.8h3.3v.8h-1.2v3.5h-.8V36zM261.1 38.8h-1.6l-.2.6h-.8l1.4-4.3h.9l1.4 4.3h-.9l-.2-.6zm-.3-.8l-.5-1.6-.5 1.6h1zM268.6 38.6v.8h-.4l-.5-.4c-.2.2-.4.3-.6.4s-.5.1-.8.1c-.4 0-.8-.1-1.1-.3s-.6-.5-.8-.8-.3-.7-.3-1.1c0-.4.1-.8.3-1.1s.5-.6.8-.8.7-.3 1.1-.3c.4 0 .8.1 1.1.3s.6.5.8.8.3.7.3 1.1c0 .4-.1.7-.3 1.1l.4.2zm-1.6-.1l-.4-.3.5-.7.4.3c.1-.2.1-.3.1-.5 0-.3-.1-.5-.2-.7-.1-.2-.3-.4-.5-.5-.2-.1-.4-.2-.7-.2-.3 0-.5.1-.7.2-.2.1-.4.3-.5.5-.1.2-.2.4-.2.7 0 .3.1.5.2.7.1.2.3.4.5.5.2.1.4.2.7.2.3 0 .6-.1.8-.2zM272.8 37.8c0 .3-.1.6-.2.9-.1.3-.4.5-.6.6-.3.1-.6.2-.9.2-.3 0-.6-.1-.9-.2-.3-.1-.5-.3-.6-.6s-.2-.5-.2-.9v-2.7h.8v2.6c0 .2 0 .3.1.5l.3.3c.1.1.3.1.5.1s.3 0 .5-.1l.3-.3c.1-.1.1-.3.1-.5v-2.6h.8v2.7zM275.8 35.1c.4 0 .8.1 1.1.3s.6.5.8.8.3.7.3 1.1c0 .4-.1.8-.3 1.1s-.5.6-.8.8-.7.3-1.1.3c-.4 0-.8-.1-1.1-.3s-.6-.5-.8-.8-.3-.7-.3-1.1c0-.4.1-.8.3-1.1s.5-.6.8-.8.7-.3 1.1-.3zm0 3.6c.3 0 .5-.1.7-.2.2-.1.4-.3.5-.5.1-.2.2-.4.2-.7 0-.3-.1-.5-.2-.7-.1-.2-.3-.4-.5-.5-.2-.1-.4-.2-.7-.2-.3 0-.5.1-.7.2-.2.1-.4.3-.5.5-.1.2-.2.4-.2.7 0 .3.1.5.2.7.1.2.3.4.5.5.2.1.4.2.7.2zM279.7 36h-1.2v-.8h3.3v.8h-1.2v3.5h-.8V36zM282.4 35.1h3.3v.9h-2.5v.9h1.4v.8h-1.4v.9h2.5v.8h-3.3v-4.3z"/></g></svg>