<?xml version="1.0" encoding="utf-8"?>
<!-- Generator: Adobe Illustrator 27.4.0, SVG Export Plug-In . SVG Version: 6.00 Build 0)  -->
<svg version="1.1" baseProfile="tiny" id="Layer_1" xmlns="http://www.w3.org/2000/svg" xmlns:xlink="http://www.w3.org/1999/xlink"
	 x="0px" y="0px" viewBox="0 0 728 90" overflow="visible" xml:space="preserve">
<g>
	<path fill="#FFFFFF" d="M17.7,75.6c0,0.7-0.2,1.3-0.5,1.8c-0.3,0.5-0.7,0.9-1.3,1.2c-0.5,0.3-1.1,0.5-1.8,0.5
		c-0.7,0-1.3-0.2-1.9-0.5c-0.6-0.3-1-0.8-1.3-1.3s-0.5-1.2-0.5-1.9c0-0.7,0.2-1.4,0.5-1.9c0.3-0.6,0.8-1,1.3-1.3s1.2-0.5,1.9-0.5
		c0.7,0,1.3,0.2,1.9,0.5s1,0.7,1.3,1.3l-0.6,0.4c-0.3-0.4-0.6-0.8-1-1c-0.4-0.3-0.9-0.4-1.5-0.4c-0.6,0-1.1,0.1-1.5,0.4
		c-0.4,0.3-0.8,0.6-1,1.1s-0.4,1-0.4,1.6c0,0.6,0.1,1.1,0.4,1.6s0.6,0.8,1,1.1s0.9,0.4,1.5,0.4c0.5,0,0.9-0.1,1.3-0.3
		s0.7-0.4,0.9-0.7s0.4-0.7,0.5-1.1h-3.1v-0.7H17.7z"/>
	<path fill="#FFFFFF" d="M19,71.7h5.4v0.7h-4.6v2.5h2.7v0.7h-2.7v2.6h4.6V79H19V71.7z"/>
	<path fill="#FFFFFF" d="M31.3,71.7V79h-0.8l-4-6v6h-0.8v-7.3h0.8l4,6v-6H31.3z"/>
	<path fill="#FFFFFF" d="M35,75.8v0.7h-2.3v-0.7H35z"/>
	<path fill="#FFFFFF" d="M41.5,75.9v0.7h-1.4V79h-0.8v-2.3H36v-0.6l3.2-4.4h0.8v4.3H41.5z M39.3,75.9v-3.2L37,75.9H39.3z"/>
	<path fill="#FFFFFF" d="M42.1,71.7h4.6v0.7L43.8,79H43l2.9-6.6h-3.8V71.7z"/>
	<path fill="#FFFFFF" d="M52.4,77c0,0.4-0.1,0.8-0.3,1.1c-0.2,0.3-0.5,0.6-0.8,0.8c-0.3,0.2-0.7,0.3-1.1,0.3c-0.4,0-0.8-0.1-1.2-0.3
		s-0.6-0.4-0.8-0.8s-0.3-0.7-0.3-1.1h0.8c0,0.3,0.1,0.5,0.2,0.7s0.3,0.4,0.5,0.5c0.2,0.1,0.5,0.2,0.8,0.2c0.3,0,0.5-0.1,0.8-0.2
		s0.4-0.3,0.5-0.5s0.2-0.4,0.2-0.7c0-0.3-0.1-0.5-0.2-0.7c-0.1-0.2-0.3-0.4-0.5-0.5c-0.2-0.1-0.5-0.2-0.7-0.2h-0.7v-0.7h0.7
		c0.3,0,0.5-0.1,0.7-0.2c0.2-0.1,0.4-0.3,0.5-0.5s0.2-0.4,0.2-0.7c0-0.3-0.1-0.5-0.2-0.7c-0.1-0.2-0.3-0.3-0.5-0.4
		c-0.2-0.1-0.4-0.2-0.7-0.2c-0.3,0-0.5,0.1-0.7,0.2s-0.4,0.2-0.5,0.4c-0.1,0.2-0.2,0.4-0.2,0.6h-0.8c0-0.4,0.1-0.7,0.3-1
		c0.2-0.3,0.4-0.5,0.7-0.7c0.3-0.2,0.7-0.3,1.1-0.3c0.4,0,0.8,0.1,1.1,0.3c0.3,0.2,0.6,0.4,0.7,0.7s0.3,0.6,0.3,1
		c0,0.3-0.1,0.7-0.2,0.9s-0.4,0.5-0.7,0.7c0.3,0.2,0.5,0.4,0.7,0.7S52.4,76.6,52.4,77z"/>
	<path fill="#FFFFFF" d="M58.6,76.7c0,0.4-0.1,0.9-0.3,1.2s-0.5,0.6-0.9,0.8s-0.8,0.3-1.2,0.3c-0.5,0-0.9-0.1-1.2-0.3
		s-0.7-0.5-0.9-0.8s-0.3-0.8-0.3-1.2c0-0.3,0-0.6,0.1-0.9c0.1-0.3,0.2-0.6,0.4-0.8l2.2-3.4h0.9l-1.8,2.8c0.2-0.1,0.4-0.1,0.7-0.1
		c0.5,0,0.9,0.1,1.2,0.3c0.4,0.2,0.7,0.5,0.9,0.8C58.5,75.9,58.6,76.3,58.6,76.7z M57.9,76.7c0-0.3-0.1-0.6-0.2-0.8
		s-0.3-0.4-0.6-0.6c-0.3-0.1-0.5-0.2-0.9-0.2c-0.3,0-0.6,0.1-0.9,0.2c-0.3,0.1-0.4,0.3-0.6,0.6s-0.2,0.5-0.2,0.8
		c0,0.3,0.1,0.6,0.2,0.8c0.1,0.2,0.3,0.4,0.6,0.6c0.3,0.1,0.5,0.2,0.9,0.2s0.6-0.1,0.9-0.2c0.3-0.1,0.5-0.3,0.6-0.6
		S57.9,77,57.9,76.7z"/>
	<path fill="#FFFFFF" d="M64.8,76.7c0,0.4-0.1,0.9-0.3,1.2s-0.5,0.6-0.9,0.8s-0.8,0.3-1.2,0.3c-0.5,0-0.9-0.1-1.2-0.3
		s-0.7-0.5-0.9-0.8S60,77.2,60,76.7c0-0.3,0-0.6,0.1-0.9c0.1-0.3,0.2-0.6,0.4-0.8l2.2-3.4h0.9l-1.8,2.8c0.2-0.1,0.4-0.1,0.7-0.1
		c0.5,0,0.9,0.1,1.2,0.3c0.4,0.2,0.7,0.5,0.9,0.8C64.7,75.9,64.8,76.3,64.8,76.7z M64.1,76.7c0-0.3-0.1-0.6-0.2-0.8
		s-0.3-0.4-0.6-0.6c-0.3-0.1-0.5-0.2-0.9-0.2c-0.3,0-0.6,0.1-0.9,0.2c-0.3,0.1-0.4,0.3-0.6,0.6s-0.2,0.5-0.2,0.8
		c0,0.3,0.1,0.6,0.2,0.8c0.1,0.2,0.3,0.4,0.6,0.6c0.3,0.1,0.5,0.2,0.9,0.2s0.6-0.1,0.9-0.2c0.3-0.1,0.5-0.3,0.6-0.6
		S64.1,77,64.1,76.7z"/>
	<path fill="#FFFFFF" d="M71,76.7c0,0.4-0.1,0.9-0.3,1.2s-0.5,0.6-0.9,0.8s-0.8,0.3-1.2,0.3c-0.5,0-0.9-0.1-1.2-0.3
		s-0.7-0.5-0.9-0.8s-0.3-0.8-0.3-1.2c0-0.3,0-0.6,0.1-0.9c0.1-0.3,0.2-0.6,0.4-0.8l2.2-3.4h0.9l-1.8,2.8c0.2-0.1,0.4-0.1,0.7-0.1
		c0.5,0,0.9,0.1,1.2,0.3c0.4,0.2,0.7,0.5,0.9,0.8C70.9,75.9,71,76.3,71,76.7z M70.2,76.7c0-0.3-0.1-0.6-0.2-0.8s-0.3-0.4-0.6-0.6
		c-0.3-0.1-0.5-0.2-0.9-0.2c-0.3,0-0.6,0.1-0.9,0.2c-0.3,0.1-0.4,0.3-0.6,0.6s-0.2,0.5-0.2,0.8c0,0.3,0.1,0.6,0.2,0.8
		c0.1,0.2,0.3,0.4,0.6,0.6c0.3,0.1,0.5,0.2,0.9,0.2s0.6-0.1,0.9-0.2c0.3-0.1,0.5-0.3,0.6-0.6S70.2,77,70.2,76.7z"/>
	<path fill="#FFFFFF" d="M77.2,76.7c0,0.4-0.1,0.9-0.3,1.2s-0.5,0.6-0.9,0.8s-0.8,0.3-1.2,0.3c-0.5,0-0.9-0.1-1.2-0.3
		s-0.7-0.5-0.9-0.8s-0.3-0.8-0.3-1.2c0-0.3,0-0.6,0.1-0.9c0.1-0.3,0.2-0.6,0.4-0.8l2.2-3.4h0.9l-1.8,2.8c0.2-0.1,0.4-0.1,0.7-0.1
		c0.5,0,0.9,0.1,1.2,0.3c0.4,0.2,0.7,0.5,0.9,0.8C77.1,75.9,77.2,76.3,77.2,76.7z M76.4,76.7c0-0.3-0.1-0.6-0.2-0.8
		s-0.3-0.4-0.6-0.6c-0.3-0.1-0.5-0.2-0.9-0.2c-0.3,0-0.6,0.1-0.9,0.2c-0.3,0.1-0.4,0.3-0.6,0.6s-0.2,0.5-0.2,0.8
		c0,0.3,0.1,0.6,0.2,0.8c0.1,0.2,0.3,0.4,0.6,0.6c0.3,0.1,0.5,0.2,0.9,0.2s0.6-0.1,0.9-0.2c0.3-0.1,0.5-0.3,0.6-0.6
		S76.4,77,76.4,76.7z"/>
	<path fill="#FFFFFF" d="M79.1,77.9c0.2,0,0.3,0.1,0.4,0.2s0.2,0.2,0.2,0.4s-0.1,0.3-0.2,0.4C79.4,79,79.3,79,79.1,79
		s-0.3-0.1-0.4-0.2c-0.1-0.1-0.2-0.2-0.2-0.4s0.1-0.3,0.2-0.4S78.9,77.9,79.1,77.9z"/>
	<path fill="#FFFFFF" d="M85.6,78.2V79h-4.5v-0.7l2.9-3.1c0.2-0.3,0.4-0.5,0.5-0.7s0.2-0.5,0.2-0.7c0-0.3-0.1-0.5-0.2-0.7
		s-0.3-0.4-0.5-0.5s-0.5-0.2-0.8-0.2c-0.3,0-0.5,0.1-0.7,0.2c-0.2,0.1-0.4,0.3-0.5,0.5c-0.1,0.2-0.2,0.5-0.2,0.7h-0.8
		c0-0.4,0.1-0.8,0.3-1.1s0.4-0.6,0.8-0.8s0.7-0.3,1.2-0.3c0.4,0,0.8,0.1,1.1,0.3c0.3,0.2,0.6,0.4,0.8,0.8s0.3,0.7,0.3,1.1
		c0,0.4-0.1,0.7-0.2,1s-0.4,0.6-0.7,1l-2.4,2.5H85.6z"/>
</g>
</svg>
