<?xml version="1.0" encoding="utf-8"?>
<!-- Generator: Adobe Illustrator 27.4.0, SVG Export Plug-In . SVG Version: 6.00 Build 0)  -->
<svg version="1.1" baseProfile="tiny" id="Layer_1" xmlns="http://www.w3.org/2000/svg" xmlns:xlink="http://www.w3.org/1999/xlink"
	 x="0px" y="0px" viewBox="0 0 728 90" overflow="visible" xml:space="preserve">
<g>
	<path fill="#193062" d="M219.7,12.1h3.1v5.7h5.6v-5.7h3.1v14.6h-3.1v-5.8h-5.6v5.8h-3.1V12.1z"/>
	<path fill="#193062" d="M243.7,22.8h-7c0.3,0.9,1.2,1.5,2.3,1.5c1,0,1.7-0.5,2.1-1.2l2.4,1.4c-0.9,1.5-2.5,2.5-4.5,2.5
		c-3,0-5.2-2.3-5.2-5.2c0-3,2.1-5.3,5.1-5.3c3,0,5.1,2.2,5.1,5.2C243.8,22,243.8,22.4,243.7,22.8z M236.6,20.6h4.3
		c-0.3-1-1.1-1.5-2.1-1.5C237.7,19.1,236.9,19.7,236.6,20.6z"/>
	<path fill="#193062" d="M245.8,11.5h3v15.2h-3V11.5z"/>
	<path fill="#193062" d="M261.8,21.7c0,2.9-2.1,5.2-5,5.2c-1,0-1.8-0.3-2.5-0.8V31h-3V16.7h2.9v0.6c0.7-0.5,1.6-0.8,2.6-0.8
		C259.8,16.4,261.8,18.7,261.8,21.7z M258.9,21.7c0-1.4-1-2.4-2.3-2.4c-1.4,0-2.4,1-2.4,2.4c0,1.3,1,2.4,2.4,2.4
		C257.9,24.1,258.9,23,258.9,21.7z"/>
	<path fill="#193062" d="M265.3,11.7c1.1,0,1.8,0.8,1.8,1.8c0,1-0.8,1.8-1.8,1.8c-1.1,0-1.8-0.8-1.8-1.8
		C263.4,12.5,264.2,11.7,265.3,11.7z M266.8,26.7h-3V16.7h3V26.7z"/>
	<path fill="#193062" d="M278.7,20.4v6.3h-3V21c0-1-0.6-1.7-1.7-1.7c-1,0-1.7,0.8-1.7,1.7v5.7h-3V16.7h2.9v0.6
		c0.7-0.5,1.5-0.8,2.5-0.8C277,16.4,278.7,18.1,278.7,20.4z"/>
	<path fill="#193062" d="M290.7,16.7v9.8c0,2.7-2,4.8-5,4.8c-2.3,0-4.1-1.3-4.7-3.2l2.7-1c0.3,0.9,1,1.4,2,1.4c1.2,0,2.1-0.8,2.1-2
		v-0.7c-0.6,0.5-1.5,0.7-2.4,0.7c-2.7,0-4.7-2.2-4.7-5c0-2.8,2-5,4.7-5c1,0,1.8,0.3,2.5,0.8v-0.6H290.7z M287.8,21.5
		c0-1.2-0.9-2.1-2.1-2.1c-1.2,0-2.1,0.9-2.1,2.1c0,1.1,0.9,2.1,2.1,2.1C286.9,23.5,287.8,22.6,287.8,21.5z"/>
	<path fill="#193062" d="M309.6,21.7c0,2.9-2.1,5.2-5,5.2c-1,0-1.8-0.3-2.5-0.8V31h-3V16.7h2.9v0.6c0.7-0.5,1.6-0.8,2.6-0.8
		C307.5,16.4,309.6,18.7,309.6,21.7z M306.6,21.7c0-1.4-1-2.4-2.3-2.4c-1.4,0-2.4,1-2.4,2.4c0,1.3,1,2.4,2.4,2.4
		C305.7,24.1,306.6,23,306.6,21.7z"/>
	<path fill="#193062" d="M317.9,16.7v2.9h-1.5c-1.1,0-1.9,0.9-1.9,2v5.2h-3V16.7h2.9v0.9c0.6-0.7,1.5-0.9,2.3-0.9H317.9z"/>
	<path fill="#193062" d="M324.2,16.4c3,0,5.3,2.3,5.3,5.3c0,2.9-2.2,5.2-5.3,5.2s-5.3-2.4-5.3-5.2C318.9,18.7,321.1,16.4,324.2,16.4
		z M324.2,24.1c1.3,0,2.3-1,2.3-2.3c0-1.3-1-2.4-2.3-2.4s-2.3,1-2.3,2.4C321.8,23,322.8,24.1,324.2,24.1z"/>
	<path fill="#193062" d="M334.7,16.7h3.1v2.8h-3.1v3.4c0,0.7,0.4,1.1,1.1,1.1h2v2.8h-2.6c-2,0-3.4-1.3-3.4-3.4v-3.9h-1.5V18l2.8-3.4
		h1.6V16.7z"/>
	<path fill="#193062" d="M349.1,22.8h-7c0.3,0.9,1.2,1.5,2.3,1.5c1,0,1.7-0.5,2.1-1.2l2.4,1.4c-0.9,1.5-2.5,2.5-4.5,2.5
		c-3,0-5.2-2.3-5.2-5.2c0-3,2.1-5.3,5.1-5.3c3,0,5.1,2.2,5.1,5.2C349.2,22,349.2,22.4,349.1,22.8z M342,20.6h4.3
		c-0.3-1-1.1-1.5-2.1-1.5C343.1,19.1,342.3,19.7,342,20.6z"/>
	<path fill="#193062" d="M355.7,16.4c1.9,0,3.5,0.9,4.4,2.4l-2.4,1.7c-0.4-0.7-1.1-1.2-2-1.2c-1.3,0-2.3,1-2.3,2.4s1,2.4,2.3,2.4
		c0.9,0,1.5-0.5,2-1.1l2.4,1.7c-0.9,1.4-2.5,2.4-4.4,2.4c-3,0-5.2-2.3-5.2-5.3S352.7,16.4,355.7,16.4z"/>
	<path fill="#193062" d="M365.1,16.7h3.1v2.8h-3.1v3.4c0,0.7,0.4,1.1,1.1,1.1h2v2.8h-2.6c-2,0-3.4-1.3-3.4-3.4v-3.9h-1.5V18l2.8-3.4
		h1.6V16.7z"/>
	<path fill="#193062" d="M384.3,16.7L379.2,31h-3.1l1.6-4.5l-3.6-9.9h3.2l1.9,5.5l2-5.5H384.3z"/>
	<path fill="#193062" d="M390.1,16.4c3,0,5.3,2.3,5.3,5.3c0,2.9-2.2,5.2-5.3,5.2s-5.3-2.4-5.3-5.2C384.8,18.7,387.1,16.4,390.1,16.4
		z M390.1,24.1c1.3,0,2.3-1,2.3-2.3c0-1.3-1-2.4-2.3-2.4c-1.3,0-2.3,1-2.3,2.4C387.8,23,388.8,24.1,390.1,24.1z"/>
	<path fill="#193062" d="M406.5,16.7v10.1h-2.9v-0.6c-0.7,0.5-1.5,0.8-2.4,0.8c-2.3,0-3.9-1.7-3.9-4v-6.3h3v5.7
		c0,0.9,0.6,1.7,1.7,1.7c1,0,1.7-0.8,1.7-1.7v-5.7H406.5z"/>
	<path fill="#193062" d="M415.6,16.7v2.9h-1.5c-1.1,0-1.9,0.9-1.9,2v5.2h-3V16.7h2.9v0.9c0.6-0.7,1.5-0.9,2.3-0.9H415.6z"/>
	<path fill="#193062" d="M424,19.5h-2v-2.8h2v-2c0-1.9,1.3-3.1,3.2-3.1h2.3v2.8h-1.7c-0.5,0-0.8,0.3-0.8,0.8v1.5h2.5v2.8H427v7.3h-3
		V19.5z"/>
	<path fill="#193062" d="M439.3,20.4v6.3h-2.9v-0.5c-0.6,0.5-1.4,0.8-2.5,0.8c-2.1,0-3.5-1.3-3.5-3.2c0-2.1,1.6-3,3.5-3.1l2.5-0.2
		v-0.1c0-0.7-0.7-1.2-1.5-1.2c-0.7,0-1.3,0.4-1.5,0.9h-2.8c0.1-2.1,1.9-3.6,4.3-3.6C437.6,16.4,439.3,18.1,439.3,20.4z M436.4,23.2
		v-0.6l-2,0.2c-0.7,0.1-1.1,0.4-1.1,0.9c0,0.5,0.5,0.9,1.3,0.9C435.8,24.6,436.4,24.1,436.4,23.2z"/>
	<path fill="#193062" d="M456.6,20.2v6.6h-3v-5.9c0-0.8-0.5-1.5-1.5-1.5c-0.9,0-1.4,0.7-1.4,1.5v5.9h-3v-5.9c0-0.8-0.5-1.5-1.5-1.5
		c-0.9,0-1.5,0.7-1.5,1.5v5.9h-3V16.7h2.9v0.5c0.6-0.4,1.4-0.7,2.3-0.7c1.1,0,2,0.4,2.6,1c0.7-0.6,1.7-1,2.8-1
		C454.9,16.4,456.6,18,456.6,20.2z"/>
	<path fill="#193062" d="M460.7,11.7c1.1,0,1.8,0.8,1.8,1.8c0,1-0.8,1.8-1.8,1.8c-1.1,0-1.8-0.8-1.8-1.8
		C458.9,12.5,459.6,11.7,460.7,11.7z M462.2,26.7h-3V16.7h3V26.7z"/>
	<path fill="#193062" d="M464.8,11.5h3v15.2h-3V11.5z"/>
	<path fill="#193062" d="M479.4,16.7L474.3,31h-3.1l1.6-4.5l-3.6-9.9h3.2l1.9,5.5l2-5.5H479.4z"/>
	<path fill="#193062" d="M484.1,13.7c0,0.2,0,0.5-0.1,0.7l-1.2,3.3h-1.7l0.6-2.3c-0.7-0.2-1.1-0.9-1.1-1.7c0-1,0.7-1.8,1.8-1.8
		C483.4,11.9,484.1,12.7,484.1,13.7z"/>
	<path fill="#193062" d="M489.1,24.3c0.8,0,1.3-0.3,1.3-0.7c0-0.3-0.3-0.5-0.8-0.5s-1.1-0.1-1.8-0.2c-2-0.3-2.9-1.5-2.9-3
		c0-2,1.6-3.4,4.1-3.4c2.4,0,4.1,1.4,4.1,3.4h-2.9c0-0.5-0.5-0.7-1.2-0.7c-0.7,0-1.2,0.3-1.2,0.7c0,0.3,0.2,0.4,0.7,0.5
		c0.6,0.1,1.1,0.1,1.9,0.2c2,0.2,2.9,1.5,2.9,3c0,2-1.7,3.5-4.2,3.5c-2.5,0-4.2-1.4-4.2-3.5h2.9C487.7,24,488.3,24.3,489.1,24.3z"/>
</g>
<g>
	<path fill="#193062" d="M220.5,43.5h-2v-2.8h2v-2c0-1.9,1.3-3.1,3.2-3.1h2.3v2.8h-1.7c-0.5,0-0.8,0.3-0.8,0.8v1.5h2.5v2.8h-2.5v7.3
		h-3V43.5z"/>
	<path fill="#193062" d="M237,40.7v10.1h-2.9v-0.6c-0.7,0.5-1.5,0.8-2.4,0.8c-2.3,0-3.9-1.7-3.9-4v-6.3h3v5.7c0,0.9,0.6,1.7,1.7,1.7
		c1,0,1.7-0.8,1.7-1.7v-5.7H237z"/>
	<path fill="#193062" d="M243,40.7h3.1v2.8H243v3.4c0,0.7,0.4,1.1,1.1,1.1h2v2.8h-2.6c-2,0-3.4-1.3-3.4-3.4v-3.9h-1.5V42l2.8-3.4
		h1.6V40.7z"/>
	<path fill="#193062" d="M257.3,40.7v10.1h-2.9v-0.6c-0.7,0.5-1.5,0.8-2.4,0.8c-2.3,0-3.9-1.7-3.9-4v-6.3h3v5.7
		c0,0.9,0.6,1.7,1.7,1.7c1,0,1.7-0.8,1.7-1.7v-5.7H257.3z"/>
	<path fill="#193062" d="M266.3,40.7v2.9h-1.5c-1.1,0-1.9,0.9-1.9,2v5.2h-3V40.7h2.9v0.9c0.6-0.7,1.5-0.9,2.3-0.9H266.3z"/>
	<path fill="#193062" d="M277.3,46.8h-7c0.3,0.9,1.2,1.5,2.3,1.5c1,0,1.7-0.5,2.1-1.2l2.4,1.4c-0.9,1.5-2.5,2.5-4.5,2.5
		c-3,0-5.2-2.3-5.2-5.2c0-3,2.1-5.3,5.1-5.3c3,0,5.1,2.2,5.1,5.2C277.4,46,277.4,46.4,277.3,46.8z M270.2,44.6h4.3
		c-0.3-1-1.1-1.5-2.1-1.5C271.3,43.1,270.5,43.7,270.2,44.6z"/>
	<path fill="#193062" d="M289.7,40.4c1.9,0,3.5,0.9,4.4,2.4l-2.4,1.7c-0.4-0.7-1.1-1.2-2-1.2c-1.3,0-2.3,1-2.3,2.4
		c0,1.3,1,2.4,2.3,2.4c0.9,0,1.5-0.5,2-1.1l2.4,1.7c-0.9,1.4-2.5,2.4-4.4,2.4c-3,0-5.2-2.3-5.2-5.3
		C284.5,42.7,286.7,40.4,289.7,40.4z"/>
	<path fill="#193062" d="M300.2,40.4c3,0,5.3,2.3,5.3,5.3c0,2.9-2.2,5.2-5.3,5.2s-5.3-2.4-5.3-5.2C295,42.7,297.2,40.4,300.2,40.4z
		 M300.2,48.1c1.3,0,2.3-1,2.3-2.3c0-1.3-1-2.4-2.3-2.4s-2.3,1-2.3,2.4C297.9,47,298.9,48.1,300.2,48.1z"/>
	<path fill="#193062" d="M316.7,40.7v10.1h-2.9v-0.6c-0.7,0.5-1.5,0.8-2.4,0.8c-2.3,0-3.9-1.7-3.9-4v-6.3h3v5.7
		c0,0.9,0.6,1.7,1.7,1.7c1,0,1.7-0.8,1.7-1.7v-5.7H316.7z"/>
	<path fill="#193062" d="M319.3,35.5h3v15.2h-3V35.5z"/>
	<path fill="#193062" d="M334.7,35.5v15.2h-2.9v-0.6c-0.7,0.5-1.6,0.8-2.6,0.8c-2.9,0-5-2.3-5-5.2c0-3,2.1-5.3,5-5.3
		c1,0,1.8,0.3,2.5,0.8v-5.7H334.7z M331.8,45.7c0-1.4-1-2.4-2.4-2.4c-1.3,0-2.3,1-2.3,2.4c0,1.3,1,2.4,2.3,2.4
		C330.9,48.1,331.8,47,331.8,45.7z"/>
	<path fill="#193062" d="M346.7,48.3c0.8,0,1.3-0.3,1.3-0.7c0-0.3-0.3-0.5-0.8-0.5c-0.5-0.1-1.1-0.1-1.8-0.2c-2-0.3-2.9-1.5-2.9-3
		c0-2,1.6-3.4,4.1-3.4c2.4,0,4.1,1.4,4.1,3.4h-2.9c0-0.5-0.5-0.7-1.2-0.7c-0.7,0-1.2,0.3-1.2,0.7c0,0.3,0.2,0.4,0.7,0.5
		c0.6,0.1,1.1,0.1,1.9,0.2c2,0.2,2.9,1.5,2.9,3c0,2-1.7,3.5-4.2,3.5c-2.5,0-4.2-1.4-4.2-3.5h2.9C345.3,48,345.9,48.3,346.7,48.3z"/>
	<path fill="#193062" d="M356.1,40.7h3.1v2.8h-3.1v3.4c0,0.7,0.4,1.1,1.1,1.1h2v2.8h-2.6c-2,0-3.4-1.3-3.4-3.4v-3.9h-1.5V42l2.8-3.4
		h1.6V40.7z"/>
	<path fill="#193062" d="M369.6,44.4v6.3h-2.9v-0.5c-0.6,0.5-1.4,0.8-2.5,0.8c-2.1,0-3.5-1.3-3.5-3.2c0-2.1,1.6-3,3.5-3.1l2.5-0.2
		v-0.1c0-0.7-0.7-1.2-1.5-1.2c-0.7,0-1.3,0.4-1.5,0.9h-2.8c0.1-2.1,1.9-3.6,4.3-3.6C367.8,40.4,369.6,42.1,369.6,44.4z M366.7,47.2
		v-0.6l-2,0.2c-0.7,0.1-1.1,0.4-1.1,0.9c0,0.5,0.5,0.9,1.3,0.9C366,48.6,366.7,48.1,366.7,47.2z"/>
	<path fill="#193062" d="M378.5,40.7v2.9H377c-1.1,0-1.9,0.9-1.9,2v5.2h-3V40.7h2.9v0.9c0.6-0.7,1.5-0.9,2.3-0.9H378.5z"/>
	<path fill="#193062" d="M383.8,40.7h3.1v2.8h-3.1v3.4c0,0.7,0.4,1.1,1.1,1.1h2v2.8h-2.6c-2,0-3.4-1.3-3.4-3.4v-3.9h-1.5V42l2.8-3.4
		h1.6V40.7z"/>
	<path fill="#193062" d="M408.8,40.7l-3.3,10.1h-3l-1.3-4.2l-1.3,4.2h-3l-3.3-10.1h3.2l1.8,5.7l1.8-5.7h1.9l1.7,5.5l1.8-5.5H408.8z"
		/>
	<path fill="#193062" d="M411.8,35.7c1.1,0,1.8,0.8,1.8,1.8c0,1-0.8,1.8-1.8,1.8c-1.1,0-1.8-0.8-1.8-1.8
		C409.9,36.5,410.7,35.7,411.8,35.7z M413.3,50.7h-3V40.7h3V50.7z"/>
	<path fill="#193062" d="M419.2,40.7h3.1v2.8h-3.1v3.4c0,0.7,0.4,1.1,1.1,1.1h2v2.8h-2.6c-2,0-3.4-1.3-3.4-3.4v-3.9h-1.5V42l2.8-3.4
		h1.6V40.7z"/>
	<path fill="#193062" d="M433.7,44.5v6.3h-3v-5.7c0-1-0.6-1.7-1.7-1.7c-1.1,0-1.7,0.8-1.7,1.7v5.7h-3V35.5h3v5.7
		c0.7-0.5,1.5-0.8,2.4-0.8C432,40.4,433.7,42.1,433.7,44.5z"/>
</g>
<g>
	<path fill="#193062" d="M222.8,63.2h-4.2v-3h11.4v3H226v11.6h-3.1V63.2z"/>
	<path fill="#193062" d="M236.5,64.7v2.9H235c-1.1,0-1.9,0.9-1.9,2v5.2h-3V64.7h2.9v0.9c0.6-0.7,1.5-0.9,2.3-0.9H236.5z"/>
	<path fill="#193062" d="M247.4,64.7v10.1h-2.9v-0.6c-0.7,0.5-1.5,0.8-2.4,0.8c-2.3,0-3.9-1.7-3.9-4v-6.3h3v5.7
		c0,0.9,0.6,1.7,1.7,1.7c1,0,1.7-0.8,1.7-1.7v-5.7H247.4z"/>
	<path fill="#193062" d="M254.9,62.9c-1.3,0-2.1,0.7-2.1,1.5c0,0.6,0.4,0.9,0.9,1.1c0.9,0.3,2.3,0.2,3.7,0.6c1.9,0.6,3.1,2,3.1,4
		c0,2.8-2.2,4.8-5.4,4.8c-3.1,0-5.5-1.9-5.5-4.7h3.1c0,1.1,1,1.8,2.4,1.8c1.5,0,2.3-0.7,2.3-1.7c0-0.7-0.4-1.1-0.9-1.2
		c-0.9-0.3-2.4-0.2-3.7-0.6c-1.9-0.5-3-2-3-3.9c0-2.7,2.1-4.7,5.2-4.7c3.1,0,5.3,1.8,5.3,4.5h-3.1C257.1,63.5,256.2,62.9,254.9,62.9
		z"/>
	<path fill="#193062" d="M265.9,64.7h3.1v2.8h-3.1v3.4c0,0.7,0.4,1.1,1.1,1.1h2v2.8h-2.6c-2,0-3.4-1.3-3.4-3.4v-3.9h-1.5V66l2.8-3.4
		h1.6V64.7z"/>
	<path fill="#193062" d="M279.4,68.4v6.3h-2.9v-0.5c-0.6,0.5-1.4,0.8-2.5,0.8c-2.1,0-3.5-1.3-3.5-3.2c0-2.1,1.6-3,3.5-3.1l2.5-0.2
		v-0.1c0-0.7-0.7-1.2-1.5-1.2c-0.7,0-1.3,0.4-1.5,0.9h-2.8c0.1-2.1,1.9-3.6,4.3-3.6C277.6,64.4,279.4,66.1,279.4,68.4z M276.5,71.2
		v-0.6l-2,0.2c-0.7,0.1-1.1,0.4-1.1,0.9c0,0.5,0.5,0.9,1.3,0.9C275.8,72.6,276.5,72.1,276.5,71.2z"/>
	<path fill="#193062" d="M291.4,64.7v9.8c0,2.7-2,4.8-5,4.8c-2.3,0-4.1-1.3-4.7-3.2l2.7-1c0.3,0.9,1,1.4,2,1.4c1.2,0,2.1-0.8,2.1-2
		v-0.7c-0.6,0.5-1.5,0.7-2.4,0.7c-2.7,0-4.7-2.2-4.7-5s2-5,4.7-5c1,0,1.8,0.3,2.5,0.8v-0.6H291.4z M288.5,69.5
		c0-1.2-0.9-2.1-2.1-2.1c-1.2,0-2.1,0.9-2.1,2.1c0,1.1,0.9,2.1,2.1,2.1C287.6,71.5,288.5,70.6,288.5,69.5z"/>
	<path fill="#193062" d="M303.3,70.8h-7c0.3,0.9,1.2,1.5,2.3,1.5c1,0,1.7-0.5,2.1-1.2l2.4,1.4c-0.9,1.5-2.5,2.5-4.5,2.5
		c-3,0-5.2-2.3-5.2-5.2c0-3,2.1-5.3,5.1-5.3c3,0,5.1,2.2,5.1,5.2C303.5,70,303.4,70.4,303.3,70.8z M296.3,68.6h4.3
		c-0.3-1-1.1-1.5-2.1-1.5C297.3,67.1,296.5,67.7,296.3,68.6z"/>
	<path fill="#193062" d="M306.4,61.8h-1.6v-1.6h4.9v1.6h-1.6v4.1h-1.7V61.8z M310.5,60.1h1.7l1.3,2.6l1.3-2.6h1.7v5.7h-1.7v-2.6
		l-1.3,2.7l-1.3-2.7v2.6h-1.6V60.1z"/>
	<path fill="#193062" d="M324,60.1h3.1v11.6h8.3v3H324V60.1z"/>
	<path fill="#193062" d="M338.9,59.7c1.1,0,1.8,0.8,1.8,1.8c0,1-0.8,1.8-1.8,1.8c-1.1,0-1.8-0.8-1.8-1.8
		C337,60.5,337.8,59.7,338.9,59.7z M340.4,74.7h-3V64.7h3V74.7z"/>
	<path fill="#193062" d="M344,67.5h-2v-2.8h2v-2c0-1.9,1.3-3.1,3.2-3.1h2.3v2.8h-1.7c-0.5,0-0.8,0.3-0.8,0.8v1.5h2.5v2.8h-2.5v7.3
		h-3V67.5z"/>
	<path fill="#193062" d="M360.4,70.8h-7c0.3,0.9,1.2,1.5,2.3,1.5c1,0,1.7-0.5,2.1-1.2l2.4,1.4c-0.9,1.5-2.5,2.5-4.5,2.5
		c-3,0-5.2-2.3-5.2-5.2c0-3,2.1-5.3,5.1-5.3c3,0,5.1,2.2,5.1,5.2C360.5,70,360.5,70.4,360.4,70.8z M353.3,68.6h4.3
		c-0.3-1-1.1-1.5-2.1-1.5C354.4,67.1,353.6,67.7,353.3,68.6z"/>
	<path fill="#193062" d="M368.4,60.1h3.1v14.6h-3.1V60.1z"/>
	<path fill="#193062" d="M383.7,68.4v6.3h-3V69c0-1-0.6-1.7-1.7-1.7s-1.7,0.8-1.7,1.7v5.7h-3V64.7h2.9v0.6c0.7-0.5,1.5-0.8,2.5-0.8
		C382,64.4,383.7,66.1,383.7,68.4z"/>
	<path fill="#193062" d="M389.9,72.3c0.8,0,1.3-0.3,1.3-0.7c0-0.3-0.3-0.5-0.8-0.5c-0.5-0.1-1.1-0.1-1.8-0.2c-2-0.3-2.9-1.5-2.9-3
		c0-2,1.6-3.4,4.1-3.4c2.4,0,4.1,1.4,4.1,3.4h-2.9c0-0.5-0.5-0.7-1.2-0.7c-0.7,0-1.2,0.3-1.2,0.7c0,0.3,0.2,0.4,0.7,0.5
		c0.6,0.1,1.1,0.1,1.9,0.2c2,0.2,2.9,1.5,2.9,3c0,2-1.7,3.5-4.2,3.5c-2.5,0-4.2-1.4-4.2-3.5h2.9C388.5,72,389.1,72.3,389.9,72.3z"/>
	<path fill="#193062" d="M405.2,64.7v10.1h-2.9v-0.6c-0.7,0.5-1.5,0.8-2.4,0.8c-2.3,0-3.9-1.7-3.9-4v-6.3h3v5.7
		c0,0.9,0.6,1.7,1.7,1.7c1,0,1.7-0.8,1.7-1.7v-5.7H405.2z"/>
	<path fill="#193062" d="M414.2,64.7v2.9h-1.5c-1.1,0-1.9,0.9-1.9,2v5.2h-3V64.7h2.9v0.9c0.6-0.7,1.5-0.9,2.3-0.9H414.2z"/>
	<path fill="#193062" d="M424,68.4v6.3h-2.9v-0.5c-0.6,0.5-1.4,0.8-2.5,0.8c-2.1,0-3.5-1.3-3.5-3.2c0-2.1,1.6-3,3.5-3.1l2.5-0.2
		v-0.1c0-0.7-0.7-1.2-1.5-1.2c-0.7,0-1.3,0.4-1.5,0.9h-2.8c0.1-2.1,1.9-3.6,4.3-3.6C422.2,64.4,424,66.1,424,68.4z M421.1,71.2v-0.6
		l-2,0.2c-0.7,0.1-1.1,0.4-1.1,0.9c0,0.5,0.5,0.9,1.3,0.9C420.4,72.6,421.1,72.1,421.1,71.2z"/>
	<path fill="#193062" d="M435.9,68.4v6.3h-3V69c0-1-0.6-1.7-1.7-1.7s-1.7,0.8-1.7,1.7v5.7h-3V64.7h2.9v0.6c0.7-0.5,1.5-0.8,2.5-0.8
		C434.2,64.4,435.9,66.1,435.9,68.4z"/>
	<path fill="#193062" d="M443,64.4c1.9,0,3.5,0.9,4.4,2.4l-2.4,1.7c-0.4-0.7-1.1-1.2-2-1.2c-1.3,0-2.3,1-2.3,2.4
		c0,1.3,1,2.4,2.3,2.4c0.9,0,1.5-0.5,2-1.1l2.4,1.7c-0.9,1.4-2.5,2.4-4.4,2.4c-3,0-5.2-2.3-5.2-5.3S440,64.4,443,64.4z"/>
	<path fill="#193062" d="M458.3,70.8h-7c0.3,0.9,1.2,1.5,2.3,1.5c1,0,1.7-0.5,2.1-1.2l2.4,1.4c-0.9,1.5-2.5,2.5-4.5,2.5
		c-3,0-5.2-2.3-5.2-5.2c0-3,2.1-5.3,5.1-5.3c3,0,5.1,2.2,5.1,5.2C458.4,70,458.4,70.4,458.3,70.8z M451.2,68.6h4.3
		c-0.3-1-1.1-1.5-2.1-1.5C452.3,67.1,451.5,67.7,451.2,68.6z"/>
	<path fill="#193062" d="M461.9,71.2c1.1,0,1.8,0.8,1.8,1.8c0,1-0.8,1.8-1.8,1.8c-1.1,0-1.8-0.8-1.8-1.8
		C460,72,460.8,71.2,461.9,71.2z"/>
</g>
</svg>
