<svg baseProfile="tiny" xmlns="http://www.w3.org/2000/svg" viewBox="0 0 300 600" overflow="visible"><g fill="#231F20"><path d="M16.8 580.4c0 .6-.2 1.1-.4 1.6-.3.5-.6.9-1.1 1.1-.5.3-1 .4-1.6.4-.6 0-1.2-.1-1.7-.4-.5-.3-.9-.7-1.2-1.2-.3-.5-.4-1.1-.4-1.7 0-.6.1-1.2.4-1.7.3-.5.7-.9 1.2-1.2.5-.3 1.1-.4 1.7-.4.6 0 1.2.1 1.7.4.5.3.9.7 1.2 1.2l-.6.4c-.2-.4-.5-.7-.9-.9-.4-.2-.8-.3-1.3-.3s-1 .1-1.4.3c-.4.2-.7.6-.9 1-.2.4-.3.9-.3 1.4 0 .5.1 1 .3 1.4s.5.7.9 1 .9.3 1.4.3c.4 0 .8-.1 1.1-.2.3-.2.6-.4.8-.6.2-.3.4-.6.5-1h-2.8v-.6h3.4zM17.9 576.9h4.9v.7h-4.2v2.3H21v.7h-2.4v2.3h4.2v.7h-4.9v-6.7zM29.1 576.9v6.6h-.7l-3.6-5.4v5.4h-.7v-6.6h.7l3.6 5.4v-5.4h.7zM32.4 580.6v.6h-2.1v-.6h2.1zM38.2 580.8v.7h-1.3v2.1h-.7v-2.1h-3v-.6l2.9-4h.7v3.8h1.4zm-1.9 0v-2.9l-2.1 2.9h2.1zM38.7 576.9h4.2v.6l-2.6 5.9h-.7l2.6-5.9h-3.4v-.6zM48 581.7c0 .4-.1.7-.3 1-.2.3-.4.5-.7.7-.3.2-.6.2-1 .2s-.7-.1-1-.2c-.3-.2-.5-.4-.7-.7-.2-.3-.3-.6-.3-1h.7c0 .2.1.4.2.6.1.2.3.3.5.4.2.1.4.2.7.2.3 0 .5-.1.7-.2s.4-.3.5-.4.2-.4.2-.6c0-.2-.1-.5-.2-.6-.1-.2-.3-.3-.5-.4-.2-.1-.4-.2-.7-.2h-.7v-.7h.6c.2 0 .4 0 .6-.1.2-.1.3-.2.4-.4s.2-.4.2-.6c0-.2-.1-.4-.2-.6-.1-.2-.2-.3-.4-.4-.2-.1-.4-.1-.6-.1-.2 0-.4 0-.6.1s-.3.2-.4.4c-.1.2-.2.4-.2.6h-.7c0-.3.1-.6.2-.9.2-.3.4-.5.7-.6.3-.2.6-.2 1-.2s.7.1 1 .2c.3.2.5.4.7.6.2.3.2.6.2.9 0 .3-.1.6-.2.9-.1.3-.3.5-.6.6.3.2.5.4.7.7.1.1.2.4.2.8zM53.6 581.5c0 .4-.1.8-.3 1.1s-.4.6-.8.8-.7.3-1.1.3c-.4 0-.8-.1-1.1-.3s-.6-.4-.8-.8c-.2-.3-.3-.7-.3-1.1 0-.3 0-.5.1-.8.1-.3.2-.5.3-.7l2-3.1h.8l-1.7 2.5c.2 0 .4-.1.6-.1.4 0 .8.1 1.1.3.3.2.6.4.8.7.3.4.4.8.4 1.2zm-.6 0c0-.3-.1-.5-.2-.8-.1-.2-.3-.4-.5-.5-.2-.1-.5-.2-.8-.2-.3 0-.5.1-.8.2-.2.1-.4.3-.5.5-.1.2-.2.5-.2.8 0 .3.1.5.2.8.1.2.3.4.5.5.2.1.5.2.8.2s.5-.1.8-.2c.2-.1.4-.3.5-.5.1-.3.2-.6.2-.8zM59.2 581.5c0 .4-.1.8-.3 1.1s-.4.6-.8.8-.7.3-1.1.3c-.4 0-.8-.1-1.1-.3s-.6-.4-.8-.8c-.2-.3-.3-.7-.3-1.1 0-.3 0-.5.1-.8.1-.3.2-.5.3-.7l2-3.1h.8l-1.7 2.5c.2 0 .4-.1.6-.1.4 0 .8.1 1.1.3.3.2.6.4.8.7.3.4.4.8.4 1.2zm-.7 0c0-.3-.1-.5-.2-.8-.1-.2-.3-.4-.5-.5-.2-.1-.5-.2-.8-.2-.3 0-.5.1-.8.2-.2.1-.4.3-.5.5-.1.2-.2.5-.2.8 0 .3.1.5.2.8.1.2.3.4.5.5.2.1.5.2.8.2s.5-.1.8-.2c.2-.1.4-.3.5-.5.2-.3.2-.6.2-.8zM64.8 581.5c0 .4-.1.8-.3 1.1s-.4.6-.8.8-.7.3-1.1.3c-.4 0-.8-.1-1.1-.3s-.6-.4-.8-.8c-.2-.3-.3-.7-.3-1.1 0-.3 0-.5.1-.8.1-.3.2-.5.3-.7l2-3.1h.8l-1.7 2.5c.2 0 .4-.1.6-.1.4 0 .8.1 1.1.3.3.2.6.4.8.7.3.4.4.8.4 1.2zm-.7 0c0-.3-.1-.5-.2-.8-.1-.2-.3-.4-.5-.5-.2-.1-.5-.2-.8-.2-.3 0-.5.1-.8.2-.2.1-.4.3-.5.5-.1.2-.2.5-.2.8 0 .3.1.5.2.8.1.2.3.4.5.5.2.1.5.2.8.2s.5-.1.8-.2c.2-.1.4-.3.5-.5.1-.3.2-.6.2-.8zM70.3 581.5c0 .4-.1.8-.3 1.1s-.4.6-.8.8-.7.3-1.1.3c-.4 0-.8-.1-1.1-.3s-.6-.4-.8-.8c-.2-.3-.3-.7-.3-1.1 0-.3 0-.5.1-.8.1-.3.2-.5.3-.7l2-3.1h.8l-1.7 2.5c.2 0 .4-.1.6-.1.4 0 .8.1 1.1.3.3.2.6.4.8.7.3.4.4.8.4 1.2zm-.7 0c0-.3-.1-.5-.2-.8-.1-.2-.3-.4-.5-.5-.2-.1-.5-.2-.8-.2-.3 0-.5.1-.8.2-.2.1-.4.3-.5.5-.1.2-.2.5-.2.8 0 .3.1.5.2.8.1.2.3.4.5.5.2.1.5.2.8.2s.5-.1.8-.2c.2-.1.4-.3.5-.5.2-.3.2-.6.2-.8zM72.1 582.5c.2 0 .3 0 .4.1s.1.2.1.4 0 .3-.1.4c-.1.1-.2.1-.4.1s-.3 0-.4-.1c-.1-.1-.1-.2-.1-.4s0-.3.1-.4c.1 0 .2-.1.4-.1zM77.9 582.8v.7h-4v-.6l2.6-2.8c.2-.2.4-.4.5-.6.1-.2.2-.4.2-.7 0-.2-.1-.5-.2-.7-.1-.2-.3-.3-.5-.5-.2-.1-.4-.2-.7-.2-.2 0-.5.1-.7.2-.2.1-.3.3-.5.4-.1.2-.2.4-.2.7h-.7c0-.4.1-.7.3-1 .2-.3.4-.5.7-.7.3-.2.6-.3 1-.3s.7.1 1 .2c.3.2.5.4.7.7.2.3.2.6.2 1 0 .3-.1.6-.2.9s-.4.6-.6.9l-2.2 2.3h3.3z"/></g></svg>