<svg baseProfile="tiny" xmlns="http://www.w3.org/2000/svg" viewBox="0 0 300 600" overflow="visible"><path fill="#FAE07E" d="M65.4 26h26.2v7.3H65.4z"/><path fill="#FFF" d="M93.8 26h6.3v7.3h-6.3z"/><path fill="#FAE07E" d="M65.4 35.2H85v7.2H65.4z"/><path fill="#FFF" d="M87.2 35.2h12.9v7.2H87.2z"/><path fill="#FAE07E" d="M65.4 44.3h12.9v7.2H65.4z"/><path fill="#FFF" d="M80.6 44.3h19.6v7.2H80.6z"/><path fill="#FAE07E" d="M65.4 53.5h6.3v7.2h-6.3z"/><path fill="#FFF" d="M74 53.5h26.2v7.2H74zM120.6 36.5h-5.9v-3.2h15v3.2h-5.8v17h-3.3z"/><path fill="none" d="M187.5 41.8c-2.5 0-4.2 2-4.2 4.5s1.7 4.5 4.2 4.5 4.2-2 4.2-4.5-1.7-4.5-4.2-4.5zM220.8 41.6c-1.8 0-3.7 1.1-4.1 3.2h7.9c-.3-2.1-2-3.2-3.8-3.2zM204.3 41.8c-2.4 0-4.2 1.8-4.2 4.3s1.8 4.3 4.2 4.3 4.2-1.8 4.2-4.3-1.8-4.3-4.2-4.3z"/><path fill="#FFF" d="M129 39.2v14.2h3.1v-6.9c0-2.8 1.6-4.3 3.4-4.3.6 0 1 .1 1.6.3v-3.2c-.4-.1-.8-.1-1.2-.1-1.6 0-3.2 1.1-3.7 2.7v-2.5H129zM139.5 39.2v8.5c0 3.6 2 6 5.3 6 1.8 0 3.3-.8 4.1-2.2v1.9h3.1V39.2h-3.1v7c0 3-1.4 4.7-3.5 4.7-1.8 0-2.8-1.4-2.8-3.7v-8h-3.1zM161.3 50.7c-2 0-3.6-1-4.7-2.6l-2.6 2.1c1.2 2.2 3.9 3.6 7.2 3.6 3.9 0 6.7-2.3 6.7-5.8 0-3-1.8-4.8-4.7-5.9l-2-.8c-2.1-.8-3.1-1.4-3.1-2.9 0-1.4 1.5-2.3 3.2-2.3 1.6 0 2.8.7 3.8 1.9l2.3-2.2c-1.5-1.8-3.6-2.8-6.1-2.8-3.7 0-6.5 2.2-6.5 5.7 0 2.8 1.6 4.5 4.8 5.7l2.2.8c1.9.7 2.9 1.6 2.9 3.1-.2 1.4-1.6 2.4-3.4 2.4zM194.6 53.5V39.2h-3.1v1.9c-.8-1.1-2.5-2.2-4.5-2.2-3.9 0-6.8 3.3-6.8 7.4s2.9 7.4 6.8 7.4c2 0 3.7-1.1 4.5-2.2v1.9h3.1zm-7.1-2.6c-2.5 0-4.2-2-4.2-4.5s1.7-4.5 4.2-4.5 4.2 2 4.2 4.5-1.7 4.5-4.2 4.5zM204 56.9c-1.9 0-3.5-.8-4.7-2.1l-1.9 2.2c1.4 1.6 3.9 2.6 6.6 2.6 4.2 0 7.4-2.2 7.4-7.2V39.2h-3.1v1.9c-.9-1.2-2.6-2.2-4.5-2.2-3.8 0-6.8 3.2-6.8 7.2s3 7.2 6.8 7.2c2 0 3.7-1 4.5-2.2v1.3c-.1 2.9-2 4.5-4.3 4.5zm.3-6.4c-2.4 0-4.2-1.8-4.2-4.3s1.8-4.3 4.2-4.3 4.2 1.8 4.2 4.3-1.8 4.3-4.2 4.3zM220.9 39c-4.3 0-7.4 3.2-7.4 7.4 0 4.3 3.1 7.4 7.4 7.4 3 0 5.2-1.3 6.5-3.3l-2.4-1.7c-.7 1.2-2.1 2.2-4 2.2-2.4 0-4.2-1.5-4.4-3.9h11.1v-1c0-4.7-3.1-7.1-6.8-7.1zm-4.2 5.8c.4-2.1 2.3-3.2 4.1-3.2 1.8 0 3.5 1.1 3.8 3.2h-7.9zM171.4 35.3v1.8c0 1.2-1 2.2-2.2 2.2h-.8V42h2.9v6.8c0 3.2 2.1 4.7 4.8 4.7 1 0 1.7-.1 2.3-.3v-2.8c-.5.2-1.1.3-1.7.3-1.6 0-2.4-.7-2.4-2.4V42h4v-2.8h-4v-3.9h-2.9zM229.6 36.8l-.7-1.5h-.5v2.5h.5v-1.5l.7 1.5.8-1.5v1.5h.5v-2.5h-.5zM227.2 37.8v-2h.8v-.5h-2.1v.5h.8v2z"/></svg>