<?xml version="1.0" encoding="utf-8"?>
<!-- Generator: Adobe Illustrator 27.4.0, SVG Export Plug-In . SVG Version: 6.00 Build 0)  -->
<svg version="1.1" baseProfile="tiny" id="Layer_1" xmlns="http://www.w3.org/2000/svg" xmlns:xlink="http://www.w3.org/1999/xlink"
	 x="0px" y="0px" viewBox="0 0 300 50" overflow="visible" xml:space="preserve">
<g>
	<path fill="#FFFFFF" d="M11.4,42.3c0,0.4-0.1,0.8-0.3,1.1c-0.2,0.3-0.4,0.6-0.8,0.8s-0.7,0.3-1.1,0.3c-0.4,0-0.8-0.1-1.1-0.3
		c-0.3-0.2-0.6-0.5-0.8-0.8S7,42.6,7,42.2c0-0.4,0.1-0.8,0.3-1.2c0.2-0.3,0.5-0.6,0.8-0.8s0.7-0.3,1.1-0.3c0.4,0,0.8,0.1,1.1,0.3
		s0.6,0.4,0.8,0.8l-0.4,0.2c-0.2-0.3-0.4-0.5-0.6-0.6c-0.3-0.2-0.6-0.2-0.9-0.2c-0.3,0-0.6,0.1-0.9,0.2c-0.3,0.2-0.5,0.4-0.6,0.6
		s-0.2,0.6-0.2,0.9c0,0.3,0.1,0.7,0.2,0.9s0.4,0.5,0.6,0.6S8.9,44,9.2,44c0.3,0,0.5-0.1,0.8-0.2s0.4-0.2,0.6-0.4s0.3-0.4,0.3-0.6H9
		v-0.4H11.4z"/>
	<path fill="#FFFFFF" d="M12.1,40h3.2v0.4h-2.8v1.5h1.6v0.4h-1.6v1.5h2.8v0.4h-3.2V40z"/>
	<path fill="#FFFFFF" d="M19.5,40v4.4h-0.5l-2.4-3.6v3.6h-0.5V40h0.5l2.4,3.6V40H19.5z"/>
	<path fill="#FFFFFF" d="M21.8,42.4v0.4h-1.4v-0.4H21.8z"/>
	<path fill="#FFFFFF" d="M25.4,43c0,0.3-0.1,0.5-0.2,0.7s-0.3,0.4-0.5,0.5c-0.2,0.1-0.5,0.2-0.7,0.2c-0.3,0-0.5-0.1-0.7-0.2
		c-0.2-0.1-0.4-0.3-0.5-0.5s-0.2-0.4-0.2-0.7H23c0,0.2,0,0.3,0.1,0.5c0.1,0.1,0.2,0.3,0.3,0.3c0.1,0.1,0.3,0.1,0.5,0.1
		c0.2,0,0.4,0,0.5-0.1c0.1-0.1,0.3-0.2,0.3-0.3c0.1-0.1,0.1-0.3,0.1-0.5s0-0.3-0.1-0.5s-0.2-0.3-0.3-0.3c-0.1-0.1-0.3-0.1-0.5-0.1
		h-1.2L23,40h2.2v0.4h-1.8l-0.2,1.2H24c0.3,0,0.5,0.1,0.7,0.2s0.4,0.3,0.5,0.5S25.4,42.8,25.4,43z"/>
	<path fill="#FFFFFF" d="M29.1,43c0,0.3-0.1,0.5-0.2,0.7s-0.3,0.4-0.5,0.5s-0.5,0.2-0.7,0.2c-0.3,0-0.5-0.1-0.7-0.2
		s-0.4-0.3-0.5-0.5s-0.2-0.5-0.2-0.7c0-0.2,0-0.3,0.1-0.5s0.1-0.3,0.2-0.5l1.3-2h0.5l-1.1,1.7c0.1,0,0.3,0,0.4,0
		c0.3,0,0.5,0.1,0.7,0.2c0.2,0.1,0.4,0.3,0.5,0.5C29.1,42.5,29.1,42.7,29.1,43z M28.7,43c0-0.2,0-0.4-0.1-0.5s-0.2-0.3-0.4-0.3
		C28,42.1,27.9,42,27.7,42c-0.2,0-0.4,0-0.5,0.1c-0.2,0.1-0.3,0.2-0.4,0.3s-0.1,0.3-0.1,0.5c0,0.2,0,0.4,0.1,0.5s0.2,0.3,0.4,0.3
		s0.3,0.1,0.5,0.1s0.4,0,0.5-0.1s0.3-0.2,0.4-0.3S28.7,43.2,28.7,43z"/>
	<path fill="#FFFFFF" d="M30.8,40.5l-1.2,0.7v-0.5l1.2-0.7h0.5v4.4h-0.5V40.5z"/>
	<path fill="#FFFFFF" d="M35.6,42.5V43h-0.8v1.4h-0.5V43h-2v-0.4l1.9-2.6h0.5v2.6H35.6z M34.3,42.5v-1.9l-1.4,1.9H34.3z"/>
	<path fill="#FFFFFF" d="M38.9,43.9v0.4h-2.7V44l1.8-1.9c0.1-0.2,0.2-0.3,0.3-0.4s0.1-0.3,0.1-0.4c0-0.2,0-0.3-0.1-0.4
		s-0.2-0.2-0.3-0.3s-0.3-0.1-0.5-0.1c-0.2,0-0.3,0-0.4,0.1s-0.2,0.2-0.3,0.3s-0.1,0.3-0.1,0.4h-0.5c0-0.2,0.1-0.5,0.2-0.7
		s0.3-0.3,0.5-0.5s0.4-0.2,0.7-0.2c0.3,0,0.5,0.1,0.7,0.2s0.4,0.3,0.5,0.5s0.2,0.4,0.2,0.7c0,0.2,0,0.4-0.1,0.6s-0.2,0.4-0.4,0.6
		l-1.4,1.5H38.9z"/>
	<path fill="#FFFFFF" d="M42.6,41.3c0,0.2,0,0.3-0.1,0.5s-0.1,0.3-0.2,0.5l-1.3,2h-0.5l1.1-1.7c-0.1,0-0.3,0-0.4,0
		c-0.3,0-0.5-0.1-0.7-0.2c-0.2-0.1-0.4-0.3-0.5-0.5c-0.1-0.2-0.2-0.4-0.2-0.7c0-0.3,0.1-0.5,0.2-0.7s0.3-0.4,0.5-0.5
		s0.5-0.2,0.7-0.2c0.3,0,0.5,0.1,0.7,0.2s0.4,0.3,0.5,0.5S42.6,41.1,42.6,41.3z M41.1,42.3c0.2,0,0.4,0,0.5-0.1
		c0.2-0.1,0.3-0.2,0.4-0.3s0.1-0.3,0.1-0.5c0-0.2,0-0.4-0.1-0.5s-0.2-0.3-0.4-0.3s-0.3-0.1-0.5-0.1s-0.4,0-0.5,0.1s-0.3,0.2-0.4,0.3
		s-0.1,0.3-0.1,0.5c0,0.2,0,0.4,0.1,0.5s0.2,0.3,0.4,0.3C40.8,42.3,41,42.3,41.1,42.3z"/>
	<path fill="#FFFFFF" d="M43.3,40h2.8v0.4l-1.7,4h-0.5l1.7-3.9h-2.3V40z"/>
	<path fill="#FFFFFF" d="M47.2,43.7c0.1,0,0.2,0,0.2,0.1s0.1,0.1,0.1,0.2s0,0.2-0.1,0.2c-0.1,0.1-0.1,0.1-0.2,0.1s-0.2,0-0.2-0.1
		c-0.1-0.1-0.1-0.1-0.1-0.2s0-0.2,0.1-0.2S47.1,43.7,47.2,43.7z"/>
	<path fill="#FFFFFF" d="M49.4,40.5l-1.2,0.7v-0.5l1.2-0.7h0.5v4.4h-0.5V40.5z"/>
</g>
</svg>
