<?xml version="1.0" encoding="utf-8"?>
<!-- Generator: Adobe Illustrator 27.4.0, SVG Export Plug-In . SVG Version: 6.00 Build 0)  -->
<svg version="1.1" baseProfile="tiny" id="Layer_1" xmlns="http://www.w3.org/2000/svg" xmlns:xlink="http://www.w3.org/1999/xlink"
	 x="0px" y="0px" viewBox="0 0 300 50" overflow="visible" xml:space="preserve">
<g>
	<path fill="#454547" d="M79.6,27.6h3.3v0.7h-2.5v2h2.3V31h-2.3v2.7h-0.8V27.6z"/>
	<path fill="#454547" d="M84.6,28.1c0,0.3-0.2,0.5-0.5,0.5c-0.3,0-0.5-0.2-0.5-0.5c0-0.3,0.2-0.5,0.5-0.5
		C84.4,27.6,84.6,27.8,84.6,28.1z M83.7,33.7v-4.4h0.8v4.4H83.7z"/>
	<path fill="#454547" d="M85.8,30.5c0-0.5,0-0.8,0-1.2h0.7l0,0.7h0c0.2-0.4,0.7-0.8,1.4-0.8c0.6,0,1.5,0.4,1.5,1.9v2.6h-0.8v-2.5
		c0-0.7-0.3-1.3-1-1.3c-0.5,0-0.9,0.4-1.1,0.8c0,0.1-0.1,0.2-0.1,0.4v2.6h-0.8V30.5z"/>
	<path fill="#454547" d="M91.7,28.1c0,0.3-0.2,0.5-0.5,0.5c-0.3,0-0.5-0.2-0.5-0.5c0-0.3,0.2-0.5,0.5-0.5
		C91.5,27.6,91.7,27.8,91.7,28.1z M90.8,33.7v-4.4h0.8v4.4H90.8z"/>
	<path fill="#454547" d="M92.8,32.9c0.2,0.2,0.6,0.3,1,0.3c0.6,0,0.8-0.3,0.8-0.6c0-0.4-0.2-0.6-0.8-0.8c-0.8-0.3-1.2-0.7-1.2-1.2
		c0-0.7,0.6-1.3,1.5-1.3c0.4,0,0.8,0.1,1.1,0.3l-0.2,0.6c-0.2-0.1-0.5-0.3-0.9-0.3c-0.5,0-0.7,0.3-0.7,0.6c0,0.4,0.3,0.5,0.8,0.7
		c0.8,0.3,1.1,0.7,1.1,1.3c0,0.8-0.6,1.3-1.6,1.3c-0.5,0-0.9-0.1-1.2-0.3L92.8,32.9z"/>
	<path fill="#454547" d="M96.5,27.3h0.8V30h0c0.1-0.2,0.3-0.4,0.6-0.6c0.2-0.1,0.5-0.2,0.8-0.2c0.6,0,1.5,0.4,1.5,1.9v2.6h-0.8v-2.5
		c0-0.7-0.3-1.3-1-1.3c-0.5,0-0.9,0.4-1.1,0.8c0,0.1-0.1,0.2-0.1,0.4v2.6h-0.8V27.3z"/>
	<path fill="#454547" d="M103.7,29.4l1,2.6c0.1,0.3,0.2,0.6,0.3,0.9h0c0.1-0.3,0.2-0.6,0.3-0.9l0.9-2.6h0.8l-1.2,3.1
		c-0.6,1.5-1,2.3-1.5,2.7c-0.4,0.3-0.8,0.5-1,0.5l-0.2-0.7c0.2-0.1,0.5-0.2,0.7-0.4c0.2-0.2,0.5-0.5,0.7-0.9c0-0.1,0.1-0.1,0.1-0.2
		s0-0.1-0.1-0.2l-1.6-4H103.7z"/>
	<path fill="#454547" d="M111.5,31.5c0,1.6-1.1,2.3-2.2,2.3c-1.2,0-2.1-0.9-2.1-2.2c0-1.5,1-2.3,2.2-2.3
		C110.6,29.3,111.5,30.2,111.5,31.5z M108,31.5c0,1,0.5,1.7,1.3,1.7c0.8,0,1.3-0.7,1.3-1.7c0-0.7-0.4-1.7-1.3-1.7
		C108.4,29.8,108,30.7,108,31.5z"/>
	<path fill="#454547" d="M116.1,32.5c0,0.5,0,0.8,0,1.2h-0.7l0-0.7h0c-0.2,0.4-0.7,0.8-1.4,0.8c-0.7,0-1.5-0.4-1.5-1.9v-2.5h0.8v2.4
		c0,0.8,0.3,1.4,1,1.4c0.5,0,0.9-0.4,1-0.7c0-0.1,0.1-0.3,0.1-0.4v-2.7h0.8V32.5z"/>
	<path fill="#454547" d="M117.4,30.7c0-0.5,0-1,0-1.4h0.7l0,0.9h0c0.2-0.6,0.7-1,1.2-1c0.1,0,0.2,0,0.2,0V30c-0.1,0-0.2,0-0.3,0
		c-0.6,0-1,0.4-1.1,1c0,0.1,0,0.2,0,0.4v2.3h-0.8V30.7z"/>
	<path fill="#454547" d="M122.3,30.5c0-0.5,0-0.8,0-1.2h0.7l0,0.7h0c0.2-0.4,0.7-0.8,1.4-0.8c0.6,0,1.5,0.4,1.5,1.9v2.6h-0.8v-2.5
		c0-0.7-0.3-1.3-1-1.3c-0.5,0-0.9,0.4-1.1,0.8c0,0.1-0.1,0.2-0.1,0.4v2.6h-0.8V30.5z"/>
	<path fill="#454547" d="M131.2,31.5c0,1.6-1.1,2.3-2.2,2.3c-1.2,0-2.1-0.9-2.1-2.2c0-1.5,1-2.3,2.2-2.3
		C130.4,29.3,131.2,30.2,131.2,31.5z M127.8,31.5c0,1,0.5,1.7,1.3,1.7c0.8,0,1.3-0.7,1.3-1.7c0-0.7-0.4-1.7-1.3-1.7
		C128.2,29.8,127.8,30.7,127.8,31.5z"/>
	<path fill="#454547" d="M134.2,31v0.6H132V31H134.2z"/>
	<path fill="#454547" d="M138.4,33.5c-0.2,0.1-0.7,0.3-1.3,0.3c-1.3,0-2.2-0.9-2.2-2.2c0-1.3,0.9-2.3,2.3-2.3c0.5,0,0.9,0.1,1.1,0.2
		l-0.2,0.6c-0.2-0.1-0.5-0.2-0.9-0.2c-1,0-1.5,0.7-1.5,1.6c0,1,0.6,1.6,1.5,1.6c0.5,0,0.7-0.1,1-0.2L138.4,33.5z"/>
	<path fill="#454547" d="M143.2,31.5c0,1.6-1.1,2.3-2.2,2.3c-1.2,0-2.1-0.9-2.1-2.2c0-1.5,1-2.3,2.2-2.3
		C142.4,29.3,143.2,30.2,143.2,31.5z M139.8,31.5c0,1,0.5,1.7,1.3,1.7c0.8,0,1.3-0.7,1.3-1.7c0-0.7-0.4-1.7-1.3-1.7
		C140.2,29.8,139.8,30.7,139.8,31.5z"/>
	<path fill="#454547" d="M144.1,32.9c0.2,0.2,0.6,0.3,1,0.3c0.6,0,0.8-0.3,0.8-0.6c0-0.4-0.2-0.6-0.8-0.8c-0.8-0.3-1.2-0.7-1.2-1.2
		c0-0.7,0.6-1.3,1.5-1.3c0.4,0,0.8,0.1,1.1,0.3l-0.2,0.6c-0.2-0.1-0.5-0.3-0.9-0.3c-0.5,0-0.7,0.3-0.7,0.6c0,0.4,0.3,0.5,0.8,0.7
		c0.8,0.3,1.1,0.7,1.1,1.3c0,0.8-0.6,1.3-1.6,1.3c-0.5,0-0.9-0.1-1.2-0.3L144.1,32.9z"/>
	<path fill="#454547" d="M148.7,28.1v1.3h1.1V30h-1.1v2.3c0,0.5,0.2,0.8,0.6,0.8c0.2,0,0.4,0,0.5-0.1l0,0.6
		c-0.2,0.1-0.4,0.1-0.7,0.1c-0.4,0-0.7-0.1-0.9-0.3c-0.2-0.2-0.3-0.6-0.3-1.1V30h-0.7v-0.6h0.7v-1L148.7,28.1z"/>
</g>
<g>
	<path fill="#454547" d="M79.6,36.6h0.8v5.4H83v0.7h-3.4V36.6z"/>
	<path fill="#454547" d="M84.7,37.1c0,0.3-0.2,0.5-0.5,0.5c-0.3,0-0.5-0.2-0.5-0.5c0-0.3,0.2-0.5,0.5-0.5
		C84.5,36.6,84.7,36.9,84.7,37.1z M83.8,42.7v-4.4h0.8v4.4H83.8z"/>
	<path fill="#454547" d="M86,42.7V39h-0.6v-0.6H86v-0.2c0-0.6,0.1-1.2,0.5-1.5c0.3-0.3,0.7-0.4,1.1-0.4c0.3,0,0.5,0.1,0.7,0.1
		L88.1,37c-0.1-0.1-0.3-0.1-0.5-0.1c-0.7,0-0.8,0.6-0.8,1.3v0.2h1.1V39h-1.1v3.8H86z"/>
	<path fill="#454547" d="M88.9,40.7c0,1.1,0.7,1.5,1.5,1.5c0.6,0,0.9-0.1,1.2-0.2l0.1,0.6c-0.3,0.1-0.8,0.3-1.4,0.3
		c-1.3,0-2.1-0.9-2.1-2.2s0.8-2.3,2-2.3c1.4,0,1.8,1.3,1.8,2.1c0,0.2,0,0.3,0,0.4H88.9z M91.2,40.1c0-0.5-0.2-1.3-1.1-1.3
		c-0.8,0-1.2,0.7-1.2,1.3H91.2z"/>
	<path fill="#454547" d="M95.7,36.6v6.1h-0.8v-6.1H95.7z"/>
	<path fill="#454547" d="M97.1,39.5c0-0.5,0-0.8,0-1.2h0.7l0,0.7h0c0.2-0.4,0.7-0.8,1.4-0.8c0.6,0,1.5,0.4,1.5,1.9v2.6H100v-2.5
		c0-0.7-0.3-1.3-1-1.3c-0.5,0-0.9,0.4-1.1,0.8c0,0.1-0.1,0.2-0.1,0.4v2.6h-0.8V39.5z"/>
	<path fill="#454547" d="M102,41.9c0.2,0.2,0.6,0.3,1,0.3c0.6,0,0.8-0.3,0.8-0.6c0-0.4-0.2-0.6-0.8-0.8c-0.8-0.3-1.2-0.7-1.2-1.2
		c0-0.7,0.6-1.3,1.5-1.3c0.4,0,0.8,0.1,1.1,0.3l-0.2,0.6c-0.2-0.1-0.5-0.3-0.9-0.3c-0.5,0-0.7,0.3-0.7,0.6c0,0.4,0.3,0.5,0.8,0.7
		c0.8,0.3,1.1,0.7,1.1,1.3c0,0.8-0.6,1.3-1.6,1.3c-0.5,0-0.9-0.1-1.2-0.3L102,41.9z"/>
	<path fill="#454547" d="M109.3,41.5c0,0.5,0,0.8,0,1.2h-0.7l0-0.7h0c-0.2,0.4-0.7,0.8-1.4,0.8c-0.7,0-1.5-0.4-1.5-1.9v-2.5h0.8v2.4
		c0,0.8,0.3,1.4,1,1.4c0.5,0,0.9-0.4,1-0.7c0-0.1,0.1-0.3,0.1-0.4v-2.7h0.8V41.5z"/>
	<path fill="#454547" d="M110.6,39.7c0-0.5,0-1,0-1.4h0.7l0,0.9h0c0.2-0.6,0.7-1,1.2-1c0.1,0,0.2,0,0.2,0V39c-0.1,0-0.2,0-0.3,0
		c-0.6,0-1,0.4-1.1,1c0,0.1,0,0.2,0,0.4v2.3h-0.8V39.7z"/>
	<path fill="#454547" d="M115.9,42.7l-0.1-0.5h0c-0.2,0.3-0.7,0.6-1.3,0.6c-0.9,0-1.3-0.6-1.3-1.3c0-1.1,0.9-1.6,2.6-1.6v-0.1
		c0-0.4-0.1-1-1-1c-0.4,0-0.8,0.1-1.1,0.3l-0.2-0.5c0.4-0.2,0.9-0.4,1.4-0.4c1.3,0,1.7,0.9,1.7,1.8v1.6c0,0.4,0,0.7,0.1,1H115.9z
		 M115.8,40.5c-0.9,0-1.8,0.1-1.8,1c0,0.5,0.3,0.8,0.7,0.8c0.6,0,0.9-0.4,1.1-0.7c0-0.1,0-0.2,0-0.3V40.5z"/>
	<path fill="#454547" d="M117.9,39.5c0-0.5,0-0.8,0-1.2h0.7l0,0.7h0c0.2-0.4,0.7-0.8,1.4-0.8c0.6,0,1.5,0.4,1.5,1.9v2.6h-0.8v-2.5
		c0-0.7-0.3-1.3-1-1.3c-0.5,0-0.9,0.4-1.1,0.8c0,0.1-0.1,0.2-0.1,0.4v2.6h-0.8V39.5z"/>
	<path fill="#454547" d="M126,42.5c-0.2,0.1-0.7,0.3-1.3,0.3c-1.3,0-2.2-0.9-2.2-2.2c0-1.3,0.9-2.3,2.3-2.3c0.5,0,0.9,0.1,1.1,0.2
		l-0.2,0.6c-0.2-0.1-0.5-0.2-0.9-0.2c-1,0-1.5,0.7-1.5,1.6c0,1,0.6,1.6,1.5,1.6c0.5,0,0.7-0.1,1-0.2L126,42.5z"/>
	<path fill="#454547" d="M127.3,40.7c0,1.1,0.7,1.5,1.5,1.5c0.6,0,0.9-0.1,1.2-0.2l0.1,0.6c-0.3,0.1-0.8,0.3-1.4,0.3
		c-1.3,0-2.1-0.9-2.1-2.2s0.8-2.3,2-2.3c1.4,0,1.8,1.3,1.8,2.1c0,0.2,0,0.3,0,0.4H127.3z M129.6,40.1c0-0.5-0.2-1.3-1.1-1.3
		c-0.8,0-1.2,0.7-1.2,1.3H129.6z"/>
	<path fill="#454547" d="M136.2,42L136.2,42c-0.3,0.4-0.7,0.8-1.4,0.8c-1,0-1.8-0.9-1.8-2.2c0-1.6,1.1-2.3,2-2.3
		c0.7,0,1.1,0.3,1.3,0.8h0l0-0.7h0.7c0,0.4,0,0.7,0,1.2v4.9h-0.8V42z M136.2,40.1c0-0.1,0-0.2,0-0.3c-0.1-0.5-0.5-0.9-1.1-0.9
		c-0.8,0-1.3,0.7-1.3,1.7c0,0.9,0.4,1.6,1.3,1.6c0.5,0,1-0.3,1.1-0.9c0-0.1,0.1-0.3,0.1-0.4V40.1z"/>
	<path fill="#454547" d="M142,41.5c0,0.5,0,0.8,0,1.2h-0.7l0-0.7h0c-0.2,0.4-0.7,0.8-1.4,0.8c-0.7,0-1.5-0.4-1.5-1.9v-2.5h0.8v2.4
		c0,0.8,0.3,1.4,1,1.4c0.5,0,0.9-0.4,1-0.7c0-0.1,0.1-0.3,0.1-0.4v-2.7h0.8V41.5z"/>
	<path fill="#454547" d="M147.2,40.5c0,1.6-1.1,2.3-2.2,2.3c-1.2,0-2.1-0.9-2.1-2.2c0-1.5,1-2.3,2.2-2.3
		C146.4,38.3,147.2,39.2,147.2,40.5z M143.8,40.5c0,1,0.5,1.7,1.3,1.7c0.8,0,1.3-0.7,1.3-1.7c0-0.7-0.4-1.7-1.3-1.7
		C144.2,38.8,143.8,39.7,143.8,40.5z"/>
	<path fill="#454547" d="M149.2,37.1v1.3h1.1V39h-1.1v2.3c0,0.5,0.2,0.8,0.6,0.8c0.2,0,0.4,0,0.5-0.1l0,0.6
		c-0.2,0.1-0.4,0.1-0.7,0.1c-0.4,0-0.7-0.1-0.9-0.3c-0.2-0.2-0.3-0.6-0.3-1.1V39h-0.7v-0.6h0.7v-1L149.2,37.1z"/>
	<path fill="#454547" d="M151.6,40.7c0,1.1,0.7,1.5,1.5,1.5c0.6,0,0.9-0.1,1.2-0.2l0.1,0.6c-0.3,0.1-0.8,0.3-1.5,0.3
		c-1.3,0-2.1-0.9-2.1-2.2s0.8-2.3,2-2.3c1.4,0,1.8,1.3,1.8,2.1c0,0.2,0,0.3,0,0.4H151.6z M153.9,40.1c0-0.5-0.2-1.3-1.1-1.3
		c-0.8,0-1.2,0.7-1.2,1.3H153.9z"/>
	<path fill="#454547" d="M155.4,42.2c0-0.3,0.2-0.6,0.5-0.6c0.3,0,0.5,0.2,0.5,0.6c0,0.3-0.2,0.6-0.5,0.6
		C155.6,42.8,155.4,42.6,155.4,42.2z"/>
</g>
</svg>
