<?xml version="1.0" encoding="utf-8"?>
<!-- Generator: Adobe Illustrator 27.4.0, SVG Export Plug-In . SVG Version: 6.00 Build 0)  -->
<svg version="1.1" baseProfile="tiny" id="Layer_1" xmlns="http://www.w3.org/2000/svg" xmlns:xlink="http://www.w3.org/1999/xlink"
	 x="0px" y="0px" viewBox="0 0 300 50" overflow="visible" xml:space="preserve">
<g>
	<path fill="#193062" d="M89.5,13.5V14c0,3-2,5.1-5.1,5.1c-3.1,0-5.2-2.2-5.2-5.3c0-3,2.2-5.3,5.3-5.3c2,0,3.7,1,4.6,2.5l-1.8,1.2
		c-0.5-0.9-1.5-1.6-2.7-1.6c-1.8,0-3.1,1.4-3.1,3.1c0,1.9,1.2,3.2,3,3.2c1.2,0,2.1-0.6,2.6-1.5h-3.3v-2H89.5z"/>
	<path fill="#193062" d="M94.2,11.7c2.1,0,3.7,1.6,3.7,3.7c0,2-1.6,3.7-3.7,3.7c-2.1,0-3.7-1.7-3.7-3.7C90.5,13.4,92,11.7,94.2,11.7
		z M94.2,17.1c0.9,0,1.6-0.7,1.6-1.6c0-0.9-0.7-1.7-1.6-1.7s-1.6,0.7-1.6,1.7C92.5,16.3,93.2,17.1,94.2,17.1z"/>
	<path fill="#193062" d="M103.9,13.9h-1.4v-2h1.4v-1.4c0-1.4,0.9-2.2,2.3-2.2h1.6v2h-1.2c-0.4,0-0.6,0.2-0.6,0.6v1.1h1.8v2H106V19
		h-2.1V13.9z"/>
	<path fill="#193062" d="M112.1,11.7c2.1,0,3.7,1.6,3.7,3.7c0,2-1.6,3.7-3.7,3.7c-2.1,0-3.7-1.7-3.7-3.7
		C108.4,13.4,110,11.7,112.1,11.7z M112.1,17.1c0.9,0,1.6-0.7,1.6-1.6c0-0.9-0.7-1.7-1.6-1.7s-1.6,0.7-1.6,1.7
		C110.5,16.3,111.2,17.1,112.1,17.1z"/>
	<path fill="#193062" d="M121.6,11.9v2h-1.1c-0.8,0-1.4,0.6-1.4,1.4V19h-2.1v-7.1h2v0.6c0.4-0.5,1-0.6,1.6-0.6H121.6z"/>
	<path fill="#193062" d="M132.7,11.9l-2.3,7.1h-2.1l-0.9-3l-0.9,3h-2.1l-2.3-7.1h2.2l1.2,4l1.2-4h1.3l1.2,3.9l1.3-3.9H132.7z"/>
	<path fill="#193062" d="M139.3,14.5V19h-2v-0.4c-0.4,0.4-1,0.5-1.7,0.5c-1.5,0-2.5-0.9-2.5-2.2c0-1.5,1.1-2.1,2.5-2.2l1.7-0.1v-0.1
		c0-0.5-0.5-0.8-1-0.8c-0.5,0-0.9,0.3-1,0.7h-2c0.1-1.5,1.3-2.5,3-2.5C138.1,11.7,139.3,12.9,139.3,14.5z M137.3,16.5V16l-1.4,0.1
		c-0.5,0-0.7,0.3-0.7,0.6c0,0.4,0.3,0.7,0.9,0.7C136.8,17.4,137.3,17.1,137.3,16.5z"/>
	<path fill="#193062" d="M145.6,11.9v2h-1.1c-0.8,0-1.4,0.6-1.4,1.4V19h-2.1v-7.1h2v0.6c0.4-0.5,1-0.6,1.6-0.6H145.6z"/>
	<path fill="#193062" d="M153.6,8.3V19h-2v-0.4c-0.5,0.4-1.1,0.6-1.8,0.6c-2,0-3.5-1.6-3.5-3.7c0-2.1,1.4-3.7,3.5-3.7
		c0.7,0,1.3,0.2,1.8,0.5v-4H153.6z M151.6,15.4c0-1-0.7-1.7-1.7-1.7c-0.9,0-1.6,0.7-1.6,1.7c0,0.9,0.7,1.7,1.6,1.7
		C150.9,17.1,151.6,16.4,151.6,15.4z"/>
	<path fill="#193062" d="M169.4,11.9l-2.3,7.1H165l-0.9-3l-0.9,3H161l-2.3-7.1h2.2l1.2,4l1.2-4h1.3l1.2,3.9l1.3-3.9H169.4z"/>
	<path fill="#193062" d="M171.5,8.4c0.7,0,1.3,0.6,1.3,1.3c0,0.7-0.5,1.3-1.3,1.3s-1.3-0.6-1.3-1.3C170.2,9,170.7,8.4,171.5,8.4z
		 M172.5,19h-2.1v-7.1h2.1V19z"/>
	<path fill="#193062" d="M176.7,11.9h2.2v2h-2.2v2.4c0,0.5,0.3,0.8,0.8,0.8h1.4v2H177c-1.4,0-2.4-0.9-2.4-2.4v-2.7h-1v-1.1l1.9-2.4
		h1.1V11.9z"/>
	<path fill="#193062" d="M186.8,14.6V19h-2.1v-4c0-0.7-0.4-1.2-1.2-1.2c-0.7,0-1.2,0.5-1.2,1.2v4h-2.1V8.3h2.1v4
		c0.5-0.3,1-0.5,1.7-0.5C185.6,11.7,186.8,12.9,186.8,14.6z"/>
	<path fill="#193062" d="M195.8,11.7c1.3,0,2.5,0.6,3.1,1.7l-1.7,1.2c-0.3-0.5-0.8-0.8-1.4-0.8c-0.9,0-1.6,0.7-1.6,1.7
		s0.7,1.7,1.6,1.7c0.6,0,1.1-0.3,1.4-0.8l1.7,1.2c-0.6,1-1.7,1.7-3.1,1.7c-2.1,0-3.7-1.6-3.7-3.7S193.7,11.7,195.8,11.7z"/>
	<path fill="#193062" d="M203.2,11.7c2.1,0,3.7,1.6,3.7,3.7c0,2-1.6,3.7-3.7,3.7c-2.1,0-3.7-1.7-3.7-3.7
		C199.5,13.4,201.1,11.7,203.2,11.7z M203.2,17.1c0.9,0,1.6-0.7,1.6-1.6c0-0.9-0.7-1.7-1.6-1.7s-1.6,0.7-1.6,1.7
		C201.6,16.3,202.2,17.1,203.2,17.1z"/>
	<path fill="#193062" d="M214.8,14.5V19h-2.1v-4c0-0.7-0.4-1.2-1.2-1.2s-1.2,0.5-1.2,1.2v4h-2.1v-7.1h2v0.4c0.5-0.4,1-0.6,1.7-0.6
		C213.6,11.7,214.8,12.9,214.8,14.5z"/>
	<path fill="#193062" d="M217.2,13.9h-1.4v-2h1.4v-1.4c0-1.4,0.9-2.2,2.3-2.2h1.6v2h-1.2c-0.3,0-0.6,0.2-0.6,0.6v1.1h1.8v2h-1.8V19
		h-2.1V13.9z M223.4,8.4c0.7,0,1.3,0.6,1.3,1.3c0,0.7-0.5,1.3-1.3,1.3s-1.3-0.6-1.3-1.3C222.1,9,222.6,8.4,223.4,8.4z M224.4,19
		h-2.1v-7.1h2.1V19z"/>
	<path fill="#193062" d="M233.1,8.3V19h-2v-0.4c-0.5,0.4-1.1,0.6-1.8,0.6c-2,0-3.5-1.6-3.5-3.7c0-2.1,1.4-3.7,3.5-3.7
		c0.7,0,1.3,0.2,1.8,0.5v-4H233.1z M231.1,15.4c0-1-0.7-1.7-1.7-1.7c-0.9,0-1.6,0.7-1.6,1.7c0,0.9,0.7,1.7,1.6,1.7
		C230.4,17.1,231.1,16.4,231.1,15.4z"/>
	<path fill="#193062" d="M241.5,16.2h-4.9c0.2,0.6,0.8,1,1.6,1c0.7,0,1.2-0.3,1.5-0.8l1.7,1c-0.6,1.1-1.8,1.7-3.2,1.7
		c-2.1,0-3.7-1.6-3.7-3.7c0-2.1,1.5-3.7,3.6-3.7c2.1,0,3.5,1.6,3.5,3.7C241.6,15.7,241.5,15.9,241.5,16.2z M236.5,14.7h3
		c-0.2-0.7-0.8-1-1.5-1C237.3,13.6,236.7,14,236.5,14.7z"/>
	<path fill="#193062" d="M249.5,14.5V19h-2.1v-4c0-0.7-0.4-1.2-1.2-1.2S245,14.3,245,15v4h-2.1v-7.1h2v0.4c0.5-0.4,1-0.6,1.7-0.6
		C248.3,11.7,249.5,12.9,249.5,14.5z"/>
	<path fill="#193062" d="M254.4,11.7c1.3,0,2.5,0.6,3.1,1.7l-1.7,1.2c-0.3-0.5-0.8-0.8-1.4-0.8c-0.9,0-1.6,0.7-1.6,1.7
		s0.7,1.7,1.6,1.7c0.6,0,1.1-0.3,1.4-0.8l1.7,1.2c-0.6,1-1.7,1.7-3.1,1.7c-2.1,0-3.7-1.6-3.7-3.7S252.3,11.7,254.4,11.7z"/>
	<path fill="#193062" d="M265.1,16.2h-4.9c0.2,0.6,0.8,1,1.6,1c0.7,0,1.2-0.3,1.5-0.8l1.7,1c-0.6,1.1-1.8,1.7-3.2,1.7
		c-2.1,0-3.7-1.6-3.7-3.7c0-2.1,1.5-3.7,3.6-3.7c2.1,0,3.5,1.6,3.5,3.7C265.2,15.7,265.2,15.9,265.1,16.2z M260.2,14.7h3
		c-0.2-0.7-0.8-1-1.5-1C260.9,13.6,260.4,14,260.2,14.7z"/>
	<path fill="#193062" d="M267.6,16.5c0.7,0,1.3,0.6,1.3,1.3c0,0.7-0.5,1.3-1.3,1.3s-1.3-0.6-1.3-1.3C266.3,17,266.9,16.5,267.6,16.5
		z"/>
</g>
</svg>
