<?xml version="1.0" encoding="utf-8"?>
<!-- Generator: Adobe Illustrator 27.4.0, SVG Export Plug-In . SVG Version: 6.00 Build 0)  -->
<svg version="1.1" baseProfile="tiny" id="Layer_1" xmlns="http://www.w3.org/2000/svg" xmlns:xlink="http://www.w3.org/1999/xlink"
	 x="0px" y="0px" viewBox="0 0 300 50" overflow="visible" xml:space="preserve">
<g>
	<path fill="#454547" d="M80.9,28.8h-1.8v-0.7h4.5v0.7h-1.9v5.4h-0.8V28.8z"/>
	<path fill="#454547" d="M83.8,31.2c0-0.5,0-1,0-1.4h0.7l0,0.9h0c0.2-0.6,0.7-1,1.2-1c0.1,0,0.2,0,0.2,0v0.7c-0.1,0-0.2,0-0.3,0
		c-0.6,0-1,0.4-1.1,1c0,0.1,0,0.2,0,0.4v2.3h-0.8V31.2z"/>
	<path fill="#454547" d="M90.4,33c0,0.5,0,0.8,0,1.2h-0.7l0-0.7h0c-0.2,0.4-0.7,0.8-1.4,0.8c-0.7,0-1.5-0.4-1.5-1.9v-2.5h0.8v2.4
		c0,0.8,0.3,1.4,1,1.4c0.5,0,0.9-0.4,1-0.7c0-0.1,0.1-0.3,0.1-0.4v-2.7h0.8V33z"/>
	<path fill="#454547" d="M91.6,33.2c0.4,0.2,0.9,0.4,1.4,0.4c0.8,0,1.3-0.4,1.3-1c0-0.6-0.3-0.9-1.1-1.2c-1-0.4-1.6-0.9-1.6-1.7
		c0-0.9,0.8-1.6,2-1.6c0.6,0,1.1,0.1,1.3,0.3L94.6,29c-0.2-0.1-0.6-0.3-1.2-0.3c-0.8,0-1.1,0.5-1.1,0.9c0,0.6,0.4,0.8,1.2,1.2
		c1,0.4,1.5,0.9,1.5,1.8c0,0.9-0.7,1.7-2.1,1.7c-0.6,0-1.2-0.2-1.5-0.4L91.6,33.2z"/>
	<path fill="#454547" d="M97.1,28.6v1.3h1.1v0.6h-1.1v2.3c0,0.5,0.2,0.8,0.6,0.8c0.2,0,0.4,0,0.5-0.1l0,0.6
		c-0.2,0.1-0.4,0.1-0.7,0.1c-0.4,0-0.7-0.1-0.9-0.3c-0.2-0.2-0.3-0.6-0.3-1.1v-2.4h-0.7v-0.6h0.7v-1L97.1,28.6z"/>
	<path fill="#454547" d="M101.5,34.2l-0.1-0.5h0c-0.2,0.3-0.7,0.6-1.3,0.6c-0.9,0-1.3-0.6-1.3-1.3c0-1.1,0.9-1.6,2.6-1.6v-0.1
		c0-0.4-0.1-1-1-1c-0.4,0-0.8,0.1-1.1,0.3l-0.2-0.5c0.4-0.2,0.9-0.4,1.4-0.4c1.3,0,1.7,0.9,1.7,1.8v1.6c0,0.4,0,0.7,0.1,1H101.5z
		 M101.4,32c-0.9,0-1.8,0.1-1.8,1c0,0.5,0.3,0.8,0.7,0.8c0.6,0,0.9-0.4,1.1-0.7c0-0.1,0-0.2,0-0.3V32z"/>
	<path fill="#454547" d="M107.2,29.8c0,0.3,0,0.7,0,1.2v2.5c0,1-0.2,1.6-0.6,2c-0.4,0.4-1,0.5-1.6,0.5c-0.5,0-1.1-0.1-1.4-0.4
		l0.2-0.6c0.3,0.2,0.7,0.3,1.3,0.3c0.8,0,1.4-0.4,1.4-1.5v-0.5h0c-0.2,0.4-0.7,0.7-1.4,0.7c-1.1,0-1.9-0.9-1.9-2.1
		c0-1.5,1-2.3,2-2.3c0.8,0,1.2,0.4,1.4,0.8h0l0-0.7H107.2z M106.4,31.6c0-0.1,0-0.3,0-0.4c-0.1-0.5-0.5-0.8-1.1-0.8
		c-0.8,0-1.3,0.6-1.3,1.6c0,0.9,0.4,1.6,1.3,1.6c0.5,0,0.9-0.3,1.1-0.8c0-0.1,0.1-0.3,0.1-0.4V31.6z"/>
	<path fill="#454547" d="M108.9,32.2c0,1.1,0.7,1.5,1.5,1.5c0.6,0,0.9-0.1,1.2-0.2l0.1,0.6c-0.3,0.1-0.8,0.3-1.4,0.3
		c-1.3,0-2.1-0.9-2.1-2.2s0.8-2.4,2-2.4c1.4,0,1.8,1.3,1.8,2.1c0,0.2,0,0.3,0,0.4H108.9z M111.2,31.6c0-0.5-0.2-1.3-1.1-1.3
		c-0.8,0-1.2,0.7-1.2,1.3H111.2z"/>
	<path fill="#454547" d="M114.6,28.1v0.4h-0.8v2h-0.5v-2h-0.8v-0.4H114.6z M117.3,30.6l-0.1-1.4c0-0.2,0-0.4,0-0.7h0
		c-0.1,0.2-0.1,0.5-0.2,0.7l-0.4,1.4H116l-0.4-1.4c0-0.2-0.1-0.5-0.2-0.7h0c0,0.2,0,0.5,0,0.7l-0.1,1.4h-0.5l0.2-2.4h0.7l0.4,1.2
		c0.1,0.2,0.1,0.4,0.2,0.6h0c0.1-0.2,0.1-0.4,0.2-0.6l0.4-1.2h0.7l0.2,2.4H117.3z"/>
	<path fill="#454547" d="M121.3,28.6c0,0.3-0.2,0.5-0.5,0.5c-0.3,0-0.5-0.2-0.5-0.5c0-0.3,0.2-0.5,0.5-0.5
		C121.2,28.1,121.3,28.3,121.3,28.6z M120.5,34.2v-4.4h0.8v4.4H120.5z"/>
	<path fill="#454547" d="M122.5,33.4c0.2,0.2,0.6,0.3,1,0.3c0.6,0,0.8-0.3,0.8-0.6c0-0.4-0.2-0.6-0.8-0.8c-0.8-0.3-1.2-0.7-1.2-1.2
		c0-0.7,0.6-1.3,1.5-1.3c0.4,0,0.8,0.1,1.1,0.3l-0.2,0.6c-0.2-0.1-0.5-0.3-0.9-0.3c-0.5,0-0.7,0.3-0.7,0.6c0,0.4,0.3,0.5,0.8,0.7
		c0.8,0.3,1.1,0.7,1.1,1.3c0,0.8-0.6,1.3-1.6,1.3c-0.5,0-0.9-0.1-1.2-0.3L122.5,33.4z"/>
	<path fill="#454547" d="M131.8,27.8v5.3c0,0.4,0,0.8,0,1.1h-0.7l0-0.8h0c-0.2,0.5-0.8,0.9-1.5,0.9c-1.1,0-1.9-0.9-1.9-2.2
		c0-1.4,0.9-2.3,2-2.3c0.7,0,1.1,0.3,1.3,0.7h0v-2.6H131.8z M131,31.6c0-0.1,0-0.2,0-0.3c-0.1-0.5-0.5-0.9-1.1-0.9
		c-0.8,0-1.3,0.7-1.3,1.7c0,0.9,0.4,1.6,1.3,1.6c0.5,0,1-0.4,1.2-0.9c0-0.1,0-0.2,0-0.3V31.6z"/>
	<path fill="#454547" d="M133.6,32.2c0,1.1,0.7,1.5,1.5,1.5c0.6,0,0.9-0.1,1.2-0.2l0.1,0.6c-0.3,0.1-0.8,0.3-1.4,0.3
		c-1.3,0-2.1-0.9-2.1-2.2s0.8-2.4,2-2.4c1.4,0,1.8,1.3,1.8,2.1c0,0.2,0,0.3,0,0.4H133.6z M135.9,31.6c0-0.5-0.2-1.3-1.1-1.3
		c-0.8,0-1.2,0.7-1.2,1.3H135.9z"/>
	<path fill="#454547" d="M137.5,33.4c0.2,0.2,0.6,0.3,1,0.3c0.6,0,0.8-0.3,0.8-0.6c0-0.4-0.2-0.6-0.8-0.8c-0.8-0.3-1.2-0.7-1.2-1.2
		c0-0.7,0.6-1.3,1.5-1.3c0.4,0,0.8,0.1,1.1,0.3l-0.2,0.6c-0.2-0.1-0.5-0.3-0.9-0.3c-0.5,0-0.7,0.3-0.7,0.6c0,0.4,0.3,0.5,0.8,0.7
		c0.8,0.3,1.1,0.7,1.1,1.3c0,0.8-0.6,1.3-1.6,1.3c-0.5,0-0.9-0.1-1.2-0.3L137.5,33.4z"/>
	<path fill="#454547" d="M142.1,28.6c0,0.3-0.2,0.5-0.5,0.5c-0.3,0-0.5-0.2-0.5-0.5c0-0.3,0.2-0.5,0.5-0.5
		C141.9,28.1,142.1,28.3,142.1,28.6z M141.2,34.2v-4.4h0.8v4.4H141.2z"/>
	<path fill="#454547" d="M147,29.8c0,0.3,0,0.7,0,1.2v2.5c0,1-0.2,1.6-0.6,2c-0.4,0.4-1,0.5-1.6,0.5c-0.5,0-1.1-0.1-1.4-0.4l0.2-0.6
		c0.3,0.2,0.7,0.3,1.3,0.3c0.8,0,1.4-0.4,1.4-1.5v-0.5h0c-0.2,0.4-0.7,0.7-1.4,0.7c-1.1,0-1.9-0.9-1.9-2.1c0-1.5,1-2.3,2-2.3
		c0.8,0,1.2,0.4,1.4,0.8h0l0-0.7H147z M146.2,31.6c0-0.1,0-0.3,0-0.4c-0.1-0.5-0.5-0.8-1.1-0.8c-0.8,0-1.3,0.6-1.3,1.6
		c0,0.9,0.4,1.6,1.3,1.6c0.5,0,0.9-0.3,1.1-0.8c0-0.1,0.1-0.3,0.1-0.4V31.6z"/>
	<path fill="#454547" d="M148.3,31c0-0.5,0-0.8,0-1.2h0.7l0,0.7h0c0.2-0.4,0.7-0.8,1.4-0.8c0.6,0,1.5,0.4,1.5,1.9v2.6h-0.8v-2.5
		c0-0.7-0.3-1.3-1-1.3c-0.5,0-0.9,0.4-1.1,0.8c0,0.1-0.1,0.2-0.1,0.4v2.6h-0.8V31z"/>
	<path fill="#454547" d="M153.7,32.2c0,1.1,0.7,1.5,1.5,1.5c0.6,0,0.9-0.1,1.2-0.2l0.1,0.6c-0.3,0.1-0.8,0.3-1.5,0.3
		c-1.3,0-2.1-0.9-2.1-2.2s0.8-2.4,2-2.4c1.4,0,1.8,1.3,1.8,2.1c0,0.2,0,0.3,0,0.4H153.7z M156,31.6c0-0.5-0.2-1.3-1.1-1.3
		c-0.8,0-1.2,0.7-1.2,1.3H156z"/>
	<path fill="#454547" d="M161.5,27.8v5.3c0,0.4,0,0.8,0,1.1h-0.7l0-0.8h0c-0.2,0.5-0.8,0.9-1.5,0.9c-1.1,0-1.9-0.9-1.9-2.2
		c0-1.4,0.9-2.3,2-2.3c0.7,0,1.1,0.3,1.3,0.7h0v-2.6H161.5z M160.7,31.6c0-0.1,0-0.2,0-0.3c-0.1-0.5-0.5-0.9-1.1-0.9
		c-0.8,0-1.3,0.7-1.3,1.7c0,0.9,0.4,1.6,1.3,1.6c0.5,0,1-0.4,1.2-0.9c0-0.1,0-0.2,0-0.3V31.6z"/>
	<path fill="#454547" d="M165.1,29.8l0.6,2.2c0.1,0.5,0.2,0.9,0.3,1.4h0c0.1-0.4,0.2-0.9,0.4-1.4l0.7-2.2h0.7l0.7,2.2
		c0.2,0.5,0.3,1,0.4,1.4h0c0.1-0.4,0.2-0.9,0.3-1.4l0.6-2.2h0.8l-1.4,4.4h-0.7l-0.7-2.1c-0.2-0.5-0.3-0.9-0.4-1.4h0
		c-0.1,0.5-0.2,1-0.4,1.4l-0.7,2.1h-0.7l-1.3-4.4H165.1z"/>
	<path fill="#454547" d="M172.3,28.6c0,0.3-0.2,0.5-0.5,0.5c-0.3,0-0.5-0.2-0.5-0.5c0-0.3,0.2-0.5,0.5-0.5
		C172.1,28.1,172.3,28.3,172.3,28.6z M171.4,34.2v-4.4h0.8v4.4H171.4z"/>
	<path fill="#454547" d="M174.4,28.6v1.3h1.1v0.6h-1.1v2.3c0,0.5,0.2,0.8,0.6,0.8c0.2,0,0.4,0,0.5-0.1l0,0.6
		c-0.2,0.1-0.4,0.1-0.7,0.1c-0.4,0-0.7-0.1-0.9-0.3c-0.2-0.2-0.3-0.6-0.3-1.1v-2.4H173v-0.6h0.7v-1L174.4,28.6z"/>
	<path fill="#454547" d="M176.5,27.8h0.8v2.7h0c0.1-0.2,0.3-0.4,0.6-0.6c0.2-0.1,0.5-0.2,0.8-0.2c0.6,0,1.5,0.4,1.5,1.9v2.6h-0.8
		v-2.5c0-0.7-0.3-1.3-1-1.3c-0.5,0-0.9,0.4-1.1,0.8c0,0.1-0.1,0.2-0.1,0.4v2.6h-0.8V27.8z"/>
	<path fill="#454547" d="M183.7,29.8l1,2.6c0.1,0.3,0.2,0.6,0.3,0.9h0c0.1-0.3,0.2-0.6,0.3-0.9l0.9-2.6h0.8l-1.2,3.1
		c-0.6,1.5-1,2.3-1.5,2.7c-0.4,0.3-0.8,0.5-1,0.5l-0.2-0.7c0.2-0.1,0.5-0.2,0.7-0.4c0.2-0.2,0.5-0.5,0.7-0.9c0-0.1,0.1-0.1,0.1-0.2
		c0,0,0-0.1-0.1-0.2l-1.6-4H183.7z"/>
	<path fill="#454547" d="M191.5,32c0,1.6-1.1,2.3-2.2,2.3c-1.2,0-2.1-0.9-2.1-2.2c0-1.5,1-2.3,2.2-2.3
		C190.6,29.7,191.5,30.7,191.5,32z M188,32c0,1,0.5,1.7,1.3,1.7c0.8,0,1.3-0.7,1.3-1.7c0-0.7-0.4-1.7-1.3-1.7
		C188.4,30.3,188,31.2,188,32z"/>
	<path fill="#454547" d="M196.1,33c0,0.5,0,0.8,0,1.2h-0.7l0-0.7h0c-0.2,0.4-0.7,0.8-1.4,0.8c-0.7,0-1.5-0.4-1.5-1.9v-2.5h0.8v2.4
		c0,0.8,0.3,1.4,1,1.4c0.5,0,0.9-0.4,1-0.7c0-0.1,0.1-0.3,0.1-0.4v-2.7h0.8V33z"/>
	<path fill="#454547" d="M200.2,28.6c0,0.3-0.2,0.5-0.5,0.5c-0.3,0-0.5-0.2-0.5-0.5c0-0.3,0.2-0.5,0.5-0.5
		C200,28.1,200.2,28.3,200.2,28.6z M199.3,34.2v-4.4h0.8v4.4H199.3z"/>
	<path fill="#454547" d="M201.4,31c0-0.5,0-0.8,0-1.2h0.7l0,0.7h0c0.2-0.4,0.7-0.8,1.4-0.8c0.6,0,1.5,0.4,1.5,1.9v2.6h-0.8v-2.5
		c0-0.7-0.3-1.3-1-1.3c-0.5,0-0.9,0.4-1.1,0.8c0,0.1-0.1,0.2-0.1,0.4v2.6h-0.8V31z"/>
</g>
<g>
	<path fill="#454547" d="M79.7,40c0-0.5,0-0.8,0-1.2h0.7l0,0.7h0c0.2-0.4,0.6-0.8,1.4-0.8c0.6,0,1,0.4,1.2,0.9h0
		c0.1-0.2,0.3-0.4,0.5-0.6c0.3-0.2,0.5-0.3,1-0.3c0.6,0,1.4,0.4,1.4,1.9v2.6h-0.8v-2.5c0-0.8-0.3-1.3-0.9-1.3
		c-0.5,0-0.8,0.3-0.9,0.7c0,0.1-0.1,0.3-0.1,0.4v2.7h-0.8v-2.6c0-0.7-0.3-1.2-0.9-1.2c-0.5,0-0.9,0.4-1,0.8c0,0.1-0.1,0.3-0.1,0.4
		v2.6h-0.8V40z"/>
	<path fill="#454547" d="M88.1,37.6c0,0.3-0.2,0.5-0.5,0.5c-0.3,0-0.5-0.2-0.5-0.5c0-0.3,0.2-0.5,0.5-0.5
		C87.9,37.1,88.1,37.3,88.1,37.6z M87.2,43.2v-4.4H88v4.4H87.2z"/>
	<path fill="#454547" d="M89.3,40c0-0.5,0-0.8,0-1.2H90l0,0.7h0c0.2-0.4,0.7-0.8,1.4-0.8c0.6,0,1.5,0.4,1.5,1.9v2.6h-0.8v-2.5
		c0-0.7-0.3-1.3-1-1.3c-0.5,0-0.9,0.4-1.1,0.8c0,0.1-0.1,0.2-0.1,0.4v2.6h-0.8V40z"/>
	<path fill="#454547" d="M98.1,36.8v5.3c0,0.4,0,0.8,0,1.1h-0.7l0-0.8h0c-0.2,0.5-0.8,0.9-1.5,0.9c-1.1,0-1.9-0.9-1.9-2.2
		c0-1.5,0.9-2.3,2-2.3c0.7,0,1.1,0.3,1.3,0.7h0v-2.6H98.1z M97.3,40.6c0-0.1,0-0.2,0-0.3c-0.1-0.5-0.5-0.9-1.1-0.9
		c-0.8,0-1.3,0.7-1.3,1.7c0,0.9,0.4,1.6,1.3,1.6c0.5,0,1-0.4,1.2-0.9c0-0.1,0-0.2,0-0.3V40.6z"/>
	<path fill="#454547" d="M99.1,42.7c0-0.3,0.2-0.6,0.5-0.6s0.5,0.2,0.5,0.6c0,0.3-0.2,0.6-0.5,0.6C99.4,43.3,99.1,43.1,99.1,42.7z"
		/>
</g>
</svg>
