<svg baseProfile="tiny" xmlns="http://www.w3.org/2000/svg" viewBox="0 0 300 250" overflow="visible"><g fill="#193062"><path d="M14.5 75.9c-1.1 0-1.7.5-1.7 1.2 0 .4.3.8.7.9.8.3 1.8.1 3 .5 1.5.4 2.4 1.6 2.4 3.2 0 2.2-1.7 3.9-4.3 3.9-2.5 0-4.4-1.5-4.4-3.8h2.5c0 .8.8 1.4 2 1.4s1.8-.6 1.8-1.3c0-.5-.4-.8-.8-1-.7-.3-2-.2-3-.5-1.6-.4-2.4-1.6-2.4-3.1 0-2.2 1.7-3.7 4.2-3.7 2.4 0 4.2 1.5 4.2 3.6h-2.5c.1-.8-.6-1.3-1.7-1.3zM23.3 77.3h2.5v2.3h-2.5v2.7c0 .5.4.9.9.9h1.6v2.3h-2.1c-1.6 0-2.8-1.1-2.8-2.7v-3.1h-1.2v-1.2l2.2-2.7h1.3v1.5zM28.6 73.3c.8 0 1.5.6 1.5 1.5 0 .8-.6 1.5-1.5 1.5-.8 0-1.5-.7-1.5-1.5s.6-1.5 1.5-1.5zm1.2 12.1h-2.4v-8.1h2.4v8.1zM31.9 73.2h2.4v12.2h-2.4V73.2zM36.4 73.2h2.4v12.2h-2.4V73.2zM48.3 83.4c.6 0 1-.3 1-.6 0-.2-.2-.4-.6-.4-.4 0-.8-.1-1.5-.2C45.8 82 45 81 45 79.9c0-1.6 1.3-2.7 3.3-2.7 1.9 0 3.2 1.1 3.3 2.7h-2.3c0-.4-.4-.6-1-.6s-1 .2-1 .5c0 .2.2.4.6.4.5.1.8.1 1.5.1 1.6.2 2.3 1.2 2.3 2.4 0 1.6-1.3 2.8-3.3 2.8-2 0-3.4-1.2-3.4-2.8h2.3c-.1.5.4.7 1 .7zM60.7 82.2h-5.6c.3.7 1 1.2 1.8 1.2s1.3-.4 1.7-.9l1.9 1.1c-.7 1.2-2 2-3.6 2-2.4 0-4.2-1.8-4.2-4.2 0-2.4 1.7-4.2 4.1-4.2 2.4 0 4 1.8 4 4.2 0 .2-.1.5-.1.8zM55 80.5h3.4c-.2-.8-.9-1.2-1.7-1.2-.8 0-1.5.4-1.7 1.2zM69 80.3v5.1h-2.3V85c-.5.4-1.1.6-2 .6-1.7 0-2.8-1-2.8-2.5 0-1.7 1.2-2.4 2.8-2.5l2-.2v-.1c0-.5-.5-1-1.2-1-.6 0-1.1.3-1.2.8H62c.1-1.7 1.5-2.9 3.4-2.9 2.2-.1 3.6 1.3 3.6 3.1zm-2.3 2.2V82l-1.6.1c-.6 0-.8.3-.8.7 0 .4.4.8 1 .8.9 0 1.4-.4 1.4-1.1zM76.2 77.3v2.3H75c-.9 0-1.6.7-1.6 1.6v4.1H71v-8.1h2.3v.8c.4-.6 1.2-.7 1.9-.7h1zM81.1 77.1c1.5 0 2.8.7 3.5 1.9l-1.9 1.3c-.4-.5-.9-.9-1.6-.9-1.1 0-1.8.8-1.8 1.9s.8 1.9 1.8 1.9c.7 0 1.2-.4 1.6-.9l1.9 1.3c-.7 1.2-2 1.9-3.5 1.9-2.4 0-4.2-1.8-4.2-4.2s1.8-4.2 4.2-4.2zM93.4 80.3v5H91v-4.5c0-.8-.5-1.4-1.3-1.4s-1.4.6-1.4 1.4v4.5h-2.4V73.2h2.4v4.6c.5-.4 1.2-.6 1.9-.6 1.8-.1 3.2 1.3 3.2 3.1zM96.6 73.3c.8 0 1.5.6 1.5 1.5 0 .8-.6 1.5-1.5 1.5-.8 0-1.5-.7-1.5-1.5s.7-1.5 1.5-1.5zm1.2 12.1h-2.4v-8.1h2.4v8.1zM107.4 80.3v5H105v-4.6c0-.8-.5-1.4-1.3-1.4s-1.4.6-1.4 1.4v4.6h-2.4v-8.1h2.3v.5c.5-.4 1.2-.6 2-.6 1.8 0 3.2 1.4 3.2 3.2zM117 77.3v7.8c0 2.2-1.6 3.8-4 3.8-1.8 0-3.3-1-3.7-2.6l2.2-.8c.2.7.8 1.1 1.6 1.1 1 0 1.6-.6 1.6-1.6v-.6c-.5.4-1.2.6-1.9.6-2.2 0-3.8-1.7-3.8-4 0-2.2 1.6-4 3.8-4 .8 0 1.5.2 2 .7v-.5h2.2zm-2.3 3.8c0-1-.7-1.7-1.7-1.7s-1.7.8-1.7 1.7c0 .9.7 1.7 1.7 1.7.9 0 1.7-.7 1.7-1.7z"/></g><g fill="#193062"><path d="M11.4 102.6H9.8v-2.3h1.6v-1.6c0-1.6 1-2.5 2.6-2.5h1.8v2.3h-1.4c-.4 0-.7.2-.7.6v1.2h2v2.3h-2v5.8h-2.4v-5.8zM20.7 100.1c2.4 0 4.2 1.8 4.2 4.2 0 2.3-1.8 4.2-4.2 4.2-2.4 0-4.2-1.9-4.2-4.2 0-2.3 1.8-4.2 4.2-4.2zm0 6.1c1.1 0 1.9-.8 1.9-1.9 0-1.1-.8-1.9-1.9-1.9-1.1 0-1.9.8-1.9 1.9.1 1.1.8 1.9 1.9 1.9zM31.6 100.3v2.3h-1.2c-.9 0-1.6.7-1.6 1.6v4.1h-2.4v-8.1h2.3v.7c.4-.6 1.2-.7 1.9-.7h1zM37.7 96.7h2.5v9.3h6.7v2.4h-9.2V96.7zM49.6 96.3c.8 0 1.5.6 1.5 1.5 0 .8-.6 1.5-1.5 1.5-.8 0-1.5-.7-1.5-1.5.1-.9.7-1.5 1.5-1.5zm1.2 12.1h-2.4v-8.1h2.4v8.1zM53.7 102.6h-1.6v-2.3h1.6v-1.6c0-1.6 1-2.5 2.6-2.5h1.8v2.3h-1.4c-.4 0-.7.2-.7.6v1.2h2v2.3h-2v5.8h-2.4v-5.8zM66.8 105.2h-5.6c.3.7 1 1.2 1.8 1.2s1.3-.4 1.7-.9l1.9 1.1c-.7 1.2-2 2-3.6 2-2.4 0-4.2-1.8-4.2-4.2 0-2.4 1.7-4.2 4.1-4.2 2.4 0 4 1.8 4 4.2 0 .2 0 .5-.1.8zm-5.6-1.7h3.4c-.2-.8-.9-1.2-1.7-1.2-.9 0-1.5.4-1.7 1.2zM73.3 96.7h2.5v11.7h-2.5V96.7zM85.5 103.3v5h-2.4v-4.6c0-.8-.5-1.4-1.3-1.4s-1.4.6-1.4 1.4v4.6H78v-8.1h2.3v.5c.5-.4 1.2-.6 2-.6 1.9 0 3.2 1.4 3.2 3.2zM90.4 106.4c.6 0 1-.3 1-.6 0-.2-.2-.4-.6-.4-.4 0-.8-.1-1.5-.2-1.6-.2-2.3-1.2-2.3-2.4 0-1.6 1.3-2.7 3.3-2.7 1.9 0 3.2 1.1 3.3 2.7h-2.3c0-.4-.4-.6-1-.6s-1 .2-1 .5c0 .2.2.4.6.4.5.1.8.1 1.5.1 1.6.2 2.3 1.2 2.3 2.4 0 1.6-1.3 2.8-3.3 2.8-2 0-3.4-1.2-3.4-2.8h2.3c0 .6.5.8 1.1.8zM102.7 100.3v8.1h-2.3v-.4c-.5.4-1.2.6-2 .6-1.8 0-3.2-1.4-3.2-3.2v-5.1h2.4v4.6c0 .8.5 1.4 1.3 1.4s1.4-.6 1.4-1.4v-4.6h2.4zM109.9 100.3v2.3h-1.2c-.9 0-1.6.7-1.6 1.6v4.1h-2.4v-8.1h2.3v.7c.4-.6 1.2-.7 1.9-.7h1zM117.7 103.3v5.1h-2.3v-.4c-.5.4-1.1.6-2 .6-1.7 0-2.8-1-2.8-2.5 0-1.7 1.2-2.4 2.8-2.5l2-.2v-.1c0-.5-.5-1-1.2-1-.6 0-1.1.3-1.2.8h-2.3c.1-1.7 1.5-2.9 3.4-2.9 2.2-.1 3.6 1.3 3.6 3.1zm-2.3 2.2v-.5l-1.6.1c-.6 0-.8.3-.8.7 0 .4.4.8 1 .8.9 0 1.4-.4 1.4-1.1zM127.2 103.3v5h-2.4v-4.6c0-.8-.5-1.4-1.3-1.4s-1.4.6-1.4 1.4v4.6h-2.4v-8.1h2.3v.5c.5-.4 1.2-.6 2-.6 1.9 0 3.2 1.4 3.2 3.2zM132.9 100.1c1.5 0 2.8.7 3.5 1.9l-1.9 1.3c-.4-.5-.9-.9-1.6-.9-1.1 0-1.8.8-1.8 1.9s.8 1.9 1.8 1.9c.7 0 1.2-.4 1.6-.9l1.9 1.3c-.7 1.2-2 1.9-3.5 1.9-2.4 0-4.2-1.8-4.2-4.2s1.8-4.2 4.2-4.2zM145.1 105.2h-5.6c.3.7 1 1.2 1.8 1.2s1.3-.4 1.7-.9l1.9 1.1c-.7 1.2-2 2-3.6 2-2.4 0-4.2-1.8-4.2-4.2 0-2.4 1.7-4.2 4.1-4.2 2.4 0 4 1.8 4 4.2 0 .2 0 .5-.1.8zm-5.6-1.7h3.4c-.2-.8-.9-1.2-1.7-1.2-.9 0-1.5.4-1.7 1.2z"/></g><g fill="#193062"><path d="M13.3 123.3h2.5v2.3h-2.5v2.7c0 .5.4.9.9.9h1.6v2.3h-2.1c-1.6 0-2.8-1.1-2.8-2.7v-3.1H9.8v-1.2l2.2-2.7h1.3v1.5zM24.8 126.3v5h-2.4v-4.5c0-.8-.5-1.4-1.3-1.4s-1.4.6-1.4 1.4v4.5h-2.4v-12.2h2.4v4.6c.5-.4 1.2-.6 1.9-.6 1.9 0 3.2 1.4 3.2 3.2zM33.6 126.3v5.1h-2.3v-.4c-.5.4-1.1.6-2 .6-1.7 0-2.8-1-2.8-2.5 0-1.7 1.2-2.4 2.8-2.5l2-.2v-.1c0-.5-.5-1-1.2-1-.6 0-1.1.3-1.2.8h-2.3c.1-1.7 1.5-2.9 3.4-2.9 2.1-.1 3.6 1.3 3.6 3.1zm-2.4 2.2v-.5l-1.6.1c-.6 0-.8.3-.8.7 0 .4.4.8 1 .8.9 0 1.4-.4 1.4-1.1zM38.2 123.3h2.5v2.3h-2.5v2.7c0 .5.4.9.9.9h1.6v2.3h-2.1c-1.6 0-2.8-1.1-2.8-2.7v-3.1h-1.2v-1.2l2.2-2.7h1.3v1.5zM47.7 125.5h-1.6v-2.3h1.6v-1.6c0-1.6 1-2.5 2.6-2.5h1.8v2.3h-1.4c-.4 0-.7.2-.7.6v1.2h2v2.3h-2v5.8h-2.4v-5.8zm7-6.2c.8 0 1.5.6 1.5 1.5 0 .8-.6 1.5-1.5 1.5-.8 0-1.5-.7-1.5-1.5.1-.9.7-1.5 1.5-1.5zm1.2 12.1h-2.4v-8.1h2.4v8.1zM60.7 123.3h2.5v2.3h-2.5v2.7c0 .5.4.9.9.9h1.6v2.3h-2.1c-1.6 0-2.8-1.1-2.8-2.7v-3.1h-1.2v-1.2l2.2-2.7h1.3v1.5zM67.7 129.4c.6 0 1-.3 1-.6 0-.2-.2-.4-.6-.4-.4 0-.8-.1-1.5-.2-1.6-.2-2.3-1.2-2.3-2.4 0-1.6 1.3-2.7 3.3-2.7 1.9 0 3.2 1.1 3.3 2.7h-2.3c0-.4-.4-.6-1-.6s-1 .2-1 .5c0 .2.2.4.6.4.5.1.8.1 1.5.1 1.6.2 2.3 1.2 2.3 2.4 0 1.6-1.3 2.8-3.3 2.8-2 0-3.4-1.2-3.4-2.8h2.3c0 .5.4.8 1.1.8zM83.8 123.3l-4.1 11.5h-2.5l1.3-3.6-2.8-7.9h2.6l1.5 4.4 1.6-4.4h2.4zM88.4 123.1c2.4 0 4.2 1.8 4.2 4.2 0 2.3-1.8 4.2-4.2 4.2-2.4 0-4.2-1.9-4.2-4.2 0-2.3 1.8-4.2 4.2-4.2zm0 6.1c1.1 0 1.9-.8 1.9-1.9 0-1.1-.8-1.9-1.9-1.9-1.1 0-1.9.8-1.9 1.9.1 1.1.9 1.9 1.9 1.9zM101.6 123.3v8.1h-2.3v-.4c-.5.4-1.2.6-2 .6-1.8 0-3.2-1.4-3.2-3.2v-5.1h2.4v4.6c0 .8.5 1.4 1.3 1.4s1.4-.6 1.4-1.4v-4.6h2.4zM108.8 123.3v2.3h-1.2c-.9 0-1.6.7-1.6 1.6v4.1h-2.4v-8.1h2.3v.7c.4-.6 1.2-.7 1.9-.7h1z"/></g><g fill="#193062"><path d="M11.4 148.5H9.8v-2.3h1.6v-1.6c0-1.6 1-2.5 2.6-2.5h1.8v2.3h-1.4c-.4 0-.7.2-.7.6v1.2h2v2.3h-2v5.8h-2.4v-5.8zM23.7 149.3v5.1h-2.3v-.4c-.5.4-1.1.6-2 .6-1.7 0-2.8-1-2.8-2.5 0-1.7 1.2-2.4 2.8-2.5l2-.2v-.1c0-.5-.5-1-1.2-1-.6 0-1.1.3-1.2.8h-2.3c.1-1.7 1.5-2.9 3.4-2.9 2.2-.1 3.6 1.2 3.6 3.1zm-2.3 2.2v-.5l-1.6.1c-.6 0-.8.3-.8.7 0 .4.4.8 1 .8.8 0 1.4-.4 1.4-1.1zM37.5 149.1v5.3h-2.4v-4.8c0-.6-.4-1.2-1.2-1.2-.7 0-1.2.5-1.2 1.2v4.8h-2.4v-4.8c0-.6-.4-1.2-1.2-1.2-.7 0-1.2.5-1.2 1.2v4.8h-2.4v-8.1h2.3v.4c.5-.4 1.1-.6 1.8-.6.8 0 1.6.3 2.1.8.6-.5 1.4-.8 2.3-.8 2.1 0 3.5 1.2 3.5 3zM40.8 142.3c.8 0 1.5.6 1.5 1.5 0 .8-.6 1.5-1.5 1.5-.8 0-1.5-.7-1.5-1.5 0-.9.6-1.5 1.5-1.5zm1.1 12h-2.4v-8.1h2.4v8.1zM44.1 142.1h2.4v12.2h-2.4v-12.2zM55.7 146.3l-4.1 11.5h-2.5l1.3-3.6-2.8-7.9h2.6l1.5 4.4 1.6-4.4h2.4zM59.5 143.9c0 .2 0 .4-.1.5l-.9 2.7h-1.4l.4-1.9c-.5-.2-.9-.7-.9-1.3 0-.8.6-1.4 1.4-1.4.9 0 1.5.6 1.5 1.4zM63.5 152.4c.6 0 1-.3 1-.6 0-.2-.2-.4-.6-.4-.4 0-.8-.1-1.5-.2-1.6-.2-2.3-1.2-2.3-2.4 0-1.6 1.3-2.7 3.3-2.7 1.9 0 3.2 1.1 3.3 2.7h-2.3c0-.4-.4-.6-1-.6s-1 .2-1 .5c0 .2.2.4.6.4.5.1.8.1 1.5.1 1.6.2 2.3 1.2 2.3 2.4 0 1.6-1.3 2.8-3.3 2.8-2 0-3.4-1.2-3.4-2.8h2.3c0 .5.4.8 1.1.8zM80.5 149.3v5h-2.4v-4.6c0-.8-.5-1.4-1.3-1.4s-1.4.6-1.4 1.4v4.6H73v-8.1h2.3v.5c.5-.4 1.2-.6 2-.6 1.8 0 3.2 1.4 3.2 3.2zM90 151.2h-5.6c.3.7 1 1.2 1.8 1.2s1.3-.4 1.7-.9l1.9 1.1c-.7 1.2-2 2-3.6 2-2.4 0-4.2-1.8-4.2-4.2 0-2.4 1.7-4.2 4.1-4.2 2.4 0 4 1.8 4 4.2 0 .2 0 .5-.1.8zm-5.7-1.8h3.4c-.2-.8-.9-1.2-1.7-1.2-.8.1-1.5.5-1.7 1.2zM99.1 151.2h-5.6c.3.7 1 1.2 1.8 1.2s1.3-.4 1.7-.9l1.9 1.1c-.7 1.2-2 2-3.6 2-2.4 0-4.2-1.8-4.2-4.2 0-2.4 1.7-4.2 4.1-4.2 2.4 0 4 1.8 4 4.2 0 .2 0 .5-.1.8zm-5.6-1.8h3.4c-.2-.8-.9-1.2-1.7-1.2-.9.1-1.5.5-1.7 1.2zM108.6 142.1v12.2h-2.3v-.5c-.5.4-1.3.7-2.1.7-2.3 0-4-1.9-4-4.2 0-2.4 1.6-4.2 4-4.2.8 0 1.5.2 2 .6v-4.6h2.4zm-2.3 8.2c0-1.1-.8-1.9-1.9-1.9-1.1 0-1.8.8-1.8 1.9 0 1.1.8 1.9 1.8 1.9 1.2 0 1.9-.8 1.9-1.9zM113.6 152.4c.6 0 1-.3 1-.6 0-.2-.2-.4-.6-.4-.4 0-.8-.1-1.5-.2-1.6-.2-2.3-1.2-2.3-2.4 0-1.6 1.3-2.7 3.3-2.7 1.9 0 3.2 1.1 3.3 2.7h-2.3c0-.4-.4-.6-1-.6s-1 .2-1 .5c0 .2.2.4.6.4.5.1.8.1 1.5.1 1.6.2 2.3 1.2 2.3 2.4 0 1.6-1.3 2.8-3.3 2.8-2 0-3.4-1.2-3.4-2.8h2.3c0 .5.4.8 1.1.8zM119.9 150.7c0-1.5.3-2.1 1.5-3.2.6-.5.9-.9.9-1.5 0-.7-.4-1.1-1.1-1.1-.6 0-1.1.5-1.1 1.1h-2.5c0-2 1.5-3.6 3.6-3.6s3.6 1.5 3.6 3.5c0 1.5-.7 2.2-1.7 3.2-.7.6-.9 1-.9 1.6v.1h-2.3zm1.2.8c.8 0 1.5.6 1.5 1.5 0 .8-.6 1.5-1.5 1.5-.8 0-1.5-.7-1.5-1.5 0-.9.6-1.5 1.5-1.5z"/></g><g fill="#193062"><path d="M13.3 168.1H10v-2.4h9.2v2.4h-3.3v9.3h-2.5v-9.3zM24.2 169.3v2.3H23c-.9 0-1.6.7-1.6 1.6v4.1H19v-8.1h2.3v.7c.4-.6 1.2-.7 1.9-.7h1zM33 169.3v8.1h-2.3v-.4c-.5.4-1.2.6-2 .6-1.8 0-3.2-1.4-3.2-3.2v-5.1h2.4v4.6c0 .8.5 1.4 1.3 1.4s1.4-.6 1.4-1.4v-4.6H33zM37.9 175.4c.6 0 1-.3 1-.6 0-.2-.2-.4-.6-.4-.4 0-.8-.1-1.5-.2-1.6-.2-2.3-1.2-2.3-2.4 0-1.6 1.3-2.7 3.3-2.7 1.9 0 3.2 1.1 3.3 2.7h-2.3c0-.4-.4-.6-1-.6s-1 .2-1 .5c0 .2.2.4.6.4.5.1.8.1 1.5.1 1.6.2 2.3 1.2 2.3 2.4 0 1.6-1.3 2.8-3.3 2.8-2 0-3.4-1.2-3.4-2.8h2.3c0 .5.5.8 1.1.8zM45.5 169.3H48v2.3h-2.5v2.7c0 .5.4.9.9.9H48v2.3h-2.1c-1.6 0-2.8-1.1-2.8-2.7v-3.1h-1.2v-1.2l2.2-2.7h1.3v1.5zM56.5 168.1h-3.3v-2.4h9.2v2.4H59v9.3h-2.5v-9.3zM67.5 169.3v2.3h-1.2c-.9 0-1.6.7-1.6 1.6v4.1h-2.4v-8.1h2.3v.7c.4-.6 1.2-.7 1.9-.7h1zM76.2 169.3v8.1h-2.3v-.4c-.5.4-1.2.6-2 .6-1.8 0-3.2-1.4-3.2-3.2v-5.1h2.4v4.6c0 .8.5 1.4 1.3 1.4s1.4-.6 1.4-1.4v-4.6h2.4zM82.2 167.8c-1.1 0-1.7.5-1.7 1.2 0 .4.3.8.7.9.8.3 1.8.1 3 .5 1.5.4 2.4 1.6 2.4 3.2 0 2.2-1.7 3.9-4.3 3.9-2.5 0-4.4-1.5-4.4-3.8h2.5c0 .8.8 1.4 2 1.4s1.8-.6 1.8-1.3c0-.5-.4-.8-.8-1-.7-.3-2-.2-3-.5-1.6-.4-2.4-1.6-2.4-3.1 0-2.2 1.7-3.7 4.2-3.7 2.4 0 4.2 1.5 4.2 3.6H84c-.1-.8-.8-1.3-1.8-1.3zM91 169.3h2.5v2.3H91v2.7c0 .5.4.9.9.9h1.6v2.3h-2.1c-1.6 0-2.8-1.1-2.8-2.7v-3.1h-1.2v-1.2l2.2-2.7H91v1.5zM101.7 172.3v5.1h-2.3v-.4c-.5.4-1.1.6-2 .6-1.7 0-2.8-1-2.8-2.5 0-1.7 1.2-2.4 2.8-2.5l2-.2v-.1c0-.5-.5-1-1.2-1-.6 0-1.1.3-1.2.8h-2.3c.1-1.7 1.5-2.9 3.4-2.9 2.2-.1 3.6 1.2 3.6 3.1zm-2.3 2.2v-.5l-1.6.1c-.6 0-.8.3-.8.7 0 .4.4.8 1 .8.9 0 1.4-.4 1.4-1.1zM111.3 169.3v7.8c0 2.2-1.6 3.8-4 3.8-1.8 0-3.3-1-3.7-2.6l2.2-.8c.2.7.8 1.1 1.6 1.1 1 0 1.6-.6 1.6-1.6v-.6c-.5.4-1.2.6-1.9.6-2.2 0-3.8-1.7-3.8-4s1.6-4 3.8-4c.8 0 1.5.2 2 .7v-.5h2.2zm-2.3 3.8c0-1-.7-1.7-1.7-1.7s-1.7.8-1.7 1.7c0 .9.7 1.7 1.7 1.7s1.7-.8 1.7-1.7zM120.9 174.2h-5.6c.3.7 1 1.2 1.8 1.2s1.3-.4 1.7-.9l1.9 1.1c-.7 1.2-2 2-3.6 2-2.4 0-4.2-1.8-4.2-4.2 0-2.4 1.7-4.2 4.1-4.2 2.4 0 4 1.8 4 4.2 0 .2 0 .5-.1.8zm-5.7-1.8h3.4c-.2-.8-.9-1.2-1.7-1.2-.8.1-1.5.5-1.7 1.2zM123.3 167H122v-1.3h3.9v1.3h-1.3v3.3h-1.4V167zm3.4-1.3h1.3l1 2.1 1-2.1h1.3v4.6H130v-2.1l-1 2.2-1.1-2.1v2h-1.3v-4.6z"/></g></svg>