<svg baseProfile="tiny" xmlns="http://www.w3.org/2000/svg" viewBox="0 0 300 250" overflow="visible"><path fill="#FAE07E" d="M9.6 196.8h98.3v27.8H9.6z"/><g fill="#193062"><path d="M23 206.6h1.6v6.5h4.7v1.5H23v-8zM30.3 206.6h6.2v1.5h-4.7v1.7h2.6v1.5h-2.6v1.7h4.7v1.5h-6.2v-7.9zM39.8 208.2h-2.3v-1.5h6.2v1.5h-2.3v6.5h-1.6v-6.5zM54.1 211.6c0 .6-.1 1.1-.4 1.6s-.7.9-1.2 1.1c-.5.3-1 .4-1.6.4-.6 0-1.2-.1-1.7-.4-.5-.3-.9-.7-1.2-1.1-.3-.5-.4-1-.4-1.6v-5h1.6v4.9c0 .3.1.6.2.8.1.3.3.5.6.6.3.1.5.2.9.2.3 0 .6-.1.8-.2.3-.1.4-.3.6-.6s.2-.5.2-.8v-4.9h1.6v5zM58.3 208c-.3 0-.5 0-.7.1-.2.1-.3.2-.4.3-.1.1-.2.3-.2.5s.1.3.2.4c.1.1.2.2.4.3.1 0 .2.1.4.1.1 0 .3 0 .5.1.3 0 .5 0 .6.1s.3.1.5.1c.5.2.9.4 1.2.8.3.4.4.8.4 1.4 0 .5-.1 1-.4 1.4-.2.4-.6.7-1 .9s-1 .3-1.5.3c-.6 0-1.1-.1-1.5-.3-.5-.2-.8-.5-1.1-.9-.3-.4-.4-.8-.4-1.3H57c0 .2.1.4.2.6s.3.3.5.4c.2.1.5.1.7.1.3 0 .5 0 .7-.1.2-.1.4-.2.5-.4s.2-.3.2-.5-.1-.3-.2-.5c-.1-.1-.2-.2-.4-.3-.1 0-.3-.1-.4-.1-.1 0-.3 0-.6-.1-.2 0-.4 0-.6-.1-.2 0-.3-.1-.5-.1-.5-.2-.9-.4-1.2-.8s-.4-.8-.4-1.3.1-.9.4-1.3c.2-.4.6-.7 1-.9.4-.2.9-.3 1.5-.3.5 0 1 .1 1.5.3s.8.5 1 .9.4.8.4 1.3h-1.6c0-.2-.1-.4-.2-.5-.1-.1-.3-.3-.5-.3-.2-.2-.4-.3-.7-.3zM65.6 206.6h1.6v3.2h3.3v-3.2H72v8h-1.6v-3.3h-3.3v3.3h-1.6v-8zM73.8 206.6H80v1.5h-4.7v1.7h2.6v1.5h-2.6v1.7H80v1.5h-6.2v-7.9zM81.4 206.6H83v6.5h4.7v1.5h-6.2v-8zM95.1 209.5c0 .6-.1 1.1-.4 1.5s-.6.8-1 1c-.4.2-1 .4-1.5.4h-1.8v2.3h-1.6v-8h3.4c.6 0 1.1.1 1.5.4s.8.6 1 1c.2.4.4.9.4 1.4zm-1.6 0c0-.3-.1-.5-.2-.7-.1-.2-.3-.4-.5-.5-.2-.1-.4-.2-.7-.2h-1.9v2.7h1.9c.3 0 .5-.1.7-.2.2-.1.4-.3.5-.5s.2-.3.2-.6z"/></g></svg>