<?xml version="1.0" encoding="utf-8"?>
<!-- Generator: Adobe Illustrator 27.4.0, SVG Export Plug-In . SVG Version: 6.00 Build 0)  -->
<svg version="1.1" baseProfile="tiny" id="Layer_1" xmlns="http://www.w3.org/2000/svg" xmlns:xlink="http://www.w3.org/1999/xlink"
	 x="0px" y="0px" viewBox="0 0 160 600" overflow="visible" xml:space="preserve">
<g>
	<path fill="#193062" d="M21,299.1c-1.2,0-2,0.6-2,1.5c0,0.5,0.3,0.9,0.9,1.1c0.9,0.3,2.2,0.2,3.5,0.5c1.8,0.5,2.9,1.9,2.9,3.8
		c0,2.6-2,4.6-5.1,4.6c-3,0-5.2-1.8-5.2-4.5h2.9c0,1,1,1.7,2.3,1.7c1.4,0,2.2-0.7,2.2-1.6c0-0.6-0.4-1-0.9-1.2
		c-0.9-0.3-2.3-0.2-3.5-0.5c-1.8-0.5-2.8-1.9-2.8-3.7c0-2.6,2-4.4,5-4.4c2.9,0,5,1.7,5,4.3h-2.9C23,299.7,22.2,299.1,21,299.1z"/>
	<path fill="#193062" d="M31.4,300.8h2.9v2.7h-2.9v3.2c0,0.6,0.4,1,1,1h1.9v2.7h-2.5c-1.9,0-3.3-1.2-3.3-3.2v-3.7h-1.4V302l2.6-3.2
		h1.5V300.8z"/>
	<path fill="#193062" d="M37.6,296c1,0,1.7,0.8,1.7,1.7c0,1-0.7,1.7-1.7,1.7s-1.7-0.8-1.7-1.7C35.8,296.8,36.6,296,37.6,296z
		 M39,310.3h-2.8v-9.5H39V310.3z"/>
	<path fill="#193062" d="M41.5,295.9h2.8v14.4h-2.8V295.9z"/>
	<path fill="#193062" d="M46.8,295.9h2.8v14.4h-2.8V295.9z"/>
	<path fill="#193062" d="M60.9,308c0.8,0,1.2-0.3,1.2-0.7c0-0.3-0.2-0.5-0.7-0.5s-1-0.1-1.7-0.2c-1.9-0.3-2.7-1.4-2.7-2.8
		c0-1.9,1.6-3.2,3.9-3.2c2.2,0,3.8,1.3,3.9,3.2H62c0-0.4-0.5-0.7-1.2-0.7c-0.7,0-1.1,0.3-1.1,0.6c0,0.3,0.2,0.4,0.7,0.5
		c0.6,0.1,1,0.1,1.8,0.2c1.9,0.2,2.7,1.4,2.7,2.8c0,1.9-1.6,3.3-4,3.3c-2.3,0-4-1.4-4-3.3h2.7C59.6,307.7,60.1,308,60.9,308z"/>
	<path fill="#193062" d="M75.5,306.5h-6.6c0.3,0.8,1.1,1.4,2.2,1.4c0.9,0,1.6-0.5,2-1.1l2.2,1.3c-0.8,1.4-2.4,2.3-4.3,2.3
		c-2.9,0-5-2.2-5-5c0-2.8,2-5,4.8-5c2.8,0,4.8,2.1,4.8,5C75.6,305.8,75.6,306.2,75.5,306.5z M68.8,304.5h4c-0.3-0.9-1-1.4-2-1.4
		C69.8,303.1,69,303.6,68.8,304.5z"/>
	<path fill="#193062" d="M85.3,304.3v6h-2.7v-0.5c-0.6,0.5-1.3,0.7-2.3,0.7c-2,0-3.3-1.2-3.3-3c0-2,1.5-2.8,3.3-3l2.3-0.2v-0.1
		c0-0.6-0.6-1.1-1.4-1.1c-0.7,0-1.2,0.4-1.4,0.9h-2.7c0.1-2,1.8-3.4,4-3.4C83.7,300.5,85.3,302.1,85.3,304.3z M82.6,306.9v-0.6
		l-1.9,0.2c-0.7,0.1-1,0.4-1,0.9c0,0.5,0.4,0.9,1.2,0.9C82,308.2,82.6,307.7,82.6,306.9z"/>
	<path fill="#193062" d="M93.8,300.8v2.8h-1.4c-1.1,0-1.8,0.8-1.8,1.9v4.9h-2.8v-9.5h2.7v0.9c0.5-0.7,1.4-0.9,2.2-0.9H93.8z"/>
	<path fill="#193062" d="M99.7,300.5c1.8,0,3.3,0.9,4.1,2.2l-2.2,1.6c-0.4-0.6-1-1.1-1.9-1.1c-1.2,0-2.2,1-2.2,2.2
		c0,1.3,0.9,2.2,2.2,2.2c0.8,0,1.5-0.4,1.9-1.1l2.3,1.6c-0.8,1.4-2.3,2.2-4.1,2.2c-2.9,0-4.9-2.2-4.9-5
		C94.7,302.7,96.8,300.5,99.7,300.5z"/>
	<path fill="#193062" d="M114.1,304.3v5.9h-2.8v-5.4c0-0.9-0.6-1.6-1.6-1.6c-1,0-1.6,0.7-1.6,1.6v5.4h-2.8v-14.4h2.8v5.4
		c0.6-0.5,1.4-0.7,2.3-0.7C112.5,300.5,114.1,302.2,114.1,304.3z"/>
	<path fill="#193062" d="M118,296c1,0,1.7,0.8,1.7,1.7c0,1-0.7,1.7-1.7,1.7s-1.7-0.8-1.7-1.7C116.2,296.8,117,296,118,296z
		 M119.4,310.3h-2.8v-9.5h2.8V310.3z"/>
	<path fill="#193062" d="M130.7,304.3v6h-2.8v-5.4c0-0.9-0.6-1.6-1.6-1.6s-1.6,0.7-1.6,1.6v5.4h-2.8v-9.5h2.7v0.5
		c0.6-0.5,1.4-0.8,2.3-0.8C129.1,300.5,130.7,302.2,130.7,304.3z"/>
	<path fill="#193062" d="M142,300.8v9.2c0,2.6-1.9,4.5-4.7,4.5c-2.2,0-3.9-1.2-4.4-3l2.6-1c0.3,0.8,0.9,1.3,1.9,1.3
		c1.2,0,1.9-0.7,1.9-1.9v-0.7c-0.6,0.5-1.4,0.7-2.3,0.7c-2.6,0-4.5-2.1-4.5-4.7s1.9-4.7,4.4-4.7c0.9,0,1.7,0.3,2.3,0.8v-0.6H142z
		 M139.3,305.3c0-1.1-0.9-2-2-2c-1.2,0-2,0.9-2,2c0,1.1,0.9,2,2,2C138.4,307.3,139.3,306.4,139.3,305.3z"/>
</g>
<g>
	<path fill="#193062" d="M17.3,329.4h-1.9v-2.7h1.9v-1.9c0-1.8,1.2-3,3.1-3h2.1v2.7h-1.6c-0.5,0-0.8,0.3-0.8,0.8v1.5h2.4v2.7h-2.4
		v6.9h-2.8V329.4z"/>
	<path fill="#193062" d="M28.3,326.5c2.9,0,5,2.2,5,5c0,2.7-2.1,5-5,5s-5-2.2-5-5C23.3,328.7,25.4,326.5,28.3,326.5z M28.3,333.7
		c1.3,0,2.2-1,2.2-2.2c0-1.3-0.9-2.2-2.2-2.2s-2.2,1-2.2,2.2C26.1,332.8,27,333.7,28.3,333.7z"/>
	<path fill="#193062" d="M41.1,326.7v2.8h-1.4c-1.1,0-1.8,0.8-1.8,1.9v4.9h-2.8v-9.5h2.7v0.9c0.5-0.7,1.4-0.9,2.2-0.9H41.1z"/>
	<path fill="#193062" d="M48.4,322.5h2.9v10.9h7.9v2.9H48.4V322.5z"/>
	<path fill="#193062" d="M62.4,322c1,0,1.7,0.8,1.7,1.7c0,1-0.7,1.7-1.7,1.7s-1.7-0.8-1.7-1.7C60.7,322.8,61.4,322,62.4,322z
		 M63.8,336.3H61v-9.5h2.8V336.3z"/>
	<path fill="#193062" d="M67.2,329.4h-1.9v-2.7h1.9v-1.9c0-1.8,1.2-3,3.1-3h2.1v2.7h-1.6c-0.5,0-0.8,0.3-0.8,0.8v1.5h2.4v2.7H70v6.9
		h-2.8V329.4z"/>
	<path fill="#193062" d="M82.8,332.5h-6.6c0.3,0.8,1.1,1.4,2.2,1.4c0.9,0,1.6-0.5,2-1.1l2.2,1.3c-0.8,1.4-2.4,2.3-4.3,2.3
		c-2.9,0-5-2.2-5-5c0-2.8,2-5,4.8-5c2.8,0,4.8,2.1,4.8,5C82.9,331.8,82.8,332.2,82.8,332.5z M76.1,330.5h4c-0.3-0.9-1-1.4-2-1.4
		C77.1,329.1,76.3,329.6,76.1,330.5z"/>
</g>
<g>
	<path fill="#193062" d="M16.5,348.5h2.9v13.8h-2.9V348.5z"/>
	<path fill="#193062" d="M31,356.3v6h-2.8v-5.4c0-0.9-0.6-1.6-1.6-1.6c-1,0-1.6,0.7-1.6,1.6v5.4h-2.8v-9.5h2.7v0.5
		c0.6-0.5,1.4-0.8,2.3-0.8C29.4,352.5,31,354.1,31,356.3z"/>
	<path fill="#193062" d="M36.8,359.9c0.8,0,1.2-0.3,1.2-0.7c0-0.3-0.2-0.5-0.7-0.5s-1-0.1-1.7-0.2c-1.9-0.3-2.7-1.4-2.7-2.8
		c0-1.9,1.6-3.2,3.9-3.2c2.2,0,3.8,1.3,3.9,3.2h-2.7c0-0.4-0.5-0.7-1.2-0.7c-0.7,0-1.1,0.3-1.1,0.6c0,0.3,0.2,0.4,0.7,0.5
		c0.6,0.1,1,0.1,1.8,0.2c1.9,0.2,2.7,1.4,2.7,2.8c0,1.9-1.6,3.3-4,3.3c-2.3,0-4-1.4-4-3.3h2.7C35.5,359.6,36,359.9,36.8,359.9z"/>
	<path fill="#193062" d="M51.3,352.7v9.5h-2.7v-0.5c-0.6,0.5-1.4,0.7-2.3,0.7c-2.1,0-3.7-1.6-3.7-3.8v-6h2.8v5.4
		c0,0.9,0.6,1.6,1.6,1.6c1,0,1.6-0.7,1.6-1.6v-5.4H51.3z"/>
	<path fill="#193062" d="M59.8,352.7v2.8h-1.4c-1.1,0-1.8,0.8-1.8,1.9v4.9h-2.8v-9.5h2.7v0.9c0.5-0.7,1.4-0.9,2.2-0.9H59.8z"/>
	<path fill="#193062" d="M69,356.3v6h-2.7v-0.5c-0.6,0.5-1.3,0.7-2.3,0.7c-2,0-3.3-1.2-3.3-3c0-2,1.5-2.8,3.3-3l2.3-0.2v-0.1
		c0-0.6-0.6-1.1-1.4-1.1c-0.7,0-1.2,0.4-1.4,0.9h-2.7c0.1-2,1.8-3.4,4-3.4C67.4,352.5,69,354.1,69,356.3z M66.3,358.9v-0.6l-1.9,0.2
		c-0.7,0.1-1,0.4-1,0.9c0,0.5,0.4,0.9,1.2,0.9C65.7,360.2,66.3,359.7,66.3,358.9z"/>
	<path fill="#193062" d="M80.3,356.3v6h-2.8v-5.4c0-0.9-0.6-1.6-1.6-1.6c-1,0-1.6,0.7-1.6,1.6v5.4h-2.8v-9.5h2.7v0.5
		c0.6-0.5,1.4-0.8,2.3-0.8C78.7,352.5,80.3,354.1,80.3,356.3z"/>
	<path fill="#193062" d="M87,352.5c1.8,0,3.3,0.9,4.1,2.2l-2.2,1.6c-0.4-0.6-1-1.1-1.9-1.1c-1.2,0-2.2,1-2.2,2.2
		c0,1.3,0.9,2.2,2.2,2.2c0.8,0,1.5-0.4,1.9-1.1l2.3,1.6c-0.8,1.4-2.3,2.2-4.1,2.2c-2.9,0-4.9-2.2-4.9-5
		C82.1,354.7,84.2,352.5,87,352.5z"/>
	<path fill="#193062" d="M101.5,358.5h-6.6c0.3,0.8,1.1,1.4,2.2,1.4c0.9,0,1.6-0.5,2-1.1l2.2,1.3c-0.8,1.4-2.4,2.3-4.3,2.3
		c-2.9,0-5-2.2-5-5c0-2.8,2-5,4.8-5c2.8,0,4.8,2.1,4.8,5C101.6,357.8,101.5,358.2,101.5,358.5z M94.8,356.5h4c-0.3-0.9-1-1.4-2-1.4
		C95.8,355.1,95,355.6,94.8,356.5z"/>
</g>
<g>
	<path fill="#193062" d="M19.5,378.7h2.9v2.7h-2.9v3.2c0,0.6,0.4,1,1,1h1.9v2.7H20c-1.9,0-3.3-1.2-3.3-3.2v-3.7h-1.4v-1.4l2.6-3.2
		h1.5V378.7z"/>
	<path fill="#193062" d="M33.1,382.3v5.9h-2.8v-5.4c0-0.9-0.6-1.6-1.6-1.6c-1,0-1.6,0.7-1.6,1.6v5.4h-2.8v-14.4h2.8v5.4
		c0.6-0.5,1.4-0.7,2.3-0.7C31.5,378.5,33.1,380.1,33.1,382.3z"/>
	<path fill="#193062" d="M43.5,382.3v6h-2.7v-0.5c-0.6,0.5-1.3,0.7-2.3,0.7c-2,0-3.3-1.2-3.3-3c0-2,1.5-2.8,3.3-3l2.3-0.2v-0.1
		c0-0.6-0.6-1.1-1.4-1.1c-0.7,0-1.2,0.4-1.4,0.9h-2.7c0.1-2,1.8-3.4,4-3.4C41.8,378.5,43.5,380.1,43.5,382.3z M40.7,384.9v-0.6
		l-1.9,0.2c-0.7,0.1-1,0.4-1,0.9c0,0.5,0.4,0.9,1.2,0.9C40.1,386.2,40.7,385.7,40.7,384.9z"/>
	<path fill="#193062" d="M49,378.7h2.9v2.7H49v3.2c0,0.6,0.4,1,1,1h1.9v2.7h-2.5c-1.9,0-3.3-1.2-3.3-3.2v-3.7h-1.4v-1.4l2.6-3.2H49
		V378.7z"/>
	<path fill="#193062" d="M60.2,381.4h-1.9v-2.7h1.9v-1.9c0-1.8,1.2-3,3.1-3h2.1v2.7h-1.6c-0.5,0-0.8,0.3-0.8,0.8v1.5h2.4v2.7H63v6.9
		h-2.8V381.4z M68.5,374c1,0,1.7,0.8,1.7,1.7c0,1-0.7,1.7-1.7,1.7s-1.7-0.8-1.7-1.7C66.7,374.8,67.5,374,68.5,374z M69.9,388.2h-2.8
		v-9.5h2.8V388.2z"/>
	<path fill="#193062" d="M75.5,378.7h2.9v2.7h-2.9v3.2c0,0.6,0.4,1,1,1h1.9v2.7H76c-1.9,0-3.3-1.2-3.3-3.2v-3.7h-1.4v-1.4l2.6-3.2
		h1.5V378.7z"/>
	<path fill="#193062" d="M83.7,385.9c0.8,0,1.2-0.3,1.2-0.7c0-0.3-0.2-0.5-0.7-0.5s-1-0.1-1.7-0.2c-1.9-0.3-2.7-1.4-2.7-2.8
		c0-1.9,1.6-3.2,3.9-3.2c2.2,0,3.8,1.3,3.9,3.2h-2.7c0-0.4-0.5-0.7-1.2-0.7c-0.7,0-1.1,0.3-1.1,0.6c0,0.3,0.2,0.4,0.7,0.5
		c0.6,0.1,1,0.1,1.8,0.2c1.9,0.2,2.7,1.4,2.7,2.8c0,1.9-1.6,3.3-4,3.3c-2.3,0-4-1.4-4-3.3h2.7C82.4,385.6,82.9,385.9,83.7,385.9z"/>
	<path fill="#193062" d="M102.8,378.7l-4.9,13.5H95l1.5-4.2l-3.4-9.3h3l1.8,5.2l1.9-5.2H102.8z"/>
	<path fill="#193062" d="M108.3,378.5c2.9,0,5,2.2,5,5c0,2.7-2.1,5-5,5s-5-2.2-5-5C103.3,380.7,105.4,378.5,108.3,378.5z
		 M108.3,385.7c1.3,0,2.2-1,2.2-2.2c0-1.3-0.9-2.2-2.2-2.2s-2.2,1-2.2,2.2C106.1,384.7,107,385.7,108.3,385.7z"/>
	<path fill="#193062" d="M123.8,378.7v9.5h-2.7v-0.5c-0.6,0.5-1.4,0.7-2.3,0.7c-2.1,0-3.7-1.6-3.7-3.8v-6h2.8v5.4
		c0,0.9,0.6,1.6,1.6,1.6c1,0,1.6-0.7,1.6-1.6v-5.4H123.8z"/>
	<path fill="#193062" d="M132.3,378.7v2.8h-1.4c-1.1,0-1.8,0.8-1.8,1.9v4.9h-2.8v-9.5h2.7v0.9c0.5-0.7,1.4-0.9,2.2-0.9H132.3z"/>
</g>
<g>
	<path fill="#193062" d="M17.3,407.4h-1.9v-2.7h1.9v-1.9c0-1.8,1.2-3,3.1-3h2.1v2.7h-1.6c-0.5,0-0.8,0.3-0.8,0.8v1.5h2.4v2.7h-2.4
		v6.9h-2.8V407.4z"/>
	<path fill="#193062" d="M31.8,408.3v6H29v-0.5c-0.6,0.5-1.3,0.7-2.3,0.7c-2,0-3.3-1.2-3.3-3c0-2,1.5-2.8,3.3-3l2.3-0.2v-0.1
		c0-0.6-0.6-1.1-1.4-1.1c-0.7,0-1.2,0.4-1.4,0.9h-2.7c0.1-2,1.8-3.4,4-3.4C30.1,404.5,31.8,406.1,31.8,408.3z M29,410.9v-0.6
		l-1.9,0.2c-0.7,0.1-1,0.4-1,0.9c0,0.5,0.4,0.9,1.2,0.9C28.4,412.2,29,411.7,29,410.9z"/>
	<path fill="#193062" d="M48.1,408v6.2h-2.8v-5.6c0-0.8-0.5-1.4-1.4-1.4c-0.8,0-1.4,0.6-1.4,1.4v5.6h-2.8v-5.6
		c0-0.8-0.5-1.4-1.4-1.4c-0.8,0-1.4,0.6-1.4,1.4v5.6h-2.8v-9.5h2.7v0.5c0.6-0.4,1.3-0.7,2.1-0.7c1,0,1.9,0.4,2.5,1
		c0.7-0.6,1.6-1,2.7-1C46.5,404.5,48.1,406,48.1,408z"/>
	<path fill="#193062" d="M51.9,400c1,0,1.7,0.8,1.7,1.7c0,1-0.7,1.7-1.7,1.7s-1.7-0.8-1.7-1.7C50.2,400.8,50.9,400,51.9,400z
		 M53.3,414.2h-2.8v-9.5h2.8V414.2z"/>
	<path fill="#193062" d="M55.8,399.8h2.8v14.4h-2.8V399.8z"/>
	<path fill="#193062" d="M69.6,404.7l-4.9,13.5h-2.9l1.5-4.2l-3.4-9.3h3l1.8,5.2l1.9-5.2H69.6z"/>
	<path fill="#193062" d="M74,401.9c0,0.2,0,0.4-0.1,0.6l-1.1,3.1h-1.6l0.5-2.2c-0.6-0.2-1-0.8-1-1.6c0-1,0.7-1.7,1.7-1.7
		S74,400.9,74,401.9z"/>
	<path fill="#193062" d="M78.8,411.9c0.8,0,1.2-0.3,1.2-0.7c0-0.3-0.2-0.5-0.7-0.5s-1-0.1-1.7-0.2c-1.9-0.3-2.7-1.4-2.7-2.8
		c0-1.9,1.6-3.2,3.9-3.2c2.2,0,3.8,1.3,3.9,3.2h-2.7c0-0.4-0.5-0.7-1.2-0.7c-0.7,0-1.1,0.3-1.1,0.6c0,0.3,0.2,0.4,0.7,0.5
		c0.6,0.1,1,0.1,1.8,0.2c1.9,0.2,2.7,1.4,2.7,2.8c0,1.9-1.6,3.3-4,3.3c-2.3,0-4-1.4-4-3.3h2.7C77.5,411.6,78,411.9,78.8,411.9z"/>
</g>
<g>
	<path fill="#193062" d="M25.2,434.3v6h-2.8v-5.4c0-0.9-0.6-1.6-1.6-1.6c-1,0-1.6,0.7-1.6,1.6v5.4h-2.8v-9.5h2.7v0.5
		c0.6-0.5,1.4-0.8,2.3-0.8C23.6,430.5,25.2,432.1,25.2,434.3z"/>
	<path fill="#193062" d="M36.4,436.5h-6.6c0.3,0.8,1.1,1.4,2.2,1.4c0.9,0,1.6-0.5,2-1.1l2.2,1.3c-0.8,1.4-2.4,2.3-4.3,2.3
		c-2.9,0-5-2.2-5-5c0-2.8,2-5,4.8-5c2.8,0,4.8,2.1,4.8,5C36.5,435.8,36.5,436.1,36.4,436.5z M29.7,434.4h4c-0.3-0.9-1-1.4-2-1.4
		C30.7,433,30,433.5,29.7,434.4z"/>
	<path fill="#193062" d="M47.2,436.5h-6.6c0.3,0.8,1.1,1.4,2.2,1.4c0.9,0,1.6-0.5,2-1.1l2.2,1.3c-0.8,1.4-2.4,2.3-4.3,2.3
		c-2.9,0-5-2.2-5-5c0-2.8,2-5,4.8-5c2.8,0,4.8,2.1,4.8,5C47.3,435.8,47.3,436.1,47.2,436.5z M40.5,434.4h4c-0.3-0.9-1-1.4-2-1.4
		C41.5,433,40.8,433.5,40.5,434.4z"/>
	<path fill="#193062" d="M58.4,425.8v14.4h-2.7v-0.6c-0.6,0.5-1.5,0.8-2.4,0.8c-2.8,0-4.7-2.2-4.7-5c0-2.8,1.9-5,4.7-5
		c0.9,0,1.7,0.3,2.4,0.7v-5.4H58.4z M55.7,435.5c0-1.3-0.9-2.3-2.2-2.3c-1.2,0-2.2,1-2.2,2.3c0,1.2,0.9,2.2,2.2,2.2
		C54.8,437.7,55.7,436.7,55.7,435.5z"/>
	<path fill="#193062" d="M64.3,437.9c0.8,0,1.2-0.3,1.2-0.7c0-0.3-0.2-0.5-0.7-0.5s-1-0.1-1.7-0.2c-1.9-0.3-2.7-1.4-2.7-2.8
		c0-1.9,1.6-3.2,3.9-3.2c2.2,0,3.8,1.3,3.9,3.2h-2.7c0-0.4-0.5-0.7-1.2-0.7c-0.7,0-1.1,0.3-1.1,0.6c0,0.3,0.2,0.4,0.7,0.5
		c0.6,0.1,1,0.1,1.8,0.2c1.9,0.2,2.7,1.4,2.7,2.8c0,1.9-1.6,3.3-4,3.3c-2.3,0-4-1.4-4-3.3H63C63,437.6,63.5,437.9,64.3,437.9z"/>
	<path fill="#193062" d="M71.8,436L71.8,436c0-1.8,0.3-2.5,1.7-3.8c0.7-0.6,1.1-1.1,1.1-1.8c0-0.8-0.5-1.3-1.3-1.3
		c-0.8,0-1.3,0.5-1.3,1.3h-2.9c0-2.4,1.8-4.2,4.2-4.2c2.5,0,4.2,1.8,4.2,4.1c0,1.7-0.8,2.6-2,3.7c-0.8,0.8-1.1,1.2-1.1,1.9v0.1H71.8
		z M73.1,436.9c1,0,1.7,0.8,1.7,1.7c0,1-0.7,1.7-1.7,1.7s-1.7-0.8-1.7-1.7C71.4,437.6,72.1,436.9,73.1,436.9z"/>
	<path fill="#193062" d="M87.8,429.3h-3.9v-2.9h10.8v2.9h-3.9v10.9h-2.9V429.3z"/>
	<path fill="#193062" d="M100.7,430.7v2.8h-1.4c-1.1,0-1.8,0.8-1.8,1.9v4.9h-2.8v-9.5h2.7v0.9c0.5-0.7,1.4-0.9,2.2-0.9H100.7z"/>
	<path fill="#193062" d="M111,430.7v9.5h-2.7v-0.5c-0.6,0.5-1.4,0.7-2.3,0.7c-2.1,0-3.7-1.6-3.7-3.8v-6h2.8v5.4
		c0,0.9,0.6,1.6,1.6,1.6c1,0,1.6-0.7,1.6-1.6v-5.4H111z"/>
	<path fill="#193062" d="M116.9,437.9c0.8,0,1.2-0.3,1.2-0.7c0-0.3-0.2-0.5-0.7-0.5s-1-0.1-1.7-0.2c-1.9-0.3-2.7-1.4-2.7-2.8
		c0-1.9,1.5-3.2,3.9-3.2c2.2,0,3.8,1.3,3.9,3.2H118c0-0.4-0.5-0.7-1.2-0.7c-0.7,0-1.1,0.3-1.1,0.6c0,0.3,0.2,0.4,0.7,0.5
		c0.6,0.1,1,0.1,1.8,0.2c1.9,0.2,2.7,1.4,2.7,2.8c0,1.9-1.6,3.3-4,3.3c-2.3,0-4-1.4-4-3.3h2.7C115.6,437.6,116.1,437.9,116.9,437.9z
		"/>
	<path fill="#193062" d="M125.8,430.7h2.9v2.7h-2.9v3.2c0,0.6,0.4,1,1,1h1.9v2.7h-2.5c-1.9,0-3.3-1.2-3.3-3.2v-3.7h-1.4v-1.4
		l2.6-3.2h1.5V430.7z"/>
</g>
<g>
	<path fill="#193062" d="M19.5,455.3h-3.9v-2.9h10.8v2.9h-3.9v10.9h-2.9V455.3z"/>
	<path fill="#193062" d="M32.4,456.7v2.8H31c-1.1,0-1.8,0.8-1.8,1.9v4.9h-2.8v-9.5h2.7v0.9c0.5-0.7,1.4-0.9,2.2-0.9H32.4z"/>
	<path fill="#193062" d="M42.7,456.7v9.5H40v-0.5c-0.6,0.5-1.4,0.7-2.3,0.7c-2.1,0-3.7-1.6-3.7-3.8v-6h2.8v5.4
		c0,0.9,0.6,1.6,1.6,1.6c1,0,1.6-0.7,1.6-1.6v-5.4H42.7z"/>
	<path fill="#193062" d="M49.8,455c-1.2,0-2,0.6-2,1.5c0,0.5,0.3,0.9,0.9,1.1c0.9,0.3,2.2,0.2,3.5,0.5c1.8,0.5,2.9,1.9,2.9,3.8
		c0,2.6-2,4.6-5.1,4.6c-3,0-5.2-1.8-5.2-4.5h2.9c0,1,1,1.7,2.3,1.7c1.4,0,2.2-0.7,2.2-1.6c0-0.6-0.4-1-0.9-1.2
		c-0.9-0.3-2.3-0.2-3.5-0.5c-1.8-0.5-2.8-1.9-2.8-3.7c0-2.6,2-4.4,5-4.4c2.9,0,5,1.7,5,4.3H52C51.9,455.6,51.1,455,49.8,455z"/>
	<path fill="#193062" d="M60.2,456.7h2.9v2.7h-2.9v3.2c0,0.6,0.4,1,1,1h1.9v2.7h-2.5c-1.9,0-3.3-1.2-3.3-3.2v-3.7h-1.4v-1.4l2.6-3.2
		h1.5V456.7z"/>
	<path fill="#193062" d="M72.9,460.2v6h-2.7v-0.5c-0.6,0.5-1.3,0.7-2.3,0.7c-2,0-3.3-1.2-3.3-3c0-2,1.5-2.8,3.3-3l2.3-0.2v-0.1
		c0-0.6-0.6-1.1-1.4-1.1c-0.7,0-1.2,0.4-1.4,0.9h-2.7c0.1-2,1.8-3.4,4-3.4C71.3,456.5,72.9,458.1,72.9,460.2z M70.2,462.9v-0.6
		l-1.9,0.2c-0.7,0.1-1,0.4-1,0.9c0,0.5,0.4,0.9,1.2,0.9C69.6,464.2,70.2,463.7,70.2,462.9z"/>
	<path fill="#193062" d="M84.3,456.7v9.2c0,2.6-1.9,4.5-4.7,4.5c-2.2,0-3.9-1.2-4.4-3l2.6-1c0.3,0.8,0.9,1.3,1.9,1.3
		c1.2,0,1.9-0.7,1.9-1.9v-0.7c-0.6,0.5-1.4,0.7-2.3,0.7c-2.6,0-4.5-2.1-4.5-4.7s1.9-4.7,4.4-4.7c0.9,0,1.7,0.3,2.3,0.8v-0.6H84.3z
		 M81.6,461.2c0-1.1-0.9-2-2-2c-1.2,0-2,0.9-2,2c0,1.1,0.9,2,2,2C80.7,463.2,81.6,462.3,81.6,461.2z"/>
	<path fill="#193062" d="M95.6,462.4h-6.6c0.3,0.8,1.1,1.4,2.2,1.4c0.9,0,1.6-0.5,2-1.1l2.2,1.3c-0.8,1.4-2.4,2.3-4.3,2.3
		c-2.9,0-5-2.2-5-5c0-2.8,2-5,4.8-5c2.8,0,4.8,2.1,4.8,5C95.7,461.8,95.7,462.1,95.6,462.4z M88.9,460.4h4c-0.3-0.9-1-1.4-2-1.4
		C89.9,459,89.1,459.5,88.9,460.4z"/>
	<path fill="#193062" d="M98.4,454h-1.5v-1.5h4.6v1.5h-1.5v3.9h-1.6V454z M102.4,452.4h1.6l1.2,2.5l1.2-2.5h1.6v5.4h-1.6v-2.5
		l-1.2,2.6l-1.2-2.5v2.4h-1.5V452.4z"/>
</g>
</svg>
