<?xml version="1.0" encoding="utf-8"?>
<!-- Generator: Adobe Illustrator 27.4.0, SVG Export Plug-In . SVG Version: 6.00 Build 0)  -->
<svg version="1.1" baseProfile="tiny" id="Layer_1" xmlns="http://www.w3.org/2000/svg" xmlns:xlink="http://www.w3.org/1999/xlink"
	 x="0px" y="0px" viewBox="0 0 300 600" overflow="visible" xml:space="preserve">
<g>
	<path fill="#193062" d="M23.5,241.1h14.3v3.8H27.4v3.4h5.7v3.8h-5.7v7.3h-3.9V241.1z"/>
	<path fill="#193062" d="M42.1,240.5c1.3,0,2.3,1,2.3,2.3c0,1.3-1,2.3-2.3,2.3s-2.3-1-2.3-2.3C39.8,241.5,40.8,240.5,42.1,240.5z
		 M44,259.3h-3.7v-12.6H44V259.3z"/>
	<path fill="#193062" d="M58.9,251.5v7.9h-3.7v-7.1c0-1.2-0.8-2.1-2.1-2.1s-2.1,1-2.1,2.1v7.1h-3.7v-12.6h3.6v0.7
		c0.8-0.6,1.9-1,3.1-1C56.8,246.5,58.9,248.6,58.9,251.5z"/>
	<path fill="#193062" d="M74.3,240.3v19h-3.6v-0.8c-0.8,0.6-2,1-3.2,1c-3.6,0-6.2-2.9-6.2-6.5c0-3.7,2.6-6.6,6.2-6.6
		c1.2,0,2.3,0.4,3.1,1v-7.1H74.3z M70.8,253.1c0-1.7-1.2-3-2.9-3c-1.6,0-2.8,1.3-2.8,3c0,1.6,1.2,2.9,2.8,2.9
		C69.6,256,70.8,254.7,70.8,253.1z"/>
	<path fill="#193062" d="M85.1,241.1H89v14.4h10.4v3.8H85.1V241.1z"/>
	<path fill="#193062" d="M103.7,240.5c1.3,0,2.3,1,2.3,2.3c0,1.3-1,2.3-2.3,2.3s-2.3-1-2.3-2.3C101.4,241.5,102.4,240.5,103.7,240.5
		z M105.5,259.3h-3.7v-12.6h3.7V259.3z"/>
	<path fill="#193062" d="M110.1,250.3h-2.5v-3.5h2.5v-2.5c0-2.4,1.6-3.9,4-3.9h2.8v3.5h-2.1c-0.6,0-1,0.3-1,1v1.9h3.2v3.5h-3.2v9.1
		h-3.7V250.3z"/>
	<path fill="#193062" d="M130.6,254.4h-8.8c0.4,1.1,1.5,1.8,2.8,1.8c1.2,0,2.1-0.6,2.6-1.4l2.9,1.8c-1.1,1.9-3.1,3.1-5.6,3.1
		c-3.8,0-6.5-2.8-6.5-6.5c0-3.7,2.6-6.6,6.3-6.6c3.7,0,6.3,2.8,6.3,6.5C130.7,253.5,130.7,253.9,130.6,254.4z M121.7,251.7h5.3
		c-0.4-1.2-1.3-1.8-2.6-1.8C123,249.8,122,250.5,121.7,251.7z"/>
	<path fill="#193062" d="M140.6,241.1h3.9v18.2h-3.9V241.1z"/>
	<path fill="#193062" d="M159.7,251.5v7.9H156v-7.1c0-1.2-0.8-2.1-2.1-2.1c-1.3,0-2.1,1-2.1,2.1v7.1h-3.7v-12.6h3.6v0.7
		c0.8-0.6,1.9-1,3.1-1C157.6,246.5,159.7,248.6,159.7,251.5z"/>
	<path fill="#193062" d="M167.5,256.3c1,0,1.6-0.4,1.6-0.9c0-0.4-0.3-0.6-1-0.7c-0.6-0.1-1.3-0.1-2.3-0.2c-2.4-0.4-3.6-1.8-3.6-3.7
		c0-2.4,2-4.3,5.1-4.3c3,0,5.1,1.8,5.1,4.2h-3.6c0-0.6-0.6-0.9-1.5-0.9c-0.9,0-1.5,0.4-1.5,0.9c0,0.3,0.3,0.5,0.9,0.6
		c0.8,0.1,1.3,0.1,2.3,0.2c2.4,0.3,3.6,1.8,3.6,3.7c0,2.5-2.1,4.4-5.2,4.4c-3.1,0-5.3-1.8-5.3-4.3h3.6
		C165.7,255.9,166.4,256.3,167.5,256.3z"/>
	<path fill="#193062" d="M186.6,246.7v12.6H183v-0.7c-0.8,0.6-1.9,1-3,1c-2.8,0-4.9-2.1-4.9-5v-7.9h3.7v7.1c0,1.2,0.8,2.1,2.1,2.1
		c1.3,0,2.1-0.9,2.1-2.1v-7.1H186.6z"/>
	<path fill="#193062" d="M197.9,246.7v3.6H196c-1.4,0-2.4,1.1-2.4,2.5v6.4h-3.7v-12.6h3.6v1.1c0.7-0.9,1.8-1.1,2.9-1.1H197.9z"/>
	<path fill="#193062" d="M210.1,251.4v7.9h-3.6v-0.7c-0.8,0.7-1.7,0.9-3.1,0.9c-2.6,0-4.4-1.6-4.4-3.9c0-2.6,1.9-3.7,4.4-3.9
		l3.1-0.2v-0.1c0-0.8-0.8-1.5-1.8-1.5c-0.9,0-1.6,0.5-1.8,1.2h-3.5c0.2-2.6,2.3-4.5,5.3-4.5C207.9,246.5,210.1,248.6,210.1,251.4z
		 M206.5,254.9v-0.8l-2.5,0.2c-0.9,0.1-1.3,0.5-1.3,1.1c0,0.6,0.6,1.2,1.6,1.2C205.6,256.6,206.5,256,206.5,254.9z"/>
	<path fill="#193062" d="M225,251.5v7.9h-3.7v-7.1c0-1.2-0.8-2.1-2.1-2.1s-2.1,1-2.1,2.1v7.1h-3.7v-12.6h3.6v0.7
		c0.8-0.6,1.9-1,3.1-1C222.9,246.5,225,248.6,225,251.5z"/>
	<path fill="#193062" d="M233.9,246.5c2.4,0,4.4,1.1,5.5,2.9l-3,2.1c-0.5-0.8-1.4-1.4-2.5-1.4c-1.7,0-2.8,1.3-2.8,3
		c0,1.7,1.2,2.9,2.8,2.9c1.1,0,1.9-0.6,2.4-1.4l3,2.1c-1.1,1.8-3.1,2.9-5.5,2.9c-3.8,0-6.5-2.9-6.5-6.6
		C227.3,249.3,230.1,246.5,233.9,246.5z"/>
	<path fill="#193062" d="M253,254.4h-8.8c0.4,1.1,1.5,1.8,2.8,1.8c1.2,0,2.1-0.6,2.6-1.4l2.9,1.8c-1.1,1.9-3.1,3.1-5.6,3.1
		c-3.8,0-6.5-2.8-6.5-6.5c0-3.7,2.6-6.6,6.3-6.6c3.7,0,6.3,2.8,6.3,6.5C253.1,253.5,253.1,253.9,253,254.4z M244.1,251.7h5.3
		c-0.3-1.2-1.3-1.8-2.6-1.8C245.4,249.8,244.4,250.5,244.1,251.7z"/>
</g>
<g>
	<path fill="#193062" d="M24.5,289.4H22v-3.5h2.5v-2.5c0-2.4,1.6-3.9,4-3.9h2.8v3.5h-2.1c-0.6,0-1,0.3-1,1v1.9h3.2v3.5h-3.2v9.1
		h-3.7V289.4z"/>
	<path fill="#193062" d="M39.1,285.6c3.8,0,6.6,2.9,6.6,6.6c0,3.6-2.8,6.5-6.6,6.5c-3.8,0-6.6-2.9-6.6-6.5
		C32.5,288.4,35.3,285.6,39.1,285.6z M39.1,295.1c1.7,0,2.9-1.3,2.9-2.9c0-1.7-1.2-3-2.9-3c-1.7,0-2.9,1.3-2.9,3
		C36.2,293.8,37.4,295.1,39.1,295.1z"/>
	<path fill="#193062" d="M56.1,285.8v3.6h-1.9c-1.4,0-2.4,1.1-2.4,2.5v6.4h-3.7v-12.6h3.6v1.1c0.7-0.9,1.8-1.1,2.9-1.1H56.1z"/>
	<path fill="#193062" d="M75.8,285.8l-6.4,17.9h-3.9l2-5.6l-4.4-12.3h4l2.4,6.8l2.4-6.8H75.8z"/>
	<path fill="#193062" d="M83.1,285.6c3.8,0,6.6,2.9,6.6,6.6c0,3.6-2.8,6.5-6.6,6.5c-3.8,0-6.6-2.9-6.6-6.5
		C76.5,288.4,79.3,285.6,83.1,285.6z M83.1,295.1c1.7,0,2.9-1.3,2.9-2.9c0-1.7-1.2-3-2.9-3c-1.7,0-2.9,1.3-2.9,3
		C80.2,293.8,81.4,295.1,83.1,295.1z"/>
	<path fill="#193062" d="M103.6,285.8v12.6H100v-0.7c-0.8,0.6-1.9,1-3,1c-2.8,0-4.9-2.1-4.9-5v-7.9h3.7v7.1c0,1.2,0.8,2.1,2.1,2.1
		c1.3,0,2.1-0.9,2.1-2.1v-7.1H103.6z"/>
	<path fill="#193062" d="M114.9,285.8v3.6H113c-1.4,0-2.4,1.1-2.4,2.5v6.4h-3.7v-12.6h3.6v1.1c0.7-0.9,1.8-1.1,2.9-1.1H114.9z"/>
	<path fill="#193062" d="M125.5,289.4H123v-3.5h2.5v-2.5c0-2.4,1.6-3.9,4-3.9h2.8v3.5h-2.1c-0.6,0-1,0.3-1,1v1.9h3.2v3.5h-3.2v9.1
		h-3.7V289.4z"/>
	<path fill="#193062" d="M144.6,290.5v7.9H141v-0.7c-0.8,0.7-1.7,0.9-3.1,0.9c-2.6,0-4.4-1.6-4.4-3.9c0-2.6,1.9-3.7,4.4-3.9l3.1-0.2
		v-0.1c0-0.8-0.8-1.5-1.8-1.5c-0.9,0-1.6,0.5-1.8,1.2h-3.5c0.2-2.6,2.3-4.5,5.3-4.5C142.4,285.6,144.6,287.7,144.6,290.5z M141,294
		v-0.8l-2.5,0.2c-0.9,0.1-1.3,0.5-1.3,1.1c0,0.6,0.6,1.2,1.6,1.2C140.1,295.7,141,295.1,141,294z"/>
	<path fill="#193062" d="M166.2,290.2v8.2h-3.7V291c0-1-0.7-1.8-1.8-1.8c-1.1,0-1.8,0.9-1.8,1.8v7.4h-3.7V291c0-1-0.7-1.8-1.8-1.8
		c-1.1,0-1.8,0.9-1.8,1.8v7.4h-3.7v-12.6h3.6v0.6c0.8-0.5,1.7-0.9,2.8-0.9c1.3,0,2.5,0.5,3.3,1.3c0.9-0.8,2.1-1.3,3.5-1.3
		C164.1,285.6,166.2,287.5,166.2,290.2z"/>
	<path fill="#193062" d="M171.3,279.6c1.3,0,2.3,1,2.3,2.3c0,1.3-1,2.3-2.3,2.3c-1.3,0-2.3-1-2.3-2.3
		C169,280.6,170,279.6,171.3,279.6z M173.1,298.4h-3.7v-12.6h3.7V298.4z"/>
	<path fill="#193062" d="M176.5,279.4h3.7v19h-3.7V279.4z"/>
	<path fill="#193062" d="M194.7,285.8l-6.4,17.9h-3.9l2-5.6l-4.4-12.3h4l2.4,6.8l2.4-6.8H194.7z"/>
	<path fill="#193062" d="M220.5,285.8l-4.1,12.6h-3.8l-1.6-5.3l-1.6,5.3h-3.8l-4.2-12.6h4l2.2,7.1l2.2-7.1h2.4l2.1,6.9l2.3-6.9
		H220.5z"/>
	<path fill="#193062" d="M224.2,279.6c1.3,0,2.3,1,2.3,2.3c0,1.3-1,2.3-2.3,2.3c-1.3,0-2.3-1-2.3-2.3
		C221.9,280.6,222.9,279.6,224.2,279.6z M226.1,298.4h-3.7v-12.6h3.7V298.4z"/>
	<path fill="#193062" d="M233.5,285.8h3.9v3.5h-3.9v4.2c0,0.8,0.5,1.4,1.4,1.4h2.5v3.5h-3.2c-2.5,0-4.3-1.6-4.3-4.2v-4.9H228v-1.9
		l3.5-4.3h2V285.8z"/>
	<path fill="#193062" d="M251.6,290.6v7.8h-3.7v-7.1c0-1.2-0.8-2.2-2.1-2.2c-1.3,0-2.2,1-2.2,2.2v7.1h-3.7v-19h3.7v7.1
		c0.8-0.6,1.8-1,3-1C249.5,285.6,251.6,287.7,251.6,290.6z"/>
</g>
<g>
	<path fill="#193062" d="M29,324.7c2.4,0,4.4,1.2,5.5,2.9l-3,2.1c-0.5-0.8-1.4-1.4-2.5-1.4c-1.6,0-2.8,1.3-2.8,3
		c0,1.7,1.2,2.9,2.8,2.9c1.1,0,1.9-0.6,2.4-1.4l3,2.1c-1.1,1.8-3.1,3-5.5,3c-3.8,0-6.5-2.9-6.5-6.6S25.2,324.7,29,324.7z"/>
	<path fill="#193062" d="M36.4,318.5h3.7v19h-3.7V318.5z"/>
	<path fill="#193062" d="M55,332.6h-8.8c0.4,1.1,1.5,1.8,2.8,1.8c1.2,0,2.1-0.6,2.6-1.4l2.9,1.8c-1.1,1.9-3.1,3.1-5.6,3.1
		c-3.8,0-6.5-2.8-6.5-6.5c0-3.7,2.6-6.6,6.3-6.6c3.7,0,6.3,2.8,6.3,6.5C55.2,331.7,55.1,332.1,55,332.6z M46.2,329.9h5.3
		c-0.4-1.2-1.3-1.8-2.6-1.8C47.5,328,46.5,328.7,46.2,329.9z"/>
	<path fill="#193062" d="M68.1,329.6v7.9h-3.6v-0.7c-0.8,0.7-1.7,1-3.1,1c-2.6,0-4.4-1.6-4.4-3.9c0-2.6,1.9-3.7,4.4-3.9l3.1-0.2
		v-0.2c0-0.8-0.8-1.5-1.8-1.5c-0.9,0-1.6,0.5-1.8,1.2h-3.5c0.2-2.6,2.3-4.5,5.3-4.5C65.9,324.7,68.1,326.8,68.1,329.6z M64.5,333.1
		v-0.8l-2.5,0.2c-0.9,0.1-1.3,0.5-1.3,1.1c0,0.6,0.6,1.2,1.6,1.2C63.6,334.8,64.5,334.2,64.5,333.1z"/>
	<path fill="#193062" d="M79.3,324.9v3.6h-1.9c-1.4,0-2.4,1.1-2.4,2.5v6.4h-3.7v-12.6h3.6v1.1c0.7-0.9,1.8-1.1,2.9-1.1H79.3z"/>
	<path fill="#193062" d="M90.5,318.7c1.3,0,2.3,1,2.3,2.3c0,1.3-1,2.3-2.3,2.3s-2.3-1-2.3-2.3C88.2,319.7,89.2,318.7,90.5,318.7z
		 M92.3,337.5h-3.7v-12.6h3.7V337.5z"/>
	<path fill="#193062" d="M107.3,329.7v7.9h-3.7v-7.1c0-1.2-0.8-2.1-2.1-2.1s-2.1,0.9-2.1,2.1v7.1h-3.7v-12.6h3.6v0.7
		c0.8-0.6,1.9-1,3.1-1C105.2,324.7,107.3,326.8,107.3,329.7z"/>
	<path fill="#193062" d="M111.6,328.5h-2.5v-3.5h2.5v-2.5c0-2.4,1.6-3.9,4-3.9h2.8v3.5h-2.1c-0.6,0-1,0.4-1,1v1.9h3.2v3.5h-3.2v9.1
		h-3.7V328.5z"/>
	<path fill="#193062" d="M126.2,324.7c3.8,0,6.6,2.9,6.6,6.6c0,3.6-2.8,6.5-6.6,6.5c-3.8,0-6.6-3-6.6-6.5
		C119.6,327.5,122.4,324.7,126.2,324.7z M126.2,334.2c1.7,0,2.9-1.3,2.9-2.9c0-1.7-1.2-3-2.9-3c-1.7,0-2.9,1.3-2.9,3
		C123.3,332.9,124.5,334.2,126.2,334.2z"/>
	<path fill="#193062" d="M143.2,324.9v3.6h-1.9c-1.4,0-2.4,1.1-2.4,2.5v6.4h-3.7v-12.6h3.6v1.1c0.7-0.9,1.8-1.1,2.9-1.1H143.2z"/>
	<path fill="#193062" d="M163.7,329.3v8.2H160v-7.4c0-1-0.7-1.8-1.8-1.8c-1.1,0-1.8,0.8-1.8,1.8v7.4h-3.7v-7.4c0-1-0.7-1.8-1.8-1.8
		c-1.1,0-1.8,0.8-1.8,1.8v7.4h-3.7v-12.6h3.6v0.6c0.7-0.5,1.7-0.9,2.8-0.9c1.3,0,2.5,0.5,3.3,1.3c0.9-0.8,2.1-1.3,3.5-1.3
		C161.5,324.7,163.7,326.6,163.7,329.3z"/>
	<path fill="#193062" d="M177.3,329.6v7.9h-3.6v-0.7c-0.8,0.7-1.7,1-3.1,1c-2.6,0-4.4-1.6-4.4-3.9c0-2.6,1.9-3.7,4.4-3.9l3.1-0.2
		v-0.2c0-0.8-0.8-1.5-1.8-1.5c-0.9,0-1.6,0.5-1.8,1.2h-3.5c0.2-2.6,2.3-4.5,5.3-4.5C175.1,324.7,177.3,326.8,177.3,329.6z
		 M173.7,333.1v-0.8l-2.5,0.2c-0.9,0.1-1.3,0.5-1.3,1.1c0,0.6,0.6,1.2,1.6,1.2C172.9,334.8,173.7,334.2,173.7,333.1z"/>
	<path fill="#193062" d="M184.6,324.9h3.9v3.5h-3.9v4.2c0,0.8,0.5,1.3,1.4,1.3h2.5v3.5h-3.2c-2.5,0-4.3-1.6-4.3-4.2v-4.9h-1.8v-1.9
		l3.5-4.3h2V324.9z"/>
	<path fill="#193062" d="M192.8,318.7c1.3,0,2.3,1,2.3,2.3c0,1.3-1,2.3-2.3,2.3c-1.3,0-2.3-1-2.3-2.3
		C190.5,319.7,191.5,318.7,192.8,318.7z M194.7,337.5H191v-12.6h3.7V337.5z"/>
	<path fill="#193062" d="M203.7,324.7c3.8,0,6.6,2.9,6.6,6.6c0,3.6-2.8,6.5-6.6,6.5s-6.6-3-6.6-6.5
		C197.1,327.5,199.9,324.7,203.7,324.7z M203.7,334.2c1.7,0,2.9-1.3,2.9-2.9c0-1.7-1.2-3-2.9-3s-2.9,1.3-2.9,3
		C200.8,332.9,202,334.2,203.7,334.2z"/>
	<path fill="#193062" d="M224.4,329.7v7.9h-3.7v-7.1c0-1.2-0.8-2.1-2.1-2.1s-2.1,0.9-2.1,2.1v7.1h-3.7v-12.6h3.6v0.7
		c0.8-0.6,1.9-1,3.1-1C222.3,324.7,224.4,326.8,224.4,329.7z"/>
</g>
<g>
	<path fill="#193062" d="M24.5,367.6H22V364h2.5v-2.5c0-2.4,1.6-3.9,4-3.9h2.8v3.5h-2.1c-0.6,0-1,0.4-1,1v1.9h3.2v3.5h-3.2v9.1h-3.7
		V367.6z"/>
	<path fill="#193062" d="M41.7,364v3.6h-1.9c-1.4,0-2.4,1.1-2.4,2.5v6.4h-3.7V364h3.6v1.1c0.7-0.9,1.8-1.1,2.9-1.1H41.7z"/>
	<path fill="#193062" d="M49.5,363.8c3.8,0,6.6,2.9,6.6,6.6c0,3.6-2.8,6.5-6.6,6.5c-3.8,0-6.6-3-6.6-6.5
		C42.9,366.6,45.7,363.8,49.5,363.8z M49.5,373.3c1.7,0,2.9-1.3,2.9-2.9c0-1.7-1.2-3-2.9-3c-1.7,0-2.9,1.3-2.9,3
		C46.6,372,47.8,373.3,49.5,373.3z"/>
	<path fill="#193062" d="M76.9,368.4v8.2h-3.7v-7.4c0-1-0.7-1.8-1.8-1.8c-1.1,0-1.8,0.8-1.8,1.8v7.4h-3.7v-7.4c0-1-0.7-1.8-1.8-1.8
		c-1.1,0-1.8,0.8-1.8,1.8v7.4h-3.7V364h3.6v0.6c0.7-0.5,1.7-0.9,2.8-0.9c1.3,0,2.5,0.5,3.3,1.3c0.9-0.8,2.1-1.3,3.5-1.3
		C74.7,363.8,76.9,365.7,76.9,368.4z"/>
	<path fill="#193062" d="M91.5,364h3.9v3.5h-3.9v4.2c0,0.8,0.5,1.3,1.4,1.3h2.5v3.5h-3.2c-2.5,0-4.3-1.6-4.3-4.2v-4.9H86v-1.9
		l3.5-4.3h2V364z"/>
	<path fill="#193062" d="M109.5,368.8v7.8h-3.7v-7.1c0-1.2-0.8-2.2-2.1-2.2c-1.3,0-2.2,0.9-2.2,2.2v7.1h-3.7v-19h3.7v7.1
		c0.8-0.6,1.8-1,3-1C107.4,363.8,109.5,365.9,109.5,368.8z"/>
	<path fill="#193062" d="M124.4,371.7h-8.8c0.4,1.1,1.5,1.8,2.8,1.8c1.2,0,2.1-0.6,2.6-1.4l2.9,1.8c-1.1,1.9-3.1,3.1-5.6,3.1
		c-3.8,0-6.5-2.8-6.5-6.5c0-3.7,2.6-6.6,6.3-6.6c3.7,0,6.3,2.8,6.3,6.5C124.6,370.8,124.5,371.2,124.4,371.7z M115.6,369h5.3
		c-0.4-1.2-1.3-1.8-2.6-1.8C116.9,367.1,115.9,367.8,115.6,369z"/>
	<path fill="#193062" d="M138.7,373.6c1,0,1.6-0.4,1.6-0.9c0-0.4-0.3-0.6-0.9-0.7c-0.6-0.1-1.3-0.1-2.3-0.2
		c-2.4-0.4-3.6-1.8-3.6-3.7c0-2.4,2-4.3,5.1-4.3c3,0,5.1,1.8,5.1,4.2h-3.6c0-0.6-0.6-0.9-1.5-0.9c-0.9,0-1.5,0.4-1.5,0.8
		c0,0.4,0.3,0.5,0.9,0.6c0.8,0.1,1.3,0.1,2.3,0.2c2.4,0.3,3.6,1.8,3.6,3.7c0,2.5-2.1,4.4-5.2,4.4c-3.1,0-5.3-1.8-5.3-4.3h3.6
		C137,373.2,137.7,373.6,138.7,373.6z"/>
	<path fill="#193062" d="M150.5,364h3.9v3.5h-3.9v4.2c0,0.8,0.5,1.3,1.4,1.3h2.5v3.5h-3.2c-2.5,0-4.3-1.6-4.3-4.2v-4.9H145v-1.9
		l3.5-4.3h2V364z"/>
	<path fill="#193062" d="M167.3,368.7v7.9h-3.6V376c-0.8,0.7-1.7,1-3.1,1c-2.6,0-4.4-1.6-4.4-3.9c0-2.6,1.9-3.7,4.4-3.9l3.1-0.2
		v-0.2c0-0.8-0.8-1.5-1.8-1.5c-0.9,0-1.6,0.5-1.8,1.2h-3.5c0.2-2.6,2.3-4.5,5.3-4.5C165.1,363.8,167.3,365.9,167.3,368.7z
		 M163.7,372.2v-0.8l-2.5,0.2c-0.9,0.1-1.3,0.5-1.3,1.1c0,0.6,0.6,1.2,1.6,1.2C162.8,373.9,163.7,373.3,163.7,372.2z"/>
	<path fill="#193062" d="M178.5,364v3.6h-1.9c-1.4,0-2.4,1.1-2.4,2.5v6.4h-3.7V364h3.6v1.1c0.7-0.9,1.8-1.1,2.9-1.1H178.5z"/>
	<path fill="#193062" d="M185.1,364h3.9v3.5h-3.9v4.2c0,0.8,0.5,1.3,1.4,1.3h2.5v3.5h-3.2c-2.5,0-4.3-1.6-4.3-4.2v-4.9h-1.8v-1.9
		l3.5-4.3h2V364z"/>
	<path fill="#193062" d="M193.5,372.2c1.3,0,2.3,1,2.3,2.3c0,1.3-1,2.3-2.3,2.3c-1.3,0-2.3-1-2.3-2.3
		C191.2,373.2,192.1,372.2,193.5,372.2z"/>
</g>
</svg>
