<?xml version="1.0" encoding="utf-8"?>
<!-- Generator: Adobe Illustrator 27.4.0, SVG Export Plug-In . SVG Version: 6.00 Build 0)  -->
<svg version="1.1" baseProfile="tiny" id="Layer_1" xmlns="http://www.w3.org/2000/svg" xmlns:xlink="http://www.w3.org/1999/xlink"
	 x="0px" y="0px" viewBox="0 0 728 90" overflow="visible" xml:space="preserve">
<g>
	<path fill="#193062" d="M224.3,15.1c-1.3,0-2.1,0.7-2.1,1.5c0,0.6,0.4,0.9,0.9,1.1c0.9,0.3,2.3,0.2,3.7,0.6c1.9,0.6,3.1,2,3.1,4
		c0,2.8-2.2,4.8-5.4,4.8c-3.1,0-5.5-1.9-5.5-4.7h3.1c0,1.1,1,1.8,2.4,1.8c1.5,0,2.3-0.7,2.3-1.7c0-0.7-0.4-1.1-0.9-1.2
		c-0.9-0.3-2.4-0.2-3.7-0.6c-1.9-0.5-3-2-3-3.9c0-2.7,2.1-4.7,5.2-4.7c3.1,0,5.3,1.8,5.3,4.5h-3.1C226.5,15.7,225.6,15.1,224.3,15.1
		z"/>
	<path fill="#193062" d="M235.3,16.9h3.1v2.8h-3.1v3.4c0,0.7,0.4,1.1,1.1,1.1h2V27h-2.6c-2,0-3.4-1.3-3.4-3.4v-3.9h-1.5v-1.5
		l2.8-3.4h1.6V16.9z"/>
	<path fill="#193062" d="M241.9,11.9c1.1,0,1.8,0.8,1.8,1.8c0,1-0.8,1.8-1.8,1.8c-1.1,0-1.8-0.8-1.8-1.8
		C240.1,12.7,240.9,11.9,241.9,11.9z M243.4,27h-3V16.9h3V27z"/>
	<path fill="#193062" d="M246,11.7h3V27h-3V11.7z"/>
	<path fill="#193062" d="M251.6,11.7h3V27h-3V11.7z"/>
	<path fill="#193062" d="M266.6,24.5c0.8,0,1.3-0.3,1.3-0.7c0-0.3-0.3-0.5-0.8-0.5c-0.5-0.1-1.1-0.1-1.8-0.2c-2-0.3-2.9-1.5-2.9-3
		c0-2,1.6-3.4,4.1-3.4c2.4,0,4.1,1.4,4.1,3.4h-2.9c0-0.5-0.5-0.7-1.2-0.7c-0.7,0-1.2,0.3-1.2,0.7c0,0.3,0.2,0.4,0.7,0.5
		c0.6,0.1,1.1,0.1,1.9,0.2c2,0.2,2.9,1.5,2.9,3c0,2-1.7,3.5-4.2,3.5c-2.5,0-4.2-1.4-4.2-3.5h2.9C265.2,24.2,265.8,24.5,266.6,24.5z"
		/>
	<path fill="#193062" d="M282,23h-7c0.3,0.9,1.2,1.5,2.3,1.5c1,0,1.7-0.5,2.1-1.2l2.4,1.4c-0.9,1.5-2.5,2.5-4.5,2.5
		c-3,0-5.2-2.3-5.2-5.2c0-3,2.1-5.3,5.1-5.3c3,0,5.1,2.2,5.1,5.2C282.2,22.3,282.1,22.6,282,23z M275,20.8h4.3
		c-0.3-1-1.1-1.5-2.1-1.5C276,19.4,275.2,19.9,275,20.8z"/>
	<path fill="#193062" d="M292.5,20.6V27h-2.9v-0.5c-0.6,0.5-1.4,0.8-2.5,0.8c-2.1,0-3.5-1.3-3.5-3.2c0-2.1,1.6-3,3.5-3.1l2.5-0.2
		v-0.1c0-0.7-0.7-1.2-1.5-1.2c-0.7,0-1.3,0.4-1.5,0.9h-2.8c0.1-2.1,1.9-3.6,4.3-3.6C290.7,16.7,292.5,18.3,292.5,20.6z M289.6,23.4
		v-0.6l-2,0.2c-0.7,0.1-1.1,0.4-1.1,0.9c0,0.5,0.5,0.9,1.3,0.9C288.9,24.8,289.6,24.3,289.6,23.4z"/>
	<path fill="#193062" d="M301.4,16.9v2.9h-1.5c-1.1,0-1.9,0.9-1.9,2V27h-3V16.9h2.9v0.9c0.6-0.7,1.5-0.9,2.3-0.9H301.4z"/>
	<path fill="#193062" d="M307.6,16.7c1.9,0,3.5,0.9,4.4,2.4l-2.4,1.7c-0.4-0.7-1.1-1.2-2-1.2c-1.3,0-2.3,1-2.3,2.4s1,2.4,2.3,2.4
		c0.9,0,1.5-0.5,2-1.1l2.4,1.7c-0.9,1.4-2.5,2.4-4.4,2.4c-3,0-5.2-2.3-5.2-5.3C302.4,19,304.6,16.7,307.6,16.7z"/>
	<path fill="#193062" d="M322.9,20.7V27h-3v-5.7c0-1-0.6-1.7-1.7-1.7c-1.1,0-1.7,0.8-1.7,1.7V27h-3V11.7h3v5.7
		c0.7-0.5,1.5-0.8,2.4-0.8C321.2,16.7,322.9,18.4,322.9,20.7z"/>
	<path fill="#193062" d="M327,11.9c1.1,0,1.8,0.8,1.8,1.8c0,1-0.8,1.8-1.8,1.8c-1.1,0-1.8-0.8-1.8-1.8
		C325.1,12.7,325.9,11.9,327,11.9z M328.4,27h-3V16.9h3V27z"/>
	<path fill="#193062" d="M340.4,20.7V27h-3v-5.7c0-1-0.6-1.7-1.7-1.7c-1,0-1.7,0.8-1.7,1.7V27h-3V16.9h2.9v0.6
		c0.7-0.5,1.5-0.8,2.5-0.8C338.7,16.7,340.4,18.4,340.4,20.7z"/>
	<path fill="#193062" d="M352.4,16.9v9.8c0,2.7-2,4.8-5,4.8c-2.3,0-4.1-1.3-4.7-3.2l2.7-1c0.3,0.9,1,1.4,2,1.4c1.2,0,2.1-0.8,2.1-2
		v-0.7c-0.6,0.5-1.5,0.7-2.4,0.7c-2.7,0-4.7-2.2-4.7-5c0-2.8,2-5,4.7-5c1,0,1.8,0.3,2.5,0.8v-0.6H352.4z M349.5,21.7
		c0-1.2-0.9-2.1-2.1-2.1c-1.2,0-2.1,0.9-2.1,2.1c0,1.1,0.9,2.1,2.1,2.1C348.6,23.8,349.5,22.8,349.5,21.7z"/>
	<path fill="#193062" d="M361.8,19.7h-2v-2.8h2v-2c0-1.9,1.3-3.1,3.2-3.1h2.3v2.8h-1.7c-0.5,0-0.8,0.3-0.8,0.8v1.5h2.5v2.8h-2.5V27
		h-3V19.7z"/>
	<path fill="#193062" d="M373.4,16.7c3,0,5.3,2.3,5.3,5.3c0,2.9-2.2,5.2-5.3,5.2s-5.3-2.4-5.3-5.2C368.2,19,370.4,16.7,373.4,16.7z
		 M373.4,24.3c1.3,0,2.3-1,2.3-2.3c0-1.3-1-2.4-2.3-2.4c-1.3,0-2.3,1-2.3,2.4C371.1,23.2,372.1,24.3,373.4,24.3z"/>
	<path fill="#193062" d="M387,16.9v2.9h-1.5c-1.1,0-1.9,0.9-1.9,2V27h-3V16.9h2.9v0.9c0.6-0.7,1.5-0.9,2.3-0.9H387z"/>
	<path fill="#193062" d="M394.7,12.4h3.1v11.6h8.3v3h-11.4V12.4z"/>
	<path fill="#193062" d="M409.6,11.9c1.1,0,1.8,0.8,1.8,1.8c0,1-0.8,1.8-1.8,1.8c-1.1,0-1.8-0.8-1.8-1.8
		C407.7,12.7,408.5,11.9,409.6,11.9z M411,27h-3V16.9h3V27z"/>
	<path fill="#193062" d="M414.7,19.7h-2v-2.8h2v-2c0-1.9,1.3-3.1,3.2-3.1h2.3v2.8h-1.7c-0.5,0-0.8,0.3-0.8,0.8v1.5h2.5v2.8h-2.5V27
		h-3V19.7z"/>
	<path fill="#193062" d="M431.1,23h-7c0.3,0.9,1.2,1.5,2.3,1.5c1,0,1.7-0.5,2.1-1.2l2.4,1.4c-0.9,1.5-2.5,2.5-4.5,2.5
		c-3,0-5.2-2.3-5.2-5.2c0-3,2.1-5.3,5.1-5.3c3,0,5.1,2.2,5.1,5.2C431.2,22.3,431.1,22.6,431.1,23z M424,20.8h4.3
		c-0.3-1-1.1-1.5-2.1-1.5C425,19.4,424.2,19.9,424,20.8z"/>
	<path fill="#193062" d="M439.1,12.4h3.1V27h-3.1V12.4z"/>
	<path fill="#193062" d="M454.4,20.7V27h-3v-5.7c0-1-0.6-1.7-1.7-1.7s-1.7,0.8-1.7,1.7V27h-3V16.9h2.9v0.6c0.7-0.5,1.5-0.8,2.5-0.8
		C452.7,16.7,454.4,18.4,454.4,20.7z"/>
	<path fill="#193062" d="M460.6,24.5c0.8,0,1.3-0.3,1.3-0.7c0-0.3-0.3-0.5-0.8-0.5s-1.1-0.1-1.8-0.2c-2-0.3-2.9-1.5-2.9-3
		c0-2,1.6-3.4,4.1-3.4c2.4,0,4.1,1.4,4.1,3.4h-2.9c0-0.5-0.5-0.7-1.2-0.7c-0.7,0-1.2,0.3-1.2,0.7c0,0.3,0.2,0.4,0.7,0.5
		c0.6,0.1,1.1,0.1,1.9,0.2c2,0.2,2.9,1.5,2.9,3c0,2-1.7,3.5-4.2,3.5c-2.5,0-4.2-1.4-4.2-3.5h2.9C459.2,24.2,459.7,24.5,460.6,24.5z"
		/>
	<path fill="#193062" d="M475.9,16.9V27H473v-0.6c-0.7,0.5-1.5,0.8-2.4,0.8c-2.3,0-3.9-1.7-3.9-4v-6.3h3v5.7c0,0.9,0.6,1.7,1.7,1.7
		c1,0,1.7-0.8,1.7-1.7v-5.7H475.9z"/>
	<path fill="#193062" d="M484.9,16.9v2.9h-1.5c-1.1,0-1.9,0.9-1.9,2V27h-3V16.9h2.9v0.9c0.6-0.7,1.5-0.9,2.3-0.9H484.9z"/>
	<path fill="#193062" d="M494.7,20.6V27h-2.9v-0.5c-0.6,0.5-1.4,0.8-2.5,0.8c-2.1,0-3.5-1.3-3.5-3.2c0-2.1,1.6-3,3.5-3.1l2.5-0.2
		v-0.1c0-0.7-0.7-1.2-1.5-1.2c-0.7,0-1.3,0.4-1.5,0.9H486c0.1-2.1,1.9-3.6,4.3-3.6C492.9,16.7,494.7,18.3,494.7,20.6z M491.8,23.4
		v-0.6l-2,0.2c-0.7,0.1-1.1,0.4-1.1,0.9c0,0.5,0.5,0.9,1.3,0.9C491.1,24.8,491.8,24.3,491.8,23.4z"/>
	<path fill="#193062" d="M506.6,20.7V27h-3v-5.7c0-1-0.6-1.7-1.7-1.7c-1,0-1.7,0.8-1.7,1.7V27h-3V16.9h2.9v0.6
		c0.7-0.5,1.5-0.8,2.5-0.8C504.9,16.7,506.6,18.4,506.6,20.7z"/>
	<path fill="#193062" d="M513.7,16.7c1.9,0,3.5,0.9,4.4,2.4l-2.4,1.7c-0.4-0.7-1.1-1.2-2-1.2c-1.3,0-2.3,1-2.3,2.4s1,2.4,2.3,2.4
		c0.9,0,1.5-0.5,2-1.1l2.4,1.7c-0.9,1.4-2.5,2.4-4.4,2.4c-3,0-5.2-2.3-5.2-5.3C508.5,19,510.7,16.7,513.7,16.7z"/>
	<path fill="#193062" d="M529,23h-7c0.3,0.9,1.2,1.5,2.3,1.5c1,0,1.7-0.5,2.1-1.2l2.4,1.4c-0.9,1.5-2.5,2.5-4.5,2.5
		c-3,0-5.2-2.3-5.2-5.2c0-3,2.1-5.3,5.1-5.3c3,0,5.1,2.2,5.1,5.2C529.1,22.3,529,22.6,529,23z M521.9,20.8h4.3
		c-0.3-1-1.1-1.5-2.1-1.5C522.9,19.4,522.1,19.9,521.9,20.8z"/>
</g>
<g>
	<path fill="#193062" d="M222.8,40.9h3.1v2.8h-3.1v3.4c0,0.7,0.4,1.1,1.1,1.1h2V51h-2.6c-2,0-3.4-1.3-3.4-3.4v-3.9h-1.5v-1.5
		l2.8-3.4h1.6V40.9z"/>
	<path fill="#193062" d="M237.2,44.7V51h-3v-5.7c0-1-0.6-1.7-1.7-1.7c-1.1,0-1.7,0.8-1.7,1.7V51h-3V35.7h3v5.7
		c0.7-0.5,1.5-0.8,2.4-0.8C235.5,40.7,237.2,42.4,237.2,44.7z"/>
	<path fill="#193062" d="M248.1,44.6V51h-2.9v-0.5c-0.6,0.5-1.4,0.8-2.5,0.8c-2.1,0-3.5-1.3-3.5-3.2c0-2.1,1.6-3,3.5-3.1l2.5-0.2
		v-0.1c0-0.7-0.7-1.2-1.5-1.2c-0.7,0-1.3,0.4-1.5,0.9h-2.8c0.1-2.1,1.9-3.6,4.3-3.6C246.4,40.7,248.1,42.3,248.1,44.6z M245.2,47.4
		v-0.6l-2,0.2c-0.7,0.1-1.1,0.4-1.1,0.9c0,0.5,0.5,0.9,1.3,0.9C244.6,48.8,245.2,48.3,245.2,47.4z"/>
	<path fill="#193062" d="M254,40.9h3.1v2.8H254v3.4c0,0.7,0.4,1.1,1.1,1.1h2V51h-2.6c-2,0-3.4-1.3-3.4-3.4v-3.9h-1.5v-1.5l2.8-3.4
		h1.6V40.9z"/>
	<path fill="#193062" d="M265.8,43.7h-2v-2.8h2v-2c0-1.9,1.3-3.1,3.2-3.1h2.3v2.8h-1.7c-0.5,0-0.8,0.3-0.8,0.8v1.5h2.5v2.8h-2.5V51
		h-3V43.7z M274.6,35.9c1.1,0,1.8,0.8,1.8,1.8c0,1-0.8,1.8-1.8,1.8c-1.1,0-1.8-0.8-1.8-1.8C272.8,36.7,273.6,35.9,274.6,35.9z
		 M276.1,51h-3V40.9h3V51z"/>
	<path fill="#193062" d="M282.1,40.9h3.1v2.8h-3.1v3.4c0,0.7,0.4,1.1,1.1,1.1h2V51h-2.6c-2,0-3.4-1.3-3.4-3.4v-3.9h-1.5v-1.5
		l2.8-3.4h1.6V40.9z"/>
	<path fill="#193062" d="M290.8,48.5c0.8,0,1.3-0.3,1.3-0.7c0-0.3-0.3-0.5-0.8-0.5c-0.5-0.1-1.1-0.1-1.8-0.2c-2-0.3-2.9-1.5-2.9-3
		c0-2,1.6-3.4,4.1-3.4c2.4,0,4.1,1.4,4.1,3.4h-2.9c0-0.5-0.5-0.7-1.2-0.7c-0.7,0-1.2,0.3-1.2,0.7c0,0.3,0.2,0.4,0.7,0.5
		c0.6,0.1,1.1,0.1,1.9,0.2c2,0.2,2.9,1.5,2.9,3c0,2-1.7,3.5-4.2,3.5c-2.5,0-4.2-1.4-4.2-3.5h2.9C289.4,48.2,289.9,48.5,290.8,48.5z"
		/>
	<path fill="#193062" d="M310.9,40.9l-5.2,14.3h-3.1l1.6-4.5l-3.6-9.9h3.2l1.9,5.5l2-5.5H310.9z"/>
	<path fill="#193062" d="M316.7,40.7c3,0,5.3,2.3,5.3,5.3c0,2.9-2.2,5.2-5.3,5.2s-5.3-2.4-5.3-5.2C311.5,43,313.7,40.7,316.7,40.7z
		 M316.7,48.3c1.3,0,2.3-1,2.3-2.3c0-1.3-1-2.4-2.3-2.4s-2.3,1-2.3,2.4C314.4,47.2,315.4,48.3,316.7,48.3z"/>
	<path fill="#193062" d="M333.2,40.9V51h-2.9v-0.6c-0.7,0.5-1.5,0.8-2.4,0.8c-2.3,0-3.9-1.7-3.9-4v-6.3h3v5.7c0,0.9,0.6,1.7,1.7,1.7
		c1,0,1.7-0.8,1.7-1.7v-5.7H333.2z"/>
	<path fill="#193062" d="M342.2,40.9v2.9h-1.5c-1.1,0-1.9,0.9-1.9,2V51h-3V40.9h2.9v0.9c0.6-0.7,1.5-0.9,2.3-0.9H342.2z"/>
	<path fill="#193062" d="M350.6,43.7h-2v-2.8h2v-2c0-1.9,1.3-3.1,3.2-3.1h2.3v2.8h-1.7c-0.5,0-0.8,0.3-0.8,0.8v1.5h2.5v2.8h-2.5V51
		h-3V43.7z"/>
	<path fill="#193062" d="M366,44.6V51h-2.9v-0.5c-0.6,0.5-1.4,0.8-2.5,0.8c-2.1,0-3.5-1.3-3.5-3.2c0-2.1,1.6-3,3.5-3.1l2.5-0.2v-0.1
		c0-0.7-0.7-1.2-1.5-1.2c-0.7,0-1.3,0.4-1.5,0.9h-2.8c0.1-2.1,1.9-3.6,4.3-3.6C364.2,40.7,366,42.3,366,44.6z M363.1,47.4v-0.6
		l-2,0.2c-0.7,0.1-1.1,0.4-1.1,0.9c0,0.5,0.5,0.9,1.3,0.9C362.4,48.8,363.1,48.3,363.1,47.4z"/>
	<path fill="#193062" d="M383.3,44.4V51h-3V45c0-0.8-0.5-1.5-1.5-1.5c-0.9,0-1.4,0.7-1.4,1.5V51h-3V45c0-0.8-0.5-1.5-1.5-1.5
		c-0.9,0-1.5,0.7-1.5,1.5V51h-3V40.9h2.9v0.5c0.6-0.4,1.4-0.7,2.3-0.7c1.1,0,2,0.4,2.6,1c0.7-0.6,1.7-1,2.8-1
		C381.5,40.7,383.3,42.2,383.3,44.4z"/>
	<path fill="#193062" d="M387.3,35.9c1.1,0,1.8,0.8,1.8,1.8c0,1-0.8,1.8-1.8,1.8c-1.1,0-1.8-0.8-1.8-1.8
		C385.5,36.7,386.3,35.9,387.3,35.9z M388.8,51h-3V40.9h3V51z"/>
	<path fill="#193062" d="M391.4,35.7h3V51h-3V35.7z"/>
	<path fill="#193062" d="M406,40.9l-5.2,14.3h-3.1l1.6-4.5l-3.6-9.9h3.2l1.9,5.5l2-5.5H406z"/>
	<path fill="#193062" d="M410.7,37.9c0,0.2,0,0.5-0.1,0.7l-1.2,3.3h-1.7l0.6-2.3c-0.7-0.2-1.1-0.9-1.1-1.7c0-1,0.7-1.8,1.8-1.8
		C410,36.1,410.7,36.9,410.7,37.9z"/>
	<path fill="#193062" d="M415.8,48.5c0.8,0,1.3-0.3,1.3-0.7c0-0.3-0.3-0.5-0.8-0.5c-0.5-0.1-1.1-0.1-1.8-0.2c-2-0.3-2.9-1.5-2.9-3
		c0-2,1.6-3.4,4.1-3.4c2.4,0,4.1,1.4,4.1,3.4h-2.9c0-0.5-0.5-0.7-1.2-0.7c-0.7,0-1.2,0.3-1.2,0.7c0,0.3,0.2,0.4,0.7,0.5
		c0.6,0.1,1.1,0.1,1.9,0.2c2,0.2,2.9,1.5,2.9,3c0,2-1.7,3.5-4.2,3.5c-2.5,0-4.2-1.4-4.2-3.5h2.9C414.4,48.2,414.9,48.5,415.8,48.5z"
		/>
	<path fill="#193062" d="M436.9,44.7V51h-3v-5.7c0-1-0.6-1.7-1.7-1.7s-1.7,0.8-1.7,1.7V51h-3V40.9h2.9v0.6c0.7-0.5,1.5-0.8,2.5-0.8
		C435.3,40.7,436.9,42.4,436.9,44.7z"/>
	<path fill="#193062" d="M448.9,47h-7c0.3,0.9,1.2,1.5,2.3,1.5c1,0,1.7-0.5,2.1-1.2l2.4,1.4c-0.9,1.5-2.5,2.5-4.5,2.5
		c-3,0-5.2-2.3-5.2-5.2c0-3,2.1-5.3,5.1-5.3c3,0,5.1,2.2,5.1,5.2C449,46.3,448.9,46.6,448.9,47z M441.8,44.8h4.3
		c-0.3-1-1.1-1.5-2.1-1.5C442.8,43.4,442,43.9,441.8,44.8z"/>
	<path fill="#193062" d="M460.3,47h-7c0.3,0.9,1.2,1.5,2.3,1.5c1,0,1.7-0.5,2.1-1.2l2.4,1.4c-0.9,1.5-2.5,2.5-4.5,2.5
		c-3,0-5.2-2.3-5.2-5.2c0-3,2.1-5.3,5.1-5.3c3,0,5.1,2.2,5.1,5.2C460.4,46.3,460.4,46.6,460.3,47z M453.2,44.8h4.3
		c-0.3-1-1.1-1.5-2.1-1.5C454.3,43.4,453.5,43.9,453.2,44.8z"/>
	<path fill="#193062" d="M472.1,35.7V51h-2.9v-0.6c-0.7,0.5-1.6,0.8-2.6,0.8c-2.9,0-5-2.3-5-5.2c0-3,2.1-5.3,5-5.3
		c1,0,1.8,0.3,2.5,0.8v-5.7H472.1z M469.3,45.9c0-1.4-1-2.4-2.4-2.4c-1.3,0-2.3,1-2.3,2.4c0,1.3,1,2.4,2.3,2.4
		C468.3,48.3,469.3,47.3,469.3,45.9z"/>
	<path fill="#193062" d="M478.4,48.5c0.8,0,1.3-0.3,1.3-0.7c0-0.3-0.3-0.5-0.8-0.5c-0.5-0.1-1.1-0.1-1.8-0.2c-2-0.3-2.9-1.5-2.9-3
		c0-2,1.6-3.4,4.1-3.4c2.4,0,4.1,1.4,4.1,3.4h-2.9c0-0.5-0.5-0.7-1.2-0.7c-0.7,0-1.2,0.3-1.2,0.7c0,0.3,0.2,0.4,0.7,0.5
		c0.6,0.1,1.1,0.1,1.9,0.2c2,0.2,2.9,1.5,2.9,3c0,2-1.7,3.5-4.2,3.5c-2.5,0-4.2-1.4-4.2-3.5h2.9C477,48.2,477.5,48.5,478.4,48.5z"/>
	<path fill="#193062" d="M486.3,46.5L486.3,46.5c0-1.9,0.4-2.7,1.8-4c0.8-0.7,1.2-1.2,1.2-1.9c0-0.8-0.6-1.4-1.4-1.4
		s-1.4,0.6-1.4,1.4h-3.1c0-2.5,1.9-4.5,4.5-4.5c2.6,0,4.4,1.9,4.4,4.3c0,1.8-0.8,2.8-2.2,4c-0.9,0.8-1.1,1.3-1.1,2v0.1H486.3z
		 M487.7,47.4c1.1,0,1.8,0.8,1.8,1.8c0,1-0.8,1.8-1.8,1.8s-1.8-0.8-1.8-1.8C485.9,48.2,486.6,47.4,487.7,47.4z"/>
</g>
<g>
	<path fill="#193062" d="M222.8,63.4h-4.2v-3h11.4v3h-4.2V75h-3.1V63.4z"/>
	<path fill="#193062" d="M236.5,64.9v2.9H235c-1.1,0-1.9,0.9-1.9,2V75h-3V64.9h2.9v0.9c0.6-0.7,1.5-0.9,2.3-0.9H236.5z"/>
	<path fill="#193062" d="M247.4,64.9V75h-2.9v-0.6c-0.7,0.5-1.5,0.8-2.4,0.8c-2.3,0-3.9-1.7-3.9-4v-6.3h3v5.7c0,0.9,0.6,1.7,1.7,1.7
		c1,0,1.7-0.8,1.7-1.7v-5.7H247.4z"/>
	<path fill="#193062" d="M253.6,72.5c0.8,0,1.3-0.3,1.3-0.7c0-0.3-0.3-0.5-0.8-0.5c-0.5-0.1-1.1-0.1-1.8-0.2c-2-0.3-2.9-1.5-2.9-3
		c0-2,1.6-3.4,4.1-3.4c2.4,0,4.1,1.4,4.1,3.4h-2.9c0-0.5-0.5-0.7-1.2-0.7c-0.7,0-1.2,0.3-1.2,0.7c0,0.3,0.2,0.4,0.7,0.5
		c0.6,0.1,1.1,0.1,1.9,0.2c2,0.2,2.9,1.5,2.9,3c0,2-1.7,3.5-4.2,3.5c-2.5,0-4.2-1.4-4.2-3.5h2.9C252.2,72.2,252.8,72.5,253.6,72.5z"
		/>
	<path fill="#193062" d="M263,64.9h3.1v2.8H263v3.4c0,0.7,0.4,1.1,1.1,1.1h2V75h-2.6c-2,0-3.4-1.3-3.4-3.4v-3.9h-1.5v-1.5l2.8-3.4
		h1.6V64.9z"/>
	<path fill="#193062" d="M276.8,63.4h-4.2v-3h11.4v3h-4.2V75h-3.1V63.4z"/>
	<path fill="#193062" d="M290.5,64.9v2.9H289c-1.1,0-1.9,0.9-1.9,2V75h-3V64.9h2.9v0.9c0.6-0.7,1.5-0.9,2.3-0.9H290.5z"/>
	<path fill="#193062" d="M301.4,64.9V75h-2.9v-0.6c-0.7,0.5-1.5,0.8-2.4,0.8c-2.3,0-3.9-1.7-3.9-4v-6.3h3v5.7c0,0.9,0.6,1.7,1.7,1.7
		c1,0,1.7-0.8,1.7-1.7v-5.7H301.4z"/>
	<path fill="#193062" d="M308.9,63.1c-1.3,0-2.1,0.7-2.1,1.5c0,0.6,0.4,0.9,0.9,1.1c0.9,0.3,2.3,0.2,3.7,0.6c1.9,0.6,3.1,2,3.1,4
		c0,2.8-2.2,4.8-5.4,4.8c-3.1,0-5.5-1.9-5.5-4.7h3.1c0,1.1,1,1.8,2.4,1.8c1.5,0,2.3-0.7,2.3-1.7c0-0.7-0.4-1.1-0.9-1.2
		c-0.9-0.3-2.4-0.2-3.7-0.6c-1.9-0.5-3-2-3-3.9c0-2.7,2.1-4.7,5.2-4.7c3.1,0,5.3,1.8,5.3,4.5h-3.1C311.1,63.7,310.2,63.1,308.9,63.1
		z"/>
	<path fill="#193062" d="M319.9,64.9h3.1v2.8h-3.1v3.4c0,0.7,0.4,1.1,1.1,1.1h2V75h-2.6c-2,0-3.4-1.3-3.4-3.4v-3.9h-1.5v-1.5
		l2.8-3.4h1.6V64.9z"/>
	<path fill="#193062" d="M333.4,68.6V75h-2.9v-0.5c-0.6,0.5-1.4,0.8-2.5,0.8c-2.1,0-3.5-1.3-3.5-3.2c0-2.1,1.6-3,3.5-3.1l2.5-0.2
		v-0.1c0-0.7-0.7-1.2-1.5-1.2c-0.7,0-1.3,0.4-1.5,0.9h-2.8c0.1-2.1,1.9-3.6,4.3-3.6C331.6,64.7,333.4,66.3,333.4,68.6z M330.5,71.4
		v-0.6l-2,0.2c-0.7,0.1-1.1,0.4-1.1,0.9c0,0.5,0.5,0.9,1.3,0.9C329.8,72.8,330.5,72.3,330.5,71.4z"/>
	<path fill="#193062" d="M345.4,64.9v9.8c0,2.7-2,4.8-5,4.8c-2.3,0-4.1-1.3-4.7-3.2l2.7-1c0.3,0.9,1,1.4,2,1.4c1.2,0,2.1-0.8,2.1-2
		v-0.7c-0.6,0.5-1.5,0.7-2.4,0.7c-2.7,0-4.7-2.2-4.7-5s2-5,4.7-5c1,0,1.8,0.3,2.5,0.8v-0.6H345.4z M342.5,69.7
		c0-1.2-0.9-2.1-2.1-2.1c-1.2,0-2.1,0.9-2.1,2.1c0,1.1,0.9,2.1,2.1,2.1C341.6,71.8,342.5,70.8,342.5,69.7z"/>
	<path fill="#193062" d="M357.3,71h-7c0.3,0.9,1.2,1.5,2.3,1.5c1,0,1.7-0.5,2.1-1.2l2.4,1.4c-0.9,1.5-2.5,2.5-4.5,2.5
		c-3,0-5.2-2.3-5.2-5.2c0-3,2.1-5.3,5.1-5.3c3,0,5.1,2.2,5.1,5.2C357.5,70.3,357.4,70.6,357.3,71z M350.3,68.8h4.3
		c-0.3-1-1.1-1.5-2.1-1.5C351.3,67.4,350.5,67.9,350.3,68.8z"/>
	<path fill="#193062" d="M360.4,62h-1.6v-1.6h4.9V62h-1.6v4.1h-1.7V62z M364.5,60.4h1.7l1.3,2.6l1.3-2.6h1.7v5.7h-1.7v-2.6l-1.3,2.7
		l-1.3-2.7v2.6h-1.6V60.4z"/>
</g>
</svg>
