<?xml version="1.0" encoding="utf-8"?>
<!-- Generator: Adobe Illustrator 27.4.0, SVG Export Plug-In . SVG Version: 6.00 Build 0)  -->
<svg version="1.1" baseProfile="tiny" id="Layer_1" xmlns="http://www.w3.org/2000/svg" xmlns:xlink="http://www.w3.org/1999/xlink"
	 x="0px" y="0px" viewBox="0 0 320 50" overflow="visible" xml:space="preserve">
<g>
	<path fill="#FFFFFF" d="M10.9,42.8c0,0.4-0.1,0.8-0.3,1.1c-0.2,0.3-0.4,0.6-0.8,0.8s-0.7,0.3-1.1,0.3c-0.4,0-0.8-0.1-1.1-0.3
		c-0.3-0.2-0.6-0.5-0.8-0.8s-0.3-0.7-0.3-1.2c0-0.4,0.1-0.8,0.3-1.2c0.2-0.3,0.5-0.6,0.8-0.8s0.7-0.3,1.1-0.3c0.4,0,0.8,0.1,1.1,0.3
		s0.6,0.4,0.8,0.8l-0.4,0.2c-0.2-0.3-0.4-0.5-0.6-0.6c-0.3-0.2-0.6-0.2-0.9-0.2c-0.3,0-0.6,0.1-0.9,0.2c-0.3,0.2-0.5,0.4-0.6,0.6
		s-0.2,0.6-0.2,0.9c0,0.3,0.1,0.7,0.2,0.9s0.4,0.5,0.6,0.6s0.6,0.2,0.9,0.2c0.3,0,0.5-0.1,0.8-0.2s0.4-0.2,0.6-0.4s0.3-0.4,0.3-0.6
		H8.6v-0.4H10.9z"/>
	<path fill="#FFFFFF" d="M11.7,40.5h3.2v0.4h-2.8v1.5h1.6v0.4h-1.6v1.5h2.8v0.4h-3.2V40.5z"/>
	<path fill="#FFFFFF" d="M19.1,40.5v4.4h-0.5l-2.4-3.6v3.6h-0.5v-4.4h0.5l2.4,3.6v-3.6H19.1z"/>
	<path fill="#FFFFFF" d="M21.3,42.9v0.4H20v-0.4H21.3z"/>
	<path fill="#FFFFFF" d="M24.9,43.5c0,0.3-0.1,0.5-0.2,0.7s-0.3,0.4-0.5,0.5c-0.2,0.1-0.5,0.2-0.7,0.2c-0.3,0-0.5-0.1-0.7-0.2
		c-0.2-0.1-0.4-0.3-0.5-0.5s-0.2-0.4-0.2-0.7h0.5c0,0.2,0,0.3,0.1,0.5c0.1,0.1,0.2,0.3,0.3,0.3c0.1,0.1,0.3,0.1,0.5,0.1
		c0.2,0,0.4,0,0.5-0.1c0.1-0.1,0.3-0.2,0.3-0.3c0.1-0.1,0.1-0.3,0.1-0.5s0-0.3-0.1-0.5s-0.2-0.3-0.3-0.3c-0.1-0.1-0.3-0.1-0.5-0.1
		h-1.2l0.3-2.1h2.2v0.4H23l-0.2,1.2h0.7c0.3,0,0.5,0.1,0.7,0.2s0.4,0.3,0.5,0.5S24.9,43.3,24.9,43.5z"/>
	<path fill="#FFFFFF" d="M28.7,43.5c0,0.3-0.1,0.5-0.2,0.7s-0.3,0.4-0.5,0.5s-0.5,0.2-0.7,0.2c-0.3,0-0.5-0.1-0.7-0.2
		s-0.4-0.3-0.5-0.5s-0.2-0.5-0.2-0.7c0-0.2,0-0.3,0.1-0.5s0.1-0.3,0.2-0.5l1.3-2H28l-1.1,1.7c0.1,0,0.3,0,0.4,0
		c0.3,0,0.5,0.1,0.7,0.2c0.2,0.1,0.4,0.3,0.5,0.5C28.6,43,28.7,43.2,28.7,43.5z M28.2,43.5c0-0.2,0-0.4-0.1-0.5s-0.2-0.3-0.4-0.3
		c-0.2-0.1-0.3-0.1-0.5-0.1c-0.2,0-0.4,0-0.5,0.1c-0.2,0.1-0.3,0.2-0.4,0.3s-0.1,0.3-0.1,0.5c0,0.2,0,0.4,0.1,0.5s0.2,0.3,0.4,0.3
		s0.3,0.1,0.5,0.1s0.4,0,0.5-0.1s0.3-0.2,0.4-0.3S28.2,43.7,28.2,43.5z"/>
	<path fill="#FFFFFF" d="M30.4,41l-1.2,0.7v-0.5l1.2-0.7h0.5v4.4h-0.5V41z"/>
	<path fill="#FFFFFF" d="M35.2,43v0.4h-0.8v1.4h-0.5v-1.4h-2v-0.4l1.9-2.6h0.5V43H35.2z M33.9,43v-1.9L32.5,43H33.9z"/>
	<path fill="#FFFFFF" d="M38.4,44.4v0.4h-2.7v-0.4l1.8-1.9c0.1-0.2,0.2-0.3,0.3-0.4s0.1-0.3,0.1-0.4c0-0.2,0-0.3-0.1-0.4
		S37.6,41,37.5,41s-0.3-0.1-0.5-0.1c-0.2,0-0.3,0-0.4,0.1s-0.2,0.2-0.3,0.3s-0.1,0.3-0.1,0.4h-0.5c0-0.2,0.1-0.5,0.2-0.7
		s0.3-0.3,0.5-0.5s0.4-0.2,0.7-0.2c0.3,0,0.5,0.1,0.7,0.2s0.4,0.3,0.5,0.5s0.2,0.4,0.2,0.7c0,0.2,0,0.4-0.1,0.6s-0.2,0.4-0.4,0.6
		l-1.4,1.5H38.4z"/>
	<path fill="#FFFFFF" d="M42.2,41.8c0,0.2,0,0.3-0.1,0.5s-0.1,0.3-0.2,0.5l-1.3,2H40l1.1-1.7c-0.1,0-0.3,0-0.4,0
		c-0.3,0-0.5-0.1-0.7-0.2c-0.2-0.1-0.4-0.3-0.5-0.5c-0.1-0.2-0.2-0.4-0.2-0.7c0-0.3,0.1-0.5,0.2-0.7s0.3-0.4,0.5-0.5
		s0.5-0.2,0.7-0.2c0.3,0,0.5,0.1,0.7,0.2s0.4,0.3,0.5,0.5S42.2,41.6,42.2,41.8z M40.7,42.8c0.2,0,0.4,0,0.5-0.1
		c0.2-0.1,0.3-0.2,0.4-0.3s0.1-0.3,0.1-0.5c0-0.2,0-0.4-0.1-0.5s-0.2-0.3-0.4-0.3s-0.3-0.1-0.5-0.1s-0.4,0-0.5,0.1s-0.3,0.2-0.4,0.3
		s-0.1,0.3-0.1,0.5c0,0.2,0,0.4,0.1,0.5s0.2,0.3,0.4,0.3C40.3,42.8,40.5,42.8,40.7,42.8z"/>
	<path fill="#FFFFFF" d="M42.9,40.5h2.8v0.4l-1.7,4h-0.5l1.7-3.9h-2.3V40.5z"/>
	<path fill="#FFFFFF" d="M46.8,44.2c0.1,0,0.2,0,0.2,0.1s0.1,0.1,0.1,0.2s0,0.2-0.1,0.2c-0.1,0.1-0.1,0.1-0.2,0.1s-0.2,0-0.2-0.1
		c-0.1-0.1-0.1-0.1-0.1-0.2s0-0.2,0.1-0.2S46.7,44.2,46.8,44.2z"/>
	<path fill="#FFFFFF" d="M49,41l-1.2,0.7v-0.5l1.2-0.7h0.5v4.4H49V41z"/>
</g>
</svg>
