<?xml version="1.0" encoding="utf-8"?>
<!-- Generator: Adobe Illustrator 27.4.0, SVG Export Plug-In . SVG Version: 6.00 Build 0)  -->
<svg version="1.1" baseProfile="tiny" id="Layer_1" xmlns="http://www.w3.org/2000/svg" xmlns:xlink="http://www.w3.org/1999/xlink"
	 x="0px" y="0px" viewBox="0 0 320 50" overflow="visible" xml:space="preserve">
<g>
	<path fill="#454547" d="M83.7,27.8H87v0.7h-2.5v2h2.3v0.6h-2.3v2.7h-0.8V27.8z"/>
	<path fill="#454547" d="M88.7,28.2c0,0.3-0.2,0.5-0.5,0.5c-0.3,0-0.5-0.2-0.5-0.5c0-0.3,0.2-0.5,0.5-0.5
		C88.5,27.7,88.7,28,88.7,28.2z M87.8,33.8v-4.4h0.8v4.4H87.8z"/>
	<path fill="#454547" d="M89.9,30.6c0-0.5,0-0.8,0-1.2h0.7l0,0.7h0c0.2-0.4,0.7-0.8,1.4-0.8c0.6,0,1.5,0.4,1.5,1.9v2.6h-0.8v-2.5
		c0-0.7-0.3-1.3-1-1.3c-0.5,0-0.9,0.4-1.1,0.8c0,0.1-0.1,0.2-0.1,0.4v2.6h-0.8V30.6z"/>
	<path fill="#454547" d="M95.8,28.2c0,0.3-0.2,0.5-0.5,0.5c-0.3,0-0.5-0.2-0.5-0.5c0-0.3,0.2-0.5,0.5-0.5
		C95.6,27.7,95.8,28,95.8,28.2z M94.9,33.8v-4.4h0.8v4.4H94.9z"/>
	<path fill="#454547" d="M96.9,33c0.2,0.2,0.6,0.3,1,0.3c0.6,0,0.8-0.3,0.8-0.6c0-0.4-0.2-0.6-0.8-0.8c-0.8-0.3-1.2-0.7-1.2-1.2
		c0-0.7,0.6-1.3,1.5-1.3c0.4,0,0.8,0.1,1.1,0.3l-0.2,0.6c-0.2-0.1-0.5-0.3-0.9-0.3c-0.5,0-0.7,0.3-0.7,0.6c0,0.4,0.3,0.5,0.8,0.7
		c0.8,0.3,1.1,0.7,1.1,1.3c0,0.8-0.6,1.3-1.6,1.3c-0.5,0-0.9-0.1-1.2-0.3L96.9,33z"/>
	<path fill="#454547" d="M100.6,27.4h0.8v2.7h0c0.1-0.2,0.3-0.4,0.6-0.6c0.2-0.1,0.5-0.2,0.8-0.2c0.6,0,1.5,0.4,1.5,1.9v2.6h-0.8
		v-2.5c0-0.7-0.3-1.3-1-1.3c-0.5,0-0.9,0.4-1.1,0.8c0,0.1-0.1,0.2-0.1,0.4v2.6h-0.8V27.4z"/>
	<path fill="#454547" d="M107.8,29.5l1,2.6c0.1,0.3,0.2,0.6,0.3,0.9h0c0.1-0.3,0.2-0.6,0.3-0.9l0.9-2.6h0.8l-1.2,3.1
		c-0.6,1.5-1,2.3-1.5,2.7c-0.4,0.3-0.8,0.5-1,0.5l-0.2-0.7c0.2-0.1,0.5-0.2,0.7-0.4c0.2-0.2,0.5-0.5,0.7-0.9c0-0.1,0.1-0.1,0.1-0.2
		c0,0,0-0.1-0.1-0.2l-1.6-4H107.8z"/>
	<path fill="#454547" d="M115.6,31.6c0,1.6-1.1,2.3-2.2,2.3c-1.2,0-2.1-0.9-2.1-2.2c0-1.5,1-2.3,2.2-2.3
		C114.7,29.4,115.6,30.3,115.6,31.6z M112.1,31.7c0,1,0.5,1.7,1.3,1.7c0.8,0,1.3-0.7,1.3-1.7c0-0.7-0.4-1.7-1.3-1.7
		C112.5,30,112.1,30.8,112.1,31.7z"/>
	<path fill="#454547" d="M120.2,32.6c0,0.5,0,0.8,0,1.2h-0.7l0-0.7h0c-0.2,0.4-0.7,0.8-1.4,0.8c-0.7,0-1.5-0.4-1.5-1.9v-2.5h0.8v2.4
		c0,0.8,0.3,1.4,1,1.4c0.5,0,0.9-0.4,1-0.7c0-0.1,0.1-0.3,0.1-0.4v-2.7h0.8V32.6z"/>
	<path fill="#454547" d="M121.6,30.8c0-0.5,0-1,0-1.4h0.7l0,0.9h0c0.2-0.6,0.7-1,1.2-1c0.1,0,0.2,0,0.2,0v0.7c-0.1,0-0.2,0-0.3,0
		c-0.6,0-1,0.4-1.1,1c0,0.1,0,0.2,0,0.4v2.3h-0.8V30.8z"/>
	<path fill="#454547" d="M126.4,30.6c0-0.5,0-0.8,0-1.2h0.7l0,0.7h0c0.2-0.4,0.7-0.8,1.4-0.8c0.6,0,1.5,0.4,1.5,1.9v2.6h-0.8v-2.5
		c0-0.7-0.3-1.3-1-1.3c-0.5,0-0.9,0.4-1.1,0.8c0,0.1-0.1,0.2-0.1,0.4v2.6h-0.8V30.6z"/>
	<path fill="#454547" d="M135.3,31.6c0,1.6-1.1,2.3-2.2,2.3c-1.2,0-2.1-0.9-2.1-2.2c0-1.5,1-2.3,2.2-2.3
		C134.5,29.4,135.3,30.3,135.3,31.6z M131.9,31.7c0,1,0.5,1.7,1.3,1.7c0.8,0,1.3-0.7,1.3-1.7c0-0.7-0.4-1.7-1.3-1.7
		C132.3,30,131.9,30.8,131.9,31.7z"/>
	<path fill="#454547" d="M138.3,31.1v0.6h-2.2v-0.6H138.3z"/>
	<path fill="#454547" d="M142.5,33.7c-0.2,0.1-0.7,0.3-1.3,0.3c-1.3,0-2.2-0.9-2.2-2.2c0-1.3,0.9-2.3,2.3-2.3c0.5,0,0.9,0.1,1.1,0.2
		l-0.2,0.6c-0.2-0.1-0.5-0.2-0.9-0.2c-1,0-1.5,0.7-1.5,1.6c0,1,0.6,1.6,1.5,1.6c0.5,0,0.7-0.1,1-0.2L142.5,33.7z"/>
	<path fill="#454547" d="M147.3,31.6c0,1.6-1.1,2.3-2.2,2.3c-1.2,0-2.1-0.9-2.1-2.2c0-1.5,1-2.3,2.2-2.3
		C146.5,29.4,147.3,30.3,147.3,31.6z M143.9,31.7c0,1,0.5,1.7,1.3,1.7c0.8,0,1.3-0.7,1.3-1.7c0-0.7-0.4-1.7-1.3-1.7
		C144.3,30,143.9,30.8,143.9,31.7z"/>
	<path fill="#454547" d="M148.2,33c0.2,0.2,0.6,0.3,1,0.3c0.6,0,0.8-0.3,0.8-0.6c0-0.4-0.2-0.6-0.8-0.8c-0.8-0.3-1.2-0.7-1.2-1.2
		c0-0.7,0.6-1.3,1.5-1.3c0.4,0,0.8,0.1,1.1,0.3l-0.2,0.6c-0.2-0.1-0.5-0.3-0.9-0.3c-0.5,0-0.7,0.3-0.7,0.6c0,0.4,0.3,0.5,0.8,0.7
		c0.8,0.3,1.1,0.7,1.1,1.3c0,0.8-0.6,1.3-1.6,1.3c-0.5,0-0.9-0.1-1.2-0.3L148.2,33z"/>
	<path fill="#454547" d="M152.8,28.2v1.3h1.1v0.6h-1.1v2.3c0,0.5,0.2,0.8,0.6,0.8c0.2,0,0.4,0,0.5-0.1l0,0.6
		c-0.2,0.1-0.4,0.1-0.7,0.1c-0.4,0-0.7-0.1-0.9-0.3c-0.2-0.2-0.3-0.6-0.3-1.1v-2.4h-0.7v-0.6h0.7v-1L152.8,28.2z"/>
</g>
<g>
	<path fill="#454547" d="M83.7,36.8h0.8v5.4h2.6v0.7h-3.4V36.8z"/>
	<path fill="#454547" d="M88.8,37.2c0,0.3-0.2,0.5-0.5,0.5c-0.3,0-0.5-0.2-0.5-0.5c0-0.3,0.2-0.5,0.5-0.5
		C88.6,36.7,88.8,37,88.8,37.2z M87.9,42.8v-4.4h0.8v4.4H87.9z"/>
	<path fill="#454547" d="M90.1,42.8v-3.8h-0.6v-0.6h0.6v-0.2c0-0.6,0.1-1.2,0.5-1.5c0.3-0.3,0.7-0.4,1.1-0.4c0.3,0,0.5,0.1,0.7,0.1
		l-0.1,0.6C92.1,37,92,37,91.7,37c-0.7,0-0.8,0.6-0.8,1.3v0.2h1.1v0.6h-1.1v3.8H90.1z"/>
	<path fill="#454547" d="M93,40.8c0,1.1,0.7,1.5,1.5,1.5c0.6,0,0.9-0.1,1.2-0.2l0.1,0.6c-0.3,0.1-0.8,0.3-1.4,0.3
		c-1.3,0-2.1-0.9-2.1-2.2s0.8-2.3,2-2.3c1.4,0,1.8,1.3,1.8,2.1c0,0.2,0,0.3,0,0.4H93z M95.3,40.2c0-0.5-0.2-1.3-1.1-1.3
		c-0.8,0-1.2,0.7-1.2,1.3H95.3z"/>
	<path fill="#454547" d="M99.8,36.8v6.1H99v-6.1H99.8z"/>
	<path fill="#454547" d="M101.2,39.6c0-0.5,0-0.8,0-1.2h0.7l0,0.7h0c0.2-0.4,0.7-0.8,1.4-0.8c0.6,0,1.5,0.4,1.5,1.9v2.6h-0.8v-2.5
		c0-0.7-0.3-1.3-1-1.3c-0.5,0-0.9,0.4-1.1,0.8c0,0.1-0.1,0.2-0.1,0.4v2.6h-0.8V39.6z"/>
	<path fill="#454547" d="M106.1,42c0.2,0.2,0.6,0.3,1,0.3c0.6,0,0.8-0.3,0.8-0.6c0-0.4-0.2-0.6-0.8-0.8c-0.8-0.3-1.2-0.7-1.2-1.2
		c0-0.7,0.6-1.3,1.5-1.3c0.4,0,0.8,0.1,1.1,0.3l-0.2,0.6c-0.2-0.1-0.5-0.3-0.9-0.3c-0.5,0-0.7,0.3-0.7,0.6c0,0.4,0.3,0.5,0.8,0.7
		c0.8,0.3,1.1,0.7,1.1,1.3c0,0.8-0.6,1.3-1.6,1.3c-0.5,0-0.9-0.1-1.2-0.3L106.1,42z"/>
	<path fill="#454547" d="M113.4,41.6c0,0.5,0,0.8,0,1.2h-0.7l0-0.7h0c-0.2,0.4-0.7,0.8-1.4,0.8c-0.7,0-1.5-0.4-1.5-1.9v-2.5h0.8v2.4
		c0,0.8,0.3,1.4,1,1.4c0.5,0,0.9-0.4,1-0.7c0-0.1,0.1-0.3,0.1-0.4v-2.7h0.8V41.6z"/>
	<path fill="#454547" d="M114.7,39.8c0-0.5,0-1,0-1.4h0.7l0,0.9h0c0.2-0.6,0.7-1,1.2-1c0.1,0,0.2,0,0.2,0v0.7c-0.1,0-0.2,0-0.3,0
		c-0.6,0-1,0.4-1.1,1c0,0.1,0,0.2,0,0.4v2.3h-0.8V39.8z"/>
	<path fill="#454547" d="M120,42.8l-0.1-0.5h0c-0.2,0.3-0.7,0.6-1.3,0.6c-0.9,0-1.3-0.6-1.3-1.3c0-1.1,0.9-1.6,2.6-1.6V40
		c0-0.4-0.1-1-1-1c-0.4,0-0.8,0.1-1.1,0.3l-0.2-0.5c0.4-0.2,0.9-0.4,1.4-0.4c1.3,0,1.7,0.9,1.7,1.8v1.6c0,0.4,0,0.7,0.1,1H120z
		 M119.9,40.6c-0.9,0-1.8,0.1-1.8,1c0,0.5,0.3,0.8,0.7,0.8c0.6,0,0.9-0.4,1.1-0.7c0-0.1,0-0.2,0-0.3V40.6z"/>
	<path fill="#454547" d="M122,39.6c0-0.5,0-0.8,0-1.2h0.7l0,0.7h0c0.2-0.4,0.7-0.8,1.4-0.8c0.6,0,1.5,0.4,1.5,1.9v2.6h-0.8v-2.5
		c0-0.7-0.3-1.3-1-1.3c-0.5,0-0.9,0.4-1.1,0.8c0,0.1-0.1,0.2-0.1,0.4v2.6H122V39.6z"/>
	<path fill="#454547" d="M130.1,42.7c-0.2,0.1-0.7,0.3-1.3,0.3c-1.3,0-2.2-0.9-2.2-2.2c0-1.3,0.9-2.3,2.3-2.3c0.5,0,0.9,0.1,1.1,0.2
		l-0.2,0.6c-0.2-0.1-0.5-0.2-0.9-0.2c-1,0-1.5,0.7-1.5,1.6c0,1,0.6,1.6,1.5,1.6c0.5,0,0.7-0.1,1-0.2L130.1,42.7z"/>
	<path fill="#454547" d="M131.4,40.8c0,1.1,0.7,1.5,1.5,1.5c0.6,0,0.9-0.1,1.2-0.2l0.1,0.6c-0.3,0.1-0.8,0.3-1.4,0.3
		c-1.3,0-2.1-0.9-2.1-2.2s0.8-2.3,2-2.3c1.4,0,1.8,1.3,1.8,2.1c0,0.2,0,0.3,0,0.4H131.4z M133.7,40.2c0-0.5-0.2-1.3-1.1-1.3
		c-0.8,0-1.2,0.7-1.2,1.3H133.7z"/>
	<path fill="#454547" d="M140.3,42.2L140.3,42.2c-0.3,0.4-0.7,0.8-1.4,0.8c-1,0-1.8-0.9-1.8-2.2c0-1.6,1.1-2.3,2-2.3
		c0.7,0,1.1,0.3,1.3,0.8h0l0-0.7h0.7c0,0.4,0,0.7,0,1.2v4.9h-0.8V42.2z M140.3,40.2c0-0.1,0-0.2,0-0.3c-0.1-0.5-0.5-0.9-1.1-0.9
		c-0.8,0-1.3,0.7-1.3,1.7c0,0.9,0.4,1.6,1.3,1.6c0.5,0,1-0.3,1.1-0.9c0-0.1,0.1-0.3,0.1-0.4V40.2z"/>
	<path fill="#454547" d="M146.1,41.6c0,0.5,0,0.8,0,1.2h-0.7l0-0.7h0c-0.2,0.4-0.7,0.8-1.4,0.8c-0.7,0-1.5-0.4-1.5-1.9v-2.5h0.8v2.4
		c0,0.8,0.3,1.4,1,1.4c0.5,0,0.9-0.4,1-0.7c0-0.1,0.1-0.3,0.1-0.4v-2.7h0.8V41.6z"/>
	<path fill="#454547" d="M151.3,40.6c0,1.6-1.1,2.3-2.2,2.3c-1.2,0-2.1-0.9-2.1-2.2c0-1.5,1-2.3,2.2-2.3
		C150.5,38.4,151.3,39.3,151.3,40.6z M147.9,40.7c0,1,0.5,1.7,1.3,1.7c0.8,0,1.3-0.7,1.3-1.7c0-0.7-0.4-1.7-1.3-1.7
		C148.3,39,147.9,39.8,147.9,40.7z"/>
	<path fill="#454547" d="M153.3,37.2v1.3h1.1v0.6h-1.1v2.3c0,0.5,0.2,0.8,0.6,0.8c0.2,0,0.4,0,0.5-0.1l0,0.6
		c-0.2,0.1-0.4,0.1-0.7,0.1c-0.4,0-0.7-0.1-0.9-0.3c-0.2-0.2-0.3-0.6-0.3-1.1v-2.4h-0.7v-0.6h0.7v-1L153.3,37.2z"/>
	<path fill="#454547" d="M155.7,40.8c0,1.1,0.7,1.5,1.5,1.5c0.6,0,0.9-0.1,1.2-0.2l0.1,0.6c-0.3,0.1-0.8,0.3-1.4,0.3
		c-1.3,0-2.1-0.9-2.1-2.2s0.8-2.3,2-2.3c1.4,0,1.8,1.3,1.8,2.1c0,0.2,0,0.3,0,0.4H155.7z M158,40.2c0-0.5-0.2-1.3-1.1-1.3
		c-0.8,0-1.2,0.7-1.2,1.3H158z"/>
	<path fill="#454547" d="M159.5,42.4c0-0.3,0.2-0.6,0.5-0.6c0.3,0,0.5,0.2,0.5,0.6c0,0.3-0.2,0.6-0.5,0.6
		C159.7,42.9,159.5,42.7,159.5,42.4z"/>
</g>
</svg>
