<?xml version="1.0" encoding="utf-8"?>
<!-- Generator: Adobe Illustrator 27.4.0, SVG Export Plug-In . SVG Version: 6.00 Build 0)  -->
<svg version="1.1" baseProfile="tiny" id="Layer_1" xmlns="http://www.w3.org/2000/svg" xmlns:xlink="http://www.w3.org/1999/xlink"
	 x="0px" y="0px" viewBox="0 0 320 50" overflow="visible" xml:space="preserve">
<g>
	<path fill="#454547" d="M85.3,28.7h-1.8V28h4.5v0.7h-1.9v5.4h-0.8V28.7z"/>
	<path fill="#454547" d="M88.2,31.1c0-0.5,0-1,0-1.4h0.7l0,0.9h0c0.2-0.6,0.7-1,1.2-1c0.1,0,0.2,0,0.2,0v0.7c-0.1,0-0.2,0-0.3,0
		c-0.6,0-1,0.4-1.1,1c0,0.1,0,0.2,0,0.4v2.3h-0.8V31.1z"/>
	<path fill="#454547" d="M94.8,32.9c0,0.5,0,0.8,0,1.2h-0.7l0-0.7h0c-0.2,0.4-0.7,0.8-1.4,0.8c-0.7,0-1.5-0.4-1.5-1.9v-2.5h0.8v2.4
		c0,0.8,0.3,1.4,1,1.4c0.5,0,0.9-0.4,1-0.7c0-0.1,0.1-0.3,0.1-0.4v-2.7h0.8V32.9z"/>
	<path fill="#454547" d="M96,33.1c0.4,0.2,0.9,0.4,1.4,0.4c0.8,0,1.3-0.4,1.3-1c0-0.6-0.3-0.9-1.1-1.2c-1-0.4-1.6-0.9-1.6-1.7
		c0-0.9,0.8-1.6,2-1.6c0.6,0,1.1,0.1,1.3,0.3L99,28.8c-0.2-0.1-0.6-0.3-1.2-0.3c-0.8,0-1.1,0.5-1.1,0.9c0,0.6,0.4,0.8,1.2,1.2
		c1,0.4,1.5,0.9,1.5,1.8c0,0.9-0.7,1.7-2.1,1.7c-0.6,0-1.2-0.2-1.5-0.4L96,33.1z"/>
	<path fill="#454547" d="M101.4,28.5v1.3h1.1v0.6h-1.1v2.3c0,0.5,0.2,0.8,0.6,0.8c0.2,0,0.4,0,0.5-0.1l0,0.6
		c-0.2,0.1-0.4,0.1-0.7,0.1c-0.4,0-0.7-0.1-0.9-0.3c-0.2-0.2-0.3-0.6-0.3-1.1v-2.4H100v-0.6h0.7v-1L101.4,28.5z"/>
	<path fill="#454547" d="M105.9,34.1l-0.1-0.5h0c-0.2,0.3-0.7,0.6-1.3,0.6c-0.9,0-1.3-0.6-1.3-1.3c0-1.1,0.9-1.6,2.6-1.6v-0.1
		c0-0.4-0.1-1-1-1c-0.4,0-0.8,0.1-1.1,0.3l-0.2-0.5c0.4-0.2,0.9-0.4,1.4-0.4c1.3,0,1.7,0.9,1.7,1.8V33c0,0.4,0,0.7,0.1,1H105.9z
		 M105.8,31.8c-0.9,0-1.8,0.1-1.8,1c0,0.5,0.3,0.8,0.7,0.8c0.6,0,0.9-0.4,1.1-0.7c0-0.1,0-0.2,0-0.3V31.8z"/>
	<path fill="#454547" d="M111.6,29.7c0,0.3,0,0.7,0,1.2v2.5c0,1-0.2,1.6-0.6,2c-0.4,0.4-1,0.5-1.6,0.5c-0.5,0-1.1-0.1-1.4-0.4
		l0.2-0.6c0.3,0.2,0.7,0.3,1.3,0.3c0.8,0,1.4-0.4,1.4-1.5v-0.5h0c-0.2,0.4-0.7,0.7-1.4,0.7c-1.1,0-1.9-0.9-1.9-2.1
		c0-1.5,1-2.3,2-2.3c0.8,0,1.2,0.4,1.4,0.8h0l0-0.7H111.6z M110.7,31.4c0-0.1,0-0.3,0-0.4c-0.1-0.5-0.5-0.8-1.1-0.8
		c-0.8,0-1.3,0.6-1.3,1.6c0,0.9,0.4,1.6,1.3,1.6c0.5,0,0.9-0.3,1.1-0.8c0-0.1,0.1-0.3,0.1-0.4V31.4z"/>
	<path fill="#454547" d="M113.3,32c0,1.1,0.7,1.5,1.5,1.5c0.6,0,0.9-0.1,1.2-0.2l0.1,0.6c-0.3,0.1-0.8,0.3-1.4,0.3
		c-1.3,0-2.1-0.9-2.1-2.2s0.8-2.4,2-2.4c1.4,0,1.8,1.3,1.8,2.1c0,0.2,0,0.3,0,0.4H113.3z M115.6,31.5c0-0.5-0.2-1.3-1.1-1.3
		c-0.8,0-1.2,0.7-1.2,1.3H115.6z"/>
	<path fill="#454547" d="M119,28v0.4h-0.8v2h-0.5v-2H117V28H119z M121.7,30.4l-0.1-1.4c0-0.2,0-0.4,0-0.7h0
		c-0.1,0.2-0.1,0.5-0.2,0.7l-0.4,1.4h-0.5l-0.4-1.4c0-0.2-0.1-0.5-0.2-0.7h0c0,0.2,0,0.5,0,0.7l-0.1,1.4h-0.5l0.2-2.4h0.7l0.4,1.2
		c0.1,0.2,0.1,0.4,0.2,0.6h0c0.1-0.2,0.1-0.4,0.2-0.6l0.4-1.2h0.7l0.2,2.4H121.7z"/>
	<path fill="#454547" d="M125.7,28.5c0,0.3-0.2,0.5-0.5,0.5c-0.3,0-0.5-0.2-0.5-0.5c0-0.3,0.2-0.5,0.5-0.5
		C125.5,28,125.7,28.2,125.7,28.5z M124.8,34.1v-4.4h0.8v4.4H124.8z"/>
	<path fill="#454547" d="M126.8,33.3c0.2,0.2,0.6,0.3,1,0.3c0.6,0,0.8-0.3,0.8-0.6c0-0.4-0.2-0.6-0.8-0.8c-0.8-0.3-1.2-0.7-1.2-1.2
		c0-0.7,0.6-1.3,1.5-1.3c0.4,0,0.8,0.1,1.1,0.3l-0.2,0.6c-0.2-0.1-0.5-0.3-0.9-0.3c-0.5,0-0.7,0.3-0.7,0.6c0,0.4,0.3,0.5,0.8,0.7
		c0.8,0.3,1.1,0.7,1.1,1.3c0,0.8-0.6,1.3-1.6,1.3c-0.5,0-0.9-0.1-1.2-0.3L126.8,33.3z"/>
	<path fill="#454547" d="M136.2,27.7v5.3c0,0.4,0,0.8,0,1.1h-0.7l0-0.8h0c-0.2,0.5-0.8,0.9-1.5,0.9c-1.1,0-1.9-0.9-1.9-2.2
		c0-1.4,0.9-2.3,2-2.3c0.7,0,1.1,0.3,1.3,0.7h0v-2.6H136.2z M135.4,31.5c0-0.1,0-0.2,0-0.3c-0.1-0.5-0.5-0.9-1.1-0.9
		c-0.8,0-1.3,0.7-1.3,1.7c0,0.9,0.4,1.6,1.3,1.6c0.5,0,1-0.4,1.2-0.9c0-0.1,0-0.2,0-0.3V31.5z"/>
	<path fill="#454547" d="M137.9,32c0,1.1,0.7,1.5,1.5,1.5c0.6,0,0.9-0.1,1.2-0.2l0.1,0.6c-0.3,0.1-0.8,0.3-1.4,0.3
		c-1.3,0-2.1-0.9-2.1-2.2s0.8-2.4,2-2.4c1.4,0,1.8,1.3,1.8,2.1c0,0.2,0,0.3,0,0.4H137.9z M140.2,31.5c0-0.5-0.2-1.3-1.1-1.3
		c-0.8,0-1.2,0.7-1.2,1.3H140.2z"/>
	<path fill="#454547" d="M141.9,33.3c0.2,0.2,0.6,0.3,1,0.3c0.6,0,0.8-0.3,0.8-0.6c0-0.4-0.2-0.6-0.8-0.8c-0.8-0.3-1.2-0.7-1.2-1.2
		c0-0.7,0.6-1.3,1.5-1.3c0.4,0,0.8,0.1,1.1,0.3l-0.2,0.6c-0.2-0.1-0.5-0.3-0.9-0.3c-0.5,0-0.7,0.3-0.7,0.6c0,0.4,0.3,0.5,0.8,0.7
		c0.8,0.3,1.1,0.7,1.1,1.3c0,0.8-0.6,1.3-1.6,1.3c-0.5,0-0.9-0.1-1.2-0.3L141.9,33.3z"/>
	<path fill="#454547" d="M146.4,28.5c0,0.3-0.2,0.5-0.5,0.5c-0.3,0-0.5-0.2-0.5-0.5c0-0.3,0.2-0.5,0.5-0.5
		C146.2,28,146.4,28.2,146.4,28.5z M145.6,34.1v-4.4h0.8v4.4H145.6z"/>
	<path fill="#454547" d="M151.4,29.7c0,0.3,0,0.7,0,1.2v2.5c0,1-0.2,1.6-0.6,2c-0.4,0.4-1,0.5-1.6,0.5c-0.5,0-1.1-0.1-1.4-0.4
		l0.2-0.6c0.3,0.2,0.7,0.3,1.3,0.3c0.8,0,1.4-0.4,1.4-1.5v-0.5h0c-0.2,0.4-0.7,0.7-1.4,0.7c-1.1,0-1.9-0.9-1.9-2.1
		c0-1.5,1-2.3,2-2.3c0.8,0,1.2,0.4,1.4,0.8h0l0-0.7H151.4z M150.6,31.4c0-0.1,0-0.3,0-0.4c-0.1-0.5-0.5-0.8-1.1-0.8
		c-0.8,0-1.3,0.6-1.3,1.6c0,0.9,0.4,1.6,1.3,1.6c0.5,0,0.9-0.3,1.1-0.8c0-0.1,0.1-0.3,0.1-0.4V31.4z"/>
	<path fill="#454547" d="M152.6,30.9c0-0.5,0-0.8,0-1.2h0.7l0,0.7h0c0.2-0.4,0.7-0.8,1.4-0.8c0.6,0,1.5,0.4,1.5,1.9v2.6h-0.8v-2.5
		c0-0.7-0.3-1.3-1-1.3c-0.5,0-0.9,0.4-1.1,0.8c0,0.1-0.1,0.2-0.1,0.4v2.6h-0.8V30.9z"/>
	<path fill="#454547" d="M158.1,32c0,1.1,0.7,1.5,1.5,1.5c0.6,0,0.9-0.1,1.2-0.2l0.1,0.6c-0.3,0.1-0.8,0.3-1.4,0.3
		c-1.3,0-2.1-0.9-2.1-2.2s0.8-2.4,2-2.4c1.4,0,1.8,1.3,1.8,2.1c0,0.2,0,0.3,0,0.4H158.1z M160.4,31.5c0-0.5-0.2-1.3-1.1-1.3
		c-0.8,0-1.2,0.7-1.2,1.3H160.4z"/>
	<path fill="#454547" d="M165.9,27.7v5.3c0,0.4,0,0.8,0,1.1h-0.7l0-0.8h0c-0.2,0.5-0.8,0.9-1.5,0.9c-1.1,0-1.9-0.9-1.9-2.2
		c0-1.4,0.9-2.3,2-2.3c0.7,0,1.1,0.3,1.3,0.7h0v-2.6H165.9z M165.1,31.5c0-0.1,0-0.2,0-0.3c-0.1-0.5-0.5-0.9-1.1-0.9
		c-0.8,0-1.3,0.7-1.3,1.7c0,0.9,0.4,1.6,1.3,1.6c0.5,0,1-0.4,1.2-0.9c0-0.1,0-0.2,0-0.3V31.5z"/>
	<path fill="#454547" d="M169.4,29.7l0.6,2.2c0.1,0.5,0.2,0.9,0.3,1.4h0c0.1-0.4,0.2-0.9,0.4-1.4l0.7-2.2h0.7l0.7,2.2
		c0.2,0.5,0.3,1,0.4,1.4h0c0.1-0.4,0.2-0.9,0.3-1.4l0.6-2.2h0.8l-1.4,4.4h-0.7l-0.7-2.1c-0.2-0.5-0.3-0.9-0.4-1.4h0
		c-0.1,0.5-0.2,1-0.4,1.4l-0.7,2.1h-0.7l-1.3-4.4H169.4z"/>
	<path fill="#454547" d="M176.6,28.5c0,0.3-0.2,0.5-0.5,0.5c-0.3,0-0.5-0.2-0.5-0.5c0-0.3,0.2-0.5,0.5-0.5
		C176.4,28,176.6,28.2,176.6,28.5z M175.7,34.1v-4.4h0.8v4.4H175.7z"/>
	<path fill="#454547" d="M178.8,28.5v1.3h1.1v0.6h-1.1v2.3c0,0.5,0.2,0.8,0.6,0.8c0.2,0,0.4,0,0.5-0.1l0,0.6
		c-0.2,0.1-0.4,0.1-0.7,0.1c-0.4,0-0.7-0.1-0.9-0.3c-0.2-0.2-0.3-0.6-0.3-1.1v-2.4h-0.7v-0.6h0.7v-1L178.8,28.5z"/>
	<path fill="#454547" d="M180.8,27.7h0.8v2.7h0c0.1-0.2,0.3-0.4,0.6-0.6c0.2-0.1,0.5-0.2,0.8-0.2c0.6,0,1.5,0.4,1.5,1.9v2.6h-0.8
		v-2.5c0-0.7-0.3-1.3-1-1.3c-0.5,0-0.9,0.4-1.1,0.8c0,0.1-0.1,0.2-0.1,0.4v2.6h-0.8V27.7z"/>
	<path fill="#454547" d="M188,29.7l1,2.6c0.1,0.3,0.2,0.6,0.3,0.9h0c0.1-0.3,0.2-0.6,0.3-0.9l0.9-2.6h0.8l-1.2,3.1
		c-0.6,1.5-1,2.3-1.5,2.7c-0.4,0.3-0.8,0.5-1,0.5l-0.2-0.7c0.2-0.1,0.5-0.2,0.7-0.4c0.2-0.2,0.5-0.5,0.7-0.9c0-0.1,0.1-0.1,0.1-0.2
		c0,0,0-0.1-0.1-0.2l-1.6-4H188z"/>
	<path fill="#454547" d="M195.8,31.9c0,1.6-1.1,2.3-2.2,2.3c-1.2,0-2.1-0.9-2.1-2.2c0-1.5,1-2.3,2.2-2.3
		C195,29.6,195.8,30.5,195.8,31.9z M192.4,31.9c0,1,0.5,1.7,1.3,1.7c0.8,0,1.3-0.7,1.3-1.7c0-0.7-0.4-1.7-1.3-1.7
		C192.8,30.2,192.4,31.1,192.4,31.9z"/>
	<path fill="#454547" d="M200.5,32.9c0,0.5,0,0.8,0,1.2h-0.7l0-0.7h0c-0.2,0.4-0.7,0.8-1.4,0.8c-0.7,0-1.5-0.4-1.5-1.9v-2.5h0.8v2.4
		c0,0.8,0.3,1.4,1,1.4c0.5,0,0.9-0.4,1-0.7c0-0.1,0.1-0.3,0.1-0.4v-2.7h0.8V32.9z"/>
	<path fill="#454547" d="M204.6,28.5c0,0.3-0.2,0.5-0.5,0.5c-0.3,0-0.5-0.2-0.5-0.5c0-0.3,0.2-0.5,0.5-0.5
		C204.4,28,204.6,28.2,204.6,28.5z M203.7,34.1v-4.4h0.8v4.4H203.7z"/>
	<path fill="#454547" d="M205.8,30.9c0-0.5,0-0.8,0-1.2h0.7l0,0.7h0c0.2-0.4,0.7-0.8,1.4-0.8c0.6,0,1.5,0.4,1.5,1.9v2.6h-0.8v-2.5
		c0-0.7-0.3-1.3-1-1.3c-0.5,0-0.9,0.4-1.1,0.8c0,0.1-0.1,0.2-0.1,0.4v2.6h-0.8V30.9z"/>
</g>
<g>
	<path fill="#454547" d="M84.1,39.9c0-0.5,0-0.8,0-1.2h0.7l0,0.7h0c0.2-0.4,0.6-0.8,1.4-0.8c0.6,0,1,0.4,1.2,0.9h0
		c0.1-0.2,0.3-0.4,0.5-0.6c0.3-0.2,0.5-0.3,1-0.3c0.6,0,1.4,0.4,1.4,1.9v2.6h-0.8v-2.5c0-0.8-0.3-1.3-0.9-1.3
		c-0.5,0-0.8,0.3-0.9,0.7c0,0.1-0.1,0.3-0.1,0.4v2.7h-0.8v-2.6c0-0.7-0.3-1.2-0.9-1.2c-0.5,0-0.9,0.4-1,0.8c0,0.1-0.1,0.3-0.1,0.4
		v2.6h-0.8V39.9z"/>
	<path fill="#454547" d="M92.5,37.5c0,0.3-0.2,0.5-0.5,0.5c-0.3,0-0.5-0.2-0.5-0.5c0-0.3,0.2-0.5,0.5-0.5
		C92.3,37,92.5,37.2,92.5,37.5z M91.6,43.1v-4.4h0.8v4.4H91.6z"/>
	<path fill="#454547" d="M93.7,39.9c0-0.5,0-0.8,0-1.2h0.7l0,0.7h0c0.2-0.4,0.7-0.8,1.4-0.8c0.6,0,1.5,0.4,1.5,1.9v2.6h-0.8v-2.5
		c0-0.7-0.3-1.3-1-1.3c-0.5,0-0.9,0.4-1.1,0.8c0,0.1-0.1,0.2-0.1,0.4v2.6h-0.8V39.9z"/>
	<path fill="#454547" d="M102.5,36.7v5.3c0,0.4,0,0.8,0,1.1h-0.7l0-0.8h0c-0.2,0.5-0.8,0.9-1.5,0.9c-1.1,0-1.9-0.9-1.9-2.2
		c0-1.5,0.9-2.3,2-2.3c0.7,0,1.1,0.3,1.3,0.7h0v-2.6H102.5z M101.7,40.5c0-0.1,0-0.2,0-0.3c-0.1-0.5-0.5-0.9-1.1-0.9
		c-0.8,0-1.3,0.7-1.3,1.7c0,0.9,0.4,1.6,1.3,1.6c0.5,0,1-0.4,1.2-0.9c0-0.1,0-0.2,0-0.3V40.5z"/>
	<path fill="#454547" d="M103.5,42.6c0-0.3,0.2-0.6,0.5-0.6s0.5,0.2,0.5,0.6c0,0.3-0.2,0.6-0.5,0.6
		C103.7,43.2,103.5,42.9,103.5,42.6z"/>
</g>
</svg>
