<?xml version="1.0" encoding="utf-8"?>
<!-- Generator: Adobe Illustrator 27.4.0, SVG Export Plug-In . SVG Version: 6.00 Build 0)  -->
<svg version="1.1" baseProfile="tiny" id="Layer_1" xmlns="http://www.w3.org/2000/svg" xmlns:xlink="http://www.w3.org/1999/xlink"
	 x="0px" y="0px" viewBox="0 0 320 50" overflow="visible" xml:space="preserve">
<rect x="-0.5" y="-0.2" fill="#193062" width="71.6" height="50.5"/>
<rect x="7.6" y="16.8" fill="#FAE07E" width="9.1" height="2.5"/>
<rect x="17.4" y="16.8" fill="#FFFFFF" width="2.2" height="2.5"/>
<rect x="7.6" y="20" fill="#FAE07E" width="6.8" height="2.5"/>
<rect x="15.1" y="20" fill="#FFFFFF" width="4.5" height="2.5"/>
<rect x="7.6" y="23.2" fill="#FAE07E" width="4.5" height="2.5"/>
<rect x="12.8" y="23.2" fill="#FFFFFF" width="6.8" height="2.5"/>
<rect x="7.6" y="26.3" fill="#FAE07E" width="2.2" height="2.5"/>
<rect x="10.5" y="26.3" fill="#FFFFFF" width="9.1" height="2.5"/>
<polygon fill="#FFFFFF" points="26.6,20.4 24.6,20.4 24.6,19.3 29.8,19.3 29.8,20.4 27.8,20.4 27.8,26.3 26.6,26.3 "/>
<g>
	<path fill="none" d="M61.4,22.2c-0.6,0-1.3,0.4-1.4,1.1h2.7C62.5,22.6,62,22.2,61.4,22.2z"/>
	<path fill="none" d="M49.8,22.3c-0.9,0-1.5,0.7-1.5,1.6s0.6,1.6,1.5,1.6c0.9,0,1.5-0.7,1.5-1.6S50.7,22.3,49.8,22.3z"/>
	<ellipse fill="none" cx="55.6" cy="23.8" rx="1.5" ry="1.5"/>
	<path fill="#FFFFFF" d="M29.6,21.4v4.9h1.1v-2.4c0-1,0.6-1.5,1.2-1.5c0.2,0,0.4,0,0.5,0.1v-1.1c-0.1,0-0.3,0-0.4,0
		c-0.6,0-1.1,0.4-1.3,0.9v-0.9H29.6z"/>
	<path fill="#FFFFFF" d="M33.2,21.4v2.9c0,1.3,0.7,2.1,1.8,2.1c0.6,0,1.1-0.3,1.4-0.8v0.7h1.1v-4.9h-1.1v2.4c0,1.1-0.5,1.6-1.2,1.6
		c-0.6,0-1-0.5-1-1.3v-2.8H33.2z"/>
	<path fill="#FFFFFF" d="M40.7,25.4c-0.7,0-1.3-0.3-1.6-0.9l-0.9,0.7c0.4,0.7,1.4,1.3,2.5,1.3c1.4,0,2.3-0.8,2.3-2
		c0-1-0.6-1.7-1.6-2l-0.7-0.3c-0.7-0.3-1.1-0.5-1.1-1c0-0.5,0.5-0.8,1.1-0.8c0.5,0,1,0.2,1.3,0.6l0.8-0.8c-0.5-0.6-1.2-1-2.1-1
		c-1.3,0-2.3,0.7-2.3,2c0,1,0.5,1.6,1.6,2l0.8,0.3c0.7,0.2,1,0.6,1,1.1C41.9,25,41.4,25.4,40.7,25.4z"/>
	<path fill="#FFFFFF" d="M52.3,26.3v-4.9h-1.1v0.7c-0.3-0.4-0.9-0.8-1.6-0.8c-1.3,0-2.4,1.2-2.4,2.6c0,1.4,1,2.6,2.4,2.6
		c0.7,0,1.3-0.4,1.6-0.8v0.7H52.3z M49.8,25.4c-0.9,0-1.5-0.7-1.5-1.6s0.6-1.6,1.5-1.6c0.9,0,1.5,0.7,1.5,1.6S50.7,25.4,49.8,25.4z"
		/>
	<path fill="#FFFFFF" d="M55.5,27.5c-0.7,0-1.2-0.3-1.6-0.7l-0.7,0.8c0.5,0.5,1.3,0.9,2.3,0.9c1.5,0,2.5-0.8,2.5-2.5v-4.6H57v0.7
		c-0.3-0.4-0.9-0.8-1.6-0.8c-1.3,0-2.4,1.1-2.4,2.5c0,1.4,1,2.5,2.4,2.5c0.7,0,1.3-0.3,1.6-0.8V26C57,27,56.3,27.5,55.5,27.5z
		 M55.6,25.3c-0.8,0-1.5-0.6-1.5-1.5s0.6-1.5,1.5-1.5c0.8,0,1.5,0.6,1.5,1.5S56.5,25.3,55.6,25.3z"/>
	<path fill="#FFFFFF" d="M61.4,21.3c-1.5,0-2.6,1.1-2.6,2.6c0,1.5,1.1,2.6,2.6,2.6c1,0,1.8-0.4,2.2-1.1l-0.8-0.6
		c-0.3,0.4-0.7,0.7-1.4,0.7c-0.8,0-1.5-0.5-1.5-1.3h3.9c0-0.2,0-0.2,0-0.4C63.8,22.2,62.7,21.3,61.4,21.3z M59.9,23.3
		c0.1-0.7,0.8-1.1,1.4-1.1c0.6,0,1.2,0.4,1.3,1.1H59.9z"/>
	<path fill="#FFFFFF" d="M44.3,20l0,0.6c0,0.4-0.3,0.7-0.7,0.7l-0.3,0v1h1v2.4c0,1.1,0.7,1.6,1.7,1.6c0.3,0,0.6,0,0.8-0.1v-1
		c-0.2,0.1-0.4,0.1-0.6,0.1c-0.6,0-0.8-0.2-0.8-0.8v-2.2h1.4v-1h-1.4V20H44.3z"/>
	<polygon fill="#FFFFFF" points="64.4,20.6 64.2,20 64,20 64,20.9 64.2,20.9 64.2,20.4 64.4,20.9 64.7,20.4 64.7,20.9 64.8,20.9 
		64.8,20 64.7,20 	"/>
	<polygon fill="#FFFFFF" points="63.6,20.9 63.6,20.2 63.8,20.2 63.8,20 63.1,20 63.1,20.2 63.4,20.2 63.4,20.9 	"/>
</g>
</svg>
