<svg baseProfile="tiny" xmlns="http://www.w3.org/2000/svg" viewBox="0 0 728 90" overflow="visible"><path fill="#FAE07E" d="M568 25h131.4v37.2H568z"/><g fill="#193062"><path d="M585.3 38.2h2.1V47h6.4v2.1h-8.5V38.2zM595.1 38.2h8.5v2.1h-6.4v2.3h3.5v2.1h-3.5V47h6.4v2.1h-8.5V38.2zM607.9 40.3h-3.2v-2.1h8.5v2.1H610v8.8h-2.1v-8.8zM627.5 45c0 .8-.2 1.5-.6 2.2s-.9 1.2-1.6 1.5c-.7.4-1.4.6-2.2.6a4.645 4.645 0 0 1-3.9-2.1c-.4-.6-.6-1.4-.6-2.2v-6.8h2.1v6.7c0 .4.1.8.3 1.1.2.3.5.6.8.8.3.2.7.3 1.2.3.4 0 .8-.1 1.2-.3.3-.2.6-.5.8-.8s.3-.7.3-1.1v-6.7h2.1V45zM633.2 40c-.3 0-.7.1-.9.2-.3.1-.5.3-.6.5-.1.2-.2.4-.2.7 0 .2.1.4.2.6.1.2.3.3.6.4.2.1.3.1.5.1s.4 0 .7.1c.4 0 .6.1.9.1s.5.1.7.2c.7.2 1.3.6 1.7 1.1.4.5.6 1.1.6 1.9 0 .7-.2 1.3-.5 1.8s-.8 1-1.4 1.3-1.3.5-2.1.5-1.5-.1-2.1-.4c-.6-.3-1.1-.7-1.5-1.2-.4-.5-.5-1.1-.5-1.8h2.1c0 .3.1.5.3.8.2.2.4.4.7.5s.6.2 1 .2.7-.1 1-.2c.3-.1.5-.3.6-.5s.2-.5.2-.7c0-.3-.1-.5-.2-.6-.1-.2-.3-.3-.6-.4-.2-.1-.3-.1-.5-.1s-.5-.1-.8-.1c-.3 0-.6-.1-.8-.1-.2 0-.5-.1-.7-.1-.7-.2-1.3-.6-1.6-1.1s-.6-1.1-.6-1.8.2-1.2.5-1.8c.3-.5.8-.9 1.4-1.2s1.3-.4 2-.4 1.4.1 2 .4c.6.3 1.1.7 1.4 1.2s.5 1.1.5 1.7H635c0-.3-.1-.5-.2-.7-.2-.2-.4-.4-.6-.5-.4-.5-.7-.6-1-.6zM643.1 38.2h2.1v4.4h4.5v-4.4h2.1v10.9h-2.1v-4.5h-4.5v4.5h-2.1V38.2zM654.2 38.2h8.5v2.1h-6.4v2.3h3.5v2.1h-3.5V47h6.4v2.1h-8.5V38.2zM664.6 38.2h2.1V47h6.4v2.1h-8.5V38.2zM683.1 42.1c0 .8-.2 1.4-.5 2-.3.6-.8 1.1-1.4 1.4s-1.4.5-2.2.5h-2.5v3.1h-2.1V38.2h4.7c.8 0 1.5.2 2.1.5s1.1.8 1.4 1.4.5 1.2.5 2zm-2.2 0c0-.4-.1-.7-.2-.9s-.4-.5-.7-.7c-.3-.2-.6-.2-1-.2h-2.5V44h2.5c.4 0 .7-.1 1-.2s.5-.4.7-.7.2-.6.2-1z"/></g></svg>