<svg baseProfile="tiny" xmlns="http://www.w3.org/2000/svg" viewBox="0 0 728 90" overflow="visible"><path fill="#FAE07E" d="M19.2 25.9H42v6.3H19.2z"/><path fill="#FFF" d="M43.9 25.9h5.5v6.3h-5.5z"/><path fill="#FAE07E" d="M19.2 33.9h17v6.3h-17z"/><path fill="#FFF" d="M38.1 33.9h11.3v6.3H38.1z"/><path fill="#FAE07E" d="M19.2 41.9h11.3v6.3H19.2z"/><path fill="#FFF" d="M32.4 41.9h17v6.3h-17z"/><path fill="#FAE07E" d="M19.2 49.8h5.5v6.3h-5.5z"/><path fill="#FFF" d="M26.6 49.8h22.8v6.3H26.6zM67.2 35h-5.1v-2.8h13.1V35h-5.1v14.8h-2.9z"/><ellipse fill="none" cx="140.1" cy="43.4" rx="3.7" ry="3.8"/><path fill="none" d="M125.5 39.7c-2.2 0-3.7 1.7-3.7 4 0 2.2 1.5 4 3.7 4s3.7-1.7 3.7-4-1.5-4-3.7-4zM154.5 39.5c-1.6 0-3.2.9-3.6 2.7h6.9c-.3-1.8-1.7-2.7-3.3-2.7z"/><path fill="#FFF" d="M74.5 37.4v12.4h2.7v-6c0-2.5 1.4-3.8 3-3.8.5 0 .9.1 1.4.2v-2.8c-.4-.1-.7-.1-1.1-.1-1.4 0-2.8.9-3.3 2.3v-2.2h-2.7zM83.6 37.4v7.4c0 3.2 1.8 5.2 4.6 5.2 1.6 0 2.9-.7 3.6-1.9v1.7h2.7V37.4h-2.7v6.1c0 2.6-1.3 4.1-3 4.1-1.6 0-2.5-1.2-2.5-3.2v-7h-2.7zM102.7 47.4c-1.7 0-3.2-.8-4.1-2.3l-2.3 1.8c1.1 1.9 3.4 3.2 6.2 3.2 3.4 0 5.8-2 5.8-5.1 0-2.6-1.5-4.2-4.1-5.1l-1.8-.7c-1.8-.7-2.7-1.2-2.7-2.5s1.3-2 2.8-2c1.4 0 2.4.6 3.3 1.6l2-2c-1.3-1.5-3.1-2.4-5.3-2.4-3.3 0-5.7 1.9-5.7 5 0 2.4 1.4 3.9 4.1 5l1.9.7c1.7.6 2.5 1.4 2.5 2.7.2 1.2-1 2.1-2.6 2.1zM131.7 49.8V37.4H129v1.7c-.7-1-2.2-1.9-3.9-1.9-3.4 0-5.9 2.9-5.9 6.4 0 3.5 2.6 6.4 5.9 6.4 1.8 0 3.3-.9 3.9-1.9v1.7h2.7zm-6.2-2.2c-2.2 0-3.7-1.7-3.7-4 0-2.2 1.5-4 3.7-4s3.7 1.7 3.7 4c0 2.2-1.5 4-3.7 4zM139.8 52.8c-1.7 0-3.1-.7-4.1-1.8l-1.7 2c1.2 1.4 3.4 2.3 5.8 2.3 3.7 0 6.4-2 6.4-6.3V37.4h-2.7v1.7c-.7-1.1-2.2-1.9-3.9-1.9-3.3 0-5.9 2.8-5.9 6.3s2.6 6.3 5.9 6.3c1.7 0 3.2-.8 3.9-1.9V49c.1 2.4-1.6 3.8-3.7 3.8zm.3-5.6c-2.1 0-3.7-1.6-3.7-3.8s1.6-3.8 3.7-3.8 3.7 1.6 3.7 3.8-1.6 3.8-3.7 3.8zM154.6 37.2c-3.8 0-6.4 2.8-6.4 6.4 0 3.8 2.7 6.4 6.4 6.4 2.6 0 4.5-1.1 5.6-2.9l-2.1-1.5c-.6 1.1-1.8 1.9-3.5 1.9-2 0-3.7-1.3-3.8-3.4h9.7v-.9c.1-3.9-2.7-6-5.9-6zm-3.6 5c.4-1.8 2-2.7 3.6-2.7s3 1 3.3 2.7H151zM111.5 34v1.6c0 1-.8 1.9-1.9 1.9h-.7v2.4h2.6v6c0 2.8 1.9 4.1 4.2 4.1.8 0 1.5-.1 2-.3v-2.4c-.4.1-.9.2-1.5.2-1.4 0-2.1-.6-2.1-2.1v-5.5h3.5v-2.4h-3.5V34h-2.6zM162.2 35.3l-.6-1.3h-.4v2.2h.4v-1.4l.6 1.4.6-1.4v1.4h.5V34h-.5zM160.1 36.2v-1.8h.7V34H159v.4h.7v1.8z"/></svg>