<svg baseProfile="tiny" xmlns="http://www.w3.org/2000/svg" viewBox="0 0 728 90" overflow="visible"><g fill="#193062"><path d="M193.7 13h10.9v2.9h-7.9v2.6h4.3v2.9h-4.3v5.5h-3V13zM207.8 12.6c1 0 1.7.8 1.7 1.7 0 1-.7 1.7-1.7 1.7s-1.7-.8-1.7-1.7c0-1 .7-1.7 1.7-1.7zm1.4 14.3h-2.8v-9.6h2.8v9.6zM220.6 20.9v6h-2.8v-5.4c0-.9-.6-1.6-1.6-1.6s-1.6.7-1.6 1.6v5.4h-2.8v-9.6h2.8v.6c.6-.5 1.4-.8 2.3-.8 2.1 0 3.7 1.6 3.7 3.8zM232.3 12.4v14.5h-2.8v-.6c-.6.5-1.5.8-2.5.8-2.8 0-4.7-2.2-4.7-5s2-5 4.7-5c.9 0 1.7.3 2.4.7v-5.4h2.9zm-2.7 9.7c0-1.3-.9-2.3-2.2-2.3-1.3 0-2.2 1-2.2 2.3 0 1.3.9 2.2 2.2 2.2 1.3.1 2.2-.9 2.2-2.2zM240.5 13h3v11h7.9v2.9h-10.9V13zM254.6 12.6c1 0 1.7.8 1.7 1.7 0 1-.7 1.7-1.7 1.7s-1.7-.8-1.7-1.7c0-1 .7-1.7 1.7-1.7zm1.5 14.3h-2.8v-9.6h2.8v9.6zM259.5 20h-1.9v-2.7h1.9v-1.9c0-1.8 1.2-3 3.1-3h2.1v2.7h-1.6c-.5 0-.8.3-.8.8v1.5h2.4V20h-2.4v6.9h-2.8V20zM275.1 23.1h-6.7c.3.8 1.1 1.4 2.2 1.4.9 0 1.6-.5 2-1.1l2.2 1.3c-.8 1.4-2.4 2.4-4.3 2.4-2.9 0-5-2.2-5-5s2-5 4.8-5 4.8 2.1 4.8 5c.1.3 0 .7 0 1zm-6.8-2h4.1c-.3-.9-1-1.4-2-1.4s-1.8.5-2.1 1.4zM282.7 13h3v13.9h-3V13zM297.2 20.9v6h-2.8v-5.4c0-.9-.6-1.6-1.6-1.6s-1.6.7-1.6 1.6v5.4h-2.8v-9.6h2.8v.6c.6-.5 1.4-.8 2.3-.8 2.1 0 3.7 1.6 3.7 3.8zM303.1 24.6c.8 0 1.2-.3 1.2-.7 0-.3-.2-.5-.7-.5-.5-.1-1-.1-1.7-.2-1.9-.3-2.7-1.4-2.7-2.8 0-1.9 1.6-3.2 3.9-3.2s3.9 1.3 3.9 3.2h-2.7c0-.4-.5-.7-1.2-.7s-1.1.3-1.1.6.2.4.7.5c.6.1 1 .1 1.8.2 1.9.2 2.7 1.4 2.7 2.8 0 1.9-1.6 3.3-4 3.3-2.3 0-4-1.4-4-3.3h2.7c-.1.5.4.8 1.2.8zM317.7 17.3v9.6h-2.8v-.5c-.6.5-1.4.7-2.3.7-2.1 0-3.7-1.6-3.7-3.8v-6h2.8v5.4c0 .9.6 1.6 1.6 1.6s1.6-.7 1.6-1.6v-5.4h2.8zM326.2 17.3v2.8h-1.4c-1.1 0-1.8.8-1.8 1.9v4.9h-2.8v-9.6h2.8v.9c.5-.7 1.4-.9 2.2-.9h1zM335.5 20.9v6h-2.8v-.5c-.6.5-1.3.7-2.3.7-2 0-3.3-1.2-3.3-3 0-2 1.5-2.8 3.3-3l2.3-.2v-.1c0-.6-.6-1.1-1.4-1.1-.7 0-1.3.4-1.4.9h-2.7c.1-2 1.8-3.5 4.1-3.5 2.5 0 4.2 1.6 4.2 3.8zm-2.7 2.6v-.6l-1.9.2c-.7.1-1 .4-1 .9s.4.9 1.2.9c1-.1 1.7-.6 1.7-1.4zM346.8 20.9v6H344v-5.4c0-.9-.6-1.6-1.6-1.6s-1.6.7-1.6 1.6v5.4H338v-9.6h2.8v.6c.6-.5 1.4-.8 2.3-.8 2.1 0 3.7 1.6 3.7 3.8zM353.6 17.1c1.8 0 3.3.9 4.2 2.2l-2.3 1.6c-.4-.6-1-1.1-1.9-1.1-1.3 0-2.2 1-2.2 2.3 0 1.3.9 2.2 2.2 2.2.8 0 1.5-.4 1.9-1.1l2.3 1.6c-.8 1.4-2.3 2.2-4.2 2.2-2.9 0-5-2.2-5-5 0-2.7 2.1-4.9 5-4.9zM368.1 23.1h-6.7c.3.8 1.1 1.4 2.2 1.4.9 0 1.6-.5 2-1.1l2.2 1.3c-.8 1.4-2.4 2.4-4.3 2.4-2.9 0-5-2.2-5-5s2-5 4.8-5 4.8 2.1 4.8 5c.1.3.1.7 0 1zm-6.7-2h4.1c-.3-.9-1-1.4-2-1.4-1.1 0-1.9.5-2.1 1.4zM376.5 20h-1.9v-2.7h1.9v-1.9c0-1.8 1.2-3 3.1-3h2.1v2.7h-1.6c-.5 0-.8.3-.8.8v1.5h2.4V20h-2.4v6.9h-2.8V20zM387.6 17.1c2.9 0 5 2.2 5 5 0 2.7-2.1 5-5 5s-5-2.2-5-5 2.1-5 5-5zm0 7.2c1.3 0 2.2-1 2.2-2.2 0-1.3-.9-2.3-2.2-2.3-1.3 0-2.2 1-2.2 2.3-.1 1.2.9 2.2 2.2 2.2zM400.5 17.3v2.8h-1.4c-1.1 0-1.8.8-1.8 1.9v4.9h-2.8v-9.6h2.8v.9c.5-.7 1.4-.9 2.2-.9h1zM415.5 17.3l-4.9 13.6h-2.9l1.5-4.2-3.4-9.4h3l1.8 5.2 1.9-5.2h3zM421 17.1c2.9 0 5 2.2 5 5 0 2.7-2.1 5-5 5s-5-2.2-5-5 2.1-5 5-5zm0 7.2c1.3 0 2.2-1 2.2-2.2 0-1.3-.9-2.3-2.2-2.3-1.3 0-2.2 1-2.2 2.3 0 1.2.9 2.2 2.2 2.2zM436.6 17.3v9.6h-2.8v-.5c-.6.5-1.4.7-2.3.7-2.1 0-3.7-1.6-3.7-3.8v-6h2.8v5.4c0 .9.6 1.6 1.6 1.6s1.6-.7 1.6-1.6v-5.4h2.8zM445.2 17.3v2.8h-1.4c-1.1 0-1.8.8-1.8 1.9v4.9h-2.8v-9.6h2.8v.9c.5-.7 1.4-.9 2.2-.9h1z"/></g><g fill="#193062"><path d="M194.5 44h-1.9v-2.7h1.9v-1.9c0-1.8 1.2-3 3.1-3h2.1v2.7H198c-.5 0-.8.3-.8.8v1.5h2.4V44h-2.4v6.9h-2.8V44zM209 44.9v6h-2.8v-.5c-.6.5-1.3.7-2.3.7-2 0-3.3-1.2-3.3-3 0-2 1.5-2.8 3.3-3l2.3-.2v-.1c0-.6-.6-1.1-1.4-1.1-.7 0-1.3.4-1.4.9h-2.7c.1-2 1.8-3.5 4.1-3.5 2.5 0 4.2 1.6 4.2 3.8zm-2.7 2.6v-.6l-1.9.2c-.7.1-1 .4-1 .9s.4.9 1.2.9c1-.1 1.7-.6 1.7-1.4zM225.5 44.6v6.2h-2.8v-5.6c0-.8-.5-1.4-1.4-1.4-.8 0-1.4.6-1.4 1.4v5.6h-2.8v-5.6c0-.8-.5-1.4-1.4-1.4-.8 0-1.4.6-1.4 1.4v5.6h-2.8v-9.6h2.8v.5c.6-.4 1.3-.7 2.1-.7 1 0 1.9.4 2.5 1 .7-.6 1.6-1 2.7-1 2.2.1 3.9 1.6 3.9 3.6zM229.3 36.6c1 0 1.7.8 1.7 1.7 0 1-.7 1.7-1.7 1.7s-1.7-.8-1.7-1.7c0-1 .7-1.7 1.7-1.7zm1.4 14.3h-2.8v-9.6h2.8v9.6zM233.2 36.4h2.8v14.5h-2.8V36.4zM247.1 41.3l-4.9 13.6h-2.9l1.5-4.2-3.4-9.4h3l1.8 5.2 1.9-5.2h3zM266.7 41.3l-3.2 9.6h-2.9l-1.2-4-1.2 4h-2.9l-3.2-9.6h3l1.7 5.4 1.7-5.4h1.8l1.6 5.2 1.7-5.2h3.1zM269.6 36.6c1 0 1.7.8 1.7 1.7 0 1-.7 1.7-1.7 1.7s-1.7-.8-1.7-1.7c-.1-1 .7-1.7 1.7-1.7zm1.4 14.3h-2.8v-9.6h2.8v9.6zM276.6 41.3h2.9V44h-2.9v3.2c0 .6.4 1 1 1h1.9v2.7H277c-1.9 0-3.3-1.3-3.3-3.2V44h-1.4v-1.4l2.6-3.2h1.5v1.9zM290.3 44.9v6h-2.8v-5.4c0-.9-.6-1.7-1.6-1.7s-1.7.7-1.7 1.7v5.4h-2.8V36.4h2.8v5.4c.6-.5 1.4-.7 2.3-.7 2.3 0 3.8 1.6 3.8 3.8zM302.6 41.1c1.8 0 3.3.9 4.2 2.2l-2.3 1.6c-.4-.6-1-1.1-1.9-1.1-1.3 0-2.2 1-2.2 2.3 0 1.3.9 2.2 2.2 2.2.8 0 1.5-.4 1.9-1.1l2.3 1.6c-.8 1.4-2.3 2.2-4.2 2.2-2.9 0-5-2.2-5-5s2.1-4.9 5-4.9zM308.2 36.4h2.8v14.5h-2.8V36.4zM322.4 47.1h-6.7c.3.8 1.1 1.4 2.2 1.4.9 0 1.6-.5 2-1.1l2.2 1.3c-.8 1.4-2.4 2.4-4.3 2.4-2.9 0-5-2.2-5-5s2-5 4.8-5 4.8 2.1 4.8 5c.2.3.1.7 0 1zm-6.7-2h4.1c-.3-.9-1-1.4-2-1.4-1.1 0-1.8.5-2.1 1.4zM332.3 44.9v6h-2.8v-.5c-.6.5-1.3.7-2.3.7-2 0-3.3-1.2-3.3-3 0-2 1.5-2.8 3.3-3l2.3-.2v-.1c0-.6-.6-1.1-1.4-1.1-.7 0-1.3.4-1.4.9H324c.1-2 1.8-3.5 4.1-3.5 2.5 0 4.2 1.6 4.2 3.8zm-2.7 2.6v-.6l-1.9.2c-.7.1-1 .4-1 .9s.4.9 1.2.9c1.1-.1 1.7-.6 1.7-1.4zM340.9 41.3v2.8h-1.4c-1.1 0-1.8.8-1.8 1.9v4.9h-2.8v-9.6h2.8v.9c.5-.7 1.4-.9 2.2-.9h1zM349.4 36.6c1 0 1.7.8 1.7 1.7 0 1-.7 1.7-1.7 1.7s-1.7-.8-1.7-1.7c-.1-1 .7-1.7 1.7-1.7zm1.4 14.3H348v-9.6h2.8v9.6zM362.1 44.9v6h-2.8v-5.4c0-.9-.6-1.6-1.6-1.6s-1.6.7-1.6 1.6v5.4h-2.8v-9.6h2.8v.6c.6-.5 1.4-.8 2.3-.8 2.1 0 3.7 1.6 3.7 3.8zM365.4 44h-1.9v-2.7h1.9v-1.9c0-1.8 1.2-3 3.1-3h2.1v2.7H369c-.5 0-.8.3-.8.8v1.5h2.4V44h-2.4v6.9h-2.8V44zM376.5 41.1c2.9 0 5 2.2 5 5 0 2.7-2.1 5-5 5s-5-2.2-5-5 2.1-5 5-5zm0 7.2c1.3 0 2.2-1 2.2-2.2 0-1.3-.9-2.3-2.2-2.3-1.3 0-2.2 1-2.2 2.3 0 1.2.9 2.2 2.2 2.2zM389.4 41.3v2.8H388c-1.1 0-1.8.8-1.8 1.9v4.9h-2.8v-9.6h2.8v.9c.5-.7 1.4-.9 2.2-.9h1zM405 44.6v6.2h-2.8v-5.6c0-.8-.5-1.4-1.4-1.4-.8 0-1.4.6-1.4 1.4v5.6h-2.8v-5.6c0-.8-.5-1.4-1.4-1.4-.8 0-1.4.6-1.4 1.4v5.6H391v-9.6h2.8v.5c.6-.4 1.3-.7 2.1-.7 1 0 1.9.4 2.5 1 .7-.6 1.6-1 2.7-1 2.3.1 3.9 1.6 3.9 3.6zM415.4 44.9v6h-2.8v-.5c-.6.5-1.3.7-2.3.7-2 0-3.3-1.2-3.3-3 0-2 1.5-2.8 3.3-3l2.3-.2v-.1c0-.6-.6-1.1-1.4-1.1-.7 0-1.3.4-1.4.9h-2.7c.1-2 1.8-3.5 4.1-3.5 2.5 0 4.2 1.6 4.2 3.8zm-2.8 2.6v-.6l-1.9.2c-.7.1-1 .4-1 .9s.4.9 1.2.9c1.1-.1 1.7-.6 1.7-1.4zM420.9 41.3h2.9V44h-2.9v3.2c0 .6.4 1 1 1h1.9v2.7h-2.5c-1.9 0-3.3-1.3-3.3-3.2V44h-1.4v-1.4l2.6-3.2h1.5v1.9zM427.2 36.6c1 0 1.7.8 1.7 1.7 0 1-.7 1.7-1.7 1.7s-1.7-.8-1.7-1.7c-.1-1 .7-1.7 1.7-1.7zm1.4 14.3h-2.8v-9.6h2.8v9.6zM435.4 41.1c2.9 0 5 2.2 5 5 0 2.7-2.1 5-5 5s-5-2.2-5-5 2.1-5 5-5zm0 7.2c1.3 0 2.2-1 2.2-2.2 0-1.3-.9-2.3-2.2-2.3-1.3 0-2.2 1-2.2 2.3 0 1.2 1 2.2 2.2 2.2zM451.1 44.9v6h-2.8v-5.4c0-.9-.6-1.6-1.6-1.6s-1.6.7-1.6 1.6v5.4h-2.8v-9.6h2.8v.6c.6-.5 1.4-.8 2.3-.8 2.1 0 3.7 1.6 3.7 3.8z"/></g><g fill="#193062"><path d="M194.5 68h-1.9v-2.7h1.9v-1.9c0-1.8 1.2-3 3.1-3h2.1v2.7H198c-.5 0-.8.3-.8.8v1.5h2.4V68h-2.4v6.9h-2.8V68zM207.5 65.3v2.8h-1.4c-1.1 0-1.8.8-1.8 1.9v4.9h-2.8v-9.6h2.8v.9c.5-.7 1.4-.9 2.2-.9h1zM213.4 65.1c2.9 0 5 2.2 5 5 0 2.7-2.1 5-5 5s-5-2.2-5-5 2.1-5 5-5zm0 7.2c1.3 0 2.2-1 2.2-2.2 0-1.3-.9-2.3-2.2-2.3-1.3 0-2.2 1-2.2 2.3 0 1.2.9 2.2 2.2 2.2zM234.3 68.6v6.2h-2.8v-5.6c0-.8-.5-1.4-1.4-1.4-.8 0-1.4.6-1.4 1.4v5.6h-2.8v-5.6c0-.8-.5-1.4-1.4-1.4-.8 0-1.4.6-1.4 1.4v5.6h-2.8v-9.6h2.8v.5c.6-.4 1.3-.7 2.1-.7 1 0 1.9.4 2.5 1 .7-.6 1.6-1 2.7-1 2.2.1 3.9 1.6 3.9 3.6zM245.4 65.3h2.9V68h-2.9v3.2c0 .6.4 1 1 1h1.9v2.7h-2.5c-1.9 0-3.3-1.3-3.3-3.2V68h-1.4v-1.4l2.6-3.2h1.5v1.9zM259.1 68.9v6h-2.8v-5.4c0-.9-.6-1.7-1.6-1.7s-1.7.7-1.7 1.7v5.4h-2.8V60.4h2.8v5.4c.6-.5 1.4-.7 2.3-.7 2.2 0 3.8 1.6 3.8 3.8zM270.4 71.1h-6.7c.3.8 1.1 1.4 2.2 1.4.9 0 1.6-.5 2-1.1l2.2 1.3c-.8 1.4-2.4 2.4-4.3 2.4-2.9 0-5-2.2-5-5s2-5 4.8-5 4.8 2.1 4.8 5c.1.3.1.7 0 1zm-6.7-2h4.1c-.3-.9-1-1.4-2-1.4-1.1 0-1.9.4-2.1 1.4zM281.3 72.6c.8 0 1.2-.3 1.2-.7 0-.3-.2-.5-.7-.5-.5-.1-1-.1-1.7-.2-1.9-.3-2.7-1.4-2.7-2.8 0-1.9 1.6-3.2 3.9-3.2s3.9 1.3 3.9 3.2h-2.7c0-.4-.5-.7-1.2-.7s-1.1.3-1.1.6.2.4.7.5c.6.1 1 .1 1.8.2 1.9.2 2.7 1.4 2.7 2.8 0 1.9-1.6 3.3-4 3.3-2.3 0-4-1.4-4-3.3h2.7c-.1.5.4.8 1.2.8zM290.2 65.3h2.9V68h-2.9v3.2c0 .6.4 1 1 1h1.9v2.7h-2.5c-1.9 0-3.3-1.3-3.3-3.2V68H286v-1.4l2.6-3.2h1.5v1.9zM303 68.9v6h-2.8v-.5c-.6.5-1.3.7-2.3.7-2 0-3.3-1.2-3.3-3 0-2 1.5-2.8 3.3-3l2.3-.2v-.1c0-.6-.6-1.1-1.4-1.1-.7 0-1.3.4-1.4.9h-2.7c.1-2 1.8-3.5 4.1-3.5 2.5 0 4.2 1.6 4.2 3.8zm-2.8 2.6v-.6l-1.9.2c-.7.1-1 .4-1 .9s.4.9 1.2.9c1.1-.1 1.7-.6 1.7-1.4zM311.5 65.3v2.8h-1.4c-1.1 0-1.8.8-1.8 1.9v4.9h-2.8v-9.6h2.8v.9c.5-.7 1.4-.9 2.2-.9h1zM316.5 65.3h2.9V68h-2.9v3.2c0 .6.4 1 1 1h1.9v2.7H317c-1.9 0-3.3-1.3-3.3-3.2V68h-1.4v-1.4l2.6-3.2h1.5v1.9zM322.9 71.5c1 0 1.7.8 1.7 1.7 0 1-.7 1.7-1.7 1.7s-1.7-.8-1.7-1.7c-.1-.9.7-1.7 1.7-1.7z"/></g></svg>