<svg baseProfile="tiny" xmlns="http://www.w3.org/2000/svg" viewBox="0 0 160 600" overflow="visible"><g fill="#193062"><path d="M27.5 262v.6c0 4-2.7 7-6.9 7s-7-3-7-7.1c0-4 3-7.1 7.2-7.1 2.8 0 5 1.4 6.2 3.5l-2.5 1.6c-.7-1.3-2-2.1-3.7-2.1-2.5 0-4.2 1.8-4.2 4.2 0 2.5 1.6 4.3 4.1 4.3 1.7 0 2.9-.8 3.5-2h-4.5V262h7.8zM38.4 265.6h-6.7c.3.8 1.1 1.4 2.2 1.4.9 0 1.6-.5 2-1.1l2.2 1.3c-.8 1.4-2.4 2.4-4.3 2.4-2.9 0-5-2.2-5-5s2-5 4.8-5 4.8 2.1 4.8 5c.1.3.1.7 0 1zm-6.7-2h4.1c-.3-.9-1-1.4-2-1.4-1.1-.1-1.9.4-2.1 1.4zM43.5 259.8h2.9v2.7h-2.9v3.2c0 .6.4 1 1 1h1.9v2.7H44c-1.9 0-3.3-1.3-3.3-3.2v-3.7h-1.4V261l2.6-3.2h1.5v2zM63.8 264.6c0 2.8-2 5-4.7 5-.9 0-1.8-.3-2.5-.8v.6h-2.8v-14.5h2.8v5.4c.6-.5 1.5-.7 2.4-.7 2.8 0 4.8 2.2 4.8 5zm-2.8 0c0-1.3-.9-2.3-2.2-2.3-1.3 0-2.2 1-2.2 2.3 0 1.3.9 2.2 2.2 2.2 1.2 0 2.2-1 2.2-2.2zM73.5 263.4v6h-2.8v-.5c-.6.5-1.3.7-2.3.7-2 0-3.3-1.2-3.3-3 0-2 1.5-2.8 3.3-3l2.3-.2v-.1c0-.6-.6-1.1-1.4-1.1-.7 0-1.3.4-1.4.9h-2.7c.1-2 1.8-3.5 4.1-3.5 2.6 0 4.2 1.6 4.2 3.8zm-2.7 2.6v-.6l-1.9.2c-.7.1-1 .4-1 .9s.4.9 1.2.9c1.1-.1 1.7-.6 1.7-1.4zM80.3 259.6c1.8 0 3.3.9 4.2 2.2l-2.3 1.6c-.4-.6-1-1.1-1.9-1.1-1.3 0-2.2 1-2.2 2.3 0 1.3.9 2.2 2.2 2.2.8 0 1.5-.4 1.9-1.1l2.3 1.6c-.8 1.4-2.3 2.2-4.2 2.2-2.9 0-5-2.2-5-5 .1-2.7 2.1-4.9 5-4.9zM91.7 264.3l3.6 5h-3.4l-3.2-4.5v4.5H86v-14.5h2.8v8.9l3.2-4h3.5l-3.8 4.6zM105.3 259.8h2.9v2.7h-2.9v3.2c0 .6.4 1 1 1h1.9v2.7h-2.5c-1.9 0-3.3-1.3-3.3-3.2v-3.7H101V261l2.6-3.2h1.5v2zM114.4 259.6c2.9 0 5 2.2 5 5 0 2.7-2.1 5-5 5s-5-2.2-5-5 2.1-5 5-5zm0 7.2c1.3 0 2.2-1 2.2-2.2 0-1.3-.9-2.3-2.2-2.3-1.3 0-2.2 1-2.2 2.3 0 1.2.9 2.2 2.2 2.2z"/></g><g fill="#193062"><path d="M17.2 288.8h2.9v2.7h-2.9v3.2c0 .6.4 1 1 1h1.9v2.7h-2.5c-1.9 0-3.3-1.3-3.3-3.2v-3.7H13V290l2.6-3.2h1.5v2zM30.9 292.4v6h-2.8V293c0-.9-.6-1.7-1.6-1.7s-1.7.7-1.7 1.7v5.4H22v-14.5h2.8v5.4c.6-.5 1.4-.7 2.3-.7 2.2 0 3.8 1.6 3.8 3.8zM42.2 294.6h-6.7c.3.8 1.1 1.4 2.2 1.4.9 0 1.6-.5 2-1.1l2.2 1.3c-.8 1.4-2.4 2.4-4.3 2.4-2.9 0-5-2.2-5-5s2-5 4.8-5 4.8 2.1 4.8 5c.2.3.1.7 0 1zm-6.7-2.1h4.1c-.3-.9-1-1.4-2-1.4-1.1 0-1.8.5-2.1 1.4zM52.9 288.8h2.9v2.7h-2.9v3.2c0 .6.4 1 1 1h1.9v2.7h-2.5c-1.9 0-3.3-1.3-3.3-3.2v-3.7h-1.4V290l2.6-3.2h1.5v2zM66.6 292.4v6h-2.8V293c0-.9-.6-1.7-1.6-1.7s-1.7.7-1.7 1.7v5.4h-2.8v-14.5h2.8v5.4c.6-.5 1.4-.7 2.3-.7 2.2 0 3.8 1.6 3.8 3.8zM70.4 284.1c1 0 1.7.8 1.7 1.7 0 1-.7 1.7-1.7 1.7s-1.7-.8-1.7-1.7c0-1 .7-1.7 1.7-1.7zm1.4 14.3H69v-9.6h2.8v9.6zM83.2 292.4v6h-2.8V293c0-.9-.6-1.6-1.6-1.6s-1.6.7-1.6 1.6v5.4h-2.8v-9.6h2.8v.6c.6-.5 1.4-.8 2.3-.8 2.1 0 3.7 1.6 3.7 3.8zM94.6 288.8v9.3c0 2.6-1.9 4.5-4.8 4.5-2.2 0-3.9-1.2-4.4-3l2.6-1c.3.8.9 1.3 1.9 1.3 1.2 0 2-.7 2-1.9v-.7c-.6.5-1.4.7-2.3.7-2.6 0-4.5-2.1-4.5-4.7s1.9-4.7 4.5-4.7c.9 0 1.7.3 2.4.8v-.6h2.6zm-2.7 4.5c0-1.1-.9-2-2-2-1.2 0-2 .9-2 2s.9 2 2 2 2-.9 2-2zM100.5 296c.8 0 1.2-.3 1.2-.7 0-.3-.2-.5-.7-.5-.5-.1-1-.1-1.7-.2-1.9-.3-2.7-1.4-2.7-2.8 0-1.9 1.6-3.2 3.9-3.2s3.9 1.3 3.9 3.2h-2.7c0-.4-.5-.7-1.2-.7s-1.1.3-1.1.6.2.4.7.5c.6.1 1 .1 1.8.2 1.9.2 2.7 1.4 2.7 2.8 0 1.9-1.6 3.3-4 3.3-2.3 0-4-1.4-4-3.3h2.7c-.1.5.4.8 1.2.8zM119.7 288.8l-4.9 13.6h-2.9l1.5-4.2-3.4-9.4h3l1.8 5.2 1.9-5.2h3zM125.2 288.6c2.9 0 5 2.2 5 5 0 2.7-2.1 5-5 5s-5-2.2-5-5 2.1-5 5-5zm0 7.2c1.3 0 2.2-1 2.2-2.2 0-1.3-.9-2.3-2.2-2.3-1.3 0-2.2 1-2.2 2.3 0 1.2.9 2.2 2.2 2.2zM140.8 288.8v9.6H138v-.5c-.6.5-1.4.7-2.3.7-2.1 0-3.7-1.6-3.7-3.8v-6h2.8v5.4c0 .9.6 1.6 1.6 1.6s1.6-.7 1.6-1.6v-5.4h2.8z"/></g><g fill="#193062"><path d="M14 312.9h2.8v14.5H14v-14.5zM23.7 317.6c2.9 0 5 2.2 5 5 0 2.7-2.1 5-5 5s-5-2.2-5-5 2.1-5 5-5zm0 7.2c1.3 0 2.2-1 2.2-2.2 0-1.3-.9-2.3-2.2-2.3-1.3 0-2.2 1-2.2 2.3 0 1.2.9 2.2 2.2 2.2zM38.9 317.8l-3.5 9.6h-2.8l-3.5-9.6h3l1.9 5.3 1.8-5.3h3.1zM48.9 323.6h-6.7c.3.8 1.1 1.4 2.2 1.4.9 0 1.6-.5 2-1.1l2.2 1.3c-.8 1.4-2.4 2.4-4.3 2.4-2.9 0-5-2.2-5-5s2-5 4.8-5 4.8 2.1 4.8 5c.1.3.1.6 0 1zm-6.7-2.1h4.1c-.3-.9-1-1.4-2-1.4-1.1 0-1.9.5-2.1 1.4zM52.3 324c1 0 1.7.8 1.7 1.7 0 1-.7 1.7-1.7 1.7s-1.7-.8-1.7-1.7c0-1 .7-1.7 1.7-1.7zM69.3 325.5h-4.9l-.6 1.8h-2.9l4.5-13.9h3l4.5 13.9h-3l-.6-1.8zm-.9-2.8l-1.6-4.8-1.6 4.8h3.2zM84.3 322.6c0 2.8-2 5-4.7 5-.9 0-1.7-.3-2.4-.7v4.5h-2.8v-13.6h2.8v.6c.6-.5 1.5-.8 2.5-.8 2.6 0 4.6 2.2 4.6 5zm-2.8 0c0-1.3-.9-2.3-2.2-2.3-1.3 0-2.2 1-2.2 2.3 0 1.3.9 2.2 2.2 2.2 1.2 0 2.2-1 2.2-2.2zM96.1 322.6c0 2.8-2 5-4.7 5-.9 0-1.7-.3-2.4-.7v4.5h-2.8v-13.6H89v.6c.6-.5 1.5-.8 2.5-.8 2.6 0 4.6 2.2 4.6 5zm-2.8 0c0-1.3-.9-2.3-2.2-2.3-1.3 0-2.2 1-2.2 2.3 0 1.3.9 2.2 2.2 2.2 1.2 0 2.2-1 2.2-2.2zM97.9 312.9h2.8v14.5h-2.8v-14.5zM111.8 317.8l-4.9 13.6H104l1.5-4.2-3.4-9.4h3l1.8 5.2 1.9-5.2h3zM118.9 320.5H117v-2.7h1.9v-1.9c0-1.8 1.2-3 3.1-3h2.1v2.7h-1.6c-.5 0-.8.3-.8.8v1.5h2.4v2.7h-2.4v6.9h-2.8v-7zM130 317.6c2.9 0 5 2.2 5 5 0 2.7-2.1 5-5 5s-5-2.2-5-5 2.1-5 5-5zm0 7.2c1.3 0 2.2-1 2.2-2.2 0-1.3-.9-2.3-2.2-2.3-1.3 0-2.2 1-2.2 2.3 0 1.2.9 2.2 2.2 2.2zM142.9 317.8v2.8h-1.4c-1.1 0-1.8.8-1.8 1.9v4.9h-2.8v-9.6h2.8v.9c.5-.7 1.4-.9 2.2-.9h1z"/></g><g fill="#193062"><path d="M14.2 342.5h3v11h7.9v2.9H14.2v-13.9zM28.4 342c1 0 1.7.8 1.7 1.7 0 1-.7 1.7-1.7 1.7s-1.7-.8-1.7-1.7c-.1-.9.6-1.7 1.7-1.7zm1.4 14.3H27v-9.6h2.8v9.6zM33.2 349.5h-1.9v-2.7h1.9v-1.9c0-1.8 1.2-3 3.1-3h2.1v2.7h-1.6c-.5 0-.8.3-.8.8v1.5h2.4v2.7H36v6.9h-2.8v-7zM48.8 352.6h-6.7c.3.8 1.1 1.4 2.2 1.4.9 0 1.6-.5 2-1.1l2.2 1.3c-.8 1.4-2.4 2.4-4.3 2.4-2.9 0-5-2.2-5-5s2-5 4.8-5 4.8 2.1 4.8 5c.1.3.1.6 0 1zm-6.7-2.1h4.1c-.3-.9-1-1.4-2-1.4-1.1 0-1.9.5-2.1 1.4zM56.5 342.5h3v13.9h-3v-13.9zM71 350.4v6h-2.8V351c0-.9-.6-1.6-1.6-1.6s-1.6.7-1.6 1.6v5.4h-2.8v-9.6H65v.6c.6-.5 1.4-.8 2.3-.8 2.1 0 3.7 1.6 3.7 3.8zM76.8 354c.8 0 1.2-.3 1.2-.7 0-.3-.2-.5-.7-.5-.5-.1-1-.1-1.7-.2-1.9-.3-2.7-1.4-2.7-2.8 0-1.9 1.6-3.2 3.9-3.2s3.9 1.3 3.9 3.2H78c0-.4-.5-.7-1.2-.7s-1.1.3-1.1.6.2.4.7.5c.6.1 1 .1 1.8.2 1.9.2 2.7 1.4 2.7 2.8 0 1.9-1.6 3.3-4 3.3-2.3 0-4-1.4-4-3.3h2.7c-.1.5.4.8 1.2.8zM91.4 346.8v9.6h-2.8v-.5c-.6.5-1.4.7-2.3.7-2.1 0-3.7-1.6-3.7-3.8v-6h2.8v5.4c0 .9.6 1.6 1.6 1.6s1.6-.7 1.6-1.6v-5.4h2.8zM100 346.8v2.8h-1.4c-1.1 0-1.8.8-1.8 1.9v4.9H94v-9.6h2.8v.9c.5-.7 1.4-.9 2.2-.9h1zM109.2 350.3v6h-2.8v-.5c-.6.5-1.3.7-2.3.7-2 0-3.3-1.2-3.3-3 0-2 1.5-2.8 3.3-3l2.3-.2v-.1c0-.6-.6-1.1-1.4-1.1-.7 0-1.3.4-1.4.9H101c.1-2 1.8-3.5 4.1-3.5 2.4.1 4.1 1.7 4.1 3.8zm-2.7 2.7v-.6l-1.9.2c-.7.1-1 .4-1 .9s.4.9 1.2.9c1-.1 1.7-.6 1.7-1.4zM120.5 350.4v6h-2.8V351c0-.9-.6-1.6-1.6-1.6s-1.6.7-1.6 1.6v5.4h-2.8v-9.6h2.8v.6c.6-.5 1.4-.8 2.3-.8 2.1 0 3.7 1.6 3.7 3.8zM127.3 346.6c1.8 0 3.3.9 4.2 2.2l-2.3 1.6c-.4-.6-1-1.1-1.9-1.1-1.3 0-2.2 1-2.2 2.3 0 1.3.9 2.2 2.2 2.2.8 0 1.5-.4 1.9-1.1l2.3 1.6c-.8 1.4-2.3 2.2-4.2 2.2-2.9 0-5-2.2-5-5s2.1-4.9 5-4.9zM141.8 352.6h-6.7c.3.8 1.1 1.4 2.2 1.4.9 0 1.6-.5 2-1.1l2.2 1.3c-.8 1.4-2.4 2.4-4.3 2.4-2.9 0-5-2.2-5-5s2-5 4.8-5 4.8 2.1 4.8 5c.1.3.1.6 0 1zm-6.7-2.1h4.1c-.3-.9-1-1.4-2-1.4-1.1 0-1.9.5-2.1 1.4z"/></g><g fill="#193062"><path d="M15.4 371c1 0 1.7.8 1.7 1.7 0 1-.7 1.7-1.7 1.7s-1.7-.8-1.7-1.7c0-.9.7-1.7 1.7-1.7zm1.5 14.3H14v-9.6h2.8v9.6zM28.2 379.4v6h-2.8V380c0-.9-.6-1.6-1.6-1.6s-1.6.7-1.6 1.6v5.4h-2.8v-9.6h2.8v.6c.6-.5 1.4-.8 2.3-.8 2.1 0 3.7 1.6 3.7 3.8zM50.1 379.1v6.2h-2.8v-5.6c0-.8-.5-1.4-1.4-1.4-.8 0-1.4.6-1.4 1.4v5.6h-2.8v-5.6c0-.8-.5-1.4-1.4-1.4-.8 0-1.4.6-1.4 1.4v5.6h-2.8v-9.6h2.8v.5c.6-.4 1.3-.7 2.1-.7 1 0 1.9.4 2.5 1 .7-.6 1.6-1 2.7-1 2.3.1 3.9 1.5 3.9 3.6zM54 371c1 0 1.7.8 1.7 1.7 0 1-.7 1.7-1.7 1.7s-1.7-.8-1.7-1.7c0-.9.7-1.7 1.7-1.7zm1.4 14.3h-2.8v-9.6h2.8v9.6zM66.8 379.4v6H64V380c0-.9-.6-1.6-1.6-1.6s-1.6.7-1.6 1.6v5.4H58v-9.6h2.8v.6c.6-.5 1.4-.8 2.3-.8 2.1 0 3.7 1.6 3.7 3.8zM78 375.8v9.6h-2.8v-.5c-.6.5-1.4.7-2.3.7-2.1 0-3.7-1.6-3.7-3.8v-6H72v5.4c0 .9.6 1.6 1.6 1.6s1.6-.7 1.6-1.6v-5.4H78zM83.6 375.8h2.9v2.7h-2.9v3.2c0 .6.4 1 1 1h1.9v2.7H84c-1.9 0-3.3-1.3-3.3-3.2v-3.7h-1.4V377l2.6-3.2h1.5v2zM97.3 381.6h-6.7c.3.8 1.1 1.4 2.2 1.4.9 0 1.6-.5 2-1.1l2.2 1.3c-.8 1.4-2.4 2.4-4.3 2.4-2.9 0-5-2.2-5-5s2-5 4.8-5 4.8 2.1 4.8 5c.1.3.1.6 0 1zm-6.7-2.1h4.1c-.3-.9-1-1.4-2-1.4-1.1 0-1.9.5-2.1 1.4zM102.7 383c.8 0 1.2-.3 1.2-.7 0-.3-.2-.5-.7-.5-.5-.1-1-.1-1.7-.2-1.9-.3-2.7-1.4-2.7-2.8 0-1.9 1.6-3.2 3.9-3.2s3.9 1.3 3.9 3.2h-2.7c0-.4-.5-.7-1.2-.7s-1.1.3-1.1.6.2.4.7.5c.6.1 1 .1 1.8.2 1.9.2 2.7 1.4 2.7 2.8 0 1.9-1.6 3.3-4 3.3-2.3 0-4-1.4-4-3.3h2.7c-.1.5.4.8 1.2.8zM110 382c1 0 1.7.8 1.7 1.7 0 1-.7 1.7-1.7 1.7s-1.7-.8-1.7-1.7c0-1 .7-1.7 1.7-1.7z"/></g></svg>