<svg baseProfile="tiny" xmlns="http://www.w3.org/2000/svg" viewBox="0 0 160 600" overflow="visible"><path fill="#193062" d="M-.5 539.4H160v60.9H-.5z"/><path fill="#FAE07E" d="M30.7 560.3h15.2v4.2H30.7z"/><path fill="#FFF" d="M47.2 560.3h3.7v4.2h-3.7z"/><path fill="#FAE07E" d="M30.7 565.6H42v4.2H30.7z"/><path fill="#FFF" d="M43.4 565.6h7.5v4.2h-7.5z"/><path fill="#FAE07E" d="M30.7 570.9h7.5v4.2h-7.5z"/><path fill="#FFF" d="M39.5 570.9h11.3v4.2H39.5z"/><path fill="#FAE07E" d="M30.7 576.2h3.7v4.2h-3.7z"/><path fill="#FFF" d="M35.7 576.2h15.2v4.2H35.7zM62.7 566.4h-3.4v-1.9H68v1.9h-3.4v9.8h-1.9z"/><path fill="none" d="M120.8 569.3c-1 0-2.1.6-2.4 1.8h4.6c-.2-1.1-1.2-1.8-2.2-1.8zM111.2 569.4c-1.4 0-2.4 1.1-2.4 2.5 0 1.5 1 2.5 2.4 2.5s2.4-1.1 2.4-2.5c.1-1.4-1-2.5-2.4-2.5zM101.5 569.4c-1.5 0-2.4 1.2-2.4 2.6s1 2.6 2.4 2.6 2.4-1.2 2.4-2.6-.9-2.6-2.4-2.6z"/><path fill="#FFF" d="M67.6 568v8.2h1.8v-4c0-1.6.9-2.5 2-2.5.3 0 .6 0 .9.1V568c-.2 0-.5-.1-.7-.1-.9 0-1.9.6-2.2 1.5V568h-1.8zM73.6 568v4.9c0 2.1 1.2 3.5 3.1 3.5 1 0 1.9-.5 2.4-1.3v1.1h1.8V568h-1.8v4.1c0 1.8-.8 2.7-2 2.7-1 0-1.6-.8-1.6-2.1V568h-1.9zM86.3 574.6c-1.1 0-2.1-.6-2.7-1.5l-1.5 1.2c.7 1.3 2.3 2.1 4.2 2.1 2.3 0 3.9-1.3 3.9-3.4 0-1.7-1-2.8-2.7-3.4l-1.2-.4c-1.2-.4-1.8-.8-1.8-1.7 0-.8.9-1.3 1.8-1.3s1.6.4 2.2 1.1l1.3-1.3c-.9-1-2.1-1.6-3.5-1.6-2.2 0-3.8 1.3-3.8 3.3 0 1.6.9 2.6 2.8 3.3l1.3.5c1.1.4 1.7 1 1.7 1.8-.1.7-.9 1.3-2 1.3zM105.6 576.2V568h-1.8v1.1c-.5-.7-1.4-1.3-2.6-1.3-2.2 0-4 1.9-4 4.3s1.7 4.3 4 4.3c1.2 0 2.2-.6 2.6-1.3v1.1h1.8zm-4.1-1.5c-1.5 0-2.4-1.2-2.4-2.6s1-2.6 2.4-2.6 2.4 1.2 2.4 2.6-.9 2.6-2.4 2.6zM111 578.2c-1.1 0-2-.4-2.7-1.2l-1.1 1.3c.8.9 2.2 1.5 3.8 1.5 2.4 0 4.3-1.3 4.3-4.2V568h-1.8v1.1c-.5-.7-1.5-1.3-2.6-1.3-2.2 0-3.9 1.8-3.9 4.2 0 2.3 1.7 4.2 3.9 4.2 1.1 0 2.1-.6 2.6-1.3v.8c0 1.6-1.1 2.5-2.5 2.5zm.2-3.7c-1.4 0-2.4-1.1-2.4-2.5 0-1.5 1-2.5 2.4-2.5s2.4 1.1 2.4 2.5c.1 1.4-1 2.5-2.4 2.5zM120.9 567.8c-2.5 0-4.3 1.9-4.3 4.3 0 2.5 1.8 4.3 4.3 4.3 1.7 0 3-.7 3.7-1.9l-1.4-1c-.4.7-1.2 1.3-2.3 1.3-1.4 0-2.4-.9-2.5-2.2h6.5v-.6c-.1-2.8-1.9-4.2-4-4.2zm-2.5 3.4c.2-1.2 1.3-1.8 2.4-1.8 1.1 0 2 .6 2.2 1.8h-4.6zM92.2 565.7v1c0 .7-.6 1.3-1.2 1.3h-.5v1.6h1.7v4c0 1.9 1.2 2.7 2.8 2.7.6 0 1-.1 1.3-.2v-1.6c-.3.1-.6.2-1 .2-.9 0-1.4-.4-1.4-1.4v-3.7h2.3V568H94v-2.3h-1.8zM125.9 566.6l-.4-.9h-.3v1.4h.3v-.9l.4.9.4-.8v.8h.3v-1.4h-.3zM124.5 567.1V566h.5v-.3h-1.2v.3h.4v1.1z"/></svg>