<?xml version="1.0" encoding="utf-8"?>
<!-- Generator: Adobe Illustrator 27.4.0, SVG Export Plug-In . SVG Version: 6.00 Build 0)  -->
<svg version="1.1" baseProfile="tiny" id="Layer_1" xmlns="http://www.w3.org/2000/svg" xmlns:xlink="http://www.w3.org/1999/xlink"
	 x="0px" y="0px" viewBox="0 0 300 50" overflow="visible" xml:space="preserve">
<g>
	<path fill="#193062" d="M61.7,8.6h5.7v1.5h-4.2v1.3h2.3V13h-2.3v2.9h-1.6V8.6z"/>
	<path fill="#193062" d="M69.1,8.4c0.5,0,0.9,0.4,0.9,0.9c0,0.5-0.4,0.9-0.9,0.9c-0.5,0-0.9-0.4-0.9-0.9C68.2,8.8,68.6,8.4,69.1,8.4
		z M69.9,15.9h-1.5v-5h1.5V15.9z"/>
	<path fill="#193062" d="M75.8,12.7v3.1h-1.5V13c0-0.5-0.3-0.9-0.8-0.9c-0.5,0-0.9,0.4-0.9,0.9v2.8h-1.5v-5h1.4v0.3
		c0.3-0.2,0.7-0.4,1.2-0.4C75,10.7,75.8,11.6,75.8,12.7z"/>
	<path fill="#193062" d="M82,8.3v7.6h-1.4v-0.3c-0.3,0.3-0.8,0.4-1.3,0.4c-1.5,0-2.5-1.2-2.5-2.6c0-1.5,1-2.6,2.5-2.6
		c0.5,0,0.9,0.1,1.3,0.4V8.3H82z M80.6,13.4c0-0.7-0.5-1.2-1.2-1.2c-0.7,0-1.1,0.5-1.1,1.2c0,0.7,0.5,1.2,1.1,1.2
		C80.1,14.6,80.6,14,80.6,13.4z"/>
	<path fill="#193062" d="M86.3,8.6h1.6v5.8h4.2v1.5h-5.7V8.6z"/>
	<path fill="#193062" d="M93.8,8.4c0.5,0,0.9,0.4,0.9,0.9c0,0.5-0.4,0.9-0.9,0.9c-0.5,0-0.9-0.4-0.9-0.9C92.8,8.8,93.2,8.4,93.8,8.4
		z M94.5,15.9H93v-5h1.5V15.9z"/>
	<path fill="#193062" d="M96.3,12.3h-1v-1.4h1v-1c0-1,0.6-1.6,1.6-1.6h1.1v1.4h-0.9c-0.2,0-0.4,0.1-0.4,0.4v0.8h1.3v1.4h-1.3v3.6
		h-1.5V12.3z"/>
	<path fill="#193062" d="M104.5,13.9H101c0.2,0.4,0.6,0.7,1.1,0.7c0.5,0,0.8-0.2,1-0.6l1.2,0.7c-0.4,0.8-1.3,1.2-2.2,1.2
		c-1.5,0-2.6-1.1-2.6-2.6c0-1.5,1-2.6,2.5-2.6c1.5,0,2.5,1.1,2.5,2.6C104.6,13.5,104.6,13.7,104.5,13.9z M101,12.8h2.1
		c-0.1-0.5-0.5-0.7-1.1-0.7C101.5,12.1,101.1,12.4,101,12.8z"/>
	<path fill="#193062" d="M108.5,8.6h1.6v7.3h-1.6V8.6z"/>
	<path fill="#193062" d="M116.2,12.7v3.1h-1.5V13c0-0.5-0.3-0.9-0.8-0.9c-0.5,0-0.9,0.4-0.9,0.9v2.8h-1.5v-5h1.4v0.3
		c0.3-0.2,0.7-0.4,1.2-0.4C115.3,10.7,116.2,11.6,116.2,12.7z"/>
	<path fill="#193062" d="M119.3,14.7c0.4,0,0.6-0.2,0.6-0.4c0-0.1-0.1-0.2-0.4-0.3c-0.2,0-0.5,0-0.9-0.1c-1-0.1-1.4-0.7-1.4-1.5
		c0-1,0.8-1.7,2-1.7c1.2,0,2,0.7,2,1.7h-1.4c0-0.2-0.2-0.4-0.6-0.4c-0.4,0-0.6,0.1-0.6,0.3c0,0.1,0.1,0.2,0.4,0.2
		c0.3,0,0.5,0,0.9,0.1c1,0.1,1.4,0.7,1.4,1.5c0,1-0.8,1.8-2.1,1.8c-1.2,0-2.1-0.7-2.1-1.7h1.4C118.6,14.5,118.9,14.7,119.3,14.7z"/>
	<path fill="#193062" d="M126.9,10.9v5h-1.4v-0.3c-0.3,0.2-0.7,0.4-1.2,0.4c-1.1,0-2-0.8-2-2v-3.2h1.5v2.9c0,0.5,0.3,0.8,0.8,0.8
		s0.8-0.4,0.8-0.8v-2.9H126.9z"/>
	<path fill="#193062" d="M131.4,10.9v1.5h-0.7c-0.6,0-1,0.4-1,1v2.6h-1.5v-5h1.4v0.4c0.3-0.4,0.7-0.4,1.2-0.4H131.4z"/>
	<path fill="#193062" d="M136.3,12.7v3.2h-1.4v-0.3c-0.3,0.3-0.7,0.4-1.2,0.4c-1,0-1.8-0.6-1.8-1.6c0-1,0.8-1.5,1.8-1.6l1.2-0.1
		v-0.1c0-0.3-0.3-0.6-0.7-0.6c-0.4,0-0.7,0.2-0.7,0.5H132c0.1-1,0.9-1.8,2.1-1.8C135.4,10.7,136.3,11.6,136.3,12.7z M134.9,14.1
		v-0.3l-1,0.1c-0.4,0-0.5,0.2-0.5,0.4c0,0.3,0.2,0.5,0.6,0.5C134.5,14.8,134.9,14.6,134.9,14.1z"/>
	<path fill="#193062" d="M142.3,12.7v3.1h-1.5V13c0-0.5-0.3-0.9-0.8-0.9c-0.5,0-0.9,0.4-0.9,0.9v2.8h-1.5v-5h1.4v0.3
		c0.3-0.2,0.7-0.4,1.2-0.4C141.4,10.7,142.3,11.6,142.3,12.7z"/>
	<path fill="#193062" d="M145.8,10.7c1,0,1.7,0.5,2.2,1.2l-1.2,0.8c-0.2-0.3-0.5-0.6-1-0.6c-0.7,0-1.1,0.5-1.1,1.2
		c0,0.7,0.5,1.2,1.1,1.2c0.4,0,0.8-0.2,1-0.6l1.2,0.8c-0.4,0.7-1.2,1.2-2.2,1.2c-1.5,0-2.6-1.1-2.6-2.6S144.3,10.7,145.8,10.7z"/>
	<path fill="#193062" d="M153.5,13.9H150c0.2,0.4,0.6,0.7,1.1,0.7c0.5,0,0.8-0.2,1-0.6l1.2,0.7c-0.4,0.8-1.3,1.2-2.2,1.2
		c-1.5,0-2.6-1.1-2.6-2.6c0-1.5,1-2.6,2.5-2.6c1.5,0,2.5,1.1,2.5,2.6C153.5,13.5,153.5,13.7,153.5,13.9z M149.9,12.8h2.1
		c-0.1-0.5-0.5-0.7-1.1-0.7C150.5,12.1,150.1,12.4,149.9,12.8z"/>
	<path fill="#193062" d="M157.9,12.3h-1v-1.4h1v-1c0-1,0.6-1.6,1.6-1.6h1.1v1.4h-0.9c-0.2,0-0.4,0.1-0.4,0.4v0.8h1.3v1.4h-1.3v3.6
		h-1.5V12.3z"/>
	<path fill="#193062" d="M163.7,10.7c1.5,0,2.6,1.1,2.6,2.6c0,1.4-1.1,2.6-2.6,2.6c-1.5,0-2.6-1.2-2.6-2.6
		C161.1,11.9,162.2,10.7,163.7,10.7z M163.7,14.6c0.7,0,1.2-0.5,1.2-1.2c0-0.7-0.5-1.2-1.2-1.2s-1.2,0.5-1.2,1.2
		C162.6,14,163,14.6,163.7,14.6z"/>
	<path fill="#193062" d="M170.5,10.9v1.5h-0.7c-0.6,0-1,0.4-1,1v2.6h-1.5v-5h1.4v0.4c0.3-0.4,0.7-0.4,1.2-0.4H170.5z"/>
	<path fill="#193062" d="M178.4,10.9l-2.6,7.2h-1.5l0.8-2.2l-1.8-4.9h1.6l1,2.7l1-2.7H178.4z"/>
	<path fill="#193062" d="M181.3,10.7c1.5,0,2.6,1.1,2.6,2.6c0,1.4-1.1,2.6-2.6,2.6c-1.5,0-2.6-1.2-2.6-2.6
		C178.7,11.9,179.8,10.7,181.3,10.7z M181.3,14.6c0.7,0,1.2-0.5,1.2-1.2c0-0.7-0.5-1.2-1.2-1.2s-1.2,0.5-1.2,1.2
		C180.2,14,180.6,14.6,181.3,14.6z"/>
	<path fill="#193062" d="M189.5,10.9v5h-1.4v-0.3c-0.3,0.2-0.8,0.4-1.2,0.4c-1.1,0-2-0.8-2-2v-3.2h1.5v2.9c0,0.5,0.3,0.8,0.8,0.8
		s0.8-0.4,0.8-0.8v-2.9H189.5z"/>
	<path fill="#193062" d="M194.1,10.9v1.5h-0.7c-0.6,0-1,0.4-1,1v2.6h-1.5v-5h1.4v0.4c0.3-0.4,0.7-0.4,1.2-0.4H194.1z"/>
	<path fill="#193062" d="M198.3,12.3h-1v-1.4h1v-1c0-1,0.6-1.6,1.6-1.6h1.1v1.4h-0.9c-0.2,0-0.4,0.1-0.4,0.4v0.8h1.3v1.4h-1.3v3.6
		h-1.5V12.3z"/>
	<path fill="#193062" d="M205.9,12.7v3.2h-1.4v-0.3c-0.3,0.3-0.7,0.4-1.2,0.4c-1,0-1.8-0.6-1.8-1.6c0-1,0.8-1.5,1.8-1.6l1.2-0.1
		v-0.1c0-0.3-0.3-0.6-0.7-0.6c-0.4,0-0.7,0.2-0.7,0.5h-1.4c0.1-1,0.9-1.8,2.1-1.8C205.1,10.7,205.9,11.6,205.9,12.7z M204.5,14.1
		v-0.3l-1,0.1c-0.4,0-0.5,0.2-0.5,0.4c0,0.3,0.2,0.5,0.6,0.5C204.2,14.8,204.5,14.6,204.5,14.1z"/>
	<path fill="#193062" d="M214.6,12.6v3.3h-1.5v-3c0-0.4-0.3-0.7-0.7-0.7c-0.4,0-0.7,0.3-0.7,0.7v3h-1.5v-3c0-0.4-0.3-0.7-0.7-0.7
		c-0.4,0-0.7,0.3-0.7,0.7v3h-1.5v-5h1.4v0.2c0.3-0.2,0.7-0.3,1.1-0.3c0.5,0,1,0.2,1.3,0.5c0.3-0.3,0.8-0.5,1.4-0.5
		C213.7,10.7,214.6,11.5,214.6,12.6z"/>
	<path fill="#193062" d="M216.6,8.4c0.5,0,0.9,0.4,0.9,0.9c0,0.5-0.4,0.9-0.9,0.9c-0.5,0-0.9-0.4-0.9-0.9
		C215.7,8.8,216.1,8.4,216.6,8.4z M217.4,15.9h-1.5v-5h1.5V15.9z"/>
	<path fill="#193062" d="M218.7,8.3h1.5v7.6h-1.5V8.3z"/>
	<path fill="#193062" d="M226,10.9l-2.6,7.2h-1.5l0.8-2.2l-1.8-4.9h1.6l1,2.7l1-2.7H226z"/>
</g>
<g>
	<path fill="#193062" d="M68.7,23.9l-1.7,5h-1.5l-0.6-2.1l-0.6,2.1h-1.5l-1.7-5h1.6l0.9,2.9l0.9-2.9h1l0.8,2.7l0.9-2.7H68.7z"/>
	<path fill="#193062" d="M70.1,21.4c0.5,0,0.9,0.4,0.9,0.9c0,0.5-0.4,0.9-0.9,0.9c-0.5,0-0.9-0.4-0.9-0.9
		C69.2,21.8,69.6,21.4,70.1,21.4z M70.9,28.9h-1.5v-5h1.5V28.9z"/>
	<path fill="#193062" d="M73.9,23.9h1.5v1.4h-1.5v1.7c0,0.3,0.2,0.5,0.5,0.5h1v1.4h-1.3c-1,0-1.7-0.7-1.7-1.7v-1.9h-0.7v-0.8
		l1.4-1.7h0.8V23.9z"/>
	<path fill="#193062" d="M81.1,25.8v3.1h-1.5v-2.8c0-0.5-0.3-0.9-0.8-0.9c-0.5,0-0.9,0.4-0.9,0.9v2.8h-1.5v-7.6h1.5v2.8
		c0.3-0.2,0.7-0.4,1.2-0.4C80.2,23.7,81.1,24.6,81.1,25.8z"/>
	<path fill="#193062" d="M87.5,23.7c1,0,1.7,0.5,2.2,1.2l-1.2,0.8c-0.2-0.3-0.5-0.6-1-0.6c-0.7,0-1.1,0.5-1.1,1.2s0.5,1.2,1.1,1.2
		c0.4,0,0.8-0.2,1-0.6l1.2,0.8c-0.4,0.7-1.2,1.2-2.2,1.2c-1.5,0-2.6-1.1-2.6-2.6S86,23.7,87.5,23.7z"/>
	<path fill="#193062" d="M90.5,21.3H92v7.6h-1.5V21.3z"/>
	<path fill="#193062" d="M98,26.9h-3.5c0.2,0.4,0.6,0.7,1.1,0.7c0.5,0,0.8-0.2,1-0.6l1.2,0.7c-0.4,0.8-1.3,1.2-2.2,1.2
		c-1.5,0-2.6-1.1-2.6-2.6c0-1.5,1-2.6,2.5-2.6c1.5,0,2.5,1.1,2.5,2.6C98,26.5,98,26.7,98,26.9z M94.4,25.8h2.1
		c-0.1-0.5-0.5-0.7-1.1-0.7C95,25.1,94.6,25.4,94.4,25.8z"/>
	<path fill="#193062" d="M103.2,25.7v3.2h-1.4v-0.3c-0.3,0.3-0.7,0.4-1.2,0.4c-1,0-1.8-0.7-1.8-1.6c0-1,0.8-1.5,1.8-1.6l1.2-0.1
		v-0.1c0-0.3-0.3-0.6-0.7-0.6c-0.4,0-0.7,0.2-0.7,0.5h-1.4c0.1-1,0.9-1.8,2.1-1.8C102.3,23.7,103.2,24.6,103.2,25.7z M101.7,27.1
		v-0.3l-1,0.1c-0.4,0-0.5,0.2-0.5,0.5c0,0.3,0.2,0.5,0.6,0.5C101.4,27.8,101.7,27.6,101.7,27.1z"/>
	<path fill="#193062" d="M107.7,23.9v1.5h-0.7c-0.6,0-1,0.4-1,1v2.6h-1.5v-5h1.4v0.4c0.3-0.4,0.7-0.4,1.2-0.4H107.7z"/>
	<path fill="#193062" d="M112.1,21.4c0.5,0,0.9,0.4,0.9,0.9c0,0.5-0.4,0.9-0.9,0.9c-0.5,0-0.9-0.4-0.9-0.9
		C111.2,21.8,111.6,21.4,112.1,21.4z M112.9,28.9h-1.5v-5h1.5V28.9z"/>
	<path fill="#193062" d="M118.9,25.7v3.1h-1.5V26c0-0.5-0.3-0.9-0.8-0.9c-0.5,0-0.9,0.4-0.9,0.9v2.8h-1.5v-5h1.4v0.3
		c0.3-0.2,0.7-0.4,1.2-0.4C118,23.7,118.9,24.6,118.9,25.7z"/>
	<path fill="#193062" d="M120.6,25.3h-1v-1.4h1v-1c0-1,0.6-1.6,1.6-1.6h1.1v1.4h-0.9c-0.2,0-0.4,0.1-0.4,0.4v0.8h1.3v1.4h-1.3v3.6
		h-1.5V25.3z"/>
	<path fill="#193062" d="M126.4,23.7c1.5,0,2.6,1.1,2.6,2.6c0,1.4-1.1,2.6-2.6,2.6c-1.5,0-2.6-1.2-2.6-2.6
		C123.8,24.9,124.9,23.7,126.4,23.7z M126.4,27.6c0.7,0,1.2-0.5,1.2-1.2c0-0.7-0.5-1.2-1.2-1.2c-0.7,0-1.2,0.5-1.2,1.2
		C125.3,27,125.8,27.6,126.4,27.6z"/>
	<path fill="#193062" d="M133.2,23.9v1.5h-0.7c-0.6,0-1,0.4-1,1v2.6H130v-5h1.4v0.4c0.3-0.4,0.7-0.4,1.2-0.4H133.2z"/>
	<path fill="#193062" d="M141.4,25.6v3.3H140v-3c0-0.4-0.3-0.7-0.7-0.7c-0.4,0-0.7,0.3-0.7,0.7v3H137v-3c0-0.4-0.3-0.7-0.7-0.7
		c-0.4,0-0.7,0.3-0.7,0.7v3h-1.5v-5h1.4v0.2c0.3-0.2,0.7-0.3,1.1-0.3c0.5,0,1,0.2,1.3,0.5c0.4-0.3,0.8-0.5,1.4-0.5
		C140.6,23.7,141.4,24.5,141.4,25.6z"/>
	<path fill="#193062" d="M146.9,25.7v3.2h-1.4v-0.3c-0.3,0.3-0.7,0.4-1.2,0.4c-1,0-1.8-0.7-1.8-1.6c0-1,0.8-1.5,1.8-1.6l1.2-0.1
		v-0.1c0-0.3-0.3-0.6-0.7-0.6c-0.4,0-0.7,0.2-0.7,0.5h-1.4c0.1-1,0.9-1.8,2.1-1.8C146,23.7,146.9,24.6,146.9,25.7z M145.4,27.1v-0.3
		l-1,0.1c-0.4,0-0.5,0.2-0.5,0.5c0,0.3,0.2,0.5,0.6,0.5C145.1,27.8,145.4,27.6,145.4,27.1z"/>
	<path fill="#193062" d="M149.8,23.9h1.5v1.4h-1.5v1.7c0,0.3,0.2,0.5,0.5,0.5h1v1.4h-1.3c-1,0-1.7-0.7-1.7-1.7v-1.9h-0.7v-0.8
		l1.4-1.7h0.8V23.9z"/>
	<path fill="#193062" d="M153.1,21.4c0.5,0,0.9,0.4,0.9,0.9c0,0.5-0.4,0.9-0.9,0.9c-0.5,0-0.9-0.4-0.9-0.9
		C152.2,21.8,152.6,21.4,153.1,21.4z M153.8,28.9h-1.5v-5h1.5V28.9z"/>
	<path fill="#193062" d="M157.4,23.7c1.5,0,2.6,1.1,2.6,2.6c0,1.4-1.1,2.6-2.6,2.6c-1.5,0-2.6-1.2-2.6-2.6
		C154.8,24.9,155.9,23.7,157.4,23.7z M157.4,27.6c0.7,0,1.2-0.5,1.2-1.2c0-0.7-0.5-1.2-1.2-1.2s-1.2,0.5-1.2,1.2
		C156.3,27,156.8,27.6,157.4,27.6z"/>
	<path fill="#193062" d="M165.7,25.7v3.1h-1.5V26c0-0.5-0.3-0.9-0.8-0.9s-0.9,0.4-0.9,0.9v2.8h-1.5v-5h1.4v0.3
		c0.3-0.2,0.8-0.4,1.2-0.4C164.9,23.7,165.7,24.6,165.7,25.7z"/>
	<path fill="#193062" d="M170.4,25.3h-1v-1.4h1v-1c0-1,0.6-1.6,1.6-1.6h1.1v1.4h-0.9c-0.2,0-0.4,0.1-0.4,0.4v0.8h1.3v1.4h-1.3v3.6
		h-1.5V25.3z"/>
	<path fill="#193062" d="M177.2,23.9v1.5h-0.7c-0.6,0-1,0.4-1,1v2.6H174v-5h1.4v0.4c0.3-0.4,0.7-0.4,1.2-0.4H177.2z"/>
	<path fill="#193062" d="M180.4,23.7c1.5,0,2.6,1.1,2.6,2.6c0,1.4-1.1,2.6-2.6,2.6c-1.5,0-2.6-1.2-2.6-2.6
		C177.7,24.9,178.8,23.7,180.4,23.7z M180.4,27.6c0.7,0,1.2-0.5,1.2-1.2c0-0.7-0.5-1.2-1.2-1.2s-1.2,0.5-1.2,1.2
		C179.2,27,179.7,27.6,180.4,27.6z"/>
	<path fill="#193062" d="M191.3,25.6v3.3h-1.5v-3c0-0.4-0.3-0.7-0.7-0.7c-0.4,0-0.7,0.3-0.7,0.7v3h-1.5v-3c0-0.4-0.3-0.7-0.7-0.7
		c-0.4,0-0.7,0.3-0.7,0.7v3H184v-5h1.4v0.2c0.3-0.2,0.7-0.3,1.1-0.3c0.5,0,1,0.2,1.3,0.5c0.3-0.3,0.8-0.5,1.4-0.5
		C190.5,23.7,191.3,24.5,191.3,25.6z"/>
	<path fill="#193062" d="M197.2,23.9h1.5v1.4h-1.5v1.7c0,0.3,0.2,0.5,0.5,0.5h1v1.4h-1.3c-1,0-1.7-0.7-1.7-1.7v-1.9H195v-0.8
		l1.4-1.7h0.8V23.9z"/>
	<path fill="#193062" d="M204.4,25.8v3.1h-1.5v-2.8c0-0.5-0.3-0.9-0.8-0.9c-0.5,0-0.9,0.4-0.9,0.9v2.8h-1.5v-7.6h1.5v2.8
		c0.3-0.2,0.7-0.4,1.2-0.4C203.5,23.7,204.4,24.6,204.4,25.8z"/>
	<path fill="#193062" d="M210.3,26.9h-3.5c0.2,0.4,0.6,0.7,1.1,0.7c0.5,0,0.8-0.2,1-0.6l1.2,0.7c-0.4,0.8-1.3,1.2-2.2,1.2
		c-1.5,0-2.6-1.1-2.6-2.6c0-1.5,1-2.6,2.5-2.6c1.5,0,2.5,1.1,2.5,2.6C210.4,26.5,210.4,26.7,210.3,26.9z M206.8,25.8h2.1
		c-0.1-0.5-0.5-0.7-1.1-0.7C207.3,25.1,206.9,25.4,206.8,25.8z"/>
	<path fill="#193062" d="M216.1,27.7c0.4,0,0.6-0.2,0.6-0.4c0-0.2-0.1-0.2-0.4-0.3c-0.2,0-0.5,0-0.9-0.1c-1-0.1-1.4-0.7-1.4-1.5
		c0-1,0.8-1.7,2-1.7c1.2,0,2,0.7,2,1.7h-1.4c0-0.2-0.2-0.4-0.6-0.4c-0.4,0-0.6,0.1-0.6,0.3c0,0.1,0.1,0.2,0.3,0.2
		c0.3,0,0.5,0,0.9,0.1c1,0.1,1.4,0.7,1.4,1.5c0,1-0.8,1.8-2.1,1.8c-1.2,0-2.1-0.7-2.1-1.7h1.4C215.4,27.5,215.7,27.7,216.1,27.7z"/>
	<path fill="#193062" d="M220.8,23.9h1.5v1.4h-1.5v1.7c0,0.3,0.2,0.5,0.5,0.5h1v1.4H221c-1,0-1.7-0.7-1.7-1.7v-1.9h-0.7v-0.8
		l1.4-1.7h0.8V23.9z"/>
	<path fill="#193062" d="M227.5,25.7v3.2H226v-0.3c-0.3,0.3-0.7,0.4-1.2,0.4c-1,0-1.8-0.7-1.8-1.6c0-1,0.8-1.5,1.8-1.6l1.2-0.1v-0.1
		c0-0.3-0.3-0.6-0.7-0.6c-0.4,0-0.7,0.2-0.7,0.5h-1.4c0.1-1,0.9-1.8,2.1-1.8C226.6,23.7,227.5,24.6,227.5,25.7z M226,27.1v-0.3
		l-1,0.1c-0.4,0-0.5,0.2-0.5,0.5c0,0.3,0.2,0.5,0.6,0.5C225.7,27.8,226,27.6,226,27.1z"/>
	<path fill="#193062" d="M232,23.9v1.5h-0.7c-0.6,0-1,0.4-1,1v2.6h-1.5v-5h1.4v0.4c0.3-0.4,0.7-0.4,1.2-0.4H232z"/>
	<path fill="#193062" d="M234.6,23.9h1.5v1.4h-1.5v1.7c0,0.3,0.2,0.5,0.5,0.5h1v1.4h-1.3c-1,0-1.7-0.7-1.7-1.7v-1.9h-0.7v-0.8
		l1.4-1.7h0.8V23.9z"/>
	<path fill="#193062" d="M238,27.1c0.5,0,0.9,0.4,0.9,0.9c0,0.5-0.4,0.9-0.9,0.9c-0.5,0-0.9-0.4-0.9-0.9
		C237,27.5,237.4,27.1,238,27.1z"/>
</g>
</svg>
