<?xml version="1.0" encoding="utf-8"?>
<!-- Generator: Adobe Illustrator 27.4.0, SVG Export Plug-In . SVG Version: 6.00 Build 0)  -->
<svg version="1.1" baseProfile="tiny" id="Layer_1" xmlns="http://www.w3.org/2000/svg" xmlns:xlink="http://www.w3.org/1999/xlink"
	 x="0px" y="0px" viewBox="0 0 300 250" overflow="visible" xml:space="preserve">
<g>
	<path fill="#193062" d="M10.8,73.7h2.5v4.6h4.5v-4.6h2.5v11.7h-2.5v-4.7h-4.5v4.7h-2.5V73.7z"/>
	<path fill="#193062" d="M30,82.2h-5.6c0.3,0.7,1,1.2,1.8,1.2c0.8,0,1.3-0.4,1.7-0.9l1.9,1.1c-0.7,1.2-2,2-3.6,2
		c-2.4,0-4.2-1.8-4.2-4.2c0-2.4,1.7-4.2,4.1-4.2c2.4,0,4,1.8,4,4.2C30.1,81.6,30,81.9,30,82.2z M24.3,80.5h3.4
		c-0.2-0.8-0.9-1.2-1.7-1.2C25.2,79.3,24.5,79.7,24.3,80.5z"/>
	<path fill="#193062" d="M31.6,73.2H34v12.2h-2.4V73.2z"/>
	<path fill="#193062" d="M44.5,81.4c0,2.3-1.6,4.2-4,4.2c-0.8,0-1.5-0.2-2-0.6v3.8h-2.4V77.3h2.3v0.5c0.5-0.4,1.3-0.6,2.1-0.6
		C42.8,77.1,44.5,79,44.5,81.4z M42.1,81.4c0-1.1-0.8-1.9-1.8-1.9c-1.1,0-1.9,0.8-1.9,1.9c0,1.1,0.8,1.9,1.9,1.9
		C41.4,83.2,42.1,82.4,42.1,81.4z"/>
	<path fill="#193062" d="M47.2,73.3c0.8,0,1.5,0.6,1.5,1.5c0,0.8-0.6,1.5-1.5,1.5c-0.8,0-1.5-0.7-1.5-1.5
		C45.8,74,46.4,73.3,47.2,73.3z M48.4,85.4h-2.4v-8.1h2.4V85.4z"/>
	<path fill="#193062" d="M58,80.3v5h-2.4v-4.6c0-0.8-0.5-1.4-1.3-1.4c-0.8,0-1.4,0.6-1.4,1.4v4.6h-2.4v-8.1h2.3v0.5
		c0.5-0.4,1.2-0.6,2-0.6C56.7,77.1,58,78.5,58,80.3z"/>
	<path fill="#193062" d="M67.6,77.3v7.8c0,2.2-1.6,3.8-4,3.8c-1.8,0-3.3-1-3.7-2.6l2.2-0.8c0.2,0.7,0.8,1.1,1.6,1.1
		c1,0,1.6-0.6,1.6-1.6v-0.6c-0.5,0.4-1.2,0.6-1.9,0.6c-2.2,0-3.8-1.7-3.8-4c0-2.2,1.6-4,3.8-4c0.8,0,1.5,0.2,2,0.7v-0.5H67.6z
		 M65.3,81.1c0-1-0.7-1.7-1.7-1.7c-1,0-1.7,0.8-1.7,1.7c0,0.9,0.7,1.7,1.7,1.7C64.6,82.8,65.3,82.1,65.3,81.1z"/>
	<path fill="#193062" d="M82.7,81.4c0,2.3-1.6,4.2-4,4.2c-0.8,0-1.5-0.2-2-0.6v3.8h-2.4V77.3h2.3v0.5c0.5-0.4,1.3-0.6,2.1-0.6
		C81,77.1,82.7,79,82.7,81.4z M80.3,81.4c0-1.1-0.8-1.9-1.8-1.9c-1.1,0-1.9,0.8-1.9,1.9c0,1.1,0.8,1.9,1.9,1.9
		C79.5,83.2,80.3,82.4,80.3,81.4z"/>
	<path fill="#193062" d="M89.4,77.3v2.3h-1.2c-0.9,0-1.6,0.7-1.6,1.6v4.1h-2.4v-8.1h2.3V78c0.4-0.6,1.2-0.7,1.9-0.7H89.4z"/>
	<path fill="#193062" d="M94.3,77.1c2.4,0,4.2,1.8,4.2,4.2c0,2.3-1.8,4.2-4.2,4.2c-2.4,0-4.2-1.9-4.2-4.2
		C90.1,79,91.9,77.1,94.3,77.1z M94.3,83.2c1.1,0,1.9-0.8,1.9-1.9c0-1.1-0.8-1.9-1.9-1.9c-1.1,0-1.9,0.8-1.9,1.9
		C92.5,82.4,93.3,83.2,94.3,83.2z"/>
	<path fill="#193062" d="M102.8,77.3h2.5v2.3h-2.5v2.7c0,0.5,0.4,0.9,0.9,0.9h1.6v2.3h-2.1c-1.6,0-2.8-1.1-2.8-2.7v-3.1h-1.2v-1.2
		l2.2-2.7h1.3V77.3z"/>
	<path fill="#193062" d="M114.3,82.2h-5.6c0.3,0.7,1,1.2,1.8,1.2c0.8,0,1.3-0.4,1.7-0.9l1.9,1.1c-0.7,1.2-2,2-3.6,2
		c-2.4,0-4.2-1.8-4.2-4.2c0-2.4,1.7-4.2,4.1-4.2c2.4,0,4,1.8,4,4.2C114.4,81.6,114.4,81.9,114.3,82.2z M108.6,80.5h3.4
		c-0.2-0.8-0.9-1.2-1.7-1.2C109.5,79.3,108.8,79.7,108.6,80.5z"/>
	<path fill="#193062" d="M119.6,77.1c1.5,0,2.8,0.7,3.5,1.9l-1.9,1.3c-0.4-0.5-0.9-0.9-1.6-0.9c-1.1,0-1.8,0.8-1.8,1.9
		s0.8,1.9,1.8,1.9c0.7,0,1.2-0.4,1.6-0.9l1.9,1.3c-0.7,1.2-2,1.9-3.5,1.9c-2.4,0-4.2-1.8-4.2-4.2S117.2,77.1,119.6,77.1z"/>
	<path fill="#193062" d="M127.1,77.3h2.5v2.3h-2.5v2.7c0,0.5,0.4,0.9,0.9,0.9h1.6v2.3h-2.1c-1.6,0-2.8-1.1-2.8-2.7v-3.1h-1.2v-1.2
		l2.2-2.7h1.3V77.3z"/>
</g>
<g>
	<path fill="#193062" d="M17.8,100.3l-4.1,11.5h-2.5l1.3-3.6l-2.8-7.9h2.6l1.5,4.4l1.6-4.4H17.8z"/>
	<path fill="#193062" d="M22.4,100.1c2.4,0,4.2,1.8,4.2,4.2c0,2.3-1.8,4.2-4.2,4.2c-2.4,0-4.2-1.9-4.2-4.2
		C18.2,102,20,100.1,22.4,100.1z M22.4,106.2c1.1,0,1.9-0.8,1.9-1.9c0-1.1-0.8-1.9-1.9-1.9c-1.1,0-1.9,0.8-1.9,1.9
		C20.6,105.4,21.4,106.2,22.4,106.2z"/>
	<path fill="#193062" d="M35.6,100.3v8.1h-2.3v-0.4c-0.5,0.4-1.2,0.6-2,0.6c-1.8,0-3.2-1.4-3.2-3.2v-5.1h2.4v4.6
		c0,0.8,0.5,1.4,1.3,1.4s1.4-0.6,1.4-1.4v-4.6H35.6z"/>
	<path fill="#193062" d="M42.8,100.3v2.3h-1.2c-0.9,0-1.6,0.7-1.6,1.6v4.1h-2.4v-8.1H40v0.7c0.4-0.6,1.2-0.7,1.9-0.7H42.8z"/>
	<path fill="#193062" d="M49.6,102.6H48v-2.3h1.6v-1.6c0-1.6,1-2.5,2.6-2.5H54v2.3h-1.4c-0.4,0-0.7,0.2-0.7,0.6v1.2h2v2.3h-2v5.8
		h-2.4V102.6z"/>
	<path fill="#193062" d="M61.8,103.3v5.1h-2.3v-0.4c-0.5,0.4-1.1,0.6-2,0.6c-1.7,0-2.8-1-2.8-2.5c0-1.7,1.2-2.4,2.8-2.5l2-0.2v-0.1
		c0-0.5-0.5-1-1.2-1c-0.6,0-1.1,0.3-1.2,0.8h-2.3c0.1-1.7,1.5-2.9,3.4-2.9C60.4,100.1,61.8,101.5,61.8,103.3z M59.5,105.5V105
		l-1.6,0.1c-0.6,0-0.8,0.3-0.8,0.7c0,0.4,0.4,0.8,1,0.8C59,106.6,59.5,106.2,59.5,105.5z"/>
	<path fill="#193062" d="M75.7,103.1v5.3h-2.4v-4.8c0-0.6-0.4-1.2-1.2-1.2c-0.7,0-1.2,0.5-1.2,1.2v4.8h-2.4v-4.8
		c0-0.6-0.4-1.2-1.2-1.2c-0.7,0-1.2,0.5-1.2,1.2v4.8h-2.4v-8.1h2.3v0.4c0.5-0.4,1.1-0.6,1.8-0.6c0.8,0,1.6,0.3,2.1,0.8
		c0.6-0.5,1.4-0.8,2.3-0.8C74.3,100.1,75.7,101.4,75.7,103.1z"/>
	<path fill="#193062" d="M78.9,96.3c0.8,0,1.5,0.6,1.5,1.5c0,0.8-0.6,1.5-1.5,1.5c-0.8,0-1.5-0.7-1.5-1.5
		C77.5,96.9,78.1,96.3,78.9,96.3z M80.1,108.4h-2.4v-8.1h2.4V108.4z"/>
	<path fill="#193062" d="M82.2,96.2h2.4v12.2h-2.4V96.2z"/>
	<path fill="#193062" d="M93.9,100.3l-4.1,11.5h-2.5l1.3-3.6l-2.8-7.9h2.6l1.5,4.4l1.6-4.4H93.9z"/>
	<path fill="#193062" d="M97.6,97.9c0,0.2,0,0.4-0.1,0.5l-0.9,2.7h-1.4l0.4-1.9c-0.5-0.2-0.9-0.7-0.9-1.3c0-0.8,0.6-1.4,1.4-1.4
		C97.1,96.5,97.6,97.1,97.6,97.9z"/>
	<path fill="#193062" d="M101.7,106.4c0.6,0,1-0.3,1-0.6c0-0.2-0.2-0.4-0.6-0.4c-0.4,0-0.8-0.1-1.5-0.2c-1.6-0.2-2.3-1.2-2.3-2.4
		c0-1.6,1.3-2.7,3.3-2.7c1.9,0,3.2,1.1,3.3,2.7h-2.3c0-0.4-0.4-0.6-1-0.6c-0.6,0-1,0.2-1,0.5c0,0.2,0.2,0.4,0.6,0.4
		c0.5,0.1,0.8,0.1,1.5,0.1c1.6,0.2,2.3,1.2,2.3,2.4c0,1.6-1.3,2.8-3.3,2.8c-2,0-3.4-1.2-3.4-2.8h2.3
		C100.6,106.2,101,106.4,101.7,106.4z"/>
</g>
<g>
	<path fill="#193062" d="M11.4,125.5H9.8v-2.3h1.6v-1.6c0-1.6,1-2.5,2.6-2.5h1.8v2.3h-1.4c-0.4,0-0.7,0.2-0.7,0.6v1.2h2v2.3h-2v5.8
		h-2.4V125.5z"/>
	<path fill="#193062" d="M24.6,123.3v8.1h-2.3v-0.4c-0.5,0.4-1.2,0.6-2,0.6c-1.8,0-3.2-1.4-3.2-3.2v-5.1h2.4v4.6
		c0,0.8,0.5,1.4,1.3,1.4s1.4-0.6,1.4-1.4v-4.6H24.6z"/>
	<path fill="#193062" d="M29.4,123.3h2.5v2.3h-2.5v2.7c0,0.5,0.4,0.9,0.9,0.9h1.6v2.3h-2.1c-1.6,0-2.8-1.1-2.8-2.7v-3.1h-1.2v-1.2
		l2.2-2.7h1.3V123.3z"/>
	<path fill="#193062" d="M40.9,123.3v8.1h-2.3v-0.4c-0.5,0.4-1.2,0.6-2,0.6c-1.8,0-3.2-1.4-3.2-3.2v-5.1h2.4v4.6
		c0,0.8,0.5,1.4,1.3,1.4s1.4-0.6,1.4-1.4v-4.6H40.9z"/>
	<path fill="#193062" d="M48.1,123.3v2.3h-1.2c-0.9,0-1.6,0.7-1.6,1.6v4.1H43v-8.1h2.3v0.7c0.4-0.6,1.2-0.7,1.9-0.7H48.1z"/>
	<path fill="#193062" d="M56.9,128.2h-5.6c0.3,0.7,1,1.2,1.8,1.2c0.8,0,1.3-0.4,1.7-0.9l1.9,1.1c-0.7,1.2-2,2-3.6,2
		c-2.4,0-4.2-1.8-4.2-4.2c0-2.4,1.7-4.2,4.1-4.2c2.4,0,4,1.8,4,4.2C57,127.6,56.9,127.9,56.9,128.2z M51.2,126.5h3.4
		c-0.2-0.8-0.9-1.2-1.7-1.2C52.1,125.3,51.4,125.7,51.2,126.5z"/>
	<path fill="#193062" d="M66.8,123.1c1.5,0,2.8,0.7,3.5,1.9l-1.9,1.3c-0.4-0.5-0.9-0.9-1.6-0.9c-1.1,0-1.8,0.8-1.8,1.9
		c0,1.1,0.8,1.9,1.8,1.9c0.7,0,1.2-0.4,1.6-0.9l1.9,1.3c-0.7,1.2-2,1.9-3.5,1.9c-2.4,0-4.2-1.8-4.2-4.2
		C62.6,125,64.4,123.1,66.8,123.1z"/>
	<path fill="#193062" d="M75.2,123.1c2.4,0,4.2,1.8,4.2,4.2c0,2.3-1.8,4.2-4.2,4.2c-2.4,0-4.2-1.9-4.2-4.2
		C71,125,72.8,123.1,75.2,123.1z M75.2,129.2c1.1,0,1.9-0.8,1.9-1.9c0-1.1-0.8-1.9-1.9-1.9c-1.1,0-1.9,0.8-1.9,1.9
		C73.4,128.4,74.1,129.2,75.2,129.2z"/>
	<path fill="#193062" d="M88.4,123.3v8.1H86v-0.4c-0.5,0.4-1.2,0.6-2,0.6c-1.8,0-3.2-1.4-3.2-3.2v-5.1h2.4v4.6
		c0,0.8,0.5,1.4,1.3,1.4s1.4-0.6,1.4-1.4v-4.6H88.4z"/>
	<path fill="#193062" d="M90.5,119.2h2.4v12.2h-2.4V119.2z"/>
	<path fill="#193062" d="M102.8,119.2v12.2h-2.3v-0.5c-0.5,0.4-1.3,0.7-2.1,0.7c-2.3,0-4-1.9-4-4.2c0-2.4,1.6-4.2,4-4.2
		c0.8,0,1.5,0.2,2,0.6v-4.6H102.8z M100.5,127.3c0-1.1-0.8-1.9-1.9-1.9c-1.1,0-1.8,0.8-1.8,1.9c0,1.1,0.8,1.9,1.8,1.9
		C99.7,129.2,100.5,128.4,100.5,127.3z"/>
	<path fill="#193062" d="M112.4,129.4c0.6,0,1-0.3,1-0.6c0-0.2-0.2-0.4-0.6-0.4c-0.4,0-0.8-0.1-1.5-0.2c-1.6-0.2-2.3-1.2-2.3-2.4
		c0-1.6,1.3-2.7,3.3-2.7c1.9,0,3.2,1.1,3.3,2.7h-2.3c0-0.4-0.4-0.6-1-0.6c-0.6,0-1,0.2-1,0.5c0,0.2,0.2,0.4,0.6,0.4
		c0.5,0.1,0.8,0.1,1.5,0.1c1.6,0.2,2.3,1.2,2.3,2.4c0,1.6-1.3,2.8-3.3,2.8c-2,0-3.4-1.2-3.4-2.8h2.3
		C111.3,129.1,111.7,129.4,112.4,129.4z"/>
	<path fill="#193062" d="M119.9,123.3h2.5v2.3h-2.5v2.7c0,0.5,0.4,0.9,0.9,0.9h1.6v2.3h-2.1c-1.6,0-2.8-1.1-2.8-2.7v-3.1h-1.2v-1.2
		l2.2-2.7h1.3V123.3z"/>
	<path fill="#193062" d="M130.7,126.3v5.1h-2.3v-0.4c-0.5,0.4-1.1,0.6-2,0.6c-1.7,0-2.8-1-2.8-2.5c0-1.7,1.2-2.4,2.8-2.5l2-0.2v-0.1
		c0-0.5-0.5-1-1.2-1c-0.6,0-1.1,0.3-1.2,0.8h-2.3c0.1-1.7,1.5-2.9,3.4-2.9C129.2,123.1,130.7,124.5,130.7,126.3z M128.3,128.5V128
		l-1.6,0.1c-0.6,0-0.8,0.3-0.8,0.7c0,0.4,0.4,0.8,1,0.8C127.8,129.6,128.3,129.2,128.3,128.5z"/>
	<path fill="#193062" d="M137.9,123.3v2.3h-1.2c-0.9,0-1.6,0.7-1.6,1.6v4.1h-2.4v-8.1h2.3v0.7c0.4-0.6,1.2-0.7,1.9-0.7H137.9z"/>
	<path fill="#193062" d="M142.1,123.3h2.5v2.3h-2.5v2.7c0,0.5,0.4,0.9,0.9,0.9h1.6v2.3h-2.1c-1.6,0-2.8-1.1-2.8-2.7v-3.1h-1.2v-1.2
		l2.2-2.7h1.3V123.3z"/>
</g>
<g>
	<path fill="#193062" d="M21.9,146.3l-2.7,8.1h-2.4l-1-3.4l-1,3.4h-2.4l-2.7-8.1h2.6l1.4,4.6l1.4-4.6h1.5l1.4,4.4l1.5-4.4H21.9z"/>
	<path fill="#193062" d="M24.3,142.3c0.8,0,1.5,0.6,1.5,1.5c0,0.8-0.6,1.5-1.5,1.5c-0.8,0-1.5-0.7-1.5-1.5
		C22.8,142.9,23.5,142.3,24.3,142.3z M25.5,154.3h-2.4v-8.1h2.4V154.3z"/>
	<path fill="#193062" d="M30.3,146.3h2.5v2.3h-2.5v2.7c0,0.5,0.4,0.9,0.9,0.9h1.6v2.3h-2.1c-1.6,0-2.8-1.1-2.8-2.7v-3.1h-1.2v-1.2
		l2.2-2.7h1.3V146.3z"/>
	<path fill="#193062" d="M41.8,149.3v5h-2.4v-4.5c0-0.8-0.5-1.4-1.3-1.4c-0.8,0-1.4,0.6-1.4,1.4v4.5h-2.4v-12.2h2.4v4.6
		c0.5-0.4,1.2-0.6,1.9-0.6C40.5,146.1,41.8,147.5,41.8,149.3z"/>
	<path fill="#193062" d="M50.8,145.1h-3.3v-2.4h9.2v2.4h-3.3v9.3h-2.5V145.1z"/>
	<path fill="#193062" d="M61.8,146.3v2.3h-1.2c-0.9,0-1.6,0.7-1.6,1.6v4.1h-2.4v-8.1H59v0.7c0.4-0.6,1.2-0.7,1.9-0.7H61.8z"/>
	<path fill="#193062" d="M70.5,146.3v8.1h-2.3v-0.4c-0.5,0.4-1.2,0.6-2,0.6c-1.8,0-3.2-1.4-3.2-3.2v-5.1h2.4v4.6
		c0,0.8,0.5,1.4,1.3,1.4s1.4-0.6,1.4-1.4v-4.6H70.5z"/>
	<path fill="#193062" d="M76.5,144.9c-1.1,0-1.7,0.5-1.7,1.2c0,0.4,0.3,0.8,0.7,0.9c0.8,0.3,1.8,0.1,3,0.5c1.5,0.4,2.4,1.6,2.4,3.2
		c0,2.2-1.7,3.9-4.3,3.9c-2.5,0-4.4-1.5-4.4-3.8h2.5c0,0.8,0.8,1.4,2,1.4c1.2,0,1.8-0.6,1.8-1.3c0-0.5-0.4-0.8-0.8-1
		c-0.7-0.3-2-0.2-3-0.5c-1.6-0.4-2.4-1.6-2.4-3.1c0-2.2,1.7-3.7,4.2-3.7c2.4,0,4.2,1.5,4.2,3.6h-2.5
		C78.3,145.3,77.5,144.9,76.5,144.9z"/>
	<path fill="#193062" d="M85.3,146.3h2.5v2.3h-2.5v2.7c0,0.5,0.4,0.9,0.9,0.9h1.6v2.3h-2.1c-1.6,0-2.8-1.1-2.8-2.7v-3.1h-1.2v-1.2
		l2.2-2.7h1.3V146.3z"/>
	<path fill="#193062" d="M96.1,149.3v5.1h-2.3v-0.4c-0.5,0.4-1.1,0.6-2,0.6c-1.7,0-2.8-1-2.8-2.5c0-1.7,1.2-2.4,2.8-2.5l2-0.2v-0.1
		c0-0.5-0.5-1-1.2-1c-0.6,0-1.1,0.3-1.2,0.8h-2.3c0.1-1.7,1.5-2.9,3.4-2.9C94.6,146.1,96.1,147.4,96.1,149.3z M93.7,151.5V151
		l-1.6,0.1c-0.6,0-0.8,0.3-0.8,0.7c0,0.4,0.4,0.8,1,0.8C93.2,152.6,93.7,152.2,93.7,151.5z"/>
	<path fill="#193062" d="M105.6,146.3v7.8c0,2.2-1.6,3.8-4,3.8c-1.8,0-3.3-1-3.7-2.6l2.2-0.8c0.2,0.7,0.8,1.1,1.6,1.1
		c1,0,1.6-0.6,1.6-1.6v-0.6c-0.5,0.4-1.2,0.6-1.9,0.6c-2.2,0-3.8-1.7-3.8-4s1.6-4,3.8-4c0.8,0,1.5,0.2,2,0.7v-0.5H105.6z
		 M103.4,150.1c0-1-0.7-1.7-1.7-1.7c-1,0-1.7,0.8-1.7,1.7c0,0.9,0.7,1.7,1.7,1.7C102.6,151.8,103.4,151,103.4,150.1z"/>
	<path fill="#193062" d="M115.2,151.2h-5.6c0.3,0.7,1,1.2,1.8,1.2c0.8,0,1.3-0.4,1.7-0.9l1.9,1.1c-0.7,1.2-2,2-3.6,2
		c-2.4,0-4.2-1.8-4.2-4.2c0-2.4,1.7-4.2,4.1-4.2c2.4,0,4,1.8,4,4.2C115.3,150.6,115.3,150.9,115.2,151.2z M109.6,149.4h3.4
		c-0.2-0.8-0.9-1.2-1.7-1.2C110.4,148.3,109.8,148.7,109.6,149.4z"/>
	<path fill="#193062" d="M117.7,144h-1.3v-1.3h3.9v1.3H119v3.3h-1.4V144z M121,142.7h1.3l1,2.1l1-2.1h1.3v4.6h-1.3v-2.1l-1,2.2
		l-1.1-2.1v2H121V142.7z"/>
</g>
<g>
	<path fill="#193062" d="M10.8,165.7h2.5v9.3h6.7v2.4h-9.2V165.7z"/>
	<path fill="#193062" d="M22.7,165.3c0.8,0,1.5,0.6,1.5,1.5c0,0.8-0.6,1.5-1.5,1.5c-0.8,0-1.5-0.7-1.5-1.5
		C21.2,165.9,21.8,165.3,22.7,165.3z M23.9,177.3h-2.4v-8.1h2.4V177.3z"/>
	<path fill="#193062" d="M26.7,171.5h-1.6v-2.3h1.6v-1.6c0-1.6,1-2.5,2.6-2.5h1.8v2.3h-1.4c-0.4,0-0.7,0.2-0.7,0.6v1.2h2v2.3h-2v5.8
		h-2.4V171.5z"/>
	<path fill="#193062" d="M39.9,174.2h-5.6c0.3,0.7,1,1.2,1.8,1.2c0.8,0,1.3-0.4,1.7-0.9l1.9,1.1c-0.7,1.2-2,2-3.6,2
		c-2.4,0-4.2-1.8-4.2-4.2c0-2.4,1.7-4.2,4.1-4.2c2.4,0,4,1.8,4,4.2C40,173.6,39.9,173.9,39.9,174.2z M34.2,172.4h3.4
		c-0.2-0.8-0.9-1.2-1.7-1.2C35.1,171.3,34.4,171.7,34.2,172.4z"/>
	<path fill="#193062" d="M46.3,165.7h2.5v11.7h-2.5V165.7z"/>
	<path fill="#193062" d="M58.5,172.3v5h-2.4v-4.6c0-0.8-0.5-1.4-1.3-1.4c-0.8,0-1.4,0.6-1.4,1.4v4.6h-2.4v-8.1h2.3v0.5
		c0.5-0.4,1.2-0.6,2-0.6C57.2,169.1,58.5,170.5,58.5,172.3z"/>
	<path fill="#193062" d="M63.5,175.4c0.6,0,1-0.3,1-0.6c0-0.2-0.2-0.4-0.6-0.4c-0.4,0-0.8-0.1-1.5-0.2c-1.6-0.2-2.3-1.2-2.3-2.4
		c0-1.6,1.3-2.7,3.3-2.7c1.9,0,3.2,1.1,3.3,2.7h-2.3c0-0.4-0.4-0.6-1-0.6c-0.6,0-1,0.2-1,0.5c0,0.2,0.2,0.4,0.6,0.4
		c0.5,0.1,0.8,0.1,1.5,0.1c1.6,0.2,2.3,1.2,2.3,2.4c0,1.6-1.3,2.8-3.3,2.8c-2,0-3.4-1.2-3.4-2.8h2.3
		C62.4,175.1,62.8,175.4,63.5,175.4z"/>
	<path fill="#193062" d="M75.7,169.3v8.1h-2.3v-0.4c-0.5,0.4-1.2,0.6-2,0.6c-1.8,0-3.2-1.4-3.2-3.2v-5.1h2.4v4.6
		c0,0.8,0.5,1.4,1.3,1.4s1.4-0.6,1.4-1.4v-4.6H75.7z"/>
	<path fill="#193062" d="M83,169.3v2.3h-1.2c-0.9,0-1.6,0.7-1.6,1.6v4.1h-2.4v-8.1h2.3v0.7c0.4-0.6,1.2-0.7,1.9-0.7H83z"/>
	<path fill="#193062" d="M90.7,172.3v5.1h-2.3v-0.4c-0.5,0.4-1.1,0.6-2,0.6c-1.7,0-2.8-1-2.8-2.5c0-1.7,1.2-2.4,2.8-2.5l2-0.2v-0.1
		c0-0.5-0.5-1-1.2-1c-0.6,0-1.1,0.3-1.2,0.8h-2.3c0.1-1.7,1.5-2.9,3.4-2.9C89.3,169.1,90.7,170.4,90.7,172.3z M88.4,174.5V174
		l-1.6,0.1c-0.6,0-0.8,0.3-0.8,0.7c0,0.4,0.4,0.8,1,0.8C87.9,175.6,88.4,175.2,88.4,174.5z"/>
	<path fill="#193062" d="M100.3,172.3v5h-2.4v-4.6c0-0.8-0.5-1.4-1.3-1.4c-0.8,0-1.4,0.6-1.4,1.4v4.6h-2.4v-8.1h2.3v0.5
		c0.5-0.4,1.2-0.6,2-0.6C98.9,169.1,100.3,170.5,100.3,172.3z"/>
	<path fill="#193062" d="M106,169.1c1.5,0,2.8,0.7,3.5,1.9l-1.9,1.3c-0.4-0.5-0.9-0.9-1.6-0.9c-1.1,0-1.8,0.8-1.8,1.9
		c0,1.1,0.8,1.9,1.8,1.9c0.7,0,1.2-0.4,1.6-0.9l1.9,1.3c-0.7,1.2-2,1.9-3.5,1.9c-2.4,0-4.2-1.8-4.2-4.2
		C101.8,170.9,103.5,169.1,106,169.1z"/>
	<path fill="#193062" d="M118.2,174.2h-5.6c0.3,0.7,1,1.2,1.8,1.2c0.8,0,1.3-0.4,1.7-0.9l1.9,1.1c-0.7,1.2-2,2-3.6,2
		c-2.4,0-4.2-1.8-4.2-4.2c0-2.4,1.7-4.2,4.1-4.2c2.4,0,4,1.8,4,4.2C118.3,173.6,118.3,173.9,118.2,174.2z M112.5,172.4h3.4
		c-0.2-0.8-0.9-1.2-1.7-1.2C113.4,171.3,112.7,171.7,112.5,172.4z"/>
	<path fill="#193062" d="M121,174.5c0.8,0,1.5,0.6,1.5,1.5c0,0.8-0.6,1.5-1.5,1.5s-1.5-0.7-1.5-1.5
		C119.6,175.1,120.2,174.5,121,174.5z"/>
</g>
</svg>
