<?xml version="1.0" encoding="utf-8"?>
<!-- Generator: Adobe Illustrator 27.4.0, SVG Export Plug-In . SVG Version: 6.00 Build 0)  -->
<svg version="1.1" baseProfile="tiny" id="Layer_1" xmlns="http://www.w3.org/2000/svg" xmlns:xlink="http://www.w3.org/1999/xlink"
	 x="0px" y="0px" viewBox="0 0 300 250" overflow="visible" xml:space="preserve">
<rect y="190.9" fill="#193062" width="300" height="59"/>
<rect x="165.7" y="207.4" fill="#FAE07E" width="19.1" height="5.3"/>
<rect x="186.4" y="207.4" fill="#FFFFFF" width="4.6" height="5.3"/>
<rect x="165.7" y="214.1" fill="#FAE07E" width="14.3" height="5.3"/>
<rect x="181.5" y="214.1" fill="#FFFFFF" width="9.4" height="5.3"/>
<rect x="165.7" y="220.8" fill="#FAE07E" width="9.4" height="5.3"/>
<rect x="176.7" y="220.8" fill="#FFFFFF" width="14.3" height="5.3"/>
<rect x="165.7" y="227.5" fill="#FAE07E" width="4.6" height="5.3"/>
<rect x="171.9" y="227.5" fill="#FFFFFF" width="19.1" height="5.3"/>
<polygon fill="#FFFFFF" points="205.8,215.1 201.6,215.1 201.6,212.8 212.5,212.8 212.5,215.1 208.2,215.1 208.2,227.4 205.8,227.4 
	"/>
<g>
	<ellipse fill="none" cx="254.6" cy="222.3" rx="3.1" ry="3.3"/>
	<path fill="none" d="M266.8,219c-1.8,0-3.1,1.3-3.1,3.2s1.3,3.2,3.1,3.2c1.8,0,3.1-1.3,3.1-3.2S268.6,219,266.8,219z"/>
	<path fill="none" d="M278.9,218.8c-1.3,0-2.7,0.8-3,2.3h5.7C281.4,219.6,280.2,218.8,278.9,218.8z"/>
	<path fill="#FFFFFF" d="M212,217.1v10.3h2.3v-5.1c0-2.1,1.2-3.2,2.5-3.2c0.4,0,0.7,0.1,1.1,0.2v-2.3c-0.3-0.1-0.6-0.1-0.9-0.1
		c-1.2,0-2.3,0.8-2.7,1.9v-1.8H212z"/>
	<path fill="#FFFFFF" d="M219.6,217.1v6.2c0,2.6,1.5,4.4,3.8,4.4c1.3,0,2.4-0.6,3-1.6v1.4h2.3v-10.3h-2.3v5.1c0,2.2-1.1,3.4-2.5,3.4
		c-1.3,0-2.1-1-2.1-2.7v-5.8H219.6z"/>
	<path fill="#FFFFFF" d="M235.5,225.4c-1.4,0-2.6-0.7-3.4-1.9l-1.9,1.5c0.9,1.6,2.8,2.6,5.2,2.6c2.9,0,4.9-1.7,4.9-4.2
		c0-2.2-1.3-3.5-3.4-4.3l-1.5-0.6c-1.5-0.6-2.2-1-2.2-2.1c0-1.1,1.1-1.7,2.3-1.7c1.1,0,2,0.5,2.8,1.4l1.7-1.6c-1.1-1.3-2.6-2-4.4-2
		c-2.7,0-4.8,1.6-4.8,4.1c0,2,1.1,3.3,3.5,4.1l1.6,0.6c1.4,0.5,2.1,1.2,2.1,2.2C237.9,224.7,236.9,225.4,235.5,225.4z"/>
	<path fill="#FFFFFF" d="M259.8,227.4v-10.3h-2.3v1.4c-0.6-0.8-1.8-1.6-3.3-1.6c-2.8,0-5,2.4-5,5.4c0,3,2.1,5.4,5,5.4
		c1.5,0,2.7-0.8,3.3-1.6v1.4H259.8z M254.6,225.6c-1.8,0-3.1-1.4-3.1-3.3c0-1.9,1.2-3.3,3.1-3.3s3.1,1.4,3.1,3.3
		C257.7,224.1,256.5,225.6,254.6,225.6z"/>
	<path fill="#FFFFFF" d="M266.6,230c-1.4,0-2.6-0.6-3.4-1.5l-1.4,1.6c1,1.1,2.8,1.9,4.8,1.9c3.1,0,5.4-1.6,5.4-5.2v-9.6h-2.3v1.4
		c-0.6-0.9-1.9-1.6-3.3-1.6c-2.8,0-5,2.3-5,5.2c0,2.9,2.2,5.3,5,5.3c1.4,0,2.7-0.7,3.3-1.6v1C269.7,228.8,268.3,230,266.6,230z
		 M266.8,225.3c-1.8,0-3.1-1.3-3.1-3.2s1.3-3.2,3.1-3.2c1.8,0,3.1,1.3,3.1,3.2S268.6,225.3,266.8,225.3z"/>
	<path fill="#FFFFFF" d="M279,216.9c-3.1,0-5.4,2.3-5.4,5.4c0,3.1,2.2,5.4,5.4,5.4c2.2,0,3.8-0.9,4.7-2.4l-1.7-1.2
		c-0.5,0.9-1.5,1.6-3,1.6c-1.7,0-3.1-1.1-3.2-2.8h8.1c0-0.3,0-0.5,0-0.7C283.9,218.7,281.7,216.9,279,216.9z M275.9,221.1
		c0.3-1.5,1.6-2.3,3-2.3c1.3,0,2.5,0.8,2.8,2.3H275.9z"/>
	<path fill="#FFFFFF" d="M242.9,214.2l0,1.3c0,0.9-0.7,1.6-1.6,1.6l-0.6,0v2h2.1v5c0,2.3,1.5,3.4,3.5,3.4c0.7,0,1.2-0.1,1.7-0.2v-2
		c-0.3,0.1-0.8,0.2-1.2,0.2c-1.2,0-1.7-0.5-1.7-1.8v-4.6h3v-2h-3v-2.9H242.9z"/>
	<polygon fill="#FFFFFF" points="285.3,215.3 284.8,214.2 284.4,214.2 284.4,216 284.8,216 284.8,214.9 285.3,216.1 285.8,214.9 
		285.8,216 286.2,216 286.2,214.2 285.8,214.2 	"/>
	<polygon fill="#FFFFFF" points="283.5,216 283.5,214.6 284.1,214.6 284.1,214.2 282.6,214.2 282.6,214.6 283.2,214.6 283.2,216 	
		"/>
</g>
</svg>
